%TF.GenerationSoftware,KiCad,Pcbnew,8.0.9*%
%TF.CreationDate,2025-05-07T23:17:41-04:00*%
%TF.ProjectId,RAMEXPB_V3,52414d45-5850-4425-9f56-332e6b696361,rev?*%
%TF.SameCoordinates,Original*%
%TF.FileFunction,Drillmap*%
%TF.FilePolarity,Positive*%
%FSLAX45Y45*%
G04 Gerber Fmt 4.5, Leading zero omitted, Abs format (unit mm)*
G04 Created by KiCad (PCBNEW 8.0.9) date 2025-05-07 23:17:41*
%MOMM*%
%LPD*%
G01*
G04 APERTURE LIST*
%ADD10C,0.150000*%
%ADD11C,0.200000*%
%ADD12C,0.100000*%
G04 APERTURE END LIST*
D10*
X7556000Y-10446000D02*
X17499000Y-10446000D01*
X21256000Y-7348000D02*
X17499000Y-7348000D01*
X21256000Y-16548000D02*
X21256000Y-7348000D01*
X7556000Y-16548000D02*
X7556000Y-10446000D01*
X21256000Y-16548000D02*
X7556000Y-16548000D01*
X17499000Y-10446000D02*
X17499000Y-7348000D01*
D11*
D12*
X7986000Y-13736000D02*
X8006000Y-13756000D01*
X8006000Y-13736000D02*
X7986000Y-13756000D01*
X8811000Y-11319000D02*
X8831000Y-11339000D01*
X8831000Y-11319000D02*
X8811000Y-11339000D01*
X8856000Y-15220000D02*
X8876000Y-15240000D01*
X8876000Y-15220000D02*
X8856000Y-15240000D01*
X8871000Y-10857000D02*
X8891000Y-10877000D01*
X8891000Y-10857000D02*
X8871000Y-10877000D01*
X9005000Y-11100000D02*
X9025000Y-11120000D01*
X9025000Y-11100000D02*
X9005000Y-11120000D01*
X9060000Y-13696000D02*
X9080000Y-13716000D01*
X9080000Y-13696000D02*
X9060000Y-13716000D01*
X9060000Y-13966000D02*
X9080000Y-13986000D01*
X9080000Y-13966000D02*
X9060000Y-13986000D01*
X9107000Y-15648000D02*
X9127000Y-15668000D01*
X9127000Y-15648000D02*
X9107000Y-15668000D01*
X9107000Y-15993000D02*
X9127000Y-16013000D01*
X9127000Y-15993000D02*
X9107000Y-16013000D01*
X9206000Y-11311000D02*
X9226000Y-11331000D01*
X9226000Y-11311000D02*
X9206000Y-11331000D01*
X9212000Y-11833000D02*
X9232000Y-11853000D01*
X9232000Y-11833000D02*
X9212000Y-11853000D01*
X9671000Y-12616000D02*
X9691000Y-12636000D01*
X9691000Y-12616000D02*
X9671000Y-12636000D01*
X9754500Y-16262500D02*
X9774500Y-16282500D01*
X9774500Y-16262500D02*
X9754500Y-16282500D01*
X9771000Y-14371000D02*
X9791000Y-14391000D01*
X9791000Y-14371000D02*
X9771000Y-14391000D01*
X9784000Y-12969000D02*
X9804000Y-12989000D01*
X9804000Y-12969000D02*
X9784000Y-12989000D01*
X9840500Y-16256500D02*
X9860500Y-16276500D01*
X9860500Y-16256500D02*
X9840500Y-16276500D01*
X9843920Y-12733860D02*
X9863920Y-12753860D01*
X9863920Y-12733860D02*
X9843920Y-12753860D01*
X9849930Y-12454630D02*
X9869930Y-12474630D01*
X9869930Y-12454630D02*
X9849930Y-12474630D01*
X9859000Y-11158000D02*
X9879000Y-11178000D01*
X9879000Y-11158000D02*
X9859000Y-11178000D01*
X10033000Y-15972000D02*
X10053000Y-15992000D01*
X10053000Y-15972000D02*
X10033000Y-15992000D01*
X10079000Y-14531000D02*
X10099000Y-14551000D01*
X10099000Y-14531000D02*
X10079000Y-14551000D01*
X10108000Y-15501000D02*
X10128000Y-15521000D01*
X10128000Y-15501000D02*
X10108000Y-15521000D01*
X10115000Y-15922000D02*
X10135000Y-15942000D01*
X10135000Y-15922000D02*
X10115000Y-15942000D01*
X10122000Y-16096000D02*
X10142000Y-16116000D01*
X10142000Y-16096000D02*
X10122000Y-16116000D01*
X10138000Y-13448000D02*
X10158000Y-13468000D01*
X10158000Y-13448000D02*
X10138000Y-13468000D01*
X10227500Y-11025500D02*
X10247500Y-11045500D01*
X10247500Y-11025500D02*
X10227500Y-11045500D01*
X10252000Y-15654000D02*
X10272000Y-15674000D01*
X10272000Y-15654000D02*
X10252000Y-15674000D01*
X10263000Y-14859000D02*
X10283000Y-14879000D01*
X10283000Y-14859000D02*
X10263000Y-14879000D01*
X10271000Y-13579000D02*
X10291000Y-13599000D01*
X10291000Y-13579000D02*
X10271000Y-13599000D01*
X10274000Y-14974000D02*
X10294000Y-14994000D01*
X10294000Y-14974000D02*
X10274000Y-14994000D01*
X10275000Y-13191000D02*
X10295000Y-13211000D01*
X10295000Y-13191000D02*
X10275000Y-13211000D01*
X10279000Y-14039000D02*
X10299000Y-14059000D01*
X10299000Y-14039000D02*
X10279000Y-14059000D01*
X10287000Y-15788000D02*
X10307000Y-15808000D01*
X10307000Y-15788000D02*
X10287000Y-15808000D01*
X10327000Y-10825000D02*
X10347000Y-10845000D01*
X10347000Y-10825000D02*
X10327000Y-10845000D01*
X10357000Y-15544000D02*
X10377000Y-15564000D01*
X10377000Y-15544000D02*
X10357000Y-15564000D01*
X10371000Y-10949000D02*
X10391000Y-10969000D01*
X10391000Y-10949000D02*
X10371000Y-10969000D01*
X10371000Y-11140000D02*
X10391000Y-11160000D01*
X10391000Y-11140000D02*
X10371000Y-11160000D01*
X10386000Y-13105000D02*
X10406000Y-13125000D01*
X10406000Y-13105000D02*
X10386000Y-13125000D01*
X10396000Y-13746000D02*
X10416000Y-13766000D01*
X10416000Y-13746000D02*
X10396000Y-13766000D01*
X10453000Y-15231000D02*
X10473000Y-15251000D01*
X10473000Y-15231000D02*
X10453000Y-15251000D01*
X10475000Y-15410000D02*
X10495000Y-15430000D01*
X10495000Y-15410000D02*
X10475000Y-15430000D01*
X10503000Y-11541000D02*
X10523000Y-11561000D01*
X10523000Y-11541000D02*
X10503000Y-11561000D01*
X10503000Y-14363000D02*
X10523000Y-14383000D01*
X10523000Y-14363000D02*
X10503000Y-14383000D01*
X10504000Y-12964000D02*
X10524000Y-12984000D01*
X10524000Y-12964000D02*
X10504000Y-12984000D01*
X10512000Y-15545000D02*
X10532000Y-15565000D01*
X10532000Y-15545000D02*
X10512000Y-15565000D01*
X10514000Y-16168000D02*
X10534000Y-16188000D01*
X10534000Y-16168000D02*
X10514000Y-16188000D01*
X10534000Y-10763000D02*
X10554000Y-10783000D01*
X10554000Y-10763000D02*
X10534000Y-10783000D01*
X10748000Y-13570000D02*
X10768000Y-13590000D01*
X10768000Y-13570000D02*
X10748000Y-13590000D01*
X10768000Y-13155000D02*
X10788000Y-13175000D01*
X10788000Y-13155000D02*
X10768000Y-13175000D01*
X10789330Y-14662330D02*
X10809330Y-14682330D01*
X10809330Y-14662330D02*
X10789330Y-14682330D01*
X10792000Y-14461000D02*
X10812000Y-14481000D01*
X10812000Y-14461000D02*
X10792000Y-14481000D01*
X10797000Y-16168000D02*
X10817000Y-16188000D01*
X10817000Y-16168000D02*
X10797000Y-16188000D01*
X10801412Y-16061588D02*
X10821412Y-16081588D01*
X10821412Y-16061588D02*
X10801412Y-16081588D01*
X10802000Y-11143000D02*
X10822000Y-11163000D01*
X10822000Y-11143000D02*
X10802000Y-11163000D01*
X10852000Y-14096000D02*
X10872000Y-14116000D01*
X10872000Y-14096000D02*
X10852000Y-14116000D01*
X10866000Y-15915000D02*
X10886000Y-15935000D01*
X10886000Y-15915000D02*
X10866000Y-15935000D01*
X10870000Y-13905000D02*
X10890000Y-13925000D01*
X10890000Y-13905000D02*
X10870000Y-13925000D01*
X10882000Y-13513000D02*
X10902000Y-13533000D01*
X10902000Y-13513000D02*
X10882000Y-13533000D01*
X10907000Y-12457000D02*
X10927000Y-12477000D01*
X10927000Y-12457000D02*
X10907000Y-12477000D01*
X10917000Y-16040000D02*
X10937000Y-16060000D01*
X10937000Y-16040000D02*
X10917000Y-16060000D01*
X10918500Y-15624500D02*
X10938500Y-15644500D01*
X10938500Y-15624500D02*
X10918500Y-15644500D01*
X10952000Y-14281000D02*
X10972000Y-14301000D01*
X10972000Y-14281000D02*
X10952000Y-14301000D01*
X11002000Y-10907000D02*
X11022000Y-10927000D01*
X11022000Y-10907000D02*
X11002000Y-10927000D01*
X11007000Y-12971000D02*
X11027000Y-12991000D01*
X11027000Y-12971000D02*
X11007000Y-12991000D01*
X11011000Y-16100000D02*
X11031000Y-16120000D01*
X11031000Y-16100000D02*
X11011000Y-16120000D01*
X11018000Y-11268000D02*
X11038000Y-11288000D01*
X11038000Y-11268000D02*
X11018000Y-11288000D01*
X11023000Y-14464000D02*
X11043000Y-14484000D01*
X11043000Y-14464000D02*
X11023000Y-14484000D01*
X11179500Y-14765500D02*
X11199500Y-14785500D01*
X11199500Y-14765500D02*
X11179500Y-14785500D01*
X11323000Y-15537000D02*
X11343000Y-15557000D01*
X11343000Y-15537000D02*
X11323000Y-15557000D01*
X11332000Y-14594000D02*
X11352000Y-14614000D01*
X11352000Y-14594000D02*
X11332000Y-14614000D01*
X11339300Y-12521700D02*
X11359300Y-12541700D01*
X11359300Y-12521700D02*
X11339300Y-12541700D01*
X11376000Y-10986000D02*
X11396000Y-11006000D01*
X11396000Y-10986000D02*
X11376000Y-11006000D01*
X11390000Y-15180000D02*
X11410000Y-15200000D01*
X11410000Y-15180000D02*
X11390000Y-15200000D01*
X11411000Y-12467000D02*
X11431000Y-12487000D01*
X11431000Y-12467000D02*
X11411000Y-12487000D01*
X11434000Y-11355000D02*
X11454000Y-11375000D01*
X11454000Y-11355000D02*
X11434000Y-11375000D01*
X11467500Y-15272500D02*
X11487500Y-15292500D01*
X11487500Y-15272500D02*
X11467500Y-15292500D01*
X11497000Y-15614000D02*
X11517000Y-15634000D01*
X11517000Y-15614000D02*
X11497000Y-15634000D01*
X11544000Y-11539000D02*
X11564000Y-11559000D01*
X11564000Y-11539000D02*
X11544000Y-11559000D01*
X11548000Y-12775000D02*
X11568000Y-12795000D01*
X11568000Y-12775000D02*
X11548000Y-12795000D01*
X11602000Y-14293000D02*
X11622000Y-14313000D01*
X11622000Y-14293000D02*
X11602000Y-14313000D01*
X11611000Y-12878000D02*
X11631000Y-12898000D01*
X11631000Y-12878000D02*
X11611000Y-12898000D01*
X11647500Y-15166500D02*
X11667500Y-15186500D01*
X11667500Y-15166500D02*
X11647500Y-15186500D01*
X11660000Y-15386000D02*
X11680000Y-15406000D01*
X11680000Y-15386000D02*
X11660000Y-15406000D01*
X11676000Y-13491000D02*
X11696000Y-13511000D01*
X11696000Y-13491000D02*
X11676000Y-13511000D01*
X11738000Y-12997000D02*
X11758000Y-13017000D01*
X11758000Y-12997000D02*
X11738000Y-13017000D01*
X11745000Y-11869000D02*
X11765000Y-11889000D01*
X11765000Y-11869000D02*
X11745000Y-11889000D01*
X11772500Y-14537500D02*
X11792500Y-14557500D01*
X11792500Y-14537500D02*
X11772500Y-14557500D01*
X11796000Y-14167000D02*
X11816000Y-14187000D01*
X11816000Y-14167000D02*
X11796000Y-14187000D01*
X11813000Y-12163000D02*
X11833000Y-12183000D01*
X11833000Y-12163000D02*
X11813000Y-12183000D01*
X11813000Y-13743000D02*
X11833000Y-13763000D01*
X11833000Y-13743000D02*
X11813000Y-13763000D01*
X11828000Y-11205000D02*
X11848000Y-11225000D01*
X11848000Y-11205000D02*
X11828000Y-11225000D01*
X11886000Y-12958000D02*
X11906000Y-12978000D01*
X11906000Y-12958000D02*
X11886000Y-12978000D01*
X11943000Y-13996000D02*
X11963000Y-14016000D01*
X11963000Y-13996000D02*
X11943000Y-14016000D01*
X11997000Y-15702000D02*
X12017000Y-15722000D01*
X12017000Y-15702000D02*
X11997000Y-15722000D01*
X12061000Y-12440000D02*
X12081000Y-12460000D01*
X12081000Y-12440000D02*
X12061000Y-12460000D01*
X12061000Y-13239000D02*
X12081000Y-13259000D01*
X12081000Y-13239000D02*
X12061000Y-13259000D01*
X12146000Y-16218000D02*
X12166000Y-16238000D01*
X12166000Y-16218000D02*
X12146000Y-16238000D01*
X12213000Y-10747000D02*
X12233000Y-10767000D01*
X12233000Y-10747000D02*
X12213000Y-10767000D01*
X12339000Y-14125000D02*
X12359000Y-14145000D01*
X12359000Y-14125000D02*
X12339000Y-14145000D01*
X12340000Y-13874000D02*
X12360000Y-13894000D01*
X12360000Y-13874000D02*
X12340000Y-13894000D01*
X12340000Y-13998000D02*
X12360000Y-14018000D01*
X12360000Y-13998000D02*
X12340000Y-14018000D01*
X12345000Y-16221000D02*
X12365000Y-16241000D01*
X12365000Y-16221000D02*
X12345000Y-16241000D01*
X12426000Y-13747000D02*
X12446000Y-13767000D01*
X12446000Y-13747000D02*
X12426000Y-13767000D01*
X12474000Y-15376000D02*
X12494000Y-15396000D01*
X12494000Y-15376000D02*
X12474000Y-15396000D01*
X12529000Y-15318000D02*
X12549000Y-15338000D01*
X12549000Y-15318000D02*
X12529000Y-15338000D01*
X12709000Y-13878000D02*
X12729000Y-13898000D01*
X12729000Y-13878000D02*
X12709000Y-13898000D01*
X12712000Y-13747000D02*
X12732000Y-13767000D01*
X12732000Y-13747000D02*
X12712000Y-13767000D01*
X12971000Y-14170000D02*
X12991000Y-14190000D01*
X12991000Y-14170000D02*
X12971000Y-14190000D01*
X12996000Y-14026000D02*
X13016000Y-14046000D01*
X13016000Y-14026000D02*
X12996000Y-14046000D01*
X13287000Y-15963000D02*
X13307000Y-15983000D01*
X13307000Y-15963000D02*
X13287000Y-15983000D01*
X13293000Y-15863000D02*
X13313000Y-15883000D01*
X13313000Y-15863000D02*
X13293000Y-15883000D01*
X13299000Y-15575000D02*
X13319000Y-15595000D01*
X13319000Y-15575000D02*
X13299000Y-15595000D01*
X13306000Y-13975000D02*
X13326000Y-13995000D01*
X13326000Y-13975000D02*
X13306000Y-13995000D01*
X13347000Y-10777000D02*
X13367000Y-10797000D01*
X13367000Y-10777000D02*
X13347000Y-10797000D01*
X13360000Y-14652000D02*
X13380000Y-14672000D01*
X13380000Y-14652000D02*
X13360000Y-14672000D01*
X13407000Y-16060000D02*
X13427000Y-16080000D01*
X13427000Y-16060000D02*
X13407000Y-16080000D01*
X13563000Y-13542000D02*
X13583000Y-13562000D01*
X13583000Y-13542000D02*
X13563000Y-13562000D01*
X13744000Y-15272000D02*
X13764000Y-15292000D01*
X13764000Y-15272000D02*
X13744000Y-15292000D01*
X13836000Y-14904000D02*
X13856000Y-14924000D01*
X13856000Y-14904000D02*
X13836000Y-14924000D01*
X14048000Y-16265000D02*
X14068000Y-16285000D01*
X14068000Y-16265000D02*
X14048000Y-16285000D01*
X14081000Y-13417000D02*
X14101000Y-13437000D01*
X14101000Y-13417000D02*
X14081000Y-13437000D01*
X14227000Y-14078000D02*
X14247000Y-14098000D01*
X14247000Y-14078000D02*
X14227000Y-14098000D01*
X14254000Y-13263000D02*
X14274000Y-13283000D01*
X14274000Y-13263000D02*
X14254000Y-13283000D01*
X14291000Y-10777000D02*
X14311000Y-10797000D01*
X14311000Y-10777000D02*
X14291000Y-10797000D01*
X14387000Y-12804000D02*
X14407000Y-12824000D01*
X14407000Y-12804000D02*
X14387000Y-12824000D01*
X14439000Y-13708000D02*
X14459000Y-13728000D01*
X14459000Y-13708000D02*
X14439000Y-13728000D01*
X14442000Y-14596000D02*
X14462000Y-14616000D01*
X14462000Y-14596000D02*
X14442000Y-14616000D01*
X14453000Y-14951000D02*
X14473000Y-14971000D01*
X14473000Y-14951000D02*
X14453000Y-14971000D01*
X14640500Y-15831500D02*
X14660500Y-15851500D01*
X14660500Y-15831500D02*
X14640500Y-15851500D01*
X14971000Y-15511000D02*
X14991000Y-15531000D01*
X14991000Y-15511000D02*
X14971000Y-15531000D01*
X15000000Y-11667000D02*
X15020000Y-11687000D01*
X15020000Y-11667000D02*
X15000000Y-11687000D01*
X15007000Y-14353300D02*
X15027000Y-14373300D01*
X15027000Y-14353300D02*
X15007000Y-14373300D01*
X15007000Y-14595000D02*
X15027000Y-14615000D01*
X15027000Y-14595000D02*
X15007000Y-14615000D01*
X15008500Y-11026500D02*
X15028500Y-11046500D01*
X15028500Y-11026500D02*
X15008500Y-11046500D01*
X15018000Y-14950000D02*
X15038000Y-14970000D01*
X15038000Y-14950000D02*
X15018000Y-14970000D01*
X15253000Y-13636000D02*
X15273000Y-13656000D01*
X15273000Y-13636000D02*
X15253000Y-13656000D01*
X15254000Y-11474000D02*
X15274000Y-11494000D01*
X15274000Y-11474000D02*
X15254000Y-11494000D01*
X15294000Y-13128000D02*
X15314000Y-13148000D01*
X15314000Y-13128000D02*
X15294000Y-13148000D01*
X15524000Y-14605000D02*
X15544000Y-14625000D01*
X15544000Y-14605000D02*
X15524000Y-14625000D01*
X15535000Y-14894000D02*
X15555000Y-14914000D01*
X15555000Y-14894000D02*
X15535000Y-14914000D01*
X15597000Y-16086000D02*
X15617000Y-16106000D01*
X15617000Y-16086000D02*
X15597000Y-16106000D01*
X15626000Y-16216000D02*
X15646000Y-16236000D01*
X15646000Y-16216000D02*
X15626000Y-16236000D01*
X15923000Y-16215000D02*
X15943000Y-16235000D01*
X15943000Y-16215000D02*
X15923000Y-16235000D01*
X16045000Y-15957000D02*
X16065000Y-15977000D01*
X16065000Y-15957000D02*
X16045000Y-15977000D01*
X16089000Y-14604000D02*
X16109000Y-14624000D01*
X16109000Y-14604000D02*
X16089000Y-14624000D01*
X16100000Y-14893000D02*
X16120000Y-14913000D01*
X16120000Y-14893000D02*
X16100000Y-14913000D01*
X16150500Y-12168500D02*
X16170500Y-12188500D01*
X16170500Y-12168500D02*
X16150500Y-12188500D01*
X16233000Y-11856000D02*
X16253000Y-11876000D01*
X16253000Y-11856000D02*
X16233000Y-11876000D01*
X16411000Y-14120000D02*
X16431000Y-14140000D01*
X16431000Y-14120000D02*
X16411000Y-14140000D01*
X16542000Y-14104000D02*
X16562000Y-14124000D01*
X16562000Y-14104000D02*
X16542000Y-14124000D01*
X16936000Y-16219000D02*
X16956000Y-16239000D01*
X16956000Y-16219000D02*
X16936000Y-16239000D01*
X17233000Y-16218000D02*
X17253000Y-16238000D01*
X17253000Y-16218000D02*
X17233000Y-16238000D01*
X17335000Y-11546000D02*
X17355000Y-11566000D01*
X17355000Y-11546000D02*
X17335000Y-11566000D01*
X17411000Y-13445000D02*
X17431000Y-13465000D01*
X17431000Y-13445000D02*
X17411000Y-13465000D01*
X17574000Y-7432000D02*
X17594000Y-7452000D01*
X17594000Y-7432000D02*
X17574000Y-7452000D01*
X17586000Y-8275000D02*
X17606000Y-8295000D01*
X17606000Y-8275000D02*
X17586000Y-8295000D01*
X17586000Y-9220500D02*
X17606000Y-9240500D01*
X17606000Y-9220500D02*
X17586000Y-9240500D01*
X17985000Y-12810000D02*
X18005000Y-12830000D01*
X18005000Y-12810000D02*
X17985000Y-12830000D01*
X18044000Y-11477000D02*
X18064000Y-11497000D01*
X18064000Y-11477000D02*
X18044000Y-11497000D01*
X18047000Y-15640000D02*
X18067000Y-15660000D01*
X18067000Y-15640000D02*
X18047000Y-15660000D01*
X18087000Y-10713000D02*
X18107000Y-10733000D01*
X18107000Y-10713000D02*
X18087000Y-10733000D01*
X18099000Y-12559000D02*
X18119000Y-12579000D01*
X18119000Y-12559000D02*
X18099000Y-12579000D01*
X18151000Y-12239000D02*
X18171000Y-12259000D01*
X18171000Y-12239000D02*
X18151000Y-12259000D01*
X18154000Y-15914000D02*
X18174000Y-15934000D01*
X18174000Y-15914000D02*
X18154000Y-15934000D01*
X18222000Y-12049000D02*
X18242000Y-12069000D01*
X18242000Y-12049000D02*
X18222000Y-12069000D01*
X18223000Y-13886000D02*
X18243000Y-13906000D01*
X18243000Y-13886000D02*
X18223000Y-13906000D01*
X18277000Y-10780000D02*
X18297000Y-10800000D01*
X18297000Y-10780000D02*
X18277000Y-10800000D01*
X18285500Y-15364500D02*
X18305500Y-15384500D01*
X18305500Y-15364500D02*
X18285500Y-15384500D01*
X18289000Y-12821000D02*
X18309000Y-12841000D01*
X18309000Y-12821000D02*
X18289000Y-12841000D01*
X18321500Y-7432000D02*
X18341500Y-7452000D01*
X18341500Y-7432000D02*
X18321500Y-7452000D01*
X18327000Y-12177000D02*
X18347000Y-12197000D01*
X18347000Y-12177000D02*
X18327000Y-12197000D01*
X18378000Y-13014000D02*
X18398000Y-13034000D01*
X18398000Y-13014000D02*
X18378000Y-13034000D01*
X18386000Y-12821000D02*
X18406000Y-12841000D01*
X18406000Y-12821000D02*
X18386000Y-12841000D01*
X18468000Y-11734500D02*
X18488000Y-11754500D01*
X18488000Y-11734500D02*
X18468000Y-11754500D01*
X18502000Y-11486000D02*
X18522000Y-11506000D01*
X18522000Y-11486000D02*
X18502000Y-11506000D01*
X18522500Y-11357500D02*
X18542500Y-11377500D01*
X18542500Y-11357500D02*
X18522500Y-11377500D01*
X18554500Y-12252500D02*
X18574500Y-12272500D01*
X18574500Y-12252500D02*
X18554500Y-12272500D01*
X18571000Y-13779000D02*
X18591000Y-13799000D01*
X18591000Y-13779000D02*
X18571000Y-13799000D01*
X18579000Y-12492000D02*
X18599000Y-12512000D01*
X18599000Y-12492000D02*
X18579000Y-12512000D01*
X18594000Y-11056000D02*
X18614000Y-11076000D01*
X18614000Y-11056000D02*
X18594000Y-11076000D01*
X18607000Y-15105000D02*
X18627000Y-15125000D01*
X18627000Y-15105000D02*
X18607000Y-15125000D01*
X18685000Y-11811000D02*
X18705000Y-11831000D01*
X18705000Y-11811000D02*
X18685000Y-11831000D01*
X18691000Y-11735000D02*
X18711000Y-11755000D01*
X18711000Y-11735000D02*
X18691000Y-11755000D01*
X18707000Y-12753000D02*
X18727000Y-12773000D01*
X18727000Y-12753000D02*
X18707000Y-12773000D01*
X18743000Y-11425000D02*
X18763000Y-11445000D01*
X18763000Y-11425000D02*
X18743000Y-11445000D01*
X18759000Y-11920000D02*
X18779000Y-11940000D01*
X18779000Y-11920000D02*
X18759000Y-11940000D01*
X18795000Y-10792850D02*
X18815000Y-10812850D01*
X18815000Y-10792850D02*
X18795000Y-10812850D01*
X18835000Y-14670000D02*
X18855000Y-14690000D01*
X18855000Y-14670000D02*
X18835000Y-14690000D01*
X18846000Y-15025000D02*
X18866000Y-15045000D01*
X18866000Y-15025000D02*
X18846000Y-15045000D01*
X18882000Y-11124000D02*
X18902000Y-11144000D01*
X18902000Y-11124000D02*
X18882000Y-11144000D01*
X18999000Y-11793000D02*
X19019000Y-11813000D01*
X19019000Y-11793000D02*
X18999000Y-11813000D01*
X19019000Y-11980000D02*
X19039000Y-12000000D01*
X19039000Y-11980000D02*
X19019000Y-12000000D01*
X19042000Y-11545000D02*
X19062000Y-11565000D01*
X19062000Y-11545000D02*
X19042000Y-11565000D01*
X19122000Y-11182000D02*
X19142000Y-11202000D01*
X19142000Y-11182000D02*
X19122000Y-11202000D01*
X19131000Y-11304000D02*
X19151000Y-11324000D01*
X19151000Y-11304000D02*
X19131000Y-11324000D01*
X19194000Y-11862000D02*
X19214000Y-11882000D01*
X19214000Y-11862000D02*
X19194000Y-11882000D01*
X19197000Y-11599000D02*
X19217000Y-11619000D01*
X19217000Y-11599000D02*
X19197000Y-11619000D01*
X19232000Y-12430000D02*
X19252000Y-12450000D01*
X19252000Y-12430000D02*
X19232000Y-12450000D01*
X19271000Y-16202000D02*
X19291000Y-16222000D01*
X19291000Y-16202000D02*
X19271000Y-16222000D01*
X19277000Y-10403000D02*
X19297000Y-10423000D01*
X19297000Y-10403000D02*
X19277000Y-10423000D01*
X19281000Y-7427000D02*
X19301000Y-7447000D01*
X19301000Y-7427000D02*
X19281000Y-7447000D01*
X19303000Y-11059000D02*
X19323000Y-11079000D01*
X19323000Y-11059000D02*
X19303000Y-11079000D01*
X19315000Y-12918000D02*
X19335000Y-12938000D01*
X19335000Y-12918000D02*
X19315000Y-12938000D01*
X19359000Y-11180000D02*
X19379000Y-11200000D01*
X19379000Y-11180000D02*
X19359000Y-11200000D01*
X19361000Y-10938000D02*
X19381000Y-10958000D01*
X19381000Y-10938000D02*
X19361000Y-10958000D01*
X19400000Y-14669000D02*
X19420000Y-14689000D01*
X19420000Y-14669000D02*
X19400000Y-14689000D01*
X19411000Y-15024000D02*
X19431000Y-15044000D01*
X19431000Y-15024000D02*
X19411000Y-15044000D01*
X19426500Y-13304500D02*
X19446500Y-13324500D01*
X19446500Y-13304500D02*
X19426500Y-13324500D01*
X19487000Y-13505000D02*
X19507000Y-13525000D01*
X19507000Y-13505000D02*
X19487000Y-13525000D01*
X19558000Y-13842000D02*
X19578000Y-13862000D01*
X19578000Y-13842000D02*
X19558000Y-13862000D01*
X19568000Y-16201000D02*
X19588000Y-16221000D01*
X19588000Y-16201000D02*
X19568000Y-16221000D01*
X19612429Y-10937857D02*
X19632429Y-10957857D01*
X19632429Y-10937857D02*
X19612429Y-10957857D01*
X19650000Y-12053000D02*
X19670000Y-12073000D01*
X19670000Y-12053000D02*
X19650000Y-12073000D01*
X19685000Y-12366000D02*
X19705000Y-12386000D01*
X19705000Y-12366000D02*
X19685000Y-12386000D01*
X19687000Y-13300000D02*
X19707000Y-13320000D01*
X19707000Y-13300000D02*
X19687000Y-13320000D01*
X19725000Y-13970000D02*
X19745000Y-13990000D01*
X19745000Y-13970000D02*
X19725000Y-13990000D01*
X19732000Y-15557000D02*
X19752000Y-15577000D01*
X19752000Y-15557000D02*
X19732000Y-15577000D01*
X19771000Y-13278000D02*
X19791000Y-13298000D01*
X19791000Y-13278000D02*
X19771000Y-13298000D01*
X19917000Y-14679000D02*
X19937000Y-14699000D01*
X19937000Y-14679000D02*
X19917000Y-14699000D01*
X19928000Y-14968000D02*
X19948000Y-14988000D01*
X19948000Y-14968000D02*
X19928000Y-14988000D01*
X20212500Y-7432000D02*
X20232500Y-7452000D01*
X20232500Y-7432000D02*
X20212500Y-7452000D01*
X20214000Y-12373000D02*
X20234000Y-12393000D01*
X20234000Y-12373000D02*
X20214000Y-12393000D01*
X20235000Y-11620000D02*
X20255000Y-11640000D01*
X20255000Y-11620000D02*
X20235000Y-11640000D01*
X20346000Y-13271000D02*
X20366000Y-13291000D01*
X20366000Y-13271000D02*
X20346000Y-13291000D01*
X20482000Y-14678000D02*
X20502000Y-14698000D01*
X20502000Y-14678000D02*
X20482000Y-14698000D01*
X20493000Y-14967000D02*
X20513000Y-14987000D01*
X20513000Y-14967000D02*
X20493000Y-14987000D01*
X20501000Y-10980000D02*
X20521000Y-11000000D01*
X20521000Y-10980000D02*
X20501000Y-11000000D01*
X20501000Y-13137000D02*
X20521000Y-13157000D01*
X20521000Y-13137000D02*
X20501000Y-13157000D01*
X20610500Y-14151500D02*
X20630500Y-14171500D01*
X20630500Y-14151500D02*
X20610500Y-14171500D01*
X20614000Y-13874000D02*
X20634000Y-13894000D01*
X20634000Y-13874000D02*
X20614000Y-13894000D01*
X20615000Y-13585000D02*
X20635000Y-13605000D01*
X20635000Y-13585000D02*
X20615000Y-13605000D01*
X20622000Y-13321000D02*
X20642000Y-13341000D01*
X20642000Y-13321000D02*
X20622000Y-13341000D01*
X20694870Y-10185000D02*
X20714870Y-10205000D01*
X20714870Y-10185000D02*
X20694870Y-10205000D01*
X20778500Y-10852500D02*
X20798500Y-10872500D01*
X20798500Y-10852500D02*
X20778500Y-10872500D01*
X20804435Y-10185000D02*
X20824435Y-10205000D01*
X20824435Y-10185000D02*
X20804435Y-10205000D01*
X20826000Y-15635000D02*
X20846000Y-15655000D01*
X20846000Y-15635000D02*
X20826000Y-15655000D01*
X20914000Y-10185000D02*
X20934000Y-10205000D01*
X20934000Y-10185000D02*
X20914000Y-10205000D01*
X21030000Y-13017000D02*
X21050000Y-13037000D01*
X21050000Y-13017000D02*
X21030000Y-13037000D01*
X21037000Y-10852500D02*
X21057000Y-10872500D01*
X21057000Y-10852500D02*
X21037000Y-10872500D01*
X21153000Y-8290000D02*
X21173000Y-8310000D01*
X21173000Y-8290000D02*
X21153000Y-8310000D01*
X21153000Y-9235500D02*
X21173000Y-9255500D01*
X21173000Y-9235500D02*
X21153000Y-9255500D01*
X21153000Y-10181000D02*
X21173000Y-10201000D01*
X21173000Y-10181000D02*
X21153000Y-10201000D01*
X21158000Y-7433000D02*
X21178000Y-7453000D01*
X21178000Y-7433000D02*
X21158000Y-7453000D01*
X10808000Y-11661000D02*
G75*
G02*
X10778000Y-11661000I-15000J0D01*
G01*
X10778000Y-11661000D02*
G75*
G02*
X10808000Y-11661000I15000J0D01*
G01*
X11042000Y-13783000D02*
G75*
G02*
X11012000Y-13783000I-15000J0D01*
G01*
X11012000Y-13783000D02*
G75*
G02*
X11042000Y-13783000I15000J0D01*
G01*
X11046000Y-12277000D02*
G75*
G02*
X11016000Y-12277000I-15000J0D01*
G01*
X11016000Y-12277000D02*
G75*
G02*
X11046000Y-12277000I15000J0D01*
G01*
X11046000Y-15289000D02*
G75*
G02*
X11016000Y-15289000I-15000J0D01*
G01*
X11016000Y-15289000D02*
G75*
G02*
X11046000Y-15289000I15000J0D01*
G01*
X11046800Y-10772000D02*
G75*
G02*
X11016800Y-10772000I-15000J0D01*
G01*
X11016800Y-10772000D02*
G75*
G02*
X11046800Y-10772000I15000J0D01*
G01*
X11346000Y-13783000D02*
G75*
G02*
X11316000Y-13783000I-15000J0D01*
G01*
X11316000Y-13783000D02*
G75*
G02*
X11346000Y-13783000I15000J0D01*
G01*
X11350000Y-12277000D02*
G75*
G02*
X11320000Y-12277000I-15000J0D01*
G01*
X11320000Y-12277000D02*
G75*
G02*
X11350000Y-12277000I15000J0D01*
G01*
X11350000Y-15289000D02*
G75*
G02*
X11320000Y-15289000I-15000J0D01*
G01*
X11320000Y-15289000D02*
G75*
G02*
X11350000Y-15289000I15000J0D01*
G01*
X11350800Y-10772000D02*
G75*
G02*
X11320800Y-10772000I-15000J0D01*
G01*
X11320800Y-10772000D02*
G75*
G02*
X11350800Y-10772000I15000J0D01*
G01*
X12430500Y-14727500D02*
G75*
G02*
X12400500Y-14727500I-15000J0D01*
G01*
X12400500Y-14727500D02*
G75*
G02*
X12430500Y-14727500I15000J0D01*
G01*
X13290000Y-15046500D02*
G75*
G02*
X13260000Y-15046500I-15000J0D01*
G01*
X13260000Y-15046500D02*
G75*
G02*
X13290000Y-15046500I15000J0D01*
G01*
X13860500Y-13005500D02*
G75*
G02*
X13830500Y-13005500I-15000J0D01*
G01*
X13830500Y-13005500D02*
G75*
G02*
X13860500Y-13005500I15000J0D01*
G01*
X14493100Y-11995000D02*
G75*
G02*
X14463100Y-11995000I-15000J0D01*
G01*
X14463100Y-11995000D02*
G75*
G02*
X14493100Y-11995000I15000J0D01*
G01*
X14493100Y-13901000D02*
G75*
G02*
X14463100Y-13901000I-15000J0D01*
G01*
X14463100Y-13901000D02*
G75*
G02*
X14493100Y-13901000I15000J0D01*
G01*
X14498000Y-11360000D02*
G75*
G02*
X14468000Y-11360000I-15000J0D01*
G01*
X14468000Y-11360000D02*
G75*
G02*
X14498000Y-11360000I15000J0D01*
G01*
X14926600Y-11995000D02*
G75*
G02*
X14896600Y-11995000I-15000J0D01*
G01*
X14896600Y-11995000D02*
G75*
G02*
X14926600Y-11995000I15000J0D01*
G01*
X14926600Y-13901000D02*
G75*
G02*
X14896600Y-13901000I-15000J0D01*
G01*
X14896600Y-13901000D02*
G75*
G02*
X14926600Y-13901000I15000J0D01*
G01*
X14931600Y-11359990D02*
G75*
G02*
X14901600Y-11359990I-15000J0D01*
G01*
X14901600Y-11359990D02*
G75*
G02*
X14931600Y-11359990I15000J0D01*
G01*
X15408000Y-11361000D02*
G75*
G02*
X15378000Y-11361000I-15000J0D01*
G01*
X15378000Y-11361000D02*
G75*
G02*
X15408000Y-11361000I15000J0D01*
G01*
X15414000Y-11995000D02*
G75*
G02*
X15384000Y-11995000I-15000J0D01*
G01*
X15384000Y-11995000D02*
G75*
G02*
X15414000Y-11995000I15000J0D01*
G01*
X15415000Y-13900000D02*
G75*
G02*
X15385000Y-13900000I-15000J0D01*
G01*
X15385000Y-13900000D02*
G75*
G02*
X15415000Y-13900000I15000J0D01*
G01*
X15807000Y-11361000D02*
G75*
G02*
X15777000Y-11361000I-15000J0D01*
G01*
X15777000Y-11361000D02*
G75*
G02*
X15807000Y-11361000I15000J0D01*
G01*
X15813000Y-11995000D02*
G75*
G02*
X15783000Y-11995000I-15000J0D01*
G01*
X15783000Y-11995000D02*
G75*
G02*
X15813000Y-11995000I15000J0D01*
G01*
X15814000Y-13900000D02*
G75*
G02*
X15784000Y-13900000I-15000J0D01*
G01*
X15784000Y-13900000D02*
G75*
G02*
X15814000Y-13900000I15000J0D01*
G01*
X16152500Y-15462500D02*
G75*
G02*
X16122500Y-15462500I-15000J0D01*
G01*
X16122500Y-15462500D02*
G75*
G02*
X16152500Y-15462500I15000J0D01*
G01*
X16456500Y-15462500D02*
G75*
G02*
X16426500Y-15462500I-15000J0D01*
G01*
X16426500Y-15462500D02*
G75*
G02*
X16456500Y-15462500I15000J0D01*
G01*
X16475500Y-16097500D02*
G75*
G02*
X16445500Y-16097500I-15000J0D01*
G01*
X16445500Y-16097500D02*
G75*
G02*
X16475500Y-16097500I15000J0D01*
G01*
X16662100Y-11361000D02*
G75*
G02*
X16632100Y-11361000I-15000J0D01*
G01*
X16632100Y-11361000D02*
G75*
G02*
X16662100Y-11361000I15000J0D01*
G01*
X16668100Y-11996000D02*
G75*
G02*
X16638100Y-11996000I-15000J0D01*
G01*
X16638100Y-11996000D02*
G75*
G02*
X16668100Y-11996000I15000J0D01*
G01*
X16673100Y-13900000D02*
G75*
G02*
X16643100Y-13900000I-15000J0D01*
G01*
X16643100Y-13900000D02*
G75*
G02*
X16673100Y-13900000I15000J0D01*
G01*
X17095600Y-11360990D02*
G75*
G02*
X17065600Y-11360990I-15000J0D01*
G01*
X17065600Y-11360990D02*
G75*
G02*
X17095600Y-11360990I15000J0D01*
G01*
X17101600Y-11996000D02*
G75*
G02*
X17071600Y-11996000I-15000J0D01*
G01*
X17071600Y-11996000D02*
G75*
G02*
X17101600Y-11996000I15000J0D01*
G01*
X17106600Y-13900000D02*
G75*
G02*
X17076600Y-13900000I-15000J0D01*
G01*
X17076600Y-13900000D02*
G75*
G02*
X17106600Y-13900000I15000J0D01*
G01*
X17455000Y-15338000D02*
G75*
G02*
X17425000Y-15338000I-15000J0D01*
G01*
X17425000Y-15338000D02*
G75*
G02*
X17455000Y-15338000I15000J0D01*
G01*
X17582000Y-11994000D02*
G75*
G02*
X17552000Y-11994000I-15000J0D01*
G01*
X17552000Y-11994000D02*
G75*
G02*
X17582000Y-11994000I15000J0D01*
G01*
X17588000Y-11359000D02*
G75*
G02*
X17558000Y-11359000I-15000J0D01*
G01*
X17558000Y-11359000D02*
G75*
G02*
X17588000Y-11359000I15000J0D01*
G01*
X17588000Y-13900000D02*
G75*
G02*
X17558000Y-13900000I-15000J0D01*
G01*
X17558000Y-13900000D02*
G75*
G02*
X17588000Y-13900000I15000J0D01*
G01*
X17759000Y-15338000D02*
G75*
G02*
X17729000Y-15338000I-15000J0D01*
G01*
X17729000Y-15338000D02*
G75*
G02*
X17759000Y-15338000I15000J0D01*
G01*
X17770000Y-16100500D02*
G75*
G02*
X17740000Y-16100500I-15000J0D01*
G01*
X17740000Y-16100500D02*
G75*
G02*
X17770000Y-16100500I15000J0D01*
G01*
X17981000Y-11994000D02*
G75*
G02*
X17951000Y-11994000I-15000J0D01*
G01*
X17951000Y-11994000D02*
G75*
G02*
X17981000Y-11994000I15000J0D01*
G01*
X17987000Y-11359000D02*
G75*
G02*
X17957000Y-11359000I-15000J0D01*
G01*
X17957000Y-11359000D02*
G75*
G02*
X17987000Y-11359000I15000J0D01*
G01*
X17987000Y-13900000D02*
G75*
G02*
X17957000Y-13900000I-15000J0D01*
G01*
X17957000Y-13900000D02*
G75*
G02*
X17987000Y-13900000I15000J0D01*
G01*
X18739000Y-13008000D02*
G75*
G02*
X18709000Y-13008000I-15000J0D01*
G01*
X18709000Y-13008000D02*
G75*
G02*
X18739000Y-13008000I15000J0D01*
G01*
X19597500Y-16083500D02*
G75*
G02*
X19567500Y-16083500I-15000J0D01*
G01*
X19567500Y-16083500D02*
G75*
G02*
X19597500Y-16083500I15000J0D01*
G01*
X19601000Y-15750000D02*
G75*
G02*
X19571000Y-15750000I-15000J0D01*
G01*
X19571000Y-15750000D02*
G75*
G02*
X19601000Y-15750000I15000J0D01*
G01*
X19789000Y-15449000D02*
G75*
G02*
X19759000Y-15449000I-15000J0D01*
G01*
X19759000Y-15449000D02*
G75*
G02*
X19789000Y-15449000I15000J0D01*
G01*
X19831800Y-14171000D02*
G75*
G02*
X19801800Y-14171000I-15000J0D01*
G01*
X19801800Y-14171000D02*
G75*
G02*
X19831800Y-14171000I15000J0D01*
G01*
X19844800Y-12005000D02*
G75*
G02*
X19814800Y-12005000I-15000J0D01*
G01*
X19814800Y-12005000D02*
G75*
G02*
X19844800Y-12005000I15000J0D01*
G01*
X20093000Y-15449000D02*
G75*
G02*
X20063000Y-15449000I-15000J0D01*
G01*
X20063000Y-15449000D02*
G75*
G02*
X20093000Y-15449000I15000J0D01*
G01*
X20148800Y-12005000D02*
G75*
G02*
X20118800Y-12005000I-15000J0D01*
G01*
X20118800Y-12005000D02*
G75*
G02*
X20148800Y-12005000I15000J0D01*
G01*
X20170000Y-14171000D02*
G75*
G02*
X20140000Y-14171000I-15000J0D01*
G01*
X20140000Y-14171000D02*
G75*
G02*
X20170000Y-14171000I15000J0D01*
G01*
X8191500Y-15212500D02*
X8191500Y-15287500D01*
X8154000Y-15250000D02*
X8229000Y-15250000D01*
X8191500Y-15412500D02*
X8191500Y-15487500D01*
X8154000Y-15450000D02*
X8229000Y-15450000D01*
X8191500Y-15612500D02*
X8191500Y-15687500D01*
X8154000Y-15650000D02*
X8229000Y-15650000D01*
X8191500Y-15812500D02*
X8191500Y-15887500D01*
X8154000Y-15850000D02*
X8229000Y-15850000D01*
X8191500Y-16012500D02*
X8191500Y-16087500D01*
X8154000Y-16050000D02*
X8229000Y-16050000D01*
X8191500Y-16212500D02*
X8191500Y-16287500D01*
X8154000Y-16250000D02*
X8229000Y-16250000D01*
X8199500Y-13608000D02*
X8199500Y-13683000D01*
X8162000Y-13645500D02*
X8237000Y-13645500D01*
X8199500Y-13808000D02*
X8199500Y-13883000D01*
X8162000Y-13845500D02*
X8237000Y-13845500D01*
X8199500Y-14008000D02*
X8199500Y-14083000D01*
X8162000Y-14045500D02*
X8237000Y-14045500D01*
X8199500Y-14208000D02*
X8199500Y-14283000D01*
X8162000Y-14245500D02*
X8237000Y-14245500D01*
X8199500Y-14408000D02*
X8199500Y-14483000D01*
X8162000Y-14445500D02*
X8237000Y-14445500D01*
X8199500Y-14608000D02*
X8199500Y-14683000D01*
X8162000Y-14645500D02*
X8237000Y-14645500D01*
X8290856Y-11356856D02*
X8290856Y-11286144D01*
X8220144Y-11286144D01*
X8220144Y-11356856D01*
X8290856Y-11356856D01*
X8290856Y-11610856D02*
X8290856Y-11540144D01*
X8220144Y-11540144D01*
X8220144Y-11610856D01*
X8290856Y-11610856D01*
X8290856Y-11864856D02*
X8290856Y-11794144D01*
X8220144Y-11794144D01*
X8220144Y-11864856D01*
X8290856Y-11864856D01*
X8290856Y-12118856D02*
X8290856Y-12048144D01*
X8220144Y-12048144D01*
X8220144Y-12118856D01*
X8290856Y-12118856D01*
X8290856Y-12372856D02*
X8290856Y-12302144D01*
X8220144Y-12302144D01*
X8220144Y-12372856D01*
X8290856Y-12372856D01*
X8290856Y-12626856D02*
X8290856Y-12556144D01*
X8220144Y-12556144D01*
X8220144Y-12626856D01*
X8290856Y-12626856D01*
X8290856Y-12880856D02*
X8290856Y-12810144D01*
X8220144Y-12810144D01*
X8220144Y-12880856D01*
X8290856Y-12880856D01*
X8290856Y-13134856D02*
X8290856Y-13064144D01*
X8220144Y-13064144D01*
X8220144Y-13134856D01*
X8290856Y-13134856D01*
X9052856Y-11356856D02*
X9052856Y-11286144D01*
X8982144Y-11286144D01*
X8982144Y-11356856D01*
X9052856Y-11356856D01*
X9052856Y-11610856D02*
X9052856Y-11540144D01*
X8982144Y-11540144D01*
X8982144Y-11610856D01*
X9052856Y-11610856D01*
X9052856Y-11864856D02*
X9052856Y-11794144D01*
X8982144Y-11794144D01*
X8982144Y-11864856D01*
X9052856Y-11864856D01*
X9052856Y-12118856D02*
X9052856Y-12048144D01*
X8982144Y-12048144D01*
X8982144Y-12118856D01*
X9052856Y-12118856D01*
X9052856Y-12372856D02*
X9052856Y-12302144D01*
X8982144Y-12302144D01*
X8982144Y-12372856D01*
X9052856Y-12372856D01*
X9052856Y-12626856D02*
X9052856Y-12556144D01*
X8982144Y-12556144D01*
X8982144Y-12626856D01*
X9052856Y-12626856D01*
X9052856Y-12880856D02*
X9052856Y-12810144D01*
X8982144Y-12810144D01*
X8982144Y-12880856D01*
X9052856Y-12880856D01*
X9052856Y-13134856D02*
X9052856Y-13064144D01*
X8982144Y-13064144D01*
X8982144Y-13134856D01*
X9052856Y-13134856D01*
X9546356Y-10838356D02*
X9546356Y-10767644D01*
X9475644Y-10767644D01*
X9475644Y-10838356D01*
X9546356Y-10838356D01*
X9546356Y-11092356D02*
X9546356Y-11021644D01*
X9475644Y-11021644D01*
X9475644Y-11092356D01*
X9546356Y-11092356D01*
X9546356Y-11346356D02*
X9546356Y-11275644D01*
X9475644Y-11275644D01*
X9475644Y-11346356D01*
X9546356Y-11346356D01*
X9546356Y-11600356D02*
X9546356Y-11529644D01*
X9475644Y-11529644D01*
X9475644Y-11600356D01*
X9546356Y-11600356D01*
X9546356Y-11854356D02*
X9546356Y-11783644D01*
X9475644Y-11783644D01*
X9475644Y-11854356D01*
X9546356Y-11854356D01*
X9546356Y-12108356D02*
X9546356Y-12037644D01*
X9475644Y-12037644D01*
X9475644Y-12108356D01*
X9546356Y-12108356D01*
X9546356Y-12362356D02*
X9546356Y-12291644D01*
X9475644Y-12291644D01*
X9475644Y-12362356D01*
X9546356Y-12362356D01*
X9546356Y-12616356D02*
X9546356Y-12545644D01*
X9475644Y-12545644D01*
X9475644Y-12616356D01*
X9546356Y-12616356D01*
X9546356Y-12870356D02*
X9546356Y-12799644D01*
X9475644Y-12799644D01*
X9475644Y-12870356D01*
X9546356Y-12870356D01*
X9546356Y-13124356D02*
X9546356Y-13053644D01*
X9475644Y-13053644D01*
X9475644Y-13124356D01*
X9546356Y-13124356D01*
X9546356Y-13768356D02*
X9546356Y-13697644D01*
X9475644Y-13697644D01*
X9475644Y-13768356D01*
X9546356Y-13768356D01*
X9546356Y-14022356D02*
X9546356Y-13951644D01*
X9475644Y-13951644D01*
X9475644Y-14022356D01*
X9546356Y-14022356D01*
X9546356Y-14276356D02*
X9546356Y-14205644D01*
X9475644Y-14205644D01*
X9475644Y-14276356D01*
X9546356Y-14276356D01*
X9546356Y-14530356D02*
X9546356Y-14459644D01*
X9475644Y-14459644D01*
X9475644Y-14530356D01*
X9546356Y-14530356D01*
X9546356Y-14784356D02*
X9546356Y-14713644D01*
X9475644Y-14713644D01*
X9475644Y-14784356D01*
X9546356Y-14784356D01*
X9546356Y-15038356D02*
X9546356Y-14967644D01*
X9475644Y-14967644D01*
X9475644Y-15038356D01*
X9546356Y-15038356D01*
X9546356Y-15292356D02*
X9546356Y-15221644D01*
X9475644Y-15221644D01*
X9475644Y-15292356D01*
X9546356Y-15292356D01*
X9546356Y-15546356D02*
X9546356Y-15475644D01*
X9475644Y-15475644D01*
X9475644Y-15546356D01*
X9546356Y-15546356D01*
X9546356Y-15800356D02*
X9546356Y-15729644D01*
X9475644Y-15729644D01*
X9475644Y-15800356D01*
X9546356Y-15800356D01*
X9546356Y-16054356D02*
X9546356Y-15983644D01*
X9475644Y-15983644D01*
X9475644Y-16054356D01*
X9546356Y-16054356D01*
X17814356Y-7678496D02*
X17814356Y-7607784D01*
X17743644Y-7607784D01*
X17743644Y-7678496D01*
X17814356Y-7678496D01*
X17814356Y-7932496D02*
X17814356Y-7861784D01*
X17743644Y-7861784D01*
X17743644Y-7932496D01*
X17814356Y-7932496D01*
X17814356Y-8186496D02*
X17814356Y-8115784D01*
X17743644Y-8115784D01*
X17743644Y-8186496D01*
X17814356Y-8186496D01*
X17814356Y-8440496D02*
X17814356Y-8369784D01*
X17743644Y-8369784D01*
X17743644Y-8440496D01*
X17814356Y-8440496D01*
X17814356Y-8694496D02*
X17814356Y-8623784D01*
X17743644Y-8623784D01*
X17743644Y-8694496D01*
X17814356Y-8694496D01*
X17814356Y-8948496D02*
X17814356Y-8877784D01*
X17743644Y-8877784D01*
X17743644Y-8948496D01*
X17814356Y-8948496D01*
X17814356Y-9202496D02*
X17814356Y-9131784D01*
X17743644Y-9131784D01*
X17743644Y-9202496D01*
X17814356Y-9202496D01*
X17814356Y-9456496D02*
X17814356Y-9385784D01*
X17743644Y-9385784D01*
X17743644Y-9456496D01*
X17814356Y-9456496D01*
X17814356Y-9710496D02*
X17814356Y-9639784D01*
X17743644Y-9639784D01*
X17743644Y-9710496D01*
X17814356Y-9710496D01*
X17814356Y-9964496D02*
X17814356Y-9893784D01*
X17743644Y-9893784D01*
X17743644Y-9964496D01*
X17814356Y-9964496D01*
X18576356Y-7678496D02*
X18576356Y-7607784D01*
X18505644Y-7607784D01*
X18505644Y-7678496D01*
X18576356Y-7678496D01*
X18576356Y-7932496D02*
X18576356Y-7861784D01*
X18505644Y-7861784D01*
X18505644Y-7932496D01*
X18576356Y-7932496D01*
X18576356Y-8186496D02*
X18576356Y-8115784D01*
X18505644Y-8115784D01*
X18505644Y-8186496D01*
X18576356Y-8186496D01*
X18576356Y-8440496D02*
X18576356Y-8369784D01*
X18505644Y-8369784D01*
X18505644Y-8440496D01*
X18576356Y-8440496D01*
X18576356Y-8694496D02*
X18576356Y-8623784D01*
X18505644Y-8623784D01*
X18505644Y-8694496D01*
X18576356Y-8694496D01*
X18576356Y-8948496D02*
X18576356Y-8877784D01*
X18505644Y-8877784D01*
X18505644Y-8948496D01*
X18576356Y-8948496D01*
X18576356Y-9202496D02*
X18576356Y-9131784D01*
X18505644Y-9131784D01*
X18505644Y-9202496D01*
X18576356Y-9202496D01*
X18576356Y-9456496D02*
X18576356Y-9385784D01*
X18505644Y-9385784D01*
X18505644Y-9456496D01*
X18576356Y-9456496D01*
X18576356Y-9710496D02*
X18576356Y-9639784D01*
X18505644Y-9639784D01*
X18505644Y-9710496D01*
X18576356Y-9710496D01*
X18576356Y-9964496D02*
X18576356Y-9893784D01*
X18505644Y-9893784D01*
X18505644Y-9964496D01*
X18576356Y-9964496D01*
X19329356Y-7678496D02*
X19329356Y-7607784D01*
X19258644Y-7607784D01*
X19258644Y-7678496D01*
X19329356Y-7678496D01*
X19329356Y-7932496D02*
X19329356Y-7861784D01*
X19258644Y-7861784D01*
X19258644Y-7932496D01*
X19329356Y-7932496D01*
X19329356Y-8186496D02*
X19329356Y-8115784D01*
X19258644Y-8115784D01*
X19258644Y-8186496D01*
X19329356Y-8186496D01*
X19329356Y-8440496D02*
X19329356Y-8369784D01*
X19258644Y-8369784D01*
X19258644Y-8440496D01*
X19329356Y-8440496D01*
X19329356Y-8694496D02*
X19329356Y-8623784D01*
X19258644Y-8623784D01*
X19258644Y-8694496D01*
X19329356Y-8694496D01*
X19329356Y-8948496D02*
X19329356Y-8877784D01*
X19258644Y-8877784D01*
X19258644Y-8948496D01*
X19329356Y-8948496D01*
X19329356Y-9202496D02*
X19329356Y-9131784D01*
X19258644Y-9131784D01*
X19258644Y-9202496D01*
X19329356Y-9202496D01*
X19329356Y-9456496D02*
X19329356Y-9385784D01*
X19258644Y-9385784D01*
X19258644Y-9456496D01*
X19329356Y-9456496D01*
X19329356Y-9710496D02*
X19329356Y-9639784D01*
X19258644Y-9639784D01*
X19258644Y-9710496D01*
X19329356Y-9710496D01*
X19329356Y-9964496D02*
X19329356Y-9893784D01*
X19258644Y-9893784D01*
X19258644Y-9964496D01*
X19329356Y-9964496D01*
X20091356Y-7678496D02*
X20091356Y-7607784D01*
X20020644Y-7607784D01*
X20020644Y-7678496D01*
X20091356Y-7678496D01*
X20091356Y-7932496D02*
X20091356Y-7861784D01*
X20020644Y-7861784D01*
X20020644Y-7932496D01*
X20091356Y-7932496D01*
X20091356Y-8186496D02*
X20091356Y-8115784D01*
X20020644Y-8115784D01*
X20020644Y-8186496D01*
X20091356Y-8186496D01*
X20091356Y-8440496D02*
X20091356Y-8369784D01*
X20020644Y-8369784D01*
X20020644Y-8440496D01*
X20091356Y-8440496D01*
X20091356Y-8694496D02*
X20091356Y-8623784D01*
X20020644Y-8623784D01*
X20020644Y-8694496D01*
X20091356Y-8694496D01*
X20091356Y-8948496D02*
X20091356Y-8877784D01*
X20020644Y-8877784D01*
X20020644Y-8948496D01*
X20091356Y-8948496D01*
X20091356Y-9202496D02*
X20091356Y-9131784D01*
X20020644Y-9131784D01*
X20020644Y-9202496D01*
X20091356Y-9202496D01*
X20091356Y-9456496D02*
X20091356Y-9385784D01*
X20020644Y-9385784D01*
X20020644Y-9456496D01*
X20091356Y-9456496D01*
X20091356Y-9710496D02*
X20091356Y-9639784D01*
X20020644Y-9639784D01*
X20020644Y-9710496D01*
X20091356Y-9710496D01*
X20091356Y-9964496D02*
X20091356Y-9893784D01*
X20020644Y-9893784D01*
X20020644Y-9964496D01*
X20091356Y-9964496D01*
D11*
X7809277Y-16866984D02*
X7809277Y-16666984D01*
X7809277Y-16666984D02*
X7856896Y-16666984D01*
X7856896Y-16666984D02*
X7885467Y-16676508D01*
X7885467Y-16676508D02*
X7904515Y-16695555D01*
X7904515Y-16695555D02*
X7914039Y-16714603D01*
X7914039Y-16714603D02*
X7923562Y-16752698D01*
X7923562Y-16752698D02*
X7923562Y-16781270D01*
X7923562Y-16781270D02*
X7914039Y-16819365D01*
X7914039Y-16819365D02*
X7904515Y-16838412D01*
X7904515Y-16838412D02*
X7885467Y-16857460D01*
X7885467Y-16857460D02*
X7856896Y-16866984D01*
X7856896Y-16866984D02*
X7809277Y-16866984D01*
X8009277Y-16866984D02*
X8009277Y-16733650D01*
X8009277Y-16771746D02*
X8018801Y-16752698D01*
X8018801Y-16752698D02*
X8028324Y-16743174D01*
X8028324Y-16743174D02*
X8047372Y-16733650D01*
X8047372Y-16733650D02*
X8066420Y-16733650D01*
X8133086Y-16866984D02*
X8133086Y-16733650D01*
X8133086Y-16666984D02*
X8123562Y-16676508D01*
X8123562Y-16676508D02*
X8133086Y-16686031D01*
X8133086Y-16686031D02*
X8142610Y-16676508D01*
X8142610Y-16676508D02*
X8133086Y-16666984D01*
X8133086Y-16666984D02*
X8133086Y-16686031D01*
X8256896Y-16866984D02*
X8237848Y-16857460D01*
X8237848Y-16857460D02*
X8228324Y-16838412D01*
X8228324Y-16838412D02*
X8228324Y-16666984D01*
X8361658Y-16866984D02*
X8342610Y-16857460D01*
X8342610Y-16857460D02*
X8333086Y-16838412D01*
X8333086Y-16838412D02*
X8333086Y-16666984D01*
X8590229Y-16866984D02*
X8590229Y-16666984D01*
X8590229Y-16666984D02*
X8656896Y-16809841D01*
X8656896Y-16809841D02*
X8723563Y-16666984D01*
X8723563Y-16666984D02*
X8723563Y-16866984D01*
X8904515Y-16866984D02*
X8904515Y-16762222D01*
X8904515Y-16762222D02*
X8894991Y-16743174D01*
X8894991Y-16743174D02*
X8875944Y-16733650D01*
X8875944Y-16733650D02*
X8837848Y-16733650D01*
X8837848Y-16733650D02*
X8818801Y-16743174D01*
X8904515Y-16857460D02*
X8885467Y-16866984D01*
X8885467Y-16866984D02*
X8837848Y-16866984D01*
X8837848Y-16866984D02*
X8818801Y-16857460D01*
X8818801Y-16857460D02*
X8809277Y-16838412D01*
X8809277Y-16838412D02*
X8809277Y-16819365D01*
X8809277Y-16819365D02*
X8818801Y-16800317D01*
X8818801Y-16800317D02*
X8837848Y-16790793D01*
X8837848Y-16790793D02*
X8885467Y-16790793D01*
X8885467Y-16790793D02*
X8904515Y-16781270D01*
X8999753Y-16733650D02*
X8999753Y-16933650D01*
X8999753Y-16743174D02*
X9018801Y-16733650D01*
X9018801Y-16733650D02*
X9056896Y-16733650D01*
X9056896Y-16733650D02*
X9075944Y-16743174D01*
X9075944Y-16743174D02*
X9085467Y-16752698D01*
X9085467Y-16752698D02*
X9094991Y-16771746D01*
X9094991Y-16771746D02*
X9094991Y-16828889D01*
X9094991Y-16828889D02*
X9085467Y-16847936D01*
X9085467Y-16847936D02*
X9075944Y-16857460D01*
X9075944Y-16857460D02*
X9056896Y-16866984D01*
X9056896Y-16866984D02*
X9018801Y-16866984D01*
X9018801Y-16866984D02*
X8999753Y-16857460D01*
X9180705Y-16847936D02*
X9190229Y-16857460D01*
X9190229Y-16857460D02*
X9180705Y-16866984D01*
X9180705Y-16866984D02*
X9171182Y-16857460D01*
X9171182Y-16857460D02*
X9180705Y-16847936D01*
X9180705Y-16847936D02*
X9180705Y-16866984D01*
X9180705Y-16743174D02*
X9190229Y-16752698D01*
X9190229Y-16752698D02*
X9180705Y-16762222D01*
X9180705Y-16762222D02*
X9171182Y-16752698D01*
X9171182Y-16752698D02*
X9180705Y-16743174D01*
X9180705Y-16743174D02*
X9180705Y-16762222D01*
D12*
X7528500Y-17185500D02*
X7548500Y-17205500D01*
X7548500Y-17185500D02*
X7528500Y-17205500D01*
D11*
X7847372Y-17086984D02*
X7866420Y-17086984D01*
X7866420Y-17086984D02*
X7885467Y-17096508D01*
X7885467Y-17096508D02*
X7894991Y-17106031D01*
X7894991Y-17106031D02*
X7904515Y-17125079D01*
X7904515Y-17125079D02*
X7914039Y-17163174D01*
X7914039Y-17163174D02*
X7914039Y-17210793D01*
X7914039Y-17210793D02*
X7904515Y-17248889D01*
X7904515Y-17248889D02*
X7894991Y-17267936D01*
X7894991Y-17267936D02*
X7885467Y-17277460D01*
X7885467Y-17277460D02*
X7866420Y-17286984D01*
X7866420Y-17286984D02*
X7847372Y-17286984D01*
X7847372Y-17286984D02*
X7828324Y-17277460D01*
X7828324Y-17277460D02*
X7818801Y-17267936D01*
X7818801Y-17267936D02*
X7809277Y-17248889D01*
X7809277Y-17248889D02*
X7799753Y-17210793D01*
X7799753Y-17210793D02*
X7799753Y-17163174D01*
X7799753Y-17163174D02*
X7809277Y-17125079D01*
X7809277Y-17125079D02*
X7818801Y-17106031D01*
X7818801Y-17106031D02*
X7828324Y-17096508D01*
X7828324Y-17096508D02*
X7847372Y-17086984D01*
X7999753Y-17267936D02*
X8009277Y-17277460D01*
X8009277Y-17277460D02*
X7999753Y-17286984D01*
X7999753Y-17286984D02*
X7990229Y-17277460D01*
X7990229Y-17277460D02*
X7999753Y-17267936D01*
X7999753Y-17267936D02*
X7999753Y-17286984D01*
X8085467Y-17106031D02*
X8094991Y-17096508D01*
X8094991Y-17096508D02*
X8114039Y-17086984D01*
X8114039Y-17086984D02*
X8161658Y-17086984D01*
X8161658Y-17086984D02*
X8180705Y-17096508D01*
X8180705Y-17096508D02*
X8190229Y-17106031D01*
X8190229Y-17106031D02*
X8199753Y-17125079D01*
X8199753Y-17125079D02*
X8199753Y-17144127D01*
X8199753Y-17144127D02*
X8190229Y-17172698D01*
X8190229Y-17172698D02*
X8075943Y-17286984D01*
X8075943Y-17286984D02*
X8199753Y-17286984D01*
X8323562Y-17086984D02*
X8342610Y-17086984D01*
X8342610Y-17086984D02*
X8361658Y-17096508D01*
X8361658Y-17096508D02*
X8371182Y-17106031D01*
X8371182Y-17106031D02*
X8380705Y-17125079D01*
X8380705Y-17125079D02*
X8390229Y-17163174D01*
X8390229Y-17163174D02*
X8390229Y-17210793D01*
X8390229Y-17210793D02*
X8380705Y-17248889D01*
X8380705Y-17248889D02*
X8371182Y-17267936D01*
X8371182Y-17267936D02*
X8361658Y-17277460D01*
X8361658Y-17277460D02*
X8342610Y-17286984D01*
X8342610Y-17286984D02*
X8323562Y-17286984D01*
X8323562Y-17286984D02*
X8304515Y-17277460D01*
X8304515Y-17277460D02*
X8294991Y-17267936D01*
X8294991Y-17267936D02*
X8285467Y-17248889D01*
X8285467Y-17248889D02*
X8275943Y-17210793D01*
X8275943Y-17210793D02*
X8275943Y-17163174D01*
X8275943Y-17163174D02*
X8285467Y-17125079D01*
X8285467Y-17125079D02*
X8294991Y-17106031D01*
X8294991Y-17106031D02*
X8304515Y-17096508D01*
X8304515Y-17096508D02*
X8323562Y-17086984D01*
X8514039Y-17086984D02*
X8533086Y-17086984D01*
X8533086Y-17086984D02*
X8552134Y-17096508D01*
X8552134Y-17096508D02*
X8561658Y-17106031D01*
X8561658Y-17106031D02*
X8571182Y-17125079D01*
X8571182Y-17125079D02*
X8580705Y-17163174D01*
X8580705Y-17163174D02*
X8580705Y-17210793D01*
X8580705Y-17210793D02*
X8571182Y-17248889D01*
X8571182Y-17248889D02*
X8561658Y-17267936D01*
X8561658Y-17267936D02*
X8552134Y-17277460D01*
X8552134Y-17277460D02*
X8533086Y-17286984D01*
X8533086Y-17286984D02*
X8514039Y-17286984D01*
X8514039Y-17286984D02*
X8494991Y-17277460D01*
X8494991Y-17277460D02*
X8485467Y-17267936D01*
X8485467Y-17267936D02*
X8475944Y-17248889D01*
X8475944Y-17248889D02*
X8466420Y-17210793D01*
X8466420Y-17210793D02*
X8466420Y-17163174D01*
X8466420Y-17163174D02*
X8475944Y-17125079D01*
X8475944Y-17125079D02*
X8485467Y-17106031D01*
X8485467Y-17106031D02*
X8494991Y-17096508D01*
X8494991Y-17096508D02*
X8514039Y-17086984D01*
X8666420Y-17286984D02*
X8666420Y-17153650D01*
X8666420Y-17172698D02*
X8675944Y-17163174D01*
X8675944Y-17163174D02*
X8694991Y-17153650D01*
X8694991Y-17153650D02*
X8723563Y-17153650D01*
X8723563Y-17153650D02*
X8742610Y-17163174D01*
X8742610Y-17163174D02*
X8752134Y-17182222D01*
X8752134Y-17182222D02*
X8752134Y-17286984D01*
X8752134Y-17182222D02*
X8761658Y-17163174D01*
X8761658Y-17163174D02*
X8780705Y-17153650D01*
X8780705Y-17153650D02*
X8809277Y-17153650D01*
X8809277Y-17153650D02*
X8828325Y-17163174D01*
X8828325Y-17163174D02*
X8837848Y-17182222D01*
X8837848Y-17182222D02*
X8837848Y-17286984D01*
X8933086Y-17286984D02*
X8933086Y-17153650D01*
X8933086Y-17172698D02*
X8942610Y-17163174D01*
X8942610Y-17163174D02*
X8961658Y-17153650D01*
X8961658Y-17153650D02*
X8990229Y-17153650D01*
X8990229Y-17153650D02*
X9009277Y-17163174D01*
X9009277Y-17163174D02*
X9018801Y-17182222D01*
X9018801Y-17182222D02*
X9018801Y-17286984D01*
X9018801Y-17182222D02*
X9028325Y-17163174D01*
X9028325Y-17163174D02*
X9047372Y-17153650D01*
X9047372Y-17153650D02*
X9075944Y-17153650D01*
X9075944Y-17153650D02*
X9094991Y-17163174D01*
X9094991Y-17163174D02*
X9104515Y-17182222D01*
X9104515Y-17182222D02*
X9104515Y-17286984D01*
X9494991Y-17077460D02*
X9323563Y-17334603D01*
X9752134Y-17086984D02*
X9771182Y-17086984D01*
X9771182Y-17086984D02*
X9790229Y-17096508D01*
X9790229Y-17096508D02*
X9799753Y-17106031D01*
X9799753Y-17106031D02*
X9809277Y-17125079D01*
X9809277Y-17125079D02*
X9818801Y-17163174D01*
X9818801Y-17163174D02*
X9818801Y-17210793D01*
X9818801Y-17210793D02*
X9809277Y-17248889D01*
X9809277Y-17248889D02*
X9799753Y-17267936D01*
X9799753Y-17267936D02*
X9790229Y-17277460D01*
X9790229Y-17277460D02*
X9771182Y-17286984D01*
X9771182Y-17286984D02*
X9752134Y-17286984D01*
X9752134Y-17286984D02*
X9733087Y-17277460D01*
X9733087Y-17277460D02*
X9723563Y-17267936D01*
X9723563Y-17267936D02*
X9714039Y-17248889D01*
X9714039Y-17248889D02*
X9704515Y-17210793D01*
X9704515Y-17210793D02*
X9704515Y-17163174D01*
X9704515Y-17163174D02*
X9714039Y-17125079D01*
X9714039Y-17125079D02*
X9723563Y-17106031D01*
X9723563Y-17106031D02*
X9733087Y-17096508D01*
X9733087Y-17096508D02*
X9752134Y-17086984D01*
X9904515Y-17267936D02*
X9914039Y-17277460D01*
X9914039Y-17277460D02*
X9904515Y-17286984D01*
X9904515Y-17286984D02*
X9894991Y-17277460D01*
X9894991Y-17277460D02*
X9904515Y-17267936D01*
X9904515Y-17267936D02*
X9904515Y-17286984D01*
X10037848Y-17086984D02*
X10056896Y-17086984D01*
X10056896Y-17086984D02*
X10075944Y-17096508D01*
X10075944Y-17096508D02*
X10085468Y-17106031D01*
X10085468Y-17106031D02*
X10094991Y-17125079D01*
X10094991Y-17125079D02*
X10104515Y-17163174D01*
X10104515Y-17163174D02*
X10104515Y-17210793D01*
X10104515Y-17210793D02*
X10094991Y-17248889D01*
X10094991Y-17248889D02*
X10085468Y-17267936D01*
X10085468Y-17267936D02*
X10075944Y-17277460D01*
X10075944Y-17277460D02*
X10056896Y-17286984D01*
X10056896Y-17286984D02*
X10037848Y-17286984D01*
X10037848Y-17286984D02*
X10018801Y-17277460D01*
X10018801Y-17277460D02*
X10009277Y-17267936D01*
X10009277Y-17267936D02*
X9999753Y-17248889D01*
X9999753Y-17248889D02*
X9990229Y-17210793D01*
X9990229Y-17210793D02*
X9990229Y-17163174D01*
X9990229Y-17163174D02*
X9999753Y-17125079D01*
X9999753Y-17125079D02*
X10009277Y-17106031D01*
X10009277Y-17106031D02*
X10018801Y-17096508D01*
X10018801Y-17096508D02*
X10037848Y-17086984D01*
X10228325Y-17086984D02*
X10247372Y-17086984D01*
X10247372Y-17086984D02*
X10266420Y-17096508D01*
X10266420Y-17096508D02*
X10275944Y-17106031D01*
X10275944Y-17106031D02*
X10285468Y-17125079D01*
X10285468Y-17125079D02*
X10294991Y-17163174D01*
X10294991Y-17163174D02*
X10294991Y-17210793D01*
X10294991Y-17210793D02*
X10285468Y-17248889D01*
X10285468Y-17248889D02*
X10275944Y-17267936D01*
X10275944Y-17267936D02*
X10266420Y-17277460D01*
X10266420Y-17277460D02*
X10247372Y-17286984D01*
X10247372Y-17286984D02*
X10228325Y-17286984D01*
X10228325Y-17286984D02*
X10209277Y-17277460D01*
X10209277Y-17277460D02*
X10199753Y-17267936D01*
X10199753Y-17267936D02*
X10190229Y-17248889D01*
X10190229Y-17248889D02*
X10180706Y-17210793D01*
X10180706Y-17210793D02*
X10180706Y-17163174D01*
X10180706Y-17163174D02*
X10190229Y-17125079D01*
X10190229Y-17125079D02*
X10199753Y-17106031D01*
X10199753Y-17106031D02*
X10209277Y-17096508D01*
X10209277Y-17096508D02*
X10228325Y-17086984D01*
X10361658Y-17086984D02*
X10494991Y-17086984D01*
X10494991Y-17086984D02*
X10409277Y-17286984D01*
X10580706Y-17286984D02*
X10618801Y-17286984D01*
X10618801Y-17286984D02*
X10637849Y-17277460D01*
X10637849Y-17277460D02*
X10647372Y-17267936D01*
X10647372Y-17267936D02*
X10666420Y-17239365D01*
X10666420Y-17239365D02*
X10675944Y-17201270D01*
X10675944Y-17201270D02*
X10675944Y-17125079D01*
X10675944Y-17125079D02*
X10666420Y-17106031D01*
X10666420Y-17106031D02*
X10656896Y-17096508D01*
X10656896Y-17096508D02*
X10637849Y-17086984D01*
X10637849Y-17086984D02*
X10599753Y-17086984D01*
X10599753Y-17086984D02*
X10580706Y-17096508D01*
X10580706Y-17096508D02*
X10571182Y-17106031D01*
X10571182Y-17106031D02*
X10561658Y-17125079D01*
X10561658Y-17125079D02*
X10561658Y-17172698D01*
X10561658Y-17172698D02*
X10571182Y-17191746D01*
X10571182Y-17191746D02*
X10580706Y-17201270D01*
X10580706Y-17201270D02*
X10599753Y-17210793D01*
X10599753Y-17210793D02*
X10637849Y-17210793D01*
X10637849Y-17210793D02*
X10656896Y-17201270D01*
X10656896Y-17201270D02*
X10666420Y-17191746D01*
X10666420Y-17191746D02*
X10675944Y-17172698D01*
X10752134Y-17086984D02*
X10752134Y-17125079D01*
X10828325Y-17086984D02*
X10828325Y-17125079D01*
X11123563Y-17363174D02*
X11114039Y-17353650D01*
X11114039Y-17353650D02*
X11094991Y-17325079D01*
X11094991Y-17325079D02*
X11085468Y-17306031D01*
X11085468Y-17306031D02*
X11075944Y-17277460D01*
X11075944Y-17277460D02*
X11066420Y-17229841D01*
X11066420Y-17229841D02*
X11066420Y-17191746D01*
X11066420Y-17191746D02*
X11075944Y-17144127D01*
X11075944Y-17144127D02*
X11085468Y-17115555D01*
X11085468Y-17115555D02*
X11094991Y-17096508D01*
X11094991Y-17096508D02*
X11114039Y-17067936D01*
X11114039Y-17067936D02*
X11123563Y-17058412D01*
X11190229Y-17106031D02*
X11199753Y-17096508D01*
X11199753Y-17096508D02*
X11218801Y-17086984D01*
X11218801Y-17086984D02*
X11266420Y-17086984D01*
X11266420Y-17086984D02*
X11285468Y-17096508D01*
X11285468Y-17096508D02*
X11294991Y-17106031D01*
X11294991Y-17106031D02*
X11304515Y-17125079D01*
X11304515Y-17125079D02*
X11304515Y-17144127D01*
X11304515Y-17144127D02*
X11294991Y-17172698D01*
X11294991Y-17172698D02*
X11180706Y-17286984D01*
X11180706Y-17286984D02*
X11304515Y-17286984D01*
X11475944Y-17153650D02*
X11475944Y-17286984D01*
X11428325Y-17077460D02*
X11380706Y-17220317D01*
X11380706Y-17220317D02*
X11504515Y-17220317D01*
X11561658Y-17086984D02*
X11685468Y-17086984D01*
X11685468Y-17086984D02*
X11618801Y-17163174D01*
X11618801Y-17163174D02*
X11647372Y-17163174D01*
X11647372Y-17163174D02*
X11666420Y-17172698D01*
X11666420Y-17172698D02*
X11675944Y-17182222D01*
X11675944Y-17182222D02*
X11685468Y-17201270D01*
X11685468Y-17201270D02*
X11685468Y-17248889D01*
X11685468Y-17248889D02*
X11675944Y-17267936D01*
X11675944Y-17267936D02*
X11666420Y-17277460D01*
X11666420Y-17277460D02*
X11647372Y-17286984D01*
X11647372Y-17286984D02*
X11590229Y-17286984D01*
X11590229Y-17286984D02*
X11571182Y-17277460D01*
X11571182Y-17277460D02*
X11561658Y-17267936D01*
X11923563Y-17286984D02*
X11923563Y-17086984D01*
X12009277Y-17286984D02*
X12009277Y-17182222D01*
X12009277Y-17182222D02*
X11999753Y-17163174D01*
X11999753Y-17163174D02*
X11980706Y-17153650D01*
X11980706Y-17153650D02*
X11952134Y-17153650D01*
X11952134Y-17153650D02*
X11933087Y-17163174D01*
X11933087Y-17163174D02*
X11923563Y-17172698D01*
X12133087Y-17286984D02*
X12114039Y-17277460D01*
X12114039Y-17277460D02*
X12104515Y-17267936D01*
X12104515Y-17267936D02*
X12094991Y-17248889D01*
X12094991Y-17248889D02*
X12094991Y-17191746D01*
X12094991Y-17191746D02*
X12104515Y-17172698D01*
X12104515Y-17172698D02*
X12114039Y-17163174D01*
X12114039Y-17163174D02*
X12133087Y-17153650D01*
X12133087Y-17153650D02*
X12161658Y-17153650D01*
X12161658Y-17153650D02*
X12180706Y-17163174D01*
X12180706Y-17163174D02*
X12190230Y-17172698D01*
X12190230Y-17172698D02*
X12199753Y-17191746D01*
X12199753Y-17191746D02*
X12199753Y-17248889D01*
X12199753Y-17248889D02*
X12190230Y-17267936D01*
X12190230Y-17267936D02*
X12180706Y-17277460D01*
X12180706Y-17277460D02*
X12161658Y-17286984D01*
X12161658Y-17286984D02*
X12133087Y-17286984D01*
X12314039Y-17286984D02*
X12294991Y-17277460D01*
X12294991Y-17277460D02*
X12285468Y-17258412D01*
X12285468Y-17258412D02*
X12285468Y-17086984D01*
X12466420Y-17277460D02*
X12447372Y-17286984D01*
X12447372Y-17286984D02*
X12409277Y-17286984D01*
X12409277Y-17286984D02*
X12390230Y-17277460D01*
X12390230Y-17277460D02*
X12380706Y-17258412D01*
X12380706Y-17258412D02*
X12380706Y-17182222D01*
X12380706Y-17182222D02*
X12390230Y-17163174D01*
X12390230Y-17163174D02*
X12409277Y-17153650D01*
X12409277Y-17153650D02*
X12447372Y-17153650D01*
X12447372Y-17153650D02*
X12466420Y-17163174D01*
X12466420Y-17163174D02*
X12475944Y-17182222D01*
X12475944Y-17182222D02*
X12475944Y-17201270D01*
X12475944Y-17201270D02*
X12380706Y-17220317D01*
X12552134Y-17277460D02*
X12571182Y-17286984D01*
X12571182Y-17286984D02*
X12609277Y-17286984D01*
X12609277Y-17286984D02*
X12628325Y-17277460D01*
X12628325Y-17277460D02*
X12637849Y-17258412D01*
X12637849Y-17258412D02*
X12637849Y-17248889D01*
X12637849Y-17248889D02*
X12628325Y-17229841D01*
X12628325Y-17229841D02*
X12609277Y-17220317D01*
X12609277Y-17220317D02*
X12580706Y-17220317D01*
X12580706Y-17220317D02*
X12561658Y-17210793D01*
X12561658Y-17210793D02*
X12552134Y-17191746D01*
X12552134Y-17191746D02*
X12552134Y-17182222D01*
X12552134Y-17182222D02*
X12561658Y-17163174D01*
X12561658Y-17163174D02*
X12580706Y-17153650D01*
X12580706Y-17153650D02*
X12609277Y-17153650D01*
X12609277Y-17153650D02*
X12628325Y-17163174D01*
X12704515Y-17363174D02*
X12714039Y-17353650D01*
X12714039Y-17353650D02*
X12733087Y-17325079D01*
X12733087Y-17325079D02*
X12742611Y-17306031D01*
X12742611Y-17306031D02*
X12752134Y-17277460D01*
X12752134Y-17277460D02*
X12761658Y-17229841D01*
X12761658Y-17229841D02*
X12761658Y-17191746D01*
X12761658Y-17191746D02*
X12752134Y-17144127D01*
X12752134Y-17144127D02*
X12742611Y-17115555D01*
X12742611Y-17115555D02*
X12733087Y-17096508D01*
X12733087Y-17096508D02*
X12714039Y-17067936D01*
X12714039Y-17067936D02*
X12704515Y-17058412D01*
D12*
X7548500Y-17459500D02*
G75*
G02*
X7518500Y-17459500I-15000J0D01*
G01*
X7518500Y-17459500D02*
G75*
G02*
X7548500Y-17459500I15000J0D01*
G01*
D11*
X7847372Y-17350984D02*
X7866420Y-17350984D01*
X7866420Y-17350984D02*
X7885467Y-17360508D01*
X7885467Y-17360508D02*
X7894991Y-17370031D01*
X7894991Y-17370031D02*
X7904515Y-17389079D01*
X7904515Y-17389079D02*
X7914039Y-17427174D01*
X7914039Y-17427174D02*
X7914039Y-17474793D01*
X7914039Y-17474793D02*
X7904515Y-17512889D01*
X7904515Y-17512889D02*
X7894991Y-17531936D01*
X7894991Y-17531936D02*
X7885467Y-17541460D01*
X7885467Y-17541460D02*
X7866420Y-17550984D01*
X7866420Y-17550984D02*
X7847372Y-17550984D01*
X7847372Y-17550984D02*
X7828324Y-17541460D01*
X7828324Y-17541460D02*
X7818801Y-17531936D01*
X7818801Y-17531936D02*
X7809277Y-17512889D01*
X7809277Y-17512889D02*
X7799753Y-17474793D01*
X7799753Y-17474793D02*
X7799753Y-17427174D01*
X7799753Y-17427174D02*
X7809277Y-17389079D01*
X7809277Y-17389079D02*
X7818801Y-17370031D01*
X7818801Y-17370031D02*
X7828324Y-17360508D01*
X7828324Y-17360508D02*
X7847372Y-17350984D01*
X7999753Y-17531936D02*
X8009277Y-17541460D01*
X8009277Y-17541460D02*
X7999753Y-17550984D01*
X7999753Y-17550984D02*
X7990229Y-17541460D01*
X7990229Y-17541460D02*
X7999753Y-17531936D01*
X7999753Y-17531936D02*
X7999753Y-17550984D01*
X8075943Y-17350984D02*
X8199753Y-17350984D01*
X8199753Y-17350984D02*
X8133086Y-17427174D01*
X8133086Y-17427174D02*
X8161658Y-17427174D01*
X8161658Y-17427174D02*
X8180705Y-17436698D01*
X8180705Y-17436698D02*
X8190229Y-17446222D01*
X8190229Y-17446222D02*
X8199753Y-17465270D01*
X8199753Y-17465270D02*
X8199753Y-17512889D01*
X8199753Y-17512889D02*
X8190229Y-17531936D01*
X8190229Y-17531936D02*
X8180705Y-17541460D01*
X8180705Y-17541460D02*
X8161658Y-17550984D01*
X8161658Y-17550984D02*
X8104515Y-17550984D01*
X8104515Y-17550984D02*
X8085467Y-17541460D01*
X8085467Y-17541460D02*
X8075943Y-17531936D01*
X8323562Y-17350984D02*
X8342610Y-17350984D01*
X8342610Y-17350984D02*
X8361658Y-17360508D01*
X8361658Y-17360508D02*
X8371182Y-17370031D01*
X8371182Y-17370031D02*
X8380705Y-17389079D01*
X8380705Y-17389079D02*
X8390229Y-17427174D01*
X8390229Y-17427174D02*
X8390229Y-17474793D01*
X8390229Y-17474793D02*
X8380705Y-17512889D01*
X8380705Y-17512889D02*
X8371182Y-17531936D01*
X8371182Y-17531936D02*
X8361658Y-17541460D01*
X8361658Y-17541460D02*
X8342610Y-17550984D01*
X8342610Y-17550984D02*
X8323562Y-17550984D01*
X8323562Y-17550984D02*
X8304515Y-17541460D01*
X8304515Y-17541460D02*
X8294991Y-17531936D01*
X8294991Y-17531936D02*
X8285467Y-17512889D01*
X8285467Y-17512889D02*
X8275943Y-17474793D01*
X8275943Y-17474793D02*
X8275943Y-17427174D01*
X8275943Y-17427174D02*
X8285467Y-17389079D01*
X8285467Y-17389079D02*
X8294991Y-17370031D01*
X8294991Y-17370031D02*
X8304515Y-17360508D01*
X8304515Y-17360508D02*
X8323562Y-17350984D01*
X8514039Y-17350984D02*
X8533086Y-17350984D01*
X8533086Y-17350984D02*
X8552134Y-17360508D01*
X8552134Y-17360508D02*
X8561658Y-17370031D01*
X8561658Y-17370031D02*
X8571182Y-17389079D01*
X8571182Y-17389079D02*
X8580705Y-17427174D01*
X8580705Y-17427174D02*
X8580705Y-17474793D01*
X8580705Y-17474793D02*
X8571182Y-17512889D01*
X8571182Y-17512889D02*
X8561658Y-17531936D01*
X8561658Y-17531936D02*
X8552134Y-17541460D01*
X8552134Y-17541460D02*
X8533086Y-17550984D01*
X8533086Y-17550984D02*
X8514039Y-17550984D01*
X8514039Y-17550984D02*
X8494991Y-17541460D01*
X8494991Y-17541460D02*
X8485467Y-17531936D01*
X8485467Y-17531936D02*
X8475944Y-17512889D01*
X8475944Y-17512889D02*
X8466420Y-17474793D01*
X8466420Y-17474793D02*
X8466420Y-17427174D01*
X8466420Y-17427174D02*
X8475944Y-17389079D01*
X8475944Y-17389079D02*
X8485467Y-17370031D01*
X8485467Y-17370031D02*
X8494991Y-17360508D01*
X8494991Y-17360508D02*
X8514039Y-17350984D01*
X8666420Y-17550984D02*
X8666420Y-17417650D01*
X8666420Y-17436698D02*
X8675944Y-17427174D01*
X8675944Y-17427174D02*
X8694991Y-17417650D01*
X8694991Y-17417650D02*
X8723563Y-17417650D01*
X8723563Y-17417650D02*
X8742610Y-17427174D01*
X8742610Y-17427174D02*
X8752134Y-17446222D01*
X8752134Y-17446222D02*
X8752134Y-17550984D01*
X8752134Y-17446222D02*
X8761658Y-17427174D01*
X8761658Y-17427174D02*
X8780705Y-17417650D01*
X8780705Y-17417650D02*
X8809277Y-17417650D01*
X8809277Y-17417650D02*
X8828325Y-17427174D01*
X8828325Y-17427174D02*
X8837848Y-17446222D01*
X8837848Y-17446222D02*
X8837848Y-17550984D01*
X8933086Y-17550984D02*
X8933086Y-17417650D01*
X8933086Y-17436698D02*
X8942610Y-17427174D01*
X8942610Y-17427174D02*
X8961658Y-17417650D01*
X8961658Y-17417650D02*
X8990229Y-17417650D01*
X8990229Y-17417650D02*
X9009277Y-17427174D01*
X9009277Y-17427174D02*
X9018801Y-17446222D01*
X9018801Y-17446222D02*
X9018801Y-17550984D01*
X9018801Y-17446222D02*
X9028325Y-17427174D01*
X9028325Y-17427174D02*
X9047372Y-17417650D01*
X9047372Y-17417650D02*
X9075944Y-17417650D01*
X9075944Y-17417650D02*
X9094991Y-17427174D01*
X9094991Y-17427174D02*
X9104515Y-17446222D01*
X9104515Y-17446222D02*
X9104515Y-17550984D01*
X9494991Y-17341460D02*
X9323563Y-17598603D01*
X9752134Y-17350984D02*
X9771182Y-17350984D01*
X9771182Y-17350984D02*
X9790229Y-17360508D01*
X9790229Y-17360508D02*
X9799753Y-17370031D01*
X9799753Y-17370031D02*
X9809277Y-17389079D01*
X9809277Y-17389079D02*
X9818801Y-17427174D01*
X9818801Y-17427174D02*
X9818801Y-17474793D01*
X9818801Y-17474793D02*
X9809277Y-17512889D01*
X9809277Y-17512889D02*
X9799753Y-17531936D01*
X9799753Y-17531936D02*
X9790229Y-17541460D01*
X9790229Y-17541460D02*
X9771182Y-17550984D01*
X9771182Y-17550984D02*
X9752134Y-17550984D01*
X9752134Y-17550984D02*
X9733087Y-17541460D01*
X9733087Y-17541460D02*
X9723563Y-17531936D01*
X9723563Y-17531936D02*
X9714039Y-17512889D01*
X9714039Y-17512889D02*
X9704515Y-17474793D01*
X9704515Y-17474793D02*
X9704515Y-17427174D01*
X9704515Y-17427174D02*
X9714039Y-17389079D01*
X9714039Y-17389079D02*
X9723563Y-17370031D01*
X9723563Y-17370031D02*
X9733087Y-17360508D01*
X9733087Y-17360508D02*
X9752134Y-17350984D01*
X9904515Y-17531936D02*
X9914039Y-17541460D01*
X9914039Y-17541460D02*
X9904515Y-17550984D01*
X9904515Y-17550984D02*
X9894991Y-17541460D01*
X9894991Y-17541460D02*
X9904515Y-17531936D01*
X9904515Y-17531936D02*
X9904515Y-17550984D01*
X10037848Y-17350984D02*
X10056896Y-17350984D01*
X10056896Y-17350984D02*
X10075944Y-17360508D01*
X10075944Y-17360508D02*
X10085468Y-17370031D01*
X10085468Y-17370031D02*
X10094991Y-17389079D01*
X10094991Y-17389079D02*
X10104515Y-17427174D01*
X10104515Y-17427174D02*
X10104515Y-17474793D01*
X10104515Y-17474793D02*
X10094991Y-17512889D01*
X10094991Y-17512889D02*
X10085468Y-17531936D01*
X10085468Y-17531936D02*
X10075944Y-17541460D01*
X10075944Y-17541460D02*
X10056896Y-17550984D01*
X10056896Y-17550984D02*
X10037848Y-17550984D01*
X10037848Y-17550984D02*
X10018801Y-17541460D01*
X10018801Y-17541460D02*
X10009277Y-17531936D01*
X10009277Y-17531936D02*
X9999753Y-17512889D01*
X9999753Y-17512889D02*
X9990229Y-17474793D01*
X9990229Y-17474793D02*
X9990229Y-17427174D01*
X9990229Y-17427174D02*
X9999753Y-17389079D01*
X9999753Y-17389079D02*
X10009277Y-17370031D01*
X10009277Y-17370031D02*
X10018801Y-17360508D01*
X10018801Y-17360508D02*
X10037848Y-17350984D01*
X10294991Y-17550984D02*
X10180706Y-17550984D01*
X10237848Y-17550984D02*
X10237848Y-17350984D01*
X10237848Y-17350984D02*
X10218801Y-17379555D01*
X10218801Y-17379555D02*
X10199753Y-17398603D01*
X10199753Y-17398603D02*
X10180706Y-17408127D01*
X10485468Y-17550984D02*
X10371182Y-17550984D01*
X10428325Y-17550984D02*
X10428325Y-17350984D01*
X10428325Y-17350984D02*
X10409277Y-17379555D01*
X10409277Y-17379555D02*
X10390229Y-17398603D01*
X10390229Y-17398603D02*
X10371182Y-17408127D01*
X10599753Y-17436698D02*
X10580706Y-17427174D01*
X10580706Y-17427174D02*
X10571182Y-17417650D01*
X10571182Y-17417650D02*
X10561658Y-17398603D01*
X10561658Y-17398603D02*
X10561658Y-17389079D01*
X10561658Y-17389079D02*
X10571182Y-17370031D01*
X10571182Y-17370031D02*
X10580706Y-17360508D01*
X10580706Y-17360508D02*
X10599753Y-17350984D01*
X10599753Y-17350984D02*
X10637849Y-17350984D01*
X10637849Y-17350984D02*
X10656896Y-17360508D01*
X10656896Y-17360508D02*
X10666420Y-17370031D01*
X10666420Y-17370031D02*
X10675944Y-17389079D01*
X10675944Y-17389079D02*
X10675944Y-17398603D01*
X10675944Y-17398603D02*
X10666420Y-17417650D01*
X10666420Y-17417650D02*
X10656896Y-17427174D01*
X10656896Y-17427174D02*
X10637849Y-17436698D01*
X10637849Y-17436698D02*
X10599753Y-17436698D01*
X10599753Y-17436698D02*
X10580706Y-17446222D01*
X10580706Y-17446222D02*
X10571182Y-17455746D01*
X10571182Y-17455746D02*
X10561658Y-17474793D01*
X10561658Y-17474793D02*
X10561658Y-17512889D01*
X10561658Y-17512889D02*
X10571182Y-17531936D01*
X10571182Y-17531936D02*
X10580706Y-17541460D01*
X10580706Y-17541460D02*
X10599753Y-17550984D01*
X10599753Y-17550984D02*
X10637849Y-17550984D01*
X10637849Y-17550984D02*
X10656896Y-17541460D01*
X10656896Y-17541460D02*
X10666420Y-17531936D01*
X10666420Y-17531936D02*
X10675944Y-17512889D01*
X10675944Y-17512889D02*
X10675944Y-17474793D01*
X10675944Y-17474793D02*
X10666420Y-17455746D01*
X10666420Y-17455746D02*
X10656896Y-17446222D01*
X10656896Y-17446222D02*
X10637849Y-17436698D01*
X10752134Y-17350984D02*
X10752134Y-17389079D01*
X10828325Y-17350984D02*
X10828325Y-17389079D01*
X11123563Y-17627174D02*
X11114039Y-17617650D01*
X11114039Y-17617650D02*
X11094991Y-17589079D01*
X11094991Y-17589079D02*
X11085468Y-17570031D01*
X11085468Y-17570031D02*
X11075944Y-17541460D01*
X11075944Y-17541460D02*
X11066420Y-17493841D01*
X11066420Y-17493841D02*
X11066420Y-17455746D01*
X11066420Y-17455746D02*
X11075944Y-17408127D01*
X11075944Y-17408127D02*
X11085468Y-17379555D01*
X11085468Y-17379555D02*
X11094991Y-17360508D01*
X11094991Y-17360508D02*
X11114039Y-17331936D01*
X11114039Y-17331936D02*
X11123563Y-17322412D01*
X11294991Y-17350984D02*
X11199753Y-17350984D01*
X11199753Y-17350984D02*
X11190229Y-17446222D01*
X11190229Y-17446222D02*
X11199753Y-17436698D01*
X11199753Y-17436698D02*
X11218801Y-17427174D01*
X11218801Y-17427174D02*
X11266420Y-17427174D01*
X11266420Y-17427174D02*
X11285468Y-17436698D01*
X11285468Y-17436698D02*
X11294991Y-17446222D01*
X11294991Y-17446222D02*
X11304515Y-17465270D01*
X11304515Y-17465270D02*
X11304515Y-17512889D01*
X11304515Y-17512889D02*
X11294991Y-17531936D01*
X11294991Y-17531936D02*
X11285468Y-17541460D01*
X11285468Y-17541460D02*
X11266420Y-17550984D01*
X11266420Y-17550984D02*
X11218801Y-17550984D01*
X11218801Y-17550984D02*
X11199753Y-17541460D01*
X11199753Y-17541460D02*
X11190229Y-17531936D01*
X11494991Y-17550984D02*
X11380706Y-17550984D01*
X11437848Y-17550984D02*
X11437848Y-17350984D01*
X11437848Y-17350984D02*
X11418801Y-17379555D01*
X11418801Y-17379555D02*
X11399753Y-17398603D01*
X11399753Y-17398603D02*
X11380706Y-17408127D01*
X11733087Y-17550984D02*
X11733087Y-17350984D01*
X11818801Y-17550984D02*
X11818801Y-17446222D01*
X11818801Y-17446222D02*
X11809277Y-17427174D01*
X11809277Y-17427174D02*
X11790230Y-17417650D01*
X11790230Y-17417650D02*
X11761658Y-17417650D01*
X11761658Y-17417650D02*
X11742610Y-17427174D01*
X11742610Y-17427174D02*
X11733087Y-17436698D01*
X11942610Y-17550984D02*
X11923563Y-17541460D01*
X11923563Y-17541460D02*
X11914039Y-17531936D01*
X11914039Y-17531936D02*
X11904515Y-17512889D01*
X11904515Y-17512889D02*
X11904515Y-17455746D01*
X11904515Y-17455746D02*
X11914039Y-17436698D01*
X11914039Y-17436698D02*
X11923563Y-17427174D01*
X11923563Y-17427174D02*
X11942610Y-17417650D01*
X11942610Y-17417650D02*
X11971182Y-17417650D01*
X11971182Y-17417650D02*
X11990230Y-17427174D01*
X11990230Y-17427174D02*
X11999753Y-17436698D01*
X11999753Y-17436698D02*
X12009277Y-17455746D01*
X12009277Y-17455746D02*
X12009277Y-17512889D01*
X12009277Y-17512889D02*
X11999753Y-17531936D01*
X11999753Y-17531936D02*
X11990230Y-17541460D01*
X11990230Y-17541460D02*
X11971182Y-17550984D01*
X11971182Y-17550984D02*
X11942610Y-17550984D01*
X12123563Y-17550984D02*
X12104515Y-17541460D01*
X12104515Y-17541460D02*
X12094991Y-17522412D01*
X12094991Y-17522412D02*
X12094991Y-17350984D01*
X12275944Y-17541460D02*
X12256896Y-17550984D01*
X12256896Y-17550984D02*
X12218801Y-17550984D01*
X12218801Y-17550984D02*
X12199753Y-17541460D01*
X12199753Y-17541460D02*
X12190230Y-17522412D01*
X12190230Y-17522412D02*
X12190230Y-17446222D01*
X12190230Y-17446222D02*
X12199753Y-17427174D01*
X12199753Y-17427174D02*
X12218801Y-17417650D01*
X12218801Y-17417650D02*
X12256896Y-17417650D01*
X12256896Y-17417650D02*
X12275944Y-17427174D01*
X12275944Y-17427174D02*
X12285468Y-17446222D01*
X12285468Y-17446222D02*
X12285468Y-17465270D01*
X12285468Y-17465270D02*
X12190230Y-17484317D01*
X12361658Y-17541460D02*
X12380706Y-17550984D01*
X12380706Y-17550984D02*
X12418801Y-17550984D01*
X12418801Y-17550984D02*
X12437849Y-17541460D01*
X12437849Y-17541460D02*
X12447372Y-17522412D01*
X12447372Y-17522412D02*
X12447372Y-17512889D01*
X12447372Y-17512889D02*
X12437849Y-17493841D01*
X12437849Y-17493841D02*
X12418801Y-17484317D01*
X12418801Y-17484317D02*
X12390230Y-17484317D01*
X12390230Y-17484317D02*
X12371182Y-17474793D01*
X12371182Y-17474793D02*
X12361658Y-17455746D01*
X12361658Y-17455746D02*
X12361658Y-17446222D01*
X12361658Y-17446222D02*
X12371182Y-17427174D01*
X12371182Y-17427174D02*
X12390230Y-17417650D01*
X12390230Y-17417650D02*
X12418801Y-17417650D01*
X12418801Y-17417650D02*
X12437849Y-17427174D01*
X12514039Y-17627174D02*
X12523563Y-17617650D01*
X12523563Y-17617650D02*
X12542611Y-17589079D01*
X12542611Y-17589079D02*
X12552134Y-17570031D01*
X12552134Y-17570031D02*
X12561658Y-17541460D01*
X12561658Y-17541460D02*
X12571182Y-17493841D01*
X12571182Y-17493841D02*
X12571182Y-17455746D01*
X12571182Y-17455746D02*
X12561658Y-17408127D01*
X12561658Y-17408127D02*
X12552134Y-17379555D01*
X12552134Y-17379555D02*
X12542611Y-17360508D01*
X12542611Y-17360508D02*
X12523563Y-17331936D01*
X12523563Y-17331936D02*
X12514039Y-17322412D01*
D12*
X7511000Y-17686000D02*
X7511000Y-17761000D01*
X7473500Y-17723500D02*
X7548500Y-17723500D01*
D11*
X7847372Y-17614984D02*
X7866420Y-17614984D01*
X7866420Y-17614984D02*
X7885467Y-17624508D01*
X7885467Y-17624508D02*
X7894991Y-17634031D01*
X7894991Y-17634031D02*
X7904515Y-17653079D01*
X7904515Y-17653079D02*
X7914039Y-17691174D01*
X7914039Y-17691174D02*
X7914039Y-17738793D01*
X7914039Y-17738793D02*
X7904515Y-17776889D01*
X7904515Y-17776889D02*
X7894991Y-17795936D01*
X7894991Y-17795936D02*
X7885467Y-17805460D01*
X7885467Y-17805460D02*
X7866420Y-17814984D01*
X7866420Y-17814984D02*
X7847372Y-17814984D01*
X7847372Y-17814984D02*
X7828324Y-17805460D01*
X7828324Y-17805460D02*
X7818801Y-17795936D01*
X7818801Y-17795936D02*
X7809277Y-17776889D01*
X7809277Y-17776889D02*
X7799753Y-17738793D01*
X7799753Y-17738793D02*
X7799753Y-17691174D01*
X7799753Y-17691174D02*
X7809277Y-17653079D01*
X7809277Y-17653079D02*
X7818801Y-17634031D01*
X7818801Y-17634031D02*
X7828324Y-17624508D01*
X7828324Y-17624508D02*
X7847372Y-17614984D01*
X7999753Y-17795936D02*
X8009277Y-17805460D01*
X8009277Y-17805460D02*
X7999753Y-17814984D01*
X7999753Y-17814984D02*
X7990229Y-17805460D01*
X7990229Y-17805460D02*
X7999753Y-17795936D01*
X7999753Y-17795936D02*
X7999753Y-17814984D01*
X8075943Y-17614984D02*
X8209277Y-17614984D01*
X8209277Y-17614984D02*
X8123562Y-17814984D01*
X8380705Y-17614984D02*
X8285467Y-17614984D01*
X8285467Y-17614984D02*
X8275943Y-17710222D01*
X8275943Y-17710222D02*
X8285467Y-17700698D01*
X8285467Y-17700698D02*
X8304515Y-17691174D01*
X8304515Y-17691174D02*
X8352134Y-17691174D01*
X8352134Y-17691174D02*
X8371182Y-17700698D01*
X8371182Y-17700698D02*
X8380705Y-17710222D01*
X8380705Y-17710222D02*
X8390229Y-17729270D01*
X8390229Y-17729270D02*
X8390229Y-17776889D01*
X8390229Y-17776889D02*
X8380705Y-17795936D01*
X8380705Y-17795936D02*
X8371182Y-17805460D01*
X8371182Y-17805460D02*
X8352134Y-17814984D01*
X8352134Y-17814984D02*
X8304515Y-17814984D01*
X8304515Y-17814984D02*
X8285467Y-17805460D01*
X8285467Y-17805460D02*
X8275943Y-17795936D01*
X8514039Y-17614984D02*
X8533086Y-17614984D01*
X8533086Y-17614984D02*
X8552134Y-17624508D01*
X8552134Y-17624508D02*
X8561658Y-17634031D01*
X8561658Y-17634031D02*
X8571182Y-17653079D01*
X8571182Y-17653079D02*
X8580705Y-17691174D01*
X8580705Y-17691174D02*
X8580705Y-17738793D01*
X8580705Y-17738793D02*
X8571182Y-17776889D01*
X8571182Y-17776889D02*
X8561658Y-17795936D01*
X8561658Y-17795936D02*
X8552134Y-17805460D01*
X8552134Y-17805460D02*
X8533086Y-17814984D01*
X8533086Y-17814984D02*
X8514039Y-17814984D01*
X8514039Y-17814984D02*
X8494991Y-17805460D01*
X8494991Y-17805460D02*
X8485467Y-17795936D01*
X8485467Y-17795936D02*
X8475944Y-17776889D01*
X8475944Y-17776889D02*
X8466420Y-17738793D01*
X8466420Y-17738793D02*
X8466420Y-17691174D01*
X8466420Y-17691174D02*
X8475944Y-17653079D01*
X8475944Y-17653079D02*
X8485467Y-17634031D01*
X8485467Y-17634031D02*
X8494991Y-17624508D01*
X8494991Y-17624508D02*
X8514039Y-17614984D01*
X8666420Y-17814984D02*
X8666420Y-17681650D01*
X8666420Y-17700698D02*
X8675944Y-17691174D01*
X8675944Y-17691174D02*
X8694991Y-17681650D01*
X8694991Y-17681650D02*
X8723563Y-17681650D01*
X8723563Y-17681650D02*
X8742610Y-17691174D01*
X8742610Y-17691174D02*
X8752134Y-17710222D01*
X8752134Y-17710222D02*
X8752134Y-17814984D01*
X8752134Y-17710222D02*
X8761658Y-17691174D01*
X8761658Y-17691174D02*
X8780705Y-17681650D01*
X8780705Y-17681650D02*
X8809277Y-17681650D01*
X8809277Y-17681650D02*
X8828325Y-17691174D01*
X8828325Y-17691174D02*
X8837848Y-17710222D01*
X8837848Y-17710222D02*
X8837848Y-17814984D01*
X8933086Y-17814984D02*
X8933086Y-17681650D01*
X8933086Y-17700698D02*
X8942610Y-17691174D01*
X8942610Y-17691174D02*
X8961658Y-17681650D01*
X8961658Y-17681650D02*
X8990229Y-17681650D01*
X8990229Y-17681650D02*
X9009277Y-17691174D01*
X9009277Y-17691174D02*
X9018801Y-17710222D01*
X9018801Y-17710222D02*
X9018801Y-17814984D01*
X9018801Y-17710222D02*
X9028325Y-17691174D01*
X9028325Y-17691174D02*
X9047372Y-17681650D01*
X9047372Y-17681650D02*
X9075944Y-17681650D01*
X9075944Y-17681650D02*
X9094991Y-17691174D01*
X9094991Y-17691174D02*
X9104515Y-17710222D01*
X9104515Y-17710222D02*
X9104515Y-17814984D01*
X9494991Y-17605460D02*
X9323563Y-17862603D01*
X9752134Y-17614984D02*
X9771182Y-17614984D01*
X9771182Y-17614984D02*
X9790229Y-17624508D01*
X9790229Y-17624508D02*
X9799753Y-17634031D01*
X9799753Y-17634031D02*
X9809277Y-17653079D01*
X9809277Y-17653079D02*
X9818801Y-17691174D01*
X9818801Y-17691174D02*
X9818801Y-17738793D01*
X9818801Y-17738793D02*
X9809277Y-17776889D01*
X9809277Y-17776889D02*
X9799753Y-17795936D01*
X9799753Y-17795936D02*
X9790229Y-17805460D01*
X9790229Y-17805460D02*
X9771182Y-17814984D01*
X9771182Y-17814984D02*
X9752134Y-17814984D01*
X9752134Y-17814984D02*
X9733087Y-17805460D01*
X9733087Y-17805460D02*
X9723563Y-17795936D01*
X9723563Y-17795936D02*
X9714039Y-17776889D01*
X9714039Y-17776889D02*
X9704515Y-17738793D01*
X9704515Y-17738793D02*
X9704515Y-17691174D01*
X9704515Y-17691174D02*
X9714039Y-17653079D01*
X9714039Y-17653079D02*
X9723563Y-17634031D01*
X9723563Y-17634031D02*
X9733087Y-17624508D01*
X9733087Y-17624508D02*
X9752134Y-17614984D01*
X9904515Y-17795936D02*
X9914039Y-17805460D01*
X9914039Y-17805460D02*
X9904515Y-17814984D01*
X9904515Y-17814984D02*
X9894991Y-17805460D01*
X9894991Y-17805460D02*
X9904515Y-17795936D01*
X9904515Y-17795936D02*
X9904515Y-17814984D01*
X10037848Y-17614984D02*
X10056896Y-17614984D01*
X10056896Y-17614984D02*
X10075944Y-17624508D01*
X10075944Y-17624508D02*
X10085468Y-17634031D01*
X10085468Y-17634031D02*
X10094991Y-17653079D01*
X10094991Y-17653079D02*
X10104515Y-17691174D01*
X10104515Y-17691174D02*
X10104515Y-17738793D01*
X10104515Y-17738793D02*
X10094991Y-17776889D01*
X10094991Y-17776889D02*
X10085468Y-17795936D01*
X10085468Y-17795936D02*
X10075944Y-17805460D01*
X10075944Y-17805460D02*
X10056896Y-17814984D01*
X10056896Y-17814984D02*
X10037848Y-17814984D01*
X10037848Y-17814984D02*
X10018801Y-17805460D01*
X10018801Y-17805460D02*
X10009277Y-17795936D01*
X10009277Y-17795936D02*
X9999753Y-17776889D01*
X9999753Y-17776889D02*
X9990229Y-17738793D01*
X9990229Y-17738793D02*
X9990229Y-17691174D01*
X9990229Y-17691174D02*
X9999753Y-17653079D01*
X9999753Y-17653079D02*
X10009277Y-17634031D01*
X10009277Y-17634031D02*
X10018801Y-17624508D01*
X10018801Y-17624508D02*
X10037848Y-17614984D01*
X10180706Y-17634031D02*
X10190229Y-17624508D01*
X10190229Y-17624508D02*
X10209277Y-17614984D01*
X10209277Y-17614984D02*
X10256896Y-17614984D01*
X10256896Y-17614984D02*
X10275944Y-17624508D01*
X10275944Y-17624508D02*
X10285468Y-17634031D01*
X10285468Y-17634031D02*
X10294991Y-17653079D01*
X10294991Y-17653079D02*
X10294991Y-17672127D01*
X10294991Y-17672127D02*
X10285468Y-17700698D01*
X10285468Y-17700698D02*
X10171182Y-17814984D01*
X10171182Y-17814984D02*
X10294991Y-17814984D01*
X10390229Y-17814984D02*
X10428325Y-17814984D01*
X10428325Y-17814984D02*
X10447372Y-17805460D01*
X10447372Y-17805460D02*
X10456896Y-17795936D01*
X10456896Y-17795936D02*
X10475944Y-17767365D01*
X10475944Y-17767365D02*
X10485468Y-17729270D01*
X10485468Y-17729270D02*
X10485468Y-17653079D01*
X10485468Y-17653079D02*
X10475944Y-17634031D01*
X10475944Y-17634031D02*
X10466420Y-17624508D01*
X10466420Y-17624508D02*
X10447372Y-17614984D01*
X10447372Y-17614984D02*
X10409277Y-17614984D01*
X10409277Y-17614984D02*
X10390229Y-17624508D01*
X10390229Y-17624508D02*
X10380706Y-17634031D01*
X10380706Y-17634031D02*
X10371182Y-17653079D01*
X10371182Y-17653079D02*
X10371182Y-17700698D01*
X10371182Y-17700698D02*
X10380706Y-17719746D01*
X10380706Y-17719746D02*
X10390229Y-17729270D01*
X10390229Y-17729270D02*
X10409277Y-17738793D01*
X10409277Y-17738793D02*
X10447372Y-17738793D01*
X10447372Y-17738793D02*
X10466420Y-17729270D01*
X10466420Y-17729270D02*
X10475944Y-17719746D01*
X10475944Y-17719746D02*
X10485468Y-17700698D01*
X10666420Y-17614984D02*
X10571182Y-17614984D01*
X10571182Y-17614984D02*
X10561658Y-17710222D01*
X10561658Y-17710222D02*
X10571182Y-17700698D01*
X10571182Y-17700698D02*
X10590229Y-17691174D01*
X10590229Y-17691174D02*
X10637849Y-17691174D01*
X10637849Y-17691174D02*
X10656896Y-17700698D01*
X10656896Y-17700698D02*
X10666420Y-17710222D01*
X10666420Y-17710222D02*
X10675944Y-17729270D01*
X10675944Y-17729270D02*
X10675944Y-17776889D01*
X10675944Y-17776889D02*
X10666420Y-17795936D01*
X10666420Y-17795936D02*
X10656896Y-17805460D01*
X10656896Y-17805460D02*
X10637849Y-17814984D01*
X10637849Y-17814984D02*
X10590229Y-17814984D01*
X10590229Y-17814984D02*
X10571182Y-17805460D01*
X10571182Y-17805460D02*
X10561658Y-17795936D01*
X10752134Y-17614984D02*
X10752134Y-17653079D01*
X10828325Y-17614984D02*
X10828325Y-17653079D01*
X11123563Y-17891174D02*
X11114039Y-17881650D01*
X11114039Y-17881650D02*
X11094991Y-17853079D01*
X11094991Y-17853079D02*
X11085468Y-17834031D01*
X11085468Y-17834031D02*
X11075944Y-17805460D01*
X11075944Y-17805460D02*
X11066420Y-17757841D01*
X11066420Y-17757841D02*
X11066420Y-17719746D01*
X11066420Y-17719746D02*
X11075944Y-17672127D01*
X11075944Y-17672127D02*
X11085468Y-17643555D01*
X11085468Y-17643555D02*
X11094991Y-17624508D01*
X11094991Y-17624508D02*
X11114039Y-17595936D01*
X11114039Y-17595936D02*
X11123563Y-17586412D01*
X11304515Y-17814984D02*
X11190229Y-17814984D01*
X11247372Y-17814984D02*
X11247372Y-17614984D01*
X11247372Y-17614984D02*
X11228325Y-17643555D01*
X11228325Y-17643555D02*
X11209277Y-17662603D01*
X11209277Y-17662603D02*
X11190229Y-17672127D01*
X11380706Y-17634031D02*
X11390229Y-17624508D01*
X11390229Y-17624508D02*
X11409277Y-17614984D01*
X11409277Y-17614984D02*
X11456896Y-17614984D01*
X11456896Y-17614984D02*
X11475944Y-17624508D01*
X11475944Y-17624508D02*
X11485468Y-17634031D01*
X11485468Y-17634031D02*
X11494991Y-17653079D01*
X11494991Y-17653079D02*
X11494991Y-17672127D01*
X11494991Y-17672127D02*
X11485468Y-17700698D01*
X11485468Y-17700698D02*
X11371182Y-17814984D01*
X11371182Y-17814984D02*
X11494991Y-17814984D01*
X11733087Y-17814984D02*
X11733087Y-17614984D01*
X11818801Y-17814984D02*
X11818801Y-17710222D01*
X11818801Y-17710222D02*
X11809277Y-17691174D01*
X11809277Y-17691174D02*
X11790230Y-17681650D01*
X11790230Y-17681650D02*
X11761658Y-17681650D01*
X11761658Y-17681650D02*
X11742610Y-17691174D01*
X11742610Y-17691174D02*
X11733087Y-17700698D01*
X11942610Y-17814984D02*
X11923563Y-17805460D01*
X11923563Y-17805460D02*
X11914039Y-17795936D01*
X11914039Y-17795936D02*
X11904515Y-17776889D01*
X11904515Y-17776889D02*
X11904515Y-17719746D01*
X11904515Y-17719746D02*
X11914039Y-17700698D01*
X11914039Y-17700698D02*
X11923563Y-17691174D01*
X11923563Y-17691174D02*
X11942610Y-17681650D01*
X11942610Y-17681650D02*
X11971182Y-17681650D01*
X11971182Y-17681650D02*
X11990230Y-17691174D01*
X11990230Y-17691174D02*
X11999753Y-17700698D01*
X11999753Y-17700698D02*
X12009277Y-17719746D01*
X12009277Y-17719746D02*
X12009277Y-17776889D01*
X12009277Y-17776889D02*
X11999753Y-17795936D01*
X11999753Y-17795936D02*
X11990230Y-17805460D01*
X11990230Y-17805460D02*
X11971182Y-17814984D01*
X11971182Y-17814984D02*
X11942610Y-17814984D01*
X12123563Y-17814984D02*
X12104515Y-17805460D01*
X12104515Y-17805460D02*
X12094991Y-17786412D01*
X12094991Y-17786412D02*
X12094991Y-17614984D01*
X12275944Y-17805460D02*
X12256896Y-17814984D01*
X12256896Y-17814984D02*
X12218801Y-17814984D01*
X12218801Y-17814984D02*
X12199753Y-17805460D01*
X12199753Y-17805460D02*
X12190230Y-17786412D01*
X12190230Y-17786412D02*
X12190230Y-17710222D01*
X12190230Y-17710222D02*
X12199753Y-17691174D01*
X12199753Y-17691174D02*
X12218801Y-17681650D01*
X12218801Y-17681650D02*
X12256896Y-17681650D01*
X12256896Y-17681650D02*
X12275944Y-17691174D01*
X12275944Y-17691174D02*
X12285468Y-17710222D01*
X12285468Y-17710222D02*
X12285468Y-17729270D01*
X12285468Y-17729270D02*
X12190230Y-17748317D01*
X12361658Y-17805460D02*
X12380706Y-17814984D01*
X12380706Y-17814984D02*
X12418801Y-17814984D01*
X12418801Y-17814984D02*
X12437849Y-17805460D01*
X12437849Y-17805460D02*
X12447372Y-17786412D01*
X12447372Y-17786412D02*
X12447372Y-17776889D01*
X12447372Y-17776889D02*
X12437849Y-17757841D01*
X12437849Y-17757841D02*
X12418801Y-17748317D01*
X12418801Y-17748317D02*
X12390230Y-17748317D01*
X12390230Y-17748317D02*
X12371182Y-17738793D01*
X12371182Y-17738793D02*
X12361658Y-17719746D01*
X12361658Y-17719746D02*
X12361658Y-17710222D01*
X12361658Y-17710222D02*
X12371182Y-17691174D01*
X12371182Y-17691174D02*
X12390230Y-17681650D01*
X12390230Y-17681650D02*
X12418801Y-17681650D01*
X12418801Y-17681650D02*
X12437849Y-17691174D01*
X12514039Y-17891174D02*
X12523563Y-17881650D01*
X12523563Y-17881650D02*
X12542611Y-17853079D01*
X12542611Y-17853079D02*
X12552134Y-17834031D01*
X12552134Y-17834031D02*
X12561658Y-17805460D01*
X12561658Y-17805460D02*
X12571182Y-17757841D01*
X12571182Y-17757841D02*
X12571182Y-17719746D01*
X12571182Y-17719746D02*
X12561658Y-17672127D01*
X12561658Y-17672127D02*
X12552134Y-17643555D01*
X12552134Y-17643555D02*
X12542611Y-17624508D01*
X12542611Y-17624508D02*
X12523563Y-17595936D01*
X12523563Y-17595936D02*
X12514039Y-17586412D01*
D12*
X7533856Y-18022856D02*
X7533856Y-17952144D01*
X7463144Y-17952144D01*
X7463144Y-18022856D01*
X7533856Y-18022856D01*
D11*
X7914039Y-18078984D02*
X7799753Y-18078984D01*
X7856896Y-18078984D02*
X7856896Y-17878984D01*
X7856896Y-17878984D02*
X7837848Y-17907555D01*
X7837848Y-17907555D02*
X7818801Y-17926603D01*
X7818801Y-17926603D02*
X7799753Y-17936127D01*
X7999753Y-18059936D02*
X8009277Y-18069460D01*
X8009277Y-18069460D02*
X7999753Y-18078984D01*
X7999753Y-18078984D02*
X7990229Y-18069460D01*
X7990229Y-18069460D02*
X7999753Y-18059936D01*
X7999753Y-18059936D02*
X7999753Y-18078984D01*
X8133086Y-17878984D02*
X8152134Y-17878984D01*
X8152134Y-17878984D02*
X8171182Y-17888508D01*
X8171182Y-17888508D02*
X8180705Y-17898031D01*
X8180705Y-17898031D02*
X8190229Y-17917079D01*
X8190229Y-17917079D02*
X8199753Y-17955174D01*
X8199753Y-17955174D02*
X8199753Y-18002793D01*
X8199753Y-18002793D02*
X8190229Y-18040889D01*
X8190229Y-18040889D02*
X8180705Y-18059936D01*
X8180705Y-18059936D02*
X8171182Y-18069460D01*
X8171182Y-18069460D02*
X8152134Y-18078984D01*
X8152134Y-18078984D02*
X8133086Y-18078984D01*
X8133086Y-18078984D02*
X8114039Y-18069460D01*
X8114039Y-18069460D02*
X8104515Y-18059936D01*
X8104515Y-18059936D02*
X8094991Y-18040889D01*
X8094991Y-18040889D02*
X8085467Y-18002793D01*
X8085467Y-18002793D02*
X8085467Y-17955174D01*
X8085467Y-17955174D02*
X8094991Y-17917079D01*
X8094991Y-17917079D02*
X8104515Y-17898031D01*
X8104515Y-17898031D02*
X8114039Y-17888508D01*
X8114039Y-17888508D02*
X8133086Y-17878984D01*
X8323562Y-17878984D02*
X8342610Y-17878984D01*
X8342610Y-17878984D02*
X8361658Y-17888508D01*
X8361658Y-17888508D02*
X8371182Y-17898031D01*
X8371182Y-17898031D02*
X8380705Y-17917079D01*
X8380705Y-17917079D02*
X8390229Y-17955174D01*
X8390229Y-17955174D02*
X8390229Y-18002793D01*
X8390229Y-18002793D02*
X8380705Y-18040889D01*
X8380705Y-18040889D02*
X8371182Y-18059936D01*
X8371182Y-18059936D02*
X8361658Y-18069460D01*
X8361658Y-18069460D02*
X8342610Y-18078984D01*
X8342610Y-18078984D02*
X8323562Y-18078984D01*
X8323562Y-18078984D02*
X8304515Y-18069460D01*
X8304515Y-18069460D02*
X8294991Y-18059936D01*
X8294991Y-18059936D02*
X8285467Y-18040889D01*
X8285467Y-18040889D02*
X8275943Y-18002793D01*
X8275943Y-18002793D02*
X8275943Y-17955174D01*
X8275943Y-17955174D02*
X8285467Y-17917079D01*
X8285467Y-17917079D02*
X8294991Y-17898031D01*
X8294991Y-17898031D02*
X8304515Y-17888508D01*
X8304515Y-17888508D02*
X8323562Y-17878984D01*
X8514039Y-17878984D02*
X8533086Y-17878984D01*
X8533086Y-17878984D02*
X8552134Y-17888508D01*
X8552134Y-17888508D02*
X8561658Y-17898031D01*
X8561658Y-17898031D02*
X8571182Y-17917079D01*
X8571182Y-17917079D02*
X8580705Y-17955174D01*
X8580705Y-17955174D02*
X8580705Y-18002793D01*
X8580705Y-18002793D02*
X8571182Y-18040889D01*
X8571182Y-18040889D02*
X8561658Y-18059936D01*
X8561658Y-18059936D02*
X8552134Y-18069460D01*
X8552134Y-18069460D02*
X8533086Y-18078984D01*
X8533086Y-18078984D02*
X8514039Y-18078984D01*
X8514039Y-18078984D02*
X8494991Y-18069460D01*
X8494991Y-18069460D02*
X8485467Y-18059936D01*
X8485467Y-18059936D02*
X8475944Y-18040889D01*
X8475944Y-18040889D02*
X8466420Y-18002793D01*
X8466420Y-18002793D02*
X8466420Y-17955174D01*
X8466420Y-17955174D02*
X8475944Y-17917079D01*
X8475944Y-17917079D02*
X8485467Y-17898031D01*
X8485467Y-17898031D02*
X8494991Y-17888508D01*
X8494991Y-17888508D02*
X8514039Y-17878984D01*
X8666420Y-18078984D02*
X8666420Y-17945650D01*
X8666420Y-17964698D02*
X8675944Y-17955174D01*
X8675944Y-17955174D02*
X8694991Y-17945650D01*
X8694991Y-17945650D02*
X8723563Y-17945650D01*
X8723563Y-17945650D02*
X8742610Y-17955174D01*
X8742610Y-17955174D02*
X8752134Y-17974222D01*
X8752134Y-17974222D02*
X8752134Y-18078984D01*
X8752134Y-17974222D02*
X8761658Y-17955174D01*
X8761658Y-17955174D02*
X8780705Y-17945650D01*
X8780705Y-17945650D02*
X8809277Y-17945650D01*
X8809277Y-17945650D02*
X8828325Y-17955174D01*
X8828325Y-17955174D02*
X8837848Y-17974222D01*
X8837848Y-17974222D02*
X8837848Y-18078984D01*
X8933086Y-18078984D02*
X8933086Y-17945650D01*
X8933086Y-17964698D02*
X8942610Y-17955174D01*
X8942610Y-17955174D02*
X8961658Y-17945650D01*
X8961658Y-17945650D02*
X8990229Y-17945650D01*
X8990229Y-17945650D02*
X9009277Y-17955174D01*
X9009277Y-17955174D02*
X9018801Y-17974222D01*
X9018801Y-17974222D02*
X9018801Y-18078984D01*
X9018801Y-17974222D02*
X9028325Y-17955174D01*
X9028325Y-17955174D02*
X9047372Y-17945650D01*
X9047372Y-17945650D02*
X9075944Y-17945650D01*
X9075944Y-17945650D02*
X9094991Y-17955174D01*
X9094991Y-17955174D02*
X9104515Y-17974222D01*
X9104515Y-17974222D02*
X9104515Y-18078984D01*
X9494991Y-17869460D02*
X9323563Y-18126603D01*
X9752134Y-17878984D02*
X9771182Y-17878984D01*
X9771182Y-17878984D02*
X9790229Y-17888508D01*
X9790229Y-17888508D02*
X9799753Y-17898031D01*
X9799753Y-17898031D02*
X9809277Y-17917079D01*
X9809277Y-17917079D02*
X9818801Y-17955174D01*
X9818801Y-17955174D02*
X9818801Y-18002793D01*
X9818801Y-18002793D02*
X9809277Y-18040889D01*
X9809277Y-18040889D02*
X9799753Y-18059936D01*
X9799753Y-18059936D02*
X9790229Y-18069460D01*
X9790229Y-18069460D02*
X9771182Y-18078984D01*
X9771182Y-18078984D02*
X9752134Y-18078984D01*
X9752134Y-18078984D02*
X9733087Y-18069460D01*
X9733087Y-18069460D02*
X9723563Y-18059936D01*
X9723563Y-18059936D02*
X9714039Y-18040889D01*
X9714039Y-18040889D02*
X9704515Y-18002793D01*
X9704515Y-18002793D02*
X9704515Y-17955174D01*
X9704515Y-17955174D02*
X9714039Y-17917079D01*
X9714039Y-17917079D02*
X9723563Y-17898031D01*
X9723563Y-17898031D02*
X9733087Y-17888508D01*
X9733087Y-17888508D02*
X9752134Y-17878984D01*
X9904515Y-18059936D02*
X9914039Y-18069460D01*
X9914039Y-18069460D02*
X9904515Y-18078984D01*
X9904515Y-18078984D02*
X9894991Y-18069460D01*
X9894991Y-18069460D02*
X9904515Y-18059936D01*
X9904515Y-18059936D02*
X9904515Y-18078984D01*
X10037848Y-17878984D02*
X10056896Y-17878984D01*
X10056896Y-17878984D02*
X10075944Y-17888508D01*
X10075944Y-17888508D02*
X10085468Y-17898031D01*
X10085468Y-17898031D02*
X10094991Y-17917079D01*
X10094991Y-17917079D02*
X10104515Y-17955174D01*
X10104515Y-17955174D02*
X10104515Y-18002793D01*
X10104515Y-18002793D02*
X10094991Y-18040889D01*
X10094991Y-18040889D02*
X10085468Y-18059936D01*
X10085468Y-18059936D02*
X10075944Y-18069460D01*
X10075944Y-18069460D02*
X10056896Y-18078984D01*
X10056896Y-18078984D02*
X10037848Y-18078984D01*
X10037848Y-18078984D02*
X10018801Y-18069460D01*
X10018801Y-18069460D02*
X10009277Y-18059936D01*
X10009277Y-18059936D02*
X9999753Y-18040889D01*
X9999753Y-18040889D02*
X9990229Y-18002793D01*
X9990229Y-18002793D02*
X9990229Y-17955174D01*
X9990229Y-17955174D02*
X9999753Y-17917079D01*
X9999753Y-17917079D02*
X10009277Y-17898031D01*
X10009277Y-17898031D02*
X10018801Y-17888508D01*
X10018801Y-17888508D02*
X10037848Y-17878984D01*
X10171182Y-17878984D02*
X10294991Y-17878984D01*
X10294991Y-17878984D02*
X10228325Y-17955174D01*
X10228325Y-17955174D02*
X10256896Y-17955174D01*
X10256896Y-17955174D02*
X10275944Y-17964698D01*
X10275944Y-17964698D02*
X10285468Y-17974222D01*
X10285468Y-17974222D02*
X10294991Y-17993270D01*
X10294991Y-17993270D02*
X10294991Y-18040889D01*
X10294991Y-18040889D02*
X10285468Y-18059936D01*
X10285468Y-18059936D02*
X10275944Y-18069460D01*
X10275944Y-18069460D02*
X10256896Y-18078984D01*
X10256896Y-18078984D02*
X10199753Y-18078984D01*
X10199753Y-18078984D02*
X10180706Y-18069460D01*
X10180706Y-18069460D02*
X10171182Y-18059936D01*
X10390229Y-18078984D02*
X10428325Y-18078984D01*
X10428325Y-18078984D02*
X10447372Y-18069460D01*
X10447372Y-18069460D02*
X10456896Y-18059936D01*
X10456896Y-18059936D02*
X10475944Y-18031365D01*
X10475944Y-18031365D02*
X10485468Y-17993270D01*
X10485468Y-17993270D02*
X10485468Y-17917079D01*
X10485468Y-17917079D02*
X10475944Y-17898031D01*
X10475944Y-17898031D02*
X10466420Y-17888508D01*
X10466420Y-17888508D02*
X10447372Y-17878984D01*
X10447372Y-17878984D02*
X10409277Y-17878984D01*
X10409277Y-17878984D02*
X10390229Y-17888508D01*
X10390229Y-17888508D02*
X10380706Y-17898031D01*
X10380706Y-17898031D02*
X10371182Y-17917079D01*
X10371182Y-17917079D02*
X10371182Y-17964698D01*
X10371182Y-17964698D02*
X10380706Y-17983746D01*
X10380706Y-17983746D02*
X10390229Y-17993270D01*
X10390229Y-17993270D02*
X10409277Y-18002793D01*
X10409277Y-18002793D02*
X10447372Y-18002793D01*
X10447372Y-18002793D02*
X10466420Y-17993270D01*
X10466420Y-17993270D02*
X10475944Y-17983746D01*
X10475944Y-17983746D02*
X10485468Y-17964698D01*
X10656896Y-17945650D02*
X10656896Y-18078984D01*
X10609277Y-17869460D02*
X10561658Y-18012317D01*
X10561658Y-18012317D02*
X10685468Y-18012317D01*
X10752134Y-17878984D02*
X10752134Y-17917079D01*
X10828325Y-17878984D02*
X10828325Y-17917079D01*
X11123563Y-18155174D02*
X11114039Y-18145650D01*
X11114039Y-18145650D02*
X11094991Y-18117079D01*
X11094991Y-18117079D02*
X11085468Y-18098031D01*
X11085468Y-18098031D02*
X11075944Y-18069460D01*
X11075944Y-18069460D02*
X11066420Y-18021841D01*
X11066420Y-18021841D02*
X11066420Y-17983746D01*
X11066420Y-17983746D02*
X11075944Y-17936127D01*
X11075944Y-17936127D02*
X11085468Y-17907555D01*
X11085468Y-17907555D02*
X11094991Y-17888508D01*
X11094991Y-17888508D02*
X11114039Y-17859936D01*
X11114039Y-17859936D02*
X11123563Y-17850412D01*
X11180706Y-17878984D02*
X11314039Y-17878984D01*
X11314039Y-17878984D02*
X11228325Y-18078984D01*
X11475944Y-17878984D02*
X11437848Y-17878984D01*
X11437848Y-17878984D02*
X11418801Y-17888508D01*
X11418801Y-17888508D02*
X11409277Y-17898031D01*
X11409277Y-17898031D02*
X11390229Y-17926603D01*
X11390229Y-17926603D02*
X11380706Y-17964698D01*
X11380706Y-17964698D02*
X11380706Y-18040889D01*
X11380706Y-18040889D02*
X11390229Y-18059936D01*
X11390229Y-18059936D02*
X11399753Y-18069460D01*
X11399753Y-18069460D02*
X11418801Y-18078984D01*
X11418801Y-18078984D02*
X11456896Y-18078984D01*
X11456896Y-18078984D02*
X11475944Y-18069460D01*
X11475944Y-18069460D02*
X11485468Y-18059936D01*
X11485468Y-18059936D02*
X11494991Y-18040889D01*
X11494991Y-18040889D02*
X11494991Y-17993270D01*
X11494991Y-17993270D02*
X11485468Y-17974222D01*
X11485468Y-17974222D02*
X11475944Y-17964698D01*
X11475944Y-17964698D02*
X11456896Y-17955174D01*
X11456896Y-17955174D02*
X11418801Y-17955174D01*
X11418801Y-17955174D02*
X11399753Y-17964698D01*
X11399753Y-17964698D02*
X11390229Y-17974222D01*
X11390229Y-17974222D02*
X11380706Y-17993270D01*
X11733087Y-18078984D02*
X11733087Y-17878984D01*
X11818801Y-18078984D02*
X11818801Y-17974222D01*
X11818801Y-17974222D02*
X11809277Y-17955174D01*
X11809277Y-17955174D02*
X11790230Y-17945650D01*
X11790230Y-17945650D02*
X11761658Y-17945650D01*
X11761658Y-17945650D02*
X11742610Y-17955174D01*
X11742610Y-17955174D02*
X11733087Y-17964698D01*
X11942610Y-18078984D02*
X11923563Y-18069460D01*
X11923563Y-18069460D02*
X11914039Y-18059936D01*
X11914039Y-18059936D02*
X11904515Y-18040889D01*
X11904515Y-18040889D02*
X11904515Y-17983746D01*
X11904515Y-17983746D02*
X11914039Y-17964698D01*
X11914039Y-17964698D02*
X11923563Y-17955174D01*
X11923563Y-17955174D02*
X11942610Y-17945650D01*
X11942610Y-17945650D02*
X11971182Y-17945650D01*
X11971182Y-17945650D02*
X11990230Y-17955174D01*
X11990230Y-17955174D02*
X11999753Y-17964698D01*
X11999753Y-17964698D02*
X12009277Y-17983746D01*
X12009277Y-17983746D02*
X12009277Y-18040889D01*
X12009277Y-18040889D02*
X11999753Y-18059936D01*
X11999753Y-18059936D02*
X11990230Y-18069460D01*
X11990230Y-18069460D02*
X11971182Y-18078984D01*
X11971182Y-18078984D02*
X11942610Y-18078984D01*
X12123563Y-18078984D02*
X12104515Y-18069460D01*
X12104515Y-18069460D02*
X12094991Y-18050412D01*
X12094991Y-18050412D02*
X12094991Y-17878984D01*
X12275944Y-18069460D02*
X12256896Y-18078984D01*
X12256896Y-18078984D02*
X12218801Y-18078984D01*
X12218801Y-18078984D02*
X12199753Y-18069460D01*
X12199753Y-18069460D02*
X12190230Y-18050412D01*
X12190230Y-18050412D02*
X12190230Y-17974222D01*
X12190230Y-17974222D02*
X12199753Y-17955174D01*
X12199753Y-17955174D02*
X12218801Y-17945650D01*
X12218801Y-17945650D02*
X12256896Y-17945650D01*
X12256896Y-17945650D02*
X12275944Y-17955174D01*
X12275944Y-17955174D02*
X12285468Y-17974222D01*
X12285468Y-17974222D02*
X12285468Y-17993270D01*
X12285468Y-17993270D02*
X12190230Y-18012317D01*
X12361658Y-18069460D02*
X12380706Y-18078984D01*
X12380706Y-18078984D02*
X12418801Y-18078984D01*
X12418801Y-18078984D02*
X12437849Y-18069460D01*
X12437849Y-18069460D02*
X12447372Y-18050412D01*
X12447372Y-18050412D02*
X12447372Y-18040889D01*
X12447372Y-18040889D02*
X12437849Y-18021841D01*
X12437849Y-18021841D02*
X12418801Y-18012317D01*
X12418801Y-18012317D02*
X12390230Y-18012317D01*
X12390230Y-18012317D02*
X12371182Y-18002793D01*
X12371182Y-18002793D02*
X12361658Y-17983746D01*
X12361658Y-17983746D02*
X12361658Y-17974222D01*
X12361658Y-17974222D02*
X12371182Y-17955174D01*
X12371182Y-17955174D02*
X12390230Y-17945650D01*
X12390230Y-17945650D02*
X12418801Y-17945650D01*
X12418801Y-17945650D02*
X12437849Y-17955174D01*
X12514039Y-18155174D02*
X12523563Y-18145650D01*
X12523563Y-18145650D02*
X12542611Y-18117079D01*
X12542611Y-18117079D02*
X12552134Y-18098031D01*
X12552134Y-18098031D02*
X12561658Y-18069460D01*
X12561658Y-18069460D02*
X12571182Y-18021841D01*
X12571182Y-18021841D02*
X12571182Y-17983746D01*
X12571182Y-17983746D02*
X12561658Y-17936127D01*
X12561658Y-17936127D02*
X12552134Y-17907555D01*
X12552134Y-17907555D02*
X12542611Y-17888508D01*
X12542611Y-17888508D02*
X12523563Y-17859936D01*
X12523563Y-17859936D02*
X12514039Y-17850412D01*
M02*
