%TF.GenerationSoftware,KiCad,Pcbnew,8.0.9*%
%TF.CreationDate,2025-05-07T23:17:47-04:00*%
%TF.ProjectId,RAMEXPB_V3,52414d45-5850-4425-9f56-332e6b696361,rev?*%
%TF.SameCoordinates,Original*%
%TF.FileFunction,Paste,Top*%
%TF.FilePolarity,Positive*%
%FSLAX46Y46*%
G04 Gerber Fmt 4.6, Leading zero omitted, Abs format (unit mm)*
G04 Created by KiCad (PCBNEW 8.0.9) date 2025-05-07 23:17:47*
%MOMM*%
%LPD*%
G01*
G04 APERTURE LIST*
G04 Aperture macros list*
%AMRoundRect*
0 Rectangle with rounded corners*
0 $1 Rounding radius*
0 $2 $3 $4 $5 $6 $7 $8 $9 X,Y pos of 4 corners*
0 Add a 4 corners polygon primitive as box body*
4,1,4,$2,$3,$4,$5,$6,$7,$8,$9,$2,$3,0*
0 Add four circle primitives for the rounded corners*
1,1,$1+$1,$2,$3*
1,1,$1+$1,$4,$5*
1,1,$1+$1,$6,$7*
1,1,$1+$1,$8,$9*
0 Add four rect primitives between the rounded corners*
20,1,$1+$1,$2,$3,$4,$5,0*
20,1,$1+$1,$4,$5,$6,$7,0*
20,1,$1+$1,$6,$7,$8,$9,0*
20,1,$1+$1,$8,$9,$2,$3,0*%
G04 Aperture macros list end*
%ADD10RoundRect,0.250000X-0.450000X0.350000X-0.450000X-0.350000X0.450000X-0.350000X0.450000X0.350000X0*%
%ADD11RoundRect,0.250000X0.450000X-0.350000X0.450000X0.350000X-0.450000X0.350000X-0.450000X-0.350000X0*%
%ADD12RoundRect,0.250000X0.350000X0.450000X-0.350000X0.450000X-0.350000X-0.450000X0.350000X-0.450000X0*%
%ADD13RoundRect,0.150000X0.725000X0.150000X-0.725000X0.150000X-0.725000X-0.150000X0.725000X-0.150000X0*%
%ADD14RoundRect,0.312500X0.312500X-0.312500X0.312500X0.312500X-0.312500X0.312500X-0.312500X-0.312500X0*%
%ADD15R,1.250000X0.760000*%
%ADD16RoundRect,0.150000X-0.875000X-0.150000X0.875000X-0.150000X0.875000X0.150000X-0.875000X0.150000X0*%
%ADD17RoundRect,0.250000X-0.350000X-0.450000X0.350000X-0.450000X0.350000X0.450000X-0.350000X0.450000X0*%
%ADD18RoundRect,0.137500X-1.361500X-0.137500X1.361500X-0.137500X1.361500X0.137500X-1.361500X0.137500X0*%
%ADD19RoundRect,0.250000X0.925000X-0.875000X0.925000X0.875000X-0.925000X0.875000X-0.925000X-0.875000X0*%
%ADD20RoundRect,0.150000X0.825000X0.150000X-0.825000X0.150000X-0.825000X-0.150000X0.825000X-0.150000X0*%
G04 APERTURE END LIST*
D10*
%TO.C,R9*%
X99575000Y-137615000D03*
X99575000Y-139615000D03*
%TD*%
D11*
%TO.C,R2*%
X102785000Y-146825000D03*
X102785000Y-144825000D03*
%TD*%
D12*
%TO.C,R20*%
X132735000Y-136290000D03*
X130735000Y-136290000D03*
%TD*%
D13*
%TO.C,U2*%
X111800000Y-146723300D03*
X111800000Y-145453300D03*
X111800000Y-144183300D03*
X111800000Y-142913300D03*
X111800000Y-141643300D03*
X111800000Y-140373300D03*
X111800000Y-139103300D03*
X111800000Y-137833300D03*
X106650000Y-137833300D03*
X106650000Y-139103300D03*
X106650000Y-140373300D03*
X106650000Y-141643300D03*
X106650000Y-142913300D03*
X106650000Y-144183300D03*
X106650000Y-145453300D03*
X106650000Y-146723300D03*
%TD*%
D12*
%TO.C,R15*%
X132745000Y-133795000D03*
X130745000Y-133795000D03*
%TD*%
D13*
%TO.C,U3*%
X175900000Y-162280000D03*
X175900000Y-161010000D03*
X175900000Y-159740000D03*
X175900000Y-158470000D03*
X175900000Y-157200000D03*
X175900000Y-155930000D03*
X175900000Y-154660000D03*
X175900000Y-153390000D03*
X170750000Y-153390000D03*
X170750000Y-154660000D03*
X170750000Y-155930000D03*
X170750000Y-157200000D03*
X170750000Y-158470000D03*
X170750000Y-159740000D03*
X170750000Y-161010000D03*
X170750000Y-162280000D03*
%TD*%
D11*
%TO.C,R22*%
X135760600Y-162255000D03*
X135760600Y-160255000D03*
%TD*%
D14*
%TO.C,D2*%
X131255000Y-153565000D03*
X131255000Y-150465000D03*
%TD*%
D10*
%TO.C,R13*%
X99575000Y-118460000D03*
X99575000Y-120460000D03*
%TD*%
%TO.C,R24*%
X120905000Y-107525000D03*
X120905000Y-109525000D03*
%TD*%
%TO.C,R11*%
X99575000Y-147995000D03*
X99575000Y-149995000D03*
%TD*%
D12*
%TO.C,R25*%
X117455000Y-107585000D03*
X115455000Y-107585000D03*
%TD*%
D15*
%TO.C,SWB1*%
X122170000Y-153960000D03*
X122170000Y-155230000D03*
X122170000Y-156500000D03*
X122170000Y-157770000D03*
X122170000Y-159040000D03*
X122170000Y-160310000D03*
X128320000Y-160310000D03*
X128320000Y-159040000D03*
X128320000Y-157770000D03*
X128320000Y-156500000D03*
X128320000Y-155230000D03*
X128320000Y-153960000D03*
%TD*%
D13*
%TO.C,U10*%
X111800000Y-131666700D03*
X111800000Y-130396700D03*
X111800000Y-129126700D03*
X111800000Y-127856700D03*
X111800000Y-126586700D03*
X111800000Y-125316700D03*
X111800000Y-124046700D03*
X111800000Y-122776700D03*
X106650000Y-122776700D03*
X106650000Y-124046700D03*
X106650000Y-125316700D03*
X106650000Y-126586700D03*
X106650000Y-127856700D03*
X106650000Y-129126700D03*
X106650000Y-130396700D03*
X106650000Y-131666700D03*
%TD*%
D12*
%TO.C,R8*%
X116635000Y-141735000D03*
X114635000Y-141735000D03*
%TD*%
D16*
%TO.C,U7*%
X199850000Y-108625000D03*
X199850000Y-109895000D03*
X199850000Y-111165000D03*
X199850000Y-112435000D03*
X199850000Y-113705000D03*
X199850000Y-114975000D03*
X199850000Y-116245000D03*
X199850000Y-117515000D03*
X199850000Y-118785000D03*
X199850000Y-120055000D03*
X209150000Y-120055000D03*
X209150000Y-118785000D03*
X209150000Y-117515000D03*
X209150000Y-116245000D03*
X209150000Y-114975000D03*
X209150000Y-113705000D03*
X209150000Y-112435000D03*
X209150000Y-111165000D03*
X209150000Y-109895000D03*
X209150000Y-108625000D03*
%TD*%
D17*
%TO.C,R17*%
X98465000Y-157645000D03*
X100465000Y-157645000D03*
%TD*%
%TO.C,R6*%
X184125000Y-158586700D03*
X186125000Y-158586700D03*
%TD*%
D18*
%TO.C,U5*%
X146945000Y-113600000D03*
X146945000Y-114870000D03*
X146945000Y-116140000D03*
X146945000Y-117410000D03*
X146945000Y-118680000D03*
X146945000Y-119950000D03*
X146945000Y-121220000D03*
X146945000Y-122490000D03*
X146945000Y-123760000D03*
X146945000Y-125030000D03*
X146945000Y-126300000D03*
X146945000Y-127570000D03*
X146945000Y-128840000D03*
X146945000Y-130110000D03*
X146945000Y-131380000D03*
X146945000Y-132650000D03*
X146945000Y-133920000D03*
X146945000Y-135190000D03*
X146945000Y-136460000D03*
X146945000Y-137730000D03*
X146945000Y-139000000D03*
X155835000Y-139000000D03*
X155835000Y-137730000D03*
X155835000Y-136460000D03*
X155835000Y-135190000D03*
X155835000Y-133920000D03*
X155835000Y-132650000D03*
X155835000Y-131380000D03*
X155835000Y-130110000D03*
X155835000Y-128840000D03*
X155835000Y-127570000D03*
X155835000Y-126300000D03*
X155835000Y-125030000D03*
X155835000Y-123760000D03*
X155835000Y-122490000D03*
X155835000Y-121220000D03*
X155835000Y-119950000D03*
X155835000Y-118680000D03*
X155835000Y-117410000D03*
X155835000Y-116140000D03*
X155835000Y-114870000D03*
X155835000Y-113600000D03*
%TD*%
D19*
%TO.C,C1*%
X208585000Y-98875000D03*
X208585000Y-93775000D03*
%TD*%
D17*
%TO.C,R18*%
X98505000Y-152595000D03*
X100505000Y-152595000D03*
%TD*%
%TO.C,R5*%
X184125000Y-155618300D03*
X186125000Y-155618300D03*
%TD*%
D15*
%TO.C,SWB2*%
X122350000Y-132460000D03*
X122350000Y-133730000D03*
X122350000Y-135000000D03*
X122350000Y-136270000D03*
X122350000Y-137540000D03*
X122350000Y-138810000D03*
X122350000Y-140080000D03*
X122350000Y-141350000D03*
X128500000Y-141350000D03*
X128500000Y-140080000D03*
X128500000Y-138810000D03*
X128500000Y-137540000D03*
X128500000Y-136270000D03*
X128500000Y-135000000D03*
X128500000Y-133730000D03*
X128500000Y-132460000D03*
%TD*%
D20*
%TO.C,U1*%
X162940000Y-162245000D03*
X162940000Y-160975000D03*
X162940000Y-159705000D03*
X162940000Y-158435000D03*
X162940000Y-157165000D03*
X162940000Y-155895000D03*
X162940000Y-154625000D03*
X157990000Y-154625000D03*
X157990000Y-155895000D03*
X157990000Y-157165000D03*
X157990000Y-158435000D03*
X157990000Y-159705000D03*
X157990000Y-160975000D03*
X157990000Y-162245000D03*
%TD*%
D14*
%TO.C,D1*%
X134325000Y-153545000D03*
X134325000Y-150445000D03*
%TD*%
D11*
%TO.C,R16*%
X142198300Y-162255000D03*
X142198300Y-160255000D03*
%TD*%
D13*
%TO.C,U11*%
X111800000Y-116610000D03*
X111800000Y-115340000D03*
X111800000Y-114070000D03*
X111800000Y-112800000D03*
X111800000Y-111530000D03*
X111800000Y-110260000D03*
X111800000Y-108990000D03*
X111800000Y-107720000D03*
X106650000Y-107720000D03*
X106650000Y-108990000D03*
X106650000Y-110260000D03*
X106650000Y-111530000D03*
X106650000Y-112800000D03*
X106650000Y-114070000D03*
X106650000Y-115340000D03*
X106650000Y-116610000D03*
%TD*%
D17*
%TO.C,R7*%
X184125000Y-152650000D03*
X186125000Y-152650000D03*
%TD*%
D11*
%TO.C,R26*%
X145455000Y-162245000D03*
X145455000Y-160245000D03*
%TD*%
D13*
%TO.C,U9*%
X111800000Y-161780000D03*
X111800000Y-160510000D03*
X111800000Y-159240000D03*
X111800000Y-157970000D03*
X111800000Y-156700000D03*
X111800000Y-155430000D03*
X111800000Y-154160000D03*
X111800000Y-152890000D03*
X106650000Y-152890000D03*
X106650000Y-154160000D03*
X106650000Y-155430000D03*
X106650000Y-156700000D03*
X106650000Y-157970000D03*
X106650000Y-159240000D03*
X106650000Y-160510000D03*
X106650000Y-161780000D03*
%TD*%
D16*
%TO.C,U8*%
X199630000Y-130270000D03*
X199630000Y-131540000D03*
X199630000Y-132810000D03*
X199630000Y-134080000D03*
X199630000Y-135350000D03*
X199630000Y-136620000D03*
X199630000Y-137890000D03*
X199630000Y-139160000D03*
X199630000Y-140430000D03*
X199630000Y-141700000D03*
X208930000Y-141700000D03*
X208930000Y-140430000D03*
X208930000Y-139160000D03*
X208930000Y-137890000D03*
X208930000Y-136620000D03*
X208930000Y-135350000D03*
X208930000Y-134080000D03*
X208930000Y-132810000D03*
X208930000Y-131540000D03*
X208930000Y-130270000D03*
%TD*%
D18*
%TO.C,U6*%
X168725000Y-113600000D03*
X168725000Y-114870000D03*
X168725000Y-116140000D03*
X168725000Y-117410000D03*
X168725000Y-118680000D03*
X168725000Y-119950000D03*
X168725000Y-121220000D03*
X168725000Y-122490000D03*
X168725000Y-123760000D03*
X168725000Y-125030000D03*
X168725000Y-126300000D03*
X168725000Y-127570000D03*
X168725000Y-128840000D03*
X168725000Y-130110000D03*
X168725000Y-131380000D03*
X168725000Y-132650000D03*
X168725000Y-133920000D03*
X168725000Y-135190000D03*
X168725000Y-136460000D03*
X168725000Y-137730000D03*
X168725000Y-139000000D03*
X177615000Y-139000000D03*
X177615000Y-137730000D03*
X177615000Y-136460000D03*
X177615000Y-135190000D03*
X177615000Y-133920000D03*
X177615000Y-132650000D03*
X177615000Y-131380000D03*
X177615000Y-130110000D03*
X177615000Y-128840000D03*
X177615000Y-127570000D03*
X177615000Y-126300000D03*
X177615000Y-125030000D03*
X177615000Y-123760000D03*
X177615000Y-122490000D03*
X177615000Y-121220000D03*
X177615000Y-119950000D03*
X177615000Y-118680000D03*
X177615000Y-117410000D03*
X177615000Y-116140000D03*
X177615000Y-114870000D03*
X177615000Y-113600000D03*
%TD*%
D10*
%TO.C,R10*%
X99575000Y-142945000D03*
X99575000Y-144945000D03*
%TD*%
D17*
%TO.C,R4*%
X184125000Y-161555000D03*
X186125000Y-161555000D03*
%TD*%
D10*
%TO.C,R12*%
X99575000Y-113135000D03*
X99575000Y-115135000D03*
%TD*%
D20*
%TO.C,U4*%
X199255000Y-162105000D03*
X199255000Y-160835000D03*
X199255000Y-159565000D03*
X199255000Y-158295000D03*
X199255000Y-157025000D03*
X199255000Y-155755000D03*
X199255000Y-154485000D03*
X194305000Y-154485000D03*
X194305000Y-155755000D03*
X194305000Y-157025000D03*
X194305000Y-158295000D03*
X194305000Y-159565000D03*
X194305000Y-160835000D03*
X194305000Y-162105000D03*
%TD*%
D10*
%TO.C,R19*%
X118805000Y-150825000D03*
X118805000Y-152825000D03*
%TD*%
%TO.C,R3*%
X86135000Y-138165000D03*
X86135000Y-140165000D03*
%TD*%
D11*
%TO.C,R21*%
X138979400Y-162255000D03*
X138979400Y-160255000D03*
%TD*%
D10*
%TO.C,R14*%
X99575000Y-123785000D03*
X99575000Y-125785000D03*
%TD*%
D17*
%TO.C,R1*%
X114535000Y-145475000D03*
X116535000Y-145475000D03*
%TD*%
M02*
