%TF.GenerationSoftware,KiCad,Pcbnew,8.0.9*%
%TF.CreationDate,2025-05-07T23:17:47-04:00*%
%TF.ProjectId,RAMEXPB_V3,52414d45-5850-4425-9f56-332e6b696361,rev?*%
%TF.SameCoordinates,Original*%
%TF.FileFunction,Legend,Bot*%
%TF.FilePolarity,Positive*%
%FSLAX46Y46*%
G04 Gerber Fmt 4.6, Leading zero omitted, Abs format (unit mm)*
G04 Created by KiCad (PCBNEW 8.0.9) date 2025-05-07 23:17:47*
%MOMM*%
%LPD*%
G01*
G04 APERTURE LIST*
%ADD10C,0.150000*%
%ADD11C,0.120000*%
G04 APERTURE END LIST*
D10*
X173621666Y-115744580D02*
X173669285Y-115792200D01*
X173669285Y-115792200D02*
X173812142Y-115839819D01*
X173812142Y-115839819D02*
X173907380Y-115839819D01*
X173907380Y-115839819D02*
X174050237Y-115792200D01*
X174050237Y-115792200D02*
X174145475Y-115696961D01*
X174145475Y-115696961D02*
X174193094Y-115601723D01*
X174193094Y-115601723D02*
X174240713Y-115411247D01*
X174240713Y-115411247D02*
X174240713Y-115268390D01*
X174240713Y-115268390D02*
X174193094Y-115077914D01*
X174193094Y-115077914D02*
X174145475Y-114982676D01*
X174145475Y-114982676D02*
X174050237Y-114887438D01*
X174050237Y-114887438D02*
X173907380Y-114839819D01*
X173907380Y-114839819D02*
X173812142Y-114839819D01*
X173812142Y-114839819D02*
X173669285Y-114887438D01*
X173669285Y-114887438D02*
X173621666Y-114935057D01*
X172764523Y-114839819D02*
X172954999Y-114839819D01*
X172954999Y-114839819D02*
X173050237Y-114887438D01*
X173050237Y-114887438D02*
X173097856Y-114935057D01*
X173097856Y-114935057D02*
X173193094Y-115077914D01*
X173193094Y-115077914D02*
X173240713Y-115268390D01*
X173240713Y-115268390D02*
X173240713Y-115649342D01*
X173240713Y-115649342D02*
X173193094Y-115744580D01*
X173193094Y-115744580D02*
X173145475Y-115792200D01*
X173145475Y-115792200D02*
X173050237Y-115839819D01*
X173050237Y-115839819D02*
X172859761Y-115839819D01*
X172859761Y-115839819D02*
X172764523Y-115792200D01*
X172764523Y-115792200D02*
X172716904Y-115744580D01*
X172716904Y-115744580D02*
X172669285Y-115649342D01*
X172669285Y-115649342D02*
X172669285Y-115411247D01*
X172669285Y-115411247D02*
X172716904Y-115316009D01*
X172716904Y-115316009D02*
X172764523Y-115268390D01*
X172764523Y-115268390D02*
X172859761Y-115220771D01*
X172859761Y-115220771D02*
X173050237Y-115220771D01*
X173050237Y-115220771D02*
X173145475Y-115268390D01*
X173145475Y-115268390D02*
X173193094Y-115316009D01*
X173193094Y-115316009D02*
X173240713Y-115411247D01*
X95443333Y-105154819D02*
X95443333Y-105869104D01*
X95443333Y-105869104D02*
X95490952Y-106011961D01*
X95490952Y-106011961D02*
X95586190Y-106107200D01*
X95586190Y-106107200D02*
X95729047Y-106154819D01*
X95729047Y-106154819D02*
X95824285Y-106154819D01*
X94919523Y-106154819D02*
X94729047Y-106154819D01*
X94729047Y-106154819D02*
X94633809Y-106107200D01*
X94633809Y-106107200D02*
X94586190Y-106059580D01*
X94586190Y-106059580D02*
X94490952Y-105916723D01*
X94490952Y-105916723D02*
X94443333Y-105726247D01*
X94443333Y-105726247D02*
X94443333Y-105345295D01*
X94443333Y-105345295D02*
X94490952Y-105250057D01*
X94490952Y-105250057D02*
X94538571Y-105202438D01*
X94538571Y-105202438D02*
X94633809Y-105154819D01*
X94633809Y-105154819D02*
X94824285Y-105154819D01*
X94824285Y-105154819D02*
X94919523Y-105202438D01*
X94919523Y-105202438D02*
X94967142Y-105250057D01*
X94967142Y-105250057D02*
X95014761Y-105345295D01*
X95014761Y-105345295D02*
X95014761Y-105583390D01*
X95014761Y-105583390D02*
X94967142Y-105678628D01*
X94967142Y-105678628D02*
X94919523Y-105726247D01*
X94919523Y-105726247D02*
X94824285Y-105773866D01*
X94824285Y-105773866D02*
X94633809Y-105773866D01*
X94633809Y-105773866D02*
X94538571Y-105726247D01*
X94538571Y-105726247D02*
X94490952Y-105678628D01*
X94490952Y-105678628D02*
X94443333Y-105583390D01*
X158404580Y-156448333D02*
X158452200Y-156400714D01*
X158452200Y-156400714D02*
X158499819Y-156257857D01*
X158499819Y-156257857D02*
X158499819Y-156162619D01*
X158499819Y-156162619D02*
X158452200Y-156019762D01*
X158452200Y-156019762D02*
X158356961Y-155924524D01*
X158356961Y-155924524D02*
X158261723Y-155876905D01*
X158261723Y-155876905D02*
X158071247Y-155829286D01*
X158071247Y-155829286D02*
X157928390Y-155829286D01*
X157928390Y-155829286D02*
X157737914Y-155876905D01*
X157737914Y-155876905D02*
X157642676Y-155924524D01*
X157642676Y-155924524D02*
X157547438Y-156019762D01*
X157547438Y-156019762D02*
X157499819Y-156162619D01*
X157499819Y-156162619D02*
X157499819Y-156257857D01*
X157499819Y-156257857D02*
X157547438Y-156400714D01*
X157547438Y-156400714D02*
X157595057Y-156448333D01*
X157833152Y-157305476D02*
X158499819Y-157305476D01*
X157452200Y-157067381D02*
X158166485Y-156829286D01*
X158166485Y-156829286D02*
X158166485Y-157448333D01*
X109697857Y-150554580D02*
X109745476Y-150602200D01*
X109745476Y-150602200D02*
X109888333Y-150649819D01*
X109888333Y-150649819D02*
X109983571Y-150649819D01*
X109983571Y-150649819D02*
X110126428Y-150602200D01*
X110126428Y-150602200D02*
X110221666Y-150506961D01*
X110221666Y-150506961D02*
X110269285Y-150411723D01*
X110269285Y-150411723D02*
X110316904Y-150221247D01*
X110316904Y-150221247D02*
X110316904Y-150078390D01*
X110316904Y-150078390D02*
X110269285Y-149887914D01*
X110269285Y-149887914D02*
X110221666Y-149792676D01*
X110221666Y-149792676D02*
X110126428Y-149697438D01*
X110126428Y-149697438D02*
X109983571Y-149649819D01*
X109983571Y-149649819D02*
X109888333Y-149649819D01*
X109888333Y-149649819D02*
X109745476Y-149697438D01*
X109745476Y-149697438D02*
X109697857Y-149745057D01*
X108745476Y-150649819D02*
X109316904Y-150649819D01*
X109031190Y-150649819D02*
X109031190Y-149649819D01*
X109031190Y-149649819D02*
X109126428Y-149792676D01*
X109126428Y-149792676D02*
X109221666Y-149887914D01*
X109221666Y-149887914D02*
X109316904Y-149935533D01*
X107840714Y-149649819D02*
X108316904Y-149649819D01*
X108316904Y-149649819D02*
X108364523Y-150126009D01*
X108364523Y-150126009D02*
X108316904Y-150078390D01*
X108316904Y-150078390D02*
X108221666Y-150030771D01*
X108221666Y-150030771D02*
X107983571Y-150030771D01*
X107983571Y-150030771D02*
X107888333Y-150078390D01*
X107888333Y-150078390D02*
X107840714Y-150126009D01*
X107840714Y-150126009D02*
X107793095Y-150221247D01*
X107793095Y-150221247D02*
X107793095Y-150459342D01*
X107793095Y-150459342D02*
X107840714Y-150554580D01*
X107840714Y-150554580D02*
X107888333Y-150602200D01*
X107888333Y-150602200D02*
X107983571Y-150649819D01*
X107983571Y-150649819D02*
X108221666Y-150649819D01*
X108221666Y-150649819D02*
X108316904Y-150602200D01*
X108316904Y-150602200D02*
X108364523Y-150554580D01*
X173621666Y-141034580D02*
X173669285Y-141082200D01*
X173669285Y-141082200D02*
X173812142Y-141129819D01*
X173812142Y-141129819D02*
X173907380Y-141129819D01*
X173907380Y-141129819D02*
X174050237Y-141082200D01*
X174050237Y-141082200D02*
X174145475Y-140986961D01*
X174145475Y-140986961D02*
X174193094Y-140891723D01*
X174193094Y-140891723D02*
X174240713Y-140701247D01*
X174240713Y-140701247D02*
X174240713Y-140558390D01*
X174240713Y-140558390D02*
X174193094Y-140367914D01*
X174193094Y-140367914D02*
X174145475Y-140272676D01*
X174145475Y-140272676D02*
X174050237Y-140177438D01*
X174050237Y-140177438D02*
X173907380Y-140129819D01*
X173907380Y-140129819D02*
X173812142Y-140129819D01*
X173812142Y-140129819D02*
X173669285Y-140177438D01*
X173669285Y-140177438D02*
X173621666Y-140225057D01*
X173050237Y-140558390D02*
X173145475Y-140510771D01*
X173145475Y-140510771D02*
X173193094Y-140463152D01*
X173193094Y-140463152D02*
X173240713Y-140367914D01*
X173240713Y-140367914D02*
X173240713Y-140320295D01*
X173240713Y-140320295D02*
X173193094Y-140225057D01*
X173193094Y-140225057D02*
X173145475Y-140177438D01*
X173145475Y-140177438D02*
X173050237Y-140129819D01*
X173050237Y-140129819D02*
X172859761Y-140129819D01*
X172859761Y-140129819D02*
X172764523Y-140177438D01*
X172764523Y-140177438D02*
X172716904Y-140225057D01*
X172716904Y-140225057D02*
X172669285Y-140320295D01*
X172669285Y-140320295D02*
X172669285Y-140367914D01*
X172669285Y-140367914D02*
X172716904Y-140463152D01*
X172716904Y-140463152D02*
X172764523Y-140510771D01*
X172764523Y-140510771D02*
X172859761Y-140558390D01*
X172859761Y-140558390D02*
X173050237Y-140558390D01*
X173050237Y-140558390D02*
X173145475Y-140606009D01*
X173145475Y-140606009D02*
X173193094Y-140653628D01*
X173193094Y-140653628D02*
X173240713Y-140748866D01*
X173240713Y-140748866D02*
X173240713Y-140939342D01*
X173240713Y-140939342D02*
X173193094Y-141034580D01*
X173193094Y-141034580D02*
X173145475Y-141082200D01*
X173145475Y-141082200D02*
X173050237Y-141129819D01*
X173050237Y-141129819D02*
X172859761Y-141129819D01*
X172859761Y-141129819D02*
X172764523Y-141082200D01*
X172764523Y-141082200D02*
X172716904Y-141034580D01*
X172716904Y-141034580D02*
X172669285Y-140939342D01*
X172669285Y-140939342D02*
X172669285Y-140748866D01*
X172669285Y-140748866D02*
X172716904Y-140653628D01*
X172716904Y-140653628D02*
X172764523Y-140606009D01*
X172764523Y-140606009D02*
X172859761Y-140558390D01*
X95919523Y-134454819D02*
X95919523Y-135169104D01*
X95919523Y-135169104D02*
X95967142Y-135311961D01*
X95967142Y-135311961D02*
X96062380Y-135407200D01*
X96062380Y-135407200D02*
X96205237Y-135454819D01*
X96205237Y-135454819D02*
X96300475Y-135454819D01*
X94919523Y-135454819D02*
X95490951Y-135454819D01*
X95205237Y-135454819D02*
X95205237Y-134454819D01*
X95205237Y-134454819D02*
X95300475Y-134597676D01*
X95300475Y-134597676D02*
X95395713Y-134692914D01*
X95395713Y-134692914D02*
X95490951Y-134740533D01*
X94300475Y-134454819D02*
X94205237Y-134454819D01*
X94205237Y-134454819D02*
X94109999Y-134502438D01*
X94109999Y-134502438D02*
X94062380Y-134550057D01*
X94062380Y-134550057D02*
X94014761Y-134645295D01*
X94014761Y-134645295D02*
X93967142Y-134835771D01*
X93967142Y-134835771D02*
X93967142Y-135073866D01*
X93967142Y-135073866D02*
X94014761Y-135264342D01*
X94014761Y-135264342D02*
X94062380Y-135359580D01*
X94062380Y-135359580D02*
X94109999Y-135407200D01*
X94109999Y-135407200D02*
X94205237Y-135454819D01*
X94205237Y-135454819D02*
X94300475Y-135454819D01*
X94300475Y-135454819D02*
X94395713Y-135407200D01*
X94395713Y-135407200D02*
X94443332Y-135359580D01*
X94443332Y-135359580D02*
X94490951Y-135264342D01*
X94490951Y-135264342D02*
X94538570Y-135073866D01*
X94538570Y-135073866D02*
X94538570Y-134835771D01*
X94538570Y-134835771D02*
X94490951Y-134645295D01*
X94490951Y-134645295D02*
X94443332Y-134550057D01*
X94443332Y-134550057D02*
X94395713Y-134502438D01*
X94395713Y-134502438D02*
X94300475Y-134454819D01*
X196401666Y-162474580D02*
X196449285Y-162522200D01*
X196449285Y-162522200D02*
X196592142Y-162569819D01*
X196592142Y-162569819D02*
X196687380Y-162569819D01*
X196687380Y-162569819D02*
X196830237Y-162522200D01*
X196830237Y-162522200D02*
X196925475Y-162426961D01*
X196925475Y-162426961D02*
X196973094Y-162331723D01*
X196973094Y-162331723D02*
X197020713Y-162141247D01*
X197020713Y-162141247D02*
X197020713Y-161998390D01*
X197020713Y-161998390D02*
X196973094Y-161807914D01*
X196973094Y-161807914D02*
X196925475Y-161712676D01*
X196925475Y-161712676D02*
X196830237Y-161617438D01*
X196830237Y-161617438D02*
X196687380Y-161569819D01*
X196687380Y-161569819D02*
X196592142Y-161569819D01*
X196592142Y-161569819D02*
X196449285Y-161617438D01*
X196449285Y-161617438D02*
X196401666Y-161665057D01*
X195496904Y-161569819D02*
X195973094Y-161569819D01*
X195973094Y-161569819D02*
X196020713Y-162046009D01*
X196020713Y-162046009D02*
X195973094Y-161998390D01*
X195973094Y-161998390D02*
X195877856Y-161950771D01*
X195877856Y-161950771D02*
X195639761Y-161950771D01*
X195639761Y-161950771D02*
X195544523Y-161998390D01*
X195544523Y-161998390D02*
X195496904Y-162046009D01*
X195496904Y-162046009D02*
X195449285Y-162141247D01*
X195449285Y-162141247D02*
X195449285Y-162379342D01*
X195449285Y-162379342D02*
X195496904Y-162474580D01*
X195496904Y-162474580D02*
X195544523Y-162522200D01*
X195544523Y-162522200D02*
X195639761Y-162569819D01*
X195639761Y-162569819D02*
X195877856Y-162569819D01*
X195877856Y-162569819D02*
X195973094Y-162522200D01*
X195973094Y-162522200D02*
X196020713Y-162474580D01*
X108974580Y-111312142D02*
X109022200Y-111264523D01*
X109022200Y-111264523D02*
X109069819Y-111121666D01*
X109069819Y-111121666D02*
X109069819Y-111026428D01*
X109069819Y-111026428D02*
X109022200Y-110883571D01*
X109022200Y-110883571D02*
X108926961Y-110788333D01*
X108926961Y-110788333D02*
X108831723Y-110740714D01*
X108831723Y-110740714D02*
X108641247Y-110693095D01*
X108641247Y-110693095D02*
X108498390Y-110693095D01*
X108498390Y-110693095D02*
X108307914Y-110740714D01*
X108307914Y-110740714D02*
X108212676Y-110788333D01*
X108212676Y-110788333D02*
X108117438Y-110883571D01*
X108117438Y-110883571D02*
X108069819Y-111026428D01*
X108069819Y-111026428D02*
X108069819Y-111121666D01*
X108069819Y-111121666D02*
X108117438Y-111264523D01*
X108117438Y-111264523D02*
X108165057Y-111312142D01*
X109069819Y-112264523D02*
X109069819Y-111693095D01*
X109069819Y-111978809D02*
X108069819Y-111978809D01*
X108069819Y-111978809D02*
X108212676Y-111883571D01*
X108212676Y-111883571D02*
X108307914Y-111788333D01*
X108307914Y-111788333D02*
X108355533Y-111693095D01*
X108403152Y-113121666D02*
X109069819Y-113121666D01*
X108022200Y-112883571D02*
X108736485Y-112645476D01*
X108736485Y-112645476D02*
X108736485Y-113264523D01*
X108071666Y-135644580D02*
X108119285Y-135692200D01*
X108119285Y-135692200D02*
X108262142Y-135739819D01*
X108262142Y-135739819D02*
X108357380Y-135739819D01*
X108357380Y-135739819D02*
X108500237Y-135692200D01*
X108500237Y-135692200D02*
X108595475Y-135596961D01*
X108595475Y-135596961D02*
X108643094Y-135501723D01*
X108643094Y-135501723D02*
X108690713Y-135311247D01*
X108690713Y-135311247D02*
X108690713Y-135168390D01*
X108690713Y-135168390D02*
X108643094Y-134977914D01*
X108643094Y-134977914D02*
X108595475Y-134882676D01*
X108595475Y-134882676D02*
X108500237Y-134787438D01*
X108500237Y-134787438D02*
X108357380Y-134739819D01*
X108357380Y-134739819D02*
X108262142Y-134739819D01*
X108262142Y-134739819D02*
X108119285Y-134787438D01*
X108119285Y-134787438D02*
X108071666Y-134835057D01*
X107690713Y-134835057D02*
X107643094Y-134787438D01*
X107643094Y-134787438D02*
X107547856Y-134739819D01*
X107547856Y-134739819D02*
X107309761Y-134739819D01*
X107309761Y-134739819D02*
X107214523Y-134787438D01*
X107214523Y-134787438D02*
X107166904Y-134835057D01*
X107166904Y-134835057D02*
X107119285Y-134930295D01*
X107119285Y-134930295D02*
X107119285Y-135025533D01*
X107119285Y-135025533D02*
X107166904Y-135168390D01*
X107166904Y-135168390D02*
X107738332Y-135739819D01*
X107738332Y-135739819D02*
X107119285Y-135739819D01*
X209494580Y-129272142D02*
X209542200Y-129224523D01*
X209542200Y-129224523D02*
X209589819Y-129081666D01*
X209589819Y-129081666D02*
X209589819Y-128986428D01*
X209589819Y-128986428D02*
X209542200Y-128843571D01*
X209542200Y-128843571D02*
X209446961Y-128748333D01*
X209446961Y-128748333D02*
X209351723Y-128700714D01*
X209351723Y-128700714D02*
X209161247Y-128653095D01*
X209161247Y-128653095D02*
X209018390Y-128653095D01*
X209018390Y-128653095D02*
X208827914Y-128700714D01*
X208827914Y-128700714D02*
X208732676Y-128748333D01*
X208732676Y-128748333D02*
X208637438Y-128843571D01*
X208637438Y-128843571D02*
X208589819Y-128986428D01*
X208589819Y-128986428D02*
X208589819Y-129081666D01*
X208589819Y-129081666D02*
X208637438Y-129224523D01*
X208637438Y-129224523D02*
X208685057Y-129272142D01*
X209589819Y-130224523D02*
X209589819Y-129653095D01*
X209589819Y-129938809D02*
X208589819Y-129938809D01*
X208589819Y-129938809D02*
X208732676Y-129843571D01*
X208732676Y-129843571D02*
X208827914Y-129748333D01*
X208827914Y-129748333D02*
X208875533Y-129653095D01*
X208589819Y-130843571D02*
X208589819Y-130938809D01*
X208589819Y-130938809D02*
X208637438Y-131034047D01*
X208637438Y-131034047D02*
X208685057Y-131081666D01*
X208685057Y-131081666D02*
X208780295Y-131129285D01*
X208780295Y-131129285D02*
X208970771Y-131176904D01*
X208970771Y-131176904D02*
X209208866Y-131176904D01*
X209208866Y-131176904D02*
X209399342Y-131129285D01*
X209399342Y-131129285D02*
X209494580Y-131081666D01*
X209494580Y-131081666D02*
X209542200Y-131034047D01*
X209542200Y-131034047D02*
X209589819Y-130938809D01*
X209589819Y-130938809D02*
X209589819Y-130843571D01*
X209589819Y-130843571D02*
X209542200Y-130748333D01*
X209542200Y-130748333D02*
X209494580Y-130700714D01*
X209494580Y-130700714D02*
X209399342Y-130653095D01*
X209399342Y-130653095D02*
X209208866Y-130605476D01*
X209208866Y-130605476D02*
X208970771Y-130605476D01*
X208970771Y-130605476D02*
X208780295Y-130653095D01*
X208780295Y-130653095D02*
X208685057Y-130700714D01*
X208685057Y-130700714D02*
X208637438Y-130748333D01*
X208637438Y-130748333D02*
X208589819Y-130843571D01*
X152162857Y-115759580D02*
X152210476Y-115807200D01*
X152210476Y-115807200D02*
X152353333Y-115854819D01*
X152353333Y-115854819D02*
X152448571Y-115854819D01*
X152448571Y-115854819D02*
X152591428Y-115807200D01*
X152591428Y-115807200D02*
X152686666Y-115711961D01*
X152686666Y-115711961D02*
X152734285Y-115616723D01*
X152734285Y-115616723D02*
X152781904Y-115426247D01*
X152781904Y-115426247D02*
X152781904Y-115283390D01*
X152781904Y-115283390D02*
X152734285Y-115092914D01*
X152734285Y-115092914D02*
X152686666Y-114997676D01*
X152686666Y-114997676D02*
X152591428Y-114902438D01*
X152591428Y-114902438D02*
X152448571Y-114854819D01*
X152448571Y-114854819D02*
X152353333Y-114854819D01*
X152353333Y-114854819D02*
X152210476Y-114902438D01*
X152210476Y-114902438D02*
X152162857Y-114950057D01*
X151210476Y-115854819D02*
X151781904Y-115854819D01*
X151496190Y-115854819D02*
X151496190Y-114854819D01*
X151496190Y-114854819D02*
X151591428Y-114997676D01*
X151591428Y-114997676D02*
X151686666Y-115092914D01*
X151686666Y-115092914D02*
X151781904Y-115140533D01*
X150877142Y-114854819D02*
X150258095Y-114854819D01*
X150258095Y-114854819D02*
X150591428Y-115235771D01*
X150591428Y-115235771D02*
X150448571Y-115235771D01*
X150448571Y-115235771D02*
X150353333Y-115283390D01*
X150353333Y-115283390D02*
X150305714Y-115331009D01*
X150305714Y-115331009D02*
X150258095Y-115426247D01*
X150258095Y-115426247D02*
X150258095Y-115664342D01*
X150258095Y-115664342D02*
X150305714Y-115759580D01*
X150305714Y-115759580D02*
X150353333Y-115807200D01*
X150353333Y-115807200D02*
X150448571Y-115854819D01*
X150448571Y-115854819D02*
X150734285Y-115854819D01*
X150734285Y-115854819D02*
X150829523Y-115807200D01*
X150829523Y-115807200D02*
X150877142Y-115759580D01*
X171334580Y-156578333D02*
X171382200Y-156530714D01*
X171382200Y-156530714D02*
X171429819Y-156387857D01*
X171429819Y-156387857D02*
X171429819Y-156292619D01*
X171429819Y-156292619D02*
X171382200Y-156149762D01*
X171382200Y-156149762D02*
X171286961Y-156054524D01*
X171286961Y-156054524D02*
X171191723Y-156006905D01*
X171191723Y-156006905D02*
X171001247Y-155959286D01*
X171001247Y-155959286D02*
X170858390Y-155959286D01*
X170858390Y-155959286D02*
X170667914Y-156006905D01*
X170667914Y-156006905D02*
X170572676Y-156054524D01*
X170572676Y-156054524D02*
X170477438Y-156149762D01*
X170477438Y-156149762D02*
X170429819Y-156292619D01*
X170429819Y-156292619D02*
X170429819Y-156387857D01*
X170429819Y-156387857D02*
X170477438Y-156530714D01*
X170477438Y-156530714D02*
X170525057Y-156578333D01*
X170429819Y-156911667D02*
X170429819Y-157530714D01*
X170429819Y-157530714D02*
X170810771Y-157197381D01*
X170810771Y-157197381D02*
X170810771Y-157340238D01*
X170810771Y-157340238D02*
X170858390Y-157435476D01*
X170858390Y-157435476D02*
X170906009Y-157483095D01*
X170906009Y-157483095D02*
X171001247Y-157530714D01*
X171001247Y-157530714D02*
X171239342Y-157530714D01*
X171239342Y-157530714D02*
X171334580Y-157483095D01*
X171334580Y-157483095D02*
X171382200Y-157435476D01*
X171382200Y-157435476D02*
X171429819Y-157340238D01*
X171429819Y-157340238D02*
X171429819Y-157054524D01*
X171429819Y-157054524D02*
X171382200Y-156959286D01*
X171382200Y-156959286D02*
X171334580Y-156911667D01*
X209414580Y-107808333D02*
X209462200Y-107760714D01*
X209462200Y-107760714D02*
X209509819Y-107617857D01*
X209509819Y-107617857D02*
X209509819Y-107522619D01*
X209509819Y-107522619D02*
X209462200Y-107379762D01*
X209462200Y-107379762D02*
X209366961Y-107284524D01*
X209366961Y-107284524D02*
X209271723Y-107236905D01*
X209271723Y-107236905D02*
X209081247Y-107189286D01*
X209081247Y-107189286D02*
X208938390Y-107189286D01*
X208938390Y-107189286D02*
X208747914Y-107236905D01*
X208747914Y-107236905D02*
X208652676Y-107284524D01*
X208652676Y-107284524D02*
X208557438Y-107379762D01*
X208557438Y-107379762D02*
X208509819Y-107522619D01*
X208509819Y-107522619D02*
X208509819Y-107617857D01*
X208509819Y-107617857D02*
X208557438Y-107760714D01*
X208557438Y-107760714D02*
X208605057Y-107808333D01*
X209509819Y-108284524D02*
X209509819Y-108475000D01*
X209509819Y-108475000D02*
X209462200Y-108570238D01*
X209462200Y-108570238D02*
X209414580Y-108617857D01*
X209414580Y-108617857D02*
X209271723Y-108713095D01*
X209271723Y-108713095D02*
X209081247Y-108760714D01*
X209081247Y-108760714D02*
X208700295Y-108760714D01*
X208700295Y-108760714D02*
X208605057Y-108713095D01*
X208605057Y-108713095D02*
X208557438Y-108665476D01*
X208557438Y-108665476D02*
X208509819Y-108570238D01*
X208509819Y-108570238D02*
X208509819Y-108379762D01*
X208509819Y-108379762D02*
X208557438Y-108284524D01*
X208557438Y-108284524D02*
X208605057Y-108236905D01*
X208605057Y-108236905D02*
X208700295Y-108189286D01*
X208700295Y-108189286D02*
X208938390Y-108189286D01*
X208938390Y-108189286D02*
X209033628Y-108236905D01*
X209033628Y-108236905D02*
X209081247Y-108284524D01*
X209081247Y-108284524D02*
X209128866Y-108379762D01*
X209128866Y-108379762D02*
X209128866Y-108570238D01*
X209128866Y-108570238D02*
X209081247Y-108665476D01*
X209081247Y-108665476D02*
X209033628Y-108713095D01*
X209033628Y-108713095D02*
X208938390Y-108760714D01*
X100327857Y-162534580D02*
X100375476Y-162582200D01*
X100375476Y-162582200D02*
X100518333Y-162629819D01*
X100518333Y-162629819D02*
X100613571Y-162629819D01*
X100613571Y-162629819D02*
X100756428Y-162582200D01*
X100756428Y-162582200D02*
X100851666Y-162486961D01*
X100851666Y-162486961D02*
X100899285Y-162391723D01*
X100899285Y-162391723D02*
X100946904Y-162201247D01*
X100946904Y-162201247D02*
X100946904Y-162058390D01*
X100946904Y-162058390D02*
X100899285Y-161867914D01*
X100899285Y-161867914D02*
X100851666Y-161772676D01*
X100851666Y-161772676D02*
X100756428Y-161677438D01*
X100756428Y-161677438D02*
X100613571Y-161629819D01*
X100613571Y-161629819D02*
X100518333Y-161629819D01*
X100518333Y-161629819D02*
X100375476Y-161677438D01*
X100375476Y-161677438D02*
X100327857Y-161725057D01*
X99375476Y-162629819D02*
X99946904Y-162629819D01*
X99661190Y-162629819D02*
X99661190Y-161629819D01*
X99661190Y-161629819D02*
X99756428Y-161772676D01*
X99756428Y-161772676D02*
X99851666Y-161867914D01*
X99851666Y-161867914D02*
X99946904Y-161915533D01*
X98518333Y-161629819D02*
X98708809Y-161629819D01*
X98708809Y-161629819D02*
X98804047Y-161677438D01*
X98804047Y-161677438D02*
X98851666Y-161725057D01*
X98851666Y-161725057D02*
X98946904Y-161867914D01*
X98946904Y-161867914D02*
X98994523Y-162058390D01*
X98994523Y-162058390D02*
X98994523Y-162439342D01*
X98994523Y-162439342D02*
X98946904Y-162534580D01*
X98946904Y-162534580D02*
X98899285Y-162582200D01*
X98899285Y-162582200D02*
X98804047Y-162629819D01*
X98804047Y-162629819D02*
X98613571Y-162629819D01*
X98613571Y-162629819D02*
X98518333Y-162582200D01*
X98518333Y-162582200D02*
X98470714Y-162534580D01*
X98470714Y-162534580D02*
X98423095Y-162439342D01*
X98423095Y-162439342D02*
X98423095Y-162201247D01*
X98423095Y-162201247D02*
X98470714Y-162106009D01*
X98470714Y-162106009D02*
X98518333Y-162058390D01*
X98518333Y-162058390D02*
X98613571Y-162010771D01*
X98613571Y-162010771D02*
X98804047Y-162010771D01*
X98804047Y-162010771D02*
X98899285Y-162058390D01*
X98899285Y-162058390D02*
X98946904Y-162106009D01*
X98946904Y-162106009D02*
X98994523Y-162201247D01*
X83919819Y-156690476D02*
X84634104Y-156690476D01*
X84634104Y-156690476D02*
X84776961Y-156642857D01*
X84776961Y-156642857D02*
X84872200Y-156547619D01*
X84872200Y-156547619D02*
X84919819Y-156404762D01*
X84919819Y-156404762D02*
X84919819Y-156309524D01*
X84919819Y-157690476D02*
X84919819Y-157119048D01*
X84919819Y-157404762D02*
X83919819Y-157404762D01*
X83919819Y-157404762D02*
X84062676Y-157309524D01*
X84062676Y-157309524D02*
X84157914Y-157214286D01*
X84157914Y-157214286D02*
X84205533Y-157119048D01*
X84919819Y-158642857D02*
X84919819Y-158071429D01*
X84919819Y-158357143D02*
X83919819Y-158357143D01*
X83919819Y-158357143D02*
X84062676Y-158261905D01*
X84062676Y-158261905D02*
X84157914Y-158166667D01*
X84157914Y-158166667D02*
X84205533Y-158071429D01*
X152162857Y-122029580D02*
X152210476Y-122077200D01*
X152210476Y-122077200D02*
X152353333Y-122124819D01*
X152353333Y-122124819D02*
X152448571Y-122124819D01*
X152448571Y-122124819D02*
X152591428Y-122077200D01*
X152591428Y-122077200D02*
X152686666Y-121981961D01*
X152686666Y-121981961D02*
X152734285Y-121886723D01*
X152734285Y-121886723D02*
X152781904Y-121696247D01*
X152781904Y-121696247D02*
X152781904Y-121553390D01*
X152781904Y-121553390D02*
X152734285Y-121362914D01*
X152734285Y-121362914D02*
X152686666Y-121267676D01*
X152686666Y-121267676D02*
X152591428Y-121172438D01*
X152591428Y-121172438D02*
X152448571Y-121124819D01*
X152448571Y-121124819D02*
X152353333Y-121124819D01*
X152353333Y-121124819D02*
X152210476Y-121172438D01*
X152210476Y-121172438D02*
X152162857Y-121220057D01*
X151210476Y-122124819D02*
X151781904Y-122124819D01*
X151496190Y-122124819D02*
X151496190Y-121124819D01*
X151496190Y-121124819D02*
X151591428Y-121267676D01*
X151591428Y-121267676D02*
X151686666Y-121362914D01*
X151686666Y-121362914D02*
X151781904Y-121410533D01*
X150258095Y-122124819D02*
X150829523Y-122124819D01*
X150543809Y-122124819D02*
X150543809Y-121124819D01*
X150543809Y-121124819D02*
X150639047Y-121267676D01*
X150639047Y-121267676D02*
X150734285Y-121362914D01*
X150734285Y-121362914D02*
X150829523Y-121410533D01*
X152162857Y-140979580D02*
X152210476Y-141027200D01*
X152210476Y-141027200D02*
X152353333Y-141074819D01*
X152353333Y-141074819D02*
X152448571Y-141074819D01*
X152448571Y-141074819D02*
X152591428Y-141027200D01*
X152591428Y-141027200D02*
X152686666Y-140931961D01*
X152686666Y-140931961D02*
X152734285Y-140836723D01*
X152734285Y-140836723D02*
X152781904Y-140646247D01*
X152781904Y-140646247D02*
X152781904Y-140503390D01*
X152781904Y-140503390D02*
X152734285Y-140312914D01*
X152734285Y-140312914D02*
X152686666Y-140217676D01*
X152686666Y-140217676D02*
X152591428Y-140122438D01*
X152591428Y-140122438D02*
X152448571Y-140074819D01*
X152448571Y-140074819D02*
X152353333Y-140074819D01*
X152353333Y-140074819D02*
X152210476Y-140122438D01*
X152210476Y-140122438D02*
X152162857Y-140170057D01*
X151210476Y-141074819D02*
X151781904Y-141074819D01*
X151496190Y-141074819D02*
X151496190Y-140074819D01*
X151496190Y-140074819D02*
X151591428Y-140217676D01*
X151591428Y-140217676D02*
X151686666Y-140312914D01*
X151686666Y-140312914D02*
X151781904Y-140360533D01*
X150829523Y-140170057D02*
X150781904Y-140122438D01*
X150781904Y-140122438D02*
X150686666Y-140074819D01*
X150686666Y-140074819D02*
X150448571Y-140074819D01*
X150448571Y-140074819D02*
X150353333Y-140122438D01*
X150353333Y-140122438D02*
X150305714Y-140170057D01*
X150305714Y-140170057D02*
X150258095Y-140265295D01*
X150258095Y-140265295D02*
X150258095Y-140360533D01*
X150258095Y-140360533D02*
X150305714Y-140503390D01*
X150305714Y-140503390D02*
X150877142Y-141074819D01*
X150877142Y-141074819D02*
X150258095Y-141074819D01*
X83999819Y-140645476D02*
X84714104Y-140645476D01*
X84714104Y-140645476D02*
X84856961Y-140597857D01*
X84856961Y-140597857D02*
X84952200Y-140502619D01*
X84952200Y-140502619D02*
X84999819Y-140359762D01*
X84999819Y-140359762D02*
X84999819Y-140264524D01*
X84999819Y-141645476D02*
X84999819Y-141074048D01*
X84999819Y-141359762D02*
X83999819Y-141359762D01*
X83999819Y-141359762D02*
X84142676Y-141264524D01*
X84142676Y-141264524D02*
X84237914Y-141169286D01*
X84237914Y-141169286D02*
X84285533Y-141074048D01*
X84095057Y-142026429D02*
X84047438Y-142074048D01*
X84047438Y-142074048D02*
X83999819Y-142169286D01*
X83999819Y-142169286D02*
X83999819Y-142407381D01*
X83999819Y-142407381D02*
X84047438Y-142502619D01*
X84047438Y-142502619D02*
X84095057Y-142550238D01*
X84095057Y-142550238D02*
X84190295Y-142597857D01*
X84190295Y-142597857D02*
X84285533Y-142597857D01*
X84285533Y-142597857D02*
X84428390Y-142550238D01*
X84428390Y-142550238D02*
X84999819Y-141978810D01*
X84999819Y-141978810D02*
X84999819Y-142597857D01*
X173621666Y-122029580D02*
X173669285Y-122077200D01*
X173669285Y-122077200D02*
X173812142Y-122124819D01*
X173812142Y-122124819D02*
X173907380Y-122124819D01*
X173907380Y-122124819D02*
X174050237Y-122077200D01*
X174050237Y-122077200D02*
X174145475Y-121981961D01*
X174145475Y-121981961D02*
X174193094Y-121886723D01*
X174193094Y-121886723D02*
X174240713Y-121696247D01*
X174240713Y-121696247D02*
X174240713Y-121553390D01*
X174240713Y-121553390D02*
X174193094Y-121362914D01*
X174193094Y-121362914D02*
X174145475Y-121267676D01*
X174145475Y-121267676D02*
X174050237Y-121172438D01*
X174050237Y-121172438D02*
X173907380Y-121124819D01*
X173907380Y-121124819D02*
X173812142Y-121124819D01*
X173812142Y-121124819D02*
X173669285Y-121172438D01*
X173669285Y-121172438D02*
X173621666Y-121220057D01*
X173288332Y-121124819D02*
X172621666Y-121124819D01*
X172621666Y-121124819D02*
X173050237Y-122124819D01*
D11*
%TO.C,C6*%
X173716252Y-112860000D02*
X173193748Y-112860000D01*
X173716252Y-114330000D02*
X173193748Y-114330000D01*
%TO.C,J9*%
X93780000Y-109300000D02*
X96440000Y-109300000D01*
X93780000Y-132220000D02*
X93780000Y-109300000D01*
X93780000Y-132220000D02*
X96440000Y-132220000D01*
X95110000Y-106700000D02*
X96440000Y-106700000D01*
X96440000Y-106700000D02*
X96440000Y-108030000D01*
X96440000Y-132220000D02*
X96440000Y-109300000D01*
%TO.C,C4*%
X157280000Y-159413748D02*
X157280000Y-159936252D01*
X158750000Y-159413748D02*
X158750000Y-159936252D01*
%TO.C,C15*%
X109316252Y-147780000D02*
X108793748Y-147780000D01*
X109316252Y-149250000D02*
X108793748Y-149250000D01*
%TO.C,C8*%
X173716252Y-138260000D02*
X173193748Y-138260000D01*
X173716252Y-139730000D02*
X173193748Y-139730000D01*
%TO.C,J10*%
X93780000Y-138600000D02*
X96440000Y-138600000D01*
X93780000Y-161520000D02*
X93780000Y-138600000D01*
X93780000Y-161520000D02*
X96440000Y-161520000D01*
X95110000Y-136000000D02*
X96440000Y-136000000D01*
X96440000Y-136000000D02*
X96440000Y-137330000D01*
X96440000Y-161520000D02*
X96440000Y-138600000D01*
%TO.C,C5*%
X199386252Y-161370000D02*
X198863748Y-161370000D01*
X199386252Y-162840000D02*
X198863748Y-162840000D01*
%TO.C,C14*%
X107930000Y-108616252D02*
X107930000Y-108093748D01*
X109400000Y-108616252D02*
X109400000Y-108093748D01*
%TO.C,C2*%
X108166252Y-132870000D02*
X107643748Y-132870000D01*
X108166252Y-134340000D02*
X107643748Y-134340000D01*
%TO.C,C10*%
X208360000Y-133656252D02*
X208360000Y-133133748D01*
X209830000Y-133656252D02*
X209830000Y-133133748D01*
%TO.C,C13*%
X151781252Y-112875000D02*
X151258748Y-112875000D01*
X151781252Y-114345000D02*
X151258748Y-114345000D01*
%TO.C,C3*%
X170310000Y-159413748D02*
X170310000Y-159936252D01*
X171780000Y-159413748D02*
X171780000Y-159936252D01*
%TO.C,C9*%
X208310000Y-111376252D02*
X208310000Y-110853748D01*
X209780000Y-111376252D02*
X209780000Y-110853748D01*
%TO.C,C16*%
X102793748Y-161530000D02*
X103316252Y-161530000D01*
X102793748Y-163000000D02*
X103316252Y-163000000D01*
%TO.C,J11*%
X75555000Y-150440000D02*
X75555000Y-164560000D01*
X75555000Y-153000000D02*
X79915000Y-153000000D01*
X75555000Y-162800000D02*
X77815000Y-162800000D01*
X75555000Y-163300000D02*
X77815000Y-163300000D01*
X75555000Y-164560000D02*
X83375000Y-164560000D01*
X77815000Y-151200000D02*
X79415000Y-151200000D01*
X77815000Y-152200000D02*
X77815000Y-151200000D01*
X77815000Y-162800000D02*
X77815000Y-163800000D01*
X77815000Y-163800000D02*
X79415000Y-163800000D01*
X79415000Y-151200000D02*
X79415000Y-152200000D01*
X79415000Y-152200000D02*
X77815000Y-152200000D01*
X79415000Y-162800000D02*
X77815000Y-162800000D01*
X79415000Y-163800000D02*
X79415000Y-162800000D01*
X79915000Y-153000000D02*
X79915000Y-162000000D01*
X79915000Y-162000000D02*
X75555000Y-162000000D01*
X81775000Y-151360000D02*
X81775000Y-150440000D01*
X81775000Y-151360000D02*
X83375000Y-151360000D01*
X81775000Y-151640000D02*
X81775000Y-151360000D01*
X81775000Y-163640000D02*
X81775000Y-163360000D01*
X81775000Y-163640000D02*
X81775000Y-164560000D01*
X82990000Y-163360000D02*
X81775000Y-163360000D01*
X83375000Y-150440000D02*
X75555000Y-150440000D01*
X83375000Y-151360000D02*
X83375000Y-150440000D01*
X83375000Y-163640000D02*
X81775000Y-163640000D01*
X83375000Y-164560000D02*
X83375000Y-163640000D01*
%TO.C,C11*%
X151781252Y-119255000D02*
X151258748Y-119255000D01*
X151781252Y-120725000D02*
X151258748Y-120725000D01*
%TO.C,C12*%
X151781252Y-138205000D02*
X151258748Y-138205000D01*
X151781252Y-139675000D02*
X151258748Y-139675000D01*
%TO.C,J12*%
X75635000Y-134395000D02*
X75635000Y-148515000D01*
X75635000Y-136955000D02*
X79995000Y-136955000D01*
X75635000Y-146755000D02*
X77895000Y-146755000D01*
X75635000Y-147255000D02*
X77895000Y-147255000D01*
X75635000Y-148515000D02*
X83455000Y-148515000D01*
X77895000Y-135155000D02*
X79495000Y-135155000D01*
X77895000Y-136155000D02*
X77895000Y-135155000D01*
X77895000Y-146755000D02*
X77895000Y-147755000D01*
X77895000Y-147755000D02*
X79495000Y-147755000D01*
X79495000Y-135155000D02*
X79495000Y-136155000D01*
X79495000Y-136155000D02*
X77895000Y-136155000D01*
X79495000Y-146755000D02*
X77895000Y-146755000D01*
X79495000Y-147755000D02*
X79495000Y-146755000D01*
X79995000Y-136955000D02*
X79995000Y-145955000D01*
X79995000Y-145955000D02*
X75635000Y-145955000D01*
X81855000Y-135315000D02*
X81855000Y-134395000D01*
X81855000Y-135315000D02*
X83455000Y-135315000D01*
X81855000Y-135595000D02*
X81855000Y-135315000D01*
X81855000Y-147595000D02*
X81855000Y-147315000D01*
X81855000Y-147595000D02*
X81855000Y-148515000D01*
X83070000Y-147315000D02*
X81855000Y-147315000D01*
X83455000Y-134395000D02*
X75635000Y-134395000D01*
X83455000Y-135315000D02*
X83455000Y-134395000D01*
X83455000Y-147595000D02*
X81855000Y-147595000D01*
X83455000Y-148515000D02*
X83455000Y-147595000D01*
%TO.C,C7*%
X173716252Y-119255000D02*
X173193748Y-119255000D01*
X173716252Y-120725000D02*
X173193748Y-120725000D01*
%TD*%
M02*
