%TF.GenerationSoftware,KiCad,Pcbnew,8.0.5*%
%TF.CreationDate,2024-11-24T09:32:07-04:00*%
%TF.ProjectId,RAMEXB_V21_Github,52414d45-5842-45f5-9632-315f47697468,rev?*%
%TF.SameCoordinates,Original*%
%TF.FileFunction,Drillmap*%
%TF.FilePolarity,Positive*%
%FSLAX45Y45*%
G04 Gerber Fmt 4.5, Leading zero omitted, Abs format (unit mm)*
G04 Created by KiCad (PCBNEW 8.0.5) date 2024-11-24 09:32:07*
%MOMM*%
%LPD*%
G01*
G04 APERTURE LIST*
%ADD10C,0.150000*%
%ADD11C,0.200000*%
%ADD12C,0.100000*%
G04 APERTURE END LIST*
D10*
X16550000Y-5500000D02*
X15750000Y-6300000D01*
X21439289Y-15270711D02*
G75*
G02*
X21368579Y-15299999I-70709J70711D01*
G01*
X24620711Y-15129289D02*
X24479289Y-15270711D01*
X24650000Y-15058579D02*
X24650000Y-1598000D01*
X24479289Y-15270711D02*
G75*
G02*
X24408579Y-15299999I-70709J70711D01*
G01*
X18200000Y-5500000D02*
X16550000Y-5500000D01*
X15750000Y-14630000D02*
X15750000Y-15158579D01*
X21368579Y-15300000D02*
X15891421Y-15300000D01*
X18600000Y-2298000D02*
X18600000Y-5100000D01*
X24650000Y-1598000D02*
X24550000Y-1498000D01*
X23831421Y-15300000D02*
G75*
G02*
X23760710Y-15270711I-1J100000D01*
G01*
X15750000Y-14630000D02*
X15450000Y-14630000D01*
X15891421Y-15300000D02*
G75*
G02*
X15820712Y-15270709I-1J99990D01*
G01*
X15750000Y-11729000D02*
X15450000Y-11729000D01*
X15779289Y-15229289D02*
X15820711Y-15270711D01*
X23639289Y-15149289D02*
G75*
G02*
X23610004Y-15078579I70721J70709D01*
G01*
X23510000Y-13880000D02*
G75*
G02*
X23610000Y-13980000I0J-100000D01*
G01*
X21540000Y-13980000D02*
X21540000Y-15128579D01*
X15450000Y-11729000D02*
X15350000Y-11829000D01*
X15450000Y-14630000D02*
X15350000Y-14530000D01*
X15350000Y-14530000D02*
X15350000Y-11829000D01*
X24650000Y-15058579D02*
G75*
G02*
X24620711Y-15129290I-100000J-1D01*
G01*
X21540000Y-13980000D02*
G75*
G02*
X21640000Y-13880000I100000J0D01*
G01*
X21540000Y-15128579D02*
G75*
G02*
X21510711Y-15199290I-100000J-1D01*
G01*
X24550000Y-1498000D02*
X19400000Y-1499000D01*
X15779289Y-15229289D02*
G75*
G02*
X15750001Y-15158579I70711J70709D01*
G01*
X23510000Y-13880000D02*
X21640000Y-13880000D01*
X21510711Y-15199289D02*
X21439289Y-15270711D01*
X18200000Y-5500000D02*
X18600000Y-5100000D01*
X24408579Y-15300000D02*
X23831421Y-15300000D01*
X15750000Y-11729000D02*
X15750000Y-9550000D01*
X23760711Y-15270711D02*
X23639289Y-15149289D01*
X15750000Y-9550000D02*
X15750000Y-6300000D01*
X23610000Y-15078579D02*
X23610000Y-13980000D01*
X18600000Y-2298000D02*
X19400000Y-1499000D01*
D11*
D12*
X16083000Y-11190000D02*
X16103000Y-11210000D01*
X16103000Y-11190000D02*
X16083000Y-11210000D01*
X16146000Y-11511000D02*
X16166000Y-11531000D01*
X16166000Y-11511000D02*
X16146000Y-11531000D01*
X16181000Y-13247000D02*
X16201000Y-13267000D01*
X16201000Y-13247000D02*
X16181000Y-13267000D01*
X16242000Y-10674000D02*
X16262000Y-10694000D01*
X16262000Y-10674000D02*
X16242000Y-10694000D01*
X16272600Y-12977400D02*
X16292600Y-12997400D01*
X16292600Y-12977400D02*
X16272600Y-12997400D01*
X16300500Y-11282500D02*
X16320500Y-11302500D01*
X16320500Y-11282500D02*
X16300500Y-11302500D01*
X16373000Y-10371000D02*
X16393000Y-10391000D01*
X16393000Y-10371000D02*
X16373000Y-10391000D01*
X16501000Y-6681000D02*
X16521000Y-6701000D01*
X16521000Y-6681000D02*
X16501000Y-6701000D01*
X16566000Y-10816000D02*
X16586000Y-10836000D01*
X16586000Y-10816000D02*
X16566000Y-10836000D01*
X16736000Y-6559000D02*
X16756000Y-6579000D01*
X16756000Y-6559000D02*
X16736000Y-6579000D01*
X16911800Y-7595320D02*
X16931800Y-7615320D01*
X16931800Y-7595320D02*
X16911800Y-7615320D01*
X17212500Y-11323500D02*
X17232500Y-11343500D01*
X17232500Y-11323500D02*
X17212500Y-11343500D01*
X17245000Y-9682000D02*
X17265000Y-9702000D01*
X17265000Y-9682000D02*
X17245000Y-9702000D01*
X17285500Y-10987500D02*
X17305500Y-11007500D01*
X17305500Y-10987500D02*
X17285500Y-11007500D01*
X17383200Y-6714820D02*
X17403200Y-6734820D01*
X17403200Y-6714820D02*
X17383200Y-6734820D01*
X17438000Y-13425000D02*
X17458000Y-13445000D01*
X17458000Y-13425000D02*
X17438000Y-13445000D01*
X17458300Y-6980860D02*
X17478300Y-7000860D01*
X17478300Y-6980860D02*
X17458300Y-7000860D01*
X17462000Y-6815000D02*
X17482000Y-6835000D01*
X17482000Y-6815000D02*
X17462000Y-6835000D01*
X17507000Y-11302000D02*
X17527000Y-11322000D01*
X17527000Y-11302000D02*
X17507000Y-11322000D01*
X17524000Y-12868500D02*
X17544000Y-12888500D01*
X17544000Y-12868500D02*
X17524000Y-12888500D01*
X17541800Y-7094110D02*
X17561800Y-7114110D01*
X17561800Y-7094110D02*
X17541800Y-7114110D01*
X17542300Y-7185360D02*
X17562300Y-7205360D01*
X17562300Y-7185360D02*
X17542300Y-7205360D01*
X17840000Y-13840000D02*
X17860000Y-13860000D01*
X17860000Y-13840000D02*
X17840000Y-13860000D01*
X17859000Y-7315000D02*
X17879000Y-7335000D01*
X17879000Y-7315000D02*
X17859000Y-7335000D01*
X17922500Y-6761150D02*
X17942500Y-6781150D01*
X17942500Y-6761150D02*
X17922500Y-6781150D01*
X18028000Y-9708000D02*
X18048000Y-9728000D01*
X18048000Y-9708000D02*
X18028000Y-9728000D01*
X18289000Y-14350500D02*
X18309000Y-14370500D01*
X18309000Y-14350500D02*
X18289000Y-14370500D01*
X18289500Y-14477500D02*
X18309500Y-14497500D01*
X18309500Y-14477500D02*
X18289500Y-14497500D01*
X18667000Y-6510000D02*
X18687000Y-6530000D01*
X18687000Y-6510000D02*
X18667000Y-6530000D01*
X18677000Y-6024000D02*
X18697000Y-6044000D01*
X18697000Y-6024000D02*
X18677000Y-6044000D01*
X18730000Y-7965000D02*
X18750000Y-7985000D01*
X18750000Y-7965000D02*
X18730000Y-7985000D01*
X18771000Y-2952000D02*
X18791000Y-2972000D01*
X18791000Y-2952000D02*
X18771000Y-2972000D01*
X18778000Y-4209000D02*
X18798000Y-4229000D01*
X18798000Y-4209000D02*
X18778000Y-4229000D01*
X18789000Y-8705000D02*
X18809000Y-8725000D01*
X18809000Y-8705000D02*
X18789000Y-8725000D01*
X18793000Y-14604500D02*
X18813000Y-14624500D01*
X18813000Y-14604500D02*
X18793000Y-14624500D01*
X18821000Y-14730000D02*
X18841000Y-14750000D01*
X18841000Y-14730000D02*
X18821000Y-14750000D01*
X18823000Y-5818000D02*
X18843000Y-5838000D01*
X18843000Y-5818000D02*
X18823000Y-5838000D01*
X18830000Y-3166000D02*
X18850000Y-3186000D01*
X18850000Y-3166000D02*
X18830000Y-3186000D01*
X18843000Y-7617000D02*
X18863000Y-7637000D01*
X18863000Y-7617000D02*
X18843000Y-7637000D01*
X18877000Y-2863000D02*
X18897000Y-2883000D01*
X18897000Y-2863000D02*
X18877000Y-2883000D01*
X18879088Y-3017088D02*
X18899088Y-3037088D01*
X18899088Y-3017088D02*
X18879088Y-3037088D01*
X18939000Y-4116000D02*
X18959000Y-4136000D01*
X18959000Y-4116000D02*
X18939000Y-4136000D01*
X18957000Y-2784000D02*
X18977000Y-2804000D01*
X18977000Y-2784000D02*
X18957000Y-2804000D01*
X18971500Y-6539000D02*
X18991500Y-6559000D01*
X18991500Y-6539000D02*
X18971500Y-6559000D01*
X19018000Y-8692000D02*
X19038000Y-8712000D01*
X19038000Y-8692000D02*
X19018000Y-8712000D01*
X19057000Y-5974000D02*
X19077000Y-5994000D01*
X19077000Y-5974000D02*
X19057000Y-5994000D01*
X19076000Y-3439000D02*
X19096000Y-3459000D01*
X19096000Y-3439000D02*
X19076000Y-3459000D01*
X19179000Y-3920000D02*
X19199000Y-3940000D01*
X19199000Y-3920000D02*
X19179000Y-3940000D01*
X19262000Y-4777000D02*
X19282000Y-4797000D01*
X19282000Y-4777000D02*
X19262000Y-4797000D01*
X19276000Y-13283000D02*
X19296000Y-13303000D01*
X19296000Y-13283000D02*
X19276000Y-13303000D01*
X19369000Y-12826000D02*
X19389000Y-12846000D01*
X19389000Y-12826000D02*
X19369000Y-12846000D01*
X19376500Y-4913000D02*
X19396500Y-4933000D01*
X19396500Y-4913000D02*
X19376500Y-4933000D01*
X19380000Y-12700000D02*
X19400000Y-12720000D01*
X19400000Y-12700000D02*
X19380000Y-12720000D01*
X19383400Y-13971000D02*
X19403400Y-13991000D01*
X19403400Y-13971000D02*
X19383400Y-13991000D01*
X19426000Y-1589000D02*
X19446000Y-1609000D01*
X19446000Y-1589000D02*
X19426000Y-1609000D01*
X19475000Y-5239000D02*
X19495000Y-5259000D01*
X19495000Y-5239000D02*
X19475000Y-5259000D01*
X19479000Y-2408000D02*
X19499000Y-2428000D01*
X19499000Y-2408000D02*
X19479000Y-2428000D01*
X19555000Y-8572000D02*
X19575000Y-8592000D01*
X19575000Y-8572000D02*
X19555000Y-8592000D01*
X19566000Y-3821000D02*
X19586000Y-3841000D01*
X19586000Y-3821000D02*
X19566000Y-3841000D01*
X19598000Y-6502000D02*
X19618000Y-6522000D01*
X19618000Y-6502000D02*
X19598000Y-6522000D01*
X19612000Y-2326000D02*
X19632000Y-2346000D01*
X19632000Y-2326000D02*
X19612000Y-2346000D01*
X19623000Y-5250000D02*
X19643000Y-5270000D01*
X19643000Y-5250000D02*
X19623000Y-5270000D01*
X19626000Y-5350000D02*
X19646000Y-5370000D01*
X19646000Y-5350000D02*
X19626000Y-5370000D01*
X19760000Y-9977500D02*
X19780000Y-9997500D01*
X19780000Y-9977500D02*
X19760000Y-9997500D01*
X19764588Y-5303588D02*
X19784588Y-5323588D01*
X19784588Y-5303588D02*
X19764588Y-5323588D01*
X19775824Y-4108719D02*
X19795824Y-4128719D01*
X19795824Y-4108719D02*
X19775824Y-4128719D01*
X19837000Y-9789000D02*
X19857000Y-9809000D01*
X19857000Y-9789000D02*
X19837000Y-9809000D01*
X19840000Y-8310130D02*
X19860000Y-8330130D01*
X19860000Y-8310130D02*
X19840000Y-8330130D01*
X19856000Y-3820000D02*
X19876000Y-3840000D01*
X19876000Y-3820000D02*
X19856000Y-3840000D01*
X19859000Y-13038000D02*
X19879000Y-13058000D01*
X19879000Y-13038000D02*
X19859000Y-13058000D01*
X19864000Y-4773000D02*
X19884000Y-4793000D01*
X19884000Y-4773000D02*
X19864000Y-4793000D01*
X19874000Y-4949000D02*
X19894000Y-4969000D01*
X19894000Y-4949000D02*
X19874000Y-4969000D01*
X19879000Y-13358000D02*
X19899000Y-13378000D01*
X19899000Y-13358000D02*
X19879000Y-13378000D01*
X19892000Y-12825000D02*
X19912000Y-12845000D01*
X19912000Y-12825000D02*
X19892000Y-12845000D01*
X19893000Y-12572000D02*
X19913000Y-12592000D01*
X19913000Y-12572000D02*
X19893000Y-12592000D01*
X19900500Y-5069000D02*
X19920500Y-5089000D01*
X19920500Y-5069000D02*
X19900500Y-5089000D01*
X19901000Y-5165000D02*
X19921000Y-5185000D01*
X19921000Y-5165000D02*
X19901000Y-5185000D01*
X19920000Y-2075000D02*
X19940000Y-2095000D01*
X19940000Y-2075000D02*
X19920000Y-2095000D01*
X20089000Y-9146000D02*
X20109000Y-9166000D01*
X20109000Y-9146000D02*
X20089000Y-9166000D01*
X20168000Y-4701000D02*
X20188000Y-4721000D01*
X20188000Y-4701000D02*
X20168000Y-4721000D01*
X20168000Y-4923900D02*
X20188000Y-4943900D01*
X20188000Y-4923900D02*
X20168000Y-4943900D01*
X20168000Y-5366000D02*
X20188000Y-5386000D01*
X20188000Y-5366000D02*
X20168000Y-5386000D01*
X20229000Y-14046000D02*
X20249000Y-14066000D01*
X20249000Y-14046000D02*
X20229000Y-14066000D01*
X20249000Y-2040500D02*
X20269000Y-2060500D01*
X20269000Y-2040500D02*
X20249000Y-2060500D01*
X20272039Y-2791937D02*
X20292039Y-2811937D01*
X20292039Y-2791937D02*
X20272039Y-2811937D01*
X20279600Y-6243410D02*
X20299600Y-6263410D01*
X20299600Y-6243410D02*
X20279600Y-6263410D01*
X20364000Y-6786000D02*
X20384000Y-6806000D01*
X20384000Y-6786000D02*
X20364000Y-6806000D01*
X20372000Y-6551000D02*
X20392000Y-6571000D01*
X20392000Y-6551000D02*
X20372000Y-6571000D01*
X20530000Y-8611890D02*
X20550000Y-8631890D01*
X20550000Y-8611890D02*
X20530000Y-8631890D01*
X20603800Y-4702200D02*
X20623800Y-4722200D01*
X20623800Y-4702200D02*
X20603800Y-4722200D01*
X20603800Y-4923900D02*
X20623800Y-4943900D01*
X20623800Y-4923900D02*
X20603800Y-4943900D01*
X20603800Y-5145600D02*
X20623800Y-5165600D01*
X20623800Y-5145600D02*
X20603800Y-5165600D01*
X20603800Y-5367300D02*
X20623800Y-5387300D01*
X20623800Y-5367300D02*
X20603800Y-5387300D01*
X20603800Y-5589000D02*
X20623800Y-5609000D01*
X20623800Y-5589000D02*
X20603800Y-5609000D01*
X20610000Y-1589000D02*
X20630000Y-1609000D01*
X20630000Y-1589000D02*
X20610000Y-1609000D01*
X20647500Y-8419000D02*
X20667500Y-8439000D01*
X20667500Y-8419000D02*
X20647500Y-8439000D01*
X20657000Y-10091000D02*
X20677000Y-10111000D01*
X20677000Y-10091000D02*
X20657000Y-10111000D01*
X20669000Y-9301000D02*
X20689000Y-9321000D01*
X20689000Y-9301000D02*
X20669000Y-9321000D01*
X20671000Y-9150000D02*
X20691000Y-9170000D01*
X20691000Y-9150000D02*
X20671000Y-9170000D01*
X20720500Y-7190500D02*
X20740500Y-7210500D01*
X20740500Y-7190500D02*
X20720500Y-7210500D01*
X20745000Y-6895000D02*
X20765000Y-6915000D01*
X20765000Y-6895000D02*
X20745000Y-6915000D01*
X20838000Y-9640000D02*
X20858000Y-9660000D01*
X20858000Y-9640000D02*
X20838000Y-9660000D01*
X21027000Y-7754500D02*
X21047000Y-7774500D01*
X21047000Y-7754500D02*
X21027000Y-7774500D01*
X21135000Y-9614000D02*
X21155000Y-9634000D01*
X21155000Y-9614000D02*
X21135000Y-9634000D01*
X21140000Y-6700000D02*
X21160000Y-6720000D01*
X21160000Y-6700000D02*
X21140000Y-6720000D01*
X21141000Y-10300000D02*
X21161000Y-10320000D01*
X21161000Y-10300000D02*
X21141000Y-10320000D01*
X21226000Y-3676000D02*
X21246000Y-3696000D01*
X21246000Y-3676000D02*
X21226000Y-3696000D01*
X21226000Y-4398667D02*
X21246000Y-4418667D01*
X21246000Y-4398667D02*
X21226000Y-4418667D01*
X21226000Y-5121333D02*
X21246000Y-5141333D01*
X21246000Y-5121333D02*
X21226000Y-5141333D01*
X21226000Y-5844000D02*
X21246000Y-5864000D01*
X21246000Y-5844000D02*
X21226000Y-5864000D01*
X21250000Y-7270000D02*
X21270000Y-7290000D01*
X21270000Y-7270000D02*
X21250000Y-7290000D01*
X21283600Y-7444600D02*
X21303600Y-7464600D01*
X21303600Y-7444600D02*
X21283600Y-7464600D01*
X21300000Y-7160000D02*
X21320000Y-7180000D01*
X21320000Y-7160000D02*
X21300000Y-7180000D01*
X21310000Y-7060000D02*
X21330000Y-7080000D01*
X21330000Y-7060000D02*
X21310000Y-7080000D01*
X21571000Y-12464000D02*
X21591000Y-12484000D01*
X21591000Y-12464000D02*
X21571000Y-12484000D01*
X21630000Y-6940000D02*
X21650000Y-6960000D01*
X21650000Y-6940000D02*
X21630000Y-6960000D01*
X21640000Y-6700000D02*
X21660000Y-6720000D01*
X21660000Y-6700000D02*
X21640000Y-6720000D01*
X21659300Y-6557500D02*
X21679300Y-6577500D01*
X21679300Y-6557500D02*
X21659300Y-6577500D01*
X21794000Y-1589000D02*
X21814000Y-1609000D01*
X21814000Y-1589000D02*
X21794000Y-1609000D01*
X22046000Y-6046000D02*
X22066000Y-6066000D01*
X22066000Y-6046000D02*
X22046000Y-6066000D01*
X22110000Y-8490000D02*
X22130000Y-8510000D01*
X22130000Y-8490000D02*
X22110000Y-8510000D01*
X22214000Y-6227500D02*
X22234000Y-6247500D01*
X22234000Y-6227500D02*
X22214000Y-6247500D01*
X22300000Y-7837500D02*
X22320000Y-7857500D01*
X22320000Y-7837500D02*
X22300000Y-7857500D01*
X22318800Y-7731160D02*
X22338800Y-7751160D01*
X22338800Y-7731160D02*
X22318800Y-7751160D01*
X22425000Y-7632720D02*
X22445000Y-7652720D01*
X22445000Y-7632720D02*
X22425000Y-7652720D01*
X22426900Y-7784090D02*
X22446900Y-7804090D01*
X22446900Y-7784090D02*
X22426900Y-7804090D01*
X22555000Y-6257500D02*
X22575000Y-6277500D01*
X22575000Y-6257500D02*
X22555000Y-6277500D01*
X22678300Y-7640000D02*
X22698300Y-7660000D01*
X22698300Y-7640000D02*
X22678300Y-7660000D01*
X22683000Y-9147000D02*
X22703000Y-9167000D01*
X22703000Y-9147000D02*
X22683000Y-9167000D01*
X22745500Y-7628000D02*
X22765500Y-7648000D01*
X22765500Y-7628000D02*
X22745500Y-7648000D01*
X22797100Y-6228720D02*
X22817100Y-6248720D01*
X22817100Y-6228720D02*
X22797100Y-6248720D01*
X22812000Y-9108000D02*
X22832000Y-9128000D01*
X22832000Y-9108000D02*
X22812000Y-9128000D01*
X22869500Y-8280460D02*
X22889500Y-8300460D01*
X22889500Y-8280460D02*
X22869500Y-8300460D01*
X22872800Y-7767500D02*
X22892800Y-7787500D01*
X22892800Y-7767500D02*
X22872800Y-7787500D01*
X22888600Y-6271440D02*
X22908600Y-6291440D01*
X22908600Y-6271440D02*
X22888600Y-6291440D01*
X22930000Y-6790000D02*
X22950000Y-6810000D01*
X22950000Y-6790000D02*
X22930000Y-6810000D01*
X22936100Y-6111410D02*
X22956100Y-6131410D01*
X22956100Y-6111410D02*
X22936100Y-6131410D01*
X22999500Y-6248000D02*
X23019500Y-6268000D01*
X23019500Y-6248000D02*
X22999500Y-6268000D01*
X23055000Y-6109000D02*
X23075000Y-6129000D01*
X23075000Y-6109000D02*
X23055000Y-6129000D01*
X23124000Y-6043000D02*
X23144000Y-6063000D01*
X23144000Y-6043000D02*
X23124000Y-6063000D01*
X23180000Y-6253000D02*
X23200000Y-6273000D01*
X23200000Y-6253000D02*
X23180000Y-6273000D01*
X23275000Y-10745400D02*
X23295000Y-10765400D01*
X23295000Y-10745400D02*
X23275000Y-10765400D01*
X23307000Y-7677000D02*
X23327000Y-7697000D01*
X23327000Y-7677000D02*
X23307000Y-7697000D01*
X23313000Y-6040000D02*
X23333000Y-6060000D01*
X23333000Y-6040000D02*
X23313000Y-6060000D01*
X23316000Y-4748000D02*
X23336000Y-4768000D01*
X23336000Y-4748000D02*
X23316000Y-4768000D01*
X23317000Y-4479000D02*
X23337000Y-4499000D01*
X23337000Y-4479000D02*
X23317000Y-4499000D01*
X23326000Y-9807000D02*
X23346000Y-9827000D01*
X23346000Y-9807000D02*
X23326000Y-9827000D01*
X23327000Y-9306000D02*
X23347000Y-9326000D01*
X23347000Y-9306000D02*
X23327000Y-9326000D01*
X23367000Y-9194500D02*
X23387000Y-9214500D01*
X23387000Y-9194500D02*
X23367000Y-9214500D01*
X23379000Y-10735000D02*
X23399000Y-10755000D01*
X23399000Y-10735000D02*
X23379000Y-10755000D01*
X23381100Y-4669910D02*
X23401100Y-4689910D01*
X23401100Y-4669910D02*
X23381100Y-4689910D01*
X23434000Y-12308000D02*
X23454000Y-12328000D01*
X23454000Y-12308000D02*
X23434000Y-12328000D01*
X23439000Y-4478000D02*
X23459000Y-4498000D01*
X23459000Y-4478000D02*
X23439000Y-4498000D01*
X23439000Y-12474000D02*
X23459000Y-12494000D01*
X23459000Y-12474000D02*
X23439000Y-12494000D01*
X23440000Y-4591000D02*
X23460000Y-4611000D01*
X23460000Y-4591000D02*
X23440000Y-4611000D01*
X23441000Y-11324000D02*
X23461000Y-11344000D01*
X23461000Y-11324000D02*
X23441000Y-11344000D01*
X23444800Y-6255000D02*
X23464800Y-6275000D01*
X23464800Y-6255000D02*
X23444800Y-6275000D01*
X23490000Y-7750000D02*
X23510000Y-7770000D01*
X23510000Y-7750000D02*
X23490000Y-7770000D01*
X23510000Y-12390000D02*
X23530000Y-12410000D01*
X23530000Y-12390000D02*
X23510000Y-12410000D01*
X23570000Y-10681400D02*
X23590000Y-10701400D01*
X23590000Y-10681400D02*
X23570000Y-10701400D01*
X23570000Y-10949000D02*
X23590000Y-10969000D01*
X23590000Y-10949000D02*
X23570000Y-10969000D01*
X23571000Y-5276000D02*
X23591000Y-5296000D01*
X23591000Y-5276000D02*
X23571000Y-5296000D01*
X23761000Y-9201000D02*
X23781000Y-9221000D01*
X23781000Y-9201000D02*
X23761000Y-9221000D01*
X23761500Y-9847500D02*
X23781500Y-9867500D01*
X23781500Y-9847500D02*
X23761500Y-9867500D01*
X23822800Y-12440000D02*
X23842800Y-12460000D01*
X23842800Y-12440000D02*
X23822800Y-12460000D01*
X23844500Y-10877500D02*
X23864500Y-10897500D01*
X23864500Y-10877500D02*
X23844500Y-10897500D01*
X23888500Y-9800000D02*
X23908500Y-9820000D01*
X23908500Y-9800000D02*
X23888500Y-9820000D01*
X23888500Y-12300000D02*
X23908500Y-12320000D01*
X23908500Y-12300000D02*
X23888500Y-12320000D01*
X23890000Y-9140000D02*
X23910000Y-9160000D01*
X23910000Y-9140000D02*
X23890000Y-9160000D01*
X23890000Y-11380000D02*
X23910000Y-11400000D01*
X23910000Y-11380000D02*
X23890000Y-11400000D01*
X23951000Y-9898000D02*
X23971000Y-9918000D01*
X23971000Y-9898000D02*
X23951000Y-9918000D01*
X23954900Y-9183000D02*
X23974900Y-9203000D01*
X23974900Y-9183000D02*
X23954900Y-9203000D01*
X24010000Y-9287000D02*
X24030000Y-9307000D01*
X24030000Y-9287000D02*
X24010000Y-9307000D01*
X24079000Y-10813900D02*
X24099000Y-10833900D01*
X24099000Y-10813900D02*
X24079000Y-10833900D01*
X24095000Y-8680000D02*
X24115000Y-8700000D01*
X24115000Y-8680000D02*
X24095000Y-8700000D01*
X24140000Y-10705000D02*
X24160000Y-10725000D01*
X24160000Y-10705000D02*
X24140000Y-10725000D01*
X24143000Y-9761000D02*
X24163000Y-9781000D01*
X24163000Y-9761000D02*
X24143000Y-9781000D01*
X24204600Y-8680000D02*
X24224600Y-8700000D01*
X24224600Y-8680000D02*
X24204600Y-8700000D01*
X24265000Y-8270000D02*
X24285000Y-8290000D01*
X24285000Y-8270000D02*
X24265000Y-8290000D01*
X24269500Y-9760000D02*
X24289500Y-9780000D01*
X24289500Y-9760000D02*
X24269500Y-9780000D01*
X24269500Y-10760000D02*
X24289500Y-10780000D01*
X24289500Y-10760000D02*
X24269500Y-10780000D01*
X24270000Y-7620000D02*
X24290000Y-7640000D01*
X24290000Y-7620000D02*
X24270000Y-7640000D01*
X15453000Y-11862000D02*
G75*
G02*
X15423000Y-11862000I-15000J0D01*
G01*
X15423000Y-11862000D02*
G75*
G02*
X15453000Y-11862000I15000J0D01*
G01*
X15453000Y-12744000D02*
G75*
G02*
X15423000Y-12744000I-15000J0D01*
G01*
X15423000Y-12744000D02*
G75*
G02*
X15453000Y-12744000I15000J0D01*
G01*
X15453000Y-13626000D02*
G75*
G02*
X15423000Y-13626000I-15000J0D01*
G01*
X15423000Y-13626000D02*
G75*
G02*
X15453000Y-13626000I15000J0D01*
G01*
X15453000Y-14508000D02*
G75*
G02*
X15423000Y-14508000I-15000J0D01*
G01*
X15423000Y-14508000D02*
G75*
G02*
X15453000Y-14508000I15000J0D01*
G01*
X16085000Y-15075000D02*
G75*
G02*
X16055000Y-15075000I-15000J0D01*
G01*
X16055000Y-15075000D02*
G75*
G02*
X16085000Y-15075000I15000J0D01*
G01*
X16115000Y-11422000D02*
G75*
G02*
X16085000Y-11422000I-15000J0D01*
G01*
X16085000Y-11422000D02*
G75*
G02*
X16115000Y-11422000I15000J0D01*
G01*
X16125000Y-14064000D02*
G75*
G02*
X16095000Y-14064000I-15000J0D01*
G01*
X16095000Y-14064000D02*
G75*
G02*
X16125000Y-14064000I15000J0D01*
G01*
X16146000Y-8801000D02*
G75*
G02*
X16116000Y-8801000I-15000J0D01*
G01*
X16116000Y-8801000D02*
G75*
G02*
X16146000Y-8801000I15000J0D01*
G01*
X16155000Y-9224000D02*
G75*
G02*
X16125000Y-9224000I-15000J0D01*
G01*
X16125000Y-9224000D02*
G75*
G02*
X16155000Y-9224000I15000J0D01*
G01*
X16263000Y-9889000D02*
G75*
G02*
X16233000Y-9889000I-15000J0D01*
G01*
X16233000Y-9889000D02*
G75*
G02*
X16263000Y-9889000I15000J0D01*
G01*
X16269000Y-10886000D02*
G75*
G02*
X16239000Y-10886000I-15000J0D01*
G01*
X16239000Y-10886000D02*
G75*
G02*
X16269000Y-10886000I15000J0D01*
G01*
X16319000Y-7731000D02*
G75*
G02*
X16289000Y-7731000I-15000J0D01*
G01*
X16289000Y-7731000D02*
G75*
G02*
X16319000Y-7731000I15000J0D01*
G01*
X16449000Y-8583000D02*
G75*
G02*
X16419000Y-8583000I-15000J0D01*
G01*
X16419000Y-8583000D02*
G75*
G02*
X16449000Y-8583000I15000J0D01*
G01*
X16523000Y-9227000D02*
G75*
G02*
X16493000Y-9227000I-15000J0D01*
G01*
X16493000Y-9227000D02*
G75*
G02*
X16523000Y-9227000I15000J0D01*
G01*
X16540000Y-7575000D02*
G75*
G02*
X16510000Y-7575000I-15000J0D01*
G01*
X16510000Y-7575000D02*
G75*
G02*
X16540000Y-7575000I15000J0D01*
G01*
X16561000Y-11830000D02*
G75*
G02*
X16531000Y-11830000I-15000J0D01*
G01*
X16531000Y-11830000D02*
G75*
G02*
X16561000Y-11830000I15000J0D01*
G01*
X16619000Y-6802000D02*
G75*
G02*
X16589000Y-6802000I-15000J0D01*
G01*
X16589000Y-6802000D02*
G75*
G02*
X16619000Y-6802000I15000J0D01*
G01*
X16642000Y-14245000D02*
G75*
G02*
X16612000Y-14245000I-15000J0D01*
G01*
X16612000Y-14245000D02*
G75*
G02*
X16642000Y-14245000I15000J0D01*
G01*
X16653000Y-9805000D02*
G75*
G02*
X16623000Y-9805000I-15000J0D01*
G01*
X16623000Y-9805000D02*
G75*
G02*
X16653000Y-9805000I15000J0D01*
G01*
X16663000Y-10439000D02*
G75*
G02*
X16633000Y-10439000I-15000J0D01*
G01*
X16633000Y-10439000D02*
G75*
G02*
X16663000Y-10439000I15000J0D01*
G01*
X16665000Y-13000000D02*
G75*
G02*
X16635000Y-13000000I-15000J0D01*
G01*
X16635000Y-13000000D02*
G75*
G02*
X16665000Y-13000000I15000J0D01*
G01*
X16678000Y-11456000D02*
G75*
G02*
X16648000Y-11456000I-15000J0D01*
G01*
X16648000Y-11456000D02*
G75*
G02*
X16678000Y-11456000I15000J0D01*
G01*
X16778000Y-8906000D02*
G75*
G02*
X16748000Y-8906000I-15000J0D01*
G01*
X16748000Y-8906000D02*
G75*
G02*
X16778000Y-8906000I15000J0D01*
G01*
X16818000Y-14800000D02*
G75*
G02*
X16788000Y-14800000I-15000J0D01*
G01*
X16788000Y-14800000D02*
G75*
G02*
X16818000Y-14800000I15000J0D01*
G01*
X16884000Y-11662000D02*
G75*
G02*
X16854000Y-11662000I-15000J0D01*
G01*
X16854000Y-11662000D02*
G75*
G02*
X16884000Y-11662000I15000J0D01*
G01*
X16890000Y-6227000D02*
G75*
G02*
X16860000Y-6227000I-15000J0D01*
G01*
X16860000Y-6227000D02*
G75*
G02*
X16890000Y-6227000I15000J0D01*
G01*
X17061000Y-7603000D02*
G75*
G02*
X17031000Y-7603000I-15000J0D01*
G01*
X17031000Y-7603000D02*
G75*
G02*
X17061000Y-7603000I15000J0D01*
G01*
X17080000Y-10324000D02*
G75*
G02*
X17050000Y-10324000I-15000J0D01*
G01*
X17050000Y-10324000D02*
G75*
G02*
X17080000Y-10324000I15000J0D01*
G01*
X17085000Y-11463000D02*
G75*
G02*
X17055000Y-11463000I-15000J0D01*
G01*
X17055000Y-11463000D02*
G75*
G02*
X17085000Y-11463000I15000J0D01*
G01*
X17096000Y-6428000D02*
G75*
G02*
X17066000Y-6428000I-15000J0D01*
G01*
X17066000Y-6428000D02*
G75*
G02*
X17096000Y-6428000I15000J0D01*
G01*
X17113000Y-9255000D02*
G75*
G02*
X17083000Y-9255000I-15000J0D01*
G01*
X17083000Y-9255000D02*
G75*
G02*
X17113000Y-9255000I15000J0D01*
G01*
X17120000Y-14252000D02*
G75*
G02*
X17090000Y-14252000I-15000J0D01*
G01*
X17090000Y-14252000D02*
G75*
G02*
X17120000Y-14252000I15000J0D01*
G01*
X17139000Y-12434000D02*
G75*
G02*
X17109000Y-12434000I-15000J0D01*
G01*
X17109000Y-12434000D02*
G75*
G02*
X17139000Y-12434000I15000J0D01*
G01*
X17140000Y-12975000D02*
G75*
G02*
X17110000Y-12975000I-15000J0D01*
G01*
X17110000Y-12975000D02*
G75*
G02*
X17140000Y-12975000I15000J0D01*
G01*
X17140000Y-13225000D02*
G75*
G02*
X17110000Y-13225000I-15000J0D01*
G01*
X17110000Y-13225000D02*
G75*
G02*
X17140000Y-13225000I15000J0D01*
G01*
X17140600Y-8276060D02*
G75*
G02*
X17110600Y-8276060I-15000J0D01*
G01*
X17110600Y-8276060D02*
G75*
G02*
X17140600Y-8276060I15000J0D01*
G01*
X17190000Y-10700000D02*
G75*
G02*
X17160000Y-10700000I-15000J0D01*
G01*
X17160000Y-10700000D02*
G75*
G02*
X17190000Y-10700000I15000J0D01*
G01*
X17290000Y-9950000D02*
G75*
G02*
X17260000Y-9950000I-15000J0D01*
G01*
X17260000Y-9950000D02*
G75*
G02*
X17290000Y-9950000I15000J0D01*
G01*
X17393000Y-6430000D02*
G75*
G02*
X17363000Y-6430000I-15000J0D01*
G01*
X17363000Y-6430000D02*
G75*
G02*
X17393000Y-6430000I15000J0D01*
G01*
X17395000Y-10180000D02*
G75*
G02*
X17365000Y-10180000I-15000J0D01*
G01*
X17365000Y-10180000D02*
G75*
G02*
X17395000Y-10180000I15000J0D01*
G01*
X17400000Y-7681000D02*
G75*
G02*
X17370000Y-7681000I-15000J0D01*
G01*
X17370000Y-7681000D02*
G75*
G02*
X17400000Y-7681000I15000J0D01*
G01*
X17465000Y-7950000D02*
G75*
G02*
X17435000Y-7950000I-15000J0D01*
G01*
X17435000Y-7950000D02*
G75*
G02*
X17465000Y-7950000I15000J0D01*
G01*
X17485000Y-6230000D02*
G75*
G02*
X17455000Y-6230000I-15000J0D01*
G01*
X17455000Y-6230000D02*
G75*
G02*
X17485000Y-6230000I15000J0D01*
G01*
X17507000Y-8602000D02*
G75*
G02*
X17477000Y-8602000I-15000J0D01*
G01*
X17477000Y-8602000D02*
G75*
G02*
X17507000Y-8602000I15000J0D01*
G01*
X17840000Y-9270000D02*
G75*
G02*
X17810000Y-9270000I-15000J0D01*
G01*
X17810000Y-9270000D02*
G75*
G02*
X17840000Y-9270000I15000J0D01*
G01*
X17877000Y-14360000D02*
G75*
G02*
X17847000Y-14360000I-15000J0D01*
G01*
X17847000Y-14360000D02*
G75*
G02*
X17877000Y-14360000I15000J0D01*
G01*
X17973000Y-11075000D02*
G75*
G02*
X17943000Y-11075000I-15000J0D01*
G01*
X17943000Y-11075000D02*
G75*
G02*
X17973000Y-11075000I15000J0D01*
G01*
X18040000Y-15175000D02*
G75*
G02*
X18010000Y-15175000I-15000J0D01*
G01*
X18010000Y-15175000D02*
G75*
G02*
X18040000Y-15175000I15000J0D01*
G01*
X18065000Y-7520000D02*
G75*
G02*
X18035000Y-7520000I-15000J0D01*
G01*
X18035000Y-7520000D02*
G75*
G02*
X18065000Y-7520000I15000J0D01*
G01*
X18090000Y-8175000D02*
G75*
G02*
X18060000Y-8175000I-15000J0D01*
G01*
X18060000Y-8175000D02*
G75*
G02*
X18090000Y-8175000I15000J0D01*
G01*
X18192000Y-14181000D02*
G75*
G02*
X18162000Y-14181000I-15000J0D01*
G01*
X18162000Y-14181000D02*
G75*
G02*
X18192000Y-14181000I15000J0D01*
G01*
X18202000Y-14789000D02*
G75*
G02*
X18172000Y-14789000I-15000J0D01*
G01*
X18172000Y-14789000D02*
G75*
G02*
X18202000Y-14789000I15000J0D01*
G01*
X18225000Y-7740000D02*
G75*
G02*
X18195000Y-7740000I-15000J0D01*
G01*
X18195000Y-7740000D02*
G75*
G02*
X18225000Y-7740000I15000J0D01*
G01*
X18473000Y-12075000D02*
G75*
G02*
X18443000Y-12075000I-15000J0D01*
G01*
X18443000Y-12075000D02*
G75*
G02*
X18473000Y-12075000I15000J0D01*
G01*
X18549000Y-12398000D02*
G75*
G02*
X18519000Y-12398000I-15000J0D01*
G01*
X18519000Y-12398000D02*
G75*
G02*
X18549000Y-12398000I15000J0D01*
G01*
X18549000Y-12985000D02*
G75*
G02*
X18519000Y-12985000I-15000J0D01*
G01*
X18519000Y-12985000D02*
G75*
G02*
X18549000Y-12985000I15000J0D01*
G01*
X18549000Y-13226000D02*
G75*
G02*
X18519000Y-13226000I-15000J0D01*
G01*
X18519000Y-13226000D02*
G75*
G02*
X18549000Y-13226000I15000J0D01*
G01*
X18549000Y-13583000D02*
G75*
G02*
X18519000Y-13583000I-15000J0D01*
G01*
X18519000Y-13583000D02*
G75*
G02*
X18549000Y-13583000I15000J0D01*
G01*
X18689000Y-14514000D02*
G75*
G02*
X18659000Y-14514000I-15000J0D01*
G01*
X18659000Y-14514000D02*
G75*
G02*
X18689000Y-14514000I15000J0D01*
G01*
X18973000Y-11075000D02*
G75*
G02*
X18943000Y-11075000I-15000J0D01*
G01*
X18943000Y-11075000D02*
G75*
G02*
X18973000Y-11075000I15000J0D01*
G01*
X19123000Y-13981000D02*
G75*
G02*
X19093000Y-13981000I-15000J0D01*
G01*
X19093000Y-13981000D02*
G75*
G02*
X19123000Y-13981000I15000J0D01*
G01*
X19473000Y-12075000D02*
G75*
G02*
X19443000Y-12075000I-15000J0D01*
G01*
X19443000Y-12075000D02*
G75*
G02*
X19473000Y-12075000I15000J0D01*
G01*
X19516000Y-13574000D02*
G75*
G02*
X19486000Y-13574000I-15000J0D01*
G01*
X19486000Y-13574000D02*
G75*
G02*
X19516000Y-13574000I15000J0D01*
G01*
X19610000Y-6248000D02*
G75*
G02*
X19580000Y-6248000I-15000J0D01*
G01*
X19580000Y-6248000D02*
G75*
G02*
X19610000Y-6248000I15000J0D01*
G01*
X19790000Y-14321000D02*
G75*
G02*
X19760000Y-14321000I-15000J0D01*
G01*
X19760000Y-14321000D02*
G75*
G02*
X19790000Y-14321000I15000J0D01*
G01*
X19790000Y-14436500D02*
G75*
G02*
X19760000Y-14436500I-15000J0D01*
G01*
X19760000Y-14436500D02*
G75*
G02*
X19790000Y-14436500I15000J0D01*
G01*
X19790000Y-14552000D02*
G75*
G02*
X19760000Y-14552000I-15000J0D01*
G01*
X19760000Y-14552000D02*
G75*
G02*
X19790000Y-14552000I15000J0D01*
G01*
X19790000Y-15175000D02*
G75*
G02*
X19760000Y-15175000I-15000J0D01*
G01*
X19760000Y-15175000D02*
G75*
G02*
X19790000Y-15175000I15000J0D01*
G01*
X19926000Y-12327300D02*
G75*
G02*
X19896000Y-12327300I-15000J0D01*
G01*
X19896000Y-12327300D02*
G75*
G02*
X19926000Y-12327300I15000J0D01*
G01*
X19934000Y-13853000D02*
G75*
G02*
X19904000Y-13853000I-15000J0D01*
G01*
X19904000Y-13853000D02*
G75*
G02*
X19934000Y-13853000I15000J0D01*
G01*
X19973000Y-11075000D02*
G75*
G02*
X19943000Y-11075000I-15000J0D01*
G01*
X19943000Y-11075000D02*
G75*
G02*
X19973000Y-11075000I15000J0D01*
G01*
X20179000Y-13853000D02*
G75*
G02*
X20149000Y-13853000I-15000J0D01*
G01*
X20149000Y-13853000D02*
G75*
G02*
X20179000Y-13853000I15000J0D01*
G01*
X20189100Y-12328000D02*
G75*
G02*
X20159100Y-12328000I-15000J0D01*
G01*
X20159100Y-12328000D02*
G75*
G02*
X20189100Y-12328000I15000J0D01*
G01*
X20260000Y-14769000D02*
G75*
G02*
X20230000Y-14769000I-15000J0D01*
G01*
X20230000Y-14769000D02*
G75*
G02*
X20260000Y-14769000I15000J0D01*
G01*
X20295000Y-12479000D02*
G75*
G02*
X20265000Y-12479000I-15000J0D01*
G01*
X20265000Y-12479000D02*
G75*
G02*
X20295000Y-12479000I15000J0D01*
G01*
X20415000Y-7580000D02*
G75*
G02*
X20385000Y-7580000I-15000J0D01*
G01*
X20385000Y-7580000D02*
G75*
G02*
X20415000Y-7580000I15000J0D01*
G01*
X20465000Y-8350000D02*
G75*
G02*
X20435000Y-8350000I-15000J0D01*
G01*
X20435000Y-8350000D02*
G75*
G02*
X20465000Y-8350000I15000J0D01*
G01*
X20473000Y-12075000D02*
G75*
G02*
X20443000Y-12075000I-15000J0D01*
G01*
X20443000Y-12075000D02*
G75*
G02*
X20473000Y-12075000I15000J0D01*
G01*
X20634300Y-12709900D02*
G75*
G02*
X20604300Y-12709900I-15000J0D01*
G01*
X20604300Y-12709900D02*
G75*
G02*
X20634300Y-12709900I15000J0D01*
G01*
X20761000Y-7594000D02*
G75*
G02*
X20731000Y-7594000I-15000J0D01*
G01*
X20731000Y-7594000D02*
G75*
G02*
X20761000Y-7594000I15000J0D01*
G01*
X20973000Y-11075000D02*
G75*
G02*
X20943000Y-11075000I-15000J0D01*
G01*
X20943000Y-11075000D02*
G75*
G02*
X20973000Y-11075000I15000J0D01*
G01*
X20973000Y-13075000D02*
G75*
G02*
X20943000Y-13075000I-15000J0D01*
G01*
X20943000Y-13075000D02*
G75*
G02*
X20973000Y-13075000I15000J0D01*
G01*
X21011000Y-13352000D02*
G75*
G02*
X20981000Y-13352000I-15000J0D01*
G01*
X20981000Y-13352000D02*
G75*
G02*
X21011000Y-13352000I15000J0D01*
G01*
X21044000Y-8536000D02*
G75*
G02*
X21014000Y-8536000I-15000J0D01*
G01*
X21014000Y-8536000D02*
G75*
G02*
X21044000Y-8536000I15000J0D01*
G01*
X21064000Y-14705000D02*
G75*
G02*
X21034000Y-14705000I-15000J0D01*
G01*
X21034000Y-14705000D02*
G75*
G02*
X21064000Y-14705000I15000J0D01*
G01*
X21186000Y-7444000D02*
G75*
G02*
X21156000Y-7444000I-15000J0D01*
G01*
X21156000Y-7444000D02*
G75*
G02*
X21186000Y-7444000I15000J0D01*
G01*
X21415000Y-15155000D02*
G75*
G02*
X21385000Y-15155000I-15000J0D01*
G01*
X21385000Y-15155000D02*
G75*
G02*
X21415000Y-15155000I15000J0D01*
G01*
X21430000Y-14715000D02*
G75*
G02*
X21400000Y-14715000I-15000J0D01*
G01*
X21400000Y-14715000D02*
G75*
G02*
X21430000Y-14715000I15000J0D01*
G01*
X21446000Y-9967000D02*
G75*
G02*
X21416000Y-9967000I-15000J0D01*
G01*
X21416000Y-9967000D02*
G75*
G02*
X21446000Y-9967000I15000J0D01*
G01*
X21473000Y-12075000D02*
G75*
G02*
X21443000Y-12075000I-15000J0D01*
G01*
X21443000Y-12075000D02*
G75*
G02*
X21473000Y-12075000I15000J0D01*
G01*
X21473000Y-14075000D02*
G75*
G02*
X21443000Y-14075000I-15000J0D01*
G01*
X21443000Y-14075000D02*
G75*
G02*
X21473000Y-14075000I15000J0D01*
G01*
X21495500Y-6243500D02*
G75*
G02*
X21465500Y-6243500I-15000J0D01*
G01*
X21465500Y-6243500D02*
G75*
G02*
X21495500Y-6243500I15000J0D01*
G01*
X21825000Y-7070000D02*
G75*
G02*
X21795000Y-7070000I-15000J0D01*
G01*
X21795000Y-7070000D02*
G75*
G02*
X21825000Y-7070000I15000J0D01*
G01*
X21825000Y-7340000D02*
G75*
G02*
X21795000Y-7340000I-15000J0D01*
G01*
X21795000Y-7340000D02*
G75*
G02*
X21825000Y-7340000I15000J0D01*
G01*
X21973000Y-13075000D02*
G75*
G02*
X21943000Y-13075000I-15000J0D01*
G01*
X21943000Y-13075000D02*
G75*
G02*
X21973000Y-13075000I15000J0D01*
G01*
X21997000Y-10291700D02*
G75*
G02*
X21967000Y-10291700I-15000J0D01*
G01*
X21967000Y-10291700D02*
G75*
G02*
X21997000Y-10291700I15000J0D01*
G01*
X21999000Y-11833400D02*
G75*
G02*
X21969000Y-11833400I-15000J0D01*
G01*
X21969000Y-11833400D02*
G75*
G02*
X21999000Y-11833400I15000J0D01*
G01*
X21999000Y-12218400D02*
G75*
G02*
X21969000Y-12218400I-15000J0D01*
G01*
X21969000Y-12218400D02*
G75*
G02*
X21999000Y-12218400I15000J0D01*
G01*
X22004000Y-2921750D02*
G75*
G02*
X21974000Y-2921750I-15000J0D01*
G01*
X21974000Y-2921750D02*
G75*
G02*
X22004000Y-2921750I15000J0D01*
G01*
X22005000Y-12460000D02*
G75*
G02*
X21975000Y-12460000I-15000J0D01*
G01*
X21975000Y-12460000D02*
G75*
G02*
X22005000Y-12460000I15000J0D01*
G01*
X22005600Y-2506750D02*
G75*
G02*
X21975600Y-2506750I-15000J0D01*
G01*
X21975600Y-2506750D02*
G75*
G02*
X22005600Y-2506750I15000J0D01*
G01*
X22006000Y-5641070D02*
G75*
G02*
X21976000Y-5641070I-15000J0D01*
G01*
X21976000Y-5641070D02*
G75*
G02*
X22006000Y-5641070I15000J0D01*
G01*
X22007000Y-1671750D02*
G75*
G02*
X21977000Y-1671750I-15000J0D01*
G01*
X21977000Y-1671750D02*
G75*
G02*
X22007000Y-1671750I15000J0D01*
G01*
X22007000Y-5140070D02*
G75*
G02*
X21977000Y-5140070I-15000J0D01*
G01*
X21977000Y-5140070D02*
G75*
G02*
X22007000Y-5140070I15000J0D01*
G01*
X22007100Y-2041750D02*
G75*
G02*
X21977100Y-2041750I-15000J0D01*
G01*
X21977100Y-2041750D02*
G75*
G02*
X22007100Y-2041750I15000J0D01*
G01*
X22007100Y-4780000D02*
G75*
G02*
X21977100Y-4780000I-15000J0D01*
G01*
X21977100Y-4780000D02*
G75*
G02*
X22007100Y-4780000I15000J0D01*
G01*
X22007800Y-8237320D02*
G75*
G02*
X21977800Y-8237320I-15000J0D01*
G01*
X21977800Y-8237320D02*
G75*
G02*
X22007800Y-8237320I15000J0D01*
G01*
X22008000Y-7587020D02*
G75*
G02*
X21978000Y-7587020I-15000J0D01*
G01*
X21978000Y-7587020D02*
G75*
G02*
X22008000Y-7587020I15000J0D01*
G01*
X22008700Y-8727430D02*
G75*
G02*
X21978700Y-8727430I-15000J0D01*
G01*
X21978700Y-8727430D02*
G75*
G02*
X22008700Y-8727430I15000J0D01*
G01*
X22009100Y-6747000D02*
G75*
G02*
X21979100Y-6747000I-15000J0D01*
G01*
X21979100Y-6747000D02*
G75*
G02*
X22009100Y-6747000I15000J0D01*
G01*
X22010000Y-9831000D02*
G75*
G02*
X21980000Y-9831000I-15000J0D01*
G01*
X21980000Y-9831000D02*
G75*
G02*
X22010000Y-9831000I15000J0D01*
G01*
X22010000Y-12890000D02*
G75*
G02*
X21980000Y-12890000I-15000J0D01*
G01*
X21980000Y-12890000D02*
G75*
G02*
X22010000Y-12890000I15000J0D01*
G01*
X22010600Y-11332000D02*
G75*
G02*
X21980600Y-11332000I-15000J0D01*
G01*
X21980600Y-11332000D02*
G75*
G02*
X22010600Y-11332000I15000J0D01*
G01*
X22011000Y-7220000D02*
G75*
G02*
X21981000Y-7220000I-15000J0D01*
G01*
X21981000Y-7220000D02*
G75*
G02*
X22011000Y-7220000I15000J0D01*
G01*
X22012000Y-4480000D02*
G75*
G02*
X21982000Y-4480000I-15000J0D01*
G01*
X21982000Y-4480000D02*
G75*
G02*
X22012000Y-4480000I15000J0D01*
G01*
X22013600Y-4065000D02*
G75*
G02*
X21983600Y-4065000I-15000J0D01*
G01*
X21983600Y-4065000D02*
G75*
G02*
X22013600Y-4065000I15000J0D01*
G01*
X22015000Y-3230000D02*
G75*
G02*
X21985000Y-3230000I-15000J0D01*
G01*
X21985000Y-3230000D02*
G75*
G02*
X22015000Y-3230000I15000J0D01*
G01*
X22015000Y-13380000D02*
G75*
G02*
X21985000Y-13380000I-15000J0D01*
G01*
X21985000Y-13380000D02*
G75*
G02*
X22015000Y-13380000I15000J0D01*
G01*
X22015100Y-3600000D02*
G75*
G02*
X21985100Y-3600000I-15000J0D01*
G01*
X21985100Y-3600000D02*
G75*
G02*
X22015100Y-3600000I15000J0D01*
G01*
X22636000Y-12216400D02*
G75*
G02*
X22606000Y-12216400I-15000J0D01*
G01*
X22606000Y-12216400D02*
G75*
G02*
X22636000Y-12216400I15000J0D01*
G01*
X22637000Y-2506750D02*
G75*
G02*
X22607000Y-2506750I-15000J0D01*
G01*
X22607000Y-2506750D02*
G75*
G02*
X22637000Y-2506750I15000J0D01*
G01*
X22637000Y-2922750D02*
G75*
G02*
X22607000Y-2922750I-15000J0D01*
G01*
X22607000Y-2922750D02*
G75*
G02*
X22637000Y-2922750I15000J0D01*
G01*
X22637000Y-11833400D02*
G75*
G02*
X22607000Y-11833400I-15000J0D01*
G01*
X22607000Y-11833400D02*
G75*
G02*
X22637000Y-11833400I15000J0D01*
G01*
X22637000Y-13386000D02*
G75*
G02*
X22607000Y-13386000I-15000J0D01*
G01*
X22607000Y-13386000D02*
G75*
G02*
X22637000Y-13386000I15000J0D01*
G01*
X22639800Y-1681750D02*
G75*
G02*
X22609800Y-1681750I-15000J0D01*
G01*
X22609800Y-1681750D02*
G75*
G02*
X22639800Y-1681750I15000J0D01*
G01*
X22640000Y-2033750D02*
G75*
G02*
X22610000Y-2033750I-15000J0D01*
G01*
X22610000Y-2033750D02*
G75*
G02*
X22640000Y-2033750I15000J0D01*
G01*
X22640000Y-11390000D02*
G75*
G02*
X22610000Y-11390000I-15000J0D01*
G01*
X22610000Y-11390000D02*
G75*
G02*
X22640000Y-11390000I15000J0D01*
G01*
X22642500Y-12880800D02*
G75*
G02*
X22612500Y-12880800I-15000J0D01*
G01*
X22612500Y-12880800D02*
G75*
G02*
X22642500Y-12880800I15000J0D01*
G01*
X22643000Y-5137070D02*
G75*
G02*
X22613000Y-5137070I-15000J0D01*
G01*
X22613000Y-5137070D02*
G75*
G02*
X22643000Y-5137070I15000J0D01*
G01*
X22643000Y-5640070D02*
G75*
G02*
X22613000Y-5640070I-15000J0D01*
G01*
X22613000Y-5640070D02*
G75*
G02*
X22643000Y-5640070I15000J0D01*
G01*
X22643000Y-6025070D02*
G75*
G02*
X22613000Y-6025070I-15000J0D01*
G01*
X22613000Y-6025070D02*
G75*
G02*
X22643000Y-6025070I15000J0D01*
G01*
X22643600Y-4774920D02*
G75*
G02*
X22613600Y-4774920I-15000J0D01*
G01*
X22613600Y-4774920D02*
G75*
G02*
X22643600Y-4774920I15000J0D01*
G01*
X22643700Y-9789170D02*
G75*
G02*
X22613700Y-9789170I-15000J0D01*
G01*
X22613700Y-9789170D02*
G75*
G02*
X22643700Y-9789170I15000J0D01*
G01*
X22643800Y-8716200D02*
G75*
G02*
X22613800Y-8716200I-15000J0D01*
G01*
X22613800Y-8716200D02*
G75*
G02*
X22643800Y-8716200I15000J0D01*
G01*
X22644100Y-12465000D02*
G75*
G02*
X22614100Y-12465000I-15000J0D01*
G01*
X22614100Y-12465000D02*
G75*
G02*
X22644100Y-12465000I15000J0D01*
G01*
X22644800Y-8226080D02*
G75*
G02*
X22614800Y-8226080I-15000J0D01*
G01*
X22614800Y-8226080D02*
G75*
G02*
X22644800Y-8226080I15000J0D01*
G01*
X22645000Y-4065000D02*
G75*
G02*
X22615000Y-4065000I-15000J0D01*
G01*
X22615000Y-4065000D02*
G75*
G02*
X22645000Y-4065000I15000J0D01*
G01*
X22645000Y-4481000D02*
G75*
G02*
X22615000Y-4481000I-15000J0D01*
G01*
X22615000Y-4481000D02*
G75*
G02*
X22645000Y-4481000I15000J0D01*
G01*
X22645000Y-7216370D02*
G75*
G02*
X22615000Y-7216370I-15000J0D01*
G01*
X22615000Y-7216370D02*
G75*
G02*
X22645000Y-7216370I15000J0D01*
G01*
X22645000Y-7596960D02*
G75*
G02*
X22615000Y-7596960I-15000J0D01*
G01*
X22615000Y-7596960D02*
G75*
G02*
X22645000Y-7596960I15000J0D01*
G01*
X22645000Y-10301700D02*
G75*
G02*
X22615000Y-10301700I-15000J0D01*
G01*
X22615000Y-10301700D02*
G75*
G02*
X22645000Y-10301700I15000J0D01*
G01*
X22646700Y-6713410D02*
G75*
G02*
X22616700Y-6713410I-15000J0D01*
G01*
X22616700Y-6713410D02*
G75*
G02*
X22646700Y-6713410I15000J0D01*
G01*
X22647800Y-3240000D02*
G75*
G02*
X22617800Y-3240000I-15000J0D01*
G01*
X22617800Y-3240000D02*
G75*
G02*
X22647800Y-3240000I15000J0D01*
G01*
X22648000Y-3592000D02*
G75*
G02*
X22618000Y-3592000I-15000J0D01*
G01*
X22618000Y-3592000D02*
G75*
G02*
X22648000Y-3592000I15000J0D01*
G01*
X23315000Y-13245000D02*
G75*
G02*
X23285000Y-13245000I-15000J0D01*
G01*
X23285000Y-13245000D02*
G75*
G02*
X23315000Y-13245000I15000J0D01*
G01*
X23655000Y-11335000D02*
G75*
G02*
X23625000Y-11335000I-15000J0D01*
G01*
X23625000Y-11335000D02*
G75*
G02*
X23655000Y-11335000I15000J0D01*
G01*
X23656000Y-1648750D02*
G75*
G02*
X23626000Y-1648750I-15000J0D01*
G01*
X23626000Y-1648750D02*
G75*
G02*
X23656000Y-1648750I15000J0D01*
G01*
X23656000Y-12892000D02*
G75*
G02*
X23626000Y-12892000I-15000J0D01*
G01*
X23626000Y-12892000D02*
G75*
G02*
X23656000Y-12892000I15000J0D01*
G01*
X23657000Y-2032750D02*
G75*
G02*
X23627000Y-2032750I-15000J0D01*
G01*
X23627000Y-2032750D02*
G75*
G02*
X23657000Y-2032750I15000J0D01*
G01*
X23657000Y-5134070D02*
G75*
G02*
X23627000Y-5134070I-15000J0D01*
G01*
X23627000Y-5134070D02*
G75*
G02*
X23657000Y-5134070I15000J0D01*
G01*
X23659000Y-12471000D02*
G75*
G02*
X23629000Y-12471000I-15000J0D01*
G01*
X23629000Y-12471000D02*
G75*
G02*
X23659000Y-12471000I15000J0D01*
G01*
X23660000Y-6325000D02*
G75*
G02*
X23630000Y-6325000I-15000J0D01*
G01*
X23630000Y-6325000D02*
G75*
G02*
X23660000Y-6325000I15000J0D01*
G01*
X23660000Y-9395000D02*
G75*
G02*
X23630000Y-9395000I-15000J0D01*
G01*
X23630000Y-9395000D02*
G75*
G02*
X23660000Y-9395000I15000J0D01*
G01*
X23660300Y-6709670D02*
G75*
G02*
X23630300Y-6709670I-15000J0D01*
G01*
X23630300Y-6709670D02*
G75*
G02*
X23660300Y-6709670I15000J0D01*
G01*
X23661000Y-7834000D02*
G75*
G02*
X23631000Y-7834000I-15000J0D01*
G01*
X23631000Y-7834000D02*
G75*
G02*
X23661000Y-7834000I15000J0D01*
G01*
X23662000Y-8223340D02*
G75*
G02*
X23632000Y-8223340I-15000J0D01*
G01*
X23632000Y-8223340D02*
G75*
G02*
X23662000Y-8223340I15000J0D01*
G01*
X23664000Y-3207000D02*
G75*
G02*
X23634000Y-3207000I-15000J0D01*
G01*
X23634000Y-3207000D02*
G75*
G02*
X23664000Y-3207000I15000J0D01*
G01*
X23665000Y-3591000D02*
G75*
G02*
X23635000Y-3591000I-15000J0D01*
G01*
X23635000Y-3591000D02*
G75*
G02*
X23665000Y-3591000I15000J0D01*
G01*
X23715000Y-13930000D02*
G75*
G02*
X23685000Y-13930000I-15000J0D01*
G01*
X23685000Y-13930000D02*
G75*
G02*
X23715000Y-13930000I15000J0D01*
G01*
X23760000Y-14505000D02*
G75*
G02*
X23730000Y-14505000I-15000J0D01*
G01*
X23730000Y-14505000D02*
G75*
G02*
X23760000Y-14505000I15000J0D01*
G01*
X23765000Y-15010000D02*
G75*
G02*
X23735000Y-15010000I-15000J0D01*
G01*
X23735000Y-15010000D02*
G75*
G02*
X23765000Y-15010000I15000J0D01*
G01*
X23783000Y-13256000D02*
G75*
G02*
X23753000Y-13256000I-15000J0D01*
G01*
X23753000Y-13256000D02*
G75*
G02*
X23783000Y-13256000I15000J0D01*
G01*
X24165000Y-14185000D02*
G75*
G02*
X24135000Y-14185000I-15000J0D01*
G01*
X24135000Y-14185000D02*
G75*
G02*
X24165000Y-14185000I15000J0D01*
G01*
X24415000Y-12454000D02*
G75*
G02*
X24385000Y-12454000I-15000J0D01*
G01*
X24385000Y-12454000D02*
G75*
G02*
X24415000Y-12454000I15000J0D01*
G01*
X24415000Y-12937000D02*
G75*
G02*
X24385000Y-12937000I-15000J0D01*
G01*
X24385000Y-12937000D02*
G75*
G02*
X24415000Y-12937000I15000J0D01*
G01*
X24417000Y-1681750D02*
G75*
G02*
X24387000Y-1681750I-15000J0D01*
G01*
X24387000Y-1681750D02*
G75*
G02*
X24417000Y-1681750I15000J0D01*
G01*
X24417000Y-2536750D02*
G75*
G02*
X24387000Y-2536750I-15000J0D01*
G01*
X24387000Y-2536750D02*
G75*
G02*
X24417000Y-2536750I15000J0D01*
G01*
X24417000Y-2917750D02*
G75*
G02*
X24387000Y-2917750I-15000J0D01*
G01*
X24387000Y-2917750D02*
G75*
G02*
X24417000Y-2917750I15000J0D01*
G01*
X24418000Y-2042750D02*
G75*
G02*
X24388000Y-2042750I-15000J0D01*
G01*
X24388000Y-2042750D02*
G75*
G02*
X24418000Y-2042750I15000J0D01*
G01*
X24419000Y-5135070D02*
G75*
G02*
X24389000Y-5135070I-15000J0D01*
G01*
X24389000Y-5135070D02*
G75*
G02*
X24419000Y-5135070I15000J0D01*
G01*
X24419800Y-7828730D02*
G75*
G02*
X24389800Y-7828730I-15000J0D01*
G01*
X24389800Y-7828730D02*
G75*
G02*
X24419800Y-7828730I15000J0D01*
G01*
X24420000Y-6025070D02*
G75*
G02*
X24390000Y-6025070I-15000J0D01*
G01*
X24390000Y-6025070D02*
G75*
G02*
X24420000Y-6025070I15000J0D01*
G01*
X24420000Y-6715000D02*
G75*
G02*
X24390000Y-6715000I-15000J0D01*
G01*
X24390000Y-6715000D02*
G75*
G02*
X24420000Y-6715000I15000J0D01*
G01*
X24420100Y-12219800D02*
G75*
G02*
X24390100Y-12219800I-15000J0D01*
G01*
X24390100Y-12219800D02*
G75*
G02*
X24420100Y-12219800I15000J0D01*
G01*
X24421000Y-5641070D02*
G75*
G02*
X24391000Y-5641070I-15000J0D01*
G01*
X24391000Y-5641070D02*
G75*
G02*
X24421000Y-5641070I15000J0D01*
G01*
X24421500Y-13760500D02*
G75*
G02*
X24391500Y-13760500I-15000J0D01*
G01*
X24391500Y-13760500D02*
G75*
G02*
X24421500Y-13760500I15000J0D01*
G01*
X24421600Y-4740000D02*
G75*
G02*
X24391600Y-4740000I-15000J0D01*
G01*
X24391600Y-4740000D02*
G75*
G02*
X24421600Y-4740000I15000J0D01*
G01*
X24421900Y-10665600D02*
G75*
G02*
X24391900Y-10665600I-15000J0D01*
G01*
X24391900Y-10665600D02*
G75*
G02*
X24421900Y-10665600I15000J0D01*
G01*
X24422000Y-8250340D02*
G75*
G02*
X24392000Y-8250340I-15000J0D01*
G01*
X24392000Y-8250340D02*
G75*
G02*
X24422000Y-8250340I15000J0D01*
G01*
X24422000Y-8721340D02*
G75*
G02*
X24392000Y-8721340I-15000J0D01*
G01*
X24392000Y-8721340D02*
G75*
G02*
X24422000Y-8721340I15000J0D01*
G01*
X24422200Y-13396600D02*
G75*
G02*
X24392200Y-13396600I-15000J0D01*
G01*
X24392200Y-13396600D02*
G75*
G02*
X24422200Y-13396600I15000J0D01*
G01*
X24422400Y-6323350D02*
G75*
G02*
X24392400Y-6323350I-15000J0D01*
G01*
X24392400Y-6323350D02*
G75*
G02*
X24422400Y-6323350I15000J0D01*
G01*
X24422800Y-10303600D02*
G75*
G02*
X24392800Y-10303600I-15000J0D01*
G01*
X24392800Y-10303600D02*
G75*
G02*
X24422800Y-10303600I15000J0D01*
G01*
X24424100Y-7603680D02*
G75*
G02*
X24394100Y-7603680I-15000J0D01*
G01*
X24394100Y-7603680D02*
G75*
G02*
X24424100Y-7603680I15000J0D01*
G01*
X24425000Y-4095000D02*
G75*
G02*
X24395000Y-4095000I-15000J0D01*
G01*
X24395000Y-4095000D02*
G75*
G02*
X24425000Y-4095000I15000J0D01*
G01*
X24425000Y-4476000D02*
G75*
G02*
X24395000Y-4476000I-15000J0D01*
G01*
X24395000Y-4476000D02*
G75*
G02*
X24425000Y-4476000I15000J0D01*
G01*
X24425000Y-7220000D02*
G75*
G02*
X24395000Y-7220000I-15000J0D01*
G01*
X24395000Y-7220000D02*
G75*
G02*
X24425000Y-7220000I15000J0D01*
G01*
X24425000Y-11830400D02*
G75*
G02*
X24395000Y-11830400I-15000J0D01*
G01*
X24395000Y-11830400D02*
G75*
G02*
X24425000Y-11830400I15000J0D01*
G01*
X24426000Y-3601000D02*
G75*
G02*
X24396000Y-3601000I-15000J0D01*
G01*
X24396000Y-3601000D02*
G75*
G02*
X24426000Y-3601000I15000J0D01*
G01*
X24505000Y-15015000D02*
G75*
G02*
X24475000Y-15015000I-15000J0D01*
G01*
X24475000Y-15015000D02*
G75*
G02*
X24505000Y-15015000I15000J0D01*
G01*
X24550000Y-14515000D02*
G75*
G02*
X24520000Y-14515000I-15000J0D01*
G01*
X24520000Y-14515000D02*
G75*
G02*
X24550000Y-14515000I15000J0D01*
G01*
X24570000Y-13925000D02*
G75*
G02*
X24540000Y-13925000I-15000J0D01*
G01*
X24540000Y-13925000D02*
G75*
G02*
X24570000Y-13925000I15000J0D01*
G01*
X16402500Y-12109500D02*
X16402500Y-12209500D01*
X16352500Y-12159500D02*
X16452500Y-12159500D01*
X16402500Y-12363500D02*
X16402500Y-12463500D01*
X16352500Y-12413500D02*
X16452500Y-12413500D01*
X16402500Y-12617500D02*
X16402500Y-12717500D01*
X16352500Y-12667500D02*
X16452500Y-12667500D01*
X16402500Y-12871500D02*
X16402500Y-12971500D01*
X16352500Y-12921500D02*
X16452500Y-12921500D01*
X16402500Y-13125500D02*
X16402500Y-13225500D01*
X16352500Y-13175500D02*
X16452500Y-13175500D01*
X16402500Y-13379500D02*
X16402500Y-13479500D01*
X16352500Y-13429500D02*
X16452500Y-13429500D01*
X16402500Y-13633500D02*
X16402500Y-13733500D01*
X16352500Y-13683500D02*
X16452500Y-13683500D01*
X16402500Y-13887500D02*
X16402500Y-13987500D01*
X16352500Y-13937500D02*
X16452500Y-13937500D01*
X16402500Y-14141500D02*
X16402500Y-14241500D01*
X16352500Y-14191500D02*
X16452500Y-14191500D01*
X16866000Y-9630000D02*
X16866000Y-9730000D01*
X16816000Y-9680000D02*
X16916000Y-9680000D01*
X16866000Y-9884000D02*
X16866000Y-9984000D01*
X16816000Y-9934000D02*
X16916000Y-9934000D01*
X16866000Y-10138000D02*
X16866000Y-10238000D01*
X16816000Y-10188000D02*
X16916000Y-10188000D01*
X16866000Y-10392000D02*
X16866000Y-10492000D01*
X16816000Y-10442000D02*
X16916000Y-10442000D01*
X16866000Y-10646000D02*
X16866000Y-10746000D01*
X16816000Y-10696000D02*
X16916000Y-10696000D01*
X16866000Y-10900000D02*
X16866000Y-11000000D01*
X16816000Y-10950000D02*
X16916000Y-10950000D01*
X16866000Y-11154000D02*
X16866000Y-11254000D01*
X16816000Y-11204000D02*
X16916000Y-11204000D01*
X16866000Y-11408000D02*
X16866000Y-11508000D01*
X16816000Y-11458000D02*
X16916000Y-11458000D01*
X16866000Y-12416000D02*
X16866000Y-12516000D01*
X16816000Y-12466000D02*
X16916000Y-12466000D01*
X16866000Y-12670000D02*
X16866000Y-12770000D01*
X16816000Y-12720000D02*
X16916000Y-12720000D01*
X16866000Y-12924000D02*
X16866000Y-13024000D01*
X16816000Y-12974000D02*
X16916000Y-12974000D01*
X16866000Y-13178000D02*
X16866000Y-13278000D01*
X16816000Y-13228000D02*
X16916000Y-13228000D01*
X16866000Y-13432000D02*
X16866000Y-13532000D01*
X16816000Y-13482000D02*
X16916000Y-13482000D01*
X16866000Y-13686000D02*
X16866000Y-13786000D01*
X16816000Y-13736000D02*
X16916000Y-13736000D01*
X16866000Y-13940000D02*
X16866000Y-14040000D01*
X16816000Y-13990000D02*
X16916000Y-13990000D01*
X16866000Y-14194000D02*
X16866000Y-14294000D01*
X16816000Y-14244000D02*
X16916000Y-14244000D01*
X17628000Y-9630000D02*
X17628000Y-9730000D01*
X17578000Y-9680000D02*
X17678000Y-9680000D01*
X17628000Y-9884000D02*
X17628000Y-9984000D01*
X17578000Y-9934000D02*
X17678000Y-9934000D01*
X17628000Y-10138000D02*
X17628000Y-10238000D01*
X17578000Y-10188000D02*
X17678000Y-10188000D01*
X17628000Y-10392000D02*
X17628000Y-10492000D01*
X17578000Y-10442000D02*
X17678000Y-10442000D01*
X17628000Y-10646000D02*
X17628000Y-10746000D01*
X17578000Y-10696000D02*
X17678000Y-10696000D01*
X17628000Y-10900000D02*
X17628000Y-11000000D01*
X17578000Y-10950000D02*
X17678000Y-10950000D01*
X17628000Y-11154000D02*
X17628000Y-11254000D01*
X17578000Y-11204000D02*
X17678000Y-11204000D01*
X17628000Y-11408000D02*
X17628000Y-11508000D01*
X17578000Y-11458000D02*
X17678000Y-11458000D01*
X17628000Y-12416000D02*
X17628000Y-12516000D01*
X17578000Y-12466000D02*
X17678000Y-12466000D01*
X17628000Y-12670000D02*
X17628000Y-12770000D01*
X17578000Y-12720000D02*
X17678000Y-12720000D01*
X17628000Y-12924000D02*
X17628000Y-13024000D01*
X17578000Y-12974000D02*
X17678000Y-12974000D01*
X17628000Y-13178000D02*
X17628000Y-13278000D01*
X17578000Y-13228000D02*
X17678000Y-13228000D01*
X17628000Y-13432000D02*
X17628000Y-13532000D01*
X17578000Y-13482000D02*
X17678000Y-13482000D01*
X17628000Y-13686000D02*
X17628000Y-13786000D01*
X17578000Y-13736000D02*
X17678000Y-13736000D01*
X17628000Y-13940000D02*
X17628000Y-14040000D01*
X17578000Y-13990000D02*
X17678000Y-13990000D01*
X17628000Y-14194000D02*
X17628000Y-14294000D01*
X17578000Y-14244000D02*
X17678000Y-14244000D01*
X17728000Y-5945140D02*
X17728000Y-6045140D01*
X17678000Y-5995140D02*
X17778000Y-5995140D01*
X17728000Y-6199140D02*
X17728000Y-6299140D01*
X17678000Y-6249140D02*
X17778000Y-6249140D01*
X17728000Y-6453140D02*
X17728000Y-6553140D01*
X17678000Y-6503140D02*
X17778000Y-6503140D01*
X17728000Y-6707140D02*
X17728000Y-6807140D01*
X17678000Y-6757140D02*
X17778000Y-6757140D01*
X17728000Y-6961140D02*
X17728000Y-7061140D01*
X17678000Y-7011140D02*
X17778000Y-7011140D01*
X17728000Y-7215140D02*
X17728000Y-7315140D01*
X17678000Y-7265140D02*
X17778000Y-7265140D01*
X17728000Y-7469140D02*
X17728000Y-7569140D01*
X17678000Y-7519140D02*
X17778000Y-7519140D01*
X17728000Y-7723140D02*
X17728000Y-7823140D01*
X17678000Y-7773140D02*
X17778000Y-7773140D01*
X17728000Y-7977140D02*
X17728000Y-8077140D01*
X17678000Y-8027140D02*
X17778000Y-8027140D01*
X17728000Y-8231140D02*
X17728000Y-8331140D01*
X17678000Y-8281140D02*
X17778000Y-8281140D01*
X18490000Y-5945140D02*
X18490000Y-6045140D01*
X18440000Y-5995140D02*
X18540000Y-5995140D01*
X18490000Y-6199140D02*
X18490000Y-6299140D01*
X18440000Y-6249140D02*
X18540000Y-6249140D01*
X18490000Y-6453140D02*
X18490000Y-6553140D01*
X18440000Y-6503140D02*
X18540000Y-6503140D01*
X18490000Y-6707140D02*
X18490000Y-6807140D01*
X18440000Y-6757140D02*
X18540000Y-6757140D01*
X18490000Y-6961140D02*
X18490000Y-7061140D01*
X18440000Y-7011140D02*
X18540000Y-7011140D01*
X18490000Y-7215140D02*
X18490000Y-7315140D01*
X18440000Y-7265140D02*
X18540000Y-7265140D01*
X18490000Y-7469140D02*
X18490000Y-7569140D01*
X18440000Y-7519140D02*
X18540000Y-7519140D01*
X18490000Y-7723140D02*
X18490000Y-7823140D01*
X18440000Y-7773140D02*
X18540000Y-7773140D01*
X18490000Y-7977140D02*
X18490000Y-8077140D01*
X18440000Y-8027140D02*
X18540000Y-8027140D01*
X18490000Y-8231140D02*
X18490000Y-8331140D01*
X18440000Y-8281140D02*
X18540000Y-8281140D01*
X19238000Y-5945140D02*
X19238000Y-6045140D01*
X19188000Y-5995140D02*
X19288000Y-5995140D01*
X19238000Y-6199140D02*
X19238000Y-6299140D01*
X19188000Y-6249140D02*
X19288000Y-6249140D01*
X19238000Y-6453140D02*
X19238000Y-6553140D01*
X19188000Y-6503140D02*
X19288000Y-6503140D01*
X19238000Y-6707140D02*
X19238000Y-6807140D01*
X19188000Y-6757140D02*
X19288000Y-6757140D01*
X19238000Y-6961140D02*
X19238000Y-7061140D01*
X19188000Y-7011140D02*
X19288000Y-7011140D01*
X19238000Y-7215140D02*
X19238000Y-7315140D01*
X19188000Y-7265140D02*
X19288000Y-7265140D01*
X19238000Y-7469140D02*
X19238000Y-7569140D01*
X19188000Y-7519140D02*
X19288000Y-7519140D01*
X19238000Y-7723140D02*
X19238000Y-7823140D01*
X19188000Y-7773140D02*
X19288000Y-7773140D01*
X19238000Y-7977140D02*
X19238000Y-8077140D01*
X19188000Y-8027140D02*
X19288000Y-8027140D01*
X19238000Y-8231140D02*
X19238000Y-8331140D01*
X19188000Y-8281140D02*
X19288000Y-8281140D01*
X20000000Y-5945140D02*
X20000000Y-6045140D01*
X19950000Y-5995140D02*
X20050000Y-5995140D01*
X20000000Y-6199140D02*
X20000000Y-6299140D01*
X19950000Y-6249140D02*
X20050000Y-6249140D01*
X20000000Y-6453140D02*
X20000000Y-6553140D01*
X19950000Y-6503140D02*
X20050000Y-6503140D01*
X20000000Y-6707140D02*
X20000000Y-6807140D01*
X19950000Y-6757140D02*
X20050000Y-6757140D01*
X20000000Y-6961140D02*
X20000000Y-7061140D01*
X19950000Y-7011140D02*
X20050000Y-7011140D01*
X20000000Y-7215140D02*
X20000000Y-7315140D01*
X19950000Y-7265140D02*
X20050000Y-7265140D01*
X20000000Y-7469140D02*
X20000000Y-7569140D01*
X19950000Y-7519140D02*
X20050000Y-7519140D01*
X20000000Y-7723140D02*
X20000000Y-7823140D01*
X19950000Y-7773140D02*
X20050000Y-7773140D01*
X20000000Y-7977140D02*
X20000000Y-8077140D01*
X19950000Y-8027140D02*
X20050000Y-8027140D01*
X20000000Y-8231140D02*
X20000000Y-8331140D01*
X19950000Y-8281140D02*
X20050000Y-8281140D01*
D11*
X15603277Y-15618984D02*
X15603277Y-15418984D01*
X15603277Y-15418984D02*
X15650896Y-15418984D01*
X15650896Y-15418984D02*
X15679467Y-15428508D01*
X15679467Y-15428508D02*
X15698515Y-15447555D01*
X15698515Y-15447555D02*
X15708039Y-15466603D01*
X15708039Y-15466603D02*
X15717562Y-15504698D01*
X15717562Y-15504698D02*
X15717562Y-15533269D01*
X15717562Y-15533269D02*
X15708039Y-15571365D01*
X15708039Y-15571365D02*
X15698515Y-15590412D01*
X15698515Y-15590412D02*
X15679467Y-15609460D01*
X15679467Y-15609460D02*
X15650896Y-15618984D01*
X15650896Y-15618984D02*
X15603277Y-15618984D01*
X15803277Y-15618984D02*
X15803277Y-15485650D01*
X15803277Y-15523746D02*
X15812801Y-15504698D01*
X15812801Y-15504698D02*
X15822324Y-15495174D01*
X15822324Y-15495174D02*
X15841372Y-15485650D01*
X15841372Y-15485650D02*
X15860420Y-15485650D01*
X15927086Y-15618984D02*
X15927086Y-15485650D01*
X15927086Y-15418984D02*
X15917562Y-15428508D01*
X15917562Y-15428508D02*
X15927086Y-15438031D01*
X15927086Y-15438031D02*
X15936610Y-15428508D01*
X15936610Y-15428508D02*
X15927086Y-15418984D01*
X15927086Y-15418984D02*
X15927086Y-15438031D01*
X16050896Y-15618984D02*
X16031848Y-15609460D01*
X16031848Y-15609460D02*
X16022324Y-15590412D01*
X16022324Y-15590412D02*
X16022324Y-15418984D01*
X16155658Y-15618984D02*
X16136610Y-15609460D01*
X16136610Y-15609460D02*
X16127086Y-15590412D01*
X16127086Y-15590412D02*
X16127086Y-15418984D01*
X16384229Y-15618984D02*
X16384229Y-15418984D01*
X16384229Y-15418984D02*
X16450896Y-15561841D01*
X16450896Y-15561841D02*
X16517562Y-15418984D01*
X16517562Y-15418984D02*
X16517562Y-15618984D01*
X16698515Y-15618984D02*
X16698515Y-15514222D01*
X16698515Y-15514222D02*
X16688991Y-15495174D01*
X16688991Y-15495174D02*
X16669943Y-15485650D01*
X16669943Y-15485650D02*
X16631848Y-15485650D01*
X16631848Y-15485650D02*
X16612801Y-15495174D01*
X16698515Y-15609460D02*
X16679467Y-15618984D01*
X16679467Y-15618984D02*
X16631848Y-15618984D01*
X16631848Y-15618984D02*
X16612801Y-15609460D01*
X16612801Y-15609460D02*
X16603277Y-15590412D01*
X16603277Y-15590412D02*
X16603277Y-15571365D01*
X16603277Y-15571365D02*
X16612801Y-15552317D01*
X16612801Y-15552317D02*
X16631848Y-15542793D01*
X16631848Y-15542793D02*
X16679467Y-15542793D01*
X16679467Y-15542793D02*
X16698515Y-15533269D01*
X16793753Y-15485650D02*
X16793753Y-15685650D01*
X16793753Y-15495174D02*
X16812801Y-15485650D01*
X16812801Y-15485650D02*
X16850896Y-15485650D01*
X16850896Y-15485650D02*
X16869944Y-15495174D01*
X16869944Y-15495174D02*
X16879467Y-15504698D01*
X16879467Y-15504698D02*
X16888991Y-15523746D01*
X16888991Y-15523746D02*
X16888991Y-15580888D01*
X16888991Y-15580888D02*
X16879467Y-15599936D01*
X16879467Y-15599936D02*
X16869944Y-15609460D01*
X16869944Y-15609460D02*
X16850896Y-15618984D01*
X16850896Y-15618984D02*
X16812801Y-15618984D01*
X16812801Y-15618984D02*
X16793753Y-15609460D01*
X16974705Y-15599936D02*
X16984229Y-15609460D01*
X16984229Y-15609460D02*
X16974705Y-15618984D01*
X16974705Y-15618984D02*
X16965182Y-15609460D01*
X16965182Y-15609460D02*
X16974705Y-15599936D01*
X16974705Y-15599936D02*
X16974705Y-15618984D01*
X16974705Y-15495174D02*
X16984229Y-15504698D01*
X16984229Y-15504698D02*
X16974705Y-15514222D01*
X16974705Y-15514222D02*
X16965182Y-15504698D01*
X16965182Y-15504698D02*
X16974705Y-15495174D01*
X16974705Y-15495174D02*
X16974705Y-15514222D01*
D12*
X15322500Y-15937500D02*
X15342500Y-15957500D01*
X15342500Y-15937500D02*
X15322500Y-15957500D01*
D11*
X15641372Y-15838984D02*
X15660420Y-15838984D01*
X15660420Y-15838984D02*
X15679467Y-15848508D01*
X15679467Y-15848508D02*
X15688991Y-15858031D01*
X15688991Y-15858031D02*
X15698515Y-15877079D01*
X15698515Y-15877079D02*
X15708039Y-15915174D01*
X15708039Y-15915174D02*
X15708039Y-15962793D01*
X15708039Y-15962793D02*
X15698515Y-16000888D01*
X15698515Y-16000888D02*
X15688991Y-16019936D01*
X15688991Y-16019936D02*
X15679467Y-16029460D01*
X15679467Y-16029460D02*
X15660420Y-16038984D01*
X15660420Y-16038984D02*
X15641372Y-16038984D01*
X15641372Y-16038984D02*
X15622324Y-16029460D01*
X15622324Y-16029460D02*
X15612801Y-16019936D01*
X15612801Y-16019936D02*
X15603277Y-16000888D01*
X15603277Y-16000888D02*
X15593753Y-15962793D01*
X15593753Y-15962793D02*
X15593753Y-15915174D01*
X15593753Y-15915174D02*
X15603277Y-15877079D01*
X15603277Y-15877079D02*
X15612801Y-15858031D01*
X15612801Y-15858031D02*
X15622324Y-15848508D01*
X15622324Y-15848508D02*
X15641372Y-15838984D01*
X15793753Y-16019936D02*
X15803277Y-16029460D01*
X15803277Y-16029460D02*
X15793753Y-16038984D01*
X15793753Y-16038984D02*
X15784229Y-16029460D01*
X15784229Y-16029460D02*
X15793753Y-16019936D01*
X15793753Y-16019936D02*
X15793753Y-16038984D01*
X15879467Y-15858031D02*
X15888991Y-15848508D01*
X15888991Y-15848508D02*
X15908039Y-15838984D01*
X15908039Y-15838984D02*
X15955658Y-15838984D01*
X15955658Y-15838984D02*
X15974705Y-15848508D01*
X15974705Y-15848508D02*
X15984229Y-15858031D01*
X15984229Y-15858031D02*
X15993753Y-15877079D01*
X15993753Y-15877079D02*
X15993753Y-15896127D01*
X15993753Y-15896127D02*
X15984229Y-15924698D01*
X15984229Y-15924698D02*
X15869943Y-16038984D01*
X15869943Y-16038984D02*
X15993753Y-16038984D01*
X16117562Y-15838984D02*
X16136610Y-15838984D01*
X16136610Y-15838984D02*
X16155658Y-15848508D01*
X16155658Y-15848508D02*
X16165182Y-15858031D01*
X16165182Y-15858031D02*
X16174705Y-15877079D01*
X16174705Y-15877079D02*
X16184229Y-15915174D01*
X16184229Y-15915174D02*
X16184229Y-15962793D01*
X16184229Y-15962793D02*
X16174705Y-16000888D01*
X16174705Y-16000888D02*
X16165182Y-16019936D01*
X16165182Y-16019936D02*
X16155658Y-16029460D01*
X16155658Y-16029460D02*
X16136610Y-16038984D01*
X16136610Y-16038984D02*
X16117562Y-16038984D01*
X16117562Y-16038984D02*
X16098515Y-16029460D01*
X16098515Y-16029460D02*
X16088991Y-16019936D01*
X16088991Y-16019936D02*
X16079467Y-16000888D01*
X16079467Y-16000888D02*
X16069943Y-15962793D01*
X16069943Y-15962793D02*
X16069943Y-15915174D01*
X16069943Y-15915174D02*
X16079467Y-15877079D01*
X16079467Y-15877079D02*
X16088991Y-15858031D01*
X16088991Y-15858031D02*
X16098515Y-15848508D01*
X16098515Y-15848508D02*
X16117562Y-15838984D01*
X16308039Y-15838984D02*
X16327086Y-15838984D01*
X16327086Y-15838984D02*
X16346134Y-15848508D01*
X16346134Y-15848508D02*
X16355658Y-15858031D01*
X16355658Y-15858031D02*
X16365182Y-15877079D01*
X16365182Y-15877079D02*
X16374705Y-15915174D01*
X16374705Y-15915174D02*
X16374705Y-15962793D01*
X16374705Y-15962793D02*
X16365182Y-16000888D01*
X16365182Y-16000888D02*
X16355658Y-16019936D01*
X16355658Y-16019936D02*
X16346134Y-16029460D01*
X16346134Y-16029460D02*
X16327086Y-16038984D01*
X16327086Y-16038984D02*
X16308039Y-16038984D01*
X16308039Y-16038984D02*
X16288991Y-16029460D01*
X16288991Y-16029460D02*
X16279467Y-16019936D01*
X16279467Y-16019936D02*
X16269943Y-16000888D01*
X16269943Y-16000888D02*
X16260420Y-15962793D01*
X16260420Y-15962793D02*
X16260420Y-15915174D01*
X16260420Y-15915174D02*
X16269943Y-15877079D01*
X16269943Y-15877079D02*
X16279467Y-15858031D01*
X16279467Y-15858031D02*
X16288991Y-15848508D01*
X16288991Y-15848508D02*
X16308039Y-15838984D01*
X16460420Y-16038984D02*
X16460420Y-15905650D01*
X16460420Y-15924698D02*
X16469943Y-15915174D01*
X16469943Y-15915174D02*
X16488991Y-15905650D01*
X16488991Y-15905650D02*
X16517563Y-15905650D01*
X16517563Y-15905650D02*
X16536610Y-15915174D01*
X16536610Y-15915174D02*
X16546134Y-15934222D01*
X16546134Y-15934222D02*
X16546134Y-16038984D01*
X16546134Y-15934222D02*
X16555658Y-15915174D01*
X16555658Y-15915174D02*
X16574705Y-15905650D01*
X16574705Y-15905650D02*
X16603277Y-15905650D01*
X16603277Y-15905650D02*
X16622324Y-15915174D01*
X16622324Y-15915174D02*
X16631848Y-15934222D01*
X16631848Y-15934222D02*
X16631848Y-16038984D01*
X16727086Y-16038984D02*
X16727086Y-15905650D01*
X16727086Y-15924698D02*
X16736610Y-15915174D01*
X16736610Y-15915174D02*
X16755658Y-15905650D01*
X16755658Y-15905650D02*
X16784229Y-15905650D01*
X16784229Y-15905650D02*
X16803277Y-15915174D01*
X16803277Y-15915174D02*
X16812801Y-15934222D01*
X16812801Y-15934222D02*
X16812801Y-16038984D01*
X16812801Y-15934222D02*
X16822325Y-15915174D01*
X16822325Y-15915174D02*
X16841372Y-15905650D01*
X16841372Y-15905650D02*
X16869944Y-15905650D01*
X16869944Y-15905650D02*
X16888991Y-15915174D01*
X16888991Y-15915174D02*
X16898515Y-15934222D01*
X16898515Y-15934222D02*
X16898515Y-16038984D01*
X17288991Y-15829460D02*
X17117563Y-16086603D01*
X17546134Y-15838984D02*
X17565182Y-15838984D01*
X17565182Y-15838984D02*
X17584229Y-15848508D01*
X17584229Y-15848508D02*
X17593753Y-15858031D01*
X17593753Y-15858031D02*
X17603277Y-15877079D01*
X17603277Y-15877079D02*
X17612801Y-15915174D01*
X17612801Y-15915174D02*
X17612801Y-15962793D01*
X17612801Y-15962793D02*
X17603277Y-16000888D01*
X17603277Y-16000888D02*
X17593753Y-16019936D01*
X17593753Y-16019936D02*
X17584229Y-16029460D01*
X17584229Y-16029460D02*
X17565182Y-16038984D01*
X17565182Y-16038984D02*
X17546134Y-16038984D01*
X17546134Y-16038984D02*
X17527087Y-16029460D01*
X17527087Y-16029460D02*
X17517563Y-16019936D01*
X17517563Y-16019936D02*
X17508039Y-16000888D01*
X17508039Y-16000888D02*
X17498515Y-15962793D01*
X17498515Y-15962793D02*
X17498515Y-15915174D01*
X17498515Y-15915174D02*
X17508039Y-15877079D01*
X17508039Y-15877079D02*
X17517563Y-15858031D01*
X17517563Y-15858031D02*
X17527087Y-15848508D01*
X17527087Y-15848508D02*
X17546134Y-15838984D01*
X17698515Y-16019936D02*
X17708039Y-16029460D01*
X17708039Y-16029460D02*
X17698515Y-16038984D01*
X17698515Y-16038984D02*
X17688991Y-16029460D01*
X17688991Y-16029460D02*
X17698515Y-16019936D01*
X17698515Y-16019936D02*
X17698515Y-16038984D01*
X17831848Y-15838984D02*
X17850896Y-15838984D01*
X17850896Y-15838984D02*
X17869944Y-15848508D01*
X17869944Y-15848508D02*
X17879468Y-15858031D01*
X17879468Y-15858031D02*
X17888991Y-15877079D01*
X17888991Y-15877079D02*
X17898515Y-15915174D01*
X17898515Y-15915174D02*
X17898515Y-15962793D01*
X17898515Y-15962793D02*
X17888991Y-16000888D01*
X17888991Y-16000888D02*
X17879468Y-16019936D01*
X17879468Y-16019936D02*
X17869944Y-16029460D01*
X17869944Y-16029460D02*
X17850896Y-16038984D01*
X17850896Y-16038984D02*
X17831848Y-16038984D01*
X17831848Y-16038984D02*
X17812801Y-16029460D01*
X17812801Y-16029460D02*
X17803277Y-16019936D01*
X17803277Y-16019936D02*
X17793753Y-16000888D01*
X17793753Y-16000888D02*
X17784229Y-15962793D01*
X17784229Y-15962793D02*
X17784229Y-15915174D01*
X17784229Y-15915174D02*
X17793753Y-15877079D01*
X17793753Y-15877079D02*
X17803277Y-15858031D01*
X17803277Y-15858031D02*
X17812801Y-15848508D01*
X17812801Y-15848508D02*
X17831848Y-15838984D01*
X18022325Y-15838984D02*
X18041372Y-15838984D01*
X18041372Y-15838984D02*
X18060420Y-15848508D01*
X18060420Y-15848508D02*
X18069944Y-15858031D01*
X18069944Y-15858031D02*
X18079468Y-15877079D01*
X18079468Y-15877079D02*
X18088991Y-15915174D01*
X18088991Y-15915174D02*
X18088991Y-15962793D01*
X18088991Y-15962793D02*
X18079468Y-16000888D01*
X18079468Y-16000888D02*
X18069944Y-16019936D01*
X18069944Y-16019936D02*
X18060420Y-16029460D01*
X18060420Y-16029460D02*
X18041372Y-16038984D01*
X18041372Y-16038984D02*
X18022325Y-16038984D01*
X18022325Y-16038984D02*
X18003277Y-16029460D01*
X18003277Y-16029460D02*
X17993753Y-16019936D01*
X17993753Y-16019936D02*
X17984229Y-16000888D01*
X17984229Y-16000888D02*
X17974706Y-15962793D01*
X17974706Y-15962793D02*
X17974706Y-15915174D01*
X17974706Y-15915174D02*
X17984229Y-15877079D01*
X17984229Y-15877079D02*
X17993753Y-15858031D01*
X17993753Y-15858031D02*
X18003277Y-15848508D01*
X18003277Y-15848508D02*
X18022325Y-15838984D01*
X18155658Y-15838984D02*
X18288991Y-15838984D01*
X18288991Y-15838984D02*
X18203277Y-16038984D01*
X18374706Y-16038984D02*
X18412801Y-16038984D01*
X18412801Y-16038984D02*
X18431849Y-16029460D01*
X18431849Y-16029460D02*
X18441372Y-16019936D01*
X18441372Y-16019936D02*
X18460420Y-15991365D01*
X18460420Y-15991365D02*
X18469944Y-15953269D01*
X18469944Y-15953269D02*
X18469944Y-15877079D01*
X18469944Y-15877079D02*
X18460420Y-15858031D01*
X18460420Y-15858031D02*
X18450896Y-15848508D01*
X18450896Y-15848508D02*
X18431849Y-15838984D01*
X18431849Y-15838984D02*
X18393753Y-15838984D01*
X18393753Y-15838984D02*
X18374706Y-15848508D01*
X18374706Y-15848508D02*
X18365182Y-15858031D01*
X18365182Y-15858031D02*
X18355658Y-15877079D01*
X18355658Y-15877079D02*
X18355658Y-15924698D01*
X18355658Y-15924698D02*
X18365182Y-15943746D01*
X18365182Y-15943746D02*
X18374706Y-15953269D01*
X18374706Y-15953269D02*
X18393753Y-15962793D01*
X18393753Y-15962793D02*
X18431849Y-15962793D01*
X18431849Y-15962793D02*
X18450896Y-15953269D01*
X18450896Y-15953269D02*
X18460420Y-15943746D01*
X18460420Y-15943746D02*
X18469944Y-15924698D01*
X18546134Y-15838984D02*
X18546134Y-15877079D01*
X18622325Y-15838984D02*
X18622325Y-15877079D01*
X18917563Y-16115174D02*
X18908039Y-16105650D01*
X18908039Y-16105650D02*
X18888991Y-16077079D01*
X18888991Y-16077079D02*
X18879468Y-16058031D01*
X18879468Y-16058031D02*
X18869944Y-16029460D01*
X18869944Y-16029460D02*
X18860420Y-15981841D01*
X18860420Y-15981841D02*
X18860420Y-15943746D01*
X18860420Y-15943746D02*
X18869944Y-15896127D01*
X18869944Y-15896127D02*
X18879468Y-15867555D01*
X18879468Y-15867555D02*
X18888991Y-15848508D01*
X18888991Y-15848508D02*
X18908039Y-15819936D01*
X18908039Y-15819936D02*
X18917563Y-15810412D01*
X19098515Y-16038984D02*
X18984230Y-16038984D01*
X19041372Y-16038984D02*
X19041372Y-15838984D01*
X19041372Y-15838984D02*
X19022325Y-15867555D01*
X19022325Y-15867555D02*
X19003277Y-15886603D01*
X19003277Y-15886603D02*
X18984230Y-15896127D01*
X19212801Y-15924698D02*
X19193753Y-15915174D01*
X19193753Y-15915174D02*
X19184230Y-15905650D01*
X19184230Y-15905650D02*
X19174706Y-15886603D01*
X19174706Y-15886603D02*
X19174706Y-15877079D01*
X19174706Y-15877079D02*
X19184230Y-15858031D01*
X19184230Y-15858031D02*
X19193753Y-15848508D01*
X19193753Y-15848508D02*
X19212801Y-15838984D01*
X19212801Y-15838984D02*
X19250896Y-15838984D01*
X19250896Y-15838984D02*
X19269944Y-15848508D01*
X19269944Y-15848508D02*
X19279468Y-15858031D01*
X19279468Y-15858031D02*
X19288991Y-15877079D01*
X19288991Y-15877079D02*
X19288991Y-15886603D01*
X19288991Y-15886603D02*
X19279468Y-15905650D01*
X19279468Y-15905650D02*
X19269944Y-15915174D01*
X19269944Y-15915174D02*
X19250896Y-15924698D01*
X19250896Y-15924698D02*
X19212801Y-15924698D01*
X19212801Y-15924698D02*
X19193753Y-15934222D01*
X19193753Y-15934222D02*
X19184230Y-15943746D01*
X19184230Y-15943746D02*
X19174706Y-15962793D01*
X19174706Y-15962793D02*
X19174706Y-16000888D01*
X19174706Y-16000888D02*
X19184230Y-16019936D01*
X19184230Y-16019936D02*
X19193753Y-16029460D01*
X19193753Y-16029460D02*
X19212801Y-16038984D01*
X19212801Y-16038984D02*
X19250896Y-16038984D01*
X19250896Y-16038984D02*
X19269944Y-16029460D01*
X19269944Y-16029460D02*
X19279468Y-16019936D01*
X19279468Y-16019936D02*
X19288991Y-16000888D01*
X19288991Y-16000888D02*
X19288991Y-15962793D01*
X19288991Y-15962793D02*
X19279468Y-15943746D01*
X19279468Y-15943746D02*
X19269944Y-15934222D01*
X19269944Y-15934222D02*
X19250896Y-15924698D01*
X19365182Y-15858031D02*
X19374706Y-15848508D01*
X19374706Y-15848508D02*
X19393753Y-15838984D01*
X19393753Y-15838984D02*
X19441372Y-15838984D01*
X19441372Y-15838984D02*
X19460420Y-15848508D01*
X19460420Y-15848508D02*
X19469944Y-15858031D01*
X19469944Y-15858031D02*
X19479468Y-15877079D01*
X19479468Y-15877079D02*
X19479468Y-15896127D01*
X19479468Y-15896127D02*
X19469944Y-15924698D01*
X19469944Y-15924698D02*
X19355658Y-16038984D01*
X19355658Y-16038984D02*
X19479468Y-16038984D01*
X19717563Y-16038984D02*
X19717563Y-15838984D01*
X19803277Y-16038984D02*
X19803277Y-15934222D01*
X19803277Y-15934222D02*
X19793753Y-15915174D01*
X19793753Y-15915174D02*
X19774706Y-15905650D01*
X19774706Y-15905650D02*
X19746134Y-15905650D01*
X19746134Y-15905650D02*
X19727087Y-15915174D01*
X19727087Y-15915174D02*
X19717563Y-15924698D01*
X19927087Y-16038984D02*
X19908039Y-16029460D01*
X19908039Y-16029460D02*
X19898515Y-16019936D01*
X19898515Y-16019936D02*
X19888992Y-16000888D01*
X19888992Y-16000888D02*
X19888992Y-15943746D01*
X19888992Y-15943746D02*
X19898515Y-15924698D01*
X19898515Y-15924698D02*
X19908039Y-15915174D01*
X19908039Y-15915174D02*
X19927087Y-15905650D01*
X19927087Y-15905650D02*
X19955658Y-15905650D01*
X19955658Y-15905650D02*
X19974706Y-15915174D01*
X19974706Y-15915174D02*
X19984230Y-15924698D01*
X19984230Y-15924698D02*
X19993753Y-15943746D01*
X19993753Y-15943746D02*
X19993753Y-16000888D01*
X19993753Y-16000888D02*
X19984230Y-16019936D01*
X19984230Y-16019936D02*
X19974706Y-16029460D01*
X19974706Y-16029460D02*
X19955658Y-16038984D01*
X19955658Y-16038984D02*
X19927087Y-16038984D01*
X20108039Y-16038984D02*
X20088992Y-16029460D01*
X20088992Y-16029460D02*
X20079468Y-16010412D01*
X20079468Y-16010412D02*
X20079468Y-15838984D01*
X20260420Y-16029460D02*
X20241373Y-16038984D01*
X20241373Y-16038984D02*
X20203277Y-16038984D01*
X20203277Y-16038984D02*
X20184230Y-16029460D01*
X20184230Y-16029460D02*
X20174706Y-16010412D01*
X20174706Y-16010412D02*
X20174706Y-15934222D01*
X20174706Y-15934222D02*
X20184230Y-15915174D01*
X20184230Y-15915174D02*
X20203277Y-15905650D01*
X20203277Y-15905650D02*
X20241373Y-15905650D01*
X20241373Y-15905650D02*
X20260420Y-15915174D01*
X20260420Y-15915174D02*
X20269944Y-15934222D01*
X20269944Y-15934222D02*
X20269944Y-15953269D01*
X20269944Y-15953269D02*
X20174706Y-15972317D01*
X20346134Y-16029460D02*
X20365182Y-16038984D01*
X20365182Y-16038984D02*
X20403277Y-16038984D01*
X20403277Y-16038984D02*
X20422325Y-16029460D01*
X20422325Y-16029460D02*
X20431849Y-16010412D01*
X20431849Y-16010412D02*
X20431849Y-16000888D01*
X20431849Y-16000888D02*
X20422325Y-15981841D01*
X20422325Y-15981841D02*
X20403277Y-15972317D01*
X20403277Y-15972317D02*
X20374706Y-15972317D01*
X20374706Y-15972317D02*
X20355658Y-15962793D01*
X20355658Y-15962793D02*
X20346134Y-15943746D01*
X20346134Y-15943746D02*
X20346134Y-15934222D01*
X20346134Y-15934222D02*
X20355658Y-15915174D01*
X20355658Y-15915174D02*
X20374706Y-15905650D01*
X20374706Y-15905650D02*
X20403277Y-15905650D01*
X20403277Y-15905650D02*
X20422325Y-15915174D01*
X20498515Y-16115174D02*
X20508039Y-16105650D01*
X20508039Y-16105650D02*
X20527087Y-16077079D01*
X20527087Y-16077079D02*
X20536611Y-16058031D01*
X20536611Y-16058031D02*
X20546134Y-16029460D01*
X20546134Y-16029460D02*
X20555658Y-15981841D01*
X20555658Y-15981841D02*
X20555658Y-15943746D01*
X20555658Y-15943746D02*
X20546134Y-15896127D01*
X20546134Y-15896127D02*
X20536611Y-15867555D01*
X20536611Y-15867555D02*
X20527087Y-15848508D01*
X20527087Y-15848508D02*
X20508039Y-15819936D01*
X20508039Y-15819936D02*
X20498515Y-15810412D01*
D12*
X15342500Y-16211500D02*
G75*
G02*
X15312500Y-16211500I-15000J0D01*
G01*
X15312500Y-16211500D02*
G75*
G02*
X15342500Y-16211500I15000J0D01*
G01*
D11*
X15641372Y-16102984D02*
X15660420Y-16102984D01*
X15660420Y-16102984D02*
X15679467Y-16112508D01*
X15679467Y-16112508D02*
X15688991Y-16122031D01*
X15688991Y-16122031D02*
X15698515Y-16141079D01*
X15698515Y-16141079D02*
X15708039Y-16179174D01*
X15708039Y-16179174D02*
X15708039Y-16226793D01*
X15708039Y-16226793D02*
X15698515Y-16264888D01*
X15698515Y-16264888D02*
X15688991Y-16283936D01*
X15688991Y-16283936D02*
X15679467Y-16293460D01*
X15679467Y-16293460D02*
X15660420Y-16302984D01*
X15660420Y-16302984D02*
X15641372Y-16302984D01*
X15641372Y-16302984D02*
X15622324Y-16293460D01*
X15622324Y-16293460D02*
X15612801Y-16283936D01*
X15612801Y-16283936D02*
X15603277Y-16264888D01*
X15603277Y-16264888D02*
X15593753Y-16226793D01*
X15593753Y-16226793D02*
X15593753Y-16179174D01*
X15593753Y-16179174D02*
X15603277Y-16141079D01*
X15603277Y-16141079D02*
X15612801Y-16122031D01*
X15612801Y-16122031D02*
X15622324Y-16112508D01*
X15622324Y-16112508D02*
X15641372Y-16102984D01*
X15793753Y-16283936D02*
X15803277Y-16293460D01*
X15803277Y-16293460D02*
X15793753Y-16302984D01*
X15793753Y-16302984D02*
X15784229Y-16293460D01*
X15784229Y-16293460D02*
X15793753Y-16283936D01*
X15793753Y-16283936D02*
X15793753Y-16302984D01*
X15869943Y-16102984D02*
X15993753Y-16102984D01*
X15993753Y-16102984D02*
X15927086Y-16179174D01*
X15927086Y-16179174D02*
X15955658Y-16179174D01*
X15955658Y-16179174D02*
X15974705Y-16188698D01*
X15974705Y-16188698D02*
X15984229Y-16198222D01*
X15984229Y-16198222D02*
X15993753Y-16217269D01*
X15993753Y-16217269D02*
X15993753Y-16264888D01*
X15993753Y-16264888D02*
X15984229Y-16283936D01*
X15984229Y-16283936D02*
X15974705Y-16293460D01*
X15974705Y-16293460D02*
X15955658Y-16302984D01*
X15955658Y-16302984D02*
X15898515Y-16302984D01*
X15898515Y-16302984D02*
X15879467Y-16293460D01*
X15879467Y-16293460D02*
X15869943Y-16283936D01*
X16117562Y-16102984D02*
X16136610Y-16102984D01*
X16136610Y-16102984D02*
X16155658Y-16112508D01*
X16155658Y-16112508D02*
X16165182Y-16122031D01*
X16165182Y-16122031D02*
X16174705Y-16141079D01*
X16174705Y-16141079D02*
X16184229Y-16179174D01*
X16184229Y-16179174D02*
X16184229Y-16226793D01*
X16184229Y-16226793D02*
X16174705Y-16264888D01*
X16174705Y-16264888D02*
X16165182Y-16283936D01*
X16165182Y-16283936D02*
X16155658Y-16293460D01*
X16155658Y-16293460D02*
X16136610Y-16302984D01*
X16136610Y-16302984D02*
X16117562Y-16302984D01*
X16117562Y-16302984D02*
X16098515Y-16293460D01*
X16098515Y-16293460D02*
X16088991Y-16283936D01*
X16088991Y-16283936D02*
X16079467Y-16264888D01*
X16079467Y-16264888D02*
X16069943Y-16226793D01*
X16069943Y-16226793D02*
X16069943Y-16179174D01*
X16069943Y-16179174D02*
X16079467Y-16141079D01*
X16079467Y-16141079D02*
X16088991Y-16122031D01*
X16088991Y-16122031D02*
X16098515Y-16112508D01*
X16098515Y-16112508D02*
X16117562Y-16102984D01*
X16308039Y-16102984D02*
X16327086Y-16102984D01*
X16327086Y-16102984D02*
X16346134Y-16112508D01*
X16346134Y-16112508D02*
X16355658Y-16122031D01*
X16355658Y-16122031D02*
X16365182Y-16141079D01*
X16365182Y-16141079D02*
X16374705Y-16179174D01*
X16374705Y-16179174D02*
X16374705Y-16226793D01*
X16374705Y-16226793D02*
X16365182Y-16264888D01*
X16365182Y-16264888D02*
X16355658Y-16283936D01*
X16355658Y-16283936D02*
X16346134Y-16293460D01*
X16346134Y-16293460D02*
X16327086Y-16302984D01*
X16327086Y-16302984D02*
X16308039Y-16302984D01*
X16308039Y-16302984D02*
X16288991Y-16293460D01*
X16288991Y-16293460D02*
X16279467Y-16283936D01*
X16279467Y-16283936D02*
X16269943Y-16264888D01*
X16269943Y-16264888D02*
X16260420Y-16226793D01*
X16260420Y-16226793D02*
X16260420Y-16179174D01*
X16260420Y-16179174D02*
X16269943Y-16141079D01*
X16269943Y-16141079D02*
X16279467Y-16122031D01*
X16279467Y-16122031D02*
X16288991Y-16112508D01*
X16288991Y-16112508D02*
X16308039Y-16102984D01*
X16460420Y-16302984D02*
X16460420Y-16169650D01*
X16460420Y-16188698D02*
X16469943Y-16179174D01*
X16469943Y-16179174D02*
X16488991Y-16169650D01*
X16488991Y-16169650D02*
X16517563Y-16169650D01*
X16517563Y-16169650D02*
X16536610Y-16179174D01*
X16536610Y-16179174D02*
X16546134Y-16198222D01*
X16546134Y-16198222D02*
X16546134Y-16302984D01*
X16546134Y-16198222D02*
X16555658Y-16179174D01*
X16555658Y-16179174D02*
X16574705Y-16169650D01*
X16574705Y-16169650D02*
X16603277Y-16169650D01*
X16603277Y-16169650D02*
X16622324Y-16179174D01*
X16622324Y-16179174D02*
X16631848Y-16198222D01*
X16631848Y-16198222D02*
X16631848Y-16302984D01*
X16727086Y-16302984D02*
X16727086Y-16169650D01*
X16727086Y-16188698D02*
X16736610Y-16179174D01*
X16736610Y-16179174D02*
X16755658Y-16169650D01*
X16755658Y-16169650D02*
X16784229Y-16169650D01*
X16784229Y-16169650D02*
X16803277Y-16179174D01*
X16803277Y-16179174D02*
X16812801Y-16198222D01*
X16812801Y-16198222D02*
X16812801Y-16302984D01*
X16812801Y-16198222D02*
X16822325Y-16179174D01*
X16822325Y-16179174D02*
X16841372Y-16169650D01*
X16841372Y-16169650D02*
X16869944Y-16169650D01*
X16869944Y-16169650D02*
X16888991Y-16179174D01*
X16888991Y-16179174D02*
X16898515Y-16198222D01*
X16898515Y-16198222D02*
X16898515Y-16302984D01*
X17288991Y-16093460D02*
X17117563Y-16350603D01*
X17546134Y-16102984D02*
X17565182Y-16102984D01*
X17565182Y-16102984D02*
X17584229Y-16112508D01*
X17584229Y-16112508D02*
X17593753Y-16122031D01*
X17593753Y-16122031D02*
X17603277Y-16141079D01*
X17603277Y-16141079D02*
X17612801Y-16179174D01*
X17612801Y-16179174D02*
X17612801Y-16226793D01*
X17612801Y-16226793D02*
X17603277Y-16264888D01*
X17603277Y-16264888D02*
X17593753Y-16283936D01*
X17593753Y-16283936D02*
X17584229Y-16293460D01*
X17584229Y-16293460D02*
X17565182Y-16302984D01*
X17565182Y-16302984D02*
X17546134Y-16302984D01*
X17546134Y-16302984D02*
X17527087Y-16293460D01*
X17527087Y-16293460D02*
X17517563Y-16283936D01*
X17517563Y-16283936D02*
X17508039Y-16264888D01*
X17508039Y-16264888D02*
X17498515Y-16226793D01*
X17498515Y-16226793D02*
X17498515Y-16179174D01*
X17498515Y-16179174D02*
X17508039Y-16141079D01*
X17508039Y-16141079D02*
X17517563Y-16122031D01*
X17517563Y-16122031D02*
X17527087Y-16112508D01*
X17527087Y-16112508D02*
X17546134Y-16102984D01*
X17698515Y-16283936D02*
X17708039Y-16293460D01*
X17708039Y-16293460D02*
X17698515Y-16302984D01*
X17698515Y-16302984D02*
X17688991Y-16293460D01*
X17688991Y-16293460D02*
X17698515Y-16283936D01*
X17698515Y-16283936D02*
X17698515Y-16302984D01*
X17831848Y-16102984D02*
X17850896Y-16102984D01*
X17850896Y-16102984D02*
X17869944Y-16112508D01*
X17869944Y-16112508D02*
X17879468Y-16122031D01*
X17879468Y-16122031D02*
X17888991Y-16141079D01*
X17888991Y-16141079D02*
X17898515Y-16179174D01*
X17898515Y-16179174D02*
X17898515Y-16226793D01*
X17898515Y-16226793D02*
X17888991Y-16264888D01*
X17888991Y-16264888D02*
X17879468Y-16283936D01*
X17879468Y-16283936D02*
X17869944Y-16293460D01*
X17869944Y-16293460D02*
X17850896Y-16302984D01*
X17850896Y-16302984D02*
X17831848Y-16302984D01*
X17831848Y-16302984D02*
X17812801Y-16293460D01*
X17812801Y-16293460D02*
X17803277Y-16283936D01*
X17803277Y-16283936D02*
X17793753Y-16264888D01*
X17793753Y-16264888D02*
X17784229Y-16226793D01*
X17784229Y-16226793D02*
X17784229Y-16179174D01*
X17784229Y-16179174D02*
X17793753Y-16141079D01*
X17793753Y-16141079D02*
X17803277Y-16122031D01*
X17803277Y-16122031D02*
X17812801Y-16112508D01*
X17812801Y-16112508D02*
X17831848Y-16102984D01*
X18088991Y-16302984D02*
X17974706Y-16302984D01*
X18031848Y-16302984D02*
X18031848Y-16102984D01*
X18031848Y-16102984D02*
X18012801Y-16131555D01*
X18012801Y-16131555D02*
X17993753Y-16150603D01*
X17993753Y-16150603D02*
X17974706Y-16160127D01*
X18279468Y-16302984D02*
X18165182Y-16302984D01*
X18222325Y-16302984D02*
X18222325Y-16102984D01*
X18222325Y-16102984D02*
X18203277Y-16131555D01*
X18203277Y-16131555D02*
X18184229Y-16150603D01*
X18184229Y-16150603D02*
X18165182Y-16160127D01*
X18393753Y-16188698D02*
X18374706Y-16179174D01*
X18374706Y-16179174D02*
X18365182Y-16169650D01*
X18365182Y-16169650D02*
X18355658Y-16150603D01*
X18355658Y-16150603D02*
X18355658Y-16141079D01*
X18355658Y-16141079D02*
X18365182Y-16122031D01*
X18365182Y-16122031D02*
X18374706Y-16112508D01*
X18374706Y-16112508D02*
X18393753Y-16102984D01*
X18393753Y-16102984D02*
X18431849Y-16102984D01*
X18431849Y-16102984D02*
X18450896Y-16112508D01*
X18450896Y-16112508D02*
X18460420Y-16122031D01*
X18460420Y-16122031D02*
X18469944Y-16141079D01*
X18469944Y-16141079D02*
X18469944Y-16150603D01*
X18469944Y-16150603D02*
X18460420Y-16169650D01*
X18460420Y-16169650D02*
X18450896Y-16179174D01*
X18450896Y-16179174D02*
X18431849Y-16188698D01*
X18431849Y-16188698D02*
X18393753Y-16188698D01*
X18393753Y-16188698D02*
X18374706Y-16198222D01*
X18374706Y-16198222D02*
X18365182Y-16207746D01*
X18365182Y-16207746D02*
X18355658Y-16226793D01*
X18355658Y-16226793D02*
X18355658Y-16264888D01*
X18355658Y-16264888D02*
X18365182Y-16283936D01*
X18365182Y-16283936D02*
X18374706Y-16293460D01*
X18374706Y-16293460D02*
X18393753Y-16302984D01*
X18393753Y-16302984D02*
X18431849Y-16302984D01*
X18431849Y-16302984D02*
X18450896Y-16293460D01*
X18450896Y-16293460D02*
X18460420Y-16283936D01*
X18460420Y-16283936D02*
X18469944Y-16264888D01*
X18469944Y-16264888D02*
X18469944Y-16226793D01*
X18469944Y-16226793D02*
X18460420Y-16207746D01*
X18460420Y-16207746D02*
X18450896Y-16198222D01*
X18450896Y-16198222D02*
X18431849Y-16188698D01*
X18546134Y-16102984D02*
X18546134Y-16141079D01*
X18622325Y-16102984D02*
X18622325Y-16141079D01*
X18917563Y-16379174D02*
X18908039Y-16369650D01*
X18908039Y-16369650D02*
X18888991Y-16341079D01*
X18888991Y-16341079D02*
X18879468Y-16322031D01*
X18879468Y-16322031D02*
X18869944Y-16293460D01*
X18869944Y-16293460D02*
X18860420Y-16245841D01*
X18860420Y-16245841D02*
X18860420Y-16207746D01*
X18860420Y-16207746D02*
X18869944Y-16160127D01*
X18869944Y-16160127D02*
X18879468Y-16131555D01*
X18879468Y-16131555D02*
X18888991Y-16112508D01*
X18888991Y-16112508D02*
X18908039Y-16083936D01*
X18908039Y-16083936D02*
X18917563Y-16074412D01*
X19098515Y-16302984D02*
X18984230Y-16302984D01*
X19041372Y-16302984D02*
X19041372Y-16102984D01*
X19041372Y-16102984D02*
X19022325Y-16131555D01*
X19022325Y-16131555D02*
X19003277Y-16150603D01*
X19003277Y-16150603D02*
X18984230Y-16160127D01*
X19193753Y-16302984D02*
X19231849Y-16302984D01*
X19231849Y-16302984D02*
X19250896Y-16293460D01*
X19250896Y-16293460D02*
X19260420Y-16283936D01*
X19260420Y-16283936D02*
X19279468Y-16255365D01*
X19279468Y-16255365D02*
X19288991Y-16217269D01*
X19288991Y-16217269D02*
X19288991Y-16141079D01*
X19288991Y-16141079D02*
X19279468Y-16122031D01*
X19279468Y-16122031D02*
X19269944Y-16112508D01*
X19269944Y-16112508D02*
X19250896Y-16102984D01*
X19250896Y-16102984D02*
X19212801Y-16102984D01*
X19212801Y-16102984D02*
X19193753Y-16112508D01*
X19193753Y-16112508D02*
X19184230Y-16122031D01*
X19184230Y-16122031D02*
X19174706Y-16141079D01*
X19174706Y-16141079D02*
X19174706Y-16188698D01*
X19174706Y-16188698D02*
X19184230Y-16207746D01*
X19184230Y-16207746D02*
X19193753Y-16217269D01*
X19193753Y-16217269D02*
X19212801Y-16226793D01*
X19212801Y-16226793D02*
X19250896Y-16226793D01*
X19250896Y-16226793D02*
X19269944Y-16217269D01*
X19269944Y-16217269D02*
X19279468Y-16207746D01*
X19279468Y-16207746D02*
X19288991Y-16188698D01*
X19365182Y-16122031D02*
X19374706Y-16112508D01*
X19374706Y-16112508D02*
X19393753Y-16102984D01*
X19393753Y-16102984D02*
X19441372Y-16102984D01*
X19441372Y-16102984D02*
X19460420Y-16112508D01*
X19460420Y-16112508D02*
X19469944Y-16122031D01*
X19469944Y-16122031D02*
X19479468Y-16141079D01*
X19479468Y-16141079D02*
X19479468Y-16160127D01*
X19479468Y-16160127D02*
X19469944Y-16188698D01*
X19469944Y-16188698D02*
X19355658Y-16302984D01*
X19355658Y-16302984D02*
X19479468Y-16302984D01*
X19717563Y-16302984D02*
X19717563Y-16102984D01*
X19803277Y-16302984D02*
X19803277Y-16198222D01*
X19803277Y-16198222D02*
X19793753Y-16179174D01*
X19793753Y-16179174D02*
X19774706Y-16169650D01*
X19774706Y-16169650D02*
X19746134Y-16169650D01*
X19746134Y-16169650D02*
X19727087Y-16179174D01*
X19727087Y-16179174D02*
X19717563Y-16188698D01*
X19927087Y-16302984D02*
X19908039Y-16293460D01*
X19908039Y-16293460D02*
X19898515Y-16283936D01*
X19898515Y-16283936D02*
X19888992Y-16264888D01*
X19888992Y-16264888D02*
X19888992Y-16207746D01*
X19888992Y-16207746D02*
X19898515Y-16188698D01*
X19898515Y-16188698D02*
X19908039Y-16179174D01*
X19908039Y-16179174D02*
X19927087Y-16169650D01*
X19927087Y-16169650D02*
X19955658Y-16169650D01*
X19955658Y-16169650D02*
X19974706Y-16179174D01*
X19974706Y-16179174D02*
X19984230Y-16188698D01*
X19984230Y-16188698D02*
X19993753Y-16207746D01*
X19993753Y-16207746D02*
X19993753Y-16264888D01*
X19993753Y-16264888D02*
X19984230Y-16283936D01*
X19984230Y-16283936D02*
X19974706Y-16293460D01*
X19974706Y-16293460D02*
X19955658Y-16302984D01*
X19955658Y-16302984D02*
X19927087Y-16302984D01*
X20108039Y-16302984D02*
X20088992Y-16293460D01*
X20088992Y-16293460D02*
X20079468Y-16274412D01*
X20079468Y-16274412D02*
X20079468Y-16102984D01*
X20260420Y-16293460D02*
X20241373Y-16302984D01*
X20241373Y-16302984D02*
X20203277Y-16302984D01*
X20203277Y-16302984D02*
X20184230Y-16293460D01*
X20184230Y-16293460D02*
X20174706Y-16274412D01*
X20174706Y-16274412D02*
X20174706Y-16198222D01*
X20174706Y-16198222D02*
X20184230Y-16179174D01*
X20184230Y-16179174D02*
X20203277Y-16169650D01*
X20203277Y-16169650D02*
X20241373Y-16169650D01*
X20241373Y-16169650D02*
X20260420Y-16179174D01*
X20260420Y-16179174D02*
X20269944Y-16198222D01*
X20269944Y-16198222D02*
X20269944Y-16217269D01*
X20269944Y-16217269D02*
X20174706Y-16236317D01*
X20346134Y-16293460D02*
X20365182Y-16302984D01*
X20365182Y-16302984D02*
X20403277Y-16302984D01*
X20403277Y-16302984D02*
X20422325Y-16293460D01*
X20422325Y-16293460D02*
X20431849Y-16274412D01*
X20431849Y-16274412D02*
X20431849Y-16264888D01*
X20431849Y-16264888D02*
X20422325Y-16245841D01*
X20422325Y-16245841D02*
X20403277Y-16236317D01*
X20403277Y-16236317D02*
X20374706Y-16236317D01*
X20374706Y-16236317D02*
X20355658Y-16226793D01*
X20355658Y-16226793D02*
X20346134Y-16207746D01*
X20346134Y-16207746D02*
X20346134Y-16198222D01*
X20346134Y-16198222D02*
X20355658Y-16179174D01*
X20355658Y-16179174D02*
X20374706Y-16169650D01*
X20374706Y-16169650D02*
X20403277Y-16169650D01*
X20403277Y-16169650D02*
X20422325Y-16179174D01*
X20498515Y-16379174D02*
X20508039Y-16369650D01*
X20508039Y-16369650D02*
X20527087Y-16341079D01*
X20527087Y-16341079D02*
X20536611Y-16322031D01*
X20536611Y-16322031D02*
X20546134Y-16293460D01*
X20546134Y-16293460D02*
X20555658Y-16245841D01*
X20555658Y-16245841D02*
X20555658Y-16207746D01*
X20555658Y-16207746D02*
X20546134Y-16160127D01*
X20546134Y-16160127D02*
X20536611Y-16131555D01*
X20536611Y-16131555D02*
X20527087Y-16112508D01*
X20527087Y-16112508D02*
X20508039Y-16083936D01*
X20508039Y-16083936D02*
X20498515Y-16074412D01*
D12*
X15292500Y-16425500D02*
X15292500Y-16525500D01*
X15242500Y-16475500D02*
X15342500Y-16475500D01*
D11*
X15708039Y-16566984D02*
X15593753Y-16566984D01*
X15650896Y-16566984D02*
X15650896Y-16366984D01*
X15650896Y-16366984D02*
X15631848Y-16395555D01*
X15631848Y-16395555D02*
X15612801Y-16414603D01*
X15612801Y-16414603D02*
X15593753Y-16424127D01*
X15793753Y-16547936D02*
X15803277Y-16557460D01*
X15803277Y-16557460D02*
X15793753Y-16566984D01*
X15793753Y-16566984D02*
X15784229Y-16557460D01*
X15784229Y-16557460D02*
X15793753Y-16547936D01*
X15793753Y-16547936D02*
X15793753Y-16566984D01*
X15927086Y-16366984D02*
X15946134Y-16366984D01*
X15946134Y-16366984D02*
X15965182Y-16376508D01*
X15965182Y-16376508D02*
X15974705Y-16386031D01*
X15974705Y-16386031D02*
X15984229Y-16405079D01*
X15984229Y-16405079D02*
X15993753Y-16443174D01*
X15993753Y-16443174D02*
X15993753Y-16490793D01*
X15993753Y-16490793D02*
X15984229Y-16528888D01*
X15984229Y-16528888D02*
X15974705Y-16547936D01*
X15974705Y-16547936D02*
X15965182Y-16557460D01*
X15965182Y-16557460D02*
X15946134Y-16566984D01*
X15946134Y-16566984D02*
X15927086Y-16566984D01*
X15927086Y-16566984D02*
X15908039Y-16557460D01*
X15908039Y-16557460D02*
X15898515Y-16547936D01*
X15898515Y-16547936D02*
X15888991Y-16528888D01*
X15888991Y-16528888D02*
X15879467Y-16490793D01*
X15879467Y-16490793D02*
X15879467Y-16443174D01*
X15879467Y-16443174D02*
X15888991Y-16405079D01*
X15888991Y-16405079D02*
X15898515Y-16386031D01*
X15898515Y-16386031D02*
X15908039Y-16376508D01*
X15908039Y-16376508D02*
X15927086Y-16366984D01*
X16117562Y-16366984D02*
X16136610Y-16366984D01*
X16136610Y-16366984D02*
X16155658Y-16376508D01*
X16155658Y-16376508D02*
X16165182Y-16386031D01*
X16165182Y-16386031D02*
X16174705Y-16405079D01*
X16174705Y-16405079D02*
X16184229Y-16443174D01*
X16184229Y-16443174D02*
X16184229Y-16490793D01*
X16184229Y-16490793D02*
X16174705Y-16528888D01*
X16174705Y-16528888D02*
X16165182Y-16547936D01*
X16165182Y-16547936D02*
X16155658Y-16557460D01*
X16155658Y-16557460D02*
X16136610Y-16566984D01*
X16136610Y-16566984D02*
X16117562Y-16566984D01*
X16117562Y-16566984D02*
X16098515Y-16557460D01*
X16098515Y-16557460D02*
X16088991Y-16547936D01*
X16088991Y-16547936D02*
X16079467Y-16528888D01*
X16079467Y-16528888D02*
X16069943Y-16490793D01*
X16069943Y-16490793D02*
X16069943Y-16443174D01*
X16069943Y-16443174D02*
X16079467Y-16405079D01*
X16079467Y-16405079D02*
X16088991Y-16386031D01*
X16088991Y-16386031D02*
X16098515Y-16376508D01*
X16098515Y-16376508D02*
X16117562Y-16366984D01*
X16308039Y-16366984D02*
X16327086Y-16366984D01*
X16327086Y-16366984D02*
X16346134Y-16376508D01*
X16346134Y-16376508D02*
X16355658Y-16386031D01*
X16355658Y-16386031D02*
X16365182Y-16405079D01*
X16365182Y-16405079D02*
X16374705Y-16443174D01*
X16374705Y-16443174D02*
X16374705Y-16490793D01*
X16374705Y-16490793D02*
X16365182Y-16528888D01*
X16365182Y-16528888D02*
X16355658Y-16547936D01*
X16355658Y-16547936D02*
X16346134Y-16557460D01*
X16346134Y-16557460D02*
X16327086Y-16566984D01*
X16327086Y-16566984D02*
X16308039Y-16566984D01*
X16308039Y-16566984D02*
X16288991Y-16557460D01*
X16288991Y-16557460D02*
X16279467Y-16547936D01*
X16279467Y-16547936D02*
X16269943Y-16528888D01*
X16269943Y-16528888D02*
X16260420Y-16490793D01*
X16260420Y-16490793D02*
X16260420Y-16443174D01*
X16260420Y-16443174D02*
X16269943Y-16405079D01*
X16269943Y-16405079D02*
X16279467Y-16386031D01*
X16279467Y-16386031D02*
X16288991Y-16376508D01*
X16288991Y-16376508D02*
X16308039Y-16366984D01*
X16460420Y-16566984D02*
X16460420Y-16433650D01*
X16460420Y-16452698D02*
X16469943Y-16443174D01*
X16469943Y-16443174D02*
X16488991Y-16433650D01*
X16488991Y-16433650D02*
X16517563Y-16433650D01*
X16517563Y-16433650D02*
X16536610Y-16443174D01*
X16536610Y-16443174D02*
X16546134Y-16462222D01*
X16546134Y-16462222D02*
X16546134Y-16566984D01*
X16546134Y-16462222D02*
X16555658Y-16443174D01*
X16555658Y-16443174D02*
X16574705Y-16433650D01*
X16574705Y-16433650D02*
X16603277Y-16433650D01*
X16603277Y-16433650D02*
X16622324Y-16443174D01*
X16622324Y-16443174D02*
X16631848Y-16462222D01*
X16631848Y-16462222D02*
X16631848Y-16566984D01*
X16727086Y-16566984D02*
X16727086Y-16433650D01*
X16727086Y-16452698D02*
X16736610Y-16443174D01*
X16736610Y-16443174D02*
X16755658Y-16433650D01*
X16755658Y-16433650D02*
X16784229Y-16433650D01*
X16784229Y-16433650D02*
X16803277Y-16443174D01*
X16803277Y-16443174D02*
X16812801Y-16462222D01*
X16812801Y-16462222D02*
X16812801Y-16566984D01*
X16812801Y-16462222D02*
X16822325Y-16443174D01*
X16822325Y-16443174D02*
X16841372Y-16433650D01*
X16841372Y-16433650D02*
X16869944Y-16433650D01*
X16869944Y-16433650D02*
X16888991Y-16443174D01*
X16888991Y-16443174D02*
X16898515Y-16462222D01*
X16898515Y-16462222D02*
X16898515Y-16566984D01*
X17288991Y-16357460D02*
X17117563Y-16614603D01*
X17546134Y-16366984D02*
X17565182Y-16366984D01*
X17565182Y-16366984D02*
X17584229Y-16376508D01*
X17584229Y-16376508D02*
X17593753Y-16386031D01*
X17593753Y-16386031D02*
X17603277Y-16405079D01*
X17603277Y-16405079D02*
X17612801Y-16443174D01*
X17612801Y-16443174D02*
X17612801Y-16490793D01*
X17612801Y-16490793D02*
X17603277Y-16528888D01*
X17603277Y-16528888D02*
X17593753Y-16547936D01*
X17593753Y-16547936D02*
X17584229Y-16557460D01*
X17584229Y-16557460D02*
X17565182Y-16566984D01*
X17565182Y-16566984D02*
X17546134Y-16566984D01*
X17546134Y-16566984D02*
X17527087Y-16557460D01*
X17527087Y-16557460D02*
X17517563Y-16547936D01*
X17517563Y-16547936D02*
X17508039Y-16528888D01*
X17508039Y-16528888D02*
X17498515Y-16490793D01*
X17498515Y-16490793D02*
X17498515Y-16443174D01*
X17498515Y-16443174D02*
X17508039Y-16405079D01*
X17508039Y-16405079D02*
X17517563Y-16386031D01*
X17517563Y-16386031D02*
X17527087Y-16376508D01*
X17527087Y-16376508D02*
X17546134Y-16366984D01*
X17698515Y-16547936D02*
X17708039Y-16557460D01*
X17708039Y-16557460D02*
X17698515Y-16566984D01*
X17698515Y-16566984D02*
X17688991Y-16557460D01*
X17688991Y-16557460D02*
X17698515Y-16547936D01*
X17698515Y-16547936D02*
X17698515Y-16566984D01*
X17831848Y-16366984D02*
X17850896Y-16366984D01*
X17850896Y-16366984D02*
X17869944Y-16376508D01*
X17869944Y-16376508D02*
X17879468Y-16386031D01*
X17879468Y-16386031D02*
X17888991Y-16405079D01*
X17888991Y-16405079D02*
X17898515Y-16443174D01*
X17898515Y-16443174D02*
X17898515Y-16490793D01*
X17898515Y-16490793D02*
X17888991Y-16528888D01*
X17888991Y-16528888D02*
X17879468Y-16547936D01*
X17879468Y-16547936D02*
X17869944Y-16557460D01*
X17869944Y-16557460D02*
X17850896Y-16566984D01*
X17850896Y-16566984D02*
X17831848Y-16566984D01*
X17831848Y-16566984D02*
X17812801Y-16557460D01*
X17812801Y-16557460D02*
X17803277Y-16547936D01*
X17803277Y-16547936D02*
X17793753Y-16528888D01*
X17793753Y-16528888D02*
X17784229Y-16490793D01*
X17784229Y-16490793D02*
X17784229Y-16443174D01*
X17784229Y-16443174D02*
X17793753Y-16405079D01*
X17793753Y-16405079D02*
X17803277Y-16386031D01*
X17803277Y-16386031D02*
X17812801Y-16376508D01*
X17812801Y-16376508D02*
X17831848Y-16366984D01*
X17965182Y-16366984D02*
X18088991Y-16366984D01*
X18088991Y-16366984D02*
X18022325Y-16443174D01*
X18022325Y-16443174D02*
X18050896Y-16443174D01*
X18050896Y-16443174D02*
X18069944Y-16452698D01*
X18069944Y-16452698D02*
X18079468Y-16462222D01*
X18079468Y-16462222D02*
X18088991Y-16481269D01*
X18088991Y-16481269D02*
X18088991Y-16528888D01*
X18088991Y-16528888D02*
X18079468Y-16547936D01*
X18079468Y-16547936D02*
X18069944Y-16557460D01*
X18069944Y-16557460D02*
X18050896Y-16566984D01*
X18050896Y-16566984D02*
X17993753Y-16566984D01*
X17993753Y-16566984D02*
X17974706Y-16557460D01*
X17974706Y-16557460D02*
X17965182Y-16547936D01*
X18184229Y-16566984D02*
X18222325Y-16566984D01*
X18222325Y-16566984D02*
X18241372Y-16557460D01*
X18241372Y-16557460D02*
X18250896Y-16547936D01*
X18250896Y-16547936D02*
X18269944Y-16519365D01*
X18269944Y-16519365D02*
X18279468Y-16481269D01*
X18279468Y-16481269D02*
X18279468Y-16405079D01*
X18279468Y-16405079D02*
X18269944Y-16386031D01*
X18269944Y-16386031D02*
X18260420Y-16376508D01*
X18260420Y-16376508D02*
X18241372Y-16366984D01*
X18241372Y-16366984D02*
X18203277Y-16366984D01*
X18203277Y-16366984D02*
X18184229Y-16376508D01*
X18184229Y-16376508D02*
X18174706Y-16386031D01*
X18174706Y-16386031D02*
X18165182Y-16405079D01*
X18165182Y-16405079D02*
X18165182Y-16452698D01*
X18165182Y-16452698D02*
X18174706Y-16471746D01*
X18174706Y-16471746D02*
X18184229Y-16481269D01*
X18184229Y-16481269D02*
X18203277Y-16490793D01*
X18203277Y-16490793D02*
X18241372Y-16490793D01*
X18241372Y-16490793D02*
X18260420Y-16481269D01*
X18260420Y-16481269D02*
X18269944Y-16471746D01*
X18269944Y-16471746D02*
X18279468Y-16452698D01*
X18450896Y-16433650D02*
X18450896Y-16566984D01*
X18403277Y-16357460D02*
X18355658Y-16500317D01*
X18355658Y-16500317D02*
X18479468Y-16500317D01*
X18546134Y-16366984D02*
X18546134Y-16405079D01*
X18622325Y-16366984D02*
X18622325Y-16405079D01*
X18917563Y-16643174D02*
X18908039Y-16633650D01*
X18908039Y-16633650D02*
X18888991Y-16605079D01*
X18888991Y-16605079D02*
X18879468Y-16586031D01*
X18879468Y-16586031D02*
X18869944Y-16557460D01*
X18869944Y-16557460D02*
X18860420Y-16509841D01*
X18860420Y-16509841D02*
X18860420Y-16471746D01*
X18860420Y-16471746D02*
X18869944Y-16424127D01*
X18869944Y-16424127D02*
X18879468Y-16395555D01*
X18879468Y-16395555D02*
X18888991Y-16376508D01*
X18888991Y-16376508D02*
X18908039Y-16347936D01*
X18908039Y-16347936D02*
X18917563Y-16338412D01*
X19022325Y-16452698D02*
X19003277Y-16443174D01*
X19003277Y-16443174D02*
X18993753Y-16433650D01*
X18993753Y-16433650D02*
X18984230Y-16414603D01*
X18984230Y-16414603D02*
X18984230Y-16405079D01*
X18984230Y-16405079D02*
X18993753Y-16386031D01*
X18993753Y-16386031D02*
X19003277Y-16376508D01*
X19003277Y-16376508D02*
X19022325Y-16366984D01*
X19022325Y-16366984D02*
X19060420Y-16366984D01*
X19060420Y-16366984D02*
X19079468Y-16376508D01*
X19079468Y-16376508D02*
X19088991Y-16386031D01*
X19088991Y-16386031D02*
X19098515Y-16405079D01*
X19098515Y-16405079D02*
X19098515Y-16414603D01*
X19098515Y-16414603D02*
X19088991Y-16433650D01*
X19088991Y-16433650D02*
X19079468Y-16443174D01*
X19079468Y-16443174D02*
X19060420Y-16452698D01*
X19060420Y-16452698D02*
X19022325Y-16452698D01*
X19022325Y-16452698D02*
X19003277Y-16462222D01*
X19003277Y-16462222D02*
X18993753Y-16471746D01*
X18993753Y-16471746D02*
X18984230Y-16490793D01*
X18984230Y-16490793D02*
X18984230Y-16528888D01*
X18984230Y-16528888D02*
X18993753Y-16547936D01*
X18993753Y-16547936D02*
X19003277Y-16557460D01*
X19003277Y-16557460D02*
X19022325Y-16566984D01*
X19022325Y-16566984D02*
X19060420Y-16566984D01*
X19060420Y-16566984D02*
X19079468Y-16557460D01*
X19079468Y-16557460D02*
X19088991Y-16547936D01*
X19088991Y-16547936D02*
X19098515Y-16528888D01*
X19098515Y-16528888D02*
X19098515Y-16490793D01*
X19098515Y-16490793D02*
X19088991Y-16471746D01*
X19088991Y-16471746D02*
X19079468Y-16462222D01*
X19079468Y-16462222D02*
X19060420Y-16452698D01*
X19288991Y-16566984D02*
X19174706Y-16566984D01*
X19231849Y-16566984D02*
X19231849Y-16366984D01*
X19231849Y-16366984D02*
X19212801Y-16395555D01*
X19212801Y-16395555D02*
X19193753Y-16414603D01*
X19193753Y-16414603D02*
X19174706Y-16424127D01*
X19527087Y-16566984D02*
X19527087Y-16366984D01*
X19612801Y-16566984D02*
X19612801Y-16462222D01*
X19612801Y-16462222D02*
X19603277Y-16443174D01*
X19603277Y-16443174D02*
X19584230Y-16433650D01*
X19584230Y-16433650D02*
X19555658Y-16433650D01*
X19555658Y-16433650D02*
X19536611Y-16443174D01*
X19536611Y-16443174D02*
X19527087Y-16452698D01*
X19736611Y-16566984D02*
X19717563Y-16557460D01*
X19717563Y-16557460D02*
X19708039Y-16547936D01*
X19708039Y-16547936D02*
X19698515Y-16528888D01*
X19698515Y-16528888D02*
X19698515Y-16471746D01*
X19698515Y-16471746D02*
X19708039Y-16452698D01*
X19708039Y-16452698D02*
X19717563Y-16443174D01*
X19717563Y-16443174D02*
X19736611Y-16433650D01*
X19736611Y-16433650D02*
X19765182Y-16433650D01*
X19765182Y-16433650D02*
X19784230Y-16443174D01*
X19784230Y-16443174D02*
X19793753Y-16452698D01*
X19793753Y-16452698D02*
X19803277Y-16471746D01*
X19803277Y-16471746D02*
X19803277Y-16528888D01*
X19803277Y-16528888D02*
X19793753Y-16547936D01*
X19793753Y-16547936D02*
X19784230Y-16557460D01*
X19784230Y-16557460D02*
X19765182Y-16566984D01*
X19765182Y-16566984D02*
X19736611Y-16566984D01*
X19917563Y-16566984D02*
X19898515Y-16557460D01*
X19898515Y-16557460D02*
X19888992Y-16538412D01*
X19888992Y-16538412D02*
X19888992Y-16366984D01*
X20069944Y-16557460D02*
X20050896Y-16566984D01*
X20050896Y-16566984D02*
X20012801Y-16566984D01*
X20012801Y-16566984D02*
X19993753Y-16557460D01*
X19993753Y-16557460D02*
X19984230Y-16538412D01*
X19984230Y-16538412D02*
X19984230Y-16462222D01*
X19984230Y-16462222D02*
X19993753Y-16443174D01*
X19993753Y-16443174D02*
X20012801Y-16433650D01*
X20012801Y-16433650D02*
X20050896Y-16433650D01*
X20050896Y-16433650D02*
X20069944Y-16443174D01*
X20069944Y-16443174D02*
X20079468Y-16462222D01*
X20079468Y-16462222D02*
X20079468Y-16481269D01*
X20079468Y-16481269D02*
X19984230Y-16500317D01*
X20155658Y-16557460D02*
X20174706Y-16566984D01*
X20174706Y-16566984D02*
X20212801Y-16566984D01*
X20212801Y-16566984D02*
X20231849Y-16557460D01*
X20231849Y-16557460D02*
X20241373Y-16538412D01*
X20241373Y-16538412D02*
X20241373Y-16528888D01*
X20241373Y-16528888D02*
X20231849Y-16509841D01*
X20231849Y-16509841D02*
X20212801Y-16500317D01*
X20212801Y-16500317D02*
X20184230Y-16500317D01*
X20184230Y-16500317D02*
X20165182Y-16490793D01*
X20165182Y-16490793D02*
X20155658Y-16471746D01*
X20155658Y-16471746D02*
X20155658Y-16462222D01*
X20155658Y-16462222D02*
X20165182Y-16443174D01*
X20165182Y-16443174D02*
X20184230Y-16433650D01*
X20184230Y-16433650D02*
X20212801Y-16433650D01*
X20212801Y-16433650D02*
X20231849Y-16443174D01*
X20308039Y-16643174D02*
X20317563Y-16633650D01*
X20317563Y-16633650D02*
X20336611Y-16605079D01*
X20336611Y-16605079D02*
X20346134Y-16586031D01*
X20346134Y-16586031D02*
X20355658Y-16557460D01*
X20355658Y-16557460D02*
X20365182Y-16509841D01*
X20365182Y-16509841D02*
X20365182Y-16471746D01*
X20365182Y-16471746D02*
X20355658Y-16424127D01*
X20355658Y-16424127D02*
X20346134Y-16395555D01*
X20346134Y-16395555D02*
X20336611Y-16376508D01*
X20336611Y-16376508D02*
X20317563Y-16347936D01*
X20317563Y-16347936D02*
X20308039Y-16338412D01*
M02*
