%TF.GenerationSoftware,KiCad,Pcbnew,8.0.5*%
%TF.CreationDate,2024-11-24T09:32:11-04:00*%
%TF.ProjectId,RAMEXB_V21_Github,52414d45-5842-45f5-9632-315f47697468,rev?*%
%TF.SameCoordinates,Original*%
%TF.FileFunction,Profile,NP*%
%FSLAX46Y46*%
G04 Gerber Fmt 4.6, Leading zero omitted, Abs format (unit mm)*
G04 Created by KiCad (PCBNEW 8.0.5) date 2024-11-24 09:32:11*
%MOMM*%
%LPD*%
G01*
G04 APERTURE LIST*
%TA.AperFunction,Profile*%
%ADD10C,0.150000*%
%TD*%
G04 APERTURE END LIST*
D10*
X165500000Y-55000000D02*
X157500000Y-63000000D01*
X214392893Y-152707107D02*
G75*
G02*
X213685786Y-152999990I-707093J707107D01*
G01*
X246207107Y-151292893D02*
X244792893Y-152707107D01*
X246500000Y-150585786D02*
X246500000Y-15980000D01*
X244792893Y-152707107D02*
G75*
G02*
X244085786Y-152999990I-707093J707107D01*
G01*
X182000000Y-55000000D02*
X165500000Y-55000000D01*
X157500000Y-146300000D02*
X157500000Y-151585786D01*
X213685786Y-153000000D02*
X158914214Y-153000000D01*
X186000000Y-22980000D02*
X186000000Y-51000000D01*
X246500000Y-15980000D02*
X245500000Y-14980000D01*
X238314214Y-153000000D02*
G75*
G02*
X237607100Y-152707114I-14J1000000D01*
G01*
X157500000Y-146300000D02*
X154500000Y-146300000D01*
X158914214Y-153000000D02*
G75*
G02*
X158207121Y-152707093I-14J999900D01*
G01*
X157500000Y-117290000D02*
X154500000Y-117290000D01*
X157792893Y-152292893D02*
X158207107Y-152707107D01*
X236392893Y-151492893D02*
G75*
G02*
X236100039Y-150785786I707207J707093D01*
G01*
X235100000Y-138800000D02*
G75*
G02*
X236100000Y-139800000I0J-1000000D01*
G01*
X215400000Y-139800000D02*
X215400000Y-151285786D01*
X154500000Y-117290000D02*
X153500000Y-118290000D01*
X154500000Y-146300000D02*
X153500000Y-145300000D01*
X153500000Y-145300000D02*
X153500000Y-118290000D01*
X246500000Y-150585786D02*
G75*
G02*
X246207114Y-151292900I-1000000J-14D01*
G01*
X215400000Y-139800000D02*
G75*
G02*
X216400000Y-138800000I1000000J0D01*
G01*
X215400000Y-151285786D02*
G75*
G02*
X215107114Y-151992900I-1000000J-14D01*
G01*
X245500000Y-14980000D02*
X194000000Y-14990000D01*
X157792893Y-152292893D02*
G75*
G02*
X157500010Y-151585786I707107J707093D01*
G01*
X235100000Y-138800000D02*
X216400000Y-138800000D01*
X215107107Y-151992893D02*
X214392893Y-152707107D01*
X182000000Y-55000000D02*
X186000000Y-51000000D01*
X244085786Y-153000000D02*
X238314214Y-153000000D01*
X157500000Y-117290000D02*
X157500000Y-95500000D01*
X237607107Y-152707107D02*
X236392893Y-151492893D01*
X157500000Y-95500000D02*
X157500000Y-63000000D01*
X236100000Y-150785786D02*
X236100000Y-139800000D01*
X186000000Y-22980000D02*
X194000000Y-14990000D01*
M02*
