%TF.GenerationSoftware,KiCad,Pcbnew,8.0.5*%
%TF.CreationDate,2024-11-24T09:32:11-04:00*%
%TF.ProjectId,RAMEXB_V21_Github,52414d45-5842-45f5-9632-315f47697468,rev?*%
%TF.SameCoordinates,Original*%
%TF.FileFunction,Paste,Bot*%
%TF.FilePolarity,Positive*%
%FSLAX46Y46*%
G04 Gerber Fmt 4.6, Leading zero omitted, Abs format (unit mm)*
G04 Created by KiCad (PCBNEW 8.0.5) date 2024-11-24 09:32:11*
%MOMM*%
%LPD*%
G01*
G04 APERTURE LIST*
G04 Aperture macros list*
%AMRoundRect*
0 Rectangle with rounded corners*
0 $1 Rounding radius*
0 $2 $3 $4 $5 $6 $7 $8 $9 X,Y pos of 4 corners*
0 Add a 4 corners polygon primitive as box body*
4,1,4,$2,$3,$4,$5,$6,$7,$8,$9,$2,$3,0*
0 Add four circle primitives for the rounded corners*
1,1,$1+$1,$2,$3*
1,1,$1+$1,$4,$5*
1,1,$1+$1,$6,$7*
1,1,$1+$1,$8,$9*
0 Add four rect primitives between the rounded corners*
20,1,$1+$1,$2,$3,$4,$5,0*
20,1,$1+$1,$4,$5,$6,$7,0*
20,1,$1+$1,$6,$7,$8,$9,0*
20,1,$1+$1,$8,$9,$2,$3,0*%
G04 Aperture macros list end*
%ADD10RoundRect,0.250000X0.475000X-0.337500X0.475000X0.337500X-0.475000X0.337500X-0.475000X-0.337500X0*%
%ADD11RoundRect,0.250000X0.337500X0.475000X-0.337500X0.475000X-0.337500X-0.475000X0.337500X-0.475000X0*%
G04 APERTURE END LIST*
D10*
%TO.C,C22*%
X219825000Y-117343900D03*
X219825000Y-115268900D03*
%TD*%
%TO.C,C6*%
X243660000Y-70891200D03*
X243660000Y-68816200D03*
%TD*%
%TO.C,C8*%
X219875000Y-24123700D03*
X219875000Y-22048700D03*
%TD*%
%TO.C,C26*%
X226300000Y-39537500D03*
X226300000Y-37462500D03*
%TD*%
%TO.C,C17*%
X243630000Y-132997500D03*
X243630000Y-130922500D03*
%TD*%
%TO.C,C7*%
X226300000Y-70901200D03*
X226300000Y-68826200D03*
%TD*%
%TO.C,C23*%
X226250000Y-132992500D03*
X226250000Y-130917500D03*
%TD*%
%TO.C,C9*%
X243650000Y-86143800D03*
X243650000Y-84068800D03*
%TD*%
%TO.C,C11*%
X219905900Y-86049100D03*
X219905900Y-83974100D03*
%TD*%
%TO.C,C19*%
X219825000Y-133037500D03*
X219825000Y-130962500D03*
%TD*%
%TO.C,C32*%
X243890000Y-23833700D03*
X243890000Y-21758700D03*
%TD*%
%TO.C,C5*%
X226286000Y-55096700D03*
X226286000Y-53021700D03*
%TD*%
%TO.C,C15*%
X226200000Y-101942300D03*
X226200000Y-99867300D03*
%TD*%
D11*
%TO.C,C30*%
X213152500Y-62375000D03*
X211077500Y-62375000D03*
%TD*%
D10*
%TO.C,C14*%
X243650000Y-101894400D03*
X243650000Y-99819400D03*
%TD*%
%TO.C,C27*%
X243710000Y-39427500D03*
X243710000Y-37352500D03*
%TD*%
%TO.C,C13*%
X196180000Y-22127500D03*
X196180000Y-20052500D03*
%TD*%
%TO.C,C10*%
X226345000Y-86053800D03*
X226345000Y-83978800D03*
%TD*%
D11*
%TO.C,C29*%
X200417500Y-136620000D03*
X198342500Y-136620000D03*
%TD*%
D10*
%TO.C,C12*%
X219850300Y-101942300D03*
X219850300Y-99867300D03*
%TD*%
%TO.C,C20*%
X243670000Y-117351000D03*
X243670000Y-115276000D03*
%TD*%
%TO.C,C4*%
X243646000Y-55086700D03*
X243646000Y-53011700D03*
%TD*%
D11*
%TO.C,C16*%
X189737700Y-137002100D03*
X187662700Y-137002100D03*
%TD*%
D10*
%TO.C,C18*%
X197190000Y-39317500D03*
X197190000Y-37242500D03*
%TD*%
%TO.C,C31*%
X226290000Y-24123700D03*
X226290000Y-22048700D03*
%TD*%
D11*
%TO.C,C28*%
X200727500Y-121170000D03*
X198652500Y-121170000D03*
%TD*%
D10*
%TO.C,C3*%
X219960000Y-70893700D03*
X219960000Y-68818700D03*
%TD*%
%TO.C,C21*%
X226225000Y-117343900D03*
X226225000Y-115268900D03*
%TD*%
%TO.C,C24*%
X219885000Y-55096700D03*
X219885000Y-53021700D03*
%TD*%
%TO.C,C25*%
X219970000Y-39540000D03*
X219970000Y-37465000D03*
%TD*%
D11*
%TO.C,C1*%
X172587500Y-62250000D03*
X170512500Y-62250000D03*
%TD*%
M02*
