G04 #@! TF.GenerationSoftware,KiCad,Pcbnew,8.0.5*
G04 #@! TF.CreationDate,2025-01-09T14:40:57-04:00*
G04 #@! TF.ProjectId,RAMAUXB_V2,52414d41-5558-4425-9f56-322e6b696361,rev?*
G04 #@! TF.SameCoordinates,Original*
G04 #@! TF.FileFunction,Copper,L1,Top*
G04 #@! TF.FilePolarity,Positive*
%FSLAX46Y46*%
G04 Gerber Fmt 4.6, Leading zero omitted, Abs format (unit mm)*
G04 Created by KiCad (PCBNEW 8.0.5) date 2025-01-09 14:40:57*
%MOMM*%
%LPD*%
G01*
G04 APERTURE LIST*
G04 Aperture macros list*
%AMRoundRect*
0 Rectangle with rounded corners*
0 $1 Rounding radius*
0 $2 $3 $4 $5 $6 $7 $8 $9 X,Y pos of 4 corners*
0 Add a 4 corners polygon primitive as box body*
4,1,4,$2,$3,$4,$5,$6,$7,$8,$9,$2,$3,0*
0 Add four circle primitives for the rounded corners*
1,1,$1+$1,$2,$3*
1,1,$1+$1,$4,$5*
1,1,$1+$1,$6,$7*
1,1,$1+$1,$8,$9*
0 Add four rect primitives between the rounded corners*
20,1,$1+$1,$2,$3,$4,$5,0*
20,1,$1+$1,$4,$5,$6,$7,0*
20,1,$1+$1,$6,$7,$8,$9,0*
20,1,$1+$1,$8,$9,$2,$3,0*%
%AMFreePoly0*
4,1,19,0.550000,-0.750000,0.000000,-0.750000,0.000000,-0.744911,-0.071157,-0.744911,-0.207708,-0.704816,-0.327430,-0.627875,-0.420627,-0.520320,-0.479746,-0.390866,-0.500000,-0.250000,-0.500000,0.250000,-0.479746,0.390866,-0.420627,0.520320,-0.327430,0.627875,-0.207708,0.704816,-0.071157,0.744911,0.000000,0.744911,0.000000,0.750000,0.550000,0.750000,0.550000,-0.750000,0.550000,-0.750000,
$1*%
%AMFreePoly1*
4,1,19,0.000000,0.744911,0.071157,0.744911,0.207708,0.704816,0.327430,0.627875,0.420627,0.520320,0.479746,0.390866,0.500000,0.250000,0.500000,-0.250000,0.479746,-0.390866,0.420627,-0.520320,0.327430,-0.627875,0.207708,-0.704816,0.071157,-0.744911,0.000000,-0.744911,0.000000,-0.750000,-0.550000,-0.750000,-0.550000,0.750000,0.000000,0.750000,0.000000,0.744911,0.000000,0.744911,
$1*%
G04 Aperture macros list end*
G04 #@! TA.AperFunction,SMDPad,CuDef*
%ADD10RoundRect,0.250000X-0.450000X0.350000X-0.450000X-0.350000X0.450000X-0.350000X0.450000X0.350000X0*%
G04 #@! TD*
G04 #@! TA.AperFunction,SMDPad,CuDef*
%ADD11RoundRect,0.250000X0.450000X-0.350000X0.450000X0.350000X-0.450000X0.350000X-0.450000X-0.350000X0*%
G04 #@! TD*
G04 #@! TA.AperFunction,SMDPad,CuDef*
%ADD12RoundRect,0.250000X-0.337500X-0.475000X0.337500X-0.475000X0.337500X0.475000X-0.337500X0.475000X0*%
G04 #@! TD*
G04 #@! TA.AperFunction,SMDPad,CuDef*
%ADD13FreePoly0,270.000000*%
G04 #@! TD*
G04 #@! TA.AperFunction,SMDPad,CuDef*
%ADD14R,1.500000X1.000000*%
G04 #@! TD*
G04 #@! TA.AperFunction,SMDPad,CuDef*
%ADD15FreePoly1,270.000000*%
G04 #@! TD*
G04 #@! TA.AperFunction,SMDPad,CuDef*
%ADD16RoundRect,0.150000X0.725000X0.150000X-0.725000X0.150000X-0.725000X-0.150000X0.725000X-0.150000X0*%
G04 #@! TD*
G04 #@! TA.AperFunction,SMDPad,CuDef*
%ADD17FreePoly0,90.000000*%
G04 #@! TD*
G04 #@! TA.AperFunction,SMDPad,CuDef*
%ADD18FreePoly1,90.000000*%
G04 #@! TD*
G04 #@! TA.AperFunction,SMDPad,CuDef*
%ADD19RoundRect,0.250000X0.350000X0.450000X-0.350000X0.450000X-0.350000X-0.450000X0.350000X-0.450000X0*%
G04 #@! TD*
G04 #@! TA.AperFunction,SMDPad,CuDef*
%ADD20R,1.250000X0.760000*%
G04 #@! TD*
G04 #@! TA.AperFunction,ComponentPad*
%ADD21R,1.700000X1.700000*%
G04 #@! TD*
G04 #@! TA.AperFunction,ComponentPad*
%ADD22O,1.700000X1.700000*%
G04 #@! TD*
G04 #@! TA.AperFunction,ViaPad*
%ADD23C,0.500000*%
G04 #@! TD*
G04 #@! TA.AperFunction,Conductor*
%ADD24C,0.600000*%
G04 #@! TD*
G04 #@! TA.AperFunction,Conductor*
%ADD25C,0.200000*%
G04 #@! TD*
G04 #@! TA.AperFunction,Conductor*
%ADD26C,0.150000*%
G04 #@! TD*
G04 #@! TA.AperFunction,Conductor*
%ADD27C,0.250000*%
G04 #@! TD*
G04 #@! TA.AperFunction,Conductor*
%ADD28C,0.800000*%
G04 #@! TD*
G04 APERTURE END LIST*
D10*
G04 #@! TO.P,R8,1*
G04 #@! TO.N,RA6*
X91050000Y-131010000D03*
G04 #@! TO.P,R8,2*
G04 #@! TO.N,RA6F*
X91050000Y-133010000D03*
G04 #@! TD*
D11*
G04 #@! TO.P,R13,1*
G04 #@! TO.N,~{CAS1F}*
X91640000Y-143140000D03*
G04 #@! TO.P,R13,2*
G04 #@! TO.N,Net-(R13-Pad2)*
X91640000Y-141140000D03*
G04 #@! TD*
D12*
G04 #@! TO.P,C2,1*
G04 #@! TO.N,VCC*
X105872500Y-101370000D03*
G04 #@! TO.P,C2,2*
G04 #@! TO.N,GND*
X107947500Y-101370000D03*
G04 #@! TD*
D10*
G04 #@! TO.P,R2,1*
G04 #@! TO.N,RA4F*
X98470000Y-90510000D03*
G04 #@! TO.P,R2,2*
G04 #@! TO.N,RA4*
X98470000Y-92510000D03*
G04 #@! TD*
D13*
G04 #@! TO.P,JP1,1,A*
G04 #@! TO.N,RA0*
X80795000Y-90945000D03*
D14*
G04 #@! TO.P,JP1,2,C*
G04 #@! TO.N,Net-(JP1-C)*
X80795000Y-92245000D03*
D15*
G04 #@! TO.P,JP1,3,B*
G04 #@! TO.N,MRA0*
X80795000Y-93545000D03*
G04 #@! TD*
D16*
G04 #@! TO.P,U1,1,S*
G04 #@! TO.N,C2M*
X107675000Y-99345000D03*
G04 #@! TO.P,U1,2,I0a*
G04 #@! TO.N,PULLUP*
X107675000Y-98075000D03*
G04 #@! TO.P,U1,3,I1a*
G04 #@! TO.N,VA5*
X107675000Y-96805000D03*
G04 #@! TO.P,U1,4,Za*
G04 #@! TO.N,MRA0*
X107675000Y-95535000D03*
G04 #@! TO.P,U1,5,I0b*
G04 #@! TO.N,PULLUP*
X107675000Y-94265000D03*
G04 #@! TO.P,U1,6,I1b*
G04 #@! TO.N,VA13*
X107675000Y-92995000D03*
G04 #@! TO.P,U1,7,Zb*
G04 #@! TO.N,MRA8*
X107675000Y-91725000D03*
G04 #@! TO.P,U1,8,GND*
G04 #@! TO.N,GND*
X107675000Y-90455000D03*
G04 #@! TO.P,U1,9,Zd*
G04 #@! TO.N,Net-(U1-Zd)*
X102525000Y-90455000D03*
G04 #@! TO.P,U1,10,I1d*
G04 #@! TO.N,~{SNDPG2}*
X102525000Y-91725000D03*
G04 #@! TO.P,U1,11,I0d*
G04 #@! TO.N,PULLUP*
X102525000Y-92995000D03*
G04 #@! TO.P,U1,12,Zc*
G04 #@! TO.N,MRA1*
X102525000Y-94265000D03*
G04 #@! TO.P,U1,13,I1c*
G04 #@! TO.N,VA6*
X102525000Y-95535000D03*
G04 #@! TO.P,U1,14,I0c*
G04 #@! TO.N,PULLUP*
X102525000Y-96805000D03*
G04 #@! TO.P,U1,15,OE*
G04 #@! TO.N,~{DMA}*
X102525000Y-98075000D03*
G04 #@! TO.P,U1,16,VCC*
G04 #@! TO.N,VCC*
X102525000Y-99345000D03*
G04 #@! TD*
D10*
G04 #@! TO.P,R5,1*
G04 #@! TO.N,MSRA0F*
X83452500Y-90805000D03*
G04 #@! TO.P,R5,2*
G04 #@! TO.N,Net-(JP1-C)*
X83452500Y-92805000D03*
G04 #@! TD*
D17*
G04 #@! TO.P,JP2,1,A*
G04 #@! TO.N,RA8*
X88150000Y-92595000D03*
D14*
G04 #@! TO.P,JP2,2,C*
G04 #@! TO.N,Net-(JP2-C)*
X88150000Y-91295000D03*
D18*
G04 #@! TO.P,JP2,3,B*
G04 #@! TO.N,MRA8*
X88150000Y-89995000D03*
G04 #@! TD*
D19*
G04 #@! TO.P,R14,1*
G04 #@! TO.N,VCC*
X100155000Y-127765000D03*
G04 #@! TO.P,R14,2*
G04 #@! TO.N,~{MCAS1}*
X98155000Y-127765000D03*
G04 #@! TD*
D10*
G04 #@! TO.P,R3,1*
G04 #@! TO.N,RA2*
X98470000Y-94680000D03*
G04 #@! TO.P,R3,2*
G04 #@! TO.N,RA2F*
X98470000Y-96680000D03*
G04 #@! TD*
G04 #@! TO.P,R15,1*
G04 #@! TO.N,VCC*
X99805000Y-122885000D03*
G04 #@! TO.P,R15,2*
G04 #@! TO.N,~{MCAS0}*
X99805000Y-124885000D03*
G04 #@! TD*
D16*
G04 #@! TO.P,U3,1,OEa*
G04 #@! TO.N,DMA*
X107605000Y-127740000D03*
G04 #@! TO.P,U3,2,A1*
G04 #@! TO.N,VID\u005C~{u}*
X107605000Y-126470000D03*
G04 #@! TO.P,U3,3,I3a*
G04 #@! TO.N,VA1*
X107605000Y-125200000D03*
G04 #@! TO.P,U3,4,I2a*
G04 #@! TO.N,PULLUP*
X107605000Y-123930000D03*
G04 #@! TO.P,U3,5,I1a*
G04 #@! TO.N,A2*
X107605000Y-122660000D03*
G04 #@! TO.P,U3,6,I0a*
G04 #@! TO.N,A19*
X107605000Y-121390000D03*
G04 #@! TO.P,U3,7,Za*
G04 #@! TO.N,MRA1*
X107605000Y-120120000D03*
G04 #@! TO.P,U3,8,GND*
G04 #@! TO.N,GND*
X107605000Y-118850000D03*
G04 #@! TO.P,U3,9,Zb*
G04 #@! TO.N,Net-(U1-Zd)*
X102455000Y-118850000D03*
G04 #@! TO.P,U3,10,I0b*
G04 #@! TO.N,A20*
X102455000Y-120120000D03*
G04 #@! TO.P,U3,11,I1b*
G04 #@! TO.N,A10*
X102455000Y-121390000D03*
G04 #@! TO.P,U3,12,I2b*
G04 #@! TO.N,PULLUP*
X102455000Y-122660000D03*
G04 #@! TO.P,U3,13,I3b*
G04 #@! TO.N,VA9*
X102455000Y-123930000D03*
G04 #@! TO.P,U3,14,A0*
G04 #@! TO.N,C2M*
X102455000Y-125200000D03*
G04 #@! TO.P,U3,15,OEb*
G04 #@! TO.N,DMA*
X102455000Y-126470000D03*
G04 #@! TO.P,U3,16,VCC*
G04 #@! TO.N,VCC*
X102455000Y-127740000D03*
G04 #@! TD*
D11*
G04 #@! TO.P,R10,1*
G04 #@! TO.N,VCC*
X98470000Y-100870000D03*
G04 #@! TO.P,R10,2*
G04 #@! TO.N,PULLUP*
X98470000Y-98870000D03*
G04 #@! TD*
D10*
G04 #@! TO.P,R6,1*
G04 #@! TO.N,RA5*
X91050000Y-119850000D03*
G04 #@! TO.P,R6,2*
G04 #@! TO.N,RA5F*
X91050000Y-121850000D03*
G04 #@! TD*
G04 #@! TO.P,R4,1*
G04 #@! TO.N,RA3*
X98470000Y-107030000D03*
G04 #@! TO.P,R4,2*
G04 #@! TO.N,RA3F*
X98470000Y-109030000D03*
G04 #@! TD*
D19*
G04 #@! TO.P,R9,1*
G04 #@! TO.N,MSRA1F*
X84845000Y-117545000D03*
G04 #@! TO.P,R9,2*
G04 #@! TO.N,Net-(JP3-C)*
X82845000Y-117545000D03*
G04 #@! TD*
D10*
G04 #@! TO.P,R12,1*
G04 #@! TO.N,~{CAS0F}*
X91650000Y-136975000D03*
G04 #@! TO.P,R12,2*
G04 #@! TO.N,Net-(R12-Pad2)*
X91650000Y-138975000D03*
G04 #@! TD*
D17*
G04 #@! TO.P,JP3,1,A*
G04 #@! TO.N,RA1*
X79675000Y-120180000D03*
D14*
G04 #@! TO.P,JP3,2,C*
G04 #@! TO.N,Net-(JP3-C)*
X79675000Y-118880000D03*
D18*
G04 #@! TO.P,JP3,3,B*
G04 #@! TO.N,MRA1*
X79675000Y-117580000D03*
G04 #@! TD*
D11*
G04 #@! TO.P,R11,1*
G04 #@! TO.N,MRA9F*
X98340000Y-121080000D03*
G04 #@! TO.P,R11,2*
G04 #@! TO.N,Net-(U1-Zd)*
X98340000Y-119080000D03*
G04 #@! TD*
D16*
G04 #@! TO.P,U2,1,OEa*
G04 #@! TO.N,DMA*
X107600000Y-113659600D03*
G04 #@! TO.P,U2,2,A1*
G04 #@! TO.N,VID\u005C~{u}*
X107600000Y-112389600D03*
G04 #@! TO.P,U2,3,I3a*
G04 #@! TO.N,VA8*
X107600000Y-111119600D03*
G04 #@! TO.P,U2,4,I2a*
G04 #@! TO.N,PULLUP*
X107600000Y-109849600D03*
G04 #@! TO.P,U2,5,I1a*
G04 #@! TO.N,A9*
X107600000Y-108579600D03*
G04 #@! TO.P,U2,6,I0a*
G04 #@! TO.N,A17*
X107600000Y-107309600D03*
G04 #@! TO.P,U2,7,Za*
G04 #@! TO.N,MRA8*
X107600000Y-106039600D03*
G04 #@! TO.P,U2,8,GND*
G04 #@! TO.N,GND*
X107600000Y-104769600D03*
G04 #@! TO.P,U2,9,Zb*
G04 #@! TO.N,MRA0*
X102450000Y-104769600D03*
G04 #@! TO.P,U2,10,I0b*
G04 #@! TO.N,A18*
X102450000Y-106039600D03*
G04 #@! TO.P,U2,11,I1b*
G04 #@! TO.N,A1*
X102450000Y-107309600D03*
G04 #@! TO.P,U2,12,I2b*
G04 #@! TO.N,PULLUP*
X102450000Y-108579600D03*
G04 #@! TO.P,U2,13,I3b*
G04 #@! TO.N,VA0*
X102450000Y-109849600D03*
G04 #@! TO.P,U2,14,A0*
G04 #@! TO.N,C2M*
X102450000Y-111119600D03*
G04 #@! TO.P,U2,15,OEb*
G04 #@! TO.N,DMA*
X102450000Y-112389600D03*
G04 #@! TO.P,U2,16,VCC*
G04 #@! TO.N,VCC*
X102450000Y-113659600D03*
G04 #@! TD*
D11*
G04 #@! TO.P,R1,1*
G04 #@! TO.N,MSRA8F*
X91695000Y-92065000D03*
G04 #@! TO.P,R1,2*
G04 #@! TO.N,Net-(JP2-C)*
X91695000Y-90065000D03*
G04 #@! TD*
D10*
G04 #@! TO.P,R7,1*
G04 #@! TO.N,RA7*
X91050000Y-125925000D03*
G04 #@! TO.P,R7,2*
G04 #@! TO.N,RA7F*
X91050000Y-127925000D03*
G04 #@! TD*
D12*
G04 #@! TO.P,C1,1*
G04 #@! TO.N,VCC*
X105824770Y-115629814D03*
G04 #@! TO.P,C1,2*
G04 #@! TO.N,GND*
X107899770Y-115629814D03*
G04 #@! TD*
D20*
G04 #@! TO.P,SWB1,1*
G04 #@! TO.N,~{CAS1}*
X108320000Y-143280000D03*
G04 #@! TO.P,SWB1,2*
X108320000Y-142010000D03*
G04 #@! TO.P,SWB1,3*
G04 #@! TO.N,~{CAS0}*
X108320000Y-140740000D03*
G04 #@! TO.P,SWB1,4*
X108320000Y-139470000D03*
G04 #@! TO.P,SWB1,5*
G04 #@! TO.N,C2M*
X108320000Y-138200000D03*
G04 #@! TO.P,SWB1,6*
G04 #@! TO.N,~{MCAS1}*
X108320000Y-136930000D03*
G04 #@! TO.P,SWB1,7*
G04 #@! TO.N,MC2M*
X102170000Y-136930000D03*
G04 #@! TO.P,SWB1,8*
X102170000Y-138200000D03*
G04 #@! TO.P,SWB1,9*
G04 #@! TO.N,Net-(R12-Pad2)*
X102170000Y-139470000D03*
G04 #@! TO.P,SWB1,10*
G04 #@! TO.N,~{MCAS0}*
X102170000Y-140740000D03*
G04 #@! TO.P,SWB1,11*
G04 #@! TO.N,Net-(R13-Pad2)*
X102170000Y-142010000D03*
G04 #@! TO.P,SWB1,12*
G04 #@! TO.N,~{MCAS1}*
X102170000Y-143280000D03*
G04 #@! TD*
D21*
G04 #@! TO.P,J4,1,Pin_1*
G04 #@! TO.N,~{MCAS1}*
X99325000Y-143725000D03*
D22*
G04 #@! TO.P,J4,2,Pin_2*
G04 #@! TO.N,~{MCAS0}*
X99325000Y-141185000D03*
G04 #@! TO.P,J4,3,Pin_3*
G04 #@! TO.N,VID\u005C~{u}*
X99325000Y-138645000D03*
G04 #@! TO.P,J4,4,Pin_4*
G04 #@! TO.N,MC2M*
X99325000Y-136105000D03*
G04 #@! TO.P,J4,5,Pin_5*
G04 #@! TO.N,MRA9F*
X99325000Y-133565000D03*
G04 #@! TO.P,J4,6,Pin_6*
G04 #@! TO.N,MSRA8F*
X99325000Y-131025000D03*
G04 #@! TD*
D21*
G04 #@! TO.P,J6,1,Pin_1*
G04 #@! TO.N,RA5*
X94550000Y-120850000D03*
D22*
G04 #@! TO.P,J6,2,Pin_2*
G04 #@! TO.N,RA5F*
X94550000Y-123390000D03*
G04 #@! TO.P,J6,3,Pin_3*
G04 #@! TO.N,RA7*
X94550000Y-125930000D03*
G04 #@! TO.P,J6,4,Pin_4*
G04 #@! TO.N,RA7F*
X94550000Y-128470000D03*
G04 #@! TO.P,J6,5,Pin_5*
G04 #@! TO.N,RA6*
X94550000Y-131010000D03*
G04 #@! TO.P,J6,6,Pin_6*
G04 #@! TO.N,RA6F*
X94550000Y-133550000D03*
G04 #@! TO.P,J6,7,Pin_7*
G04 #@! TO.N,~{CAS0F}*
X94550000Y-136090000D03*
G04 #@! TO.P,J6,8,Pin_8*
G04 #@! TO.N,~{CAS0}*
X94550000Y-138630000D03*
G04 #@! TO.P,J6,9,Pin_9*
G04 #@! TO.N,~{CAS1F}*
X94550000Y-141170000D03*
G04 #@! TO.P,J6,10,Pin_10*
G04 #@! TO.N,~{CAS1}*
X94550000Y-143710000D03*
G04 #@! TD*
D21*
G04 #@! TO.P,J2,1*
G04 #@! TO.N,DMA*
X89615000Y-114515000D03*
D22*
G04 #@! TO.P,J2,2*
G04 #@! TO.N,VID\u005C~{u}*
X89615000Y-111975000D03*
G04 #@! TO.P,J2,3*
G04 #@! TO.N,VA0*
X89615000Y-109435000D03*
G04 #@! TO.P,J2,4*
G04 #@! TO.N,VA8*
X89615000Y-106895000D03*
G04 #@! TO.P,J2,5*
G04 #@! TO.N,A1*
X89615000Y-104355000D03*
G04 #@! TO.P,J2,6*
G04 #@! TO.N,A9*
X89615000Y-101815000D03*
G04 #@! TO.P,J2,7*
G04 #@! TO.N,RA0*
X89615000Y-99275000D03*
G04 #@! TO.P,J2,8*
G04 #@! TO.N,GND*
X89615000Y-96735000D03*
G04 #@! TO.P,J2,9*
G04 #@! TO.N,RA1*
X81995000Y-96735000D03*
G04 #@! TO.P,J2,10*
G04 #@! TO.N,A10*
X81995000Y-99275000D03*
G04 #@! TO.P,J2,11*
G04 #@! TO.N,A2*
X81995000Y-101815000D03*
G04 #@! TO.P,J2,12*
G04 #@! TO.N,VA9*
X81995000Y-104355000D03*
G04 #@! TO.P,J2,13*
G04 #@! TO.N,VA1*
X81995000Y-106895000D03*
G04 #@! TO.P,J2,14*
G04 #@! TO.N,C2M*
X81995000Y-109435000D03*
G04 #@! TO.P,J2,15*
G04 #@! TO.N,unconnected-(J2-Pad15)*
X81995000Y-111975000D03*
G04 #@! TO.P,J2,16*
G04 #@! TO.N,VCC*
X81995000Y-114515000D03*
G04 #@! TD*
D21*
G04 #@! TO.P,J3,1,Pin_1*
G04 #@! TO.N,~{SNDPG2}*
X87700000Y-120855000D03*
D22*
G04 #@! TO.P,J3,2,Pin_2*
G04 #@! TO.N,~{DMA}*
X87700000Y-123395000D03*
G04 #@! TO.P,J3,3,Pin_3*
G04 #@! TO.N,VA6*
X87700000Y-125935000D03*
G04 #@! TO.P,J3,4,Pin_4*
G04 #@! TO.N,VA13*
X87700000Y-128475000D03*
G04 #@! TO.P,J3,5,Pin_5*
G04 #@! TO.N,A18*
X87700000Y-131015000D03*
G04 #@! TO.P,J3,6,Pin_6*
G04 #@! TO.N,VA5*
X87700000Y-133555000D03*
G04 #@! TO.P,J3,7,Pin_7*
G04 #@! TO.N,A17*
X87700000Y-136095000D03*
G04 #@! TO.P,J3,8,Pin_8*
G04 #@! TO.N,A20*
X87700000Y-138635000D03*
G04 #@! TO.P,J3,9,Pin_9*
G04 #@! TO.N,A19*
X87700000Y-141175000D03*
G04 #@! TO.P,J3,10,Pin_10*
G04 #@! TO.N,RA8*
X87700000Y-143715000D03*
G04 #@! TD*
D21*
G04 #@! TO.P,J5,1,Pin_1*
G04 #@! TO.N,RA0*
X94550000Y-91550000D03*
D22*
G04 #@! TO.P,J5,2,Pin_2*
G04 #@! TO.N,MSRA0F*
X94550000Y-94090000D03*
G04 #@! TO.P,J5,3,Pin_3*
G04 #@! TO.N,RA4F*
X94550000Y-96630000D03*
G04 #@! TO.P,J5,4,Pin_4*
G04 #@! TO.N,RA4*
X94550000Y-99170000D03*
G04 #@! TO.P,J5,5,Pin_5*
G04 #@! TO.N,RA2*
X94550000Y-101710000D03*
G04 #@! TO.P,J5,6,Pin_6*
G04 #@! TO.N,RA2F*
X94550000Y-104250000D03*
G04 #@! TO.P,J5,7,Pin_7*
G04 #@! TO.N,RA3*
X94550000Y-106790000D03*
G04 #@! TO.P,J5,8,Pin_8*
G04 #@! TO.N,RA3F*
X94550000Y-109330000D03*
G04 #@! TO.P,J5,9,Pin_9*
G04 #@! TO.N,MSRA1F*
X94550000Y-111870000D03*
G04 #@! TO.P,J5,10,Pin_10*
G04 #@! TO.N,RA1*
X94550000Y-114410000D03*
G04 #@! TD*
D23*
G04 #@! TO.N,GND*
X84290000Y-139920000D03*
X84150000Y-111480000D03*
X77930000Y-126196250D03*
X98400000Y-112300000D03*
X109200000Y-101370000D03*
X107660000Y-89100000D03*
X84850000Y-99870000D03*
X92390000Y-119040000D03*
X107900000Y-117470000D03*
X105930000Y-89990000D03*
X77930000Y-113793750D03*
X89490000Y-120750000D03*
X108940000Y-118830000D03*
X77930000Y-132397500D03*
X84290000Y-135010000D03*
X109780000Y-90470000D03*
X77930000Y-138598750D03*
X77930000Y-101391250D03*
X83720000Y-103330000D03*
X83800000Y-97810000D03*
X77930000Y-144772500D03*
X86340000Y-119050000D03*
X85620000Y-95860000D03*
X96620000Y-119100000D03*
X104790000Y-103280000D03*
X84140000Y-106030000D03*
X98780000Y-104350000D03*
X77930000Y-107592500D03*
X109100000Y-115629814D03*
X84140000Y-108340000D03*
X84290000Y-130100000D03*
X98450000Y-114890000D03*
X98770000Y-102300000D03*
X77930000Y-95190000D03*
X109180000Y-104780000D03*
G04 #@! TO.N,RA1*
X79470000Y-113500000D03*
G04 #@! TO.N,MSRA8F*
X100490000Y-92970000D03*
G04 #@! TO.N,MRA0*
X92668900Y-99838100D03*
X96295000Y-101000000D03*
G04 #@! TO.N,VA5*
X103930168Y-126876110D03*
X103630000Y-98710000D03*
G04 #@! TO.N,DMA*
X104840000Y-126405000D03*
X105335000Y-112985000D03*
G04 #@! TO.N,A18*
X99595000Y-106000000D03*
G04 #@! TO.N,VA8*
X104592911Y-109207089D03*
G04 #@! TO.N,MRA1*
X103830000Y-94780000D03*
X102425000Y-117232337D03*
G04 #@! TO.N,VCC*
X100740000Y-117410000D03*
X101150000Y-127740000D03*
X99780000Y-121970000D03*
X104430000Y-128070000D03*
X101300000Y-99800000D03*
X100740000Y-116710000D03*
X101118075Y-113650789D03*
G04 #@! TO.N,~{CAS0}*
X104580000Y-139910000D03*
G04 #@! TO.N,VID\u005C~{u}*
X105735000Y-126455000D03*
G04 #@! TO.N,C2M*
X106730000Y-100090000D03*
X105200000Y-125160000D03*
X106420000Y-130120000D03*
X106387089Y-113072911D03*
G04 #@! TO.N,VA13*
X104715000Y-93047600D03*
G04 #@! TO.N,~{DMA}*
X100885500Y-98551700D03*
X90197000Y-123390000D03*
G04 #@! TO.N,MSRA1F*
X90000000Y-118400000D03*
G04 #@! TO.N,Net-(U1-Zd)*
X100510000Y-92190000D03*
X102455000Y-118070000D03*
G04 #@! TO.N,~{SNDPG2}*
X100480000Y-93850000D03*
G04 #@! TO.N,VA6*
X100090600Y-96995600D03*
G04 #@! TO.N,A10*
X83860000Y-121330000D03*
G04 #@! TO.N,A19*
X110100000Y-127660000D03*
X108977577Y-121697577D03*
G04 #@! TO.N,A2*
X86970000Y-113950000D03*
G04 #@! TO.N,A20*
X99480000Y-120250000D03*
G04 #@! TO.N,VA1*
X85349400Y-125495200D03*
G04 #@! TO.N,VA9*
X85551800Y-123178800D03*
G04 #@! TO.N,MRA9F*
X97800000Y-122340000D03*
G04 #@! TO.N,PULLUP*
X105200000Y-123400000D03*
X106165000Y-94310000D03*
X106000000Y-109900000D03*
G04 #@! TO.N,~{MCAS1}*
X99214695Y-128645914D03*
X101310000Y-130010000D03*
X107240000Y-136960000D03*
X103560000Y-143360000D03*
G04 #@! TO.N,~{MCAS0}*
X106055000Y-140780000D03*
X109415000Y-125080000D03*
G04 #@! TO.N,RA8*
X88150000Y-93760000D03*
G04 #@! TD*
D24*
G04 #@! TO.N,GND*
X89615000Y-96735000D02*
X89615000Y-97435000D01*
X89170000Y-95710000D02*
X90070000Y-95710000D01*
X88450000Y-97180000D02*
X89170000Y-97180000D01*
X88455000Y-96735000D02*
X88450000Y-96730000D01*
X88450000Y-96430000D02*
X89170000Y-95710000D01*
X90055000Y-97435000D02*
X90440000Y-97050000D01*
X107899770Y-115629814D02*
X109100000Y-115629814D01*
X89170000Y-97180000D02*
X89615000Y-96735000D01*
X109170000Y-104770000D02*
X109180000Y-104780000D01*
X90760000Y-96400000D02*
X90760000Y-96730000D01*
D25*
X109180000Y-104780000D02*
X109190000Y-104770000D01*
D24*
X89610000Y-96730000D02*
X90760000Y-96730000D01*
X89615000Y-97435000D02*
X90055000Y-97435000D01*
X88450000Y-96730000D02*
X88450000Y-96430000D01*
X90505000Y-97435000D02*
X90760000Y-97180000D01*
X89615000Y-97435000D02*
X90505000Y-97435000D01*
X88705000Y-97435000D02*
X88450000Y-97180000D01*
X107000000Y-104770000D02*
X109170000Y-104770000D01*
X109765000Y-90455000D02*
X109780000Y-90470000D01*
X107675000Y-90455000D02*
X109765000Y-90455000D01*
X89615000Y-97435000D02*
X88705000Y-97435000D01*
X108920000Y-118850000D02*
X108940000Y-118830000D01*
X109200000Y-101370000D02*
X107948000Y-101370000D01*
X90755000Y-96735000D02*
X88455000Y-96735000D01*
X90070000Y-95710000D02*
X90760000Y-96400000D01*
X90760000Y-97180000D02*
X90760000Y-96730000D01*
X107605000Y-118850000D02*
X108920000Y-118850000D01*
X88450000Y-97180000D02*
X88450000Y-96730000D01*
X90760000Y-96730000D02*
X90755000Y-96735000D01*
D26*
G04 #@! TO.N,RA0*
X80030000Y-94730000D02*
X82413553Y-94730000D01*
X79190000Y-91523553D02*
X79190000Y-93890000D01*
X86973553Y-99290000D02*
X89550000Y-99290000D01*
X79786053Y-90927500D02*
X79190000Y-91523553D01*
X79190000Y-93890000D02*
X80030000Y-94730000D01*
X82413553Y-94730000D02*
X86973553Y-99290000D01*
X80390000Y-90927500D02*
X79786053Y-90927500D01*
G04 #@! TO.N,RA2*
X97560000Y-94680000D02*
X97120000Y-95120000D01*
X93860000Y-97900000D02*
X93389600Y-98370400D01*
X97120000Y-95800000D02*
X95020000Y-97900000D01*
X98071900Y-94680000D02*
X97560000Y-94680000D01*
X97120000Y-95120000D02*
X97120000Y-95800000D01*
X93389600Y-101209600D02*
X93890000Y-101710000D01*
X93389600Y-98370400D02*
X93389600Y-101209600D01*
X95020000Y-97900000D02*
X93860000Y-97900000D01*
G04 #@! TO.N,RA3*
X94550000Y-106790000D02*
X98230000Y-106790000D01*
G04 #@! TO.N,RA4*
X94550000Y-99170000D02*
X95370000Y-99170000D01*
X96030000Y-97550000D02*
X97870000Y-95710000D01*
X95370000Y-99170000D02*
X96030000Y-98510000D01*
X97870000Y-95710000D02*
X99280000Y-95710000D01*
X99470000Y-92510000D02*
X99090000Y-92510000D01*
X99850000Y-92890000D02*
X99470000Y-92510000D01*
X99280000Y-95710000D02*
X99850000Y-95140000D01*
X99850000Y-95140000D02*
X99850000Y-92890000D01*
X96030000Y-98510000D02*
X96030000Y-97550000D01*
G04 #@! TO.N,RA1*
X86400000Y-113400000D02*
X93540000Y-113400000D01*
X78495000Y-120155000D02*
X79205000Y-120155000D01*
X77940000Y-119600000D02*
X78495000Y-120155000D01*
X80960000Y-113130000D02*
X86130000Y-113130000D01*
X79470000Y-113500000D02*
X79470000Y-113510000D01*
X93540000Y-113400000D02*
X94550000Y-114410000D01*
X80590000Y-113500000D02*
X80960000Y-113130000D01*
X79470000Y-113510000D02*
X77940000Y-115040000D01*
X77940000Y-115040000D02*
X77940000Y-119600000D01*
X86130000Y-113130000D02*
X86400000Y-113400000D01*
X79470000Y-113500000D02*
X80590000Y-113500000D01*
G04 #@! TO.N,RA5*
X93176776Y-120776776D02*
X92323223Y-119923223D01*
X94550000Y-120850000D02*
X93353553Y-120850000D01*
X92146447Y-119850000D02*
X91050000Y-119850000D01*
X92323223Y-119923223D02*
G75*
G03*
X92146447Y-119849967I-176823J-176777D01*
G01*
X93176776Y-120776776D02*
G75*
G03*
X93353553Y-120850033I176824J176776D01*
G01*
G04 #@! TO.N,RA6*
X91050000Y-131010000D02*
X94550000Y-131010000D01*
G04 #@! TO.N,RA7*
X93143553Y-125930000D02*
X94550000Y-125930000D01*
X93138553Y-125925000D02*
X93143553Y-125930000D01*
X91050000Y-125925000D02*
X93138553Y-125925000D01*
G04 #@! TO.N,MSRA8F*
X99918310Y-92398310D02*
X100490000Y-92970000D01*
X91905000Y-91855000D02*
X94124400Y-89635600D01*
X99871840Y-90387026D02*
X99908090Y-90451577D01*
X99908090Y-90451577D02*
X99918310Y-90487163D01*
X99019047Y-89635600D02*
X99068443Y-89637257D01*
X99195823Y-89708823D02*
X99846776Y-90359776D01*
X99846776Y-90359776D02*
X99871840Y-90387026D01*
X99159710Y-89675078D02*
X99195823Y-89708823D01*
X94124400Y-89635600D02*
X99019047Y-89635600D01*
X99068443Y-89637257D02*
X99159710Y-89675078D01*
X99918310Y-90487163D02*
X99918310Y-92398310D01*
G04 #@! TO.N,MRA0*
X86595700Y-98160000D02*
X82036423Y-93600723D01*
X99230000Y-99860000D02*
X100240000Y-98850000D01*
X92668900Y-99838100D02*
X90990800Y-98160000D01*
X97435000Y-99860000D02*
X99230000Y-99860000D01*
X90990800Y-98160000D02*
X86595700Y-98160000D01*
X97635700Y-103335700D02*
X101435700Y-103335700D01*
X96295000Y-101995000D02*
X97635700Y-103335700D01*
X101347553Y-97440000D02*
X104510000Y-97440000D01*
X81859647Y-93527500D02*
X80390000Y-93527500D01*
X100240000Y-98444000D02*
X101170777Y-97513223D01*
X104510000Y-97440000D02*
X106415000Y-95535000D01*
X96295000Y-101000000D02*
X97435000Y-99860000D01*
X102450000Y-104350000D02*
X102450000Y-104769600D01*
X101435700Y-103335700D02*
X102450000Y-104350000D01*
X100240000Y-98850000D02*
X100240000Y-98444000D01*
X96295000Y-101000000D02*
X96295000Y-101995000D01*
X106415000Y-95535000D02*
X107675000Y-95535000D01*
X82036423Y-93600723D02*
G75*
G03*
X81859647Y-93527467I-176823J-176777D01*
G01*
X101170777Y-97513223D02*
G75*
G02*
X101347553Y-97439967I176823J-176777D01*
G01*
G04 #@! TO.N,VA5*
X90430000Y-132010000D02*
X92630000Y-132010000D01*
X101120000Y-126700000D02*
X97236690Y-126700000D01*
X95930000Y-129686690D02*
X96320000Y-129296690D01*
X96316689Y-127620001D02*
X96316690Y-128740000D01*
X106348553Y-96805000D02*
X107675000Y-96805000D01*
X95930000Y-131470000D02*
X95930000Y-129686690D01*
X87700000Y-133555000D02*
X88895000Y-133555000D01*
X92630000Y-132010000D02*
X92910000Y-132290000D01*
X92910000Y-132290000D02*
X95110000Y-132290000D01*
X97236690Y-126700000D02*
X96316689Y-127620001D01*
X96320000Y-129296690D02*
X96320000Y-128760000D01*
X89150000Y-133300000D02*
X89150000Y-133290000D01*
X104340000Y-98710000D02*
X106171777Y-96878223D01*
X103930168Y-126876110D02*
X103686278Y-127120000D01*
X103630000Y-98710000D02*
X104340000Y-98710000D01*
X89150000Y-133290000D02*
X90430000Y-132010000D01*
X88895000Y-133555000D02*
X89150000Y-133300000D01*
X101540000Y-127120000D02*
X101120000Y-126700000D01*
X95110000Y-132290000D02*
X95930000Y-131470000D01*
X103686278Y-127120000D02*
X101540000Y-127120000D01*
X106171777Y-96878223D02*
G75*
G02*
X106348553Y-96804967I176823J-176777D01*
G01*
G04 #@! TO.N,MC2M*
X101065000Y-136105000D02*
X102135000Y-137175000D01*
X102135000Y-137175000D02*
X102135000Y-138240000D01*
X99325000Y-136105000D02*
X101065000Y-136105000D01*
G04 #@! TO.N,A1*
X93884600Y-108024600D02*
X99875400Y-108024600D01*
X99875400Y-108024600D02*
X100590400Y-107309600D01*
X90230000Y-104370000D02*
X93884600Y-108024600D01*
X100590400Y-107309600D02*
X102450000Y-107309600D01*
G04 #@! TO.N,DMA*
X100084417Y-112389600D02*
X102450000Y-112389600D01*
X95840000Y-115030000D02*
X95840000Y-113880000D01*
X104669600Y-112389600D02*
X102450000Y-112389600D01*
X99005983Y-113468034D02*
X100084417Y-112389600D01*
X95840000Y-113880000D02*
X96251966Y-113468034D01*
X104840000Y-126405000D02*
X106175000Y-127740000D01*
X91740253Y-115510000D02*
X94087294Y-115510000D01*
X104806110Y-126371110D02*
X102553890Y-126371110D01*
X90553147Y-114530000D02*
X90602537Y-114531690D01*
X89550000Y-114530000D02*
X90553147Y-114530000D01*
X90761943Y-114531690D02*
X91740253Y-115510000D01*
X104840000Y-126405000D02*
X104806110Y-126371110D01*
X96251966Y-113468034D02*
X99005983Y-113468034D01*
X95355000Y-115515000D02*
X95840000Y-115030000D01*
X107600000Y-113659600D02*
X105939600Y-113659600D01*
X94087294Y-115510000D02*
X94092294Y-115515000D01*
X105939600Y-113659600D02*
X104669600Y-112389600D01*
X106175000Y-127740000D02*
X107605000Y-127740000D01*
X90602537Y-114531690D02*
X90761943Y-114531690D01*
X94092294Y-115515000D02*
X95355000Y-115515000D01*
G04 #@! TO.N,VA0*
X100355000Y-110435000D02*
X100940400Y-109849600D01*
X89550000Y-109450000D02*
X92074916Y-109450000D01*
X100940400Y-109849600D02*
X102450000Y-109849600D01*
X92074916Y-109450000D02*
X93059916Y-110435000D01*
X93059916Y-110435000D02*
X100355000Y-110435000D01*
G04 #@! TO.N,A18*
X100188708Y-106039600D02*
X102450000Y-106039600D01*
X100188308Y-106040000D02*
X100188708Y-106039600D01*
X99595000Y-106000000D02*
X99635000Y-106040000D01*
X99635000Y-106040000D02*
X100188308Y-106040000D01*
G04 #@! TO.N,VA8*
X104592911Y-109207089D02*
X104592911Y-109462911D01*
X106249600Y-111119600D02*
X107600000Y-111119600D01*
X104592911Y-109462911D02*
X106249600Y-111119600D01*
G04 #@! TO.N,A9*
X98391402Y-105395045D02*
X98296447Y-105490000D01*
X107600000Y-108579600D02*
X105509600Y-108579600D01*
X98296447Y-105490000D02*
X93890000Y-105490000D01*
X103810000Y-106880000D02*
X103810000Y-105740000D01*
X105509600Y-108579600D02*
X103810000Y-106880000D01*
X103465045Y-105395045D02*
X98391402Y-105395045D01*
X103810000Y-105740000D02*
X103465045Y-105395045D01*
X93890000Y-105490000D02*
X90230000Y-101830000D01*
G04 #@! TO.N,A17*
X87700000Y-136095000D02*
X88835000Y-136095000D01*
X103160000Y-128680000D02*
X108120000Y-128680000D01*
X96800000Y-132890000D02*
X96800000Y-131263310D01*
X90275000Y-134655000D02*
X95035000Y-134655000D01*
X95035000Y-134655000D02*
X96800000Y-132890000D01*
X88835000Y-136095000D02*
X90275000Y-134655000D01*
X100163380Y-129160000D02*
X102680000Y-129160000D01*
X109209600Y-107309600D02*
X107600000Y-107309600D01*
X110300000Y-108400000D02*
X109209600Y-107309600D01*
X108120000Y-128680000D02*
X110300000Y-126500000D01*
X110300000Y-126500000D02*
X110300000Y-108400000D01*
X96800000Y-131263310D02*
X98883310Y-129180000D01*
X102680000Y-129160000D02*
X103160000Y-128680000D01*
X100143380Y-129180000D02*
X100163380Y-129160000D01*
X98883310Y-129180000D02*
X100143380Y-129180000D01*
G04 #@! TO.N,RA5F*
X94550000Y-123390000D02*
X93546853Y-123390000D01*
X93370076Y-123316776D02*
X91976523Y-121923223D01*
X91799747Y-121850000D02*
X91050000Y-121850000D01*
X91976523Y-121923223D02*
G75*
G03*
X91799747Y-121849967I-176823J-176777D01*
G01*
X93546853Y-123390000D02*
G75*
G02*
X93370099Y-123316753I47J250000D01*
G01*
G04 #@! TO.N,RA2F*
X97583553Y-96680000D02*
X97190000Y-97073553D01*
X97190000Y-99390822D02*
X95790000Y-100790822D01*
X97190000Y-97073553D02*
X97190000Y-99390822D01*
X98470000Y-96680000D02*
X97583553Y-96680000D01*
X95790000Y-103010000D02*
X94550000Y-104250000D01*
X95790000Y-100790822D02*
X95790000Y-103010000D01*
G04 #@! TO.N,RA7F*
X92595000Y-127925000D02*
X93140000Y-128470000D01*
X93140000Y-128470000D02*
X94550000Y-128470000D01*
X91050000Y-127925000D02*
X92595000Y-127925000D01*
G04 #@! TO.N,RA6F*
X91050000Y-133010000D02*
X92480000Y-133010000D01*
X92480000Y-133010000D02*
X93020000Y-133550000D01*
X93020000Y-133550000D02*
X94550000Y-133550000D01*
G04 #@! TO.N,RA3F*
X94550000Y-109330000D02*
X98170000Y-109330000D01*
G04 #@! TO.N,RA4F*
X97533553Y-90510000D02*
X98470000Y-90510000D01*
X96863224Y-91076776D02*
X97356777Y-90583223D01*
X94550000Y-96630000D02*
X95526447Y-96630000D01*
X96790000Y-95366447D02*
X96790000Y-91253553D01*
X95703224Y-96556776D02*
X96716777Y-95543223D01*
X95526447Y-96630000D02*
G75*
G03*
X95703201Y-96556753I-47J250000D01*
G01*
X96790000Y-95366447D02*
G75*
G02*
X96716754Y-95543200I-250000J47D01*
G01*
X96863224Y-91076776D02*
G75*
G03*
X96789967Y-91253553I176776J-176824D01*
G01*
X97533553Y-90510000D02*
G75*
G03*
X97356800Y-90583246I47J-250000D01*
G01*
G04 #@! TO.N,MRA1*
X87300000Y-117890000D02*
X85290000Y-115880000D01*
X102425000Y-117232337D02*
X101847663Y-117232337D01*
X103830000Y-94610000D02*
X103485000Y-94265000D01*
X101847663Y-117232337D02*
X101085000Y-117995000D01*
X103830000Y-94780000D02*
X103830000Y-94610000D01*
X105312663Y-120120000D02*
X107605000Y-120120000D01*
X102425000Y-117232337D02*
X105312663Y-120120000D01*
X81320000Y-115880000D02*
X79645000Y-117555000D01*
X101085000Y-117995000D02*
X99015000Y-117995000D01*
X85290000Y-115880000D02*
X81320000Y-115880000D01*
X98910000Y-117890000D02*
X87300000Y-117890000D01*
X103485000Y-94265000D02*
X102525000Y-94265000D01*
X99015000Y-117995000D02*
X98910000Y-117890000D01*
D25*
G04 #@! TO.N,VCC*
X102525000Y-99915000D02*
X102930000Y-100320000D01*
D24*
X81995000Y-114530000D02*
X81995000Y-115235000D01*
D27*
X104100000Y-127740000D02*
X102455000Y-127740000D01*
D25*
X104000000Y-114160000D02*
X104000000Y-114142957D01*
D24*
X81995000Y-115235000D02*
X82255000Y-115235000D01*
D25*
X102930000Y-100320000D02*
X105540000Y-100320000D01*
D24*
X81300000Y-114950000D02*
X81585000Y-115235000D01*
D25*
X103516643Y-113659600D02*
X102450000Y-113659600D01*
D24*
X81995000Y-114530000D02*
X81995000Y-113845000D01*
D28*
X85530000Y-114530000D02*
X87990000Y-116990000D01*
D24*
X81300000Y-114530000D02*
X81300000Y-114950000D01*
X82275000Y-113845000D02*
X82960000Y-114530000D01*
X100740000Y-116710000D02*
X100740000Y-117410000D01*
D25*
X101150000Y-127740000D02*
X100180000Y-127740000D01*
D28*
X87990000Y-116990000D02*
X100640000Y-116990000D01*
D25*
X99805000Y-121995000D02*
X99805000Y-122885000D01*
X98470000Y-100870000D02*
X100230000Y-100870000D01*
D27*
X104430000Y-128070000D02*
X104100000Y-127740000D01*
D24*
X82255000Y-115235000D02*
X82960000Y-114530000D01*
X81995000Y-114530000D02*
X81300000Y-114530000D01*
D25*
X100230000Y-100870000D02*
X101300000Y-99800000D01*
X104000000Y-114142957D02*
X103516643Y-113659600D01*
X105469814Y-115629814D02*
X104000000Y-114160000D01*
D24*
X81995000Y-113845000D02*
X82275000Y-113845000D01*
D25*
X99780000Y-121970000D02*
X99805000Y-121995000D01*
D24*
X101755000Y-99345000D02*
X101300000Y-99800000D01*
X101150000Y-127740000D02*
X102455000Y-127740000D01*
X102450000Y-113659600D02*
X101118075Y-113650789D01*
X81300000Y-114160000D02*
X81615000Y-113845000D01*
X81615000Y-113845000D02*
X81995000Y-113845000D01*
D25*
X105872000Y-100652000D02*
X105872000Y-101370000D01*
D24*
X82000000Y-114530000D02*
X82960000Y-114530000D01*
D25*
X102525000Y-99345000D02*
X102525000Y-99915000D01*
X105540000Y-100320000D02*
X105872000Y-100652000D01*
D28*
X82960000Y-114530000D02*
X85530000Y-114530000D01*
D24*
X81300000Y-114530000D02*
X81300000Y-114160000D01*
X81585000Y-115235000D02*
X81995000Y-115235000D01*
X102525000Y-99345000D02*
X101755000Y-99345000D01*
D26*
G04 #@! TO.N,~{CAS0F}*
X92595000Y-136975000D02*
X93480000Y-136090000D01*
X91650000Y-136975000D02*
X92595000Y-136975000D01*
X93480000Y-136090000D02*
X94550000Y-136090000D01*
G04 #@! TO.N,~{CAS1F}*
X92580000Y-143140000D02*
X91640000Y-143140000D01*
X94550000Y-141170000D02*
X92580000Y-143140000D01*
G04 #@! TO.N,~{CAS0}*
X104580000Y-139910000D02*
X105020000Y-139470000D01*
X108320000Y-139470000D02*
X108320000Y-140740000D01*
X105020000Y-139470000D02*
X108320000Y-139470000D01*
G04 #@! TO.N,~{CAS1}*
X96060000Y-145220000D02*
X94550000Y-143710000D01*
X107500000Y-145220000D02*
X96060000Y-145220000D01*
X108320000Y-144400000D02*
X107500000Y-145220000D01*
X108320000Y-142010000D02*
X108320000Y-144400000D01*
G04 #@! TO.N,Net-(JP1-C)*
X80390000Y-92227500D02*
X81723947Y-92227500D01*
X82481053Y-92777500D02*
X83690000Y-92777500D01*
X81900724Y-92300724D02*
X82304277Y-92704277D01*
X81723947Y-92227500D02*
G75*
G02*
X81900701Y-92300747I-47J-250000D01*
G01*
X82481053Y-92777500D02*
G75*
G02*
X82304300Y-92704254I47J250000D01*
G01*
G04 #@! TO.N,VID\u005C~{u}*
X109970000Y-125330000D02*
X109970000Y-113370000D01*
X107605000Y-126470000D02*
X108830000Y-126470000D01*
X101000000Y-110500000D02*
X100735000Y-110765000D01*
X100735000Y-110765000D02*
X90775000Y-110765000D01*
X104700000Y-110500000D02*
X101000000Y-110500000D01*
X90775000Y-110765000D02*
X89550000Y-111990000D01*
X105735000Y-126455000D02*
X105750000Y-126470000D01*
X109970000Y-113370000D02*
X108989600Y-112389600D01*
X105750000Y-126470000D02*
X107605000Y-126470000D01*
X106589600Y-112389600D02*
X104700000Y-110500000D01*
X108989600Y-112389600D02*
X107600000Y-112389600D01*
X107600000Y-112389600D02*
X106589600Y-112389600D01*
X108830000Y-126470000D02*
X109970000Y-125330000D01*
G04 #@! TO.N,C2M*
X106410000Y-130130000D02*
X106410000Y-137020000D01*
X84063223Y-109523223D02*
X87610000Y-113070000D01*
X83886447Y-109450000D02*
X83935837Y-109451690D01*
X107590000Y-138200000D02*
X108320000Y-138200000D01*
X106387089Y-113072911D02*
X104433778Y-111119600D01*
X98937327Y-113070000D02*
X100887727Y-111119600D01*
X106730000Y-100070000D02*
X107455000Y-99345000D01*
X100887727Y-111119600D02*
X102450000Y-111119600D01*
X87610000Y-113070000D02*
X98937327Y-113070000D01*
X83935837Y-109451690D02*
X84027092Y-109489506D01*
X105160000Y-125200000D02*
X102455000Y-125200000D01*
X106420000Y-130120000D02*
X106410000Y-130130000D01*
X106410000Y-137020000D02*
X107590000Y-138200000D01*
X106730000Y-100090000D02*
X106730000Y-100070000D01*
X104433778Y-111119600D02*
X102450000Y-111119600D01*
X105200000Y-125160000D02*
X105160000Y-125200000D01*
X82000000Y-109450000D02*
X83886447Y-109450000D01*
X84027092Y-109489506D02*
X84063223Y-109523223D01*
G04 #@! TO.N,VA13*
X104715000Y-93047600D02*
X107622400Y-93047600D01*
G04 #@! TO.N,~{DMA}*
X101540753Y-98000000D02*
X102346447Y-98000000D01*
X100885500Y-98551700D02*
X101363977Y-98073223D01*
X90197000Y-123390000D02*
X90192000Y-123395000D01*
X90192000Y-123395000D02*
X87700000Y-123395000D01*
X101540753Y-98000000D02*
G75*
G03*
X101364000Y-98073246I47J-250000D01*
G01*
G04 #@! TO.N,MSRA0F*
X83452500Y-90805000D02*
X84355000Y-90805000D01*
X86100000Y-94330000D02*
X94310000Y-94330000D01*
X84355000Y-90805000D02*
X85470000Y-91920000D01*
X85470000Y-93700000D02*
X86100000Y-94330000D01*
X85470000Y-91920000D02*
X85470000Y-93700000D01*
G04 #@! TO.N,MSRA1F*
X87025000Y-118372537D02*
X86197463Y-117545000D01*
X86197463Y-117545000D02*
X84845000Y-117545000D01*
X87025000Y-118400000D02*
X87025000Y-118372537D01*
X90000000Y-118400000D02*
X87025000Y-118400000D01*
G04 #@! TO.N,Net-(U1-Zd)*
X100510000Y-92190000D02*
X100510000Y-91493553D01*
X100000000Y-119100000D02*
X100251531Y-118848469D01*
X100583224Y-91316776D02*
X101371777Y-90528223D01*
X101548553Y-90455000D02*
X102525000Y-90455000D01*
X102455000Y-118070000D02*
X102455000Y-118850000D01*
X98360000Y-119100000D02*
X100000000Y-119100000D01*
X100251531Y-118848469D02*
X102453469Y-118848469D01*
X101371777Y-90528223D02*
G75*
G02*
X101548553Y-90454967I176823J-176777D01*
G01*
X100510000Y-91493553D02*
G75*
G02*
X100583247Y-91316799I250000J-47D01*
G01*
G04 #@! TO.N,~{SNDPG2}*
X101015000Y-93315000D02*
X101015000Y-92145000D01*
X100480000Y-93850000D02*
X101015000Y-93315000D01*
X101015000Y-92145000D02*
X101430000Y-91730000D01*
X101430000Y-91730000D02*
X102520000Y-91730000D01*
G04 #@! TO.N,VA6*
X101477976Y-95608224D02*
X100090600Y-96995600D01*
X102525000Y-95535000D02*
X101654753Y-95535000D01*
X101477976Y-95608224D02*
G75*
G02*
X101654753Y-95534967I176824J-176776D01*
G01*
G04 #@! TO.N,A10*
X99295000Y-121646106D02*
X99295000Y-121645000D01*
X99540000Y-121400000D02*
X102445000Y-121400000D01*
X97349999Y-123590001D02*
X99005000Y-121935000D01*
X97319999Y-123590001D02*
X97349999Y-123590001D01*
X96252718Y-124657282D02*
X97319999Y-123590001D01*
X92757282Y-124657282D02*
X96252718Y-124657282D01*
X89185000Y-122885000D02*
X90985000Y-122885000D01*
X88400000Y-122100000D02*
X89185000Y-122885000D01*
X90985000Y-122885000D02*
X92757282Y-124657282D01*
X84630000Y-122100000D02*
X88400000Y-122100000D01*
X99295000Y-121645000D02*
X99540000Y-121400000D01*
X99005000Y-121935000D02*
X99006106Y-121935000D01*
X83860000Y-121330000D02*
X84630000Y-122100000D01*
X99006106Y-121935000D02*
X99295000Y-121646106D01*
G04 #@! TO.N,A19*
X108977577Y-121697577D02*
X108743224Y-121463224D01*
X99230000Y-129510000D02*
X100280071Y-129509999D01*
X108760000Y-129010000D02*
X103430000Y-129010000D01*
X90497537Y-135822463D02*
X90497537Y-135832463D01*
X110100000Y-127670000D02*
X108760000Y-129010000D01*
X90497537Y-135832463D02*
X89625000Y-136705000D01*
X89625000Y-136705000D02*
X89625000Y-139250000D01*
X102940000Y-129500000D02*
X100290070Y-129500000D01*
X108566447Y-121390000D02*
X107605000Y-121390000D01*
X89625000Y-139250000D02*
X87700000Y-141175000D01*
X99230000Y-129510000D02*
X97260000Y-131480000D01*
X100290070Y-129500000D02*
X100280071Y-129509999D01*
X91335000Y-134985000D02*
X90497537Y-135822463D01*
X97260000Y-132966690D02*
X95241690Y-134985000D01*
X97260000Y-131480000D02*
X97260000Y-132966690D01*
X110100000Y-127660000D02*
X110100000Y-127670000D01*
X103430000Y-129010000D02*
X102940000Y-129500000D01*
X95241690Y-134985000D02*
X91335000Y-134985000D01*
X108743224Y-121463224D02*
G75*
G03*
X108566447Y-121389967I-176824J-176776D01*
G01*
G04 #@! TO.N,A2*
X105340000Y-119480000D02*
X108540000Y-119480000D01*
X89040000Y-116020000D02*
X102060000Y-116020000D01*
X103468969Y-117608969D02*
X105340000Y-119480000D01*
X108940000Y-122660000D02*
X107605000Y-122660000D01*
X103468969Y-117428969D02*
X103468969Y-117608969D01*
X109520000Y-120460000D02*
X109520000Y-122080000D01*
X109520000Y-122080000D02*
X108940000Y-122660000D01*
X102060000Y-116020000D02*
X103468969Y-117428969D01*
X86970000Y-113950000D02*
X89040000Y-116020000D01*
X108540000Y-119480000D02*
X109520000Y-120460000D01*
G04 #@! TO.N,A20*
X99610000Y-120120000D02*
X102455000Y-120120000D01*
X99480000Y-120250000D02*
X99610000Y-120120000D01*
G04 #@! TO.N,VA1*
X100930000Y-126370000D02*
X101450000Y-125850000D01*
X93100000Y-129700000D02*
X95450000Y-129700000D01*
X95450000Y-129700000D02*
X95990000Y-129160000D01*
X87113363Y-127203310D02*
X87162753Y-127205000D01*
X88372110Y-127244478D02*
X88408223Y-127278223D01*
X89420000Y-128930000D02*
X89710000Y-129220000D01*
X97100000Y-126370000D02*
X100930000Y-126370000D01*
X88280843Y-127206657D02*
X88372110Y-127244478D01*
X95990000Y-128880001D02*
X95986689Y-128876690D01*
X92620000Y-129220000D02*
X93100000Y-129700000D01*
X88408223Y-127278223D02*
X89420000Y-128290000D01*
X87022107Y-127165493D02*
X87113363Y-127203310D01*
X88231447Y-127205000D02*
X88280843Y-127206657D01*
X95990000Y-129160000D02*
X95990000Y-128880001D01*
X101450000Y-125850000D02*
X105830000Y-125850000D01*
X87162753Y-127205000D02*
X88231447Y-127205000D01*
X89710000Y-129220000D02*
X92620000Y-129220000D01*
X106480000Y-125200000D02*
X107605000Y-125200000D01*
X95986689Y-128876690D02*
X95986689Y-127483311D01*
X105830000Y-125850000D02*
X106480000Y-125200000D01*
X95986689Y-127483311D02*
X97100000Y-126370000D01*
X86985976Y-127131776D02*
X87022107Y-127165493D01*
X85349400Y-125495200D02*
X86985976Y-127131776D01*
X89420000Y-128290000D02*
X89420000Y-128930000D01*
G04 #@! TO.N,VA9*
X86939777Y-124566777D02*
X86975890Y-124600522D01*
X88126447Y-124640000D02*
X88175837Y-124641690D01*
X86975890Y-124600522D02*
X87067157Y-124638343D01*
X85551800Y-123178800D02*
X86939777Y-124566777D01*
X88175837Y-124641690D02*
X88191690Y-124641690D01*
X89100000Y-126260000D02*
X89770000Y-126930000D01*
X87067157Y-124638343D02*
X87116553Y-124640000D01*
X96900000Y-124476690D02*
X97456690Y-123920000D01*
X97456690Y-123920000D02*
X102445000Y-123920000D01*
X96900000Y-126103310D02*
X96900000Y-124476690D01*
X92880000Y-126930000D02*
X93140000Y-127190000D01*
X95813310Y-127190000D02*
X96900000Y-126103310D01*
X89100000Y-125550000D02*
X89100000Y-126260000D01*
X87116553Y-124640000D02*
X88126447Y-124640000D01*
X89770000Y-126930000D02*
X92880000Y-126930000D01*
X93140000Y-127190000D02*
X95813310Y-127190000D01*
X88191690Y-124641690D02*
X89100000Y-125550000D01*
G04 #@! TO.N,MRA9F*
X97800000Y-122340000D02*
X98340000Y-121800000D01*
X98340000Y-121800000D02*
X98340000Y-121080000D01*
G04 #@! TO.N,Net-(JP2-C)*
X90465000Y-91295000D02*
X88150000Y-91295000D01*
X91695000Y-90065000D02*
X90465000Y-91295000D01*
D25*
G04 #@! TO.N,PULLUP*
X99080000Y-98870000D02*
X101145000Y-96805000D01*
D26*
X105200000Y-123400000D02*
X105108647Y-123400000D01*
D25*
X106165000Y-94310000D02*
X104866447Y-94310000D01*
D26*
X106000000Y-109900000D02*
X104679600Y-108579600D01*
X108575000Y-98075000D02*
X109060000Y-97590000D01*
X109060000Y-94750000D02*
X108575000Y-94265000D01*
X104368647Y-122660000D02*
X102455000Y-122660000D01*
X104679600Y-108579600D02*
X102450000Y-108579600D01*
X107605000Y-123930000D02*
X105638647Y-123930000D01*
D25*
X103551447Y-92995000D02*
X102525000Y-92995000D01*
D26*
X105200000Y-123491353D02*
X105200000Y-123400000D01*
D25*
X101145000Y-96805000D02*
X102525000Y-96805000D01*
X104866447Y-94310000D02*
X103551447Y-92995000D01*
D26*
X106050400Y-109849600D02*
X106000000Y-109900000D01*
X105108647Y-123400000D02*
X104368647Y-122660000D01*
D25*
X104783224Y-95776776D02*
X103755000Y-96805000D01*
D26*
X105638647Y-123930000D02*
X105200000Y-123491353D01*
D25*
X103755000Y-96805000D02*
X102706914Y-96805000D01*
D26*
X107600000Y-109849600D02*
X106050400Y-109849600D01*
D25*
X107070000Y-94310000D02*
X106165000Y-94310000D01*
D26*
X109060000Y-97590000D02*
X109060000Y-94750000D01*
D25*
X98470000Y-98870000D02*
X99080000Y-98870000D01*
D26*
X107675000Y-98075000D02*
X108575000Y-98075000D01*
X108575000Y-94265000D02*
X107675000Y-94265000D01*
D25*
X104783224Y-94226776D02*
X104783224Y-95776776D01*
D26*
G04 #@! TO.N,~{MCAS1}*
X99214695Y-128084695D02*
X98895000Y-127765000D01*
X108340000Y-136720000D02*
X108340000Y-131270000D01*
X106430000Y-129360000D02*
X103546690Y-129360000D01*
X98895000Y-127765000D02*
X98155000Y-127765000D01*
X103560000Y-143360000D02*
X103520000Y-143320000D01*
X108340000Y-131270000D02*
X106430000Y-129360000D01*
X101060000Y-143320000D02*
X100655000Y-143725000D01*
X100655000Y-143725000D02*
X99325000Y-143725000D01*
X102896690Y-130010000D02*
X101310000Y-130010000D01*
X107240000Y-136960000D02*
X107250000Y-136970000D01*
X107250000Y-136970000D02*
X108090000Y-136970000D01*
X103546690Y-129360000D02*
X102896690Y-130010000D01*
X99214695Y-128645914D02*
X99214695Y-128084695D01*
X103520000Y-143320000D02*
X101060000Y-143320000D01*
G04 #@! TO.N,~{MCAS0}*
X108885000Y-124550000D02*
X100140000Y-124550000D01*
X106055000Y-140780000D02*
X99730000Y-140780000D01*
X109415000Y-125080000D02*
X108885000Y-124550000D01*
G04 #@! TO.N,RA8*
X88150000Y-92595000D02*
X88150000Y-93760000D01*
G04 #@! TO.N,Net-(JP3-C)*
X82910000Y-117610000D02*
X81665000Y-118855000D01*
X81665000Y-118855000D02*
X79645000Y-118855000D01*
G04 #@! TO.N,MRA8*
X109071447Y-91725000D02*
X107675000Y-91725000D01*
X106205000Y-91725000D02*
X107675000Y-91725000D01*
X107600000Y-106039600D02*
X109360400Y-106039600D01*
X109360400Y-106039600D02*
X110260000Y-105140000D01*
X89265000Y-88880000D02*
X103360000Y-88880000D01*
X103360000Y-88880000D02*
X106205000Y-91725000D01*
X110260000Y-92913553D02*
X109071447Y-91725000D01*
X110260000Y-105140000D02*
X110260000Y-92913553D01*
X88150000Y-89995000D02*
X89265000Y-88880000D01*
G04 #@! TO.N,Net-(R12-Pad2)*
X99850000Y-137360000D02*
X102000000Y-139510000D01*
X92385000Y-138975000D02*
X94000000Y-137360000D01*
X91650000Y-138975000D02*
X92385000Y-138975000D01*
X94000000Y-137360000D02*
X99850000Y-137360000D01*
G04 #@! TO.N,Net-(R13-Pad2)*
X102135000Y-142050000D02*
X100490000Y-142050000D01*
X100490000Y-142050000D02*
X100110000Y-142430000D01*
X95330000Y-139900000D02*
X93740000Y-139900000D01*
X100110000Y-142430000D02*
X97860000Y-142430000D01*
X92500000Y-141140000D02*
X91640000Y-141140000D01*
X93740000Y-139900000D02*
X92500000Y-141140000D01*
X97860000Y-142430000D02*
X95330000Y-139900000D01*
G04 #@! TD*
G04 #@! TA.AperFunction,Conductor*
G04 #@! TO.N,GND*
G36*
X86057614Y-118228079D02*
G01*
X86089939Y-118251356D01*
X86515425Y-118676842D01*
X86535128Y-118702519D01*
X86564485Y-118753365D01*
X86671635Y-118860515D01*
X86802865Y-118936281D01*
X86949234Y-118975500D01*
X89469550Y-118975500D01*
X89535522Y-118994506D01*
X89672309Y-119080456D01*
X89672313Y-119080457D01*
X89804594Y-119126745D01*
X89861370Y-119167466D01*
X89887117Y-119232419D01*
X89881345Y-119282789D01*
X89860001Y-119347200D01*
X89860000Y-119347204D01*
X89849500Y-119449983D01*
X89849500Y-120250001D01*
X89849501Y-120250019D01*
X89860000Y-120352796D01*
X89860001Y-120352799D01*
X89915185Y-120519331D01*
X89915187Y-120519336D01*
X89923158Y-120532259D01*
X90003883Y-120663136D01*
X90007289Y-120668657D01*
X90100951Y-120762319D01*
X90134436Y-120823642D01*
X90129452Y-120893334D01*
X90100951Y-120937681D01*
X90007289Y-121031342D01*
X89915187Y-121180663D01*
X89915185Y-121180668D01*
X89896423Y-121237289D01*
X89860001Y-121347203D01*
X89860001Y-121347204D01*
X89860000Y-121347204D01*
X89849500Y-121449983D01*
X89849500Y-121449991D01*
X89849500Y-121826098D01*
X89849501Y-122185500D01*
X89829817Y-122252539D01*
X89777013Y-122298294D01*
X89725501Y-122309500D01*
X89474742Y-122309500D01*
X89407703Y-122289815D01*
X89387061Y-122273181D01*
X89068458Y-121954578D01*
X89034973Y-121893255D01*
X89039956Y-121823567D01*
X89044091Y-121812483D01*
X89050500Y-121752873D01*
X89050499Y-119957128D01*
X89044214Y-119898657D01*
X89044091Y-119897516D01*
X88993797Y-119762671D01*
X88993793Y-119762664D01*
X88907547Y-119647455D01*
X88907544Y-119647452D01*
X88792335Y-119561206D01*
X88792328Y-119561202D01*
X88657482Y-119510908D01*
X88657483Y-119510908D01*
X88597883Y-119504501D01*
X88597881Y-119504500D01*
X88597873Y-119504500D01*
X88597864Y-119504500D01*
X86802129Y-119504500D01*
X86802123Y-119504501D01*
X86742516Y-119510908D01*
X86607671Y-119561202D01*
X86607664Y-119561206D01*
X86492455Y-119647452D01*
X86492452Y-119647455D01*
X86406206Y-119762664D01*
X86406202Y-119762671D01*
X86355908Y-119897517D01*
X86350037Y-119952128D01*
X86349500Y-119957127D01*
X86349500Y-120739523D01*
X86349501Y-121400500D01*
X86329816Y-121467539D01*
X86277013Y-121513294D01*
X86225501Y-121524500D01*
X84919742Y-121524500D01*
X84852703Y-121504815D01*
X84832061Y-121488181D01*
X84638484Y-121294604D01*
X84604999Y-121233281D01*
X84602946Y-121220821D01*
X84596313Y-121161941D01*
X84540456Y-121002310D01*
X84540453Y-121002305D01*
X84540452Y-121002302D01*
X84450481Y-120859115D01*
X84450476Y-120859109D01*
X84330890Y-120739523D01*
X84330884Y-120739518D01*
X84187697Y-120649547D01*
X84187694Y-120649545D01*
X84028056Y-120593685D01*
X83860003Y-120574751D01*
X83859997Y-120574751D01*
X83691943Y-120593685D01*
X83532305Y-120649545D01*
X83532302Y-120649547D01*
X83389115Y-120739518D01*
X83389109Y-120739523D01*
X83269523Y-120859109D01*
X83269518Y-120859115D01*
X83179547Y-121002302D01*
X83179545Y-121002305D01*
X83123685Y-121161943D01*
X83104751Y-121329997D01*
X83104751Y-121330002D01*
X83123685Y-121498056D01*
X83179545Y-121657694D01*
X83179547Y-121657697D01*
X83269518Y-121800884D01*
X83269523Y-121800890D01*
X83389109Y-121920476D01*
X83389115Y-121920481D01*
X83532302Y-122010452D01*
X83532308Y-122010455D01*
X83532310Y-122010456D01*
X83691941Y-122066313D01*
X83750806Y-122072945D01*
X83815219Y-122100010D01*
X83824604Y-122108484D01*
X84169485Y-122453365D01*
X84276635Y-122560515D01*
X84367301Y-122612861D01*
X84407865Y-122636281D01*
X84554233Y-122675500D01*
X84554234Y-122675500D01*
X84758568Y-122675500D01*
X84825607Y-122695185D01*
X84871362Y-122747989D01*
X84881306Y-122817147D01*
X84873025Y-122844321D01*
X84873644Y-122844538D01*
X84815485Y-123010743D01*
X84796551Y-123178797D01*
X84796551Y-123178802D01*
X84815485Y-123346856D01*
X84871345Y-123506494D01*
X84871347Y-123506497D01*
X84961318Y-123649684D01*
X84961323Y-123649690D01*
X85080909Y-123769276D01*
X85080915Y-123769281D01*
X85224102Y-123859252D01*
X85224108Y-123859255D01*
X85224110Y-123859256D01*
X85383741Y-123915113D01*
X85442606Y-123921745D01*
X85507019Y-123948810D01*
X85516404Y-123957284D01*
X86476225Y-124917105D01*
X86486068Y-124929492D01*
X86486339Y-124929270D01*
X86491495Y-124935538D01*
X86491497Y-124935540D01*
X86491498Y-124935541D01*
X86538225Y-124979204D01*
X86541215Y-124982095D01*
X86544282Y-124985162D01*
X86554988Y-124997371D01*
X86565373Y-125010909D01*
X86565377Y-125010912D01*
X86570053Y-125015590D01*
X86603529Y-125076918D01*
X86598535Y-125146609D01*
X86583934Y-125174382D01*
X86525963Y-125257173D01*
X86426097Y-125471335D01*
X86421101Y-125489982D01*
X86384734Y-125549642D01*
X86321886Y-125580169D01*
X86252511Y-125571872D01*
X86213646Y-125545566D01*
X86127884Y-125459804D01*
X86094399Y-125398481D01*
X86092346Y-125386021D01*
X86085713Y-125327141D01*
X86029856Y-125167510D01*
X86029853Y-125167505D01*
X86029852Y-125167502D01*
X85939881Y-125024315D01*
X85939876Y-125024309D01*
X85820290Y-124904723D01*
X85820284Y-124904718D01*
X85677097Y-124814747D01*
X85677094Y-124814745D01*
X85517456Y-124758885D01*
X85349403Y-124739951D01*
X85349397Y-124739951D01*
X85181343Y-124758885D01*
X85021705Y-124814745D01*
X85021702Y-124814747D01*
X84878515Y-124904718D01*
X84878509Y-124904723D01*
X84758923Y-125024309D01*
X84758918Y-125024315D01*
X84668947Y-125167502D01*
X84668945Y-125167505D01*
X84613085Y-125327143D01*
X84594151Y-125495197D01*
X84594151Y-125495202D01*
X84613085Y-125663256D01*
X84668945Y-125822894D01*
X84668947Y-125822897D01*
X84758918Y-125966084D01*
X84758923Y-125966090D01*
X84878509Y-126085676D01*
X84878515Y-126085681D01*
X85021702Y-126175652D01*
X85021708Y-126175655D01*
X85021710Y-126175656D01*
X85181341Y-126231513D01*
X85240206Y-126238145D01*
X85304619Y-126265210D01*
X85314004Y-126273684D01*
X86522589Y-127482269D01*
X86532530Y-127494769D01*
X86532777Y-127494567D01*
X86537937Y-127500831D01*
X86537941Y-127500837D01*
X86577414Y-127537673D01*
X86612996Y-127597798D01*
X86610423Y-127667620D01*
X86594389Y-127699450D01*
X86525964Y-127797172D01*
X86426097Y-128011335D01*
X86426094Y-128011344D01*
X86364938Y-128239586D01*
X86364936Y-128239596D01*
X86344341Y-128474999D01*
X86344341Y-128475000D01*
X86364936Y-128710403D01*
X86364938Y-128710413D01*
X86426094Y-128938655D01*
X86426096Y-128938659D01*
X86426097Y-128938663D01*
X86519696Y-129139387D01*
X86525965Y-129152830D01*
X86525967Y-129152834D01*
X86661501Y-129346395D01*
X86661506Y-129346402D01*
X86828597Y-129513493D01*
X86828603Y-129513498D01*
X87014158Y-129643425D01*
X87057783Y-129698002D01*
X87064977Y-129767500D01*
X87033454Y-129829855D01*
X87014158Y-129846575D01*
X86828597Y-129976505D01*
X86661505Y-130143597D01*
X86525965Y-130337169D01*
X86525964Y-130337171D01*
X86426098Y-130551335D01*
X86426094Y-130551344D01*
X86364938Y-130779586D01*
X86364936Y-130779596D01*
X86344341Y-131014999D01*
X86344341Y-131015000D01*
X86364936Y-131250403D01*
X86364938Y-131250413D01*
X86426094Y-131478655D01*
X86426096Y-131478659D01*
X86426097Y-131478663D01*
X86510091Y-131658789D01*
X86525965Y-131692830D01*
X86525967Y-131692834D01*
X86661501Y-131886395D01*
X86661506Y-131886402D01*
X86828597Y-132053493D01*
X86828603Y-132053498D01*
X87014158Y-132183425D01*
X87057783Y-132238002D01*
X87064977Y-132307500D01*
X87033454Y-132369855D01*
X87014158Y-132386575D01*
X86828597Y-132516505D01*
X86661505Y-132683597D01*
X86525965Y-132877169D01*
X86525964Y-132877171D01*
X86426098Y-133091335D01*
X86426094Y-133091344D01*
X86364938Y-133319586D01*
X86364936Y-133319596D01*
X86344341Y-133554999D01*
X86344341Y-133555000D01*
X86364936Y-133790403D01*
X86364938Y-133790413D01*
X86426094Y-134018655D01*
X86426096Y-134018659D01*
X86426097Y-134018663D01*
X86472752Y-134118715D01*
X86525965Y-134232830D01*
X86525967Y-134232834D01*
X86661501Y-134426395D01*
X86661506Y-134426402D01*
X86828597Y-134593493D01*
X86828603Y-134593498D01*
X87014158Y-134723425D01*
X87057783Y-134778002D01*
X87064977Y-134847500D01*
X87033454Y-134909855D01*
X87014158Y-134926575D01*
X86828597Y-135056505D01*
X86661505Y-135223597D01*
X86525965Y-135417169D01*
X86525964Y-135417171D01*
X86455296Y-135568719D01*
X86428430Y-135626335D01*
X86426098Y-135631335D01*
X86426094Y-135631344D01*
X86364938Y-135859586D01*
X86364936Y-135859596D01*
X86344341Y-136094999D01*
X86344341Y-136095000D01*
X86364936Y-136330403D01*
X86364938Y-136330413D01*
X86426094Y-136558655D01*
X86426096Y-136558659D01*
X86426097Y-136558663D01*
X86481359Y-136677172D01*
X86525965Y-136772830D01*
X86525967Y-136772834D01*
X86588445Y-136862061D01*
X86661501Y-136966396D01*
X86661506Y-136966402D01*
X86828597Y-137133493D01*
X86828603Y-137133498D01*
X87014158Y-137263425D01*
X87057783Y-137318002D01*
X87064977Y-137387500D01*
X87033454Y-137449855D01*
X87014158Y-137466575D01*
X86828597Y-137596505D01*
X86661505Y-137763597D01*
X86525965Y-137957169D01*
X86525964Y-137957171D01*
X86426098Y-138171335D01*
X86426094Y-138171344D01*
X86364938Y-138399586D01*
X86364936Y-138399596D01*
X86344341Y-138634999D01*
X86344341Y-138635000D01*
X86364936Y-138870403D01*
X86364938Y-138870413D01*
X86426094Y-139098655D01*
X86426096Y-139098659D01*
X86426097Y-139098663D01*
X86513948Y-139287060D01*
X86525965Y-139312830D01*
X86525967Y-139312834D01*
X86661501Y-139506395D01*
X86661506Y-139506402D01*
X86828597Y-139673493D01*
X86828603Y-139673498D01*
X87014158Y-139803425D01*
X87057783Y-139858002D01*
X87064977Y-139927500D01*
X87033454Y-139989855D01*
X87014158Y-140006575D01*
X86828597Y-140136505D01*
X86661505Y-140303597D01*
X86525965Y-140497169D01*
X86525964Y-140497171D01*
X86426098Y-140711335D01*
X86426094Y-140711344D01*
X86364938Y-140939586D01*
X86364936Y-140939596D01*
X86344341Y-141174999D01*
X86344341Y-141175000D01*
X86364936Y-141410403D01*
X86364938Y-141410413D01*
X86426094Y-141638655D01*
X86426096Y-141638659D01*
X86426097Y-141638663D01*
X86505683Y-141809336D01*
X86525965Y-141852830D01*
X86525967Y-141852834D01*
X86661501Y-142046395D01*
X86661506Y-142046402D01*
X86828597Y-142213493D01*
X86828603Y-142213498D01*
X87014158Y-142343425D01*
X87057783Y-142398002D01*
X87064977Y-142467500D01*
X87033454Y-142529855D01*
X87014158Y-142546575D01*
X86828597Y-142676505D01*
X86661505Y-142843597D01*
X86525965Y-143037169D01*
X86525964Y-143037171D01*
X86453794Y-143191941D01*
X86428430Y-143246335D01*
X86426098Y-143251335D01*
X86426094Y-143251344D01*
X86364938Y-143479586D01*
X86364936Y-143479596D01*
X86344341Y-143714999D01*
X86344341Y-143715000D01*
X86364936Y-143950403D01*
X86364938Y-143950413D01*
X86426094Y-144178655D01*
X86426096Y-144178659D01*
X86426097Y-144178663D01*
X86482911Y-144300500D01*
X86525965Y-144392830D01*
X86525967Y-144392834D01*
X86634281Y-144547521D01*
X86661505Y-144586401D01*
X86828599Y-144753495D01*
X86868343Y-144781324D01*
X87022165Y-144889032D01*
X87022167Y-144889033D01*
X87022170Y-144889035D01*
X87236337Y-144988903D01*
X87464592Y-145050063D01*
X87642851Y-145065659D01*
X87699999Y-145070659D01*
X87700000Y-145070659D01*
X87700001Y-145070659D01*
X87757149Y-145065659D01*
X87935408Y-145050063D01*
X88163663Y-144988903D01*
X88377830Y-144889035D01*
X88571401Y-144753495D01*
X88738495Y-144586401D01*
X88874035Y-144392830D01*
X88973903Y-144178663D01*
X89035063Y-143950408D01*
X89055659Y-143715000D01*
X89055221Y-143709999D01*
X89035063Y-143479596D01*
X89035063Y-143479592D01*
X88973903Y-143251337D01*
X88874035Y-143037171D01*
X88870632Y-143032310D01*
X88738494Y-142843597D01*
X88571402Y-142676506D01*
X88571396Y-142676501D01*
X88385842Y-142546575D01*
X88342217Y-142491998D01*
X88335023Y-142422500D01*
X88366546Y-142360145D01*
X88385842Y-142343425D01*
X88551141Y-142227681D01*
X88571401Y-142213495D01*
X88738495Y-142046401D01*
X88874035Y-141852830D01*
X88973903Y-141638663D01*
X89035063Y-141410408D01*
X89055659Y-141175000D01*
X89055035Y-141167873D01*
X89035937Y-140949586D01*
X89035063Y-140939592D01*
X88993200Y-140783355D01*
X88994863Y-140713509D01*
X89025292Y-140663586D01*
X90085515Y-139603365D01*
X90161281Y-139472135D01*
X90200500Y-139325767D01*
X90200500Y-139174234D01*
X90200500Y-136994741D01*
X90220185Y-136927702D01*
X90236815Y-136907064D01*
X90237820Y-136906058D01*
X90299142Y-136872575D01*
X90368834Y-136877559D01*
X90424767Y-136919431D01*
X90449184Y-136984895D01*
X90449500Y-136993741D01*
X90449500Y-137375001D01*
X90449501Y-137375019D01*
X90460000Y-137477796D01*
X90460001Y-137477799D01*
X90499337Y-137596505D01*
X90515186Y-137644334D01*
X90594006Y-137772123D01*
X90607289Y-137793657D01*
X90700951Y-137887319D01*
X90734436Y-137948642D01*
X90729452Y-138018334D01*
X90700951Y-138062681D01*
X90607289Y-138156342D01*
X90515187Y-138305663D01*
X90515186Y-138305666D01*
X90460001Y-138472203D01*
X90460001Y-138472204D01*
X90460000Y-138472204D01*
X90449500Y-138574983D01*
X90449500Y-139375001D01*
X90449501Y-139375019D01*
X90460000Y-139477796D01*
X90460001Y-139477799D01*
X90515185Y-139644331D01*
X90515187Y-139644336D01*
X90539342Y-139683498D01*
X90607288Y-139793656D01*
X90731344Y-139917712D01*
X90781871Y-139948877D01*
X90828595Y-140000823D01*
X90839818Y-140069785D01*
X90811975Y-140133868D01*
X90781872Y-140159953D01*
X90721344Y-140197287D01*
X90597289Y-140321342D01*
X90505187Y-140470663D01*
X90505186Y-140470666D01*
X90450001Y-140637203D01*
X90450001Y-140637204D01*
X90450000Y-140637204D01*
X90439500Y-140739983D01*
X90439500Y-141540001D01*
X90439501Y-141540019D01*
X90450000Y-141642796D01*
X90450001Y-141642799D01*
X90505185Y-141809331D01*
X90505187Y-141809336D01*
X90528930Y-141847830D01*
X90565761Y-141907543D01*
X90597289Y-141958657D01*
X90690951Y-142052319D01*
X90724436Y-142113642D01*
X90719452Y-142183334D01*
X90690951Y-142227681D01*
X90597289Y-142321342D01*
X90505187Y-142470663D01*
X90505185Y-142470668D01*
X90496299Y-142497484D01*
X90450001Y-142637203D01*
X90450001Y-142637204D01*
X90450000Y-142637204D01*
X90439500Y-142739983D01*
X90439500Y-143540001D01*
X90439501Y-143540019D01*
X90450000Y-143642796D01*
X90450001Y-143642799D01*
X90491318Y-143767483D01*
X90505186Y-143809334D01*
X90597288Y-143958656D01*
X90721344Y-144082712D01*
X90870666Y-144174814D01*
X91037203Y-144229999D01*
X91139991Y-144240500D01*
X92140008Y-144240499D01*
X92140016Y-144240498D01*
X92140019Y-144240498D01*
X92196302Y-144234748D01*
X92242797Y-144229999D01*
X92409334Y-144174814D01*
X92558656Y-144082712D01*
X92682712Y-143958656D01*
X92774814Y-143809334D01*
X92808028Y-143709097D01*
X92847799Y-143651655D01*
X92863728Y-143640719D01*
X92933365Y-143600515D01*
X92988961Y-143544918D01*
X93050278Y-143511436D01*
X93119970Y-143516420D01*
X93175904Y-143558290D01*
X93200322Y-143623754D01*
X93200166Y-143643408D01*
X93194341Y-143709996D01*
X93194341Y-143710000D01*
X93214936Y-143945403D01*
X93214938Y-143945413D01*
X93276094Y-144173655D01*
X93276096Y-144173659D01*
X93276097Y-144173663D01*
X93307264Y-144240500D01*
X93375965Y-144387830D01*
X93375967Y-144387834D01*
X93437539Y-144475767D01*
X93511505Y-144581401D01*
X93678599Y-144748495D01*
X93725484Y-144781324D01*
X93872165Y-144884032D01*
X93872167Y-144884033D01*
X93872170Y-144884035D01*
X94086337Y-144983903D01*
X94314592Y-145045063D01*
X94502918Y-145061539D01*
X94549999Y-145065659D01*
X94550000Y-145065659D01*
X94550001Y-145065659D01*
X94589234Y-145062226D01*
X94785408Y-145045063D01*
X94941643Y-145003200D01*
X95011489Y-145004863D01*
X95061414Y-145035294D01*
X95353939Y-145327819D01*
X95387424Y-145389142D01*
X95382440Y-145458834D01*
X95340568Y-145514767D01*
X95275104Y-145539184D01*
X95266258Y-145539500D01*
X78248676Y-145539500D01*
X78181637Y-145519815D01*
X78160995Y-145503181D01*
X77526819Y-144869005D01*
X77493334Y-144807682D01*
X77490500Y-144781324D01*
X77490500Y-120263742D01*
X77510185Y-120196703D01*
X77562989Y-120150948D01*
X77632147Y-120141004D01*
X77695703Y-120170029D01*
X77702181Y-120176061D01*
X78034485Y-120508365D01*
X78141635Y-120615515D01*
X78272865Y-120691281D01*
X78419234Y-120730500D01*
X78515896Y-120730500D01*
X78582935Y-120750185D01*
X78612138Y-120778878D01*
X78612897Y-120778222D01*
X78712207Y-120892830D01*
X78712210Y-120892833D01*
X78820864Y-120986981D01*
X78820867Y-120986984D01*
X78820869Y-120986985D01*
X78820870Y-120986986D01*
X78941906Y-121064770D01*
X78941914Y-121064774D01*
X78941923Y-121064779D01*
X79066642Y-121121736D01*
X79070941Y-121123985D01*
X79072692Y-121124499D01*
X79210744Y-121165035D01*
X79210745Y-121165035D01*
X79210748Y-121165036D01*
X79253183Y-121171136D01*
X79353059Y-121185497D01*
X79409399Y-121185497D01*
X79409409Y-121185500D01*
X79460764Y-121185500D01*
X79940573Y-121185500D01*
X79940601Y-121185497D01*
X79996940Y-121185497D01*
X79996941Y-121185497D01*
X80130479Y-121166297D01*
X80130481Y-121166297D01*
X80136612Y-121165415D01*
X80139256Y-121165035D01*
X80139257Y-121165035D01*
X80277309Y-121124498D01*
X80408094Y-121064770D01*
X80529130Y-120986986D01*
X80637791Y-120892832D01*
X80637794Y-120892829D01*
X80732015Y-120784091D01*
X80809747Y-120663137D01*
X80869517Y-120532259D01*
X80910024Y-120394304D01*
X80930500Y-120251889D01*
X80930500Y-119630000D01*
X80925733Y-119563345D01*
X80940585Y-119495073D01*
X80989990Y-119445668D01*
X81049417Y-119430500D01*
X81740764Y-119430500D01*
X81740766Y-119430500D01*
X81887135Y-119391281D01*
X82018365Y-119315515D01*
X82552061Y-118781817D01*
X82613384Y-118748333D01*
X82639742Y-118745499D01*
X83245002Y-118745499D01*
X83245008Y-118745499D01*
X83347797Y-118734999D01*
X83514334Y-118679814D01*
X83663656Y-118587712D01*
X83757319Y-118494049D01*
X83818642Y-118460564D01*
X83888334Y-118465548D01*
X83932681Y-118494049D01*
X84026344Y-118587712D01*
X84175666Y-118679814D01*
X84342203Y-118734999D01*
X84444991Y-118745500D01*
X85245008Y-118745499D01*
X85245016Y-118745498D01*
X85245019Y-118745498D01*
X85301302Y-118739748D01*
X85347797Y-118734999D01*
X85514334Y-118679814D01*
X85663656Y-118587712D01*
X85787712Y-118463656D01*
X85879814Y-118314334D01*
X85884553Y-118300031D01*
X85924323Y-118242590D01*
X85988838Y-118215765D01*
X86057614Y-118228079D01*
G37*
G04 #@! TD.AperFunction*
G04 #@! TA.AperFunction,Conductor*
G36*
X97091138Y-118485185D02*
G01*
X97136893Y-118537989D01*
X97147457Y-118602102D01*
X97139500Y-118679981D01*
X97139500Y-119480001D01*
X97139501Y-119480019D01*
X97150000Y-119582796D01*
X97150001Y-119582799D01*
X97179326Y-119671295D01*
X97205186Y-119749334D01*
X97296585Y-119897517D01*
X97297289Y-119898657D01*
X97390951Y-119992319D01*
X97424436Y-120053642D01*
X97419452Y-120123334D01*
X97390951Y-120167681D01*
X97297289Y-120261342D01*
X97205187Y-120410663D01*
X97205185Y-120410668D01*
X97177349Y-120494670D01*
X97150001Y-120577203D01*
X97150001Y-120577204D01*
X97150000Y-120577204D01*
X97139500Y-120679983D01*
X97139500Y-121480001D01*
X97139501Y-121480019D01*
X97150000Y-121582796D01*
X97150001Y-121582799D01*
X97205185Y-121749331D01*
X97208240Y-121755882D01*
X97206579Y-121756656D01*
X97222529Y-121814952D01*
X97203544Y-121878624D01*
X97119545Y-122012307D01*
X97063685Y-122171943D01*
X97044751Y-122339997D01*
X97044751Y-122340002D01*
X97063685Y-122508056D01*
X97119545Y-122667693D01*
X97197701Y-122792075D01*
X97216702Y-122859312D01*
X97196335Y-122926147D01*
X97180389Y-122945729D01*
X97049157Y-123076961D01*
X97023478Y-123096666D01*
X96982172Y-123120515D01*
X96966634Y-123129486D01*
X96859484Y-123236636D01*
X96050657Y-124045463D01*
X95989334Y-124078948D01*
X95962976Y-124081782D01*
X95912170Y-124081782D01*
X95845131Y-124062097D01*
X95799376Y-124009293D01*
X95789432Y-123940135D01*
X95799788Y-123905377D01*
X95823903Y-123853663D01*
X95885063Y-123625408D01*
X95905659Y-123390000D01*
X95885063Y-123154592D01*
X95823903Y-122926337D01*
X95724035Y-122712171D01*
X95721051Y-122707910D01*
X95588496Y-122518600D01*
X95554888Y-122484992D01*
X95466567Y-122396671D01*
X95433084Y-122335351D01*
X95438068Y-122265659D01*
X95479939Y-122209725D01*
X95510915Y-122192810D01*
X95642331Y-122143796D01*
X95757546Y-122057546D01*
X95843796Y-121942331D01*
X95894091Y-121807483D01*
X95900500Y-121747873D01*
X95900499Y-119952128D01*
X95894751Y-119898656D01*
X95894091Y-119892516D01*
X95843797Y-119757671D01*
X95843793Y-119757664D01*
X95757547Y-119642455D01*
X95757544Y-119642452D01*
X95642335Y-119556206D01*
X95642328Y-119556202D01*
X95507482Y-119505908D01*
X95507483Y-119505908D01*
X95447883Y-119499501D01*
X95447881Y-119499500D01*
X95447873Y-119499500D01*
X95447864Y-119499500D01*
X93652129Y-119499500D01*
X93652123Y-119499501D01*
X93592516Y-119505908D01*
X93457671Y-119556202D01*
X93457664Y-119556206D01*
X93342455Y-119642452D01*
X93342452Y-119642455D01*
X93256206Y-119757664D01*
X93256201Y-119757674D01*
X93246302Y-119784214D01*
X93204430Y-119840147D01*
X93138965Y-119864563D01*
X93070693Y-119849710D01*
X93042440Y-119828560D01*
X92676590Y-119462710D01*
X92676584Y-119462705D01*
X92667956Y-119457724D01*
X92657058Y-119450645D01*
X92579163Y-119394034D01*
X92579164Y-119394034D01*
X92463410Y-119335032D01*
X92463409Y-119335031D01*
X92463404Y-119335029D01*
X92339843Y-119294859D01*
X92339837Y-119294857D01*
X92290696Y-119287064D01*
X92227568Y-119257122D01*
X92192413Y-119203599D01*
X92184814Y-119180667D01*
X92184814Y-119180666D01*
X92092712Y-119031344D01*
X91968656Y-118907288D01*
X91819334Y-118815186D01*
X91652797Y-118760001D01*
X91652795Y-118760000D01*
X91550016Y-118749500D01*
X91550009Y-118749500D01*
X90847585Y-118749500D01*
X90780546Y-118729815D01*
X90734791Y-118677011D01*
X90724847Y-118607853D01*
X90730542Y-118584550D01*
X90736313Y-118568059D01*
X90736313Y-118568052D01*
X90736315Y-118568049D01*
X90737721Y-118561896D01*
X90771835Y-118500921D01*
X90833500Y-118468069D01*
X90858609Y-118465500D01*
X97024099Y-118465500D01*
X97091138Y-118485185D01*
G37*
G04 #@! TD.AperFunction*
G04 #@! TA.AperFunction,Conductor*
G36*
X100448973Y-112984785D02*
G01*
X100494728Y-113037589D01*
X100504672Y-113106747D01*
X100484579Y-113158670D01*
X100411206Y-113266924D01*
X100411202Y-113266932D01*
X100349900Y-113412200D01*
X100349898Y-113412205D01*
X100318113Y-113566654D01*
X100317070Y-113724327D01*
X100317071Y-113724335D01*
X100346809Y-113879186D01*
X100406186Y-114025264D01*
X100406190Y-114025271D01*
X100492922Y-114156951D01*
X100492924Y-114156954D01*
X100603685Y-114269190D01*
X100603686Y-114269191D01*
X100668948Y-114313424D01*
X100734212Y-114357659D01*
X100844772Y-114404314D01*
X100877398Y-114418082D01*
X100879491Y-114418965D01*
X101033939Y-114450750D01*
X101033938Y-114450750D01*
X101037955Y-114450776D01*
X101597101Y-114454474D01*
X101618559Y-114456490D01*
X101622420Y-114457195D01*
X101622431Y-114457198D01*
X101659306Y-114460100D01*
X102446990Y-114460100D01*
X102447811Y-114460103D01*
X102523683Y-114460605D01*
X102534715Y-114460100D01*
X103240686Y-114460100D01*
X103240694Y-114460100D01*
X103277569Y-114457198D01*
X103352390Y-114435460D01*
X103422254Y-114435658D01*
X103474663Y-114466855D01*
X103484653Y-114476845D01*
X103504356Y-114502522D01*
X103519480Y-114528716D01*
X103519482Y-114528718D01*
X103638349Y-114647585D01*
X103638355Y-114647590D01*
X104700451Y-115709686D01*
X104733936Y-115771009D01*
X104736770Y-115797367D01*
X104736770Y-116154815D01*
X104736771Y-116154833D01*
X104747270Y-116257610D01*
X104747271Y-116257613D01*
X104802385Y-116423933D01*
X104802456Y-116424148D01*
X104894558Y-116573470D01*
X105018614Y-116697526D01*
X105167936Y-116789628D01*
X105334473Y-116844813D01*
X105437261Y-116855314D01*
X106212278Y-116855313D01*
X106212286Y-116855312D01*
X106212289Y-116855312D01*
X106268572Y-116849562D01*
X106315067Y-116844813D01*
X106481604Y-116789628D01*
X106630926Y-116697526D01*
X106754982Y-116573470D01*
X106757022Y-116570161D01*
X106759015Y-116568369D01*
X106759463Y-116567803D01*
X106759559Y-116567879D01*
X106808964Y-116523437D01*
X106877926Y-116512209D01*
X106942010Y-116540048D01*
X106968099Y-116570153D01*
X106969951Y-116573155D01*
X106969953Y-116573158D01*
X107093924Y-116697129D01*
X107243145Y-116789170D01*
X107243150Y-116789172D01*
X107409572Y-116844319D01*
X107409579Y-116844320D01*
X107512289Y-116854813D01*
X107649769Y-116854813D01*
X108149770Y-116854813D01*
X108287242Y-116854813D01*
X108287256Y-116854812D01*
X108389967Y-116844319D01*
X108556389Y-116789172D01*
X108556394Y-116789170D01*
X108705615Y-116697129D01*
X108829585Y-116573159D01*
X108921626Y-116423938D01*
X108921628Y-116423933D01*
X108976775Y-116257511D01*
X108976776Y-116257504D01*
X108987269Y-116154800D01*
X108987270Y-116154787D01*
X108987270Y-115879814D01*
X108149770Y-115879814D01*
X108149770Y-116854813D01*
X107649769Y-116854813D01*
X107649770Y-116854812D01*
X107649770Y-115503814D01*
X107669455Y-115436775D01*
X107722259Y-115391020D01*
X107773770Y-115379814D01*
X108987269Y-115379814D01*
X108987269Y-115104842D01*
X108987268Y-115104827D01*
X108976775Y-115002116D01*
X108921628Y-114835694D01*
X108921626Y-114835689D01*
X108829585Y-114686468D01*
X108705613Y-114562496D01*
X108696389Y-114556807D01*
X108649664Y-114504860D01*
X108638441Y-114435897D01*
X108666284Y-114371815D01*
X108698361Y-114344537D01*
X108726865Y-114327681D01*
X108843081Y-114211465D01*
X108926744Y-114069998D01*
X108967839Y-113928549D01*
X108972597Y-113912173D01*
X108972598Y-113912167D01*
X108975193Y-113879189D01*
X108975500Y-113875294D01*
X108975500Y-113488742D01*
X108995185Y-113421703D01*
X109047989Y-113375948D01*
X109117147Y-113366004D01*
X109180703Y-113395029D01*
X109187181Y-113401061D01*
X109358181Y-113572061D01*
X109391666Y-113633384D01*
X109394500Y-113659742D01*
X109394500Y-119221258D01*
X109374815Y-119288297D01*
X109322011Y-119334052D01*
X109252853Y-119343996D01*
X109189297Y-119314971D01*
X109182819Y-119308939D01*
X109017467Y-119143587D01*
X109014977Y-119139027D01*
X109014112Y-119139828D01*
X108959431Y-119080675D01*
X108958203Y-119080315D01*
X108937561Y-119063681D01*
X108893367Y-119019487D01*
X108893365Y-119019485D01*
X108817181Y-118975500D01*
X108762136Y-118943719D01*
X108688950Y-118924109D01*
X108615766Y-118904500D01*
X108615765Y-118904500D01*
X105629742Y-118904500D01*
X105562703Y-118884815D01*
X105542061Y-118868181D01*
X105273878Y-118599998D01*
X106232704Y-118599998D01*
X106232705Y-118600000D01*
X107355000Y-118600000D01*
X107855000Y-118600000D01*
X108977295Y-118600000D01*
X108977295Y-118599998D01*
X108977100Y-118597513D01*
X108931281Y-118439801D01*
X108847685Y-118298447D01*
X108847678Y-118298438D01*
X108731561Y-118182321D01*
X108731552Y-118182314D01*
X108590196Y-118098717D01*
X108590193Y-118098716D01*
X108432495Y-118052900D01*
X108432489Y-118052899D01*
X108395649Y-118050000D01*
X107855000Y-118050000D01*
X107855000Y-118600000D01*
X107355000Y-118600000D01*
X107355000Y-118050000D01*
X106814350Y-118050000D01*
X106777510Y-118052899D01*
X106777504Y-118052900D01*
X106619806Y-118098716D01*
X106619803Y-118098717D01*
X106478447Y-118182314D01*
X106478438Y-118182321D01*
X106362321Y-118298438D01*
X106362314Y-118298447D01*
X106278718Y-118439801D01*
X106232899Y-118597513D01*
X106232704Y-118599998D01*
X105273878Y-118599998D01*
X104074327Y-117400447D01*
X104042233Y-117344859D01*
X104034415Y-117315681D01*
X104028251Y-117292679D01*
X104005250Y-117206834D01*
X103929484Y-117075604D01*
X102413365Y-115559485D01*
X102347750Y-115521602D01*
X102282136Y-115483719D01*
X102194688Y-115460288D01*
X102135766Y-115444500D01*
X102135765Y-115444500D01*
X96479994Y-115444500D01*
X96412955Y-115424815D01*
X96367200Y-115372011D01*
X96357256Y-115302853D01*
X96372606Y-115258501D01*
X96376280Y-115252137D01*
X96376281Y-115252135D01*
X96415500Y-115105766D01*
X96415500Y-114169742D01*
X96435185Y-114102703D01*
X96451819Y-114082061D01*
X96454027Y-114079853D01*
X96515350Y-114046368D01*
X96541708Y-114043534D01*
X99081747Y-114043534D01*
X99081749Y-114043534D01*
X99228118Y-114004315D01*
X99359348Y-113928549D01*
X100286478Y-113001419D01*
X100347801Y-112967934D01*
X100374159Y-112965100D01*
X100381934Y-112965100D01*
X100448973Y-112984785D01*
G37*
G04 #@! TD.AperFunction*
G04 #@! TA.AperFunction,Conductor*
G36*
X88568297Y-88550185D02*
G01*
X88614052Y-88602989D01*
X88623996Y-88672147D01*
X88594971Y-88735703D01*
X88588939Y-88742181D01*
X88377939Y-88953181D01*
X88316616Y-88986666D01*
X88290258Y-88989500D01*
X87884427Y-88989500D01*
X87884399Y-88989503D01*
X87828059Y-88989503D01*
X87694521Y-89008703D01*
X87694519Y-89008703D01*
X87685744Y-89009964D01*
X87547686Y-89050503D01*
X87416918Y-89110223D01*
X87416908Y-89110228D01*
X87416906Y-89110230D01*
X87383253Y-89131857D01*
X87295867Y-89188015D01*
X87295863Y-89188018D01*
X87187226Y-89282152D01*
X87187207Y-89282169D01*
X87187206Y-89282171D01*
X87092985Y-89390909D01*
X87092983Y-89390911D01*
X87092983Y-89390912D01*
X87092981Y-89390915D01*
X87015255Y-89511857D01*
X87015252Y-89511863D01*
X86955483Y-89642741D01*
X86914977Y-89780691D01*
X86914974Y-89780703D01*
X86894500Y-89923110D01*
X86894500Y-90545002D01*
X86899645Y-90616941D01*
X86903107Y-90628732D01*
X86904470Y-90679561D01*
X86906738Y-90679805D01*
X86899501Y-90747116D01*
X86899500Y-90747135D01*
X86899500Y-91842870D01*
X86899501Y-91842871D01*
X86905909Y-91902490D01*
X86906147Y-91903494D01*
X86906238Y-91905550D01*
X86906738Y-91910194D01*
X86906447Y-91910225D01*
X86908208Y-91949652D01*
X86894500Y-92044999D01*
X86894500Y-92666889D01*
X86914974Y-92809296D01*
X86914976Y-92809304D01*
X86941753Y-92900500D01*
X86955483Y-92947258D01*
X87015252Y-93078136D01*
X87015253Y-93078138D01*
X87089376Y-93193476D01*
X87090196Y-93194917D01*
X87092988Y-93199098D01*
X87187207Y-93307830D01*
X87187210Y-93307833D01*
X87295864Y-93401981D01*
X87295867Y-93401984D01*
X87295869Y-93401985D01*
X87295870Y-93401986D01*
X87311718Y-93412171D01*
X87363999Y-93445769D01*
X87409754Y-93498573D01*
X87419698Y-93567731D01*
X87414005Y-93591031D01*
X87413686Y-93591942D01*
X87407778Y-93644383D01*
X87380712Y-93708797D01*
X87323118Y-93748352D01*
X87284558Y-93754500D01*
X86389742Y-93754500D01*
X86322703Y-93734815D01*
X86302061Y-93718181D01*
X86081819Y-93497939D01*
X86048334Y-93436616D01*
X86045500Y-93410258D01*
X86045500Y-91844236D01*
X86045498Y-91844227D01*
X86045135Y-91842871D01*
X86045128Y-91842846D01*
X86027924Y-91778641D01*
X86006281Y-91697865D01*
X85930515Y-91566635D01*
X84708365Y-90344485D01*
X84685104Y-90331055D01*
X84636890Y-90280489D01*
X84629403Y-90262684D01*
X84587314Y-90135666D01*
X84495212Y-89986344D01*
X84371156Y-89862288D01*
X84278388Y-89805069D01*
X84221836Y-89770187D01*
X84221831Y-89770185D01*
X84220362Y-89769698D01*
X84055297Y-89715001D01*
X84055295Y-89715000D01*
X83952510Y-89704500D01*
X82952498Y-89704500D01*
X82952480Y-89704501D01*
X82849703Y-89715000D01*
X82849700Y-89715001D01*
X82683168Y-89770185D01*
X82683163Y-89770187D01*
X82533842Y-89862289D01*
X82409789Y-89986342D01*
X82317687Y-90135663D01*
X82317685Y-90135668D01*
X82309402Y-90160664D01*
X82262501Y-90302203D01*
X82262501Y-90302204D01*
X82262500Y-90302204D01*
X82252000Y-90404983D01*
X82252000Y-90624239D01*
X82232315Y-90691278D01*
X82179511Y-90737033D01*
X82110353Y-90746977D01*
X82046797Y-90717952D01*
X82009023Y-90659174D01*
X81989517Y-90592741D01*
X81929747Y-90461863D01*
X81896038Y-90409411D01*
X81855623Y-90346523D01*
X81854802Y-90345081D01*
X81852011Y-90340901D01*
X81757792Y-90232169D01*
X81757789Y-90232166D01*
X81649135Y-90138018D01*
X81649132Y-90138015D01*
X81609804Y-90112741D01*
X81528094Y-90060230D01*
X81528087Y-90060227D01*
X81528081Y-90060223D01*
X81403356Y-90003263D01*
X81399057Y-90001014D01*
X81259261Y-89959966D01*
X81259251Y-89959963D01*
X81131300Y-89941567D01*
X81116941Y-89939503D01*
X81116940Y-89939503D01*
X81060601Y-89939503D01*
X81060591Y-89939500D01*
X81009236Y-89939500D01*
X80580764Y-89939500D01*
X80529427Y-89939500D01*
X80529399Y-89939503D01*
X80473059Y-89939503D01*
X80339521Y-89958703D01*
X80339519Y-89958703D01*
X80330744Y-89959964D01*
X80192686Y-90000503D01*
X80061918Y-90060223D01*
X80061908Y-90060228D01*
X80061906Y-90060230D01*
X80050261Y-90067714D01*
X79940867Y-90138015D01*
X79940863Y-90138018D01*
X79832226Y-90232152D01*
X79832207Y-90232169D01*
X79832190Y-90232188D01*
X79758740Y-90316955D01*
X79699962Y-90354730D01*
X79697134Y-90355523D01*
X79682848Y-90359351D01*
X79608647Y-90379233D01*
X79608647Y-90379234D01*
X79563918Y-90391219D01*
X79563916Y-90391219D01*
X79563916Y-90391220D01*
X79432688Y-90466985D01*
X79432685Y-90466987D01*
X79365931Y-90533742D01*
X79325538Y-90574135D01*
X79325536Y-90574137D01*
X79078830Y-90820843D01*
X78819194Y-91080478D01*
X78819193Y-91080478D01*
X78819194Y-91080479D01*
X78729485Y-91170188D01*
X78653719Y-91301416D01*
X78614500Y-91447787D01*
X78614500Y-93965765D01*
X78653719Y-94112136D01*
X78691602Y-94177750D01*
X78729485Y-94243365D01*
X79569485Y-95083365D01*
X79676635Y-95190515D01*
X79763237Y-95240515D01*
X79807865Y-95266281D01*
X79954233Y-95305500D01*
X79954234Y-95305500D01*
X81305689Y-95305500D01*
X81372728Y-95325185D01*
X81418483Y-95377989D01*
X81428427Y-95447147D01*
X81399402Y-95510703D01*
X81358094Y-95541882D01*
X81317171Y-95560964D01*
X81317169Y-95560965D01*
X81123597Y-95696505D01*
X80956505Y-95863597D01*
X80820965Y-96057169D01*
X80820964Y-96057171D01*
X80721098Y-96271335D01*
X80721094Y-96271344D01*
X80659938Y-96499586D01*
X80659936Y-96499596D01*
X80639341Y-96734999D01*
X80639341Y-96735000D01*
X80659936Y-96970403D01*
X80659938Y-96970413D01*
X80721094Y-97198655D01*
X80721096Y-97198659D01*
X80721097Y-97198663D01*
X80812377Y-97394413D01*
X80820965Y-97412830D01*
X80820967Y-97412834D01*
X80956501Y-97606395D01*
X80956506Y-97606402D01*
X81123597Y-97773493D01*
X81123603Y-97773498D01*
X81309158Y-97903425D01*
X81352783Y-97958002D01*
X81359977Y-98027500D01*
X81328454Y-98089855D01*
X81309158Y-98106575D01*
X81123597Y-98236505D01*
X80956505Y-98403597D01*
X80820965Y-98597169D01*
X80820964Y-98597171D01*
X80721098Y-98811335D01*
X80721094Y-98811344D01*
X80659938Y-99039586D01*
X80659936Y-99039596D01*
X80639341Y-99274999D01*
X80639341Y-99275000D01*
X80659936Y-99510403D01*
X80659938Y-99510413D01*
X80721094Y-99738655D01*
X80721096Y-99738659D01*
X80721097Y-99738663D01*
X80758788Y-99819491D01*
X80820965Y-99952830D01*
X80820967Y-99952834D01*
X80956501Y-100146395D01*
X80956506Y-100146402D01*
X81123597Y-100313493D01*
X81123603Y-100313498D01*
X81309158Y-100443425D01*
X81352783Y-100498002D01*
X81359977Y-100567500D01*
X81328454Y-100629855D01*
X81309158Y-100646575D01*
X81123597Y-100776505D01*
X80956505Y-100943597D01*
X80820965Y-101137169D01*
X80820964Y-101137171D01*
X80759016Y-101270019D01*
X80721479Y-101350519D01*
X80721098Y-101351335D01*
X80721094Y-101351344D01*
X80659938Y-101579586D01*
X80659936Y-101579596D01*
X80639341Y-101814999D01*
X80639341Y-101815000D01*
X80659936Y-102050403D01*
X80659938Y-102050413D01*
X80721094Y-102278655D01*
X80721096Y-102278659D01*
X80721097Y-102278663D01*
X80795078Y-102437315D01*
X80820965Y-102492830D01*
X80820967Y-102492834D01*
X80956501Y-102686395D01*
X80956506Y-102686402D01*
X81123597Y-102853493D01*
X81123603Y-102853498D01*
X81309158Y-102983425D01*
X81352783Y-103038002D01*
X81359977Y-103107500D01*
X81328454Y-103169855D01*
X81309158Y-103186575D01*
X81123597Y-103316505D01*
X80956505Y-103483597D01*
X80820965Y-103677169D01*
X80820964Y-103677171D01*
X80721098Y-103891335D01*
X80721094Y-103891344D01*
X80659938Y-104119586D01*
X80659936Y-104119596D01*
X80639341Y-104354999D01*
X80639341Y-104355000D01*
X80659936Y-104590403D01*
X80659938Y-104590413D01*
X80721094Y-104818655D01*
X80721096Y-104818659D01*
X80721097Y-104818663D01*
X80778433Y-104941620D01*
X80820965Y-105032830D01*
X80820967Y-105032834D01*
X80956501Y-105226395D01*
X80956506Y-105226402D01*
X81123597Y-105393493D01*
X81123603Y-105393498D01*
X81309158Y-105523425D01*
X81352783Y-105578002D01*
X81359977Y-105647500D01*
X81328454Y-105709855D01*
X81309158Y-105726575D01*
X81123597Y-105856505D01*
X80956505Y-106023597D01*
X80820965Y-106217169D01*
X80820964Y-106217171D01*
X80721098Y-106431335D01*
X80721094Y-106431344D01*
X80659938Y-106659586D01*
X80659936Y-106659596D01*
X80639341Y-106894999D01*
X80639341Y-106895000D01*
X80659936Y-107130403D01*
X80659938Y-107130413D01*
X80721094Y-107358655D01*
X80721096Y-107358659D01*
X80721097Y-107358663D01*
X80747657Y-107415620D01*
X80820965Y-107572830D01*
X80820967Y-107572834D01*
X80956501Y-107766395D01*
X80956506Y-107766402D01*
X81123597Y-107933493D01*
X81123603Y-107933498D01*
X81309158Y-108063425D01*
X81352783Y-108118002D01*
X81359977Y-108187500D01*
X81328454Y-108249855D01*
X81309158Y-108266575D01*
X81123597Y-108396505D01*
X80956505Y-108563597D01*
X80820965Y-108757169D01*
X80820964Y-108757171D01*
X80733924Y-108943829D01*
X80721375Y-108970742D01*
X80721098Y-108971335D01*
X80721094Y-108971344D01*
X80659938Y-109199586D01*
X80659936Y-109199596D01*
X80639341Y-109434999D01*
X80639341Y-109435000D01*
X80659936Y-109670403D01*
X80659938Y-109670413D01*
X80721094Y-109898655D01*
X80721096Y-109898659D01*
X80721097Y-109898663D01*
X80789422Y-110045185D01*
X80820965Y-110112830D01*
X80820967Y-110112834D01*
X80956501Y-110306395D01*
X80956506Y-110306402D01*
X81123597Y-110473493D01*
X81123603Y-110473498D01*
X81309158Y-110603425D01*
X81352783Y-110658002D01*
X81359977Y-110727500D01*
X81328454Y-110789855D01*
X81309158Y-110806575D01*
X81123597Y-110936505D01*
X80956505Y-111103597D01*
X80820965Y-111297169D01*
X80820964Y-111297171D01*
X80721098Y-111511335D01*
X80721094Y-111511344D01*
X80659938Y-111739586D01*
X80659936Y-111739596D01*
X80639341Y-111974999D01*
X80639341Y-111975000D01*
X80659936Y-112210403D01*
X80659938Y-112210413D01*
X80721094Y-112438655D01*
X80721096Y-112438660D01*
X80721097Y-112438663D01*
X80733601Y-112465478D01*
X80744092Y-112534555D01*
X80715572Y-112598338D01*
X80683220Y-112625267D01*
X80606638Y-112669483D01*
X80606632Y-112669487D01*
X80387939Y-112888181D01*
X80326616Y-112921666D01*
X80300258Y-112924500D01*
X80000450Y-112924500D01*
X79934478Y-112905494D01*
X79797692Y-112819545D01*
X79797691Y-112819544D01*
X79797690Y-112819544D01*
X79759370Y-112806135D01*
X79638056Y-112763685D01*
X79470003Y-112744751D01*
X79469997Y-112744751D01*
X79301943Y-112763685D01*
X79142305Y-112819545D01*
X79142302Y-112819547D01*
X78999115Y-112909518D01*
X78999109Y-112909523D01*
X78879523Y-113029109D01*
X78879518Y-113029115D01*
X78789547Y-113172302D01*
X78789544Y-113172307D01*
X78733685Y-113331946D01*
X78725783Y-113402078D01*
X78698716Y-113466492D01*
X78690244Y-113475874D01*
X77702181Y-114463938D01*
X77640858Y-114497423D01*
X77571167Y-114492439D01*
X77515233Y-114450567D01*
X77490816Y-114385103D01*
X77490500Y-114376257D01*
X77490500Y-89298676D01*
X77510185Y-89231637D01*
X77526819Y-89210995D01*
X78170995Y-88566819D01*
X78232318Y-88533334D01*
X78258676Y-88530500D01*
X88501258Y-88530500D01*
X88568297Y-88550185D01*
G37*
G04 #@! TD.AperFunction*
G04 #@! TA.AperFunction,Conductor*
G36*
X83767297Y-110045185D02*
G01*
X83787939Y-110061819D01*
X86068939Y-112342819D01*
X86102424Y-112404142D01*
X86097440Y-112473834D01*
X86055568Y-112529767D01*
X85990104Y-112554184D01*
X85981258Y-112554500D01*
X83399465Y-112554500D01*
X83332426Y-112534815D01*
X83286671Y-112482011D01*
X83276727Y-112412853D01*
X83279690Y-112398407D01*
X83303212Y-112310620D01*
X83330063Y-112210408D01*
X83350659Y-111975000D01*
X83330063Y-111739592D01*
X83268903Y-111511337D01*
X83169035Y-111297171D01*
X83033495Y-111103599D01*
X83033494Y-111103597D01*
X82866402Y-110936506D01*
X82866396Y-110936501D01*
X82680842Y-110806575D01*
X82637217Y-110751998D01*
X82630023Y-110682500D01*
X82661546Y-110620145D01*
X82680842Y-110603425D01*
X82703026Y-110587891D01*
X82866401Y-110473495D01*
X83033495Y-110306401D01*
X83169035Y-110112830D01*
X83169036Y-110112828D01*
X83176374Y-110097093D01*
X83222547Y-110044655D01*
X83288755Y-110025500D01*
X83700258Y-110025500D01*
X83767297Y-110045185D01*
G37*
G04 #@! TD.AperFunction*
G04 #@! TA.AperFunction,Conductor*
G36*
X83559127Y-96689454D02*
G01*
X86620188Y-99750515D01*
X86751418Y-99826281D01*
X86897787Y-99865500D01*
X87049320Y-99865500D01*
X88321245Y-99865500D01*
X88388284Y-99885185D01*
X88433626Y-99937093D01*
X88440963Y-99952828D01*
X88440965Y-99952831D01*
X88576501Y-100146395D01*
X88576506Y-100146402D01*
X88743597Y-100313493D01*
X88743603Y-100313498D01*
X88929158Y-100443425D01*
X88972783Y-100498002D01*
X88979977Y-100567500D01*
X88948454Y-100629855D01*
X88929158Y-100646575D01*
X88743597Y-100776505D01*
X88576505Y-100943597D01*
X88440965Y-101137169D01*
X88440964Y-101137171D01*
X88379016Y-101270019D01*
X88341479Y-101350519D01*
X88341098Y-101351335D01*
X88341094Y-101351344D01*
X88279938Y-101579586D01*
X88279936Y-101579596D01*
X88259341Y-101814999D01*
X88259341Y-101815000D01*
X88279936Y-102050403D01*
X88279938Y-102050413D01*
X88341094Y-102278655D01*
X88341096Y-102278659D01*
X88341097Y-102278663D01*
X88415078Y-102437315D01*
X88440965Y-102492830D01*
X88440967Y-102492834D01*
X88576501Y-102686395D01*
X88576506Y-102686402D01*
X88743597Y-102853493D01*
X88743603Y-102853498D01*
X88929158Y-102983425D01*
X88972783Y-103038002D01*
X88979977Y-103107500D01*
X88948454Y-103169855D01*
X88929158Y-103186575D01*
X88743597Y-103316505D01*
X88576505Y-103483597D01*
X88440965Y-103677169D01*
X88440964Y-103677171D01*
X88341098Y-103891335D01*
X88341094Y-103891344D01*
X88279938Y-104119586D01*
X88279936Y-104119596D01*
X88259341Y-104354999D01*
X88259341Y-104355000D01*
X88279936Y-104590403D01*
X88279938Y-104590413D01*
X88341094Y-104818655D01*
X88341096Y-104818659D01*
X88341097Y-104818663D01*
X88398433Y-104941620D01*
X88440965Y-105032830D01*
X88440967Y-105032834D01*
X88576501Y-105226395D01*
X88576506Y-105226402D01*
X88743597Y-105393493D01*
X88743603Y-105393498D01*
X88929158Y-105523425D01*
X88972783Y-105578002D01*
X88979977Y-105647500D01*
X88948454Y-105709855D01*
X88929158Y-105726575D01*
X88743597Y-105856505D01*
X88576505Y-106023597D01*
X88440965Y-106217169D01*
X88440964Y-106217171D01*
X88341098Y-106431335D01*
X88341094Y-106431344D01*
X88279938Y-106659586D01*
X88279936Y-106659596D01*
X88259341Y-106894999D01*
X88259341Y-106895000D01*
X88279936Y-107130403D01*
X88279938Y-107130413D01*
X88341094Y-107358655D01*
X88341096Y-107358659D01*
X88341097Y-107358663D01*
X88367657Y-107415620D01*
X88440965Y-107572830D01*
X88440967Y-107572834D01*
X88576501Y-107766395D01*
X88576506Y-107766402D01*
X88743597Y-107933493D01*
X88743603Y-107933498D01*
X88929158Y-108063425D01*
X88972783Y-108118002D01*
X88979977Y-108187500D01*
X88948454Y-108249855D01*
X88929158Y-108266575D01*
X88743597Y-108396505D01*
X88576505Y-108563597D01*
X88440965Y-108757169D01*
X88440964Y-108757171D01*
X88353924Y-108943829D01*
X88341375Y-108970742D01*
X88341098Y-108971335D01*
X88341094Y-108971344D01*
X88279938Y-109199586D01*
X88279936Y-109199596D01*
X88259341Y-109434999D01*
X88259341Y-109435000D01*
X88279936Y-109670403D01*
X88279938Y-109670413D01*
X88341094Y-109898655D01*
X88341096Y-109898659D01*
X88341097Y-109898663D01*
X88409422Y-110045185D01*
X88440965Y-110112830D01*
X88440967Y-110112834D01*
X88576501Y-110306395D01*
X88576506Y-110306402D01*
X88743597Y-110473493D01*
X88743603Y-110473498D01*
X88929158Y-110603425D01*
X88972783Y-110658002D01*
X88979977Y-110727500D01*
X88948454Y-110789855D01*
X88929158Y-110806575D01*
X88743597Y-110936505D01*
X88576505Y-111103597D01*
X88440965Y-111297169D01*
X88440964Y-111297171D01*
X88341098Y-111511335D01*
X88341094Y-111511344D01*
X88279938Y-111739586D01*
X88279936Y-111739596D01*
X88259341Y-111974999D01*
X88259341Y-111975000D01*
X88279936Y-112210403D01*
X88279938Y-112210413D01*
X88314234Y-112338407D01*
X88312571Y-112408257D01*
X88273408Y-112466119D01*
X88209180Y-112493623D01*
X88194459Y-112494500D01*
X87899742Y-112494500D01*
X87832703Y-112474815D01*
X87812061Y-112458181D01*
X84526606Y-109172726D01*
X84516673Y-109160233D01*
X84516426Y-109160437D01*
X84511256Y-109154161D01*
X84464708Y-109110723D01*
X84461627Y-109107747D01*
X84458544Y-109104664D01*
X84447843Y-109092461D01*
X84437609Y-109079119D01*
X84431742Y-109074615D01*
X84424214Y-109068837D01*
X84421673Y-109066608D01*
X84411425Y-109058746D01*
X84408660Y-109056899D01*
X84404193Y-109053469D01*
X84395113Y-109045777D01*
X84364342Y-109017063D01*
X84364341Y-109017062D01*
X84364340Y-109017061D01*
X84348691Y-109008733D01*
X84331455Y-108997639D01*
X84317404Y-108986854D01*
X84317400Y-108986852D01*
X84278525Y-108970742D01*
X84267749Y-108965657D01*
X84247400Y-108954828D01*
X84230570Y-108945871D01*
X84221737Y-108943829D01*
X84184042Y-108928223D01*
X84176182Y-108923319D01*
X84176179Y-108923318D01*
X84136122Y-108911101D01*
X84124827Y-108907049D01*
X84086162Y-108891027D01*
X84068367Y-108888681D01*
X84048410Y-108884354D01*
X84042233Y-108882470D01*
X84031239Y-108879118D01*
X84031237Y-108879117D01*
X83989400Y-108877685D01*
X83977442Y-108876695D01*
X83971645Y-108875931D01*
X83968813Y-108875368D01*
X83955550Y-108873622D01*
X83952718Y-108873437D01*
X83935929Y-108871224D01*
X83919060Y-108873442D01*
X83902896Y-108874500D01*
X83898386Y-108874500D01*
X83894146Y-108874427D01*
X83870620Y-108873622D01*
X83830408Y-108872246D01*
X83830407Y-108872246D01*
X83830406Y-108872246D01*
X83830404Y-108872246D01*
X83822314Y-108873031D01*
X83822281Y-108872696D01*
X83806502Y-108874500D01*
X83302743Y-108874500D01*
X83235704Y-108854815D01*
X83190361Y-108802904D01*
X83169037Y-108757175D01*
X83169034Y-108757169D01*
X83033494Y-108563597D01*
X82866402Y-108396506D01*
X82866396Y-108396501D01*
X82680842Y-108266575D01*
X82637217Y-108211998D01*
X82630023Y-108142500D01*
X82661546Y-108080145D01*
X82680842Y-108063425D01*
X82703488Y-108047568D01*
X82866401Y-107933495D01*
X83033495Y-107766401D01*
X83169035Y-107572830D01*
X83268903Y-107358663D01*
X83330063Y-107130408D01*
X83350659Y-106895000D01*
X83330063Y-106659592D01*
X83268903Y-106431337D01*
X83169035Y-106217171D01*
X83078091Y-106087288D01*
X83033494Y-106023597D01*
X82866402Y-105856506D01*
X82866396Y-105856501D01*
X82680842Y-105726575D01*
X82637217Y-105671998D01*
X82630023Y-105602500D01*
X82661546Y-105540145D01*
X82680842Y-105523425D01*
X82753653Y-105472442D01*
X82866401Y-105393495D01*
X83033495Y-105226401D01*
X83169035Y-105032830D01*
X83268903Y-104818663D01*
X83330063Y-104590408D01*
X83350659Y-104355000D01*
X83330063Y-104119592D01*
X83268903Y-103891337D01*
X83169035Y-103677171D01*
X83095513Y-103572169D01*
X83033494Y-103483597D01*
X82866402Y-103316506D01*
X82866396Y-103316501D01*
X82680842Y-103186575D01*
X82637217Y-103131998D01*
X82630023Y-103062500D01*
X82661546Y-103000145D01*
X82680842Y-102983425D01*
X82753653Y-102932442D01*
X82866401Y-102853495D01*
X83033495Y-102686401D01*
X83169035Y-102492830D01*
X83268903Y-102278663D01*
X83330063Y-102050408D01*
X83350659Y-101815000D01*
X83330063Y-101579592D01*
X83268903Y-101351337D01*
X83169035Y-101137171D01*
X83166699Y-101133834D01*
X83033494Y-100943597D01*
X82866402Y-100776506D01*
X82866396Y-100776501D01*
X82680842Y-100646575D01*
X82637217Y-100591998D01*
X82630023Y-100522500D01*
X82661546Y-100460145D01*
X82680842Y-100443425D01*
X82822785Y-100344035D01*
X82866401Y-100313495D01*
X83033495Y-100146401D01*
X83169035Y-99952830D01*
X83268903Y-99738663D01*
X83330063Y-99510408D01*
X83350659Y-99275000D01*
X83349550Y-99262330D01*
X83343114Y-99188761D01*
X83330063Y-99039592D01*
X83268903Y-98811337D01*
X83169035Y-98597171D01*
X83161050Y-98585766D01*
X83033494Y-98403597D01*
X82866402Y-98236506D01*
X82866396Y-98236501D01*
X82680842Y-98106575D01*
X82637217Y-98051998D01*
X82630023Y-97982500D01*
X82661546Y-97920145D01*
X82680842Y-97903425D01*
X82750148Y-97854896D01*
X82866401Y-97773495D01*
X83033495Y-97606401D01*
X83169035Y-97412830D01*
X83268903Y-97198663D01*
X83330063Y-96970408D01*
X83347918Y-96766326D01*
X83373371Y-96701259D01*
X83429961Y-96660280D01*
X83499723Y-96656402D01*
X83559127Y-96689454D01*
G37*
G04 #@! TD.AperFunction*
G04 #@! TA.AperFunction,Conductor*
G36*
X99620624Y-111360185D02*
G01*
X99666379Y-111412989D01*
X99676323Y-111482147D01*
X99647298Y-111545703D01*
X99641266Y-111552181D01*
X98735266Y-112458181D01*
X98673943Y-112491666D01*
X98647585Y-112494500D01*
X95942407Y-112494500D01*
X95875368Y-112474815D01*
X95829613Y-112422011D01*
X95819669Y-112352853D01*
X95822632Y-112338407D01*
X95856927Y-112210413D01*
X95885063Y-112105408D01*
X95905659Y-111870000D01*
X95885063Y-111634592D01*
X95860769Y-111543926D01*
X95848087Y-111496593D01*
X95849750Y-111426743D01*
X95888913Y-111368881D01*
X95953141Y-111341377D01*
X95967862Y-111340500D01*
X99553585Y-111340500D01*
X99620624Y-111360185D01*
G37*
G04 #@! TD.AperFunction*
G04 #@! TA.AperFunction,Conductor*
G36*
X109603834Y-97962559D02*
G01*
X109659767Y-98004431D01*
X109684184Y-98069895D01*
X109684500Y-98078741D01*
X109684500Y-104850258D01*
X109664815Y-104917297D01*
X109648181Y-104937939D01*
X109158339Y-105427781D01*
X109097016Y-105461266D01*
X109070658Y-105464100D01*
X108975541Y-105464100D01*
X108908502Y-105444415D01*
X108862747Y-105391611D01*
X108852803Y-105322453D01*
X108868809Y-105276979D01*
X108926281Y-105179798D01*
X108972100Y-105022086D01*
X108972295Y-105019601D01*
X108972295Y-105019600D01*
X106227705Y-105019600D01*
X106227704Y-105019601D01*
X106227899Y-105022086D01*
X106273718Y-105179798D01*
X106357314Y-105321152D01*
X106362100Y-105327322D01*
X106359640Y-105329229D01*
X106386210Y-105377888D01*
X106381226Y-105447580D01*
X106360162Y-105480381D01*
X106361699Y-105481574D01*
X106356915Y-105487740D01*
X106273255Y-105629203D01*
X106273254Y-105629206D01*
X106227402Y-105787026D01*
X106227401Y-105787032D01*
X106224500Y-105823898D01*
X106224500Y-106255301D01*
X106227401Y-106292167D01*
X106227402Y-106292173D01*
X106273254Y-106449993D01*
X106273255Y-106449996D01*
X106356917Y-106591462D01*
X106361702Y-106597631D01*
X106359256Y-106599527D01*
X106385857Y-106648242D01*
X106380873Y-106717934D01*
X106360069Y-106750303D01*
X106361702Y-106751569D01*
X106356917Y-106757737D01*
X106273255Y-106899203D01*
X106273254Y-106899206D01*
X106227402Y-107057026D01*
X106227401Y-107057032D01*
X106224500Y-107093898D01*
X106224500Y-107525301D01*
X106227401Y-107562167D01*
X106227402Y-107562173D01*
X106273254Y-107719993D01*
X106273255Y-107719996D01*
X106330610Y-107816979D01*
X106347793Y-107884703D01*
X106325633Y-107950966D01*
X106271167Y-107994729D01*
X106223878Y-108004100D01*
X105799342Y-108004100D01*
X105732303Y-107984415D01*
X105711661Y-107967781D01*
X104421819Y-106677939D01*
X104388334Y-106616616D01*
X104385500Y-106590258D01*
X104385500Y-105664234D01*
X104380784Y-105646636D01*
X104380783Y-105646632D01*
X104368958Y-105602500D01*
X104346281Y-105517865D01*
X104270515Y-105386635D01*
X103861819Y-104977939D01*
X103828334Y-104916616D01*
X103825500Y-104890258D01*
X103825500Y-104553913D01*
X103825499Y-104553898D01*
X103822800Y-104519598D01*
X106227704Y-104519598D01*
X106227705Y-104519600D01*
X107350000Y-104519600D01*
X107850000Y-104519600D01*
X108972295Y-104519600D01*
X108972295Y-104519598D01*
X108972100Y-104517113D01*
X108926281Y-104359401D01*
X108842685Y-104218047D01*
X108842678Y-104218038D01*
X108726561Y-104101921D01*
X108726552Y-104101914D01*
X108585196Y-104018317D01*
X108585193Y-104018316D01*
X108427495Y-103972500D01*
X108427489Y-103972499D01*
X108390649Y-103969600D01*
X107850000Y-103969600D01*
X107850000Y-104519600D01*
X107350000Y-104519600D01*
X107350000Y-103969600D01*
X106809350Y-103969600D01*
X106772510Y-103972499D01*
X106772504Y-103972500D01*
X106614806Y-104018316D01*
X106614803Y-104018317D01*
X106473447Y-104101914D01*
X106473438Y-104101921D01*
X106357321Y-104218038D01*
X106357314Y-104218047D01*
X106273718Y-104359401D01*
X106227899Y-104517113D01*
X106227704Y-104519598D01*
X103822800Y-104519598D01*
X103822598Y-104517032D01*
X103822597Y-104517026D01*
X103776745Y-104359206D01*
X103776744Y-104359203D01*
X103776744Y-104359202D01*
X103693081Y-104217735D01*
X103693079Y-104217733D01*
X103693076Y-104217729D01*
X103576870Y-104101523D01*
X103576862Y-104101517D01*
X103477759Y-104042908D01*
X103435398Y-104017856D01*
X103435397Y-104017855D01*
X103435396Y-104017855D01*
X103435393Y-104017854D01*
X103277573Y-103972002D01*
X103277567Y-103972001D01*
X103240701Y-103969100D01*
X103240694Y-103969100D01*
X102934342Y-103969100D01*
X102867303Y-103949415D01*
X102846661Y-103932781D01*
X101789067Y-102875187D01*
X101789065Y-102875185D01*
X101723450Y-102837302D01*
X101657836Y-102799419D01*
X101584650Y-102779809D01*
X101511466Y-102760200D01*
X101511465Y-102760200D01*
X97925442Y-102760200D01*
X97858403Y-102740515D01*
X97837761Y-102723881D01*
X96906819Y-101792939D01*
X96873334Y-101731616D01*
X96870500Y-101705258D01*
X96870500Y-101530449D01*
X96889507Y-101464476D01*
X96910080Y-101431735D01*
X96975456Y-101327690D01*
X97028460Y-101176211D01*
X97069179Y-101119439D01*
X97134132Y-101093691D01*
X97202694Y-101107147D01*
X97253097Y-101155534D01*
X97269500Y-101217167D01*
X97269500Y-101270000D01*
X97269501Y-101270019D01*
X97280000Y-101372796D01*
X97280001Y-101372799D01*
X97335185Y-101539331D01*
X97335187Y-101539336D01*
X97349763Y-101562967D01*
X97427288Y-101688656D01*
X97551344Y-101812712D01*
X97700666Y-101904814D01*
X97867203Y-101959999D01*
X97969991Y-101970500D01*
X98970008Y-101970499D01*
X98970016Y-101970498D01*
X98970019Y-101970498D01*
X99026302Y-101964748D01*
X99072797Y-101959999D01*
X99239334Y-101904814D01*
X99388656Y-101812712D01*
X99512712Y-101688656D01*
X99604814Y-101539334D01*
X99604815Y-101539331D01*
X99608605Y-101533187D01*
X99610399Y-101534293D01*
X99649687Y-101489663D01*
X99715908Y-101470500D01*
X100143331Y-101470500D01*
X100143347Y-101470501D01*
X100150943Y-101470501D01*
X100309054Y-101470501D01*
X100309057Y-101470501D01*
X100461785Y-101429577D01*
X100511904Y-101400639D01*
X100598716Y-101350520D01*
X100710520Y-101238716D01*
X100710520Y-101238714D01*
X100720728Y-101228507D01*
X100720729Y-101228504D01*
X101314665Y-100634570D01*
X101375984Y-100601088D01*
X101378151Y-100600637D01*
X101378840Y-100600500D01*
X101378842Y-100600500D01*
X101533497Y-100569737D01*
X101657065Y-100518554D01*
X101679172Y-100509397D01*
X101679172Y-100509396D01*
X101679179Y-100509394D01*
X101810289Y-100421789D01*
X101908742Y-100323334D01*
X101970060Y-100289852D01*
X102039752Y-100294836D01*
X102084101Y-100323337D01*
X102163349Y-100402585D01*
X102163355Y-100402590D01*
X102445139Y-100684374D01*
X102445149Y-100684385D01*
X102449479Y-100688715D01*
X102449480Y-100688716D01*
X102561284Y-100800520D01*
X102561286Y-100800521D01*
X102561290Y-100800524D01*
X102698209Y-100879573D01*
X102698216Y-100879577D01*
X102810019Y-100909534D01*
X102850942Y-100920500D01*
X102850943Y-100920500D01*
X104660500Y-100920500D01*
X104727539Y-100940185D01*
X104773294Y-100992989D01*
X104784500Y-101044500D01*
X104784500Y-101895001D01*
X104784501Y-101895019D01*
X104795000Y-101997796D01*
X104795001Y-101997799D01*
X104812436Y-102050413D01*
X104850186Y-102164334D01*
X104942288Y-102313656D01*
X105066344Y-102437712D01*
X105215666Y-102529814D01*
X105382203Y-102584999D01*
X105484991Y-102595500D01*
X106260008Y-102595499D01*
X106260016Y-102595498D01*
X106260019Y-102595498D01*
X106316302Y-102589748D01*
X106362797Y-102584999D01*
X106529334Y-102529814D01*
X106678656Y-102437712D01*
X106802712Y-102313656D01*
X106804752Y-102310347D01*
X106806745Y-102308555D01*
X106807193Y-102307989D01*
X106807289Y-102308065D01*
X106856694Y-102263623D01*
X106925656Y-102252395D01*
X106989740Y-102280234D01*
X107015829Y-102310339D01*
X107017681Y-102313341D01*
X107017683Y-102313344D01*
X107141654Y-102437315D01*
X107290875Y-102529356D01*
X107290880Y-102529358D01*
X107457302Y-102584505D01*
X107457309Y-102584506D01*
X107560019Y-102594999D01*
X107697499Y-102594999D01*
X108197500Y-102594999D01*
X108334972Y-102594999D01*
X108334986Y-102594998D01*
X108437697Y-102584505D01*
X108604119Y-102529358D01*
X108604124Y-102529356D01*
X108753345Y-102437315D01*
X108877315Y-102313345D01*
X108969356Y-102164124D01*
X108969358Y-102164119D01*
X109024505Y-101997697D01*
X109024506Y-101997690D01*
X109034999Y-101894986D01*
X109035000Y-101894973D01*
X109035000Y-101620000D01*
X108197500Y-101620000D01*
X108197500Y-102594999D01*
X107697499Y-102594999D01*
X107697500Y-102594998D01*
X107697500Y-101244000D01*
X107717185Y-101176961D01*
X107769989Y-101131206D01*
X107821500Y-101120000D01*
X109034999Y-101120000D01*
X109034999Y-100845028D01*
X109034998Y-100845013D01*
X109024505Y-100742302D01*
X108969358Y-100575880D01*
X108969356Y-100575875D01*
X108877315Y-100426654D01*
X108753345Y-100302684D01*
X108712121Y-100277257D01*
X108665397Y-100225309D01*
X108654174Y-100156346D01*
X108682018Y-100092264D01*
X108714093Y-100064988D01*
X108801865Y-100013081D01*
X108918081Y-99896865D01*
X109001744Y-99755398D01*
X109047598Y-99597569D01*
X109050500Y-99560694D01*
X109050500Y-99129306D01*
X109047598Y-99092431D01*
X109031999Y-99038741D01*
X109008466Y-98957739D01*
X109001744Y-98934602D01*
X108918081Y-98793135D01*
X108918078Y-98793132D01*
X108913298Y-98786969D01*
X108915750Y-98785066D01*
X108889155Y-98736421D01*
X108894104Y-98666726D01*
X108914940Y-98634304D01*
X108913298Y-98633031D01*
X108918076Y-98626869D01*
X108918081Y-98626865D01*
X109001744Y-98485398D01*
X109002384Y-98483193D01*
X109003554Y-98481213D01*
X109004844Y-98478235D01*
X109005220Y-98478397D01*
X109033781Y-98430097D01*
X109472820Y-97991058D01*
X109534142Y-97957575D01*
X109603834Y-97962559D01*
G37*
G04 #@! TD.AperFunction*
G04 #@! TA.AperFunction,Conductor*
G36*
X96522113Y-103048554D02*
G01*
X96560982Y-103074862D01*
X97282335Y-103796215D01*
X97413565Y-103871981D01*
X97559933Y-103911200D01*
X97559934Y-103911200D01*
X101145958Y-103911200D01*
X101212997Y-103930885D01*
X101233639Y-103947519D01*
X101267705Y-103981585D01*
X101301190Y-104042908D01*
X101296206Y-104112600D01*
X101267706Y-104156947D01*
X101206920Y-104217733D01*
X101206917Y-104217737D01*
X101123255Y-104359203D01*
X101123254Y-104359206D01*
X101077402Y-104517026D01*
X101077401Y-104517032D01*
X101074500Y-104553898D01*
X101074500Y-104695545D01*
X101054815Y-104762584D01*
X101002011Y-104808339D01*
X100950500Y-104819545D01*
X98315636Y-104819545D01*
X98169265Y-104858764D01*
X98117420Y-104888698D01*
X98101503Y-104897887D01*
X98039504Y-104914500D01*
X95924892Y-104914500D01*
X95857853Y-104894815D01*
X95812098Y-104842011D01*
X95802154Y-104772853D01*
X95812510Y-104738095D01*
X95823903Y-104713663D01*
X95885063Y-104485408D01*
X95905659Y-104250000D01*
X95885063Y-104014592D01*
X95843200Y-103858355D01*
X95844863Y-103788509D01*
X95875292Y-103738586D01*
X96250515Y-103363365D01*
X96326281Y-103232135D01*
X96353527Y-103130448D01*
X96389890Y-103070790D01*
X96452737Y-103040260D01*
X96522113Y-103048554D01*
G37*
G04 #@! TD.AperFunction*
G04 #@! TA.AperFunction,Conductor*
G36*
X84860807Y-93189977D02*
G01*
X84892412Y-93252290D01*
X84894500Y-93274952D01*
X84894500Y-93775765D01*
X84933719Y-93922136D01*
X84956457Y-93961518D01*
X85009485Y-94053365D01*
X85639485Y-94683365D01*
X85746635Y-94790515D01*
X85877865Y-94866281D01*
X86024234Y-94905500D01*
X86175767Y-94905500D01*
X93407812Y-94905500D01*
X93474851Y-94925185D01*
X93509386Y-94958375D01*
X93511506Y-94961403D01*
X93678597Y-95128493D01*
X93678603Y-95128498D01*
X93864158Y-95258425D01*
X93907783Y-95313002D01*
X93914977Y-95382500D01*
X93883454Y-95444855D01*
X93864158Y-95461575D01*
X93678597Y-95591505D01*
X93511505Y-95758597D01*
X93375965Y-95952169D01*
X93375964Y-95952171D01*
X93276098Y-96166335D01*
X93276094Y-96166344D01*
X93214938Y-96394586D01*
X93214936Y-96394596D01*
X93194341Y-96629999D01*
X93194341Y-96630000D01*
X93214936Y-96865403D01*
X93214938Y-96865413D01*
X93276094Y-97093655D01*
X93276096Y-97093659D01*
X93276097Y-97093663D01*
X93295419Y-97135099D01*
X93375963Y-97307827D01*
X93424320Y-97376887D01*
X93446647Y-97443093D01*
X93429637Y-97510861D01*
X93410426Y-97535692D01*
X93036235Y-97909885D01*
X92929087Y-98017032D01*
X92929085Y-98017035D01*
X92853319Y-98148263D01*
X92814100Y-98294634D01*
X92814100Y-98870058D01*
X92794415Y-98937097D01*
X92741611Y-98982852D01*
X92672453Y-98992796D01*
X92608897Y-98963771D01*
X92602419Y-98957739D01*
X91344167Y-97699487D01*
X91344165Y-97699485D01*
X91278550Y-97661602D01*
X91212936Y-97623719D01*
X91139750Y-97604109D01*
X91066566Y-97584500D01*
X91066565Y-97584500D01*
X90903073Y-97584500D01*
X90836034Y-97564815D01*
X90790279Y-97512011D01*
X90780335Y-97442853D01*
X90790691Y-97408095D01*
X90888429Y-97198492D01*
X90888432Y-97198486D01*
X90945636Y-96985000D01*
X90048012Y-96985000D01*
X90080925Y-96927993D01*
X90115000Y-96800826D01*
X90115000Y-96669174D01*
X90080925Y-96542007D01*
X90048012Y-96485000D01*
X90945636Y-96485000D01*
X90945635Y-96484999D01*
X90888432Y-96271513D01*
X90888429Y-96271507D01*
X90788600Y-96057422D01*
X90788599Y-96057420D01*
X90653113Y-95863926D01*
X90653108Y-95863920D01*
X90486082Y-95696894D01*
X90292578Y-95561399D01*
X90078492Y-95461570D01*
X90078486Y-95461567D01*
X89865000Y-95404364D01*
X89865000Y-96301988D01*
X89807993Y-96269075D01*
X89680826Y-96235000D01*
X89549174Y-96235000D01*
X89422007Y-96269075D01*
X89365000Y-96301988D01*
X89365000Y-95404364D01*
X89364999Y-95404364D01*
X89151513Y-95461567D01*
X89151507Y-95461570D01*
X88937422Y-95561399D01*
X88937420Y-95561400D01*
X88743926Y-95696886D01*
X88743920Y-95696891D01*
X88576891Y-95863920D01*
X88576886Y-95863926D01*
X88441400Y-96057420D01*
X88441399Y-96057422D01*
X88341570Y-96271507D01*
X88341567Y-96271513D01*
X88284364Y-96484999D01*
X88284364Y-96485000D01*
X89181988Y-96485000D01*
X89149075Y-96542007D01*
X89115000Y-96669174D01*
X89115000Y-96800826D01*
X89149075Y-96927993D01*
X89181988Y-96985000D01*
X88284364Y-96985000D01*
X88341567Y-97198486D01*
X88341570Y-97198492D01*
X88439309Y-97408095D01*
X88449801Y-97477173D01*
X88421281Y-97540957D01*
X88362805Y-97579196D01*
X88326927Y-97584500D01*
X86885442Y-97584500D01*
X86818403Y-97564815D01*
X86797761Y-97548181D01*
X83366760Y-94117180D01*
X83333275Y-94055857D01*
X83338259Y-93986165D01*
X83380131Y-93930232D01*
X83445595Y-93905815D01*
X83454441Y-93905499D01*
X83952502Y-93905499D01*
X83952508Y-93905499D01*
X84055297Y-93894999D01*
X84221834Y-93839814D01*
X84371156Y-93747712D01*
X84495212Y-93623656D01*
X84587314Y-93474334D01*
X84642499Y-93307797D01*
X84647142Y-93262350D01*
X84673538Y-93197658D01*
X84730719Y-93157506D01*
X84800530Y-93154643D01*
X84860807Y-93189977D01*
G37*
G04 #@! TD.AperFunction*
G04 #@! TA.AperFunction,Conductor*
G36*
X109808363Y-88550185D02*
G01*
X109829005Y-88566819D01*
X110463181Y-89200995D01*
X110496666Y-89262318D01*
X110499500Y-89288676D01*
X110499500Y-92039811D01*
X110479815Y-92106850D01*
X110427011Y-92152605D01*
X110357853Y-92162549D01*
X110294297Y-92133524D01*
X110287819Y-92127492D01*
X109424814Y-91264487D01*
X109424812Y-91264485D01*
X109359197Y-91226602D01*
X109293583Y-91188719D01*
X109194547Y-91162183D01*
X109147213Y-91149500D01*
X109147212Y-91149500D01*
X109050541Y-91149500D01*
X108983502Y-91129815D01*
X108937747Y-91077011D01*
X108927803Y-91007853D01*
X108943809Y-90962379D01*
X109001281Y-90865198D01*
X109047100Y-90707486D01*
X109047295Y-90705001D01*
X109047295Y-90705000D01*
X106302705Y-90705000D01*
X106300723Y-90707143D01*
X106287921Y-90768078D01*
X106238868Y-90817834D01*
X106170703Y-90833171D01*
X106105066Y-90809220D01*
X106090988Y-90797108D01*
X105498878Y-90204998D01*
X106302704Y-90204998D01*
X106302705Y-90205000D01*
X107425000Y-90205000D01*
X107925000Y-90205000D01*
X109047295Y-90205000D01*
X109047295Y-90204998D01*
X109047100Y-90202513D01*
X109001281Y-90044801D01*
X108917685Y-89903447D01*
X108917678Y-89903438D01*
X108801561Y-89787321D01*
X108801552Y-89787314D01*
X108660196Y-89703717D01*
X108660193Y-89703716D01*
X108502495Y-89657900D01*
X108502489Y-89657899D01*
X108465649Y-89655000D01*
X107925000Y-89655000D01*
X107925000Y-90205000D01*
X107425000Y-90205000D01*
X107425000Y-89655000D01*
X106884350Y-89655000D01*
X106847510Y-89657899D01*
X106847504Y-89657900D01*
X106689806Y-89703716D01*
X106689803Y-89703717D01*
X106548447Y-89787314D01*
X106548438Y-89787321D01*
X106432321Y-89903438D01*
X106432314Y-89903447D01*
X106348718Y-90044801D01*
X106302899Y-90202513D01*
X106302704Y-90204998D01*
X105498878Y-90204998D01*
X104036061Y-88742181D01*
X104002576Y-88680858D01*
X104007560Y-88611166D01*
X104049432Y-88555233D01*
X104114896Y-88530816D01*
X104123742Y-88530500D01*
X109741324Y-88530500D01*
X109808363Y-88550185D01*
G37*
G04 #@! TD.AperFunction*
G04 #@! TD*
M02*
