M48
; DRILL file {KiCad 8.0.5} date 2024-11-12T16:02:26-0400
; FORMAT={-:-/ absolute / metric / decimal}
; #@! TF.CreationDate,2024-11-12T16:02:26-04:00
; #@! TF.GenerationSoftware,Kicad,Pcbnew,8.0.5
; #@! TF.FileFunction,Plated,1,2,PTH
FMAT,2
METRIC
; #@! TA.AperFunction,Plated,PTH,ViaDrill
T1C0.200
; #@! TA.AperFunction,Plated,PTH,ViaDrill
T2C0.300
; #@! TA.AperFunction,Plated,PTH,ComponentDrill
T3C1.000
%
G90
G05
T1
X77.93Y-95.19
X77.93Y-101.391
X77.93Y-107.593
X77.93Y-113.794
X77.93Y-126.196
X77.93Y-132.398
X77.93Y-138.599
X77.93Y-144.772
X79.47Y-113.5
X83.72Y-103.33
X83.8Y-97.81
X83.86Y-121.33
X84.14Y-106.03
X84.14Y-108.34
X84.15Y-111.48
X84.29Y-130.1
X84.29Y-135.01
X84.29Y-139.92
X84.85Y-99.87
X85.349Y-125.495
X85.552Y-123.179
X85.62Y-95.86
X86.34Y-119.05
X86.97Y-113.95
X88.15Y-93.76
X89.49Y-120.75
X90.0Y-118.4
X90.197Y-123.39
X92.39Y-119.04
X92.669Y-99.838
X93.146Y-111.413
X96.295Y-101.0
X96.4Y-111.6
X96.62Y-119.1
X97.8Y-122.34
X98.4Y-112.3
X98.45Y-114.89
X98.77Y-102.3
X98.78Y-104.35
X99.215Y-128.646
X99.48Y-120.25
X99.595Y-106.0
X99.78Y-121.97
X100.091Y-96.996
X100.48Y-93.85
X100.49Y-92.97
X100.51Y-92.19
X100.74Y-116.71
X100.74Y-117.41
X100.885Y-98.552
X101.118Y-113.651
X101.31Y-130.01
X102.425Y-117.232
X102.455Y-118.07
X103.56Y-143.36
X103.63Y-98.71
X103.83Y-94.78
X103.93Y-126.876
X104.43Y-128.07
X104.58Y-139.91
X104.593Y-109.207
X104.715Y-93.048
X104.79Y-103.28
X104.84Y-126.405
X105.2Y-123.4
X105.2Y-125.16
X105.335Y-112.985
X105.735Y-126.455
X105.93Y-89.99
X106.0Y-109.9
X106.055Y-140.78
X106.165Y-94.61
X106.387Y-113.073
X106.42Y-130.12
X106.73Y-100.09
X107.24Y-136.96
X107.66Y-89.1
X107.9Y-117.47
X108.978Y-121.698
X109.415Y-125.08
X109.78Y-90.47
X110.1Y-127.66
T2
X101.15Y-127.74
X101.3Y-99.8
X108.94Y-118.83
X109.1Y-115.63
X109.18Y-104.78
X109.2Y-101.37
T3
X81.995Y-96.735
X81.995Y-99.275
X81.995Y-101.815
X81.995Y-104.355
X81.995Y-106.895
X81.995Y-109.435
X81.995Y-111.975
X81.995Y-114.53
X87.7Y-120.855
X87.7Y-123.395
X87.7Y-125.935
X87.7Y-128.475
X87.7Y-131.015
X87.7Y-133.555
X87.7Y-136.095
X87.7Y-138.635
X87.7Y-141.175
X87.7Y-143.715
X89.615Y-96.735
X89.615Y-99.275
X89.615Y-101.815
X89.615Y-104.355
X89.615Y-106.895
X89.615Y-109.435
X89.615Y-111.975
X89.615Y-114.515
X94.55Y-91.55
X94.55Y-94.09
X94.55Y-96.63
X94.55Y-99.17
X94.55Y-101.71
X94.55Y-104.25
X94.55Y-106.79
X94.55Y-109.33
X94.55Y-111.87
X94.55Y-114.41
X94.55Y-120.85
X94.55Y-123.39
X94.55Y-125.93
X94.55Y-128.47
X94.55Y-131.01
X94.55Y-133.55
X94.55Y-136.09
X94.55Y-138.63
X94.55Y-141.17
X94.55Y-143.71
X99.325Y-131.025
X99.325Y-133.565
X99.325Y-136.105
X99.325Y-138.645
X99.325Y-141.185
X99.325Y-143.725
M30
