G04 #@! TF.GenerationSoftware,KiCad,Pcbnew,8.0.5*
G04 #@! TF.CreationDate,2025-01-09T14:40:57-04:00*
G04 #@! TF.ProjectId,RAMAUXB_V2,52414d41-5558-4425-9f56-322e6b696361,rev?*
G04 #@! TF.SameCoordinates,Original*
G04 #@! TF.FileFunction,Copper,L2,Bot*
G04 #@! TF.FilePolarity,Positive*
%FSLAX46Y46*%
G04 Gerber Fmt 4.6, Leading zero omitted, Abs format (unit mm)*
G04 Created by KiCad (PCBNEW 8.0.5) date 2025-01-09 14:40:57*
%MOMM*%
%LPD*%
G01*
G04 APERTURE LIST*
G04 Aperture macros list*
%AMRoundRect*
0 Rectangle with rounded corners*
0 $1 Rounding radius*
0 $2 $3 $4 $5 $6 $7 $8 $9 X,Y pos of 4 corners*
0 Add a 4 corners polygon primitive as box body*
4,1,4,$2,$3,$4,$5,$6,$7,$8,$9,$2,$3,0*
0 Add four circle primitives for the rounded corners*
1,1,$1+$1,$2,$3*
1,1,$1+$1,$4,$5*
1,1,$1+$1,$6,$7*
1,1,$1+$1,$8,$9*
0 Add four rect primitives between the rounded corners*
20,1,$1+$1,$2,$3,$4,$5,0*
20,1,$1+$1,$4,$5,$6,$7,0*
20,1,$1+$1,$6,$7,$8,$9,0*
20,1,$1+$1,$8,$9,$2,$3,0*%
G04 Aperture macros list end*
G04 #@! TA.AperFunction,ComponentPad*
%ADD10R,1.700000X1.700000*%
G04 #@! TD*
G04 #@! TA.AperFunction,ComponentPad*
%ADD11O,1.700000X1.700000*%
G04 #@! TD*
G04 #@! TA.AperFunction,SMDPad,CuDef*
%ADD12RoundRect,0.250000X-0.337500X-0.475000X0.337500X-0.475000X0.337500X0.475000X-0.337500X0.475000X0*%
G04 #@! TD*
G04 #@! TA.AperFunction,ViaPad*
%ADD13C,0.500000*%
G04 #@! TD*
G04 #@! TA.AperFunction,Conductor*
%ADD14C,0.600000*%
G04 #@! TD*
G04 #@! TA.AperFunction,Conductor*
%ADD15C,0.150000*%
G04 #@! TD*
G04 #@! TA.AperFunction,Conductor*
%ADD16C,0.250000*%
G04 #@! TD*
G04 #@! TA.AperFunction,Conductor*
%ADD17C,0.200000*%
G04 #@! TD*
G04 APERTURE END LIST*
D10*
G04 #@! TO.P,J4,1,Pin_1*
G04 #@! TO.N,~{MCAS1}*
X99325000Y-143725000D03*
D11*
G04 #@! TO.P,J4,2,Pin_2*
G04 #@! TO.N,~{MCAS0}*
X99325000Y-141185000D03*
G04 #@! TO.P,J4,3,Pin_3*
G04 #@! TO.N,VID\u005C~{u}*
X99325000Y-138645000D03*
G04 #@! TO.P,J4,4,Pin_4*
G04 #@! TO.N,MC2M*
X99325000Y-136105000D03*
G04 #@! TO.P,J4,5,Pin_5*
G04 #@! TO.N,MRA9F*
X99325000Y-133565000D03*
G04 #@! TO.P,J4,6,Pin_6*
G04 #@! TO.N,MSRA8F*
X99325000Y-131025000D03*
G04 #@! TD*
D12*
G04 #@! TO.P,C3,1*
G04 #@! TO.N,VCC*
X105402500Y-128110000D03*
G04 #@! TO.P,C3,2*
G04 #@! TO.N,GND*
X107477500Y-128110000D03*
G04 #@! TD*
D10*
G04 #@! TO.P,J6,1,Pin_1*
G04 #@! TO.N,RA5*
X94550000Y-120850000D03*
D11*
G04 #@! TO.P,J6,2,Pin_2*
G04 #@! TO.N,RA5F*
X94550000Y-123390000D03*
G04 #@! TO.P,J6,3,Pin_3*
G04 #@! TO.N,RA7*
X94550000Y-125930000D03*
G04 #@! TO.P,J6,4,Pin_4*
G04 #@! TO.N,RA7F*
X94550000Y-128470000D03*
G04 #@! TO.P,J6,5,Pin_5*
G04 #@! TO.N,RA6*
X94550000Y-131010000D03*
G04 #@! TO.P,J6,6,Pin_6*
G04 #@! TO.N,RA6F*
X94550000Y-133550000D03*
G04 #@! TO.P,J6,7,Pin_7*
G04 #@! TO.N,~{CAS0F}*
X94550000Y-136090000D03*
G04 #@! TO.P,J6,8,Pin_8*
G04 #@! TO.N,~{CAS0}*
X94550000Y-138630000D03*
G04 #@! TO.P,J6,9,Pin_9*
G04 #@! TO.N,~{CAS1F}*
X94550000Y-141170000D03*
G04 #@! TO.P,J6,10,Pin_10*
G04 #@! TO.N,~{CAS1}*
X94550000Y-143710000D03*
G04 #@! TD*
D10*
G04 #@! TO.P,J2,1*
G04 #@! TO.N,DMA*
X89615000Y-114515000D03*
D11*
G04 #@! TO.P,J2,2*
G04 #@! TO.N,VID\u005C~{u}*
X89615000Y-111975000D03*
G04 #@! TO.P,J2,3*
G04 #@! TO.N,VA0*
X89615000Y-109435000D03*
G04 #@! TO.P,J2,4*
G04 #@! TO.N,VA8*
X89615000Y-106895000D03*
G04 #@! TO.P,J2,5*
G04 #@! TO.N,A1*
X89615000Y-104355000D03*
G04 #@! TO.P,J2,6*
G04 #@! TO.N,A9*
X89615000Y-101815000D03*
G04 #@! TO.P,J2,7*
G04 #@! TO.N,RA0*
X89615000Y-99275000D03*
G04 #@! TO.P,J2,8*
G04 #@! TO.N,GND*
X89615000Y-96735000D03*
G04 #@! TO.P,J2,9*
G04 #@! TO.N,RA1*
X81995000Y-96735000D03*
G04 #@! TO.P,J2,10*
G04 #@! TO.N,A10*
X81995000Y-99275000D03*
G04 #@! TO.P,J2,11*
G04 #@! TO.N,A2*
X81995000Y-101815000D03*
G04 #@! TO.P,J2,12*
G04 #@! TO.N,VA9*
X81995000Y-104355000D03*
G04 #@! TO.P,J2,13*
G04 #@! TO.N,VA1*
X81995000Y-106895000D03*
G04 #@! TO.P,J2,14*
G04 #@! TO.N,C2M*
X81995000Y-109435000D03*
G04 #@! TO.P,J2,15*
G04 #@! TO.N,unconnected-(J2-Pad15)*
X81995000Y-111975000D03*
G04 #@! TO.P,J2,16*
G04 #@! TO.N,VCC*
X81995000Y-114515000D03*
G04 #@! TD*
D10*
G04 #@! TO.P,J3,1,Pin_1*
G04 #@! TO.N,~{SNDPG2}*
X87700000Y-120855000D03*
D11*
G04 #@! TO.P,J3,2,Pin_2*
G04 #@! TO.N,~{DMA}*
X87700000Y-123395000D03*
G04 #@! TO.P,J3,3,Pin_3*
G04 #@! TO.N,VA6*
X87700000Y-125935000D03*
G04 #@! TO.P,J3,4,Pin_4*
G04 #@! TO.N,VA13*
X87700000Y-128475000D03*
G04 #@! TO.P,J3,5,Pin_5*
G04 #@! TO.N,A18*
X87700000Y-131015000D03*
G04 #@! TO.P,J3,6,Pin_6*
G04 #@! TO.N,VA5*
X87700000Y-133555000D03*
G04 #@! TO.P,J3,7,Pin_7*
G04 #@! TO.N,A17*
X87700000Y-136095000D03*
G04 #@! TO.P,J3,8,Pin_8*
G04 #@! TO.N,A20*
X87700000Y-138635000D03*
G04 #@! TO.P,J3,9,Pin_9*
G04 #@! TO.N,A19*
X87700000Y-141175000D03*
G04 #@! TO.P,J3,10,Pin_10*
G04 #@! TO.N,RA8*
X87700000Y-143715000D03*
G04 #@! TD*
D10*
G04 #@! TO.P,J5,1,Pin_1*
G04 #@! TO.N,RA0*
X94550000Y-91550000D03*
D11*
G04 #@! TO.P,J5,2,Pin_2*
G04 #@! TO.N,MSRA0F*
X94550000Y-94090000D03*
G04 #@! TO.P,J5,3,Pin_3*
G04 #@! TO.N,RA4F*
X94550000Y-96630000D03*
G04 #@! TO.P,J5,4,Pin_4*
G04 #@! TO.N,RA4*
X94550000Y-99170000D03*
G04 #@! TO.P,J5,5,Pin_5*
G04 #@! TO.N,RA2*
X94550000Y-101710000D03*
G04 #@! TO.P,J5,6,Pin_6*
G04 #@! TO.N,RA2F*
X94550000Y-104250000D03*
G04 #@! TO.P,J5,7,Pin_7*
G04 #@! TO.N,RA3*
X94550000Y-106790000D03*
G04 #@! TO.P,J5,8,Pin_8*
G04 #@! TO.N,RA3F*
X94550000Y-109330000D03*
G04 #@! TO.P,J5,9,Pin_9*
G04 #@! TO.N,MSRA1F*
X94550000Y-111870000D03*
G04 #@! TO.P,J5,10,Pin_10*
G04 #@! TO.N,RA1*
X94550000Y-114410000D03*
G04 #@! TD*
D13*
G04 #@! TO.N,GND*
X84290000Y-139920000D03*
X84150000Y-111480000D03*
X77930000Y-126196250D03*
X98400000Y-112300000D03*
X109200000Y-101370000D03*
X107660000Y-89100000D03*
X84850000Y-99870000D03*
X92390000Y-119040000D03*
X107900000Y-117470000D03*
X105930000Y-89990000D03*
X77930000Y-113793750D03*
X89490000Y-120750000D03*
X108940000Y-118830000D03*
X77930000Y-132397500D03*
X84290000Y-135010000D03*
X109780000Y-90470000D03*
X77930000Y-138598750D03*
X77930000Y-101391250D03*
X83720000Y-103330000D03*
X83800000Y-97810000D03*
X77930000Y-144772500D03*
X86340000Y-119050000D03*
X85620000Y-95860000D03*
X96620000Y-119100000D03*
X104790000Y-103280000D03*
X84140000Y-106030000D03*
X98780000Y-104350000D03*
X77930000Y-107592500D03*
X109100000Y-115629814D03*
X84140000Y-108340000D03*
X84290000Y-130100000D03*
X98450000Y-114890000D03*
X98770000Y-102300000D03*
X77930000Y-95190000D03*
X109180000Y-104780000D03*
G04 #@! TO.N,RA1*
X79470000Y-113500000D03*
G04 #@! TO.N,MSRA8F*
X100490000Y-92970000D03*
G04 #@! TO.N,MRA0*
X92668900Y-99838100D03*
X96295000Y-101000000D03*
G04 #@! TO.N,VA5*
X103930168Y-126876110D03*
X103630000Y-98710000D03*
G04 #@! TO.N,DMA*
X104840000Y-126405000D03*
X105335000Y-112985000D03*
G04 #@! TO.N,A18*
X99595000Y-106000000D03*
G04 #@! TO.N,VA8*
X104592911Y-109207089D03*
G04 #@! TO.N,MRA1*
X103830000Y-94780000D03*
X102425000Y-117232337D03*
G04 #@! TO.N,VCC*
X100740000Y-117410000D03*
X101150000Y-127740000D03*
X99780000Y-121970000D03*
X104430000Y-128070000D03*
X101300000Y-99800000D03*
X100740000Y-116710000D03*
X101118075Y-113650789D03*
G04 #@! TO.N,~{CAS0}*
X104580000Y-139910000D03*
G04 #@! TO.N,VID\u005C~{u}*
X105735000Y-126455000D03*
G04 #@! TO.N,C2M*
X106730000Y-100090000D03*
X105200000Y-125160000D03*
X106420000Y-130120000D03*
X106387089Y-113072911D03*
G04 #@! TO.N,VA13*
X104715000Y-93047600D03*
G04 #@! TO.N,~{DMA}*
X100885500Y-98551700D03*
X90197000Y-123390000D03*
G04 #@! TO.N,MSRA1F*
X90000000Y-118400000D03*
G04 #@! TO.N,Net-(U1-Zd)*
X100510000Y-92190000D03*
X102455000Y-118070000D03*
G04 #@! TO.N,~{SNDPG2}*
X100480000Y-93850000D03*
G04 #@! TO.N,VA6*
X100090600Y-96995600D03*
G04 #@! TO.N,A10*
X83860000Y-121330000D03*
G04 #@! TO.N,A19*
X110100000Y-127660000D03*
X108977577Y-121697577D03*
G04 #@! TO.N,A2*
X86970000Y-113950000D03*
G04 #@! TO.N,A20*
X99480000Y-120250000D03*
G04 #@! TO.N,VA1*
X85349400Y-125495200D03*
G04 #@! TO.N,VA9*
X85551800Y-123178800D03*
G04 #@! TO.N,MRA9F*
X97800000Y-122340000D03*
G04 #@! TO.N,PULLUP*
X105200000Y-123400000D03*
X106165000Y-94310000D03*
X106000000Y-109900000D03*
G04 #@! TO.N,~{MCAS1}*
X99214695Y-128645914D03*
X101310000Y-130010000D03*
X107240000Y-136960000D03*
X103560000Y-143360000D03*
G04 #@! TO.N,~{MCAS0}*
X106055000Y-140780000D03*
X109415000Y-125080000D03*
G04 #@! TO.N,RA8*
X88150000Y-93760000D03*
G04 #@! TD*
D14*
G04 #@! TO.N,GND*
X107660000Y-89100000D02*
X109480000Y-89100000D01*
X109210000Y-101360000D02*
X109200000Y-101370000D01*
X89615000Y-96735000D02*
X90305000Y-96735000D01*
X109210000Y-104810000D02*
X109180000Y-104780000D01*
X90305000Y-95885000D02*
X90305000Y-96735000D01*
X94500000Y-89100000D02*
X107660000Y-89100000D01*
X109470000Y-118830000D02*
X110080000Y-118220000D01*
X110080000Y-107810000D02*
X110080000Y-106002000D01*
X88440000Y-97220000D02*
X88440000Y-96280000D01*
X88915000Y-96490000D02*
X89615000Y-95790000D01*
X110080000Y-102995000D02*
X110080000Y-106002000D01*
X110080000Y-118220000D02*
X110080000Y-116695000D01*
X109490000Y-89090000D02*
X110006777Y-89606777D01*
X109100000Y-115629814D02*
X109141786Y-115671600D01*
X90395000Y-95885000D02*
X90305000Y-95885000D01*
X89630000Y-96750000D02*
X89160000Y-97220000D01*
X89520000Y-97830000D02*
X90930000Y-96420000D01*
X88915000Y-96735000D02*
X88915000Y-96490000D01*
X110080000Y-101360000D02*
X110080000Y-102995000D01*
X110080000Y-104810000D02*
X109210000Y-104810000D01*
X89615000Y-95790000D02*
X89615000Y-93985000D01*
X109141786Y-115671600D02*
X109896644Y-115671600D01*
X89160000Y-97220000D02*
X88440000Y-97220000D01*
X108940000Y-118830000D02*
X109470000Y-118830000D01*
X109480000Y-89100000D02*
X109490000Y-89090000D01*
X89615000Y-95100000D02*
X89615000Y-95105000D01*
X110080000Y-116695000D02*
X110070000Y-116685000D01*
X89050000Y-97830000D02*
X89520000Y-97830000D01*
X88440000Y-97220000D02*
X89050000Y-97830000D01*
X89615000Y-95105000D02*
X89615000Y-95790000D01*
X110080000Y-116695000D02*
X110080000Y-114132000D01*
X90305000Y-96480000D02*
X89615000Y-95790000D01*
X90930000Y-96420000D02*
X90395000Y-95885000D01*
X110080000Y-89783553D02*
X110080000Y-101360000D01*
X110070000Y-116685000D02*
X110070000Y-107820000D01*
X89615000Y-96735000D02*
X88915000Y-96735000D01*
X88440000Y-96280000D02*
X89615000Y-95105000D01*
X89615000Y-95105000D02*
X90395000Y-95885000D01*
X89615000Y-93985000D02*
X94500000Y-89100000D01*
X110080000Y-101360000D02*
X109210000Y-101360000D01*
X89615000Y-96735000D02*
X89615000Y-95790000D01*
X90305000Y-96735000D02*
X90305000Y-96480000D01*
X110006777Y-89606777D02*
G75*
G02*
X110080033Y-89783553I-176777J-176823D01*
G01*
D15*
G04 #@! TO.N,RA0*
X92590000Y-96010000D02*
X89615000Y-98985000D01*
X92590000Y-92443553D02*
X92590000Y-96010000D01*
X94550000Y-91550000D02*
X93483553Y-91550000D01*
X93306776Y-91623224D02*
X92663223Y-92266777D01*
X93483553Y-91550000D02*
G75*
G03*
X93306799Y-91623247I47J-250000D01*
G01*
X92663223Y-92266777D02*
G75*
G03*
X92589967Y-92443553I176777J-176823D01*
G01*
G04 #@! TO.N,RA1*
X79470000Y-113500000D02*
X79470000Y-112420000D01*
X79720000Y-97790000D02*
X80760000Y-96750000D01*
X79720000Y-112170000D02*
X79720000Y-97790000D01*
X80760000Y-96750000D02*
X82000000Y-96750000D01*
X79470000Y-112420000D02*
X79720000Y-112170000D01*
G04 #@! TO.N,MSRA8F*
X100100000Y-116150000D02*
X99990000Y-116260000D01*
X97560000Y-123294178D02*
X97560000Y-129670000D01*
X100490000Y-92970000D02*
X101426655Y-93906655D01*
X100100000Y-100146828D02*
X100100000Y-116150000D01*
X99990000Y-116260000D02*
X99990000Y-120864178D01*
X101426655Y-98820173D02*
X100100000Y-100146828D01*
X99990000Y-120864178D02*
X97560000Y-123294178D01*
X101426655Y-93906655D02*
X101426655Y-98820173D01*
X97560000Y-129670000D02*
X98915000Y-131025000D01*
G04 #@! TO.N,MRA0*
X93290800Y-100460000D02*
X92668900Y-99838100D01*
X96295000Y-101000000D02*
X95755000Y-100460000D01*
X95755000Y-100460000D02*
X93290800Y-100460000D01*
G04 #@! TO.N,VA5*
X103930168Y-126150168D02*
X103140000Y-125360000D01*
X103140000Y-125360000D02*
X103140000Y-116397022D01*
X103140000Y-116397022D02*
X102850000Y-116107022D01*
X102850000Y-116107022D02*
X102850000Y-99490000D01*
X103930168Y-126876110D02*
X103930168Y-126150168D01*
X102850000Y-99490000D02*
X103630000Y-98710000D01*
G04 #@! TO.N,DMA*
X104630000Y-122680000D02*
X104870000Y-122440000D01*
X104870000Y-118090000D02*
X105335000Y-117625000D01*
X105335000Y-117625000D02*
X105335000Y-112985000D01*
X104840000Y-126405000D02*
X104630000Y-126195000D01*
X104870000Y-122440000D02*
X104870000Y-118090000D01*
X104630000Y-126195000D02*
X104630000Y-122680000D01*
G04 #@! TO.N,A18*
X96488310Y-122141690D02*
X94024163Y-122141690D01*
X96488310Y-122141690D02*
X99600000Y-119030000D01*
X88631447Y-131015000D02*
X87700000Y-131015000D01*
X99595000Y-106000000D02*
X99600000Y-106005000D01*
X89400000Y-126813553D02*
X89400000Y-130246447D01*
X99600000Y-106005000D02*
X99600000Y-119030000D01*
X93896776Y-122213224D02*
X89473223Y-126636777D01*
X89326776Y-130423224D02*
X88808223Y-130941777D01*
X89400000Y-130246447D02*
G75*
G02*
X89326753Y-130423201I-250000J47D01*
G01*
X88808223Y-130941777D02*
G75*
G02*
X88631447Y-131015033I-176823J176777D01*
G01*
X89473223Y-126636777D02*
G75*
G03*
X89399967Y-126813553I176777J-176823D01*
G01*
X94024163Y-122141690D02*
G75*
G03*
X93896777Y-122213225I75037J-282810D01*
G01*
G04 #@! TO.N,VA8*
X104600000Y-108670000D02*
X105660000Y-107610000D01*
X93822907Y-95399507D02*
X93786776Y-95433224D01*
X91149976Y-105310024D02*
X89550000Y-106910000D01*
X105660000Y-107610000D02*
X105660000Y-93123553D01*
X91221510Y-105182637D02*
X91183693Y-105273893D01*
X105660000Y-93123553D02*
X103770837Y-91234390D01*
X104592911Y-109207089D02*
X104600000Y-109200000D01*
X93914163Y-95361690D02*
X93822907Y-95399507D01*
X99286457Y-91234390D02*
X95160847Y-95360000D01*
X93963553Y-95360000D02*
X93914163Y-95361690D01*
X95160847Y-95360000D02*
X93963553Y-95360000D01*
X91183693Y-105273893D02*
X91149976Y-105310024D01*
X93786776Y-95433224D02*
X91223200Y-97996800D01*
X103770837Y-91234390D02*
X99286457Y-91234390D01*
X104600000Y-109200000D02*
X104600000Y-108670000D01*
X91223200Y-105133247D02*
X91221510Y-105182637D01*
X91223200Y-97996800D02*
X91223200Y-105133247D01*
G04 #@! TO.N,MRA1*
X102390000Y-97770000D02*
X102390000Y-116850000D01*
X102390000Y-116850000D02*
X102425000Y-116885000D01*
X103840000Y-94790000D02*
X103840000Y-96320000D01*
X103830000Y-94780000D02*
X103840000Y-94790000D01*
X103840000Y-96320000D02*
X102390000Y-97770000D01*
X102425000Y-116885000D02*
X102425000Y-117232337D01*
D14*
G04 #@! TO.N,VCC*
X101150000Y-127740000D02*
X101150000Y-127160000D01*
D16*
X104430000Y-128070000D02*
X105162500Y-128070000D01*
D17*
X99800000Y-121990000D02*
X100830000Y-121990000D01*
D14*
X100830000Y-117100000D02*
X100880000Y-117050000D01*
X100830000Y-126840000D02*
X100830000Y-121990000D01*
X101000000Y-100100000D02*
X101000000Y-113532714D01*
X100870000Y-117410000D02*
X100740000Y-117280000D01*
X101150000Y-127160000D02*
X100830000Y-126840000D01*
D17*
X99780000Y-121970000D02*
X99800000Y-121990000D01*
D14*
X100830000Y-121990000D02*
X100830000Y-117330000D01*
X101300000Y-99800000D02*
X101000000Y-100100000D01*
X100740000Y-117280000D02*
X100740000Y-116710000D01*
X100998075Y-113620789D02*
X100998075Y-117498075D01*
X100740000Y-117410000D02*
X100740000Y-116710000D01*
D15*
G04 #@! TO.N,~{CAS0}*
X104580000Y-139910000D02*
X97920000Y-139910000D01*
X97920000Y-139910000D02*
X96640000Y-138630000D01*
X96640000Y-138630000D02*
X94550000Y-138630000D01*
G04 #@! TO.N,VID\u005C~{u}*
X105280000Y-126910000D02*
X104650000Y-126910000D01*
X103680000Y-128830000D02*
X101003310Y-131506690D01*
X100640000Y-131860000D02*
X100640000Y-137330000D01*
X101003310Y-131506690D02*
X100993310Y-131506690D01*
X103680000Y-127880000D02*
X103680000Y-128830000D01*
X105735000Y-126455000D02*
X105280000Y-126910000D01*
X104650000Y-126910000D02*
X103680000Y-127880000D01*
X100993310Y-131506690D02*
X100640000Y-131860000D01*
X100640000Y-137330000D02*
X99325000Y-138645000D01*
G04 #@! TO.N,C2M*
X106387089Y-113072911D02*
X106387089Y-112937460D01*
X105530000Y-118430000D02*
X106387089Y-117572911D01*
X105200000Y-124560000D02*
X105750000Y-124010000D01*
X105200000Y-125160000D02*
X105364178Y-125160000D01*
X106505000Y-100315000D02*
X106505000Y-112955000D01*
X105750000Y-124010000D02*
X105750000Y-122690000D01*
X105200000Y-125160000D02*
X105200000Y-124560000D01*
X105364178Y-125160000D02*
X106420000Y-126215822D01*
X106505000Y-112955000D02*
X106387089Y-113072911D01*
X105530000Y-122470000D02*
X105530000Y-118430000D01*
X105750000Y-122690000D02*
X105530000Y-122470000D01*
X106420000Y-126215822D02*
X106420000Y-130120000D01*
X106730000Y-100090000D02*
X106505000Y-100315000D01*
X106387089Y-117572911D02*
X106387089Y-113072911D01*
G04 #@! TO.N,VA13*
X93747576Y-97973224D02*
X91626423Y-100094377D01*
X99092676Y-93797324D02*
X94990000Y-97900000D01*
X86093224Y-127703224D02*
X86791777Y-128401777D01*
X99165900Y-92397653D02*
X99165900Y-93544047D01*
X99815876Y-91644124D02*
X99239123Y-92220877D01*
X103134747Y-91570900D02*
X99992653Y-91570900D01*
X87518900Y-118940400D02*
X86093223Y-120366077D01*
X86056800Y-122969622D02*
X86056800Y-123387978D01*
X99092676Y-93720824D02*
X99092676Y-93797324D01*
X86056800Y-123387978D02*
X86020000Y-123424778D01*
X86020000Y-120542853D02*
X86020000Y-122932822D01*
X86020000Y-122932822D02*
X86056800Y-122969622D01*
X86020000Y-123424778D02*
X86020000Y-127526447D01*
X104715000Y-93047600D02*
X103311523Y-91644123D01*
X91553200Y-100271153D02*
X91553200Y-114888147D01*
X94990000Y-97900000D02*
X93924353Y-97900000D01*
X91479976Y-115064924D02*
X87604500Y-118940400D01*
X86791777Y-128401777D02*
G75*
G03*
X86968553Y-128475033I176823J176777D01*
G01*
X91626423Y-100094377D02*
G75*
G03*
X91553167Y-100271153I176777J-176823D01*
G01*
X91553200Y-114888147D02*
G75*
G02*
X91479953Y-115064901I-250000J47D01*
G01*
X99992653Y-91570900D02*
G75*
G03*
X99815899Y-91644147I47J-250000D01*
G01*
X99165900Y-93544047D02*
G75*
G02*
X99092653Y-93720801I-250000J47D01*
G01*
X103311523Y-91644123D02*
G75*
G03*
X103134747Y-91570867I-176823J-176777D01*
G01*
X93924353Y-97900000D02*
G75*
G03*
X93747599Y-97973247I47J-250000D01*
G01*
X86093224Y-127703224D02*
G75*
G02*
X86019967Y-127526447I176776J176824D01*
G01*
X86093223Y-120366077D02*
G75*
G03*
X86019967Y-120542853I176777J-176823D01*
G01*
X99239123Y-92220877D02*
G75*
G03*
X99165867Y-92397653I176777J-176823D01*
G01*
G04 #@! TO.N,~{DMA}*
X94513890Y-119201310D02*
X97468800Y-116246400D01*
X90197000Y-123238953D02*
X90198690Y-123189563D01*
X97468800Y-101968400D02*
X100885500Y-98551700D01*
X90270224Y-123062176D02*
X94056177Y-119276223D01*
X94458037Y-119201310D02*
X94513890Y-119201310D01*
X97468800Y-116195846D02*
X97468800Y-101968400D01*
X94183557Y-119204657D02*
X94232953Y-119203000D01*
X94056177Y-119276223D02*
X94092290Y-119242478D01*
X90198690Y-123189563D02*
X90236507Y-123098307D01*
X94092290Y-119242478D02*
X94183557Y-119204657D01*
X90236507Y-123098307D02*
X90270224Y-123062176D01*
X94232953Y-119203000D02*
X94408647Y-119203000D01*
X94408647Y-119203000D02*
X94458037Y-119201310D01*
X90197000Y-123390000D02*
X90197000Y-123238953D01*
G04 #@! TO.N,MSRA1F*
X90400000Y-118000000D02*
X90400000Y-117502500D01*
X90400000Y-117502500D02*
X92926776Y-114975724D01*
X90000000Y-118400000D02*
X90400000Y-118000000D01*
X92998343Y-114848344D02*
X92998343Y-113421657D01*
X92998343Y-113421657D02*
X94550000Y-111870000D01*
X92926776Y-114975724D02*
G75*
G03*
X92998344Y-114848344I-211676J202724D01*
G01*
G04 #@! TO.N,Net-(U1-Zd)*
X101920000Y-93600000D02*
X100510000Y-92190000D01*
X101920000Y-117535000D02*
X101920000Y-93600000D01*
X102455000Y-118070000D02*
X101920000Y-117535000D01*
G04 #@! TO.N,~{SNDPG2}*
X87700000Y-119544053D02*
X87700000Y-120855000D01*
X92547800Y-109812653D02*
X92547800Y-114489147D01*
X94941423Y-107986777D02*
X96800000Y-106128200D01*
X94764647Y-108060000D02*
X94300453Y-108060000D01*
X100480000Y-93969000D02*
X96800000Y-97649000D01*
X94123676Y-108133224D02*
X92621023Y-109635877D01*
X92474576Y-114665924D02*
X87773223Y-119367277D01*
X100480000Y-93850000D02*
X100480000Y-93969000D01*
X96800000Y-97649000D02*
X96800000Y-106128200D01*
X87773223Y-119367277D02*
G75*
G03*
X87699967Y-119544053I176777J-176823D01*
G01*
X94300453Y-108060000D02*
G75*
G03*
X94123699Y-108133247I47J-250000D01*
G01*
X92621023Y-109635877D02*
G75*
G03*
X92547767Y-109812653I176777J-176823D01*
G01*
X92547800Y-114489147D02*
G75*
G02*
X92474553Y-114665901I-250000J47D01*
G01*
X94941423Y-107986777D02*
G75*
G02*
X94764647Y-108060033I-176823J176777D01*
G01*
G04 #@! TO.N,VA6*
X93921286Y-118944424D02*
X89134923Y-123730787D01*
X88988476Y-125511524D02*
X88638223Y-125861777D01*
X97138800Y-100050953D02*
X97138800Y-115953947D01*
X89061700Y-123907563D02*
X89061700Y-125334747D01*
X100090600Y-96995600D02*
X97212023Y-99874177D01*
X97065576Y-116130724D02*
X94398323Y-118797977D01*
X94221547Y-118871200D02*
X94098063Y-118871200D01*
X94398323Y-118797977D02*
G75*
G02*
X94221547Y-118871233I-176823J176777D01*
G01*
X88988476Y-125511524D02*
G75*
G03*
X89061733Y-125334747I-176776J176824D01*
G01*
X93921286Y-118944424D02*
G75*
G02*
X94098063Y-118871174I176814J-176776D01*
G01*
X97138800Y-100050953D02*
G75*
G02*
X97212046Y-99874200I250000J-47D01*
G01*
X89134923Y-123730787D02*
G75*
G03*
X89061674Y-123907563I176777J-176813D01*
G01*
X97138800Y-115953947D02*
G75*
G02*
X97065553Y-116130701I-250000J47D01*
G01*
X88461447Y-125935000D02*
G75*
G03*
X88638200Y-125861754I-47J250000D01*
G01*
G04 #@! TO.N,A10*
X83860000Y-121330000D02*
X83860000Y-120330000D01*
X80050000Y-99982368D02*
X80702890Y-99329478D01*
X83860000Y-120330000D02*
X80050000Y-116520000D01*
X80050000Y-116520000D02*
X80050000Y-99982368D01*
X80843553Y-99290000D02*
X82000000Y-99290000D01*
X80702890Y-99329478D02*
G75*
G02*
X80843553Y-99289978I147210J-254022D01*
G01*
G04 #@! TO.N,A19*
X110100000Y-127660000D02*
X110100000Y-122820000D01*
X110100000Y-122820000D02*
X108977577Y-121697577D01*
G04 #@! TO.N,A2*
X86970000Y-113950000D02*
X85900000Y-112880000D01*
X85900000Y-103980000D02*
X83773224Y-101853224D01*
X85900000Y-112880000D02*
X85900000Y-103980000D01*
X83596447Y-101780000D02*
X82050000Y-101780000D01*
X83773224Y-101853224D02*
G75*
G03*
X83596447Y-101779967I-176824J-176776D01*
G01*
G04 #@! TO.N,A20*
X99100000Y-120250000D02*
X99480000Y-120250000D01*
X99100000Y-120250000D02*
X96900000Y-122450000D01*
X87715000Y-138635000D02*
X94036777Y-132313223D01*
X96900000Y-130500000D02*
X95086777Y-132313223D01*
X95086777Y-132313223D02*
X94036777Y-132313223D01*
X96900000Y-122450000D02*
X96900000Y-130500000D01*
G04 #@! TO.N,VA1*
X85046800Y-122969622D02*
X85046800Y-125089047D01*
X82000000Y-106910000D02*
X83676447Y-106910000D01*
X83853224Y-106983224D02*
X84986777Y-108116777D01*
X85120024Y-125265824D02*
X85349400Y-125495200D01*
X85060000Y-108293553D02*
X85060000Y-122956422D01*
X85060000Y-122956422D02*
X85046800Y-122969622D01*
X85046800Y-125089047D02*
G75*
G03*
X85120047Y-125265801I250000J47D01*
G01*
X84986777Y-108116777D02*
G75*
G02*
X85060033Y-108293553I-176777J-176823D01*
G01*
X83676447Y-106910000D02*
G75*
G02*
X83853201Y-106983247I-47J-250000D01*
G01*
G04 #@! TO.N,VA9*
X83803224Y-104433224D02*
X85478577Y-106108577D01*
X85551800Y-106285353D02*
X85551800Y-123178800D01*
X82010000Y-104360000D02*
X83626447Y-104360000D01*
X83803224Y-104433224D02*
G75*
G03*
X83626447Y-104359967I-176824J-176776D01*
G01*
X85478577Y-106108577D02*
G75*
G02*
X85551833Y-106285353I-176777J-176823D01*
G01*
G04 #@! TO.N,MRA9F*
X97230000Y-131470000D02*
X99325000Y-133565000D01*
X97230000Y-122910000D02*
X97230000Y-131470000D01*
X97800000Y-122340000D02*
X97230000Y-122910000D01*
G04 #@! TO.N,PULLUP*
X105882089Y-117611221D02*
X105200000Y-118293310D01*
X106150000Y-94325000D02*
X106150000Y-99140822D01*
X105200000Y-123300000D02*
X105100000Y-123400000D01*
X106000000Y-99290822D02*
X106000000Y-109900000D01*
X106165000Y-94310000D02*
X106150000Y-94325000D01*
X105882089Y-112863733D02*
X105882089Y-117611221D01*
X106000000Y-109900000D02*
X106000000Y-112745822D01*
X106150000Y-99140822D02*
X106000000Y-99290822D01*
X105200000Y-118293310D02*
X105200000Y-123300000D01*
X106000000Y-112745822D02*
X105882089Y-112863733D01*
G04 #@! TO.N,~{MCAS1}*
X105250000Y-138870000D02*
X107160000Y-136960000D01*
X100810000Y-130010000D02*
X101310000Y-130010000D01*
X107160000Y-136960000D02*
X107240000Y-136960000D01*
X103560000Y-143360000D02*
X105250000Y-141670000D01*
X105250000Y-141670000D02*
X105250000Y-138870000D01*
X99214695Y-128645914D02*
X99445914Y-128645914D01*
X99445914Y-128645914D02*
X100810000Y-130010000D01*
G04 #@! TO.N,~{MCAS0}*
X109400000Y-127790000D02*
X109415000Y-127775000D01*
X106055000Y-140780000D02*
X107190000Y-140780000D01*
X107190000Y-140780000D02*
X109400000Y-138570000D01*
X109415000Y-127775000D02*
X109415000Y-125080000D01*
X109400000Y-138570000D02*
X109400000Y-127790000D01*
G04 #@! TO.N,RA8*
X85750000Y-141765000D02*
X87700000Y-143715000D01*
X81310000Y-100550000D02*
X80380000Y-101480000D01*
X85750000Y-130080847D02*
X85750000Y-141765000D01*
X88150000Y-95027537D02*
X82627537Y-100550000D01*
X84480000Y-128810847D02*
X85750000Y-130080847D01*
X82627537Y-100550000D02*
X81310000Y-100550000D01*
X84480000Y-120483310D02*
X84480000Y-128810847D01*
X80380000Y-101480000D02*
X80380000Y-116383310D01*
X88150000Y-93760000D02*
X88150000Y-95027537D01*
X80380000Y-116383310D02*
X84480000Y-120483310D01*
G04 #@! TD*
G04 #@! TA.AperFunction,Conductor*
G04 #@! TO.N,GND*
G36*
X109808363Y-88550185D02*
G01*
X109829005Y-88566819D01*
X110463181Y-89200995D01*
X110496666Y-89262318D01*
X110499500Y-89288676D01*
X110499500Y-122106258D01*
X110479815Y-122173297D01*
X110427011Y-122219052D01*
X110357853Y-122228996D01*
X110294297Y-122199971D01*
X110287819Y-122193939D01*
X109756061Y-121662181D01*
X109722576Y-121600858D01*
X109720523Y-121588398D01*
X109713890Y-121529518D01*
X109658033Y-121369887D01*
X109658030Y-121369882D01*
X109658029Y-121369879D01*
X109568058Y-121226692D01*
X109568053Y-121226686D01*
X109448467Y-121107100D01*
X109448461Y-121107095D01*
X109305274Y-121017124D01*
X109305271Y-121017122D01*
X109145633Y-120961262D01*
X108977580Y-120942328D01*
X108977574Y-120942328D01*
X108809520Y-120961262D01*
X108649882Y-121017122D01*
X108649879Y-121017124D01*
X108506692Y-121107095D01*
X108506686Y-121107100D01*
X108387100Y-121226686D01*
X108387095Y-121226692D01*
X108297124Y-121369879D01*
X108297122Y-121369882D01*
X108241262Y-121529520D01*
X108222328Y-121697574D01*
X108222328Y-121697579D01*
X108241262Y-121865633D01*
X108297122Y-122025271D01*
X108297124Y-122025274D01*
X108387095Y-122168461D01*
X108387100Y-122168467D01*
X108506686Y-122288053D01*
X108506692Y-122288058D01*
X108649879Y-122378029D01*
X108649885Y-122378032D01*
X108649887Y-122378033D01*
X108809518Y-122433890D01*
X108868383Y-122440522D01*
X108932796Y-122467587D01*
X108942181Y-122476061D01*
X109488181Y-123022061D01*
X109521666Y-123083384D01*
X109524500Y-123109742D01*
X109524500Y-124201600D01*
X109504815Y-124268639D01*
X109452011Y-124314394D01*
X109414384Y-124324820D01*
X109246943Y-124343685D01*
X109087305Y-124399545D01*
X109087302Y-124399547D01*
X108944115Y-124489518D01*
X108944109Y-124489523D01*
X108824523Y-124609109D01*
X108824518Y-124609115D01*
X108734547Y-124752302D01*
X108734545Y-124752305D01*
X108678685Y-124911943D01*
X108659751Y-125079997D01*
X108659751Y-125080002D01*
X108678685Y-125248056D01*
X108734545Y-125407693D01*
X108820493Y-125544476D01*
X108839500Y-125610449D01*
X108839500Y-127641927D01*
X108835275Y-127674019D01*
X108824500Y-127714232D01*
X108824500Y-138280258D01*
X108804815Y-138347297D01*
X108788181Y-138367939D01*
X106987939Y-140168181D01*
X106926616Y-140201666D01*
X106900258Y-140204500D01*
X106585450Y-140204500D01*
X106519478Y-140185494D01*
X106382692Y-140099545D01*
X106382691Y-140099544D01*
X106382690Y-140099544D01*
X106344370Y-140086135D01*
X106223056Y-140043685D01*
X106055003Y-140024751D01*
X106054996Y-140024751D01*
X105963383Y-140035073D01*
X105894561Y-140023018D01*
X105843182Y-139975669D01*
X105825500Y-139911853D01*
X105825500Y-139159741D01*
X105845185Y-139092702D01*
X105861814Y-139072065D01*
X107185237Y-137748641D01*
X107246558Y-137715158D01*
X107259024Y-137713105D01*
X107327123Y-137705432D01*
X107408055Y-137696314D01*
X107408057Y-137696313D01*
X107408059Y-137696313D01*
X107567690Y-137640456D01*
X107567692Y-137640454D01*
X107567694Y-137640454D01*
X107567697Y-137640452D01*
X107710884Y-137550481D01*
X107710885Y-137550480D01*
X107710890Y-137550477D01*
X107830477Y-137430890D01*
X107830481Y-137430884D01*
X107920452Y-137287697D01*
X107920454Y-137287694D01*
X107920454Y-137287692D01*
X107920456Y-137287690D01*
X107976313Y-137128059D01*
X107976313Y-137128058D01*
X107976314Y-137128056D01*
X107995249Y-136960002D01*
X107995249Y-136959997D01*
X107976314Y-136791943D01*
X107920454Y-136632305D01*
X107920452Y-136632302D01*
X107830481Y-136489115D01*
X107830476Y-136489109D01*
X107710890Y-136369523D01*
X107710884Y-136369518D01*
X107567697Y-136279547D01*
X107567694Y-136279545D01*
X107408056Y-136223685D01*
X107240003Y-136204751D01*
X107239997Y-136204751D01*
X107071943Y-136223685D01*
X106912305Y-136279545D01*
X106912302Y-136279547D01*
X106769115Y-136369518D01*
X106769109Y-136369523D01*
X106649523Y-136489109D01*
X106649518Y-136489115D01*
X106559547Y-136632302D01*
X106559542Y-136632313D01*
X106507386Y-136781366D01*
X106478026Y-136828092D01*
X104896635Y-138409485D01*
X104789487Y-138516632D01*
X104789485Y-138516635D01*
X104713719Y-138647863D01*
X104674500Y-138794234D01*
X104674500Y-139033290D01*
X104654815Y-139100329D01*
X104602011Y-139146084D01*
X104564384Y-139156510D01*
X104411943Y-139173685D01*
X104252307Y-139229545D01*
X104115522Y-139315494D01*
X104049550Y-139334500D01*
X100688234Y-139334500D01*
X100621195Y-139314815D01*
X100575440Y-139262011D01*
X100565496Y-139192853D01*
X100575852Y-139158095D01*
X100598903Y-139108663D01*
X100660063Y-138880408D01*
X100680659Y-138645000D01*
X100660063Y-138409592D01*
X100618200Y-138253355D01*
X100619863Y-138183509D01*
X100650292Y-138133586D01*
X101100515Y-137683365D01*
X101176281Y-137552135D01*
X101215500Y-137405766D01*
X101215500Y-137254233D01*
X101215500Y-132149742D01*
X101235185Y-132082703D01*
X101251815Y-132062064D01*
X101321474Y-131992404D01*
X101347152Y-131972702D01*
X101356675Y-131967205D01*
X104140514Y-129183366D01*
X104141191Y-129182195D01*
X104144009Y-129177315D01*
X104151574Y-129164211D01*
X104216281Y-129052135D01*
X104219127Y-129041512D01*
X104255490Y-128981852D01*
X104318337Y-128951321D01*
X104387713Y-128959615D01*
X104441591Y-129004099D01*
X104444441Y-129008508D01*
X104471349Y-129052135D01*
X104472288Y-129053656D01*
X104596344Y-129177712D01*
X104745666Y-129269814D01*
X104912203Y-129324999D01*
X105014991Y-129335500D01*
X105720500Y-129335499D01*
X105787539Y-129355183D01*
X105833294Y-129407987D01*
X105844500Y-129459499D01*
X105844500Y-129589550D01*
X105825494Y-129655522D01*
X105739545Y-129792307D01*
X105683685Y-129951943D01*
X105664751Y-130119997D01*
X105664751Y-130120002D01*
X105683685Y-130288056D01*
X105739545Y-130447694D01*
X105739547Y-130447697D01*
X105829518Y-130590884D01*
X105829523Y-130590890D01*
X105949109Y-130710476D01*
X105949115Y-130710481D01*
X106092302Y-130800452D01*
X106092305Y-130800454D01*
X106092309Y-130800455D01*
X106092310Y-130800456D01*
X106164913Y-130825860D01*
X106251943Y-130856314D01*
X106419997Y-130875249D01*
X106420000Y-130875249D01*
X106420003Y-130875249D01*
X106588056Y-130856314D01*
X106588059Y-130856313D01*
X106747690Y-130800456D01*
X106747692Y-130800454D01*
X106747694Y-130800454D01*
X106747697Y-130800452D01*
X106890884Y-130710481D01*
X106890885Y-130710480D01*
X106890890Y-130710477D01*
X107010477Y-130590890D01*
X107027743Y-130563412D01*
X107100452Y-130447697D01*
X107100454Y-130447694D01*
X107100454Y-130447692D01*
X107100456Y-130447690D01*
X107156313Y-130288059D01*
X107156313Y-130288058D01*
X107156314Y-130288056D01*
X107175249Y-130120002D01*
X107175249Y-130119997D01*
X107156314Y-129951943D01*
X107123691Y-129858712D01*
X107100456Y-129792310D01*
X107031338Y-129682310D01*
X107014506Y-129655522D01*
X106995500Y-129589550D01*
X106995500Y-129458999D01*
X107015185Y-129391960D01*
X107067989Y-129346205D01*
X107119500Y-129334999D01*
X107227499Y-129334999D01*
X107727500Y-129334999D01*
X107864972Y-129334999D01*
X107864986Y-129334998D01*
X107967697Y-129324505D01*
X108134119Y-129269358D01*
X108134124Y-129269356D01*
X108283345Y-129177315D01*
X108407315Y-129053345D01*
X108499356Y-128904124D01*
X108499358Y-128904119D01*
X108554505Y-128737697D01*
X108554506Y-128737690D01*
X108564999Y-128634986D01*
X108565000Y-128634973D01*
X108565000Y-128360000D01*
X107727500Y-128360000D01*
X107727500Y-129334999D01*
X107227499Y-129334999D01*
X107227500Y-129334998D01*
X107227500Y-127860000D01*
X107727500Y-127860000D01*
X108564999Y-127860000D01*
X108564999Y-127585028D01*
X108564998Y-127585013D01*
X108554505Y-127482302D01*
X108499358Y-127315880D01*
X108499356Y-127315875D01*
X108407315Y-127166654D01*
X108283345Y-127042684D01*
X108134124Y-126950643D01*
X108134119Y-126950641D01*
X107967697Y-126895494D01*
X107967690Y-126895493D01*
X107864986Y-126885000D01*
X107727500Y-126885000D01*
X107727500Y-127860000D01*
X107227500Y-127860000D01*
X107227500Y-126885000D01*
X107119500Y-126885000D01*
X107052461Y-126865315D01*
X107006706Y-126812511D01*
X106995500Y-126761000D01*
X106995500Y-126140058D01*
X106995500Y-126140056D01*
X106956281Y-125993687D01*
X106880515Y-125862457D01*
X106773365Y-125755307D01*
X105916664Y-124898606D01*
X105887302Y-124851876D01*
X105880457Y-124832313D01*
X105880456Y-124832310D01*
X105879475Y-124830749D01*
X105879149Y-124829597D01*
X105877438Y-124826044D01*
X105878060Y-124825744D01*
X105860472Y-124763516D01*
X105880836Y-124696680D01*
X105896775Y-124677103D01*
X106210514Y-124363366D01*
X106223109Y-124341552D01*
X106286281Y-124232135D01*
X106302357Y-124172139D01*
X106325500Y-124085767D01*
X106325500Y-123934234D01*
X106325500Y-122614234D01*
X106286281Y-122467865D01*
X106286120Y-122467587D01*
X106266665Y-122433889D01*
X106210515Y-122336635D01*
X106141819Y-122267939D01*
X106108334Y-122206616D01*
X106105500Y-122180258D01*
X106105500Y-118719742D01*
X106125185Y-118652703D01*
X106141819Y-118632061D01*
X106481031Y-118292849D01*
X106847604Y-117926276D01*
X106923370Y-117795046D01*
X106962589Y-117648677D01*
X106962589Y-117497144D01*
X106962589Y-113603360D01*
X106981596Y-113537387D01*
X107019854Y-113476501D01*
X107067545Y-113400601D01*
X107123402Y-113240970D01*
X107123402Y-113240969D01*
X107123403Y-113240967D01*
X107142338Y-113072913D01*
X107142338Y-113072908D01*
X107123403Y-112904856D01*
X107123402Y-112904852D01*
X107087458Y-112802128D01*
X107080500Y-112761174D01*
X107080500Y-100824655D01*
X107100185Y-100757616D01*
X107138526Y-100719662D01*
X107200890Y-100680477D01*
X107320477Y-100560890D01*
X107320481Y-100560884D01*
X107410452Y-100417697D01*
X107410454Y-100417694D01*
X107410454Y-100417692D01*
X107410456Y-100417690D01*
X107466313Y-100258059D01*
X107466313Y-100258058D01*
X107466314Y-100258056D01*
X107485249Y-100090002D01*
X107485249Y-100089997D01*
X107466314Y-99921943D01*
X107410454Y-99762305D01*
X107410452Y-99762302D01*
X107320481Y-99619115D01*
X107320476Y-99619109D01*
X107200890Y-99499523D01*
X107200884Y-99499518D01*
X107057697Y-99409547D01*
X107057694Y-99409545D01*
X106898056Y-99353686D01*
X106835615Y-99346650D01*
X106771202Y-99319583D01*
X106731647Y-99261987D01*
X106725500Y-99223430D01*
X106725500Y-94861868D01*
X106745185Y-94794829D01*
X106752558Y-94784549D01*
X106755466Y-94780900D01*
X106755477Y-94780890D01*
X106845452Y-94637697D01*
X106845454Y-94637694D01*
X106845454Y-94637692D01*
X106845456Y-94637690D01*
X106901313Y-94478059D01*
X106901313Y-94478058D01*
X106901314Y-94478056D01*
X106920249Y-94310002D01*
X106920249Y-94309997D01*
X106901314Y-94141943D01*
X106845454Y-93982305D01*
X106845452Y-93982302D01*
X106755481Y-93839115D01*
X106755476Y-93839109D01*
X106635890Y-93719523D01*
X106635884Y-93719518D01*
X106492697Y-93629547D01*
X106492692Y-93629544D01*
X106368386Y-93586048D01*
X106333059Y-93573687D01*
X106333058Y-93573686D01*
X106333047Y-93573683D01*
X106331885Y-93573418D01*
X106331211Y-93573041D01*
X106326487Y-93571388D01*
X106326776Y-93570559D01*
X106270913Y-93539298D01*
X106238067Y-93477631D01*
X106235500Y-93452532D01*
X106235500Y-93047789D01*
X106235500Y-93047787D01*
X106196281Y-92901418D01*
X106195750Y-92900499D01*
X106163013Y-92843797D01*
X106120515Y-92770188D01*
X106013365Y-92663038D01*
X104124202Y-90773875D01*
X104058587Y-90735992D01*
X103992973Y-90698109D01*
X103919787Y-90678499D01*
X103846603Y-90658890D01*
X99210691Y-90658890D01*
X99064322Y-90698109D01*
X99064319Y-90698110D01*
X98934849Y-90772859D01*
X98934850Y-90772860D01*
X98933090Y-90773876D01*
X98933088Y-90773877D01*
X96030024Y-93676941D01*
X95968701Y-93710426D01*
X95899009Y-93705442D01*
X95843076Y-93663570D01*
X95827201Y-93630905D01*
X95825757Y-93631431D01*
X95823906Y-93626350D01*
X95823903Y-93626337D01*
X95724035Y-93412171D01*
X95718791Y-93404682D01*
X95588496Y-93218600D01*
X95539414Y-93169518D01*
X95466567Y-93096671D01*
X95433084Y-93035351D01*
X95438068Y-92965659D01*
X95479939Y-92909725D01*
X95510915Y-92892810D01*
X95642331Y-92843796D01*
X95757546Y-92757546D01*
X95843796Y-92642331D01*
X95894091Y-92507483D01*
X95900500Y-92447873D01*
X95900499Y-90652128D01*
X95894091Y-90592517D01*
X95843796Y-90457669D01*
X95843795Y-90457668D01*
X95843793Y-90457664D01*
X95757547Y-90342455D01*
X95757544Y-90342452D01*
X95642335Y-90256206D01*
X95642328Y-90256202D01*
X95507482Y-90205908D01*
X95507483Y-90205908D01*
X95447883Y-90199501D01*
X95447881Y-90199500D01*
X95447873Y-90199500D01*
X95447864Y-90199500D01*
X93652129Y-90199500D01*
X93652123Y-90199501D01*
X93592516Y-90205908D01*
X93457671Y-90256202D01*
X93457664Y-90256206D01*
X93342455Y-90342452D01*
X93342452Y-90342455D01*
X93256206Y-90457664D01*
X93256202Y-90457671D01*
X93205908Y-90592517D01*
X93199501Y-90652116D01*
X93199501Y-90652123D01*
X93199500Y-90652135D01*
X93199500Y-90942247D01*
X93179815Y-91009286D01*
X93131812Y-91052723D01*
X93050826Y-91094003D01*
X93050818Y-91094008D01*
X92972668Y-91150803D01*
X92961782Y-91157874D01*
X92953412Y-91162707D01*
X92953405Y-91162712D01*
X92948975Y-91167142D01*
X92948814Y-91167292D01*
X92903314Y-91212805D01*
X92903302Y-91212816D01*
X92202710Y-91913408D01*
X92202704Y-91913415D01*
X92197720Y-91922048D01*
X92190648Y-91932936D01*
X92134034Y-92010837D01*
X92134029Y-92010845D01*
X92075032Y-92126589D01*
X92075029Y-92126596D01*
X92034857Y-92250161D01*
X92034856Y-92250165D01*
X92019693Y-92345783D01*
X92017004Y-92358436D01*
X92014500Y-92367786D01*
X92014500Y-92443444D01*
X92014486Y-92520796D01*
X92014500Y-92521023D01*
X92014500Y-95720257D01*
X91994815Y-95787296D01*
X91978181Y-95807938D01*
X91164702Y-96621415D01*
X91103379Y-96654900D01*
X91033687Y-96649916D01*
X90977754Y-96608044D01*
X90953493Y-96544539D01*
X90949569Y-96499685D01*
X90949567Y-96499673D01*
X90888433Y-96271516D01*
X90888429Y-96271507D01*
X90788600Y-96057422D01*
X90788599Y-96057420D01*
X90653113Y-95863926D01*
X90653108Y-95863920D01*
X90486082Y-95696894D01*
X90292578Y-95561399D01*
X90078492Y-95461570D01*
X90078486Y-95461567D01*
X89865000Y-95404364D01*
X89865000Y-96301988D01*
X89807993Y-96269075D01*
X89680826Y-96235000D01*
X89549174Y-96235000D01*
X89422007Y-96269075D01*
X89365000Y-96301988D01*
X89365000Y-95404364D01*
X89364999Y-95404364D01*
X89151513Y-95461567D01*
X89151507Y-95461570D01*
X88937422Y-95561399D01*
X88937420Y-95561400D01*
X88743926Y-95696886D01*
X88743920Y-95696891D01*
X88576891Y-95863920D01*
X88576886Y-95863926D01*
X88441400Y-96057420D01*
X88441399Y-96057422D01*
X88341570Y-96271507D01*
X88341567Y-96271513D01*
X88284364Y-96484999D01*
X88284364Y-96485000D01*
X89181988Y-96485000D01*
X89149075Y-96542007D01*
X89115000Y-96669174D01*
X89115000Y-96800826D01*
X89149075Y-96927993D01*
X89181988Y-96985000D01*
X88284364Y-96985000D01*
X88341567Y-97198486D01*
X88341570Y-97198492D01*
X88441399Y-97412578D01*
X88576894Y-97606082D01*
X88743917Y-97773105D01*
X88929595Y-97903119D01*
X88973219Y-97957696D01*
X88980412Y-98027195D01*
X88948890Y-98089549D01*
X88929595Y-98106269D01*
X88743594Y-98236508D01*
X88576505Y-98403597D01*
X88440965Y-98597169D01*
X88440964Y-98597171D01*
X88351047Y-98789999D01*
X88342254Y-98808857D01*
X88341098Y-98811335D01*
X88341094Y-98811344D01*
X88279938Y-99039586D01*
X88279936Y-99039596D01*
X88259341Y-99274999D01*
X88259341Y-99275000D01*
X88279936Y-99510403D01*
X88279938Y-99510413D01*
X88341094Y-99738655D01*
X88341096Y-99738659D01*
X88341097Y-99738663D01*
X88409102Y-99884500D01*
X88440965Y-99952830D01*
X88440967Y-99952834D01*
X88576501Y-100146395D01*
X88576506Y-100146402D01*
X88743597Y-100313493D01*
X88743603Y-100313498D01*
X88929158Y-100443425D01*
X88972783Y-100498002D01*
X88979977Y-100567500D01*
X88948454Y-100629855D01*
X88929158Y-100646575D01*
X88743597Y-100776505D01*
X88576505Y-100943597D01*
X88440965Y-101137169D01*
X88440964Y-101137171D01*
X88341098Y-101351335D01*
X88341094Y-101351344D01*
X88279938Y-101579586D01*
X88279936Y-101579596D01*
X88259341Y-101814999D01*
X88259341Y-101815000D01*
X88279936Y-102050403D01*
X88279938Y-102050413D01*
X88341094Y-102278655D01*
X88341096Y-102278659D01*
X88341097Y-102278663D01*
X88393863Y-102391819D01*
X88440965Y-102492830D01*
X88440967Y-102492834D01*
X88576501Y-102686395D01*
X88576506Y-102686402D01*
X88743597Y-102853493D01*
X88743603Y-102853498D01*
X88929158Y-102983425D01*
X88972783Y-103038002D01*
X88979977Y-103107500D01*
X88948454Y-103169855D01*
X88929158Y-103186575D01*
X88743597Y-103316505D01*
X88576505Y-103483597D01*
X88440965Y-103677169D01*
X88440964Y-103677171D01*
X88341098Y-103891335D01*
X88341094Y-103891344D01*
X88279938Y-104119586D01*
X88279936Y-104119596D01*
X88259341Y-104354999D01*
X88259341Y-104355000D01*
X88279936Y-104590403D01*
X88279938Y-104590413D01*
X88341094Y-104818655D01*
X88341096Y-104818659D01*
X88341097Y-104818663D01*
X88408867Y-104963995D01*
X88440965Y-105032830D01*
X88440967Y-105032834D01*
X88516440Y-105140620D01*
X88564720Y-105209571D01*
X88576501Y-105226395D01*
X88576506Y-105226402D01*
X88743597Y-105393493D01*
X88743603Y-105393498D01*
X88929158Y-105523425D01*
X88972783Y-105578002D01*
X88979977Y-105647500D01*
X88948454Y-105709855D01*
X88929158Y-105726575D01*
X88743597Y-105856505D01*
X88576505Y-106023597D01*
X88440965Y-106217169D01*
X88440964Y-106217171D01*
X88341098Y-106431335D01*
X88341094Y-106431344D01*
X88279938Y-106659586D01*
X88279936Y-106659596D01*
X88259341Y-106894999D01*
X88259341Y-106895000D01*
X88279936Y-107130403D01*
X88279938Y-107130413D01*
X88341094Y-107358655D01*
X88341096Y-107358659D01*
X88341097Y-107358663D01*
X88409422Y-107505185D01*
X88440965Y-107572830D01*
X88440967Y-107572834D01*
X88549281Y-107727521D01*
X88576501Y-107766396D01*
X88576506Y-107766402D01*
X88743597Y-107933493D01*
X88743603Y-107933498D01*
X88929158Y-108063425D01*
X88972783Y-108118002D01*
X88979977Y-108187500D01*
X88948454Y-108249855D01*
X88929158Y-108266575D01*
X88743597Y-108396505D01*
X88576505Y-108563597D01*
X88440965Y-108757169D01*
X88440964Y-108757171D01*
X88341098Y-108971335D01*
X88341094Y-108971344D01*
X88279938Y-109199586D01*
X88279936Y-109199596D01*
X88259341Y-109434999D01*
X88259341Y-109435000D01*
X88279936Y-109670403D01*
X88279938Y-109670413D01*
X88341094Y-109898655D01*
X88341096Y-109898659D01*
X88341097Y-109898663D01*
X88420088Y-110068059D01*
X88440965Y-110112830D01*
X88440967Y-110112834D01*
X88506537Y-110206477D01*
X88576501Y-110306396D01*
X88576506Y-110306402D01*
X88743597Y-110473493D01*
X88743603Y-110473498D01*
X88929158Y-110603425D01*
X88972783Y-110658002D01*
X88979977Y-110727500D01*
X88948454Y-110789855D01*
X88929158Y-110806575D01*
X88743597Y-110936505D01*
X88576505Y-111103597D01*
X88440965Y-111297169D01*
X88440964Y-111297171D01*
X88341098Y-111511335D01*
X88341094Y-111511344D01*
X88279938Y-111739586D01*
X88279936Y-111739596D01*
X88259341Y-111974999D01*
X88259341Y-111975000D01*
X88279936Y-112210403D01*
X88279938Y-112210413D01*
X88341094Y-112438655D01*
X88341096Y-112438659D01*
X88341097Y-112438663D01*
X88411787Y-112590258D01*
X88440965Y-112652830D01*
X88440967Y-112652834D01*
X88506537Y-112746477D01*
X88576501Y-112846396D01*
X88576506Y-112846402D01*
X88698430Y-112968326D01*
X88731915Y-113029649D01*
X88726931Y-113099341D01*
X88685059Y-113155274D01*
X88654083Y-113172189D01*
X88522669Y-113221203D01*
X88522664Y-113221206D01*
X88407455Y-113307452D01*
X88407452Y-113307455D01*
X88321206Y-113422664D01*
X88321202Y-113422671D01*
X88270908Y-113557517D01*
X88264501Y-113617116D01*
X88264500Y-113617135D01*
X88264500Y-115412870D01*
X88264501Y-115412876D01*
X88270908Y-115472483D01*
X88321202Y-115607328D01*
X88321206Y-115607335D01*
X88407452Y-115722544D01*
X88407455Y-115722547D01*
X88522664Y-115808793D01*
X88522671Y-115808797D01*
X88657517Y-115859091D01*
X88657516Y-115859091D01*
X88664444Y-115859835D01*
X88717127Y-115865500D01*
X89566157Y-115865499D01*
X89633196Y-115885183D01*
X89678951Y-115937987D01*
X89688895Y-116007146D01*
X89659870Y-116070702D01*
X89653838Y-116077180D01*
X87361424Y-118369594D01*
X87305840Y-118401687D01*
X87296765Y-118404118D01*
X87165535Y-118479885D01*
X87165532Y-118479887D01*
X86338981Y-119306439D01*
X86277658Y-119339924D01*
X86207966Y-119334940D01*
X86152033Y-119293068D01*
X86127616Y-119227604D01*
X86127300Y-119218758D01*
X86127300Y-114449893D01*
X86146985Y-114382854D01*
X86199789Y-114337099D01*
X86268947Y-114327155D01*
X86332503Y-114356180D01*
X86356294Y-114383921D01*
X86379523Y-114420890D01*
X86499109Y-114540476D01*
X86499115Y-114540481D01*
X86642302Y-114630452D01*
X86642305Y-114630454D01*
X86642309Y-114630455D01*
X86642310Y-114630456D01*
X86685041Y-114645408D01*
X86801943Y-114686314D01*
X86969997Y-114705249D01*
X86970000Y-114705249D01*
X86970003Y-114705249D01*
X87138056Y-114686314D01*
X87138059Y-114686313D01*
X87297690Y-114630456D01*
X87297692Y-114630454D01*
X87297694Y-114630454D01*
X87297697Y-114630452D01*
X87440884Y-114540481D01*
X87440885Y-114540480D01*
X87440890Y-114540477D01*
X87560477Y-114420890D01*
X87567320Y-114410000D01*
X87650452Y-114277697D01*
X87650454Y-114277694D01*
X87650454Y-114277692D01*
X87650456Y-114277690D01*
X87706313Y-114118059D01*
X87706313Y-114118058D01*
X87706314Y-114118056D01*
X87725249Y-113950002D01*
X87725249Y-113949997D01*
X87706314Y-113781943D01*
X87657905Y-113643599D01*
X87650456Y-113622310D01*
X87650455Y-113622309D01*
X87650454Y-113622305D01*
X87650452Y-113622302D01*
X87560481Y-113479115D01*
X87560476Y-113479109D01*
X87440890Y-113359523D01*
X87440884Y-113359518D01*
X87297697Y-113269547D01*
X87297694Y-113269545D01*
X87138055Y-113213685D01*
X87079191Y-113207053D01*
X87014777Y-113179986D01*
X87005394Y-113171514D01*
X86511819Y-112677939D01*
X86478334Y-112616616D01*
X86475500Y-112590258D01*
X86475500Y-103904235D01*
X86475445Y-103904032D01*
X86475384Y-103903804D01*
X86436281Y-103757865D01*
X86360514Y-103626634D01*
X85315275Y-102581395D01*
X84126592Y-101392711D01*
X84117962Y-101387728D01*
X84107069Y-101380652D01*
X84029164Y-101324034D01*
X83913412Y-101265033D01*
X83913411Y-101265032D01*
X83913406Y-101265030D01*
X83913401Y-101265028D01*
X83913398Y-101265027D01*
X83789846Y-101224859D01*
X83694214Y-101209694D01*
X83681549Y-101207001D01*
X83672213Y-101204500D01*
X83596556Y-101204500D01*
X83596516Y-101204499D01*
X83526677Y-101204487D01*
X83526675Y-101204487D01*
X83519345Y-101204486D01*
X83519113Y-101204500D01*
X83279427Y-101204500D01*
X83212388Y-101184815D01*
X83173831Y-101140649D01*
X83171740Y-101141857D01*
X83169032Y-101137166D01*
X83099072Y-101037253D01*
X83076745Y-100971047D01*
X83093755Y-100903280D01*
X83112962Y-100878453D01*
X88610515Y-95380902D01*
X88686281Y-95249672D01*
X88725500Y-95103304D01*
X88725500Y-94951771D01*
X88725500Y-94290449D01*
X88744507Y-94224476D01*
X88823008Y-94099544D01*
X88830456Y-94087690D01*
X88886313Y-93928059D01*
X88886313Y-93928058D01*
X88886314Y-93928056D01*
X88905249Y-93760002D01*
X88905249Y-93759997D01*
X88886314Y-93591943D01*
X88853683Y-93498689D01*
X88830456Y-93432310D01*
X88830455Y-93432309D01*
X88830454Y-93432305D01*
X88830452Y-93432302D01*
X88740481Y-93289115D01*
X88740476Y-93289109D01*
X88620890Y-93169523D01*
X88620884Y-93169518D01*
X88477697Y-93079547D01*
X88477694Y-93079545D01*
X88318056Y-93023685D01*
X88150003Y-93004751D01*
X88149997Y-93004751D01*
X87981943Y-93023685D01*
X87822305Y-93079545D01*
X87822302Y-93079547D01*
X87679115Y-93169518D01*
X87679109Y-93169523D01*
X87559523Y-93289109D01*
X87559518Y-93289115D01*
X87469547Y-93432302D01*
X87469545Y-93432305D01*
X87413685Y-93591943D01*
X87394751Y-93759997D01*
X87394751Y-93760002D01*
X87413685Y-93928056D01*
X87469545Y-94087693D01*
X87555493Y-94224476D01*
X87574500Y-94290449D01*
X87574500Y-94737794D01*
X87554815Y-94804833D01*
X87538181Y-94825475D01*
X83480664Y-98882991D01*
X83419341Y-98916476D01*
X83349649Y-98911492D01*
X83293716Y-98869620D01*
X83273208Y-98827402D01*
X83268906Y-98811346D01*
X83268904Y-98811342D01*
X83268903Y-98811337D01*
X83169035Y-98597171D01*
X83130365Y-98541943D01*
X83033494Y-98403597D01*
X82866402Y-98236506D01*
X82866396Y-98236501D01*
X82680842Y-98106575D01*
X82637217Y-98051998D01*
X82630023Y-97982500D01*
X82661546Y-97920145D01*
X82680842Y-97903425D01*
X82806573Y-97815387D01*
X82866401Y-97773495D01*
X83033495Y-97606401D01*
X83169035Y-97412830D01*
X83268903Y-97198663D01*
X83330063Y-96970408D01*
X83350659Y-96735000D01*
X83330063Y-96499592D01*
X83268903Y-96271337D01*
X83169035Y-96057171D01*
X83150191Y-96030258D01*
X83033494Y-95863597D01*
X82866402Y-95696506D01*
X82866395Y-95696501D01*
X82839617Y-95677751D01*
X82827521Y-95669281D01*
X82672834Y-95560967D01*
X82672830Y-95560965D01*
X82672828Y-95560964D01*
X82458663Y-95461097D01*
X82458659Y-95461096D01*
X82458655Y-95461094D01*
X82230413Y-95399938D01*
X82230403Y-95399936D01*
X81995001Y-95379341D01*
X81994999Y-95379341D01*
X81759596Y-95399936D01*
X81759586Y-95399938D01*
X81531344Y-95461094D01*
X81531335Y-95461098D01*
X81317171Y-95560964D01*
X81317169Y-95560965D01*
X81123597Y-95696505D01*
X80956505Y-95863597D01*
X80820965Y-96057169D01*
X80820962Y-96057175D01*
X80799639Y-96102904D01*
X80753467Y-96155344D01*
X80692242Y-96173057D01*
X80692293Y-96173439D01*
X80689780Y-96173769D01*
X80687257Y-96174500D01*
X80684233Y-96174500D01*
X80537863Y-96213719D01*
X80406635Y-96289485D01*
X80406632Y-96289487D01*
X79259487Y-97436632D01*
X79259485Y-97436635D01*
X79183719Y-97567863D01*
X79144500Y-97714234D01*
X79144500Y-111880258D01*
X79124815Y-111947297D01*
X79108181Y-111967939D01*
X79009487Y-112066632D01*
X79009485Y-112066635D01*
X78933719Y-112197863D01*
X78894500Y-112344234D01*
X78894500Y-112969550D01*
X78875494Y-113035522D01*
X78789545Y-113172307D01*
X78733685Y-113331943D01*
X78714751Y-113499997D01*
X78714751Y-113500002D01*
X78733685Y-113668056D01*
X78789545Y-113827694D01*
X78789547Y-113827697D01*
X78879518Y-113970884D01*
X78879523Y-113970890D01*
X78999109Y-114090476D01*
X78999115Y-114090481D01*
X79142302Y-114180452D01*
X79142305Y-114180454D01*
X79142309Y-114180455D01*
X79142310Y-114180456D01*
X79301941Y-114236313D01*
X79301944Y-114236314D01*
X79364383Y-114243349D01*
X79428797Y-114270415D01*
X79468352Y-114328010D01*
X79474500Y-114366569D01*
X79474500Y-116444234D01*
X79474500Y-116595766D01*
X79475572Y-116599765D01*
X79513719Y-116742136D01*
X79551602Y-116807750D01*
X79589485Y-116873365D01*
X79589487Y-116873367D01*
X83248181Y-120532061D01*
X83281666Y-120593384D01*
X83284500Y-120619742D01*
X83284500Y-120799550D01*
X83265494Y-120865522D01*
X83179545Y-121002307D01*
X83123685Y-121161943D01*
X83104751Y-121329997D01*
X83104751Y-121330002D01*
X83123685Y-121498056D01*
X83179545Y-121657694D01*
X83179547Y-121657697D01*
X83269518Y-121800884D01*
X83269523Y-121800890D01*
X83389109Y-121920476D01*
X83389115Y-121920481D01*
X83532302Y-122010452D01*
X83532305Y-122010454D01*
X83532309Y-122010455D01*
X83532310Y-122010456D01*
X83691941Y-122066313D01*
X83691944Y-122066314D01*
X83794383Y-122077856D01*
X83858797Y-122104922D01*
X83898353Y-122162517D01*
X83904500Y-122201076D01*
X83904500Y-128735081D01*
X83904500Y-128886613D01*
X83918447Y-128938663D01*
X83943719Y-129032983D01*
X83955655Y-129053656D01*
X84019485Y-129164212D01*
X84595273Y-129740000D01*
X85138181Y-130282907D01*
X85171666Y-130344230D01*
X85174500Y-130370588D01*
X85174500Y-141840765D01*
X85213719Y-141987136D01*
X85245046Y-142041395D01*
X85289485Y-142118365D01*
X85289487Y-142118367D01*
X86374704Y-143203584D01*
X86408189Y-143264907D01*
X86406798Y-143323357D01*
X86364937Y-143479591D01*
X86344341Y-143714999D01*
X86344341Y-143715000D01*
X86364936Y-143950403D01*
X86364938Y-143950413D01*
X86426094Y-144178655D01*
X86426096Y-144178659D01*
X86426097Y-144178663D01*
X86523633Y-144387830D01*
X86525965Y-144392830D01*
X86525967Y-144392834D01*
X86634281Y-144547521D01*
X86661505Y-144586401D01*
X86828599Y-144753495D01*
X86868343Y-144781324D01*
X87022165Y-144889032D01*
X87022167Y-144889033D01*
X87022170Y-144889035D01*
X87236337Y-144988903D01*
X87464592Y-145050063D01*
X87642851Y-145065659D01*
X87699999Y-145070659D01*
X87700000Y-145070659D01*
X87700001Y-145070659D01*
X87757149Y-145065659D01*
X87935408Y-145050063D01*
X88163663Y-144988903D01*
X88377830Y-144889035D01*
X88571401Y-144753495D01*
X88738495Y-144586401D01*
X88874035Y-144392830D01*
X88973903Y-144178663D01*
X89035063Y-143950408D01*
X89055659Y-143715000D01*
X89055221Y-143709999D01*
X89035063Y-143479596D01*
X89035063Y-143479592D01*
X88973903Y-143251337D01*
X88874035Y-143037171D01*
X88870632Y-143032310D01*
X88738494Y-142843597D01*
X88571402Y-142676506D01*
X88571396Y-142676501D01*
X88385842Y-142546575D01*
X88342217Y-142491998D01*
X88335023Y-142422500D01*
X88366546Y-142360145D01*
X88385842Y-142343425D01*
X88434519Y-142309341D01*
X88571401Y-142213495D01*
X88738495Y-142046401D01*
X88874035Y-141852830D01*
X88973903Y-141638663D01*
X89035063Y-141410408D01*
X89055659Y-141175000D01*
X89055221Y-141169999D01*
X89035063Y-140939596D01*
X89035063Y-140939592D01*
X88976584Y-140721344D01*
X88973905Y-140711344D01*
X88973904Y-140711343D01*
X88973903Y-140711337D01*
X88874035Y-140497171D01*
X88865863Y-140485499D01*
X88738494Y-140303597D01*
X88571402Y-140136506D01*
X88571396Y-140136501D01*
X88385842Y-140006575D01*
X88342217Y-139951998D01*
X88335023Y-139882500D01*
X88366546Y-139820145D01*
X88385842Y-139803425D01*
X88408026Y-139787891D01*
X88571401Y-139673495D01*
X88738495Y-139506401D01*
X88874035Y-139312830D01*
X88973903Y-139098663D01*
X89035063Y-138870408D01*
X89055659Y-138635000D01*
X89055221Y-138629999D01*
X89035938Y-138409592D01*
X89035063Y-138399592D01*
X88996370Y-138255185D01*
X88998033Y-138185339D01*
X89028462Y-138135416D01*
X93110845Y-134053033D01*
X93172166Y-134019550D01*
X93241858Y-134024534D01*
X93297791Y-134066406D01*
X93310906Y-134088311D01*
X93375965Y-134227830D01*
X93375967Y-134227834D01*
X93511501Y-134421395D01*
X93511506Y-134421402D01*
X93678597Y-134588493D01*
X93678603Y-134588498D01*
X93864158Y-134718425D01*
X93907783Y-134773002D01*
X93914977Y-134842500D01*
X93883454Y-134904855D01*
X93864158Y-134921575D01*
X93678597Y-135051505D01*
X93511505Y-135218597D01*
X93375965Y-135412169D01*
X93375964Y-135412171D01*
X93276098Y-135626335D01*
X93276094Y-135626344D01*
X93214938Y-135854586D01*
X93214936Y-135854596D01*
X93194341Y-136089999D01*
X93194341Y-136090000D01*
X93214936Y-136325403D01*
X93214938Y-136325413D01*
X93276094Y-136553655D01*
X93276096Y-136553659D01*
X93276097Y-136553663D01*
X93370950Y-136757076D01*
X93375965Y-136767830D01*
X93375967Y-136767834D01*
X93454377Y-136879814D01*
X93510525Y-136960002D01*
X93511501Y-136961395D01*
X93511506Y-136961402D01*
X93678597Y-137128493D01*
X93678603Y-137128498D01*
X93864158Y-137258425D01*
X93907783Y-137313002D01*
X93914977Y-137382500D01*
X93883454Y-137444855D01*
X93864158Y-137461575D01*
X93678597Y-137591505D01*
X93511505Y-137758597D01*
X93375965Y-137952169D01*
X93375964Y-137952171D01*
X93276098Y-138166335D01*
X93276094Y-138166344D01*
X93214938Y-138394586D01*
X93214936Y-138394596D01*
X93194341Y-138629999D01*
X93194341Y-138630000D01*
X93214936Y-138865403D01*
X93214938Y-138865413D01*
X93276094Y-139093655D01*
X93276096Y-139093659D01*
X93276097Y-139093663D01*
X93354599Y-139262011D01*
X93375965Y-139307830D01*
X93375967Y-139307834D01*
X93511501Y-139501395D01*
X93511506Y-139501402D01*
X93678597Y-139668493D01*
X93678603Y-139668498D01*
X93864158Y-139798425D01*
X93907783Y-139853002D01*
X93914977Y-139922500D01*
X93883454Y-139984855D01*
X93864158Y-140001575D01*
X93678597Y-140131505D01*
X93511505Y-140298597D01*
X93375965Y-140492169D01*
X93375964Y-140492171D01*
X93276098Y-140706335D01*
X93276094Y-140706344D01*
X93214938Y-140934586D01*
X93214936Y-140934596D01*
X93194341Y-141169999D01*
X93194341Y-141170000D01*
X93214936Y-141405403D01*
X93214938Y-141405413D01*
X93276094Y-141633655D01*
X93276096Y-141633659D01*
X93276097Y-141633663D01*
X93328371Y-141745764D01*
X93375965Y-141847830D01*
X93375967Y-141847834D01*
X93473508Y-141987136D01*
X93498877Y-142023367D01*
X93511501Y-142041395D01*
X93511506Y-142041402D01*
X93678597Y-142208493D01*
X93678603Y-142208498D01*
X93864158Y-142338425D01*
X93907783Y-142393002D01*
X93914977Y-142462500D01*
X93883454Y-142524855D01*
X93864158Y-142541575D01*
X93678597Y-142671505D01*
X93511505Y-142838597D01*
X93375965Y-143032169D01*
X93375964Y-143032171D01*
X93276098Y-143246335D01*
X93276094Y-143246344D01*
X93214938Y-143474586D01*
X93214936Y-143474596D01*
X93194341Y-143709999D01*
X93194341Y-143710000D01*
X93214936Y-143945403D01*
X93214938Y-143945413D01*
X93276094Y-144173655D01*
X93276096Y-144173659D01*
X93276097Y-144173663D01*
X93375965Y-144387830D01*
X93375967Y-144387834D01*
X93484281Y-144542521D01*
X93511505Y-144581401D01*
X93678599Y-144748495D01*
X93725484Y-144781324D01*
X93872165Y-144884032D01*
X93872167Y-144884033D01*
X93872170Y-144884035D01*
X94086337Y-144983903D01*
X94314592Y-145045063D01*
X94502918Y-145061539D01*
X94549999Y-145065659D01*
X94550000Y-145065659D01*
X94550001Y-145065659D01*
X94589234Y-145062226D01*
X94785408Y-145045063D01*
X95013663Y-144983903D01*
X95227830Y-144884035D01*
X95421401Y-144748495D01*
X95588495Y-144581401D01*
X95724035Y-144387830D01*
X95823903Y-144173663D01*
X95885063Y-143945408D01*
X95905659Y-143710000D01*
X95885063Y-143474592D01*
X95823903Y-143246337D01*
X95724035Y-143032171D01*
X95623863Y-142889109D01*
X95588494Y-142838597D01*
X95421402Y-142671506D01*
X95421396Y-142671501D01*
X95235842Y-142541575D01*
X95192217Y-142486998D01*
X95185023Y-142417500D01*
X95216546Y-142355145D01*
X95235842Y-142338425D01*
X95326632Y-142274853D01*
X95421401Y-142208495D01*
X95588495Y-142041401D01*
X95724035Y-141847830D01*
X95823903Y-141633663D01*
X95885063Y-141405408D01*
X95905659Y-141170000D01*
X95885063Y-140934592D01*
X95823903Y-140706337D01*
X95724035Y-140492171D01*
X95719364Y-140485499D01*
X95588494Y-140298597D01*
X95421402Y-140131506D01*
X95421396Y-140131501D01*
X95235842Y-140001575D01*
X95192217Y-139946998D01*
X95185023Y-139877500D01*
X95216546Y-139815145D01*
X95235842Y-139798425D01*
X95258026Y-139782891D01*
X95421401Y-139668495D01*
X95588495Y-139501401D01*
X95724035Y-139307830D01*
X95738367Y-139277093D01*
X95784540Y-139224656D01*
X95850749Y-139205500D01*
X96350258Y-139205500D01*
X96417297Y-139225185D01*
X96437939Y-139241819D01*
X97459485Y-140263365D01*
X97566635Y-140370515D01*
X97631320Y-140407861D01*
X97697865Y-140446281D01*
X97844233Y-140485500D01*
X97844234Y-140485500D01*
X97966429Y-140485500D01*
X98033468Y-140505185D01*
X98079223Y-140557989D01*
X98089167Y-140627147D01*
X98078811Y-140661903D01*
X98074038Y-140672138D01*
X98051097Y-140721335D01*
X98051094Y-140721344D01*
X97989938Y-140949586D01*
X97989936Y-140949596D01*
X97969341Y-141184999D01*
X97969341Y-141185000D01*
X97989936Y-141420403D01*
X97989938Y-141420413D01*
X98051094Y-141648655D01*
X98051096Y-141648659D01*
X98051097Y-141648663D01*
X98070016Y-141689234D01*
X98150965Y-141862830D01*
X98150967Y-141862834D01*
X98171485Y-141892136D01*
X98286501Y-142056396D01*
X98286506Y-142056402D01*
X98408430Y-142178326D01*
X98441915Y-142239649D01*
X98436931Y-142309341D01*
X98395059Y-142365274D01*
X98364083Y-142382189D01*
X98232669Y-142431203D01*
X98232664Y-142431206D01*
X98117455Y-142517452D01*
X98117452Y-142517455D01*
X98031206Y-142632664D01*
X98031202Y-142632671D01*
X97980908Y-142767517D01*
X97974501Y-142827116D01*
X97974501Y-142827123D01*
X97974500Y-142827135D01*
X97974500Y-144622870D01*
X97974501Y-144622876D01*
X97980908Y-144682483D01*
X98031202Y-144817328D01*
X98031206Y-144817335D01*
X98117452Y-144932544D01*
X98117455Y-144932547D01*
X98232664Y-145018793D01*
X98232671Y-145018797D01*
X98367517Y-145069091D01*
X98367516Y-145069091D01*
X98374444Y-145069835D01*
X98427127Y-145075500D01*
X100222872Y-145075499D01*
X100282483Y-145069091D01*
X100417331Y-145018796D01*
X100532546Y-144932546D01*
X100618796Y-144817331D01*
X100669091Y-144682483D01*
X100675500Y-144622873D01*
X100675499Y-142827128D01*
X100669091Y-142767517D01*
X100636280Y-142679547D01*
X100618797Y-142632671D01*
X100618793Y-142632664D01*
X100532547Y-142517455D01*
X100532544Y-142517452D01*
X100417335Y-142431206D01*
X100417328Y-142431202D01*
X100285917Y-142382189D01*
X100229983Y-142340318D01*
X100205566Y-142274853D01*
X100220418Y-142206580D01*
X100241563Y-142178332D01*
X100363495Y-142056401D01*
X100499035Y-141862830D01*
X100598903Y-141648663D01*
X100660063Y-141420408D01*
X100680659Y-141185000D01*
X100660063Y-140949592D01*
X100598903Y-140721337D01*
X100571188Y-140661904D01*
X100560697Y-140592828D01*
X100589217Y-140529044D01*
X100647693Y-140490804D01*
X100683571Y-140485500D01*
X104049550Y-140485500D01*
X104115522Y-140504506D01*
X104252310Y-140590456D01*
X104411941Y-140646313D01*
X104411944Y-140646314D01*
X104510784Y-140657450D01*
X104564384Y-140663489D01*
X104628797Y-140690555D01*
X104668352Y-140748150D01*
X104674500Y-140786709D01*
X104674500Y-141380257D01*
X104654815Y-141447296D01*
X104638181Y-141467938D01*
X103524604Y-142581514D01*
X103463281Y-142614999D01*
X103450808Y-142617053D01*
X103391946Y-142623685D01*
X103232307Y-142679544D01*
X103232302Y-142679547D01*
X103089115Y-142769518D01*
X103089109Y-142769523D01*
X102969523Y-142889109D01*
X102969518Y-142889115D01*
X102879547Y-143032302D01*
X102879545Y-143032305D01*
X102823685Y-143191943D01*
X102804751Y-143359997D01*
X102804751Y-143360002D01*
X102823685Y-143528056D01*
X102879545Y-143687694D01*
X102879547Y-143687697D01*
X102969518Y-143830884D01*
X102969523Y-143830890D01*
X103089109Y-143950476D01*
X103089115Y-143950481D01*
X103232302Y-144040452D01*
X103232305Y-144040454D01*
X103232309Y-144040455D01*
X103232310Y-144040456D01*
X103304913Y-144065860D01*
X103391943Y-144096314D01*
X103559997Y-144115249D01*
X103560000Y-144115249D01*
X103560003Y-144115249D01*
X103728056Y-144096314D01*
X103728059Y-144096313D01*
X103887690Y-144040456D01*
X103887692Y-144040454D01*
X103887694Y-144040454D01*
X103887697Y-144040452D01*
X104030884Y-143950481D01*
X104030885Y-143950480D01*
X104030890Y-143950477D01*
X104150477Y-143830890D01*
X104226438Y-143710000D01*
X104240452Y-143687697D01*
X104240455Y-143687691D01*
X104240456Y-143687690D01*
X104296313Y-143528059D01*
X104302945Y-143469190D01*
X104330010Y-143404779D01*
X104338474Y-143395404D01*
X105710515Y-142023365D01*
X105786281Y-141892135D01*
X105825500Y-141745766D01*
X105825500Y-141648146D01*
X105845185Y-141581107D01*
X105897989Y-141535352D01*
X105963383Y-141524926D01*
X106005680Y-141529691D01*
X106054998Y-141535249D01*
X106055000Y-141535249D01*
X106055003Y-141535249D01*
X106223056Y-141516314D01*
X106223059Y-141516313D01*
X106382690Y-141460456D01*
X106519478Y-141374506D01*
X106585450Y-141355500D01*
X107265764Y-141355500D01*
X107265766Y-141355500D01*
X107412135Y-141316281D01*
X107543365Y-141240515D01*
X109860515Y-138923365D01*
X109936281Y-138792135D01*
X109975500Y-138645766D01*
X109975500Y-138494233D01*
X109975500Y-128539249D01*
X109995185Y-128472210D01*
X110047989Y-128426455D01*
X110093147Y-128416630D01*
X110093080Y-128416029D01*
X110098959Y-128415366D01*
X110099500Y-128415249D01*
X110100003Y-128415249D01*
X110268059Y-128396313D01*
X110268060Y-128396313D01*
X110334545Y-128373049D01*
X110404323Y-128369486D01*
X110464951Y-128404215D01*
X110497179Y-128466208D01*
X110499500Y-128490090D01*
X110499500Y-144781324D01*
X110479815Y-144848363D01*
X110463181Y-144869005D01*
X109829005Y-145503181D01*
X109767682Y-145536666D01*
X109741324Y-145539500D01*
X78248676Y-145539500D01*
X78181637Y-145519815D01*
X78160995Y-145503181D01*
X77526819Y-144869005D01*
X77493334Y-144807682D01*
X77490500Y-144781324D01*
X77490500Y-89298676D01*
X77510185Y-89231637D01*
X77526819Y-89210995D01*
X78170995Y-88566819D01*
X78232318Y-88533334D01*
X78258676Y-88530500D01*
X109741324Y-88530500D01*
X109808363Y-88550185D01*
G37*
G04 #@! TD.AperFunction*
G04 #@! TA.AperFunction,Conductor*
G36*
X103015597Y-92166085D02*
G01*
X103036239Y-92182719D01*
X103936514Y-93082993D01*
X103969999Y-93144316D01*
X103972053Y-93156790D01*
X103978685Y-93215655D01*
X104034545Y-93375294D01*
X104034547Y-93375297D01*
X104124518Y-93518484D01*
X104124523Y-93518490D01*
X104244109Y-93638076D01*
X104244115Y-93638081D01*
X104387302Y-93728052D01*
X104387305Y-93728054D01*
X104387309Y-93728055D01*
X104387310Y-93728056D01*
X104414140Y-93737444D01*
X104546943Y-93783914D01*
X104714997Y-93802849D01*
X104715000Y-93802849D01*
X104715003Y-93802849D01*
X104799029Y-93793381D01*
X104883059Y-93783913D01*
X104919545Y-93771145D01*
X104989322Y-93767583D01*
X105049950Y-93802311D01*
X105082178Y-93864303D01*
X105084500Y-93888187D01*
X105084500Y-107320258D01*
X105064815Y-107387297D01*
X105048181Y-107407939D01*
X104139487Y-108316632D01*
X104139485Y-108316635D01*
X104063719Y-108447863D01*
X104024500Y-108594234D01*
X104024500Y-108665357D01*
X104005494Y-108731329D01*
X103912456Y-108879396D01*
X103856596Y-109039032D01*
X103837662Y-109207086D01*
X103837662Y-109207091D01*
X103856596Y-109375145D01*
X103912456Y-109534783D01*
X103912458Y-109534786D01*
X104002429Y-109677973D01*
X104002434Y-109677979D01*
X104122020Y-109797565D01*
X104122026Y-109797570D01*
X104265213Y-109887541D01*
X104265216Y-109887543D01*
X104265220Y-109887544D01*
X104265221Y-109887545D01*
X104300816Y-109900000D01*
X104424854Y-109943403D01*
X104592908Y-109962338D01*
X104592911Y-109962338D01*
X104592914Y-109962338D01*
X104760967Y-109943403D01*
X104760970Y-109943402D01*
X104920601Y-109887545D01*
X105054911Y-109803152D01*
X105122148Y-109784151D01*
X105188983Y-109804518D01*
X105234198Y-109857786D01*
X105244104Y-109894261D01*
X105263685Y-110068056D01*
X105319545Y-110227693D01*
X105405493Y-110364476D01*
X105424500Y-110430449D01*
X105424500Y-112108853D01*
X105404815Y-112175892D01*
X105352011Y-112221647D01*
X105314384Y-112232073D01*
X105166944Y-112248685D01*
X105007305Y-112304545D01*
X105007302Y-112304547D01*
X104864115Y-112394518D01*
X104864109Y-112394523D01*
X104744523Y-112514109D01*
X104744518Y-112514115D01*
X104654547Y-112657302D01*
X104654545Y-112657305D01*
X104598685Y-112816943D01*
X104579751Y-112984997D01*
X104579751Y-112985002D01*
X104598685Y-113153056D01*
X104654545Y-113312693D01*
X104740493Y-113449476D01*
X104759500Y-113515449D01*
X104759500Y-117335258D01*
X104739815Y-117402297D01*
X104723181Y-117422939D01*
X104409487Y-117736632D01*
X104409485Y-117736635D01*
X104333719Y-117867863D01*
X104294500Y-118014234D01*
X104294500Y-122150258D01*
X104274815Y-122217297D01*
X104258181Y-122237939D01*
X104169487Y-122326632D01*
X104169485Y-122326635D01*
X104093719Y-122457863D01*
X104054500Y-122604234D01*
X104054500Y-125161258D01*
X104034815Y-125228297D01*
X103982011Y-125274052D01*
X103912853Y-125283996D01*
X103849297Y-125254971D01*
X103842819Y-125248939D01*
X103751819Y-125157939D01*
X103718334Y-125096616D01*
X103715500Y-125070258D01*
X103715500Y-116321258D01*
X103715500Y-116321256D01*
X103676281Y-116174887D01*
X103600515Y-116043657D01*
X103493365Y-115936507D01*
X103461819Y-115904961D01*
X103428334Y-115843638D01*
X103425500Y-115817280D01*
X103425500Y-99779741D01*
X103445185Y-99712702D01*
X103461815Y-99692064D01*
X103665396Y-99488482D01*
X103726717Y-99454999D01*
X103739173Y-99452947D01*
X103798059Y-99446313D01*
X103957690Y-99390456D01*
X103957693Y-99390453D01*
X103957697Y-99390452D01*
X104100884Y-99300481D01*
X104100885Y-99300480D01*
X104100890Y-99300477D01*
X104220477Y-99180890D01*
X104227320Y-99170000D01*
X104310452Y-99037697D01*
X104310454Y-99037694D01*
X104310454Y-99037692D01*
X104310456Y-99037690D01*
X104366313Y-98878059D01*
X104366313Y-98878058D01*
X104366314Y-98878056D01*
X104385249Y-98710002D01*
X104385249Y-98709997D01*
X104366314Y-98541943D01*
X104317905Y-98403599D01*
X104310456Y-98382310D01*
X104310455Y-98382309D01*
X104310454Y-98382305D01*
X104310452Y-98382302D01*
X104220481Y-98239115D01*
X104220476Y-98239109D01*
X104100890Y-98119523D01*
X104100884Y-98119518D01*
X103957697Y-98029547D01*
X103957694Y-98029545D01*
X103798056Y-97973685D01*
X103630003Y-97954751D01*
X103629997Y-97954751D01*
X103461943Y-97973685D01*
X103302305Y-98029545D01*
X103302304Y-98029546D01*
X103270973Y-98049233D01*
X103203736Y-98068233D01*
X103136901Y-98047865D01*
X103091688Y-97994596D01*
X103082451Y-97925340D01*
X103112123Y-97862084D01*
X103117305Y-97856574D01*
X104300515Y-96673365D01*
X104376281Y-96542135D01*
X104415500Y-96395766D01*
X104415500Y-96244233D01*
X104415500Y-95294534D01*
X104434507Y-95228561D01*
X104510452Y-95107697D01*
X104510456Y-95107690D01*
X104566313Y-94948059D01*
X104566313Y-94948058D01*
X104566314Y-94948056D01*
X104585249Y-94780002D01*
X104585249Y-94779997D01*
X104566314Y-94611943D01*
X104510454Y-94452305D01*
X104510452Y-94452302D01*
X104420481Y-94309115D01*
X104420476Y-94309109D01*
X104300890Y-94189523D01*
X104300884Y-94189518D01*
X104157697Y-94099547D01*
X104157694Y-94099545D01*
X103998056Y-94043685D01*
X103830003Y-94024751D01*
X103829997Y-94024751D01*
X103661943Y-94043685D01*
X103502305Y-94099545D01*
X103502302Y-94099547D01*
X103359115Y-94189518D01*
X103359109Y-94189523D01*
X103239523Y-94309109D01*
X103239518Y-94309115D01*
X103149547Y-94452302D01*
X103149545Y-94452305D01*
X103093685Y-94611943D01*
X103074751Y-94779997D01*
X103074751Y-94780002D01*
X103093685Y-94948056D01*
X103149545Y-95107694D01*
X103149547Y-95107697D01*
X103243227Y-95256786D01*
X103241387Y-95257942D01*
X103263854Y-95312963D01*
X103264500Y-95325599D01*
X103264500Y-96030258D01*
X103244815Y-96097297D01*
X103228181Y-96117939D01*
X102707181Y-96638939D01*
X102645858Y-96672424D01*
X102576166Y-96667440D01*
X102520233Y-96625568D01*
X102495816Y-96560104D01*
X102495500Y-96551258D01*
X102495500Y-93524234D01*
X102495499Y-93524229D01*
X102494984Y-93522308D01*
X102494985Y-93522307D01*
X102494976Y-93522282D01*
X102493960Y-93518490D01*
X102456281Y-93377865D01*
X102380515Y-93246635D01*
X101491961Y-92358081D01*
X101458476Y-92296758D01*
X101463460Y-92227066D01*
X101505332Y-92171133D01*
X101570796Y-92146716D01*
X101579642Y-92146400D01*
X102948558Y-92146400D01*
X103015597Y-92166085D01*
G37*
G04 #@! TD.AperFunction*
G04 #@! TA.AperFunction,Conductor*
G36*
X96482634Y-107361960D02*
G01*
X96538567Y-107403832D01*
X96562984Y-107469296D01*
X96563300Y-107478142D01*
X96563300Y-115767757D01*
X96543615Y-115834796D01*
X96526981Y-115855438D01*
X94123054Y-118259364D01*
X94061731Y-118292849D01*
X94035407Y-118295683D01*
X94028315Y-118295684D01*
X94027934Y-118295700D01*
X94022297Y-118295700D01*
X94022289Y-118295701D01*
X94013190Y-118298139D01*
X94000515Y-118300834D01*
X93904691Y-118316025D01*
X93904677Y-118316028D01*
X93781116Y-118356194D01*
X93781106Y-118356198D01*
X93665349Y-118415196D01*
X93587172Y-118472008D01*
X93576287Y-118479078D01*
X93567918Y-118483910D01*
X93567914Y-118483913D01*
X93563391Y-118488436D01*
X93563268Y-118488551D01*
X93518895Y-118532933D01*
X89145741Y-122906087D01*
X89084418Y-122939572D01*
X89014726Y-122934588D01*
X88958793Y-122892716D01*
X88945680Y-122870814D01*
X88877802Y-122725249D01*
X88874037Y-122717175D01*
X88874034Y-122717169D01*
X88738496Y-122523600D01*
X88682483Y-122467587D01*
X88616567Y-122401671D01*
X88583084Y-122340351D01*
X88588068Y-122270659D01*
X88629939Y-122214725D01*
X88660915Y-122197810D01*
X88792331Y-122148796D01*
X88907546Y-122062546D01*
X88993796Y-121947331D01*
X89044091Y-121812483D01*
X89050500Y-121752873D01*
X89050499Y-119957128D01*
X89044091Y-119897517D01*
X88993796Y-119762669D01*
X88993795Y-119762668D01*
X88993793Y-119762664D01*
X88907547Y-119647455D01*
X88907544Y-119647452D01*
X88792335Y-119561206D01*
X88792330Y-119561203D01*
X88682390Y-119520198D01*
X88626457Y-119478326D01*
X88602040Y-119412862D01*
X88616892Y-119344589D01*
X88638040Y-119316338D01*
X89173766Y-118780612D01*
X89235087Y-118747129D01*
X89304779Y-118752113D01*
X89360712Y-118793985D01*
X89366438Y-118802322D01*
X89409521Y-118870888D01*
X89529109Y-118990476D01*
X89529115Y-118990481D01*
X89672302Y-119080452D01*
X89672305Y-119080454D01*
X89672309Y-119080455D01*
X89672310Y-119080456D01*
X89744913Y-119105860D01*
X89831943Y-119136314D01*
X89999997Y-119155249D01*
X90000000Y-119155249D01*
X90000003Y-119155249D01*
X90168056Y-119136314D01*
X90168059Y-119136313D01*
X90327690Y-119080456D01*
X90327692Y-119080454D01*
X90327694Y-119080454D01*
X90327697Y-119080452D01*
X90470884Y-118990481D01*
X90470885Y-118990480D01*
X90470890Y-118990477D01*
X90590477Y-118870890D01*
X90590481Y-118870884D01*
X90680452Y-118727697D01*
X90680455Y-118727691D01*
X90680456Y-118727690D01*
X90736313Y-118568059D01*
X90742945Y-118509191D01*
X90770010Y-118444780D01*
X90778472Y-118435407D01*
X90860514Y-118353366D01*
X90871165Y-118334919D01*
X90936281Y-118222135D01*
X90974232Y-118080500D01*
X90975500Y-118075767D01*
X90975500Y-117924234D01*
X90975500Y-117792241D01*
X90995185Y-117725202D01*
X91011814Y-117704565D01*
X93279070Y-115437308D01*
X93288758Y-115429592D01*
X93288273Y-115429000D01*
X93294071Y-115424251D01*
X93294071Y-115424250D01*
X93294077Y-115424247D01*
X93337268Y-115379147D01*
X93339003Y-115377375D01*
X93385564Y-115330815D01*
X93446883Y-115297333D01*
X93516575Y-115302317D01*
X93560922Y-115330818D01*
X93678599Y-115448495D01*
X93775384Y-115516265D01*
X93872165Y-115584032D01*
X93872167Y-115584033D01*
X93872170Y-115584035D01*
X94086337Y-115683903D01*
X94314592Y-115745063D01*
X94502918Y-115761539D01*
X94549999Y-115765659D01*
X94550000Y-115765659D01*
X94550001Y-115765659D01*
X94589234Y-115762226D01*
X94785408Y-115745063D01*
X95013663Y-115683903D01*
X95227830Y-115584035D01*
X95421401Y-115448495D01*
X95588495Y-115281401D01*
X95724035Y-115087830D01*
X95823903Y-114873663D01*
X95885063Y-114645408D01*
X95905659Y-114410000D01*
X95885063Y-114174592D01*
X95824885Y-113950002D01*
X95823905Y-113946344D01*
X95823904Y-113946343D01*
X95823903Y-113946337D01*
X95724035Y-113732171D01*
X95679144Y-113668059D01*
X95588494Y-113538597D01*
X95421402Y-113371506D01*
X95421396Y-113371501D01*
X95235842Y-113241575D01*
X95192217Y-113186998D01*
X95185023Y-113117500D01*
X95216546Y-113055145D01*
X95235842Y-113038425D01*
X95312138Y-112985002D01*
X95421401Y-112908495D01*
X95588495Y-112741401D01*
X95724035Y-112547830D01*
X95823903Y-112333663D01*
X95885063Y-112105408D01*
X95905659Y-111870000D01*
X95885063Y-111634592D01*
X95823903Y-111406337D01*
X95724035Y-111192171D01*
X95710846Y-111173334D01*
X95588494Y-110998597D01*
X95421402Y-110831506D01*
X95421396Y-110831501D01*
X95235842Y-110701575D01*
X95192217Y-110646998D01*
X95185023Y-110577500D01*
X95216546Y-110515145D01*
X95235842Y-110498425D01*
X95271448Y-110473493D01*
X95421401Y-110368495D01*
X95588495Y-110201401D01*
X95724035Y-110007830D01*
X95823903Y-109793663D01*
X95885063Y-109565408D01*
X95905659Y-109330000D01*
X95885063Y-109094592D01*
X95823903Y-108866337D01*
X95724035Y-108652171D01*
X95710846Y-108633334D01*
X95588494Y-108458597D01*
X95523669Y-108393772D01*
X95490184Y-108332449D01*
X95495168Y-108262757D01*
X95523667Y-108218412D01*
X96351619Y-107390461D01*
X96412942Y-107356976D01*
X96482634Y-107361960D01*
G37*
G04 #@! TD.AperFunction*
G04 #@! TA.AperFunction,Conductor*
G36*
X99443834Y-100909760D02*
G01*
X99499767Y-100951632D01*
X99524184Y-101017096D01*
X99524500Y-101025942D01*
X99524500Y-105142532D01*
X99504815Y-105209571D01*
X99452011Y-105255326D01*
X99428115Y-105263418D01*
X99426952Y-105263683D01*
X99267307Y-105319544D01*
X99267302Y-105319547D01*
X99124115Y-105409518D01*
X99124109Y-105409523D01*
X99004523Y-105529109D01*
X99004518Y-105529115D01*
X98914547Y-105672302D01*
X98914545Y-105672305D01*
X98858685Y-105831943D01*
X98839751Y-105999997D01*
X98839751Y-106000002D01*
X98858685Y-106168056D01*
X98914545Y-106327693D01*
X98972660Y-106420180D01*
X98979674Y-106431344D01*
X99005493Y-106472433D01*
X99024500Y-106538406D01*
X99024500Y-118740258D01*
X99004815Y-118807297D01*
X98988181Y-118827939D01*
X96286249Y-121529871D01*
X96224926Y-121563356D01*
X96198568Y-121566190D01*
X96024500Y-121566190D01*
X95957461Y-121546505D01*
X95911706Y-121493701D01*
X95900500Y-121442190D01*
X95900499Y-119952129D01*
X95900498Y-119952123D01*
X95894091Y-119892516D01*
X95843797Y-119757671D01*
X95843793Y-119757664D01*
X95757547Y-119642455D01*
X95757544Y-119642452D01*
X95642335Y-119556206D01*
X95642328Y-119556202D01*
X95507482Y-119505908D01*
X95507483Y-119505908D01*
X95447883Y-119499501D01*
X95447881Y-119499500D01*
X95447873Y-119499500D01*
X95447865Y-119499500D01*
X95328941Y-119499500D01*
X95261902Y-119479815D01*
X95216147Y-119427011D01*
X95206203Y-119357853D01*
X95235228Y-119294297D01*
X95241260Y-119287819D01*
X96469700Y-118059379D01*
X97929315Y-116599765D01*
X98005081Y-116468535D01*
X98044300Y-116322166D01*
X98044300Y-116170633D01*
X98044300Y-102258142D01*
X98063985Y-102191103D01*
X98080619Y-102170461D01*
X99312819Y-100938261D01*
X99374142Y-100904776D01*
X99443834Y-100909760D01*
G37*
G04 #@! TD.AperFunction*
G04 #@! TA.AperFunction,Conductor*
G36*
X83557297Y-107505185D02*
G01*
X83577939Y-107521819D01*
X84448181Y-108392061D01*
X84481666Y-108453384D01*
X84484500Y-108479742D01*
X84484500Y-119374568D01*
X84464815Y-119441607D01*
X84412011Y-119487362D01*
X84342853Y-119497306D01*
X84279297Y-119468281D01*
X84272819Y-119462249D01*
X80991819Y-116181249D01*
X80958334Y-116119926D01*
X80955500Y-116093568D01*
X80955500Y-115673992D01*
X80975185Y-115606953D01*
X81027989Y-115561198D01*
X81097147Y-115551254D01*
X81150620Y-115572415D01*
X81317170Y-115689035D01*
X81531337Y-115788903D01*
X81759592Y-115850063D01*
X81936034Y-115865500D01*
X81994999Y-115870659D01*
X81995000Y-115870659D01*
X81995001Y-115870659D01*
X82053966Y-115865500D01*
X82230408Y-115850063D01*
X82458663Y-115788903D01*
X82672830Y-115689035D01*
X82866401Y-115553495D01*
X83033495Y-115386401D01*
X83169035Y-115192830D01*
X83268903Y-114978663D01*
X83330063Y-114750408D01*
X83350659Y-114515000D01*
X83330063Y-114279592D01*
X83283626Y-114106285D01*
X83268905Y-114051344D01*
X83268904Y-114051343D01*
X83268903Y-114051337D01*
X83169035Y-113837171D01*
X83162402Y-113827697D01*
X83033494Y-113643597D01*
X82866402Y-113476506D01*
X82866396Y-113476501D01*
X82680842Y-113346575D01*
X82637217Y-113291998D01*
X82630023Y-113222500D01*
X82661546Y-113160145D01*
X82680842Y-113143425D01*
X82781546Y-113072911D01*
X82866401Y-113013495D01*
X83033495Y-112846401D01*
X83169035Y-112652830D01*
X83268903Y-112438663D01*
X83330063Y-112210408D01*
X83350659Y-111975000D01*
X83330063Y-111739592D01*
X83268903Y-111511337D01*
X83169035Y-111297171D01*
X83168266Y-111296072D01*
X83033494Y-111103597D01*
X82866402Y-110936506D01*
X82866396Y-110936501D01*
X82680842Y-110806575D01*
X82637217Y-110751998D01*
X82630023Y-110682500D01*
X82661546Y-110620145D01*
X82680842Y-110603425D01*
X82752853Y-110553002D01*
X82866401Y-110473495D01*
X83033495Y-110306401D01*
X83169035Y-110112830D01*
X83268903Y-109898663D01*
X83330063Y-109670408D01*
X83350659Y-109435000D01*
X83330063Y-109199592D01*
X83268903Y-108971337D01*
X83169035Y-108757171D01*
X83168266Y-108756072D01*
X83033494Y-108563597D01*
X82866402Y-108396506D01*
X82866396Y-108396501D01*
X82680842Y-108266575D01*
X82637217Y-108211998D01*
X82630023Y-108142500D01*
X82661546Y-108080145D01*
X82680842Y-108063425D01*
X82703026Y-108047891D01*
X82866401Y-107933495D01*
X83033495Y-107766401D01*
X83169035Y-107572830D01*
X83169036Y-107572828D01*
X83176374Y-107557093D01*
X83222547Y-107504655D01*
X83288755Y-107485500D01*
X83490258Y-107485500D01*
X83557297Y-107505185D01*
G37*
G04 #@! TD.AperFunction*
G04 #@! TA.AperFunction,Conductor*
G36*
X83507297Y-104955185D02*
G01*
X83527939Y-104971819D01*
X84939981Y-106383861D01*
X84973466Y-106445184D01*
X84976300Y-106471542D01*
X84976300Y-106993057D01*
X84956615Y-107060096D01*
X84903811Y-107105851D01*
X84834653Y-107115795D01*
X84771097Y-107086770D01*
X84764619Y-107080738D01*
X84206592Y-106522711D01*
X84197962Y-106517728D01*
X84187069Y-106510652D01*
X84109164Y-106454034D01*
X83993412Y-106395033D01*
X83993411Y-106395032D01*
X83993406Y-106395030D01*
X83993401Y-106395028D01*
X83993398Y-106395027D01*
X83869846Y-106354859D01*
X83774214Y-106339694D01*
X83761549Y-106337001D01*
X83752213Y-106334500D01*
X83676556Y-106334500D01*
X83676516Y-106334499D01*
X83606677Y-106334487D01*
X83606675Y-106334487D01*
X83599345Y-106334486D01*
X83599113Y-106334500D01*
X83302743Y-106334500D01*
X83235704Y-106314815D01*
X83190361Y-106262904D01*
X83169037Y-106217175D01*
X83169034Y-106217169D01*
X83033494Y-106023597D01*
X82866402Y-105856506D01*
X82866396Y-105856501D01*
X82680842Y-105726575D01*
X82637217Y-105671998D01*
X82630023Y-105602500D01*
X82661546Y-105540145D01*
X82680842Y-105523425D01*
X82752853Y-105473002D01*
X82866401Y-105393495D01*
X83033495Y-105226401D01*
X83169035Y-105032830D01*
X83181036Y-105007094D01*
X83227209Y-104954655D01*
X83293418Y-104935500D01*
X83440258Y-104935500D01*
X83507297Y-104955185D01*
G37*
G04 #@! TD.AperFunction*
G04 #@! TA.AperFunction,Conductor*
G36*
X83477297Y-102375185D02*
G01*
X83497939Y-102391819D01*
X85288181Y-104182061D01*
X85321666Y-104243384D01*
X85324500Y-104269742D01*
X85324500Y-104841257D01*
X85304815Y-104908296D01*
X85252011Y-104954051D01*
X85182853Y-104963995D01*
X85119297Y-104934970D01*
X85112819Y-104928938D01*
X84156592Y-103972711D01*
X84147962Y-103967728D01*
X84137069Y-103960652D01*
X84059164Y-103904034D01*
X83943412Y-103845033D01*
X83943411Y-103845032D01*
X83943406Y-103845030D01*
X83943401Y-103845028D01*
X83943398Y-103845027D01*
X83819846Y-103804859D01*
X83724214Y-103789694D01*
X83711549Y-103787001D01*
X83702213Y-103784500D01*
X83626556Y-103784500D01*
X83626516Y-103784499D01*
X83556677Y-103784487D01*
X83556675Y-103784487D01*
X83549345Y-103784486D01*
X83549113Y-103784500D01*
X83298080Y-103784500D01*
X83231041Y-103764815D01*
X83185698Y-103712904D01*
X83169037Y-103677175D01*
X83169034Y-103677169D01*
X83033494Y-103483597D01*
X82866402Y-103316506D01*
X82866396Y-103316501D01*
X82680842Y-103186575D01*
X82637217Y-103131998D01*
X82630023Y-103062500D01*
X82661546Y-103000145D01*
X82680842Y-102983425D01*
X82752853Y-102933002D01*
X82866401Y-102853495D01*
X83033495Y-102686401D01*
X83169035Y-102492830D01*
X83199688Y-102427095D01*
X83245861Y-102374656D01*
X83312070Y-102355500D01*
X83410258Y-102355500D01*
X83477297Y-102375185D01*
G37*
G04 #@! TD.AperFunction*
G04 #@! TD*
M02*
