%TF.GenerationSoftware,KiCad,Pcbnew,9.0.4*%
%TF.CreationDate,2025-12-15T16:32:28-04:00*%
%TF.ProjectId,RAMEXPB_V3,52414d45-5850-4425-9f56-332e6b696361,rev?*%
%TF.SameCoordinates,Original*%
%TF.FileFunction,Soldermask,Bot*%
%TF.FilePolarity,Negative*%
%FSLAX46Y46*%
G04 Gerber Fmt 4.6, Leading zero omitted, Abs format (unit mm)*
G04 Created by KiCad (PCBNEW 9.0.4) date 2025-12-15 16:32:28*
%MOMM*%
%LPD*%
G01*
G04 APERTURE LIST*
G04 Aperture macros list*
%AMRoundRect*
0 Rectangle with rounded corners*
0 $1 Rounding radius*
0 $2 $3 $4 $5 $6 $7 $8 $9 X,Y pos of 4 corners*
0 Add a 4 corners polygon primitive as box body*
4,1,4,$2,$3,$4,$5,$6,$7,$8,$9,$2,$3,0*
0 Add four circle primitives for the rounded corners*
1,1,$1+$1,$2,$3*
1,1,$1+$1,$4,$5*
1,1,$1+$1,$6,$7*
1,1,$1+$1,$8,$9*
0 Add four rect primitives between the rounded corners*
20,1,$1+$1,$2,$3,$4,$5,0*
20,1,$1+$1,$4,$5,$6,$7,0*
20,1,$1+$1,$6,$7,$8,$9,0*
20,1,$1+$1,$8,$9,$2,$3,0*%
G04 Aperture macros list end*
%ADD10RoundRect,0.250000X0.550000X0.550000X-0.550000X0.550000X-0.550000X-0.550000X0.550000X-0.550000X0*%
%ADD11C,1.600000*%
%ADD12C,3.200000*%
%ADD13RoundRect,0.250000X-0.337500X-0.475000X0.337500X-0.475000X0.337500X0.475000X-0.337500X0.475000X0*%
%ADD14O,2.300000X1.700000*%
%ADD15RoundRect,0.250000X0.475000X-0.337500X0.475000X0.337500X-0.475000X0.337500X-0.475000X-0.337500X0*%
%ADD16RoundRect,0.250000X-0.475000X0.337500X-0.475000X-0.337500X0.475000X-0.337500X0.475000X0.337500X0*%
%ADD17RoundRect,0.250000X0.337500X0.475000X-0.337500X0.475000X-0.337500X-0.475000X0.337500X-0.475000X0*%
%ADD18RoundRect,0.250000X0.625000X-0.350000X0.625000X0.350000X-0.625000X0.350000X-0.625000X-0.350000X0*%
%ADD19O,1.750000X1.200000*%
G04 APERTURE END LIST*
D10*
%TO.C,U13*%
X194000000Y-70631400D03*
D11*
X194000000Y-68091400D03*
X194000000Y-65551400D03*
X194000000Y-63011400D03*
X194000000Y-60471400D03*
X194000000Y-57931400D03*
X194000000Y-55391400D03*
X194000000Y-52851400D03*
X194000000Y-50311400D03*
X194000000Y-47771400D03*
X186380000Y-47771400D03*
X186380000Y-50311400D03*
X186380000Y-52851400D03*
X186380000Y-55391400D03*
X186380000Y-57931400D03*
X186380000Y-60471400D03*
X186380000Y-63011400D03*
X186380000Y-65551400D03*
X186380000Y-68091400D03*
X186380000Y-70631400D03*
%TD*%
D12*
%TO.C,H1*%
X197040000Y-131600000D03*
%TD*%
D10*
%TO.C,U12*%
X178810000Y-70631400D03*
D11*
X178810000Y-68091400D03*
X178810000Y-65551400D03*
X178810000Y-63011400D03*
X178810000Y-60471400D03*
X178810000Y-57931400D03*
X178810000Y-55391400D03*
X178810000Y-52851400D03*
X178810000Y-50311400D03*
X178810000Y-47771400D03*
X171190000Y-47771400D03*
X171190000Y-50311400D03*
X171190000Y-52851400D03*
X171190000Y-55391400D03*
X171190000Y-57931400D03*
X171190000Y-60471400D03*
X171190000Y-63011400D03*
X171190000Y-65551400D03*
X171190000Y-68091400D03*
X171190000Y-70631400D03*
%TD*%
D10*
%TO.C,J1*%
X76700000Y-102330000D03*
D11*
X76700000Y-99790000D03*
X76700000Y-97250000D03*
X76700000Y-94710000D03*
X76700000Y-92170000D03*
X76700000Y-89630000D03*
X76700000Y-87090000D03*
X76700000Y-84550000D03*
X69080000Y-84550000D03*
X69080000Y-87090000D03*
X69080000Y-89630000D03*
X69080000Y-92170000D03*
X69080000Y-94710000D03*
X69080000Y-97250000D03*
X69080000Y-99790000D03*
X69080000Y-102330000D03*
%TD*%
D13*
%TO.C,C6*%
X162117500Y-84935000D03*
X164192500Y-84935000D03*
%TD*%
D14*
%TO.C,J9*%
X84810000Y-79370000D03*
X84810000Y-81910000D03*
X84810000Y-84450000D03*
X84810000Y-86990000D03*
X84810000Y-89530000D03*
X84810000Y-92070000D03*
X84810000Y-94610000D03*
X84810000Y-97150000D03*
X84810000Y-99690000D03*
X84810000Y-102230000D03*
%TD*%
D15*
%TO.C,C4*%
X147715000Y-132052500D03*
X147715000Y-129977500D03*
%TD*%
D13*
%TO.C,C15*%
X97717500Y-119855000D03*
X99792500Y-119855000D03*
%TD*%
%TO.C,C8*%
X162117500Y-110335000D03*
X164192500Y-110335000D03*
%TD*%
D14*
%TO.C,J10*%
X84810000Y-108670000D03*
X84810000Y-111210000D03*
X84810000Y-113750000D03*
X84810000Y-116290000D03*
X84810000Y-118830000D03*
X84810000Y-121370000D03*
X84810000Y-123910000D03*
X84810000Y-126450000D03*
X84810000Y-128990000D03*
X84810000Y-131530000D03*
%TD*%
D15*
%TO.C,C5*%
X183995000Y-131832500D03*
X183995000Y-129757500D03*
%TD*%
D16*
%TO.C,C14*%
X98365000Y-78657500D03*
X98365000Y-80732500D03*
%TD*%
D13*
%TO.C,C2*%
X96567500Y-104945000D03*
X98642500Y-104945000D03*
%TD*%
D16*
%TO.C,C10*%
X198795000Y-103697500D03*
X198795000Y-105772500D03*
%TD*%
D13*
%TO.C,C13*%
X140182500Y-84950000D03*
X142257500Y-84950000D03*
%TD*%
D15*
%TO.C,C3*%
X160745000Y-132052500D03*
X160745000Y-129977500D03*
%TD*%
D14*
%TO.C,J5*%
X190260000Y-70631400D03*
X190260000Y-68091400D03*
X190260000Y-65551400D03*
X190260000Y-63011400D03*
X190260000Y-60471400D03*
X190260000Y-57931400D03*
X190260000Y-55391400D03*
X190260000Y-52851400D03*
X190260000Y-50311400D03*
X190260000Y-47771400D03*
X182640000Y-47771400D03*
X182640000Y-50311400D03*
X182640000Y-52851400D03*
X182640000Y-55391400D03*
X182640000Y-57931400D03*
X182640000Y-60471400D03*
X182640000Y-63011400D03*
X182640000Y-65551400D03*
X182640000Y-68091400D03*
X182640000Y-70631400D03*
%TD*%
D16*
%TO.C,C9*%
X198745000Y-81417500D03*
X198745000Y-83492500D03*
%TD*%
D17*
%TO.C,C16*%
X93792500Y-133605000D03*
X91717500Y-133605000D03*
%TD*%
D18*
%TO.C,J11*%
X71615000Y-133840000D03*
D19*
X71615000Y-131840000D03*
X71615000Y-129840000D03*
X71615000Y-127840000D03*
X71615000Y-125840000D03*
X71615000Y-123840000D03*
%TD*%
D13*
%TO.C,C11*%
X140182500Y-91330000D03*
X142257500Y-91330000D03*
%TD*%
%TO.C,C12*%
X140182500Y-110280000D03*
X142257500Y-110280000D03*
%TD*%
D14*
%TO.C,J4*%
X175110000Y-70631400D03*
X175110000Y-68091400D03*
X175110000Y-65551400D03*
X175110000Y-63011400D03*
X175110000Y-60471400D03*
X175110000Y-57931400D03*
X175110000Y-55391400D03*
X175110000Y-52851400D03*
X175110000Y-50311400D03*
X175110000Y-47771400D03*
X167490000Y-47771400D03*
X167490000Y-50311400D03*
X167490000Y-52851400D03*
X167490000Y-55391400D03*
X167490000Y-57931400D03*
X167490000Y-60471400D03*
X167490000Y-63011400D03*
X167490000Y-65551400D03*
X167490000Y-68091400D03*
X167490000Y-70631400D03*
%TD*%
D18*
%TO.C,J12*%
X71695000Y-117795000D03*
D19*
X71695000Y-115795000D03*
X71695000Y-113795000D03*
X71695000Y-111795000D03*
X71695000Y-109795000D03*
X71695000Y-107795000D03*
%TD*%
D14*
%TO.C,J8*%
X79875000Y-102335000D03*
X79875000Y-99795000D03*
X79875000Y-97255000D03*
X79875000Y-94715000D03*
X79875000Y-92175000D03*
X79875000Y-89635000D03*
X79875000Y-87095000D03*
X79875000Y-84555000D03*
X72255000Y-84555000D03*
X72255000Y-87095000D03*
X72255000Y-89635000D03*
X72255000Y-92175000D03*
X72255000Y-94715000D03*
X72255000Y-97255000D03*
X72255000Y-99795000D03*
X72255000Y-102335000D03*
%TD*%
D13*
%TO.C,C7*%
X162117500Y-91330000D03*
X164192500Y-91330000D03*
%TD*%
M02*
