M48
; DRILL file {KiCad 9.0.4} date 2025-12-15T16:32:20-0400
; FORMAT={-:-/ absolute / metric / decimal}
; #@! TF.CreationDate,2025-12-15T16:32:20-04:00
; #@! TF.GenerationSoftware,Kicad,Pcbnew,9.0.4
; #@! TF.FileFunction,Plated,1,2,PTH
FMAT,2
METRIC
; #@! TA.AperFunction,Plated,PTH,ViaDrill
T1C0.300
; #@! TA.AperFunction,Plated,PTH,ViaDrill
T2C0.500
; #@! TA.AperFunction,Plated,PTH,ComponentDrill
T3C0.750
; #@! TA.AperFunction,Plated,PTH,ComponentDrill
T4C0.800
; #@! TA.AperFunction,Plated,PTH,ComponentDrill
T5C1.000
%
G90
G05
T1
X68.15Y-108.8
X77.18Y-126.87
X78.51Y-80.01
X80.4Y-108.4
X80.4Y-111.1
X80.87Y-127.92
X80.87Y-131.37
X81.53Y-79.38
X81.92Y-87.01
X81.92Y-89.77
X82.89Y-79.36
X86.51Y-97.6
X87.345Y-134.065
X87.54Y-118.31
X87.64Y-101.13
X88.28Y-134.08
X88.39Y-83.02
X90.31Y-96.11
X90.59Y-116.75
X90.88Y-126.45
X91.33Y-98.55
X91.34Y-106.61
X91.45Y-130.66
X91.62Y-121.99
X91.64Y-81.695
X91.71Y-111.82
X92.14Y-102.98
X92.22Y-131.26
X92.32Y-127.98
X92.43Y-120.03
X92.45Y-114.83
X92.54Y-121.18
X92.67Y-129.32
X92.77Y-132.58
X93.33Y-81.01
X93.37Y-126.88
X93.45Y-108.4
X94.02Y-92.48
X94.03Y-123.78
X94.34Y-125.49
X94.575Y-115.09
X94.6Y-86.96
X94.8Y-127.69
X94.94Y-133.12
X94.98Y-101.08
X95.14Y-79.07
X95.41Y-106.35
X97.21Y-106.995
X97.48Y-102.99
X97.48Y-112.32
X97.63Y-87.95
X97.693Y-118.063
X97.715Y-132.155
X97.75Y-110.44
X97.77Y-133.12
X97.82Y-82.87
X98.324Y-130.566
X98.47Y-101.73
X98.73Y-106.97
X98.97Y-131.84
X98.985Y-127.685
X99.25Y-95.75
X99.41Y-109.82
X99.54Y-118.05
X99.8Y-80.1
X99.87Y-101.15
X99.91Y-132.44
X99.97Y-109.17
X99.98Y-84.12
X100.01Y-94.11
X100.01Y-124.23
X100.018Y-79.06
X100.03Y-116.08
X102.42Y-121.39
X103.01Y-109.17
X103.01Y-114.21
X103.03Y-126.81
X103.05Y-94.11
X103.05Y-124.23
X103.058Y-79.06
X103.12Y-117.38
X103.193Y-96.657
X103.21Y-122.75
X103.68Y-95.42
X104.17Y-84.55
X104.32Y-125.51
X104.77Y-127.58
X105.28Y-99.19
X105.86Y-86.52
X105.9Y-100.77
X106.215Y-121.085
X106.22Y-112.25
X106.32Y-131.49
X106.41Y-127.23
X106.56Y-81.05
X106.56Y-106.35
X107.14Y-102.4
X107.27Y-108.72
X107.28Y-88.68
X107.76Y-113.11
X107.9Y-100.6
X108.52Y-119.15
X108.56Y-91.3
X108.58Y-109.12
X108.68Y-116.8
X109.14Y-100.63
X109.15Y-83.56
X110.01Y-112.28
X110.41Y-95.52
X110.41Y-103.83
X110.73Y-128.59
X112.28Y-119.44
X112.28Y-121.25
X113.91Y-112.69
X114.37Y-130.38
X114.38Y-111.41
X114.4Y-133.91
X114.53Y-125.94
X114.55Y-128.68
X114.56Y-127.25
X115.06Y-110.2
X115.07Y-104.26
X115.09Y-124.62
X115.14Y-106.97
X115.4Y-133.95
X115.81Y-108.91
X117.08Y-110.22
X117.15Y-108.89
X119.08Y-113.36
X119.48Y-111.42
X121.98Y-131.07
X122.19Y-112.28
X122.45Y-121.805
X122.79Y-127.19
X122.8Y-130.07
X123.27Y-79.21
X123.33Y-119.18
X123.87Y-132.04
X125.43Y-106.86
X125.49Y-121.78
X127.24Y-124.16
X128.155Y-101.395
X128.16Y-120.48
X130.28Y-134.09
X130.61Y-105.61
X132.07Y-112.22
X132.34Y-104.07
X132.71Y-79.21
X133.735Y-99.175
X134.335Y-127.885
X134.481Y-91.29
X134.481Y-110.35
X134.53Y-84.94
X134.74Y-109.07
X138.816Y-91.29
X138.816Y-110.35
X138.866Y-84.94
X139.14Y-79.22
X139.51Y-126.55
X139.8Y-88.11
X140.82Y-98.28
X142.34Y-86.18
X142.74Y-102.72
X143.63Y-84.95
X143.69Y-91.29
X143.7Y-110.34
X144.01Y-118.4
X144.63Y-79.22
X146.06Y-133.6
X146.13Y-132.31
X147.62Y-84.95
X147.68Y-91.29
X147.69Y-110.34
X149.03Y-133.59
X149.5Y-118.4
X150.12Y-79.22
X150.25Y-131.01
X151.075Y-125.965
X154.115Y-125.965
X154.305Y-132.315
X154.99Y-118.4
X155.61Y-79.22
X156.171Y-84.95
X156.231Y-91.3
X156.281Y-110.34
X159.16Y-133.63
X160.48Y-118.4
X160.506Y-84.95
X160.566Y-91.3
X160.616Y-110.34
X162.13Y-133.62
X164.1Y-124.72
X165.37Y-91.28
X165.43Y-84.93
X165.43Y-110.34
X165.59Y-45.76
X165.6Y-54.34
X167.14Y-124.72
X167.25Y-132.345
X169.11Y-84.93
X169.265Y-79.085
X169.36Y-91.28
X169.42Y-110.34
X169.65Y-99.54
X170.27Y-127.84
X170.39Y-97.01
X171.34Y-130.58
X171.46Y-83.775
X172.02Y-99.32
X172.11Y-91.93
X172.65Y-100.22
X172.68Y-93.21
X172.7Y-125.74
X173.015Y-45.76
X173.46Y-122.46
X173.51Y-94.48
X173.55Y-86.35
X174.26Y-85.045
X174.86Y-81.86
X175.155Y-105.04
X175.38Y-89.48
X175.8Y-88.79
X176.41Y-85.69
X177.25Y-122.38
X177.27Y-82.483
X177.31Y-97.32
X177.49Y-79.84
X177.94Y-100.31
X178.81Y-89.43
X179.23Y-86.95
X179.82Y-118.22
X179.84Y-90.632
X180.06Y-91.96
X180.72Y-84.42
X181.27Y-83.12
X181.3Y-106.06
X182.07Y-87.585
X182.07Y-108.62
X182.51Y-133.46
X182.57Y-75.47
X182.61Y-45.71
X183.16Y-101.49
X183.76Y-90.07
X184.31Y-82.505
X184.31Y-95.7
X184.37Y-111.77
X184.88Y-104.83
X185.31Y-118.22
X185.43Y-107.51
X185.48Y-133.45
X186.02Y-131.62
X186.13Y-129.31
X186.53Y-110.5
X186.68Y-81.17
X187.175Y-103.475
X187.44Y-125.83
X187.868Y-113.05
X187.998Y-91.39
X190.48Y-125.83
X190.8Y-118.22
X190.81Y-113.05
X191.038Y-91.39
X191.14Y-93.28
X191.22Y-87.56
X191.925Y-45.76
X192.17Y-102.23
X193.27Y-94.77
X193.3Y-106.0
X193.49Y-133.04
X194.075Y-112.955
X194.5Y-102.81
X194.52Y-81.24
X195.09Y-93.84
X195.15Y-110.5
X195.48Y-109.22
X196.19Y-107.96
X196.22Y-92.56
X196.29Y-118.22
X197.231Y-101.61
X197.26Y-105.42
X197.26Y-111.78
X198.06Y-127.79
X198.59Y-93.77
X198.59Y-96.655
X198.59Y-99.54
X198.61Y-76.73
X198.745Y-79.235
X200.67Y-79.965
X200.91Y-101.61
X201.33Y-54.34
X201.33Y-63.795
X201.38Y-45.77
T2
X96.01Y-77.115
X98.33Y-77.135
X134.195Y-77.14
X139.405Y-77.14
X156.09Y-77.11
X161.05Y-77.115
X198.65Y-73.26
X199.98Y-73.26
X200.91Y-74.19
T3
X71.615Y-123.84
X71.615Y-125.84
X71.615Y-127.84
X71.615Y-129.84
X71.615Y-131.84
X71.615Y-133.84
X71.695Y-107.795
X71.695Y-109.795
X71.695Y-111.795
X71.695Y-113.795
X71.695Y-115.795
X71.695Y-117.795
T4
X69.08Y-84.55
X69.08Y-87.09
X69.08Y-89.63
X69.08Y-92.17
X69.08Y-94.71
X69.08Y-97.25
X69.08Y-99.79
X69.08Y-102.33
X76.7Y-84.55
X76.7Y-87.09
X76.7Y-89.63
X76.7Y-92.17
X76.7Y-94.71
X76.7Y-97.25
X76.7Y-99.79
X76.7Y-102.33
X171.19Y-47.771
X171.19Y-50.311
X171.19Y-52.851
X171.19Y-55.391
X171.19Y-57.931
X171.19Y-60.471
X171.19Y-63.011
X171.19Y-65.551
X171.19Y-68.091
X171.19Y-70.631
X178.81Y-47.771
X178.81Y-50.311
X178.81Y-52.851
X178.81Y-55.391
X178.81Y-57.931
X178.81Y-60.471
X178.81Y-63.011
X178.81Y-65.551
X178.81Y-68.091
X178.81Y-70.631
X186.38Y-47.771
X186.38Y-50.311
X186.38Y-52.851
X186.38Y-55.391
X186.38Y-57.931
X186.38Y-60.471
X186.38Y-63.011
X186.38Y-65.551
X186.38Y-68.091
X186.38Y-70.631
X194.0Y-47.771
X194.0Y-50.311
X194.0Y-52.851
X194.0Y-55.391
X194.0Y-57.931
X194.0Y-60.471
X194.0Y-63.011
X194.0Y-65.551
X194.0Y-68.091
X194.0Y-70.631
T5
X72.255Y-84.555
X72.255Y-87.095
X72.255Y-89.635
X72.255Y-92.175
X72.255Y-94.715
X72.255Y-97.255
X72.255Y-99.795
X72.255Y-102.335
X79.875Y-84.555
X79.875Y-87.095
X79.875Y-89.635
X79.875Y-92.175
X79.875Y-94.715
X79.875Y-97.255
X79.875Y-99.795
X79.875Y-102.335
X84.81Y-79.37
X84.81Y-81.91
X84.81Y-84.45
X84.81Y-86.99
X84.81Y-89.53
X84.81Y-92.07
X84.81Y-94.61
X84.81Y-97.15
X84.81Y-99.69
X84.81Y-102.23
X84.81Y-108.67
X84.81Y-111.21
X84.81Y-113.75
X84.81Y-116.29
X84.81Y-118.83
X84.81Y-121.37
X84.81Y-123.91
X84.81Y-126.45
X84.81Y-128.99
X84.81Y-131.53
X167.49Y-47.771
X167.49Y-50.311
X167.49Y-52.851
X167.49Y-55.391
X167.49Y-57.931
X167.49Y-60.471
X167.49Y-63.011
X167.49Y-65.551
X167.49Y-68.091
X167.49Y-70.631
X175.11Y-47.771
X175.11Y-50.311
X175.11Y-52.851
X175.11Y-55.391
X175.11Y-57.931
X175.11Y-60.471
X175.11Y-63.011
X175.11Y-65.551
X175.11Y-68.091
X175.11Y-70.631
X182.64Y-47.771
X182.64Y-50.311
X182.64Y-52.851
X182.64Y-55.391
X182.64Y-57.931
X182.64Y-60.471
X182.64Y-63.011
X182.64Y-65.551
X182.64Y-68.091
X182.64Y-70.631
X190.26Y-47.771
X190.26Y-50.311
X190.26Y-52.851
X190.26Y-55.391
X190.26Y-57.931
X190.26Y-60.471
X190.26Y-63.011
X190.26Y-65.551
X190.26Y-68.091
X190.26Y-70.631
M30
