%TF.GenerationSoftware,KiCad,Pcbnew,9.0.4*%
%TF.CreationDate,2025-12-15T16:32:27-04:00*%
%TF.ProjectId,RAMEXPB_V3,52414d45-5850-4425-9f56-332e6b696361,rev?*%
%TF.SameCoordinates,Original*%
%TF.FileFunction,Soldermask,Top*%
%TF.FilePolarity,Negative*%
%FSLAX46Y46*%
G04 Gerber Fmt 4.6, Leading zero omitted, Abs format (unit mm)*
G04 Created by KiCad (PCBNEW 9.0.4) date 2025-12-15 16:32:27*
%MOMM*%
%LPD*%
G01*
G04 APERTURE LIST*
G04 Aperture macros list*
%AMRoundRect*
0 Rectangle with rounded corners*
0 $1 Rounding radius*
0 $2 $3 $4 $5 $6 $7 $8 $9 X,Y pos of 4 corners*
0 Add a 4 corners polygon primitive as box body*
4,1,4,$2,$3,$4,$5,$6,$7,$8,$9,$2,$3,0*
0 Add four circle primitives for the rounded corners*
1,1,$1+$1,$2,$3*
1,1,$1+$1,$4,$5*
1,1,$1+$1,$6,$7*
1,1,$1+$1,$8,$9*
0 Add four rect primitives between the rounded corners*
20,1,$1+$1,$2,$3,$4,$5,0*
20,1,$1+$1,$4,$5,$6,$7,0*
20,1,$1+$1,$6,$7,$8,$9,0*
20,1,$1+$1,$8,$9,$2,$3,0*%
%AMFreePoly0*
4,1,23,0.550000,-0.750000,0.000000,-0.750000,0.000000,-0.745722,-0.065263,-0.745722,-0.191342,-0.711940,-0.304381,-0.646677,-0.396677,-0.554381,-0.461940,-0.441342,-0.495722,-0.315263,-0.495722,-0.250000,-0.500000,-0.250000,-0.500000,0.250000,-0.495722,0.250000,-0.495722,0.315263,-0.461940,0.441342,-0.396677,0.554381,-0.304381,0.646677,-0.191342,0.711940,-0.065263,0.745722,0.000000,0.745722,
0.000000,0.750000,0.550000,0.750000,0.550000,-0.750000,0.550000,-0.750000,$1*%
%AMFreePoly1*
4,1,23,0.000000,0.745722,0.065263,0.745722,0.191342,0.711940,0.304381,0.646677,0.396677,0.554381,0.461940,0.441342,0.495722,0.315263,0.495722,0.250000,0.500000,0.250000,0.500000,-0.250000,0.495722,-0.250000,0.495722,-0.315263,0.461940,-0.441342,0.396677,-0.554381,0.304381,-0.646677,0.191342,-0.711940,0.065263,-0.745722,0.000000,-0.745722,0.000000,-0.750000,-0.550000,-0.750000,
-0.550000,0.750000,0.000000,0.750000,0.000000,0.745722,0.000000,0.745722,$1*%
G04 Aperture macros list end*
%ADD10RoundRect,0.250000X-0.450000X0.350000X-0.450000X-0.350000X0.450000X-0.350000X0.450000X0.350000X0*%
%ADD11RoundRect,0.250000X0.450000X-0.350000X0.450000X0.350000X-0.450000X0.350000X-0.450000X-0.350000X0*%
%ADD12RoundRect,0.250000X0.350000X0.450000X-0.350000X0.450000X-0.350000X-0.450000X0.350000X-0.450000X0*%
%ADD13FreePoly0,270.000000*%
%ADD14R,1.500000X1.000000*%
%ADD15FreePoly1,270.000000*%
%ADD16RoundRect,0.150000X0.725000X0.150000X-0.725000X0.150000X-0.725000X-0.150000X0.725000X-0.150000X0*%
%ADD17RoundRect,0.250000X0.550000X0.550000X-0.550000X0.550000X-0.550000X-0.550000X0.550000X-0.550000X0*%
%ADD18C,1.600000*%
%ADD19C,3.200000*%
%ADD20RoundRect,0.350000X0.350000X-0.350000X0.350000X0.350000X-0.350000X0.350000X-0.350000X-0.350000X0*%
%ADD21R,1.250000X0.760000*%
%ADD22RoundRect,0.150000X-0.875000X-0.150000X0.875000X-0.150000X0.875000X0.150000X-0.875000X0.150000X0*%
%ADD23C,1.000000*%
%ADD24RoundRect,0.250000X-0.350000X-0.450000X0.350000X-0.450000X0.350000X0.450000X-0.350000X0.450000X0*%
%ADD25RoundRect,0.175000X-1.399000X-0.175000X1.399000X-0.175000X1.399000X0.175000X-1.399000X0.175000X0*%
%ADD26RoundRect,0.250000X0.925000X-0.875000X0.925000X0.875000X-0.925000X0.875000X-0.925000X-0.875000X0*%
%ADD27RoundRect,0.150000X0.825000X0.150000X-0.825000X0.150000X-0.825000X-0.150000X0.825000X-0.150000X0*%
%ADD28FreePoly0,90.000000*%
%ADD29FreePoly1,90.000000*%
%ADD30O,2.300000X1.700000*%
%ADD31RoundRect,0.250000X0.625000X-0.350000X0.625000X0.350000X-0.625000X0.350000X-0.625000X-0.350000X0*%
%ADD32O,1.750000X1.200000*%
G04 APERTURE END LIST*
D10*
%TO.C,R9*%
X89275000Y-108955000D03*
X89275000Y-110955000D03*
%TD*%
D11*
%TO.C,R2*%
X92485000Y-118165000D03*
X92485000Y-116165000D03*
%TD*%
D12*
%TO.C,R20*%
X122435000Y-107630000D03*
X120435000Y-107630000D03*
%TD*%
D13*
%TO.C,JP2*%
X175155000Y-101375000D03*
D14*
X175155000Y-102675000D03*
D15*
X175155000Y-103975000D03*
%TD*%
D16*
%TO.C,U2*%
X101500000Y-118063300D03*
X101500000Y-116793300D03*
X101500000Y-115523300D03*
X101500000Y-114253300D03*
X101500000Y-112983300D03*
X101500000Y-111713300D03*
X101500000Y-110443300D03*
X101500000Y-109173300D03*
X96350000Y-109173300D03*
X96350000Y-110443300D03*
X96350000Y-111713300D03*
X96350000Y-112983300D03*
X96350000Y-114253300D03*
X96350000Y-115523300D03*
X96350000Y-116793300D03*
X96350000Y-118063300D03*
%TD*%
D17*
%TO.C,U13*%
X194000000Y-70631400D03*
D18*
X194000000Y-68091400D03*
X194000000Y-65551400D03*
X194000000Y-63011400D03*
X194000000Y-60471400D03*
X194000000Y-57931400D03*
X194000000Y-55391400D03*
X194000000Y-52851400D03*
X194000000Y-50311400D03*
X194000000Y-47771400D03*
X186380000Y-47771400D03*
X186380000Y-50311400D03*
X186380000Y-52851400D03*
X186380000Y-55391400D03*
X186380000Y-57931400D03*
X186380000Y-60471400D03*
X186380000Y-63011400D03*
X186380000Y-65551400D03*
X186380000Y-68091400D03*
X186380000Y-70631400D03*
%TD*%
D16*
%TO.C,U3*%
X165604821Y-133612739D03*
X165604821Y-132342739D03*
X165604821Y-131072739D03*
X165604821Y-129802739D03*
X165604821Y-128532739D03*
X165604821Y-127262739D03*
X165604821Y-125992739D03*
X165604821Y-124722739D03*
X160454821Y-124722739D03*
X160454821Y-125992739D03*
X160454821Y-127262739D03*
X160454821Y-128532739D03*
X160454821Y-129802739D03*
X160454821Y-131072739D03*
X160454821Y-132342739D03*
X160454821Y-133612739D03*
%TD*%
D12*
%TO.C,R15*%
X122445000Y-105135000D03*
X120445000Y-105135000D03*
%TD*%
D11*
%TO.C,R22*%
X125460600Y-133595000D03*
X125460600Y-131595000D03*
%TD*%
D19*
%TO.C,H1*%
X197040000Y-131600000D03*
%TD*%
D20*
%TO.C,D2*%
X120955000Y-124905000D03*
X120955000Y-121805000D03*
%TD*%
D10*
%TO.C,R13*%
X89275000Y-89800000D03*
X89275000Y-91800000D03*
%TD*%
D12*
%TO.C,R24*%
X106535000Y-79365000D03*
X104535000Y-79365000D03*
%TD*%
D13*
%TO.C,JP1*%
X129775000Y-101395000D03*
D14*
X129775000Y-102695000D03*
D15*
X129775000Y-103995000D03*
%TD*%
D10*
%TO.C,R11*%
X89275000Y-119335000D03*
X89275000Y-121335000D03*
%TD*%
D12*
%TO.C,R25*%
X106535000Y-92475000D03*
X104535000Y-92475000D03*
%TD*%
D21*
%TO.C,SWB1*%
X111870000Y-125300000D03*
X111870000Y-126570000D03*
X111870000Y-127840000D03*
X111870000Y-129110000D03*
X111870000Y-130380000D03*
X111870000Y-131650000D03*
X118020000Y-131650000D03*
X118020000Y-130380000D03*
X118020000Y-129110000D03*
X118020000Y-127840000D03*
X118020000Y-126570000D03*
X118020000Y-125300000D03*
%TD*%
D16*
%TO.C,U10*%
X101500000Y-103006700D03*
X101500000Y-101736700D03*
X101500000Y-100466700D03*
X101500000Y-99196700D03*
X101500000Y-97926700D03*
X101500000Y-96656700D03*
X101500000Y-95386700D03*
X101500000Y-94116700D03*
X96350000Y-94116700D03*
X96350000Y-95386700D03*
X96350000Y-96656700D03*
X96350000Y-97926700D03*
X96350000Y-99196700D03*
X96350000Y-100466700D03*
X96350000Y-101736700D03*
X96350000Y-103006700D03*
%TD*%
D11*
%TO.C,R8*%
X106215000Y-124155000D03*
X106215000Y-122155000D03*
%TD*%
D22*
%TO.C,U7*%
X189550000Y-79965000D03*
X189550000Y-81235000D03*
X189550000Y-82505000D03*
X189550000Y-83775000D03*
X189550000Y-85045000D03*
X189550000Y-86315000D03*
X189550000Y-87585000D03*
X189550000Y-88855000D03*
X189550000Y-90125000D03*
X189550000Y-91395000D03*
X198850000Y-91395000D03*
X198850000Y-90125000D03*
X198850000Y-88855000D03*
X198850000Y-87585000D03*
X198850000Y-86315000D03*
X198850000Y-85045000D03*
X198850000Y-83775000D03*
X198850000Y-82505000D03*
X198850000Y-81235000D03*
X198850000Y-79965000D03*
%TD*%
D23*
%TO.C,TP2*%
X180515000Y-126395000D03*
%TD*%
D24*
%TO.C,R17*%
X88165000Y-128985000D03*
X90165000Y-128985000D03*
%TD*%
D17*
%TO.C,U12*%
X178810000Y-70631400D03*
D18*
X178810000Y-68091400D03*
X178810000Y-65551400D03*
X178810000Y-63011400D03*
X178810000Y-60471400D03*
X178810000Y-57931400D03*
X178810000Y-55391400D03*
X178810000Y-52851400D03*
X178810000Y-50311400D03*
X178810000Y-47771400D03*
X171190000Y-47771400D03*
X171190000Y-50311400D03*
X171190000Y-52851400D03*
X171190000Y-55391400D03*
X171190000Y-57931400D03*
X171190000Y-60471400D03*
X171190000Y-63011400D03*
X171190000Y-65551400D03*
X171190000Y-68091400D03*
X171190000Y-70631400D03*
%TD*%
D24*
%TO.C,R6*%
X173825000Y-129926700D03*
X175825000Y-129926700D03*
%TD*%
D25*
%TO.C,U5*%
X136645000Y-84940000D03*
X136645000Y-86210000D03*
X136645000Y-87480000D03*
X136645000Y-88750000D03*
X136645000Y-90020000D03*
X136645000Y-91290000D03*
X136645000Y-92560000D03*
X136645000Y-93830000D03*
X136645000Y-95100000D03*
X136645000Y-96370000D03*
X136645000Y-97640000D03*
X136645000Y-98910000D03*
X136645000Y-100180000D03*
X136645000Y-101450000D03*
X136645000Y-102720000D03*
X136645000Y-103990000D03*
X136645000Y-105260000D03*
X136645000Y-106530000D03*
X136645000Y-107800000D03*
X136645000Y-109070000D03*
X136645000Y-110340000D03*
X145535000Y-110340000D03*
X145535000Y-109070000D03*
X145535000Y-107800000D03*
X145535000Y-106530000D03*
X145535000Y-105260000D03*
X145535000Y-103990000D03*
X145535000Y-102720000D03*
X145535000Y-101450000D03*
X145535000Y-100180000D03*
X145535000Y-98910000D03*
X145535000Y-97640000D03*
X145535000Y-96370000D03*
X145535000Y-95100000D03*
X145535000Y-93830000D03*
X145535000Y-92560000D03*
X145535000Y-91290000D03*
X145535000Y-90020000D03*
X145535000Y-88750000D03*
X145535000Y-87480000D03*
X145535000Y-86210000D03*
X145535000Y-84940000D03*
%TD*%
D26*
%TO.C,C1*%
X198285000Y-70215000D03*
X198285000Y-65115000D03*
%TD*%
D24*
%TO.C,R18*%
X88205000Y-123935000D03*
X90205000Y-123935000D03*
%TD*%
%TO.C,R5*%
X173825000Y-126958300D03*
X175825000Y-126958300D03*
%TD*%
D21*
%TO.C,SWB2*%
X112050000Y-103800000D03*
X112050000Y-105070000D03*
X112050000Y-106340000D03*
X112050000Y-107610000D03*
X112050000Y-108880000D03*
X112050000Y-110150000D03*
X112050000Y-111420000D03*
X112050000Y-112690000D03*
X118200000Y-112690000D03*
X118200000Y-111420000D03*
X118200000Y-110150000D03*
X118200000Y-108880000D03*
X118200000Y-107610000D03*
X118200000Y-106340000D03*
X118200000Y-105070000D03*
X118200000Y-103800000D03*
%TD*%
D27*
%TO.C,U1*%
X152640000Y-133585000D03*
X152640000Y-132315000D03*
X152640000Y-131045000D03*
X152640000Y-129775000D03*
X152640000Y-128505000D03*
X152640000Y-127235000D03*
X152640000Y-125965000D03*
X147690000Y-125965000D03*
X147690000Y-127235000D03*
X147690000Y-128505000D03*
X147690000Y-129775000D03*
X147690000Y-131045000D03*
X147690000Y-132315000D03*
X147690000Y-133585000D03*
%TD*%
D20*
%TO.C,D1*%
X124025000Y-124885000D03*
X124025000Y-121785000D03*
%TD*%
D11*
%TO.C,R16*%
X131898300Y-133595000D03*
X131898300Y-131595000D03*
%TD*%
D23*
%TO.C,TP3*%
X180515000Y-130165000D03*
%TD*%
%TO.C,TP5*%
X129345000Y-125725000D03*
%TD*%
D16*
%TO.C,U11*%
X101500000Y-87950000D03*
X101500000Y-86680000D03*
X101500000Y-85410000D03*
X101500000Y-84140000D03*
X101500000Y-82870000D03*
X101500000Y-81600000D03*
X101500000Y-80330000D03*
X101500000Y-79060000D03*
X96350000Y-79060000D03*
X96350000Y-80330000D03*
X96350000Y-81600000D03*
X96350000Y-82870000D03*
X96350000Y-84140000D03*
X96350000Y-85410000D03*
X96350000Y-86680000D03*
X96350000Y-87950000D03*
%TD*%
D24*
%TO.C,R7*%
X173825000Y-123990000D03*
X175825000Y-123990000D03*
%TD*%
D11*
%TO.C,R26*%
X135155000Y-133585000D03*
X135155000Y-131585000D03*
%TD*%
D16*
%TO.C,U9*%
X101500000Y-133120000D03*
X101500000Y-131850000D03*
X101500000Y-130580000D03*
X101500000Y-129310000D03*
X101500000Y-128040000D03*
X101500000Y-126770000D03*
X101500000Y-125500000D03*
X101500000Y-124230000D03*
X96350000Y-124230000D03*
X96350000Y-125500000D03*
X96350000Y-126770000D03*
X96350000Y-128040000D03*
X96350000Y-129310000D03*
X96350000Y-130580000D03*
X96350000Y-131850000D03*
X96350000Y-133120000D03*
%TD*%
D22*
%TO.C,U8*%
X189330000Y-101610000D03*
X189330000Y-102880000D03*
X189330000Y-104150000D03*
X189330000Y-105420000D03*
X189330000Y-106690000D03*
X189330000Y-107960000D03*
X189330000Y-109230000D03*
X189330000Y-110500000D03*
X189330000Y-111770000D03*
X189330000Y-113040000D03*
X198630000Y-113040000D03*
X198630000Y-111770000D03*
X198630000Y-110500000D03*
X198630000Y-109230000D03*
X198630000Y-107960000D03*
X198630000Y-106690000D03*
X198630000Y-105420000D03*
X198630000Y-104150000D03*
X198630000Y-102880000D03*
X198630000Y-101610000D03*
%TD*%
D25*
%TO.C,U6*%
X158425000Y-84940000D03*
X158425000Y-86210000D03*
X158425000Y-87480000D03*
X158425000Y-88750000D03*
X158425000Y-90020000D03*
X158425000Y-91290000D03*
X158425000Y-92560000D03*
X158425000Y-93830000D03*
X158425000Y-95100000D03*
X158425000Y-96370000D03*
X158425000Y-97640000D03*
X158425000Y-98910000D03*
X158425000Y-100180000D03*
X158425000Y-101450000D03*
X158425000Y-102720000D03*
X158425000Y-103990000D03*
X158425000Y-105260000D03*
X158425000Y-106530000D03*
X158425000Y-107800000D03*
X158425000Y-109070000D03*
X158425000Y-110340000D03*
X167315000Y-110340000D03*
X167315000Y-109070000D03*
X167315000Y-107800000D03*
X167315000Y-106530000D03*
X167315000Y-105260000D03*
X167315000Y-103990000D03*
X167315000Y-102720000D03*
X167315000Y-101450000D03*
X167315000Y-100180000D03*
X167315000Y-98910000D03*
X167315000Y-97640000D03*
X167315000Y-96370000D03*
X167315000Y-95100000D03*
X167315000Y-93830000D03*
X167315000Y-92560000D03*
X167315000Y-91290000D03*
X167315000Y-90020000D03*
X167315000Y-88750000D03*
X167315000Y-87480000D03*
X167315000Y-86210000D03*
X167315000Y-84940000D03*
%TD*%
D23*
%TO.C,TP4*%
X180515000Y-123975000D03*
%TD*%
D10*
%TO.C,R10*%
X89275000Y-114285000D03*
X89275000Y-116285000D03*
%TD*%
D23*
%TO.C,TP6*%
X134845000Y-125855000D03*
%TD*%
D24*
%TO.C,R4*%
X173825000Y-132895000D03*
X175825000Y-132895000D03*
%TD*%
D10*
%TO.C,R12*%
X89275000Y-84475000D03*
X89275000Y-86475000D03*
%TD*%
D27*
%TO.C,U4*%
X188955000Y-133445000D03*
X188955000Y-132175000D03*
X188955000Y-130905000D03*
X188955000Y-129635000D03*
X188955000Y-128365000D03*
X188955000Y-127095000D03*
X188955000Y-125825000D03*
X184005000Y-125825000D03*
X184005000Y-127095000D03*
X184005000Y-128365000D03*
X184005000Y-129635000D03*
X184005000Y-130905000D03*
X184005000Y-132175000D03*
X184005000Y-133445000D03*
%TD*%
D17*
%TO.C,J1*%
X76700000Y-102330000D03*
D18*
X76700000Y-99790000D03*
X76700000Y-97250000D03*
X76700000Y-94710000D03*
X76700000Y-92170000D03*
X76700000Y-89630000D03*
X76700000Y-87090000D03*
X76700000Y-84550000D03*
X69080000Y-84550000D03*
X69080000Y-87090000D03*
X69080000Y-89630000D03*
X69080000Y-92170000D03*
X69080000Y-94710000D03*
X69080000Y-97250000D03*
X69080000Y-99790000D03*
X69080000Y-102330000D03*
%TD*%
D10*
%TO.C,R19*%
X108505000Y-122165000D03*
X108505000Y-124165000D03*
%TD*%
%TO.C,R3*%
X75835000Y-109505000D03*
X75835000Y-111505000D03*
%TD*%
D11*
%TO.C,R21*%
X128679400Y-133595000D03*
X128679400Y-131595000D03*
%TD*%
D10*
%TO.C,R14*%
X89275000Y-95125000D03*
X89275000Y-97125000D03*
%TD*%
D23*
%TO.C,TP1*%
X180515000Y-132785000D03*
%TD*%
D24*
%TO.C,R1*%
X104235000Y-116815000D03*
X106235000Y-116815000D03*
%TD*%
D28*
%TO.C,JP3*%
X112295000Y-118615000D03*
D14*
X112295000Y-117315000D03*
D29*
X112295000Y-116015000D03*
%TD*%
D30*
%TO.C,J9*%
X84810000Y-79370000D03*
X84810000Y-81910000D03*
X84810000Y-84450000D03*
X84810000Y-86990000D03*
X84810000Y-89530000D03*
X84810000Y-92070000D03*
X84810000Y-94610000D03*
X84810000Y-97150000D03*
X84810000Y-99690000D03*
X84810000Y-102230000D03*
%TD*%
%TO.C,J10*%
X84810000Y-108670000D03*
X84810000Y-111210000D03*
X84810000Y-113750000D03*
X84810000Y-116290000D03*
X84810000Y-118830000D03*
X84810000Y-121370000D03*
X84810000Y-123910000D03*
X84810000Y-126450000D03*
X84810000Y-128990000D03*
X84810000Y-131530000D03*
%TD*%
%TO.C,J5*%
X190260000Y-70631400D03*
X190260000Y-68091400D03*
X190260000Y-65551400D03*
X190260000Y-63011400D03*
X190260000Y-60471400D03*
X190260000Y-57931400D03*
X190260000Y-55391400D03*
X190260000Y-52851400D03*
X190260000Y-50311400D03*
X190260000Y-47771400D03*
X182640000Y-47771400D03*
X182640000Y-50311400D03*
X182640000Y-52851400D03*
X182640000Y-55391400D03*
X182640000Y-57931400D03*
X182640000Y-60471400D03*
X182640000Y-63011400D03*
X182640000Y-65551400D03*
X182640000Y-68091400D03*
X182640000Y-70631400D03*
%TD*%
D31*
%TO.C,J11*%
X71615000Y-133840000D03*
D32*
X71615000Y-131840000D03*
X71615000Y-129840000D03*
X71615000Y-127840000D03*
X71615000Y-125840000D03*
X71615000Y-123840000D03*
%TD*%
D30*
%TO.C,J4*%
X175110000Y-70631400D03*
X175110000Y-68091400D03*
X175110000Y-65551400D03*
X175110000Y-63011400D03*
X175110000Y-60471400D03*
X175110000Y-57931400D03*
X175110000Y-55391400D03*
X175110000Y-52851400D03*
X175110000Y-50311400D03*
X175110000Y-47771400D03*
X167490000Y-47771400D03*
X167490000Y-50311400D03*
X167490000Y-52851400D03*
X167490000Y-55391400D03*
X167490000Y-57931400D03*
X167490000Y-60471400D03*
X167490000Y-63011400D03*
X167490000Y-65551400D03*
X167490000Y-68091400D03*
X167490000Y-70631400D03*
%TD*%
D31*
%TO.C,J12*%
X71695000Y-117795000D03*
D32*
X71695000Y-115795000D03*
X71695000Y-113795000D03*
X71695000Y-111795000D03*
X71695000Y-109795000D03*
X71695000Y-107795000D03*
%TD*%
D30*
%TO.C,J8*%
X79875000Y-102335000D03*
X79875000Y-99795000D03*
X79875000Y-97255000D03*
X79875000Y-94715000D03*
X79875000Y-92175000D03*
X79875000Y-89635000D03*
X79875000Y-87095000D03*
X79875000Y-84555000D03*
X72255000Y-84555000D03*
X72255000Y-87095000D03*
X72255000Y-89635000D03*
X72255000Y-92175000D03*
X72255000Y-94715000D03*
X72255000Y-97255000D03*
X72255000Y-99795000D03*
X72255000Y-102335000D03*
%TD*%
M02*
