%TF.GenerationSoftware,KiCad,Pcbnew,9.0.4*%
%TF.CreationDate,2025-12-15T16:32:27-04:00*%
%TF.ProjectId,RAMEXPB_V3,52414d45-5850-4425-9f56-332e6b696361,rev?*%
%TF.SameCoordinates,Original*%
%TF.FileFunction,Legend,Bot*%
%TF.FilePolarity,Positive*%
%FSLAX46Y46*%
G04 Gerber Fmt 4.6, Leading zero omitted, Abs format (unit mm)*
G04 Created by KiCad (PCBNEW 9.0.4) date 2025-12-15 16:32:27*
%MOMM*%
%LPD*%
G01*
G04 APERTURE LIST*
%ADD10C,0.150000*%
%ADD11C,0.120000*%
G04 APERTURE END LIST*
D10*
X163321666Y-87084580D02*
X163369285Y-87132200D01*
X163369285Y-87132200D02*
X163512142Y-87179819D01*
X163512142Y-87179819D02*
X163607380Y-87179819D01*
X163607380Y-87179819D02*
X163750237Y-87132200D01*
X163750237Y-87132200D02*
X163845475Y-87036961D01*
X163845475Y-87036961D02*
X163893094Y-86941723D01*
X163893094Y-86941723D02*
X163940713Y-86751247D01*
X163940713Y-86751247D02*
X163940713Y-86608390D01*
X163940713Y-86608390D02*
X163893094Y-86417914D01*
X163893094Y-86417914D02*
X163845475Y-86322676D01*
X163845475Y-86322676D02*
X163750237Y-86227438D01*
X163750237Y-86227438D02*
X163607380Y-86179819D01*
X163607380Y-86179819D02*
X163512142Y-86179819D01*
X163512142Y-86179819D02*
X163369285Y-86227438D01*
X163369285Y-86227438D02*
X163321666Y-86275057D01*
X162464523Y-86179819D02*
X162654999Y-86179819D01*
X162654999Y-86179819D02*
X162750237Y-86227438D01*
X162750237Y-86227438D02*
X162797856Y-86275057D01*
X162797856Y-86275057D02*
X162893094Y-86417914D01*
X162893094Y-86417914D02*
X162940713Y-86608390D01*
X162940713Y-86608390D02*
X162940713Y-86989342D01*
X162940713Y-86989342D02*
X162893094Y-87084580D01*
X162893094Y-87084580D02*
X162845475Y-87132200D01*
X162845475Y-87132200D02*
X162750237Y-87179819D01*
X162750237Y-87179819D02*
X162559761Y-87179819D01*
X162559761Y-87179819D02*
X162464523Y-87132200D01*
X162464523Y-87132200D02*
X162416904Y-87084580D01*
X162416904Y-87084580D02*
X162369285Y-86989342D01*
X162369285Y-86989342D02*
X162369285Y-86751247D01*
X162369285Y-86751247D02*
X162416904Y-86656009D01*
X162416904Y-86656009D02*
X162464523Y-86608390D01*
X162464523Y-86608390D02*
X162559761Y-86560771D01*
X162559761Y-86560771D02*
X162750237Y-86560771D01*
X162750237Y-86560771D02*
X162845475Y-86608390D01*
X162845475Y-86608390D02*
X162893094Y-86656009D01*
X162893094Y-86656009D02*
X162940713Y-86751247D01*
X85143333Y-76494819D02*
X85143333Y-77209104D01*
X85143333Y-77209104D02*
X85190952Y-77351961D01*
X85190952Y-77351961D02*
X85286190Y-77447200D01*
X85286190Y-77447200D02*
X85429047Y-77494819D01*
X85429047Y-77494819D02*
X85524285Y-77494819D01*
X84619523Y-77494819D02*
X84429047Y-77494819D01*
X84429047Y-77494819D02*
X84333809Y-77447200D01*
X84333809Y-77447200D02*
X84286190Y-77399580D01*
X84286190Y-77399580D02*
X84190952Y-77256723D01*
X84190952Y-77256723D02*
X84143333Y-77066247D01*
X84143333Y-77066247D02*
X84143333Y-76685295D01*
X84143333Y-76685295D02*
X84190952Y-76590057D01*
X84190952Y-76590057D02*
X84238571Y-76542438D01*
X84238571Y-76542438D02*
X84333809Y-76494819D01*
X84333809Y-76494819D02*
X84524285Y-76494819D01*
X84524285Y-76494819D02*
X84619523Y-76542438D01*
X84619523Y-76542438D02*
X84667142Y-76590057D01*
X84667142Y-76590057D02*
X84714761Y-76685295D01*
X84714761Y-76685295D02*
X84714761Y-76923390D01*
X84714761Y-76923390D02*
X84667142Y-77018628D01*
X84667142Y-77018628D02*
X84619523Y-77066247D01*
X84619523Y-77066247D02*
X84524285Y-77113866D01*
X84524285Y-77113866D02*
X84333809Y-77113866D01*
X84333809Y-77113866D02*
X84238571Y-77066247D01*
X84238571Y-77066247D02*
X84190952Y-77018628D01*
X84190952Y-77018628D02*
X84143333Y-76923390D01*
X148104580Y-127788333D02*
X148152200Y-127740714D01*
X148152200Y-127740714D02*
X148199819Y-127597857D01*
X148199819Y-127597857D02*
X148199819Y-127502619D01*
X148199819Y-127502619D02*
X148152200Y-127359762D01*
X148152200Y-127359762D02*
X148056961Y-127264524D01*
X148056961Y-127264524D02*
X147961723Y-127216905D01*
X147961723Y-127216905D02*
X147771247Y-127169286D01*
X147771247Y-127169286D02*
X147628390Y-127169286D01*
X147628390Y-127169286D02*
X147437914Y-127216905D01*
X147437914Y-127216905D02*
X147342676Y-127264524D01*
X147342676Y-127264524D02*
X147247438Y-127359762D01*
X147247438Y-127359762D02*
X147199819Y-127502619D01*
X147199819Y-127502619D02*
X147199819Y-127597857D01*
X147199819Y-127597857D02*
X147247438Y-127740714D01*
X147247438Y-127740714D02*
X147295057Y-127788333D01*
X147533152Y-128645476D02*
X148199819Y-128645476D01*
X147152200Y-128407381D02*
X147866485Y-128169286D01*
X147866485Y-128169286D02*
X147866485Y-128788333D01*
X99397857Y-121894580D02*
X99445476Y-121942200D01*
X99445476Y-121942200D02*
X99588333Y-121989819D01*
X99588333Y-121989819D02*
X99683571Y-121989819D01*
X99683571Y-121989819D02*
X99826428Y-121942200D01*
X99826428Y-121942200D02*
X99921666Y-121846961D01*
X99921666Y-121846961D02*
X99969285Y-121751723D01*
X99969285Y-121751723D02*
X100016904Y-121561247D01*
X100016904Y-121561247D02*
X100016904Y-121418390D01*
X100016904Y-121418390D02*
X99969285Y-121227914D01*
X99969285Y-121227914D02*
X99921666Y-121132676D01*
X99921666Y-121132676D02*
X99826428Y-121037438D01*
X99826428Y-121037438D02*
X99683571Y-120989819D01*
X99683571Y-120989819D02*
X99588333Y-120989819D01*
X99588333Y-120989819D02*
X99445476Y-121037438D01*
X99445476Y-121037438D02*
X99397857Y-121085057D01*
X98445476Y-121989819D02*
X99016904Y-121989819D01*
X98731190Y-121989819D02*
X98731190Y-120989819D01*
X98731190Y-120989819D02*
X98826428Y-121132676D01*
X98826428Y-121132676D02*
X98921666Y-121227914D01*
X98921666Y-121227914D02*
X99016904Y-121275533D01*
X97540714Y-120989819D02*
X98016904Y-120989819D01*
X98016904Y-120989819D02*
X98064523Y-121466009D01*
X98064523Y-121466009D02*
X98016904Y-121418390D01*
X98016904Y-121418390D02*
X97921666Y-121370771D01*
X97921666Y-121370771D02*
X97683571Y-121370771D01*
X97683571Y-121370771D02*
X97588333Y-121418390D01*
X97588333Y-121418390D02*
X97540714Y-121466009D01*
X97540714Y-121466009D02*
X97493095Y-121561247D01*
X97493095Y-121561247D02*
X97493095Y-121799342D01*
X97493095Y-121799342D02*
X97540714Y-121894580D01*
X97540714Y-121894580D02*
X97588333Y-121942200D01*
X97588333Y-121942200D02*
X97683571Y-121989819D01*
X97683571Y-121989819D02*
X97921666Y-121989819D01*
X97921666Y-121989819D02*
X98016904Y-121942200D01*
X98016904Y-121942200D02*
X98064523Y-121894580D01*
X163321666Y-112374580D02*
X163369285Y-112422200D01*
X163369285Y-112422200D02*
X163512142Y-112469819D01*
X163512142Y-112469819D02*
X163607380Y-112469819D01*
X163607380Y-112469819D02*
X163750237Y-112422200D01*
X163750237Y-112422200D02*
X163845475Y-112326961D01*
X163845475Y-112326961D02*
X163893094Y-112231723D01*
X163893094Y-112231723D02*
X163940713Y-112041247D01*
X163940713Y-112041247D02*
X163940713Y-111898390D01*
X163940713Y-111898390D02*
X163893094Y-111707914D01*
X163893094Y-111707914D02*
X163845475Y-111612676D01*
X163845475Y-111612676D02*
X163750237Y-111517438D01*
X163750237Y-111517438D02*
X163607380Y-111469819D01*
X163607380Y-111469819D02*
X163512142Y-111469819D01*
X163512142Y-111469819D02*
X163369285Y-111517438D01*
X163369285Y-111517438D02*
X163321666Y-111565057D01*
X162750237Y-111898390D02*
X162845475Y-111850771D01*
X162845475Y-111850771D02*
X162893094Y-111803152D01*
X162893094Y-111803152D02*
X162940713Y-111707914D01*
X162940713Y-111707914D02*
X162940713Y-111660295D01*
X162940713Y-111660295D02*
X162893094Y-111565057D01*
X162893094Y-111565057D02*
X162845475Y-111517438D01*
X162845475Y-111517438D02*
X162750237Y-111469819D01*
X162750237Y-111469819D02*
X162559761Y-111469819D01*
X162559761Y-111469819D02*
X162464523Y-111517438D01*
X162464523Y-111517438D02*
X162416904Y-111565057D01*
X162416904Y-111565057D02*
X162369285Y-111660295D01*
X162369285Y-111660295D02*
X162369285Y-111707914D01*
X162369285Y-111707914D02*
X162416904Y-111803152D01*
X162416904Y-111803152D02*
X162464523Y-111850771D01*
X162464523Y-111850771D02*
X162559761Y-111898390D01*
X162559761Y-111898390D02*
X162750237Y-111898390D01*
X162750237Y-111898390D02*
X162845475Y-111946009D01*
X162845475Y-111946009D02*
X162893094Y-111993628D01*
X162893094Y-111993628D02*
X162940713Y-112088866D01*
X162940713Y-112088866D02*
X162940713Y-112279342D01*
X162940713Y-112279342D02*
X162893094Y-112374580D01*
X162893094Y-112374580D02*
X162845475Y-112422200D01*
X162845475Y-112422200D02*
X162750237Y-112469819D01*
X162750237Y-112469819D02*
X162559761Y-112469819D01*
X162559761Y-112469819D02*
X162464523Y-112422200D01*
X162464523Y-112422200D02*
X162416904Y-112374580D01*
X162416904Y-112374580D02*
X162369285Y-112279342D01*
X162369285Y-112279342D02*
X162369285Y-112088866D01*
X162369285Y-112088866D02*
X162416904Y-111993628D01*
X162416904Y-111993628D02*
X162464523Y-111946009D01*
X162464523Y-111946009D02*
X162559761Y-111898390D01*
X85619523Y-105794819D02*
X85619523Y-106509104D01*
X85619523Y-106509104D02*
X85667142Y-106651961D01*
X85667142Y-106651961D02*
X85762380Y-106747200D01*
X85762380Y-106747200D02*
X85905237Y-106794819D01*
X85905237Y-106794819D02*
X86000475Y-106794819D01*
X84619523Y-106794819D02*
X85190951Y-106794819D01*
X84905237Y-106794819D02*
X84905237Y-105794819D01*
X84905237Y-105794819D02*
X85000475Y-105937676D01*
X85000475Y-105937676D02*
X85095713Y-106032914D01*
X85095713Y-106032914D02*
X85190951Y-106080533D01*
X84000475Y-105794819D02*
X83905237Y-105794819D01*
X83905237Y-105794819D02*
X83809999Y-105842438D01*
X83809999Y-105842438D02*
X83762380Y-105890057D01*
X83762380Y-105890057D02*
X83714761Y-105985295D01*
X83714761Y-105985295D02*
X83667142Y-106175771D01*
X83667142Y-106175771D02*
X83667142Y-106413866D01*
X83667142Y-106413866D02*
X83714761Y-106604342D01*
X83714761Y-106604342D02*
X83762380Y-106699580D01*
X83762380Y-106699580D02*
X83809999Y-106747200D01*
X83809999Y-106747200D02*
X83905237Y-106794819D01*
X83905237Y-106794819D02*
X84000475Y-106794819D01*
X84000475Y-106794819D02*
X84095713Y-106747200D01*
X84095713Y-106747200D02*
X84143332Y-106699580D01*
X84143332Y-106699580D02*
X84190951Y-106604342D01*
X84190951Y-106604342D02*
X84238570Y-106413866D01*
X84238570Y-106413866D02*
X84238570Y-106175771D01*
X84238570Y-106175771D02*
X84190951Y-105985295D01*
X84190951Y-105985295D02*
X84143332Y-105890057D01*
X84143332Y-105890057D02*
X84095713Y-105842438D01*
X84095713Y-105842438D02*
X84000475Y-105794819D01*
X184294580Y-127708333D02*
X184342200Y-127660714D01*
X184342200Y-127660714D02*
X184389819Y-127517857D01*
X184389819Y-127517857D02*
X184389819Y-127422619D01*
X184389819Y-127422619D02*
X184342200Y-127279762D01*
X184342200Y-127279762D02*
X184246961Y-127184524D01*
X184246961Y-127184524D02*
X184151723Y-127136905D01*
X184151723Y-127136905D02*
X183961247Y-127089286D01*
X183961247Y-127089286D02*
X183818390Y-127089286D01*
X183818390Y-127089286D02*
X183627914Y-127136905D01*
X183627914Y-127136905D02*
X183532676Y-127184524D01*
X183532676Y-127184524D02*
X183437438Y-127279762D01*
X183437438Y-127279762D02*
X183389819Y-127422619D01*
X183389819Y-127422619D02*
X183389819Y-127517857D01*
X183389819Y-127517857D02*
X183437438Y-127660714D01*
X183437438Y-127660714D02*
X183485057Y-127708333D01*
X183389819Y-128613095D02*
X183389819Y-128136905D01*
X183389819Y-128136905D02*
X183866009Y-128089286D01*
X183866009Y-128089286D02*
X183818390Y-128136905D01*
X183818390Y-128136905D02*
X183770771Y-128232143D01*
X183770771Y-128232143D02*
X183770771Y-128470238D01*
X183770771Y-128470238D02*
X183818390Y-128565476D01*
X183818390Y-128565476D02*
X183866009Y-128613095D01*
X183866009Y-128613095D02*
X183961247Y-128660714D01*
X183961247Y-128660714D02*
X184199342Y-128660714D01*
X184199342Y-128660714D02*
X184294580Y-128613095D01*
X184294580Y-128613095D02*
X184342200Y-128565476D01*
X184342200Y-128565476D02*
X184389819Y-128470238D01*
X184389819Y-128470238D02*
X184389819Y-128232143D01*
X184389819Y-128232143D02*
X184342200Y-128136905D01*
X184342200Y-128136905D02*
X184294580Y-128089286D01*
X98674580Y-82652142D02*
X98722200Y-82604523D01*
X98722200Y-82604523D02*
X98769819Y-82461666D01*
X98769819Y-82461666D02*
X98769819Y-82366428D01*
X98769819Y-82366428D02*
X98722200Y-82223571D01*
X98722200Y-82223571D02*
X98626961Y-82128333D01*
X98626961Y-82128333D02*
X98531723Y-82080714D01*
X98531723Y-82080714D02*
X98341247Y-82033095D01*
X98341247Y-82033095D02*
X98198390Y-82033095D01*
X98198390Y-82033095D02*
X98007914Y-82080714D01*
X98007914Y-82080714D02*
X97912676Y-82128333D01*
X97912676Y-82128333D02*
X97817438Y-82223571D01*
X97817438Y-82223571D02*
X97769819Y-82366428D01*
X97769819Y-82366428D02*
X97769819Y-82461666D01*
X97769819Y-82461666D02*
X97817438Y-82604523D01*
X97817438Y-82604523D02*
X97865057Y-82652142D01*
X98769819Y-83604523D02*
X98769819Y-83033095D01*
X98769819Y-83318809D02*
X97769819Y-83318809D01*
X97769819Y-83318809D02*
X97912676Y-83223571D01*
X97912676Y-83223571D02*
X98007914Y-83128333D01*
X98007914Y-83128333D02*
X98055533Y-83033095D01*
X98103152Y-84461666D02*
X98769819Y-84461666D01*
X97722200Y-84223571D02*
X98436485Y-83985476D01*
X98436485Y-83985476D02*
X98436485Y-84604523D01*
X97771666Y-106984580D02*
X97819285Y-107032200D01*
X97819285Y-107032200D02*
X97962142Y-107079819D01*
X97962142Y-107079819D02*
X98057380Y-107079819D01*
X98057380Y-107079819D02*
X98200237Y-107032200D01*
X98200237Y-107032200D02*
X98295475Y-106936961D01*
X98295475Y-106936961D02*
X98343094Y-106841723D01*
X98343094Y-106841723D02*
X98390713Y-106651247D01*
X98390713Y-106651247D02*
X98390713Y-106508390D01*
X98390713Y-106508390D02*
X98343094Y-106317914D01*
X98343094Y-106317914D02*
X98295475Y-106222676D01*
X98295475Y-106222676D02*
X98200237Y-106127438D01*
X98200237Y-106127438D02*
X98057380Y-106079819D01*
X98057380Y-106079819D02*
X97962142Y-106079819D01*
X97962142Y-106079819D02*
X97819285Y-106127438D01*
X97819285Y-106127438D02*
X97771666Y-106175057D01*
X97390713Y-106175057D02*
X97343094Y-106127438D01*
X97343094Y-106127438D02*
X97247856Y-106079819D01*
X97247856Y-106079819D02*
X97009761Y-106079819D01*
X97009761Y-106079819D02*
X96914523Y-106127438D01*
X96914523Y-106127438D02*
X96866904Y-106175057D01*
X96866904Y-106175057D02*
X96819285Y-106270295D01*
X96819285Y-106270295D02*
X96819285Y-106365533D01*
X96819285Y-106365533D02*
X96866904Y-106508390D01*
X96866904Y-106508390D02*
X97438332Y-107079819D01*
X97438332Y-107079819D02*
X96819285Y-107079819D01*
X199194580Y-100612142D02*
X199242200Y-100564523D01*
X199242200Y-100564523D02*
X199289819Y-100421666D01*
X199289819Y-100421666D02*
X199289819Y-100326428D01*
X199289819Y-100326428D02*
X199242200Y-100183571D01*
X199242200Y-100183571D02*
X199146961Y-100088333D01*
X199146961Y-100088333D02*
X199051723Y-100040714D01*
X199051723Y-100040714D02*
X198861247Y-99993095D01*
X198861247Y-99993095D02*
X198718390Y-99993095D01*
X198718390Y-99993095D02*
X198527914Y-100040714D01*
X198527914Y-100040714D02*
X198432676Y-100088333D01*
X198432676Y-100088333D02*
X198337438Y-100183571D01*
X198337438Y-100183571D02*
X198289819Y-100326428D01*
X198289819Y-100326428D02*
X198289819Y-100421666D01*
X198289819Y-100421666D02*
X198337438Y-100564523D01*
X198337438Y-100564523D02*
X198385057Y-100612142D01*
X199289819Y-101564523D02*
X199289819Y-100993095D01*
X199289819Y-101278809D02*
X198289819Y-101278809D01*
X198289819Y-101278809D02*
X198432676Y-101183571D01*
X198432676Y-101183571D02*
X198527914Y-101088333D01*
X198527914Y-101088333D02*
X198575533Y-100993095D01*
X198289819Y-102183571D02*
X198289819Y-102278809D01*
X198289819Y-102278809D02*
X198337438Y-102374047D01*
X198337438Y-102374047D02*
X198385057Y-102421666D01*
X198385057Y-102421666D02*
X198480295Y-102469285D01*
X198480295Y-102469285D02*
X198670771Y-102516904D01*
X198670771Y-102516904D02*
X198908866Y-102516904D01*
X198908866Y-102516904D02*
X199099342Y-102469285D01*
X199099342Y-102469285D02*
X199194580Y-102421666D01*
X199194580Y-102421666D02*
X199242200Y-102374047D01*
X199242200Y-102374047D02*
X199289819Y-102278809D01*
X199289819Y-102278809D02*
X199289819Y-102183571D01*
X199289819Y-102183571D02*
X199242200Y-102088333D01*
X199242200Y-102088333D02*
X199194580Y-102040714D01*
X199194580Y-102040714D02*
X199099342Y-101993095D01*
X199099342Y-101993095D02*
X198908866Y-101945476D01*
X198908866Y-101945476D02*
X198670771Y-101945476D01*
X198670771Y-101945476D02*
X198480295Y-101993095D01*
X198480295Y-101993095D02*
X198385057Y-102040714D01*
X198385057Y-102040714D02*
X198337438Y-102088333D01*
X198337438Y-102088333D02*
X198289819Y-102183571D01*
X141862857Y-87099580D02*
X141910476Y-87147200D01*
X141910476Y-87147200D02*
X142053333Y-87194819D01*
X142053333Y-87194819D02*
X142148571Y-87194819D01*
X142148571Y-87194819D02*
X142291428Y-87147200D01*
X142291428Y-87147200D02*
X142386666Y-87051961D01*
X142386666Y-87051961D02*
X142434285Y-86956723D01*
X142434285Y-86956723D02*
X142481904Y-86766247D01*
X142481904Y-86766247D02*
X142481904Y-86623390D01*
X142481904Y-86623390D02*
X142434285Y-86432914D01*
X142434285Y-86432914D02*
X142386666Y-86337676D01*
X142386666Y-86337676D02*
X142291428Y-86242438D01*
X142291428Y-86242438D02*
X142148571Y-86194819D01*
X142148571Y-86194819D02*
X142053333Y-86194819D01*
X142053333Y-86194819D02*
X141910476Y-86242438D01*
X141910476Y-86242438D02*
X141862857Y-86290057D01*
X140910476Y-87194819D02*
X141481904Y-87194819D01*
X141196190Y-87194819D02*
X141196190Y-86194819D01*
X141196190Y-86194819D02*
X141291428Y-86337676D01*
X141291428Y-86337676D02*
X141386666Y-86432914D01*
X141386666Y-86432914D02*
X141481904Y-86480533D01*
X140577142Y-86194819D02*
X139958095Y-86194819D01*
X139958095Y-86194819D02*
X140291428Y-86575771D01*
X140291428Y-86575771D02*
X140148571Y-86575771D01*
X140148571Y-86575771D02*
X140053333Y-86623390D01*
X140053333Y-86623390D02*
X140005714Y-86671009D01*
X140005714Y-86671009D02*
X139958095Y-86766247D01*
X139958095Y-86766247D02*
X139958095Y-87004342D01*
X139958095Y-87004342D02*
X140005714Y-87099580D01*
X140005714Y-87099580D02*
X140053333Y-87147200D01*
X140053333Y-87147200D02*
X140148571Y-87194819D01*
X140148571Y-87194819D02*
X140434285Y-87194819D01*
X140434285Y-87194819D02*
X140529523Y-87147200D01*
X140529523Y-87147200D02*
X140577142Y-87099580D01*
X161034580Y-127918333D02*
X161082200Y-127870714D01*
X161082200Y-127870714D02*
X161129819Y-127727857D01*
X161129819Y-127727857D02*
X161129819Y-127632619D01*
X161129819Y-127632619D02*
X161082200Y-127489762D01*
X161082200Y-127489762D02*
X160986961Y-127394524D01*
X160986961Y-127394524D02*
X160891723Y-127346905D01*
X160891723Y-127346905D02*
X160701247Y-127299286D01*
X160701247Y-127299286D02*
X160558390Y-127299286D01*
X160558390Y-127299286D02*
X160367914Y-127346905D01*
X160367914Y-127346905D02*
X160272676Y-127394524D01*
X160272676Y-127394524D02*
X160177438Y-127489762D01*
X160177438Y-127489762D02*
X160129819Y-127632619D01*
X160129819Y-127632619D02*
X160129819Y-127727857D01*
X160129819Y-127727857D02*
X160177438Y-127870714D01*
X160177438Y-127870714D02*
X160225057Y-127918333D01*
X160129819Y-128251667D02*
X160129819Y-128870714D01*
X160129819Y-128870714D02*
X160510771Y-128537381D01*
X160510771Y-128537381D02*
X160510771Y-128680238D01*
X160510771Y-128680238D02*
X160558390Y-128775476D01*
X160558390Y-128775476D02*
X160606009Y-128823095D01*
X160606009Y-128823095D02*
X160701247Y-128870714D01*
X160701247Y-128870714D02*
X160939342Y-128870714D01*
X160939342Y-128870714D02*
X161034580Y-128823095D01*
X161034580Y-128823095D02*
X161082200Y-128775476D01*
X161082200Y-128775476D02*
X161129819Y-128680238D01*
X161129819Y-128680238D02*
X161129819Y-128394524D01*
X161129819Y-128394524D02*
X161082200Y-128299286D01*
X161082200Y-128299286D02*
X161034580Y-128251667D01*
X199114580Y-79148333D02*
X199162200Y-79100714D01*
X199162200Y-79100714D02*
X199209819Y-78957857D01*
X199209819Y-78957857D02*
X199209819Y-78862619D01*
X199209819Y-78862619D02*
X199162200Y-78719762D01*
X199162200Y-78719762D02*
X199066961Y-78624524D01*
X199066961Y-78624524D02*
X198971723Y-78576905D01*
X198971723Y-78576905D02*
X198781247Y-78529286D01*
X198781247Y-78529286D02*
X198638390Y-78529286D01*
X198638390Y-78529286D02*
X198447914Y-78576905D01*
X198447914Y-78576905D02*
X198352676Y-78624524D01*
X198352676Y-78624524D02*
X198257438Y-78719762D01*
X198257438Y-78719762D02*
X198209819Y-78862619D01*
X198209819Y-78862619D02*
X198209819Y-78957857D01*
X198209819Y-78957857D02*
X198257438Y-79100714D01*
X198257438Y-79100714D02*
X198305057Y-79148333D01*
X199209819Y-79624524D02*
X199209819Y-79815000D01*
X199209819Y-79815000D02*
X199162200Y-79910238D01*
X199162200Y-79910238D02*
X199114580Y-79957857D01*
X199114580Y-79957857D02*
X198971723Y-80053095D01*
X198971723Y-80053095D02*
X198781247Y-80100714D01*
X198781247Y-80100714D02*
X198400295Y-80100714D01*
X198400295Y-80100714D02*
X198305057Y-80053095D01*
X198305057Y-80053095D02*
X198257438Y-80005476D01*
X198257438Y-80005476D02*
X198209819Y-79910238D01*
X198209819Y-79910238D02*
X198209819Y-79719762D01*
X198209819Y-79719762D02*
X198257438Y-79624524D01*
X198257438Y-79624524D02*
X198305057Y-79576905D01*
X198305057Y-79576905D02*
X198400295Y-79529286D01*
X198400295Y-79529286D02*
X198638390Y-79529286D01*
X198638390Y-79529286D02*
X198733628Y-79576905D01*
X198733628Y-79576905D02*
X198781247Y-79624524D01*
X198781247Y-79624524D02*
X198828866Y-79719762D01*
X198828866Y-79719762D02*
X198828866Y-79910238D01*
X198828866Y-79910238D02*
X198781247Y-80005476D01*
X198781247Y-80005476D02*
X198733628Y-80053095D01*
X198733628Y-80053095D02*
X198638390Y-80100714D01*
X90027857Y-133874580D02*
X90075476Y-133922200D01*
X90075476Y-133922200D02*
X90218333Y-133969819D01*
X90218333Y-133969819D02*
X90313571Y-133969819D01*
X90313571Y-133969819D02*
X90456428Y-133922200D01*
X90456428Y-133922200D02*
X90551666Y-133826961D01*
X90551666Y-133826961D02*
X90599285Y-133731723D01*
X90599285Y-133731723D02*
X90646904Y-133541247D01*
X90646904Y-133541247D02*
X90646904Y-133398390D01*
X90646904Y-133398390D02*
X90599285Y-133207914D01*
X90599285Y-133207914D02*
X90551666Y-133112676D01*
X90551666Y-133112676D02*
X90456428Y-133017438D01*
X90456428Y-133017438D02*
X90313571Y-132969819D01*
X90313571Y-132969819D02*
X90218333Y-132969819D01*
X90218333Y-132969819D02*
X90075476Y-133017438D01*
X90075476Y-133017438D02*
X90027857Y-133065057D01*
X89075476Y-133969819D02*
X89646904Y-133969819D01*
X89361190Y-133969819D02*
X89361190Y-132969819D01*
X89361190Y-132969819D02*
X89456428Y-133112676D01*
X89456428Y-133112676D02*
X89551666Y-133207914D01*
X89551666Y-133207914D02*
X89646904Y-133255533D01*
X88218333Y-132969819D02*
X88408809Y-132969819D01*
X88408809Y-132969819D02*
X88504047Y-133017438D01*
X88504047Y-133017438D02*
X88551666Y-133065057D01*
X88551666Y-133065057D02*
X88646904Y-133207914D01*
X88646904Y-133207914D02*
X88694523Y-133398390D01*
X88694523Y-133398390D02*
X88694523Y-133779342D01*
X88694523Y-133779342D02*
X88646904Y-133874580D01*
X88646904Y-133874580D02*
X88599285Y-133922200D01*
X88599285Y-133922200D02*
X88504047Y-133969819D01*
X88504047Y-133969819D02*
X88313571Y-133969819D01*
X88313571Y-133969819D02*
X88218333Y-133922200D01*
X88218333Y-133922200D02*
X88170714Y-133874580D01*
X88170714Y-133874580D02*
X88123095Y-133779342D01*
X88123095Y-133779342D02*
X88123095Y-133541247D01*
X88123095Y-133541247D02*
X88170714Y-133446009D01*
X88170714Y-133446009D02*
X88218333Y-133398390D01*
X88218333Y-133398390D02*
X88313571Y-133350771D01*
X88313571Y-133350771D02*
X88504047Y-133350771D01*
X88504047Y-133350771D02*
X88599285Y-133398390D01*
X88599285Y-133398390D02*
X88646904Y-133446009D01*
X88646904Y-133446009D02*
X88694523Y-133541247D01*
X73619819Y-128030476D02*
X74334104Y-128030476D01*
X74334104Y-128030476D02*
X74476961Y-127982857D01*
X74476961Y-127982857D02*
X74572200Y-127887619D01*
X74572200Y-127887619D02*
X74619819Y-127744762D01*
X74619819Y-127744762D02*
X74619819Y-127649524D01*
X74619819Y-129030476D02*
X74619819Y-128459048D01*
X74619819Y-128744762D02*
X73619819Y-128744762D01*
X73619819Y-128744762D02*
X73762676Y-128649524D01*
X73762676Y-128649524D02*
X73857914Y-128554286D01*
X73857914Y-128554286D02*
X73905533Y-128459048D01*
X74619819Y-129982857D02*
X74619819Y-129411429D01*
X74619819Y-129697143D02*
X73619819Y-129697143D01*
X73619819Y-129697143D02*
X73762676Y-129601905D01*
X73762676Y-129601905D02*
X73857914Y-129506667D01*
X73857914Y-129506667D02*
X73905533Y-129411429D01*
X141862857Y-93369580D02*
X141910476Y-93417200D01*
X141910476Y-93417200D02*
X142053333Y-93464819D01*
X142053333Y-93464819D02*
X142148571Y-93464819D01*
X142148571Y-93464819D02*
X142291428Y-93417200D01*
X142291428Y-93417200D02*
X142386666Y-93321961D01*
X142386666Y-93321961D02*
X142434285Y-93226723D01*
X142434285Y-93226723D02*
X142481904Y-93036247D01*
X142481904Y-93036247D02*
X142481904Y-92893390D01*
X142481904Y-92893390D02*
X142434285Y-92702914D01*
X142434285Y-92702914D02*
X142386666Y-92607676D01*
X142386666Y-92607676D02*
X142291428Y-92512438D01*
X142291428Y-92512438D02*
X142148571Y-92464819D01*
X142148571Y-92464819D02*
X142053333Y-92464819D01*
X142053333Y-92464819D02*
X141910476Y-92512438D01*
X141910476Y-92512438D02*
X141862857Y-92560057D01*
X140910476Y-93464819D02*
X141481904Y-93464819D01*
X141196190Y-93464819D02*
X141196190Y-92464819D01*
X141196190Y-92464819D02*
X141291428Y-92607676D01*
X141291428Y-92607676D02*
X141386666Y-92702914D01*
X141386666Y-92702914D02*
X141481904Y-92750533D01*
X139958095Y-93464819D02*
X140529523Y-93464819D01*
X140243809Y-93464819D02*
X140243809Y-92464819D01*
X140243809Y-92464819D02*
X140339047Y-92607676D01*
X140339047Y-92607676D02*
X140434285Y-92702914D01*
X140434285Y-92702914D02*
X140529523Y-92750533D01*
X141862857Y-112319580D02*
X141910476Y-112367200D01*
X141910476Y-112367200D02*
X142053333Y-112414819D01*
X142053333Y-112414819D02*
X142148571Y-112414819D01*
X142148571Y-112414819D02*
X142291428Y-112367200D01*
X142291428Y-112367200D02*
X142386666Y-112271961D01*
X142386666Y-112271961D02*
X142434285Y-112176723D01*
X142434285Y-112176723D02*
X142481904Y-111986247D01*
X142481904Y-111986247D02*
X142481904Y-111843390D01*
X142481904Y-111843390D02*
X142434285Y-111652914D01*
X142434285Y-111652914D02*
X142386666Y-111557676D01*
X142386666Y-111557676D02*
X142291428Y-111462438D01*
X142291428Y-111462438D02*
X142148571Y-111414819D01*
X142148571Y-111414819D02*
X142053333Y-111414819D01*
X142053333Y-111414819D02*
X141910476Y-111462438D01*
X141910476Y-111462438D02*
X141862857Y-111510057D01*
X140910476Y-112414819D02*
X141481904Y-112414819D01*
X141196190Y-112414819D02*
X141196190Y-111414819D01*
X141196190Y-111414819D02*
X141291428Y-111557676D01*
X141291428Y-111557676D02*
X141386666Y-111652914D01*
X141386666Y-111652914D02*
X141481904Y-111700533D01*
X140529523Y-111510057D02*
X140481904Y-111462438D01*
X140481904Y-111462438D02*
X140386666Y-111414819D01*
X140386666Y-111414819D02*
X140148571Y-111414819D01*
X140148571Y-111414819D02*
X140053333Y-111462438D01*
X140053333Y-111462438D02*
X140005714Y-111510057D01*
X140005714Y-111510057D02*
X139958095Y-111605295D01*
X139958095Y-111605295D02*
X139958095Y-111700533D01*
X139958095Y-111700533D02*
X140005714Y-111843390D01*
X140005714Y-111843390D02*
X140577142Y-112414819D01*
X140577142Y-112414819D02*
X139958095Y-112414819D01*
X73699819Y-111985476D02*
X74414104Y-111985476D01*
X74414104Y-111985476D02*
X74556961Y-111937857D01*
X74556961Y-111937857D02*
X74652200Y-111842619D01*
X74652200Y-111842619D02*
X74699819Y-111699762D01*
X74699819Y-111699762D02*
X74699819Y-111604524D01*
X74699819Y-112985476D02*
X74699819Y-112414048D01*
X74699819Y-112699762D02*
X73699819Y-112699762D01*
X73699819Y-112699762D02*
X73842676Y-112604524D01*
X73842676Y-112604524D02*
X73937914Y-112509286D01*
X73937914Y-112509286D02*
X73985533Y-112414048D01*
X73795057Y-113366429D02*
X73747438Y-113414048D01*
X73747438Y-113414048D02*
X73699819Y-113509286D01*
X73699819Y-113509286D02*
X73699819Y-113747381D01*
X73699819Y-113747381D02*
X73747438Y-113842619D01*
X73747438Y-113842619D02*
X73795057Y-113890238D01*
X73795057Y-113890238D02*
X73890295Y-113937857D01*
X73890295Y-113937857D02*
X73985533Y-113937857D01*
X73985533Y-113937857D02*
X74128390Y-113890238D01*
X74128390Y-113890238D02*
X74699819Y-113318810D01*
X74699819Y-113318810D02*
X74699819Y-113937857D01*
X163321666Y-93369580D02*
X163369285Y-93417200D01*
X163369285Y-93417200D02*
X163512142Y-93464819D01*
X163512142Y-93464819D02*
X163607380Y-93464819D01*
X163607380Y-93464819D02*
X163750237Y-93417200D01*
X163750237Y-93417200D02*
X163845475Y-93321961D01*
X163845475Y-93321961D02*
X163893094Y-93226723D01*
X163893094Y-93226723D02*
X163940713Y-93036247D01*
X163940713Y-93036247D02*
X163940713Y-92893390D01*
X163940713Y-92893390D02*
X163893094Y-92702914D01*
X163893094Y-92702914D02*
X163845475Y-92607676D01*
X163845475Y-92607676D02*
X163750237Y-92512438D01*
X163750237Y-92512438D02*
X163607380Y-92464819D01*
X163607380Y-92464819D02*
X163512142Y-92464819D01*
X163512142Y-92464819D02*
X163369285Y-92512438D01*
X163369285Y-92512438D02*
X163321666Y-92560057D01*
X162988332Y-92464819D02*
X162321666Y-92464819D01*
X162321666Y-92464819D02*
X162750237Y-93464819D01*
D11*
%TO.C,C6*%
X163416252Y-84200000D02*
X162893748Y-84200000D01*
X163416252Y-85670000D02*
X162893748Y-85670000D01*
%TO.C,J9*%
X83480000Y-80640000D02*
X86140000Y-80640000D01*
X83480000Y-103560000D02*
X83480000Y-80640000D01*
X83480000Y-103560000D02*
X86140000Y-103560000D01*
X84810000Y-78040000D02*
X86140000Y-78040000D01*
X86140000Y-78040000D02*
X86140000Y-79370000D01*
X86140000Y-103560000D02*
X86140000Y-80640000D01*
%TO.C,C4*%
X146980000Y-130753748D02*
X146980000Y-131276252D01*
X148450000Y-130753748D02*
X148450000Y-131276252D01*
%TO.C,C15*%
X99016252Y-119120000D02*
X98493748Y-119120000D01*
X99016252Y-120590000D02*
X98493748Y-120590000D01*
%TO.C,C8*%
X163416252Y-109600000D02*
X162893748Y-109600000D01*
X163416252Y-111070000D02*
X162893748Y-111070000D01*
%TO.C,J10*%
X83480000Y-109940000D02*
X86140000Y-109940000D01*
X83480000Y-132860000D02*
X83480000Y-109940000D01*
X83480000Y-132860000D02*
X86140000Y-132860000D01*
X84810000Y-107340000D02*
X86140000Y-107340000D01*
X86140000Y-107340000D02*
X86140000Y-108670000D01*
X86140000Y-132860000D02*
X86140000Y-109940000D01*
%TO.C,C5*%
X183260000Y-130533748D02*
X183260000Y-131056252D01*
X184730000Y-130533748D02*
X184730000Y-131056252D01*
%TO.C,C14*%
X97630000Y-79956252D02*
X97630000Y-79433748D01*
X99100000Y-79956252D02*
X99100000Y-79433748D01*
%TO.C,C2*%
X97866252Y-104210000D02*
X97343748Y-104210000D01*
X97866252Y-105680000D02*
X97343748Y-105680000D01*
%TO.C,C10*%
X198060000Y-104996252D02*
X198060000Y-104473748D01*
X199530000Y-104996252D02*
X199530000Y-104473748D01*
%TO.C,C13*%
X141481252Y-84215000D02*
X140958748Y-84215000D01*
X141481252Y-85685000D02*
X140958748Y-85685000D01*
%TO.C,C3*%
X160010000Y-130753748D02*
X160010000Y-131276252D01*
X161480000Y-130753748D02*
X161480000Y-131276252D01*
%TO.C,C9*%
X198010000Y-82716252D02*
X198010000Y-82193748D01*
X199480000Y-82716252D02*
X199480000Y-82193748D01*
%TO.C,C16*%
X92493748Y-132870000D02*
X93016252Y-132870000D01*
X92493748Y-134340000D02*
X93016252Y-134340000D01*
%TO.C,J11*%
X65255000Y-121780000D02*
X65255000Y-135900000D01*
X65255000Y-124340000D02*
X69615000Y-124340000D01*
X65255000Y-134140000D02*
X67515000Y-134140000D01*
X65255000Y-134640000D02*
X67515000Y-134640000D01*
X65255000Y-135900000D02*
X73075000Y-135900000D01*
X67515000Y-122540000D02*
X69115000Y-122540000D01*
X67515000Y-123540000D02*
X67515000Y-122540000D01*
X67515000Y-134140000D02*
X67515000Y-135140000D01*
X67515000Y-135140000D02*
X69115000Y-135140000D01*
X69115000Y-122540000D02*
X69115000Y-123540000D01*
X69115000Y-123540000D02*
X67515000Y-123540000D01*
X69115000Y-134140000D02*
X67515000Y-134140000D01*
X69115000Y-135140000D02*
X69115000Y-134140000D01*
X69615000Y-124340000D02*
X69615000Y-133340000D01*
X69615000Y-133340000D02*
X65255000Y-133340000D01*
X71475000Y-122700000D02*
X71475000Y-121780000D01*
X71475000Y-122700000D02*
X73075000Y-122700000D01*
X71475000Y-122980000D02*
X71475000Y-122700000D01*
X71475000Y-134980000D02*
X71475000Y-134700000D01*
X71475000Y-134980000D02*
X71475000Y-135900000D01*
X72690000Y-134700000D02*
X71475000Y-134700000D01*
X73075000Y-121780000D02*
X65255000Y-121780000D01*
X73075000Y-122700000D02*
X73075000Y-121780000D01*
X73075000Y-134980000D02*
X71475000Y-134980000D01*
X73075000Y-135900000D02*
X73075000Y-134980000D01*
%TO.C,C11*%
X141481252Y-90595000D02*
X140958748Y-90595000D01*
X141481252Y-92065000D02*
X140958748Y-92065000D01*
%TO.C,C12*%
X141481252Y-109545000D02*
X140958748Y-109545000D01*
X141481252Y-111015000D02*
X140958748Y-111015000D01*
%TO.C,J12*%
X65335000Y-105735000D02*
X65335000Y-119855000D01*
X65335000Y-108295000D02*
X69695000Y-108295000D01*
X65335000Y-118095000D02*
X67595000Y-118095000D01*
X65335000Y-118595000D02*
X67595000Y-118595000D01*
X65335000Y-119855000D02*
X73155000Y-119855000D01*
X67595000Y-106495000D02*
X69195000Y-106495000D01*
X67595000Y-107495000D02*
X67595000Y-106495000D01*
X67595000Y-118095000D02*
X67595000Y-119095000D01*
X67595000Y-119095000D02*
X69195000Y-119095000D01*
X69195000Y-106495000D02*
X69195000Y-107495000D01*
X69195000Y-107495000D02*
X67595000Y-107495000D01*
X69195000Y-118095000D02*
X67595000Y-118095000D01*
X69195000Y-119095000D02*
X69195000Y-118095000D01*
X69695000Y-108295000D02*
X69695000Y-117295000D01*
X69695000Y-117295000D02*
X65335000Y-117295000D01*
X71555000Y-106655000D02*
X71555000Y-105735000D01*
X71555000Y-106655000D02*
X73155000Y-106655000D01*
X71555000Y-106935000D02*
X71555000Y-106655000D01*
X71555000Y-118935000D02*
X71555000Y-118655000D01*
X71555000Y-118935000D02*
X71555000Y-119855000D01*
X72770000Y-118655000D02*
X71555000Y-118655000D01*
X73155000Y-105735000D02*
X65335000Y-105735000D01*
X73155000Y-106655000D02*
X73155000Y-105735000D01*
X73155000Y-118935000D02*
X71555000Y-118935000D01*
X73155000Y-119855000D02*
X73155000Y-118935000D01*
%TO.C,C7*%
X163416252Y-90595000D02*
X162893748Y-90595000D01*
X163416252Y-92065000D02*
X162893748Y-92065000D01*
%TD*%
M02*
