%TF.GenerationSoftware,KiCad,Pcbnew,8.0.5*%
%TF.CreationDate,2024-11-12T16:02:30-04:00*%
%TF.ProjectId,RAMAUXB_V2_Github,52414d41-5558-4425-9f56-325f47697468,rev?*%
%TF.SameCoordinates,Original*%
%TF.FileFunction,Legend,Top*%
%TF.FilePolarity,Positive*%
%FSLAX46Y46*%
G04 Gerber Fmt 4.6, Leading zero omitted, Abs format (unit mm)*
G04 Created by KiCad (PCBNEW 8.0.5) date 2024-11-12 16:02:30*
%MOMM*%
%LPD*%
G01*
G04 APERTURE LIST*
%ADD10C,0.200000*%
%ADD11C,0.100000*%
%ADD12C,0.160000*%
%ADD13C,0.150000*%
%ADD14C,0.120000*%
G04 APERTURE END LIST*
D10*
X82985000Y-142435000D02*
G75*
G02*
X80985000Y-144435000I-2000000J0D01*
G01*
X80405000Y-121885000D02*
X80985000Y-121885000D01*
X80985000Y-121885000D02*
G75*
G02*
X82985000Y-123885000I0J-2000000D01*
G01*
X82985000Y-123885000D02*
X82985000Y-142435000D01*
X78405000Y-142435000D02*
X78405000Y-123885000D01*
X78405000Y-123885000D02*
G75*
G02*
X80405000Y-121885000I2000000J0D01*
G01*
X80985000Y-144435000D02*
X80405000Y-144435000D01*
X80405000Y-144435000D02*
G75*
G02*
X78405000Y-142435000I0J2000000D01*
G01*
D11*
X81769122Y-120399133D02*
X81369122Y-120399133D01*
X81569122Y-120399133D02*
X81569122Y-119699133D01*
X81569122Y-119699133D02*
X81502455Y-119799133D01*
X81502455Y-119799133D02*
X81435789Y-119865800D01*
X81435789Y-119865800D02*
X81369122Y-119899133D01*
X84570549Y-136269133D02*
X84903882Y-136269133D01*
X84503882Y-136469133D02*
X84737216Y-135769133D01*
X84737216Y-135769133D02*
X84970549Y-136469133D01*
X85570549Y-136469133D02*
X85170549Y-136469133D01*
X85370549Y-136469133D02*
X85370549Y-135769133D01*
X85370549Y-135769133D02*
X85303882Y-135869133D01*
X85303882Y-135869133D02*
X85237216Y-135935800D01*
X85237216Y-135935800D02*
X85170549Y-135969133D01*
X85803883Y-135769133D02*
X86270549Y-135769133D01*
X86270549Y-135769133D02*
X85970549Y-136469133D01*
X84970549Y-144009133D02*
X84737216Y-143675800D01*
X84570549Y-144009133D02*
X84570549Y-143309133D01*
X84570549Y-143309133D02*
X84837216Y-143309133D01*
X84837216Y-143309133D02*
X84903883Y-143342466D01*
X84903883Y-143342466D02*
X84937216Y-143375800D01*
X84937216Y-143375800D02*
X84970549Y-143442466D01*
X84970549Y-143442466D02*
X84970549Y-143542466D01*
X84970549Y-143542466D02*
X84937216Y-143609133D01*
X84937216Y-143609133D02*
X84903883Y-143642466D01*
X84903883Y-143642466D02*
X84837216Y-143675800D01*
X84837216Y-143675800D02*
X84570549Y-143675800D01*
X85237216Y-143809133D02*
X85570549Y-143809133D01*
X85170549Y-144009133D02*
X85403883Y-143309133D01*
X85403883Y-143309133D02*
X85637216Y-144009133D01*
X85970549Y-143609133D02*
X85903883Y-143575800D01*
X85903883Y-143575800D02*
X85870549Y-143542466D01*
X85870549Y-143542466D02*
X85837216Y-143475800D01*
X85837216Y-143475800D02*
X85837216Y-143442466D01*
X85837216Y-143442466D02*
X85870549Y-143375800D01*
X85870549Y-143375800D02*
X85903883Y-143342466D01*
X85903883Y-143342466D02*
X85970549Y-143309133D01*
X85970549Y-143309133D02*
X86103883Y-143309133D01*
X86103883Y-143309133D02*
X86170549Y-143342466D01*
X86170549Y-143342466D02*
X86203883Y-143375800D01*
X86203883Y-143375800D02*
X86237216Y-143442466D01*
X86237216Y-143442466D02*
X86237216Y-143475800D01*
X86237216Y-143475800D02*
X86203883Y-143542466D01*
X86203883Y-143542466D02*
X86170549Y-143575800D01*
X86170549Y-143575800D02*
X86103883Y-143609133D01*
X86103883Y-143609133D02*
X85970549Y-143609133D01*
X85970549Y-143609133D02*
X85903883Y-143642466D01*
X85903883Y-143642466D02*
X85870549Y-143675800D01*
X85870549Y-143675800D02*
X85837216Y-143742466D01*
X85837216Y-143742466D02*
X85837216Y-143875800D01*
X85837216Y-143875800D02*
X85870549Y-143942466D01*
X85870549Y-143942466D02*
X85903883Y-143975800D01*
X85903883Y-143975800D02*
X85970549Y-144009133D01*
X85970549Y-144009133D02*
X86103883Y-144009133D01*
X86103883Y-144009133D02*
X86170549Y-143975800D01*
X86170549Y-143975800D02*
X86203883Y-143942466D01*
X86203883Y-143942466D02*
X86237216Y-143875800D01*
X86237216Y-143875800D02*
X86237216Y-143742466D01*
X86237216Y-143742466D02*
X86203883Y-143675800D01*
X86203883Y-143675800D02*
X86170549Y-143642466D01*
X86170549Y-143642466D02*
X86103883Y-143609133D01*
X109661533Y-95222544D02*
X110361533Y-94989211D01*
X110361533Y-94989211D02*
X109661533Y-94755877D01*
X109728200Y-94555877D02*
X109694866Y-94522544D01*
X109694866Y-94522544D02*
X109661533Y-94455877D01*
X109661533Y-94455877D02*
X109661533Y-94289211D01*
X109661533Y-94289211D02*
X109694866Y-94222544D01*
X109694866Y-94222544D02*
X109728200Y-94189211D01*
X109728200Y-94189211D02*
X109794866Y-94155877D01*
X109794866Y-94155877D02*
X109861533Y-94155877D01*
X109861533Y-94155877D02*
X109961533Y-94189211D01*
X109961533Y-94189211D02*
X110361533Y-94589211D01*
X110361533Y-94589211D02*
X110361533Y-94155877D01*
X110294866Y-93855877D02*
X110328200Y-93822544D01*
X110328200Y-93822544D02*
X110361533Y-93855877D01*
X110361533Y-93855877D02*
X110328200Y-93889210D01*
X110328200Y-93889210D02*
X110294866Y-93855877D01*
X110294866Y-93855877D02*
X110361533Y-93855877D01*
X109661533Y-93389211D02*
X109661533Y-93322544D01*
X109661533Y-93322544D02*
X109694866Y-93255877D01*
X109694866Y-93255877D02*
X109728200Y-93222544D01*
X109728200Y-93222544D02*
X109794866Y-93189211D01*
X109794866Y-93189211D02*
X109928200Y-93155877D01*
X109928200Y-93155877D02*
X110094866Y-93155877D01*
X110094866Y-93155877D02*
X110228200Y-93189211D01*
X110228200Y-93189211D02*
X110294866Y-93222544D01*
X110294866Y-93222544D02*
X110328200Y-93255877D01*
X110328200Y-93255877D02*
X110361533Y-93322544D01*
X110361533Y-93322544D02*
X110361533Y-93389211D01*
X110361533Y-93389211D02*
X110328200Y-93455877D01*
X110328200Y-93455877D02*
X110294866Y-93489211D01*
X110294866Y-93489211D02*
X110228200Y-93522544D01*
X110228200Y-93522544D02*
X110094866Y-93555877D01*
X110094866Y-93555877D02*
X109928200Y-93555877D01*
X109928200Y-93555877D02*
X109794866Y-93522544D01*
X109794866Y-93522544D02*
X109728200Y-93489211D01*
X109728200Y-93489211D02*
X109694866Y-93455877D01*
X109694866Y-93455877D02*
X109661533Y-93389211D01*
X109728200Y-92355877D02*
X109694866Y-92322544D01*
X109694866Y-92322544D02*
X109661533Y-92255877D01*
X109661533Y-92255877D02*
X109661533Y-92089211D01*
X109661533Y-92089211D02*
X109694866Y-92022544D01*
X109694866Y-92022544D02*
X109728200Y-91989211D01*
X109728200Y-91989211D02*
X109794866Y-91955877D01*
X109794866Y-91955877D02*
X109861533Y-91955877D01*
X109861533Y-91955877D02*
X109961533Y-91989211D01*
X109961533Y-91989211D02*
X110361533Y-92389211D01*
X110361533Y-92389211D02*
X110361533Y-91955877D01*
X109661533Y-91522544D02*
X109661533Y-91455877D01*
X109661533Y-91455877D02*
X109694866Y-91389210D01*
X109694866Y-91389210D02*
X109728200Y-91355877D01*
X109728200Y-91355877D02*
X109794866Y-91322544D01*
X109794866Y-91322544D02*
X109928200Y-91289210D01*
X109928200Y-91289210D02*
X110094866Y-91289210D01*
X110094866Y-91289210D02*
X110228200Y-91322544D01*
X110228200Y-91322544D02*
X110294866Y-91355877D01*
X110294866Y-91355877D02*
X110328200Y-91389210D01*
X110328200Y-91389210D02*
X110361533Y-91455877D01*
X110361533Y-91455877D02*
X110361533Y-91522544D01*
X110361533Y-91522544D02*
X110328200Y-91589210D01*
X110328200Y-91589210D02*
X110294866Y-91622544D01*
X110294866Y-91622544D02*
X110228200Y-91655877D01*
X110228200Y-91655877D02*
X110094866Y-91689210D01*
X110094866Y-91689210D02*
X109928200Y-91689210D01*
X109928200Y-91689210D02*
X109794866Y-91655877D01*
X109794866Y-91655877D02*
X109728200Y-91622544D01*
X109728200Y-91622544D02*
X109694866Y-91589210D01*
X109694866Y-91589210D02*
X109661533Y-91522544D01*
X109728200Y-91022543D02*
X109694866Y-90989210D01*
X109694866Y-90989210D02*
X109661533Y-90922543D01*
X109661533Y-90922543D02*
X109661533Y-90755877D01*
X109661533Y-90755877D02*
X109694866Y-90689210D01*
X109694866Y-90689210D02*
X109728200Y-90655877D01*
X109728200Y-90655877D02*
X109794866Y-90622543D01*
X109794866Y-90622543D02*
X109861533Y-90622543D01*
X109861533Y-90622543D02*
X109961533Y-90655877D01*
X109961533Y-90655877D02*
X110361533Y-91055877D01*
X110361533Y-91055877D02*
X110361533Y-90622543D01*
X109894866Y-90022543D02*
X110361533Y-90022543D01*
X109628200Y-90189210D02*
X110128200Y-90355876D01*
X110128200Y-90355876D02*
X110128200Y-89922543D01*
X78559122Y-92015800D02*
X78592455Y-91982466D01*
X78592455Y-91982466D02*
X78659122Y-91949133D01*
X78659122Y-91949133D02*
X78825789Y-91949133D01*
X78825789Y-91949133D02*
X78892455Y-91982466D01*
X78892455Y-91982466D02*
X78925789Y-92015800D01*
X78925789Y-92015800D02*
X78959122Y-92082466D01*
X78959122Y-92082466D02*
X78959122Y-92149133D01*
X78959122Y-92149133D02*
X78925789Y-92249133D01*
X78925789Y-92249133D02*
X78525789Y-92649133D01*
X78525789Y-92649133D02*
X78959122Y-92649133D01*
X85546264Y-111649133D02*
X85779598Y-112349133D01*
X85779598Y-112349133D02*
X86012931Y-111649133D01*
X86246264Y-112349133D02*
X86246264Y-111649133D01*
X86579597Y-112349133D02*
X86579597Y-111649133D01*
X86579597Y-111649133D02*
X86746264Y-111649133D01*
X86746264Y-111649133D02*
X86846264Y-111682466D01*
X86846264Y-111682466D02*
X86912931Y-111749133D01*
X86912931Y-111749133D02*
X86946264Y-111815800D01*
X86946264Y-111815800D02*
X86979597Y-111949133D01*
X86979597Y-111949133D02*
X86979597Y-112049133D01*
X86979597Y-112049133D02*
X86946264Y-112182466D01*
X86946264Y-112182466D02*
X86912931Y-112249133D01*
X86912931Y-112249133D02*
X86846264Y-112315800D01*
X86846264Y-112315800D02*
X86746264Y-112349133D01*
X86746264Y-112349133D02*
X86579597Y-112349133D01*
X87046264Y-111582466D02*
X87646264Y-112482466D01*
X88046264Y-111882466D02*
X88046264Y-112349133D01*
X87746264Y-111882466D02*
X87746264Y-112249133D01*
X87746264Y-112249133D02*
X87779598Y-112315800D01*
X87779598Y-112315800D02*
X87846264Y-112349133D01*
X87846264Y-112349133D02*
X87946264Y-112349133D01*
X87946264Y-112349133D02*
X88012931Y-112315800D01*
X88012931Y-112315800D02*
X88046264Y-112282466D01*
X87649598Y-111454800D02*
X88142931Y-111454800D01*
X78525789Y-93139133D02*
X78959122Y-93139133D01*
X78959122Y-93139133D02*
X78725789Y-93405800D01*
X78725789Y-93405800D02*
X78825789Y-93405800D01*
X78825789Y-93405800D02*
X78892455Y-93439133D01*
X78892455Y-93439133D02*
X78925789Y-93472466D01*
X78925789Y-93472466D02*
X78959122Y-93539133D01*
X78959122Y-93539133D02*
X78959122Y-93705800D01*
X78959122Y-93705800D02*
X78925789Y-93772466D01*
X78925789Y-93772466D02*
X78892455Y-93805800D01*
X78892455Y-93805800D02*
X78825789Y-93839133D01*
X78825789Y-93839133D02*
X78625789Y-93839133D01*
X78625789Y-93839133D02*
X78559122Y-93805800D01*
X78559122Y-93805800D02*
X78525789Y-93772466D01*
X78332930Y-114119133D02*
X78566264Y-114819133D01*
X78566264Y-114819133D02*
X78799597Y-114119133D01*
X79432930Y-114752466D02*
X79399597Y-114785800D01*
X79399597Y-114785800D02*
X79299597Y-114819133D01*
X79299597Y-114819133D02*
X79232930Y-114819133D01*
X79232930Y-114819133D02*
X79132930Y-114785800D01*
X79132930Y-114785800D02*
X79066264Y-114719133D01*
X79066264Y-114719133D02*
X79032930Y-114652466D01*
X79032930Y-114652466D02*
X78999597Y-114519133D01*
X78999597Y-114519133D02*
X78999597Y-114419133D01*
X78999597Y-114419133D02*
X79032930Y-114285800D01*
X79032930Y-114285800D02*
X79066264Y-114219133D01*
X79066264Y-114219133D02*
X79132930Y-114152466D01*
X79132930Y-114152466D02*
X79232930Y-114119133D01*
X79232930Y-114119133D02*
X79299597Y-114119133D01*
X79299597Y-114119133D02*
X79399597Y-114152466D01*
X79399597Y-114152466D02*
X79432930Y-114185800D01*
X80132930Y-114752466D02*
X80099597Y-114785800D01*
X80099597Y-114785800D02*
X79999597Y-114819133D01*
X79999597Y-114819133D02*
X79932930Y-114819133D01*
X79932930Y-114819133D02*
X79832930Y-114785800D01*
X79832930Y-114785800D02*
X79766264Y-114719133D01*
X79766264Y-114719133D02*
X79732930Y-114652466D01*
X79732930Y-114652466D02*
X79699597Y-114519133D01*
X79699597Y-114519133D02*
X79699597Y-114419133D01*
X79699597Y-114419133D02*
X79732930Y-114285800D01*
X79732930Y-114285800D02*
X79766264Y-114219133D01*
X79766264Y-114219133D02*
X79832930Y-114152466D01*
X79832930Y-114152466D02*
X79932930Y-114119133D01*
X79932930Y-114119133D02*
X79999597Y-114119133D01*
X79999597Y-114119133D02*
X80099597Y-114152466D01*
X80099597Y-114152466D02*
X80132930Y-114185800D01*
X78466263Y-106631633D02*
X78699597Y-107331633D01*
X78699597Y-107331633D02*
X78932930Y-106631633D01*
X79132930Y-107131633D02*
X79466263Y-107131633D01*
X79066263Y-107331633D02*
X79299597Y-106631633D01*
X79299597Y-106631633D02*
X79532930Y-107331633D01*
X80132930Y-107331633D02*
X79732930Y-107331633D01*
X79932930Y-107331633D02*
X79932930Y-106631633D01*
X79932930Y-106631633D02*
X79866263Y-106731633D01*
X79866263Y-106731633D02*
X79799597Y-106798300D01*
X79799597Y-106798300D02*
X79732930Y-106831633D01*
X86279597Y-114439133D02*
X86279597Y-113739133D01*
X86279597Y-113739133D02*
X86446264Y-113739133D01*
X86446264Y-113739133D02*
X86546264Y-113772466D01*
X86546264Y-113772466D02*
X86612931Y-113839133D01*
X86612931Y-113839133D02*
X86646264Y-113905800D01*
X86646264Y-113905800D02*
X86679597Y-114039133D01*
X86679597Y-114039133D02*
X86679597Y-114139133D01*
X86679597Y-114139133D02*
X86646264Y-114272466D01*
X86646264Y-114272466D02*
X86612931Y-114339133D01*
X86612931Y-114339133D02*
X86546264Y-114405800D01*
X86546264Y-114405800D02*
X86446264Y-114439133D01*
X86446264Y-114439133D02*
X86279597Y-114439133D01*
X86979597Y-114439133D02*
X86979597Y-113739133D01*
X86979597Y-113739133D02*
X87212931Y-114239133D01*
X87212931Y-114239133D02*
X87446264Y-113739133D01*
X87446264Y-113739133D02*
X87446264Y-114439133D01*
X87746264Y-114239133D02*
X88079597Y-114239133D01*
X87679597Y-114439133D02*
X87912931Y-113739133D01*
X87912931Y-113739133D02*
X88146264Y-114439133D01*
X109779122Y-143619133D02*
X109379122Y-143619133D01*
X109579122Y-143619133D02*
X109579122Y-142919133D01*
X109579122Y-142919133D02*
X109512455Y-143019133D01*
X109512455Y-143019133D02*
X109445789Y-143085800D01*
X109445789Y-143085800D02*
X109379122Y-143119133D01*
X109730455Y-136589133D02*
X109597122Y-136589133D01*
X109597122Y-136589133D02*
X109530455Y-136622466D01*
X109530455Y-136622466D02*
X109497122Y-136655800D01*
X109497122Y-136655800D02*
X109430455Y-136755800D01*
X109430455Y-136755800D02*
X109397122Y-136889133D01*
X109397122Y-136889133D02*
X109397122Y-137155800D01*
X109397122Y-137155800D02*
X109430455Y-137222466D01*
X109430455Y-137222466D02*
X109463789Y-137255800D01*
X109463789Y-137255800D02*
X109530455Y-137289133D01*
X109530455Y-137289133D02*
X109663789Y-137289133D01*
X109663789Y-137289133D02*
X109730455Y-137255800D01*
X109730455Y-137255800D02*
X109763789Y-137222466D01*
X109763789Y-137222466D02*
X109797122Y-137155800D01*
X109797122Y-137155800D02*
X109797122Y-136989133D01*
X109797122Y-136989133D02*
X109763789Y-136922466D01*
X109763789Y-136922466D02*
X109730455Y-136889133D01*
X109730455Y-136889133D02*
X109663789Y-136855800D01*
X109663789Y-136855800D02*
X109530455Y-136855800D01*
X109530455Y-136855800D02*
X109463789Y-136889133D01*
X109463789Y-136889133D02*
X109430455Y-136922466D01*
X109430455Y-136922466D02*
X109397122Y-136989133D01*
X84570549Y-133289133D02*
X84803883Y-133989133D01*
X84803883Y-133989133D02*
X85037216Y-133289133D01*
X85237216Y-133789133D02*
X85570549Y-133789133D01*
X85170549Y-133989133D02*
X85403883Y-133289133D01*
X85403883Y-133289133D02*
X85637216Y-133989133D01*
X86203883Y-133289133D02*
X85870549Y-133289133D01*
X85870549Y-133289133D02*
X85837216Y-133622466D01*
X85837216Y-133622466D02*
X85870549Y-133589133D01*
X85870549Y-133589133D02*
X85937216Y-133555800D01*
X85937216Y-133555800D02*
X86103883Y-133555800D01*
X86103883Y-133555800D02*
X86170549Y-133589133D01*
X86170549Y-133589133D02*
X86203883Y-133622466D01*
X86203883Y-133622466D02*
X86237216Y-133689133D01*
X86237216Y-133689133D02*
X86237216Y-133855800D01*
X86237216Y-133855800D02*
X86203883Y-133922466D01*
X86203883Y-133922466D02*
X86170549Y-133955800D01*
X86170549Y-133955800D02*
X86103883Y-133989133D01*
X86103883Y-133989133D02*
X85937216Y-133989133D01*
X85937216Y-133989133D02*
X85870549Y-133955800D01*
X85870549Y-133955800D02*
X85837216Y-133922466D01*
X86812930Y-99589133D02*
X86579597Y-99255800D01*
X86412930Y-99589133D02*
X86412930Y-98889133D01*
X86412930Y-98889133D02*
X86679597Y-98889133D01*
X86679597Y-98889133D02*
X86746264Y-98922466D01*
X86746264Y-98922466D02*
X86779597Y-98955800D01*
X86779597Y-98955800D02*
X86812930Y-99022466D01*
X86812930Y-99022466D02*
X86812930Y-99122466D01*
X86812930Y-99122466D02*
X86779597Y-99189133D01*
X86779597Y-99189133D02*
X86746264Y-99222466D01*
X86746264Y-99222466D02*
X86679597Y-99255800D01*
X86679597Y-99255800D02*
X86412930Y-99255800D01*
X87079597Y-99389133D02*
X87412930Y-99389133D01*
X87012930Y-99589133D02*
X87246264Y-98889133D01*
X87246264Y-98889133D02*
X87479597Y-99589133D01*
X87846264Y-98889133D02*
X87912930Y-98889133D01*
X87912930Y-98889133D02*
X87979597Y-98922466D01*
X87979597Y-98922466D02*
X88012930Y-98955800D01*
X88012930Y-98955800D02*
X88046264Y-99022466D01*
X88046264Y-99022466D02*
X88079597Y-99155800D01*
X88079597Y-99155800D02*
X88079597Y-99322466D01*
X88079597Y-99322466D02*
X88046264Y-99455800D01*
X88046264Y-99455800D02*
X88012930Y-99522466D01*
X88012930Y-99522466D02*
X87979597Y-99555800D01*
X87979597Y-99555800D02*
X87912930Y-99589133D01*
X87912930Y-99589133D02*
X87846264Y-99589133D01*
X87846264Y-99589133D02*
X87779597Y-99555800D01*
X87779597Y-99555800D02*
X87746264Y-99522466D01*
X87746264Y-99522466D02*
X87712930Y-99455800D01*
X87712930Y-99455800D02*
X87679597Y-99322466D01*
X87679597Y-99322466D02*
X87679597Y-99155800D01*
X87679597Y-99155800D02*
X87712930Y-99022466D01*
X87712930Y-99022466D02*
X87746264Y-98955800D01*
X87746264Y-98955800D02*
X87779597Y-98922466D01*
X87779597Y-98922466D02*
X87846264Y-98889133D01*
X78959122Y-91459133D02*
X78559122Y-91459133D01*
X78759122Y-91459133D02*
X78759122Y-90759133D01*
X78759122Y-90759133D02*
X78692455Y-90859133D01*
X78692455Y-90859133D02*
X78625789Y-90925800D01*
X78625789Y-90925800D02*
X78559122Y-90959133D01*
X84570549Y-131189133D02*
X84903882Y-131189133D01*
X84503882Y-131389133D02*
X84737216Y-130689133D01*
X84737216Y-130689133D02*
X84970549Y-131389133D01*
X85570549Y-131389133D02*
X85170549Y-131389133D01*
X85370549Y-131389133D02*
X85370549Y-130689133D01*
X85370549Y-130689133D02*
X85303882Y-130789133D01*
X85303882Y-130789133D02*
X85237216Y-130855800D01*
X85237216Y-130855800D02*
X85170549Y-130889133D01*
X85970549Y-130989133D02*
X85903883Y-130955800D01*
X85903883Y-130955800D02*
X85870549Y-130922466D01*
X85870549Y-130922466D02*
X85837216Y-130855800D01*
X85837216Y-130855800D02*
X85837216Y-130822466D01*
X85837216Y-130822466D02*
X85870549Y-130755800D01*
X85870549Y-130755800D02*
X85903883Y-130722466D01*
X85903883Y-130722466D02*
X85970549Y-130689133D01*
X85970549Y-130689133D02*
X86103883Y-130689133D01*
X86103883Y-130689133D02*
X86170549Y-130722466D01*
X86170549Y-130722466D02*
X86203883Y-130755800D01*
X86203883Y-130755800D02*
X86237216Y-130822466D01*
X86237216Y-130822466D02*
X86237216Y-130855800D01*
X86237216Y-130855800D02*
X86203883Y-130922466D01*
X86203883Y-130922466D02*
X86170549Y-130955800D01*
X86170549Y-130955800D02*
X86103883Y-130989133D01*
X86103883Y-130989133D02*
X85970549Y-130989133D01*
X85970549Y-130989133D02*
X85903883Y-131022466D01*
X85903883Y-131022466D02*
X85870549Y-131055800D01*
X85870549Y-131055800D02*
X85837216Y-131122466D01*
X85837216Y-131122466D02*
X85837216Y-131255800D01*
X85837216Y-131255800D02*
X85870549Y-131322466D01*
X85870549Y-131322466D02*
X85903883Y-131355800D01*
X85903883Y-131355800D02*
X85970549Y-131389133D01*
X85970549Y-131389133D02*
X86103883Y-131389133D01*
X86103883Y-131389133D02*
X86170549Y-131355800D01*
X86170549Y-131355800D02*
X86203883Y-131322466D01*
X86203883Y-131322466D02*
X86237216Y-131255800D01*
X86237216Y-131255800D02*
X86237216Y-131122466D01*
X86237216Y-131122466D02*
X86203883Y-131055800D01*
X86203883Y-131055800D02*
X86170549Y-131022466D01*
X86170549Y-131022466D02*
X86103883Y-130989133D01*
X84570549Y-125599133D02*
X84803883Y-126299133D01*
X84803883Y-126299133D02*
X85037216Y-125599133D01*
X85237216Y-126099133D02*
X85570549Y-126099133D01*
X85170549Y-126299133D02*
X85403883Y-125599133D01*
X85403883Y-125599133D02*
X85637216Y-126299133D01*
X86170549Y-125599133D02*
X86037216Y-125599133D01*
X86037216Y-125599133D02*
X85970549Y-125632466D01*
X85970549Y-125632466D02*
X85937216Y-125665800D01*
X85937216Y-125665800D02*
X85870549Y-125765800D01*
X85870549Y-125765800D02*
X85837216Y-125899133D01*
X85837216Y-125899133D02*
X85837216Y-126165800D01*
X85837216Y-126165800D02*
X85870549Y-126232466D01*
X85870549Y-126232466D02*
X85903883Y-126265800D01*
X85903883Y-126265800D02*
X85970549Y-126299133D01*
X85970549Y-126299133D02*
X86103883Y-126299133D01*
X86103883Y-126299133D02*
X86170549Y-126265800D01*
X86170549Y-126265800D02*
X86203883Y-126232466D01*
X86203883Y-126232466D02*
X86237216Y-126165800D01*
X86237216Y-126165800D02*
X86237216Y-125999133D01*
X86237216Y-125999133D02*
X86203883Y-125932466D01*
X86203883Y-125932466D02*
X86170549Y-125899133D01*
X86170549Y-125899133D02*
X86103883Y-125865800D01*
X86103883Y-125865800D02*
X85970549Y-125865800D01*
X85970549Y-125865800D02*
X85903883Y-125899133D01*
X85903883Y-125899133D02*
X85870549Y-125932466D01*
X85870549Y-125932466D02*
X85837216Y-125999133D01*
X78466263Y-99579133D02*
X78799596Y-99579133D01*
X78399596Y-99779133D02*
X78632930Y-99079133D01*
X78632930Y-99079133D02*
X78866263Y-99779133D01*
X79466263Y-99779133D02*
X79066263Y-99779133D01*
X79266263Y-99779133D02*
X79266263Y-99079133D01*
X79266263Y-99079133D02*
X79199596Y-99179133D01*
X79199596Y-99179133D02*
X79132930Y-99245800D01*
X79132930Y-99245800D02*
X79066263Y-99279133D01*
X79899597Y-99079133D02*
X79966263Y-99079133D01*
X79966263Y-99079133D02*
X80032930Y-99112466D01*
X80032930Y-99112466D02*
X80066263Y-99145800D01*
X80066263Y-99145800D02*
X80099597Y-99212466D01*
X80099597Y-99212466D02*
X80132930Y-99345800D01*
X80132930Y-99345800D02*
X80132930Y-99512466D01*
X80132930Y-99512466D02*
X80099597Y-99645800D01*
X80099597Y-99645800D02*
X80066263Y-99712466D01*
X80066263Y-99712466D02*
X80032930Y-99745800D01*
X80032930Y-99745800D02*
X79966263Y-99779133D01*
X79966263Y-99779133D02*
X79899597Y-99779133D01*
X79899597Y-99779133D02*
X79832930Y-99745800D01*
X79832930Y-99745800D02*
X79799597Y-99712466D01*
X79799597Y-99712466D02*
X79766263Y-99645800D01*
X79766263Y-99645800D02*
X79732930Y-99512466D01*
X79732930Y-99512466D02*
X79732930Y-99345800D01*
X79732930Y-99345800D02*
X79766263Y-99212466D01*
X79766263Y-99212466D02*
X79799597Y-99145800D01*
X79799597Y-99145800D02*
X79832930Y-99112466D01*
X79832930Y-99112466D02*
X79899597Y-99079133D01*
X81369122Y-118575800D02*
X81402455Y-118542466D01*
X81402455Y-118542466D02*
X81469122Y-118509133D01*
X81469122Y-118509133D02*
X81635789Y-118509133D01*
X81635789Y-118509133D02*
X81702455Y-118542466D01*
X81702455Y-118542466D02*
X81735789Y-118575800D01*
X81735789Y-118575800D02*
X81769122Y-118642466D01*
X81769122Y-118642466D02*
X81769122Y-118709133D01*
X81769122Y-118709133D02*
X81735789Y-118809133D01*
X81735789Y-118809133D02*
X81335789Y-119209133D01*
X81335789Y-119209133D02*
X81769122Y-119209133D01*
X78666263Y-109782466D02*
X78632930Y-109815800D01*
X78632930Y-109815800D02*
X78532930Y-109849133D01*
X78532930Y-109849133D02*
X78466263Y-109849133D01*
X78466263Y-109849133D02*
X78366263Y-109815800D01*
X78366263Y-109815800D02*
X78299597Y-109749133D01*
X78299597Y-109749133D02*
X78266263Y-109682466D01*
X78266263Y-109682466D02*
X78232930Y-109549133D01*
X78232930Y-109549133D02*
X78232930Y-109449133D01*
X78232930Y-109449133D02*
X78266263Y-109315800D01*
X78266263Y-109315800D02*
X78299597Y-109249133D01*
X78299597Y-109249133D02*
X78366263Y-109182466D01*
X78366263Y-109182466D02*
X78466263Y-109149133D01*
X78466263Y-109149133D02*
X78532930Y-109149133D01*
X78532930Y-109149133D02*
X78632930Y-109182466D01*
X78632930Y-109182466D02*
X78666263Y-109215800D01*
X78932930Y-109215800D02*
X78966263Y-109182466D01*
X78966263Y-109182466D02*
X79032930Y-109149133D01*
X79032930Y-109149133D02*
X79199597Y-109149133D01*
X79199597Y-109149133D02*
X79266263Y-109182466D01*
X79266263Y-109182466D02*
X79299597Y-109215800D01*
X79299597Y-109215800D02*
X79332930Y-109282466D01*
X79332930Y-109282466D02*
X79332930Y-109349133D01*
X79332930Y-109349133D02*
X79299597Y-109449133D01*
X79299597Y-109449133D02*
X78899597Y-109849133D01*
X78899597Y-109849133D02*
X79332930Y-109849133D01*
X79632930Y-109849133D02*
X79632930Y-109149133D01*
X79632930Y-109149133D02*
X79866264Y-109649133D01*
X79866264Y-109649133D02*
X80099597Y-109149133D01*
X80099597Y-109149133D02*
X80099597Y-109849133D01*
X86412930Y-109131633D02*
X86646264Y-109831633D01*
X86646264Y-109831633D02*
X86879597Y-109131633D01*
X87079597Y-109631633D02*
X87412930Y-109631633D01*
X87012930Y-109831633D02*
X87246264Y-109131633D01*
X87246264Y-109131633D02*
X87479597Y-109831633D01*
X87846264Y-109131633D02*
X87912930Y-109131633D01*
X87912930Y-109131633D02*
X87979597Y-109164966D01*
X87979597Y-109164966D02*
X88012930Y-109198300D01*
X88012930Y-109198300D02*
X88046264Y-109264966D01*
X88046264Y-109264966D02*
X88079597Y-109398300D01*
X88079597Y-109398300D02*
X88079597Y-109564966D01*
X88079597Y-109564966D02*
X88046264Y-109698300D01*
X88046264Y-109698300D02*
X88012930Y-109764966D01*
X88012930Y-109764966D02*
X87979597Y-109798300D01*
X87979597Y-109798300D02*
X87912930Y-109831633D01*
X87912930Y-109831633D02*
X87846264Y-109831633D01*
X87846264Y-109831633D02*
X87779597Y-109798300D01*
X87779597Y-109798300D02*
X87746264Y-109764966D01*
X87746264Y-109764966D02*
X87712930Y-109698300D01*
X87712930Y-109698300D02*
X87679597Y-109564966D01*
X87679597Y-109564966D02*
X87679597Y-109398300D01*
X87679597Y-109398300D02*
X87712930Y-109264966D01*
X87712930Y-109264966D02*
X87746264Y-109198300D01*
X87746264Y-109198300D02*
X87779597Y-109164966D01*
X87779597Y-109164966D02*
X87846264Y-109131633D01*
X87079597Y-104596633D02*
X87412930Y-104596633D01*
X87012930Y-104796633D02*
X87246264Y-104096633D01*
X87246264Y-104096633D02*
X87479597Y-104796633D01*
X88079597Y-104796633D02*
X87679597Y-104796633D01*
X87879597Y-104796633D02*
X87879597Y-104096633D01*
X87879597Y-104096633D02*
X87812930Y-104196633D01*
X87812930Y-104196633D02*
X87746264Y-104263300D01*
X87746264Y-104263300D02*
X87679597Y-104296633D01*
X84570549Y-141369133D02*
X84903882Y-141369133D01*
X84503882Y-141569133D02*
X84737216Y-140869133D01*
X84737216Y-140869133D02*
X84970549Y-141569133D01*
X85570549Y-141569133D02*
X85170549Y-141569133D01*
X85370549Y-141569133D02*
X85370549Y-140869133D01*
X85370549Y-140869133D02*
X85303882Y-140969133D01*
X85303882Y-140969133D02*
X85237216Y-141035800D01*
X85237216Y-141035800D02*
X85170549Y-141069133D01*
X85903883Y-141569133D02*
X86037216Y-141569133D01*
X86037216Y-141569133D02*
X86103883Y-141535800D01*
X86103883Y-141535800D02*
X86137216Y-141502466D01*
X86137216Y-141502466D02*
X86203883Y-141402466D01*
X86203883Y-141402466D02*
X86237216Y-141269133D01*
X86237216Y-141269133D02*
X86237216Y-141002466D01*
X86237216Y-141002466D02*
X86203883Y-140935800D01*
X86203883Y-140935800D02*
X86170549Y-140902466D01*
X86170549Y-140902466D02*
X86103883Y-140869133D01*
X86103883Y-140869133D02*
X85970549Y-140869133D01*
X85970549Y-140869133D02*
X85903883Y-140902466D01*
X85903883Y-140902466D02*
X85870549Y-140935800D01*
X85870549Y-140935800D02*
X85837216Y-141002466D01*
X85837216Y-141002466D02*
X85837216Y-141169133D01*
X85837216Y-141169133D02*
X85870549Y-141235800D01*
X85870549Y-141235800D02*
X85903883Y-141269133D01*
X85903883Y-141269133D02*
X85970549Y-141302466D01*
X85970549Y-141302466D02*
X86103883Y-141302466D01*
X86103883Y-141302466D02*
X86170549Y-141269133D01*
X86170549Y-141269133D02*
X86203883Y-141235800D01*
X86203883Y-141235800D02*
X86237216Y-141169133D01*
X78466263Y-104114133D02*
X78699597Y-104814133D01*
X78699597Y-104814133D02*
X78932930Y-104114133D01*
X79132930Y-104614133D02*
X79466263Y-104614133D01*
X79066263Y-104814133D02*
X79299597Y-104114133D01*
X79299597Y-104114133D02*
X79532930Y-104814133D01*
X79799597Y-104814133D02*
X79932930Y-104814133D01*
X79932930Y-104814133D02*
X79999597Y-104780800D01*
X79999597Y-104780800D02*
X80032930Y-104747466D01*
X80032930Y-104747466D02*
X80099597Y-104647466D01*
X80099597Y-104647466D02*
X80132930Y-104514133D01*
X80132930Y-104514133D02*
X80132930Y-104247466D01*
X80132930Y-104247466D02*
X80099597Y-104180800D01*
X80099597Y-104180800D02*
X80066263Y-104147466D01*
X80066263Y-104147466D02*
X79999597Y-104114133D01*
X79999597Y-104114133D02*
X79866263Y-104114133D01*
X79866263Y-104114133D02*
X79799597Y-104147466D01*
X79799597Y-104147466D02*
X79766263Y-104180800D01*
X79766263Y-104180800D02*
X79732930Y-104247466D01*
X79732930Y-104247466D02*
X79732930Y-104414133D01*
X79732930Y-104414133D02*
X79766263Y-104480800D01*
X79766263Y-104480800D02*
X79799597Y-104514133D01*
X79799597Y-104514133D02*
X79866263Y-104547466D01*
X79866263Y-104547466D02*
X79999597Y-104547466D01*
X79999597Y-104547466D02*
X80066263Y-104514133D01*
X80066263Y-104514133D02*
X80099597Y-104480800D01*
X80099597Y-104480800D02*
X80132930Y-104414133D01*
D12*
G36*
X81019528Y-143365261D02*
G01*
X81019528Y-142696903D01*
X81254002Y-142762848D01*
X81254002Y-143027950D01*
X81441580Y-143080706D01*
X81441580Y-142844621D01*
X81676053Y-142910237D01*
X81676053Y-143146322D01*
X82145000Y-143277883D01*
X82145000Y-143681140D01*
X81019528Y-143365261D01*
G37*
G36*
X81456729Y-141902630D02*
G01*
X81510405Y-141912717D01*
X81550512Y-141923032D01*
X81772529Y-141985350D01*
X81823169Y-142000290D01*
X81873430Y-142017209D01*
X81920266Y-142036046D01*
X81953269Y-142052615D01*
X81999132Y-142085178D01*
X82039392Y-142125958D01*
X82061957Y-142154501D01*
X82096166Y-142209524D01*
X82122957Y-142271224D01*
X82136695Y-142316067D01*
X82150323Y-142381683D01*
X82158294Y-142451584D01*
X82160631Y-142518850D01*
X82158989Y-142584904D01*
X82153312Y-142650527D01*
X82141148Y-142718480D01*
X82139870Y-142723611D01*
X82117544Y-142786353D01*
X82081839Y-142837193D01*
X82076612Y-142841983D01*
X82029778Y-142870669D01*
X81978440Y-142882590D01*
X81974762Y-142882869D01*
X81922361Y-142880690D01*
X81872466Y-142872300D01*
X81820492Y-142859982D01*
X81799152Y-142854183D01*
X81567121Y-142788897D01*
X81514078Y-142772276D01*
X81466295Y-142753572D01*
X81418126Y-142729646D01*
X81372147Y-142699478D01*
X81367575Y-142695914D01*
X81325028Y-142655033D01*
X81288062Y-142604105D01*
X81259565Y-142549681D01*
X81251071Y-142529731D01*
X81229819Y-142465158D01*
X81215522Y-142394220D01*
X81208653Y-142325822D01*
X81207985Y-142302219D01*
X81379054Y-142302219D01*
X81394930Y-142343435D01*
X81441925Y-142365126D01*
X81479926Y-142376737D01*
X81893918Y-142492801D01*
X81942812Y-142504640D01*
X81973053Y-142506320D01*
X81988684Y-142478623D01*
X81973297Y-142438726D01*
X81925944Y-142416778D01*
X81899535Y-142408721D01*
X81476507Y-142290019D01*
X81426832Y-142277640D01*
X81393464Y-142274521D01*
X81379054Y-142302219D01*
X81207985Y-142302219D01*
X81207107Y-142271224D01*
X81209367Y-142203924D01*
X81217181Y-142137038D01*
X81232223Y-142073059D01*
X81235683Y-142062506D01*
X81261646Y-142002559D01*
X81296187Y-141954918D01*
X81310177Y-141942156D01*
X81356950Y-141913140D01*
X81404944Y-141900610D01*
X81456729Y-141902630D01*
G37*
G36*
X81222739Y-141326554D02*
G01*
X81361224Y-141391840D01*
X81318997Y-141355317D01*
X81277140Y-141307558D01*
X81244900Y-141255510D01*
X81219441Y-141189367D01*
X81207073Y-141117385D01*
X81206374Y-141106625D01*
X81551001Y-141203236D01*
X81553252Y-141269832D01*
X81562629Y-141335433D01*
X81570052Y-141360186D01*
X81601683Y-141412903D01*
X81623541Y-141430088D01*
X81671600Y-141450555D01*
X81721651Y-141467044D01*
X81770945Y-141481673D01*
X81786695Y-141486142D01*
X82145000Y-141586709D01*
X82145000Y-141974469D01*
X81222739Y-141715633D01*
X81222739Y-141326554D01*
G37*
G36*
X81019528Y-139439192D02*
G01*
X82145000Y-139755071D01*
X82145000Y-140110188D01*
X81387847Y-139886962D01*
X82145000Y-140223285D01*
X82145000Y-140478824D01*
X81403478Y-140402327D01*
X82145000Y-140599834D01*
X82145000Y-140954951D01*
X81019528Y-140639071D01*
X81019528Y-140125355D01*
X81074620Y-140128818D01*
X81125856Y-140132658D01*
X81179921Y-140137257D01*
X81236813Y-140142612D01*
X81262062Y-140145139D01*
X81545628Y-140182398D01*
X81019528Y-139957524D01*
X81019528Y-139439192D01*
G37*
G36*
X81438171Y-138591672D02*
G01*
X81487310Y-138600806D01*
X81536392Y-138611765D01*
X81592869Y-138625768D01*
X81643373Y-138639160D01*
X81684357Y-138650483D01*
X82145000Y-138779736D01*
X82145000Y-139157604D01*
X82089068Y-139142107D01*
X82121309Y-139192520D01*
X82135230Y-139224209D01*
X82153462Y-139285439D01*
X82160532Y-139352900D01*
X82160631Y-139362365D01*
X82154517Y-139433293D01*
X82136176Y-139496709D01*
X82117156Y-139534813D01*
X82075463Y-139571359D01*
X82023790Y-139581438D01*
X81972674Y-139576944D01*
X81930310Y-139567126D01*
X81854595Y-139546024D01*
X81806219Y-139529620D01*
X81757385Y-139504710D01*
X81715849Y-139468357D01*
X81710736Y-139461613D01*
X81680030Y-139402092D01*
X81657804Y-139342164D01*
X81637204Y-139276440D01*
X81621831Y-139221901D01*
X81603144Y-139155892D01*
X81584576Y-139094559D01*
X81567835Y-139047475D01*
X81716598Y-139047475D01*
X81746985Y-139102040D01*
X81783802Y-139145640D01*
X81787916Y-139148702D01*
X81833967Y-139172627D01*
X81882927Y-139188928D01*
X81931807Y-139200867D01*
X81971343Y-139203436D01*
X81988684Y-139170793D01*
X81974518Y-139128918D01*
X81925413Y-139107026D01*
X81890743Y-139096605D01*
X81716598Y-139047475D01*
X81567835Y-139047475D01*
X81562435Y-139032287D01*
X81551734Y-139013183D01*
X81505709Y-138989196D01*
X81481147Y-138981530D01*
X81431626Y-138969944D01*
X81396395Y-138969330D01*
X81379054Y-139000324D01*
X81394441Y-139044178D01*
X81442843Y-139064707D01*
X81482857Y-139076821D01*
X81582264Y-139104518D01*
X81582264Y-139469527D01*
X81513143Y-139450073D01*
X81464050Y-139434308D01*
X81415828Y-139413567D01*
X81370948Y-139386789D01*
X81351943Y-139371927D01*
X81310819Y-139326317D01*
X81279487Y-139274919D01*
X81253572Y-139218254D01*
X81250826Y-139211350D01*
X81229693Y-139145009D01*
X81216713Y-139079908D01*
X81209199Y-139009037D01*
X81207107Y-138942292D01*
X81208919Y-138874803D01*
X81215612Y-138805502D01*
X81229301Y-138738742D01*
X81252402Y-138679501D01*
X81258642Y-138668618D01*
X81296757Y-138621091D01*
X81344459Y-138592173D01*
X81384427Y-138586186D01*
X81438171Y-138591672D01*
G37*
G36*
X81582264Y-137669542D02*
G01*
X81582264Y-138036530D01*
X81465516Y-138003886D01*
X81416572Y-137993187D01*
X81395174Y-137993665D01*
X81379054Y-138022021D01*
X81393953Y-138061919D01*
X81441031Y-138084052D01*
X81467714Y-138092254D01*
X81899780Y-138213593D01*
X81948609Y-138221553D01*
X81967923Y-138218539D01*
X81988684Y-138186556D01*
X81965237Y-138136767D01*
X81917514Y-138113171D01*
X81871203Y-138098518D01*
X81754211Y-138065875D01*
X81754211Y-137717683D01*
X81803128Y-137732259D01*
X81851648Y-137747875D01*
X81901222Y-137765830D01*
X81928600Y-137777363D01*
X81974132Y-137805175D01*
X82017019Y-137843599D01*
X82042418Y-137871666D01*
X82079202Y-137921849D01*
X82109290Y-137977642D01*
X82130833Y-138033232D01*
X82147798Y-138100445D01*
X82157110Y-138168039D01*
X82160515Y-138234160D01*
X82160631Y-138249534D01*
X82158036Y-138323949D01*
X82148913Y-138396385D01*
X82131071Y-138462858D01*
X82119110Y-138490565D01*
X82083366Y-138543548D01*
X82038418Y-138578355D01*
X82003339Y-138591461D01*
X81951089Y-138597322D01*
X81900874Y-138594128D01*
X81850800Y-138585585D01*
X81795000Y-138571678D01*
X81537812Y-138499467D01*
X81489541Y-138484429D01*
X81440986Y-138465387D01*
X81394792Y-138441600D01*
X81361224Y-138418354D01*
X81321475Y-138377044D01*
X81288044Y-138325627D01*
X81260159Y-138268064D01*
X81254246Y-138253820D01*
X81233623Y-138193851D01*
X81218892Y-138130007D01*
X81210053Y-138062289D01*
X81207107Y-137990697D01*
X81210084Y-137920898D01*
X81220549Y-137850503D01*
X81238548Y-137788715D01*
X81254734Y-137752304D01*
X81286910Y-137702407D01*
X81327869Y-137665074D01*
X81374658Y-137646132D01*
X81425891Y-137642184D01*
X81475808Y-137646398D01*
X81525997Y-137655462D01*
X81582264Y-137669542D01*
G37*
G36*
X81019528Y-137010416D02*
G01*
X81175844Y-137054270D01*
X81175844Y-137452911D01*
X81019528Y-137409057D01*
X81019528Y-137010416D01*
G37*
G36*
X81222739Y-137067459D02*
G01*
X82145000Y-137326296D01*
X82145000Y-137724937D01*
X81222739Y-137466100D01*
X81222739Y-137067459D01*
G37*
G36*
X81222739Y-136554733D02*
G01*
X81279647Y-136574516D01*
X81247921Y-136521613D01*
X81232508Y-136484171D01*
X81214276Y-136419265D01*
X81207206Y-136349433D01*
X81207107Y-136339750D01*
X81212122Y-136272161D01*
X81230648Y-136209365D01*
X81242766Y-136187745D01*
X81282578Y-136146694D01*
X81331182Y-136131032D01*
X81380344Y-136133799D01*
X81429567Y-136142751D01*
X81482209Y-136155657D01*
X81504106Y-136161697D01*
X82145000Y-136341399D01*
X82145000Y-136729159D01*
X81504839Y-136549457D01*
X81454297Y-136535914D01*
X81404487Y-136525630D01*
X81395662Y-136525387D01*
X81379054Y-136554733D01*
X81400303Y-136602213D01*
X81449513Y-136623288D01*
X81498958Y-136638782D01*
X81523157Y-136645737D01*
X82145000Y-136820163D01*
X82145000Y-137207923D01*
X81222739Y-136949087D01*
X81222739Y-136554733D01*
G37*
G36*
X81097686Y-135518728D02*
G01*
X81238370Y-135558295D01*
X81238370Y-135459377D01*
X81394685Y-135502901D01*
X81394685Y-135601819D01*
X81885614Y-135739645D01*
X81936708Y-135752946D01*
X81981357Y-135757780D01*
X81988333Y-135692334D01*
X81988684Y-135654246D01*
X82145000Y-135698100D01*
X82145000Y-135854391D01*
X82144189Y-135926235D01*
X82141074Y-135993747D01*
X82136695Y-136034422D01*
X82116119Y-136096720D01*
X82097616Y-136123119D01*
X82053754Y-136154089D01*
X82028007Y-136158070D01*
X81975047Y-136150397D01*
X81920955Y-136137666D01*
X81868038Y-136123545D01*
X81851175Y-136118832D01*
X81394685Y-135990568D01*
X81394685Y-136069373D01*
X81238370Y-136025849D01*
X81238370Y-135947044D01*
X81097686Y-135907477D01*
X81097686Y-135518728D01*
G37*
G36*
X81456729Y-134607731D02*
G01*
X81510405Y-134617818D01*
X81550512Y-134628133D01*
X81772529Y-134690451D01*
X81823169Y-134705391D01*
X81873430Y-134722310D01*
X81920266Y-134741147D01*
X81953269Y-134757716D01*
X81999132Y-134790279D01*
X82039392Y-134831059D01*
X82061957Y-134859602D01*
X82096166Y-134914625D01*
X82122957Y-134976325D01*
X82136695Y-135021168D01*
X82150323Y-135086784D01*
X82158294Y-135156685D01*
X82160631Y-135223951D01*
X82158989Y-135290005D01*
X82153312Y-135355629D01*
X82141148Y-135423581D01*
X82139870Y-135428712D01*
X82117544Y-135491454D01*
X82081839Y-135542294D01*
X82076612Y-135547084D01*
X82029778Y-135575771D01*
X81978440Y-135587691D01*
X81974762Y-135587971D01*
X81922361Y-135585791D01*
X81872466Y-135577402D01*
X81820492Y-135565083D01*
X81799152Y-135559284D01*
X81567121Y-135493998D01*
X81514078Y-135477377D01*
X81466295Y-135458673D01*
X81418126Y-135434748D01*
X81372147Y-135404579D01*
X81367575Y-135401015D01*
X81325028Y-135360134D01*
X81288062Y-135309206D01*
X81259565Y-135254782D01*
X81251071Y-135234832D01*
X81229819Y-135170259D01*
X81215522Y-135099322D01*
X81208653Y-135030924D01*
X81207985Y-135007320D01*
X81379054Y-135007320D01*
X81394930Y-135048536D01*
X81441925Y-135070227D01*
X81479926Y-135081838D01*
X81893918Y-135197903D01*
X81942812Y-135209741D01*
X81973053Y-135211421D01*
X81988684Y-135183724D01*
X81973297Y-135143827D01*
X81925944Y-135121880D01*
X81899535Y-135113822D01*
X81476507Y-134995120D01*
X81426832Y-134982741D01*
X81393464Y-134979623D01*
X81379054Y-135007320D01*
X81207985Y-135007320D01*
X81207107Y-134976325D01*
X81209367Y-134909025D01*
X81217181Y-134842139D01*
X81232223Y-134778160D01*
X81235683Y-134767608D01*
X81261646Y-134707660D01*
X81296187Y-134660019D01*
X81310177Y-134647257D01*
X81356950Y-134618241D01*
X81404944Y-134605711D01*
X81456729Y-134607731D01*
G37*
G36*
X81535369Y-133738857D02*
G01*
X81535369Y-134085071D01*
X81473332Y-134067595D01*
X81422763Y-134055376D01*
X81393220Y-134053087D01*
X81379054Y-134085401D01*
X81392487Y-134128925D01*
X81434741Y-134154314D01*
X81484079Y-134163781D01*
X81492871Y-134163546D01*
X81532194Y-134131233D01*
X81561754Y-134077856D01*
X81587492Y-134020408D01*
X81598140Y-133995055D01*
X81624241Y-133936532D01*
X81653356Y-133882478D01*
X81688675Y-133834152D01*
X81712690Y-133813046D01*
X81760237Y-133794375D01*
X81810092Y-133792984D01*
X81862915Y-133802744D01*
X81869249Y-133804473D01*
X81922143Y-133821783D01*
X81973511Y-133844805D01*
X82020480Y-133874790D01*
X82039975Y-133891521D01*
X82076765Y-133934942D01*
X82107205Y-133989039D01*
X82129368Y-134047482D01*
X82145854Y-134112835D01*
X82156235Y-134183598D01*
X82160356Y-134251909D01*
X82160631Y-134275654D01*
X82158448Y-134343784D01*
X82150774Y-134413040D01*
X82135766Y-134480815D01*
X82125704Y-134511079D01*
X82098720Y-134566629D01*
X82059163Y-134610678D01*
X82030694Y-134626154D01*
X81977457Y-134634933D01*
X81926800Y-134631294D01*
X81874051Y-134620701D01*
X81852397Y-134614944D01*
X81801106Y-134600765D01*
X81801106Y-134254551D01*
X81872180Y-134274335D01*
X81922109Y-134286746D01*
X81969145Y-134291151D01*
X81988684Y-134259167D01*
X81975983Y-134207730D01*
X81928833Y-134181259D01*
X81918098Y-134178054D01*
X81868394Y-134168245D01*
X81842871Y-134173768D01*
X81811303Y-134226854D01*
X81783383Y-134282083D01*
X81752316Y-134346097D01*
X81747372Y-134356437D01*
X81717182Y-134414218D01*
X81684110Y-134465609D01*
X81644917Y-134507882D01*
X81618900Y-134522950D01*
X81568284Y-134532540D01*
X81515550Y-134528931D01*
X81482124Y-134521301D01*
X81430284Y-134504361D01*
X81380576Y-134481855D01*
X81336040Y-134452566D01*
X81317993Y-134436231D01*
X81281380Y-134388797D01*
X81253972Y-134333666D01*
X81235928Y-134280270D01*
X81220729Y-134214737D01*
X81211160Y-134145081D01*
X81207360Y-134078868D01*
X81207107Y-134056055D01*
X81209468Y-133984133D01*
X81217520Y-133914540D01*
X81231287Y-133854921D01*
X81255410Y-133793495D01*
X81290764Y-133743850D01*
X81295767Y-133739187D01*
X81341557Y-133708786D01*
X81370505Y-133702587D01*
X81420566Y-133708580D01*
X81471139Y-133720824D01*
X81475530Y-133722041D01*
X81535369Y-133738857D01*
G37*
G36*
X81019528Y-133086985D02*
G01*
X81262794Y-133155239D01*
X81236803Y-133098147D01*
X81224448Y-133059288D01*
X81210917Y-132993195D01*
X81207107Y-132933332D01*
X81212602Y-132863965D01*
X81230959Y-132801376D01*
X81246186Y-132773084D01*
X81285116Y-132729247D01*
X81332201Y-132711235D01*
X81335334Y-132711095D01*
X81389114Y-132715959D01*
X81441458Y-132726595D01*
X81490719Y-132738978D01*
X81514120Y-132745387D01*
X82145000Y-132922451D01*
X82145000Y-133310211D01*
X81494337Y-133127541D01*
X81444099Y-133114589D01*
X81397616Y-133109077D01*
X81379054Y-133139412D01*
X81400059Y-133183595D01*
X81447713Y-133206079D01*
X81488963Y-133218876D01*
X82145000Y-133402864D01*
X82145000Y-133790624D01*
X81019528Y-133474745D01*
X81019528Y-133086985D01*
G37*
G36*
X81019528Y-131566939D02*
G01*
X82145000Y-131882819D01*
X82145000Y-132270908D01*
X81532927Y-132099120D01*
X81481354Y-132085035D01*
X81429918Y-132072165D01*
X81381371Y-132063814D01*
X81379787Y-132063839D01*
X81344127Y-132093515D01*
X81334134Y-132161290D01*
X81332206Y-132231344D01*
X81332159Y-132246509D01*
X81332159Y-132295638D01*
X81196605Y-132257719D01*
X81184381Y-132189043D01*
X81169326Y-132123644D01*
X81151439Y-132061521D01*
X81125098Y-131988475D01*
X81094333Y-131920549D01*
X81059143Y-131857743D01*
X81019528Y-131800057D01*
X81019528Y-131566939D01*
G37*
G36*
X81973053Y-130890997D02*
G01*
X82145000Y-130939138D01*
X82145000Y-131766755D01*
X82008712Y-131728836D01*
X81951703Y-131669080D01*
X81897486Y-131612390D01*
X81846061Y-131558766D01*
X81797427Y-131508207D01*
X81751584Y-131460713D01*
X81708534Y-131416285D01*
X81668275Y-131374922D01*
X81613120Y-131318625D01*
X81564247Y-131269226D01*
X81521655Y-131226724D01*
X81474637Y-131180784D01*
X81431566Y-131140601D01*
X81385830Y-131101510D01*
X81339313Y-131066379D01*
X81294317Y-131039025D01*
X81260840Y-131025526D01*
X81210717Y-131019533D01*
X81195872Y-131024537D01*
X81175844Y-131071029D01*
X81197619Y-131131420D01*
X81199047Y-131133018D01*
X81244338Y-131161264D01*
X81295767Y-131178850D01*
X81410317Y-131211163D01*
X81410317Y-131560675D01*
X81361224Y-131546826D01*
X81312581Y-131532177D01*
X81261314Y-131513776D01*
X81215655Y-131493080D01*
X81168919Y-131461362D01*
X81129306Y-131422722D01*
X81109654Y-131399438D01*
X81074059Y-131346934D01*
X81045678Y-131287845D01*
X81030764Y-131244795D01*
X81015467Y-131180480D01*
X81006521Y-131110398D01*
X81003897Y-131041683D01*
X81006026Y-130975050D01*
X81014200Y-130903612D01*
X81031486Y-130832019D01*
X81057116Y-130773079D01*
X81091092Y-130726793D01*
X81137544Y-130689018D01*
X81189705Y-130667359D01*
X81240029Y-130661628D01*
X81294724Y-130668234D01*
X81311154Y-130672388D01*
X81361423Y-130690564D01*
X81413065Y-130717066D01*
X81459379Y-130747085D01*
X81506744Y-130783478D01*
X81520471Y-130795047D01*
X81569944Y-130840935D01*
X81612000Y-130883223D01*
X81661314Y-130934867D01*
X81703063Y-130979739D01*
X81748895Y-131029875D01*
X81798810Y-131085273D01*
X81852808Y-131145934D01*
X81891075Y-131189298D01*
X81931156Y-131235001D01*
X81973053Y-131283044D01*
X81973053Y-130890997D01*
G37*
G36*
X81283572Y-129685390D02*
G01*
X81310422Y-129692107D01*
X81358473Y-129707956D01*
X81406287Y-129731082D01*
X81444755Y-129761020D01*
X81481803Y-129811296D01*
X81510873Y-129870691D01*
X81519249Y-129891922D01*
X81547933Y-129838479D01*
X81588126Y-129803225D01*
X81638162Y-129791094D01*
X81694167Y-129794654D01*
X81747009Y-129804167D01*
X81798141Y-129816575D01*
X81820401Y-129822679D01*
X81874842Y-129839625D01*
X81922762Y-129858148D01*
X81969542Y-129881250D01*
X82016039Y-129913025D01*
X82056985Y-129956800D01*
X82089500Y-130008835D01*
X82114929Y-130065633D01*
X82120087Y-130079537D01*
X82139686Y-130147692D01*
X82151722Y-130215894D01*
X82158097Y-130281454D01*
X82160591Y-130352505D01*
X82160631Y-130363103D01*
X82158749Y-130432053D01*
X82151991Y-130501656D01*
X82138512Y-130568235D01*
X82121308Y-130616994D01*
X82091214Y-130669663D01*
X82051406Y-130710235D01*
X82016772Y-130729101D01*
X81967928Y-130737879D01*
X81917210Y-130735581D01*
X81864341Y-130726775D01*
X81812718Y-130714178D01*
X81803548Y-130711625D01*
X81755783Y-130697056D01*
X81705807Y-130678546D01*
X81654945Y-130655349D01*
X81631357Y-130642712D01*
X81588714Y-130610499D01*
X81549797Y-130560635D01*
X81521681Y-130502186D01*
X81519249Y-130495654D01*
X81483076Y-130542157D01*
X81443046Y-130562588D01*
X81392010Y-130571212D01*
X81341334Y-130567287D01*
X81300163Y-130557972D01*
X81247335Y-130539332D01*
X81199677Y-130514572D01*
X81150608Y-130477949D01*
X81108575Y-130432995D01*
X81078147Y-130387833D01*
X81049215Y-130327534D01*
X81027390Y-130259156D01*
X81018672Y-130215715D01*
X81629159Y-130215715D01*
X81647965Y-130266163D01*
X81695769Y-130292303D01*
X81732229Y-130304082D01*
X81880973Y-130345957D01*
X81930724Y-130357347D01*
X81971099Y-130356179D01*
X81988684Y-130315293D01*
X81969389Y-130264515D01*
X81920397Y-130239867D01*
X81875844Y-130225936D01*
X81728810Y-130184720D01*
X81679257Y-130174041D01*
X81647233Y-130176477D01*
X81629159Y-130215715D01*
X81018672Y-130215715D01*
X81014338Y-130194118D01*
X81006507Y-130123144D01*
X81005296Y-130087451D01*
X81175844Y-130087451D01*
X81195383Y-130134602D01*
X81243435Y-130158605D01*
X81273297Y-130167904D01*
X81367575Y-130194612D01*
X81417059Y-130204419D01*
X81439626Y-130202526D01*
X81457212Y-130169223D01*
X81438649Y-130121742D01*
X81391087Y-130098294D01*
X81355118Y-130087121D01*
X81269877Y-130063051D01*
X81220113Y-130052005D01*
X81192452Y-130052500D01*
X81175844Y-130087451D01*
X81005296Y-130087451D01*
X81003897Y-130046235D01*
X81005853Y-129973094D01*
X81013363Y-129896525D01*
X81026507Y-129832174D01*
X81048960Y-129772540D01*
X81084009Y-129724750D01*
X81128201Y-129695013D01*
X81180668Y-129679660D01*
X81233363Y-129678026D01*
X81283572Y-129685390D01*
G37*
G36*
X80988265Y-128783707D02*
G01*
X82160631Y-129553951D01*
X82160631Y-129854663D01*
X80988265Y-129081781D01*
X80988265Y-128783707D01*
G37*
G36*
X81019528Y-127908279D02*
G01*
X81191475Y-127956420D01*
X81191475Y-128410785D01*
X81361713Y-128458595D01*
X81329642Y-128400352D01*
X81310933Y-128338903D01*
X81301846Y-128268899D01*
X81300896Y-128235040D01*
X81305109Y-128162479D01*
X81319921Y-128094987D01*
X81348887Y-128037556D01*
X81368307Y-128015771D01*
X81415635Y-127989793D01*
X81465455Y-127982138D01*
X81517218Y-127984318D01*
X81566743Y-127992297D01*
X81622076Y-128005879D01*
X81781078Y-128050392D01*
X81830041Y-128064851D01*
X81878729Y-128081106D01*
X81928685Y-128101018D01*
X81956444Y-128114689D01*
X82000955Y-128145259D01*
X82042806Y-128186604D01*
X82061224Y-128209321D01*
X82094151Y-128261686D01*
X82120758Y-128323324D01*
X82134986Y-128369569D01*
X82148510Y-128433009D01*
X82157025Y-128502567D01*
X82160406Y-128570401D01*
X82160631Y-128594113D01*
X82158219Y-128663603D01*
X82149740Y-128735277D01*
X82135155Y-128800064D01*
X82122041Y-128839431D01*
X82094225Y-128894944D01*
X82055087Y-128939048D01*
X82007002Y-128965387D01*
X81957663Y-128974165D01*
X81903167Y-128972727D01*
X81847267Y-128964336D01*
X81793252Y-128951843D01*
X81773995Y-128946592D01*
X81707316Y-128928128D01*
X81707316Y-128540368D01*
X81789626Y-128563449D01*
X81841589Y-128577338D01*
X81894349Y-128589716D01*
X81945453Y-128597740D01*
X81988009Y-128564056D01*
X81988684Y-128552897D01*
X81976716Y-128512011D01*
X81949849Y-128488600D01*
X81898733Y-128472858D01*
X81847615Y-128457632D01*
X81811852Y-128447055D01*
X81578112Y-128381109D01*
X81527375Y-128370285D01*
X81493360Y-128372206D01*
X81472843Y-128413422D01*
X81484323Y-128453319D01*
X81509480Y-128480027D01*
X81558495Y-128498140D01*
X81582264Y-128505087D01*
X81582264Y-128889549D01*
X81019528Y-128715453D01*
X81019528Y-127908279D01*
G37*
G36*
X81019528Y-127157819D02*
G01*
X82145000Y-127473698D01*
X82145000Y-127861788D01*
X81532927Y-127690000D01*
X81481354Y-127675914D01*
X81429918Y-127663044D01*
X81381371Y-127654693D01*
X81379787Y-127654719D01*
X81344127Y-127684394D01*
X81334134Y-127752169D01*
X81332206Y-127822223D01*
X81332159Y-127837388D01*
X81332159Y-127886517D01*
X81196605Y-127848599D01*
X81184381Y-127779922D01*
X81169326Y-127714523D01*
X81151439Y-127652400D01*
X81125098Y-127579355D01*
X81094333Y-127511429D01*
X81059143Y-127448623D01*
X81019528Y-127390936D01*
X81019528Y-127157819D01*
G37*
G36*
X81973053Y-126509574D02*
G01*
X82145000Y-126557714D01*
X82145000Y-127385331D01*
X82008712Y-127347412D01*
X81951703Y-127287657D01*
X81897486Y-127230967D01*
X81846061Y-127177342D01*
X81797427Y-127126783D01*
X81751584Y-127079289D01*
X81708534Y-127034861D01*
X81668275Y-126993498D01*
X81613120Y-126937202D01*
X81564247Y-126887803D01*
X81521655Y-126845301D01*
X81474637Y-126799360D01*
X81431566Y-126759178D01*
X81385830Y-126720087D01*
X81339313Y-126684955D01*
X81294317Y-126657601D01*
X81260840Y-126644103D01*
X81210717Y-126638110D01*
X81195872Y-126643114D01*
X81175844Y-126689605D01*
X81197619Y-126749996D01*
X81199047Y-126751594D01*
X81244338Y-126779841D01*
X81295767Y-126797426D01*
X81410317Y-126829740D01*
X81410317Y-127179251D01*
X81361224Y-127165403D01*
X81312581Y-127150753D01*
X81261314Y-127132352D01*
X81215655Y-127111657D01*
X81168919Y-127079939D01*
X81129306Y-127041299D01*
X81109654Y-127018014D01*
X81074059Y-126965510D01*
X81045678Y-126906422D01*
X81030764Y-126863372D01*
X81015467Y-126799056D01*
X81006521Y-126728974D01*
X81003897Y-126660259D01*
X81006026Y-126593626D01*
X81014200Y-126522189D01*
X81031486Y-126450595D01*
X81057116Y-126391655D01*
X81091092Y-126345369D01*
X81137544Y-126307595D01*
X81189705Y-126285936D01*
X81240029Y-126280204D01*
X81294724Y-126286810D01*
X81311154Y-126290964D01*
X81361423Y-126309141D01*
X81413065Y-126335642D01*
X81459379Y-126365661D01*
X81506744Y-126402054D01*
X81520471Y-126413623D01*
X81569944Y-126459512D01*
X81612000Y-126501799D01*
X81661314Y-126553443D01*
X81703063Y-126598316D01*
X81748895Y-126648451D01*
X81798810Y-126703849D01*
X81852808Y-126764510D01*
X81891075Y-126807874D01*
X81931156Y-126853578D01*
X81973053Y-126901620D01*
X81973053Y-126509574D01*
G37*
G36*
X81019528Y-125158349D02*
G01*
X81530240Y-125524347D01*
X82145000Y-125454774D01*
X82145000Y-125871550D01*
X81661399Y-125881772D01*
X82145000Y-126006739D01*
X82145000Y-126409996D01*
X81019528Y-126094117D01*
X81019528Y-125690860D01*
X81458433Y-125824729D01*
X81019528Y-125540833D01*
X81019528Y-125158349D01*
G37*
G36*
X80988265Y-124065961D02*
G01*
X82160631Y-124836205D01*
X82160631Y-125136917D01*
X80988265Y-124364035D01*
X80988265Y-124065961D01*
G37*
G36*
X81019528Y-123065237D02*
G01*
X81530240Y-123431235D01*
X82145000Y-123361662D01*
X82145000Y-123778438D01*
X81661399Y-123788660D01*
X82145000Y-123913627D01*
X82145000Y-124316884D01*
X81019528Y-124001004D01*
X81019528Y-123597747D01*
X81458433Y-123731617D01*
X81019528Y-123447721D01*
X81019528Y-123065237D01*
G37*
G36*
X81475820Y-122282176D02*
G01*
X81525748Y-122290243D01*
X81581287Y-122303895D01*
X81707316Y-122339176D01*
X81707316Y-122813654D01*
X81900024Y-122868060D01*
X81948811Y-122879353D01*
X81974518Y-122879600D01*
X81988684Y-122848276D01*
X81967679Y-122793541D01*
X81920435Y-122769306D01*
X81880240Y-122756612D01*
X81754211Y-122721331D01*
X81754211Y-122352695D01*
X81829682Y-122373797D01*
X81878578Y-122388816D01*
X81927305Y-122407857D01*
X81959619Y-122424576D01*
X82003604Y-122458835D01*
X82043982Y-122502943D01*
X82056828Y-122519207D01*
X82092056Y-122572623D01*
X82120071Y-122631974D01*
X82134741Y-122674839D01*
X82149481Y-122739527D01*
X82157572Y-122805163D01*
X82160606Y-122877304D01*
X82160631Y-122884876D01*
X82158103Y-122955368D01*
X82149481Y-123025322D01*
X82134741Y-123087329D01*
X82110242Y-123148348D01*
X82076556Y-123197142D01*
X82062690Y-123210317D01*
X82017817Y-123239022D01*
X81969295Y-123252802D01*
X81962550Y-123253511D01*
X81910476Y-123251607D01*
X81859777Y-123242810D01*
X81806235Y-123229441D01*
X81541964Y-123155252D01*
X81491798Y-123139118D01*
X81440362Y-123117202D01*
X81395215Y-123091576D01*
X81351943Y-123058312D01*
X81311328Y-123014237D01*
X81277105Y-122961146D01*
X81249275Y-122899038D01*
X81244476Y-122885535D01*
X81226412Y-122822286D01*
X81214260Y-122756064D01*
X81208019Y-122686869D01*
X81207720Y-122673850D01*
X81379054Y-122673850D01*
X81394930Y-122718363D01*
X81443220Y-122738778D01*
X81490429Y-122752984D01*
X81551001Y-122770130D01*
X81551001Y-122684401D01*
X81487009Y-122666266D01*
X81436982Y-122653574D01*
X81396639Y-122649120D01*
X81379054Y-122673850D01*
X81207720Y-122673850D01*
X81207107Y-122647142D01*
X81209962Y-122572644D01*
X81218525Y-122506431D01*
X81234984Y-122441843D01*
X81252780Y-122398857D01*
X81287505Y-122344441D01*
X81329214Y-122306779D01*
X81373192Y-122287079D01*
X81425628Y-122279795D01*
X81475820Y-122282176D01*
G37*
D11*
X109357789Y-140387133D02*
X109791122Y-140387133D01*
X109791122Y-140387133D02*
X109557789Y-140653800D01*
X109557789Y-140653800D02*
X109657789Y-140653800D01*
X109657789Y-140653800D02*
X109724455Y-140687133D01*
X109724455Y-140687133D02*
X109757789Y-140720466D01*
X109757789Y-140720466D02*
X109791122Y-140787133D01*
X109791122Y-140787133D02*
X109791122Y-140953800D01*
X109791122Y-140953800D02*
X109757789Y-141020466D01*
X109757789Y-141020466D02*
X109724455Y-141053800D01*
X109724455Y-141053800D02*
X109657789Y-141087133D01*
X109657789Y-141087133D02*
X109457789Y-141087133D01*
X109457789Y-141087133D02*
X109391122Y-141053800D01*
X109391122Y-141053800D02*
X109357789Y-141020466D01*
X81335789Y-117319133D02*
X81769122Y-117319133D01*
X81769122Y-117319133D02*
X81535789Y-117585800D01*
X81535789Y-117585800D02*
X81635789Y-117585800D01*
X81635789Y-117585800D02*
X81702455Y-117619133D01*
X81702455Y-117619133D02*
X81735789Y-117652466D01*
X81735789Y-117652466D02*
X81769122Y-117719133D01*
X81769122Y-117719133D02*
X81769122Y-117885800D01*
X81769122Y-117885800D02*
X81735789Y-117952466D01*
X81735789Y-117952466D02*
X81702455Y-117985800D01*
X81702455Y-117985800D02*
X81635789Y-118019133D01*
X81635789Y-118019133D02*
X81435789Y-118019133D01*
X81435789Y-118019133D02*
X81369122Y-117985800D01*
X81369122Y-117985800D02*
X81335789Y-117952466D01*
X89865789Y-89769133D02*
X90299122Y-89769133D01*
X90299122Y-89769133D02*
X90065789Y-90035800D01*
X90065789Y-90035800D02*
X90165789Y-90035800D01*
X90165789Y-90035800D02*
X90232455Y-90069133D01*
X90232455Y-90069133D02*
X90265789Y-90102466D01*
X90265789Y-90102466D02*
X90299122Y-90169133D01*
X90299122Y-90169133D02*
X90299122Y-90335800D01*
X90299122Y-90335800D02*
X90265789Y-90402466D01*
X90265789Y-90402466D02*
X90232455Y-90435800D01*
X90232455Y-90435800D02*
X90165789Y-90469133D01*
X90165789Y-90469133D02*
X89965789Y-90469133D01*
X89965789Y-90469133D02*
X89899122Y-90435800D01*
X89899122Y-90435800D02*
X89865789Y-90402466D01*
X87079597Y-102079133D02*
X87412930Y-102079133D01*
X87012930Y-102279133D02*
X87246264Y-101579133D01*
X87246264Y-101579133D02*
X87479597Y-102279133D01*
X87746264Y-102279133D02*
X87879597Y-102279133D01*
X87879597Y-102279133D02*
X87946264Y-102245800D01*
X87946264Y-102245800D02*
X87979597Y-102212466D01*
X87979597Y-102212466D02*
X88046264Y-102112466D01*
X88046264Y-102112466D02*
X88079597Y-101979133D01*
X88079597Y-101979133D02*
X88079597Y-101712466D01*
X88079597Y-101712466D02*
X88046264Y-101645800D01*
X88046264Y-101645800D02*
X88012930Y-101612466D01*
X88012930Y-101612466D02*
X87946264Y-101579133D01*
X87946264Y-101579133D02*
X87812930Y-101579133D01*
X87812930Y-101579133D02*
X87746264Y-101612466D01*
X87746264Y-101612466D02*
X87712930Y-101645800D01*
X87712930Y-101645800D02*
X87679597Y-101712466D01*
X87679597Y-101712466D02*
X87679597Y-101879133D01*
X87679597Y-101879133D02*
X87712930Y-101945800D01*
X87712930Y-101945800D02*
X87746264Y-101979133D01*
X87746264Y-101979133D02*
X87812930Y-102012466D01*
X87812930Y-102012466D02*
X87946264Y-102012466D01*
X87946264Y-102012466D02*
X88012930Y-101979133D01*
X88012930Y-101979133D02*
X88046264Y-101945800D01*
X88046264Y-101945800D02*
X88079597Y-101879133D01*
X83903882Y-128189133D02*
X84137216Y-128889133D01*
X84137216Y-128889133D02*
X84370549Y-128189133D01*
X84570549Y-128689133D02*
X84903882Y-128689133D01*
X84503882Y-128889133D02*
X84737216Y-128189133D01*
X84737216Y-128189133D02*
X84970549Y-128889133D01*
X85570549Y-128889133D02*
X85170549Y-128889133D01*
X85370549Y-128889133D02*
X85370549Y-128189133D01*
X85370549Y-128189133D02*
X85303882Y-128289133D01*
X85303882Y-128289133D02*
X85237216Y-128355800D01*
X85237216Y-128355800D02*
X85170549Y-128389133D01*
X85803883Y-128189133D02*
X86237216Y-128189133D01*
X86237216Y-128189133D02*
X86003883Y-128455800D01*
X86003883Y-128455800D02*
X86103883Y-128455800D01*
X86103883Y-128455800D02*
X86170549Y-128489133D01*
X86170549Y-128489133D02*
X86203883Y-128522466D01*
X86203883Y-128522466D02*
X86237216Y-128589133D01*
X86237216Y-128589133D02*
X86237216Y-128755800D01*
X86237216Y-128755800D02*
X86203883Y-128822466D01*
X86203883Y-128822466D02*
X86170549Y-128855800D01*
X86170549Y-128855800D02*
X86103883Y-128889133D01*
X86103883Y-128889133D02*
X85903883Y-128889133D01*
X85903883Y-128889133D02*
X85837216Y-128855800D01*
X85837216Y-128855800D02*
X85803883Y-128822466D01*
X79132930Y-102096633D02*
X79466263Y-102096633D01*
X79066263Y-102296633D02*
X79299597Y-101596633D01*
X79299597Y-101596633D02*
X79532930Y-102296633D01*
X79732930Y-101663300D02*
X79766263Y-101629966D01*
X79766263Y-101629966D02*
X79832930Y-101596633D01*
X79832930Y-101596633D02*
X79999597Y-101596633D01*
X79999597Y-101596633D02*
X80066263Y-101629966D01*
X80066263Y-101629966D02*
X80099597Y-101663300D01*
X80099597Y-101663300D02*
X80132930Y-101729966D01*
X80132930Y-101729966D02*
X80132930Y-101796633D01*
X80132930Y-101796633D02*
X80099597Y-101896633D01*
X80099597Y-101896633D02*
X79699597Y-102296633D01*
X79699597Y-102296633D02*
X80132930Y-102296633D01*
X109385122Y-141719800D02*
X109418455Y-141686466D01*
X109418455Y-141686466D02*
X109485122Y-141653133D01*
X109485122Y-141653133D02*
X109651789Y-141653133D01*
X109651789Y-141653133D02*
X109718455Y-141686466D01*
X109718455Y-141686466D02*
X109751789Y-141719800D01*
X109751789Y-141719800D02*
X109785122Y-141786466D01*
X109785122Y-141786466D02*
X109785122Y-141853133D01*
X109785122Y-141853133D02*
X109751789Y-141953133D01*
X109751789Y-141953133D02*
X109351789Y-142353133D01*
X109351789Y-142353133D02*
X109785122Y-142353133D01*
X90299122Y-92849133D02*
X89899122Y-92849133D01*
X90099122Y-92849133D02*
X90099122Y-92149133D01*
X90099122Y-92149133D02*
X90032455Y-92249133D01*
X90032455Y-92249133D02*
X89965789Y-92315800D01*
X89965789Y-92315800D02*
X89899122Y-92349133D01*
X86412930Y-106614133D02*
X86646264Y-107314133D01*
X86646264Y-107314133D02*
X86879597Y-106614133D01*
X87079597Y-107114133D02*
X87412930Y-107114133D01*
X87012930Y-107314133D02*
X87246264Y-106614133D01*
X87246264Y-106614133D02*
X87479597Y-107314133D01*
X87812930Y-106914133D02*
X87746264Y-106880800D01*
X87746264Y-106880800D02*
X87712930Y-106847466D01*
X87712930Y-106847466D02*
X87679597Y-106780800D01*
X87679597Y-106780800D02*
X87679597Y-106747466D01*
X87679597Y-106747466D02*
X87712930Y-106680800D01*
X87712930Y-106680800D02*
X87746264Y-106647466D01*
X87746264Y-106647466D02*
X87812930Y-106614133D01*
X87812930Y-106614133D02*
X87946264Y-106614133D01*
X87946264Y-106614133D02*
X88012930Y-106647466D01*
X88012930Y-106647466D02*
X88046264Y-106680800D01*
X88046264Y-106680800D02*
X88079597Y-106747466D01*
X88079597Y-106747466D02*
X88079597Y-106780800D01*
X88079597Y-106780800D02*
X88046264Y-106847466D01*
X88046264Y-106847466D02*
X88012930Y-106880800D01*
X88012930Y-106880800D02*
X87946264Y-106914133D01*
X87946264Y-106914133D02*
X87812930Y-106914133D01*
X87812930Y-106914133D02*
X87746264Y-106947466D01*
X87746264Y-106947466D02*
X87712930Y-106980800D01*
X87712930Y-106980800D02*
X87679597Y-107047466D01*
X87679597Y-107047466D02*
X87679597Y-107180800D01*
X87679597Y-107180800D02*
X87712930Y-107247466D01*
X87712930Y-107247466D02*
X87746264Y-107280800D01*
X87746264Y-107280800D02*
X87812930Y-107314133D01*
X87812930Y-107314133D02*
X87946264Y-107314133D01*
X87946264Y-107314133D02*
X88012930Y-107280800D01*
X88012930Y-107280800D02*
X88046264Y-107247466D01*
X88046264Y-107247466D02*
X88079597Y-107180800D01*
X88079597Y-107180800D02*
X88079597Y-107047466D01*
X88079597Y-107047466D02*
X88046264Y-106980800D01*
X88046264Y-106980800D02*
X88012930Y-106947466D01*
X88012930Y-106947466D02*
X87946264Y-106914133D01*
X86612931Y-96412466D02*
X86546264Y-96379133D01*
X86546264Y-96379133D02*
X86446264Y-96379133D01*
X86446264Y-96379133D02*
X86346264Y-96412466D01*
X86346264Y-96412466D02*
X86279598Y-96479133D01*
X86279598Y-96479133D02*
X86246264Y-96545800D01*
X86246264Y-96545800D02*
X86212931Y-96679133D01*
X86212931Y-96679133D02*
X86212931Y-96779133D01*
X86212931Y-96779133D02*
X86246264Y-96912466D01*
X86246264Y-96912466D02*
X86279598Y-96979133D01*
X86279598Y-96979133D02*
X86346264Y-97045800D01*
X86346264Y-97045800D02*
X86446264Y-97079133D01*
X86446264Y-97079133D02*
X86512931Y-97079133D01*
X86512931Y-97079133D02*
X86612931Y-97045800D01*
X86612931Y-97045800D02*
X86646264Y-97012466D01*
X86646264Y-97012466D02*
X86646264Y-96779133D01*
X86646264Y-96779133D02*
X86512931Y-96779133D01*
X86946264Y-97079133D02*
X86946264Y-96379133D01*
X86946264Y-96379133D02*
X87346264Y-97079133D01*
X87346264Y-97079133D02*
X87346264Y-96379133D01*
X87679597Y-97079133D02*
X87679597Y-96379133D01*
X87679597Y-96379133D02*
X87846264Y-96379133D01*
X87846264Y-96379133D02*
X87946264Y-96412466D01*
X87946264Y-96412466D02*
X88012931Y-96479133D01*
X88012931Y-96479133D02*
X88046264Y-96545800D01*
X88046264Y-96545800D02*
X88079597Y-96679133D01*
X88079597Y-96679133D02*
X88079597Y-96779133D01*
X88079597Y-96779133D02*
X88046264Y-96912466D01*
X88046264Y-96912466D02*
X88012931Y-96979133D01*
X88012931Y-96979133D02*
X87946264Y-97045800D01*
X87946264Y-97045800D02*
X87846264Y-97079133D01*
X87846264Y-97079133D02*
X87679597Y-97079133D01*
X109742455Y-139354466D02*
X109742455Y-139821133D01*
X109575789Y-139087800D02*
X109409122Y-139587800D01*
X109409122Y-139587800D02*
X109842455Y-139587800D01*
X78866263Y-97039133D02*
X78632930Y-96705800D01*
X78466263Y-97039133D02*
X78466263Y-96339133D01*
X78466263Y-96339133D02*
X78732930Y-96339133D01*
X78732930Y-96339133D02*
X78799597Y-96372466D01*
X78799597Y-96372466D02*
X78832930Y-96405800D01*
X78832930Y-96405800D02*
X78866263Y-96472466D01*
X78866263Y-96472466D02*
X78866263Y-96572466D01*
X78866263Y-96572466D02*
X78832930Y-96639133D01*
X78832930Y-96639133D02*
X78799597Y-96672466D01*
X78799597Y-96672466D02*
X78732930Y-96705800D01*
X78732930Y-96705800D02*
X78466263Y-96705800D01*
X79132930Y-96839133D02*
X79466263Y-96839133D01*
X79066263Y-97039133D02*
X79299597Y-96339133D01*
X79299597Y-96339133D02*
X79532930Y-97039133D01*
X80132930Y-97039133D02*
X79732930Y-97039133D01*
X79932930Y-97039133D02*
X79932930Y-96339133D01*
X79932930Y-96339133D02*
X79866263Y-96439133D01*
X79866263Y-96439133D02*
X79799597Y-96505800D01*
X79799597Y-96505800D02*
X79732930Y-96539133D01*
X109769789Y-137855133D02*
X109436455Y-137855133D01*
X109436455Y-137855133D02*
X109403122Y-138188466D01*
X109403122Y-138188466D02*
X109436455Y-138155133D01*
X109436455Y-138155133D02*
X109503122Y-138121800D01*
X109503122Y-138121800D02*
X109669789Y-138121800D01*
X109669789Y-138121800D02*
X109736455Y-138155133D01*
X109736455Y-138155133D02*
X109769789Y-138188466D01*
X109769789Y-138188466D02*
X109803122Y-138255133D01*
X109803122Y-138255133D02*
X109803122Y-138421800D01*
X109803122Y-138421800D02*
X109769789Y-138488466D01*
X109769789Y-138488466D02*
X109736455Y-138521800D01*
X109736455Y-138521800D02*
X109669789Y-138555133D01*
X109669789Y-138555133D02*
X109503122Y-138555133D01*
X109503122Y-138555133D02*
X109436455Y-138521800D01*
X109436455Y-138521800D02*
X109403122Y-138488466D01*
D13*
G36*
X80424000Y-142222445D02*
G01*
X79944868Y-142222445D01*
X79881055Y-142224936D01*
X79817660Y-142238009D01*
X79801351Y-142247944D01*
X79775454Y-142332025D01*
X79773727Y-142380715D01*
X80424000Y-142380715D01*
X80424000Y-142901245D01*
X78981208Y-142901245D01*
X78981208Y-142532829D01*
X78981531Y-142444442D01*
X78982366Y-142380715D01*
X79225060Y-142380715D01*
X79550196Y-142380715D01*
X79543375Y-142291413D01*
X79532733Y-142257616D01*
X79471065Y-142225880D01*
X79418427Y-142222445D01*
X79338096Y-142222445D01*
X79275038Y-142233296D01*
X79246969Y-142256737D01*
X79226109Y-142343978D01*
X79225060Y-142380715D01*
X78982366Y-142380715D01*
X78982841Y-142344409D01*
X78985158Y-142255990D01*
X78989270Y-142165217D01*
X78997010Y-142070200D01*
X79001847Y-142033841D01*
X79023396Y-141949787D01*
X79060103Y-141877162D01*
X79106627Y-141821057D01*
X79169045Y-141777703D01*
X79233133Y-141754580D01*
X79299532Y-141742779D01*
X79364111Y-141738925D01*
X79375563Y-141738845D01*
X79444038Y-141741622D01*
X79509347Y-141751596D01*
X79571560Y-141774265D01*
X79602269Y-141796877D01*
X79644021Y-141869197D01*
X79664462Y-141956245D01*
X79671805Y-142025488D01*
X79690899Y-141938917D01*
X79721192Y-141855901D01*
X79745786Y-141817979D01*
X79800483Y-141767284D01*
X79830563Y-141752034D01*
X79896739Y-141742567D01*
X79965110Y-141739669D01*
X80033151Y-141738857D01*
X80043933Y-141738845D01*
X80424000Y-141738845D01*
X80424000Y-142222445D01*
G37*
G36*
X80424000Y-140881113D02*
G01*
X80159826Y-140907051D01*
X80159826Y-141093897D01*
X80424000Y-141124672D01*
X80424000Y-141664106D01*
X78981208Y-141399445D01*
X78981208Y-141001133D01*
X79283483Y-141001133D01*
X79362688Y-141015450D01*
X79437773Y-141028722D01*
X79508740Y-141040952D01*
X79575588Y-141052138D01*
X79658310Y-141065430D01*
X79733710Y-141076868D01*
X79801788Y-141086451D01*
X79876587Y-141095821D01*
X79915974Y-141100052D01*
X79915974Y-140921999D01*
X79850457Y-140931891D01*
X79781070Y-140941782D01*
X79707813Y-140951674D01*
X79630687Y-140961566D01*
X79549690Y-140971458D01*
X79486404Y-140978877D01*
X79420940Y-140986296D01*
X79353300Y-140993715D01*
X79283483Y-141001133D01*
X78981208Y-141001133D01*
X78981208Y-140646346D01*
X80424000Y-140348272D01*
X80424000Y-140881113D01*
G37*
G36*
X78981208Y-138660505D02*
G01*
X80424000Y-138660505D01*
X80424000Y-139115530D01*
X79449861Y-139115530D01*
X80424000Y-139297540D01*
X80424000Y-139620233D01*
X79470182Y-139811915D01*
X80424000Y-139811915D01*
X80424000Y-140266939D01*
X78981208Y-140266939D01*
X78981208Y-139592976D01*
X79048105Y-139577808D01*
X79111686Y-139564176D01*
X79179977Y-139550207D01*
X79252978Y-139535902D01*
X79285706Y-139529668D01*
X79654976Y-139458007D01*
X78981208Y-139339305D01*
X78981208Y-138660505D01*
G37*
G36*
X79611159Y-136802159D02*
G01*
X79611159Y-137322690D01*
X79365085Y-137322690D01*
X79301013Y-137324664D01*
X79237117Y-137336410D01*
X79231411Y-137339396D01*
X79204739Y-137412815D01*
X79233204Y-137492208D01*
X79237126Y-137494588D01*
X79302002Y-137508904D01*
X79370198Y-137511717D01*
X79376833Y-137511734D01*
X80034408Y-137511734D01*
X80101711Y-137509322D01*
X80164825Y-137496664D01*
X80169034Y-137494588D01*
X80200468Y-137416772D01*
X80168399Y-137340715D01*
X80104437Y-137326140D01*
X80038247Y-137322848D01*
X80016627Y-137322690D01*
X79834690Y-137322690D01*
X79834690Y-136802159D01*
X79890891Y-136802159D01*
X79957856Y-136803233D01*
X80029803Y-136807354D01*
X80102144Y-136816070D01*
X80169527Y-136831182D01*
X80209359Y-136846123D01*
X80271054Y-136888920D01*
X80322452Y-136949645D01*
X80364892Y-137022064D01*
X80373832Y-137040443D01*
X80404671Y-137119797D01*
X80426698Y-137207944D01*
X80439915Y-137304884D01*
X80444252Y-137396920D01*
X80444321Y-137410617D01*
X80441510Y-137506806D01*
X80433077Y-137595337D01*
X80416556Y-137687139D01*
X80392693Y-137768939D01*
X80385580Y-137787826D01*
X80348794Y-137863270D01*
X80299554Y-137928580D01*
X80241508Y-137974399D01*
X80222377Y-137984344D01*
X80155457Y-138007508D01*
X80091878Y-138020284D01*
X80018211Y-138028473D01*
X79947038Y-138031843D01*
X79908672Y-138032264D01*
X79492726Y-138032264D01*
X79429169Y-138031570D01*
X79365537Y-138029076D01*
X79299503Y-138023409D01*
X79262210Y-138017756D01*
X79200516Y-137995961D01*
X79140813Y-137954866D01*
X79113930Y-137929389D01*
X79064829Y-137866081D01*
X79027272Y-137794146D01*
X79001847Y-137725397D01*
X78980247Y-137639969D01*
X78966647Y-137546898D01*
X78961247Y-137456600D01*
X78960887Y-137425125D01*
X78963926Y-137328380D01*
X78973042Y-137239335D01*
X78990902Y-137146998D01*
X79016700Y-137064717D01*
X79024390Y-137045718D01*
X79062419Y-136969740D01*
X79110505Y-136904327D01*
X79170491Y-136855481D01*
X79182196Y-136849200D01*
X79243554Y-136826461D01*
X79312053Y-136812495D01*
X79382766Y-136805099D01*
X79451383Y-136802343D01*
X79475898Y-136802159D01*
X79611159Y-136802159D01*
G37*
G36*
X79888452Y-135433923D02*
G01*
X79957095Y-135435283D01*
X80026061Y-135438159D01*
X80090219Y-135443146D01*
X80128075Y-135448077D01*
X80192848Y-135467160D01*
X80253335Y-135503306D01*
X80291278Y-135536884D01*
X80341942Y-135600356D01*
X80379911Y-135671574D01*
X80404949Y-135739117D01*
X80425711Y-135822648D01*
X80438784Y-135914422D01*
X80443974Y-136004067D01*
X80444321Y-136035432D01*
X80441382Y-136123334D01*
X80431224Y-136214885D01*
X80413810Y-136299996D01*
X80407171Y-136324274D01*
X80377023Y-136406358D01*
X80338095Y-136476702D01*
X80295088Y-136530464D01*
X80237057Y-136579985D01*
X80175365Y-136611824D01*
X80132203Y-136623227D01*
X80064365Y-136630878D01*
X79991564Y-136634958D01*
X79926155Y-136636828D01*
X79851480Y-136637678D01*
X79824530Y-136637735D01*
X79580678Y-136637735D01*
X79516756Y-136637392D01*
X79448113Y-136636073D01*
X79379147Y-136633284D01*
X79314989Y-136628448D01*
X79277133Y-136623667D01*
X79212360Y-136604316D01*
X79151873Y-136568025D01*
X79113930Y-136534420D01*
X79063311Y-136471010D01*
X79025461Y-136399957D01*
X79000577Y-136332627D01*
X78979647Y-136248821D01*
X78966468Y-136156772D01*
X78961236Y-136066880D01*
X78960887Y-136035432D01*
X78960970Y-136033234D01*
X79204739Y-136033234D01*
X79226965Y-136095662D01*
X79293741Y-136114659D01*
X79358734Y-136117205D01*
X80019484Y-136117205D01*
X80087273Y-136115831D01*
X80151234Y-136109291D01*
X80171575Y-136103136D01*
X80200468Y-136036751D01*
X80167447Y-135969047D01*
X80100906Y-135956960D01*
X80031656Y-135954231D01*
X80009006Y-135954099D01*
X79358734Y-135954099D01*
X79294527Y-135956263D01*
X79232363Y-135969487D01*
X79204739Y-136033234D01*
X78960970Y-136033234D01*
X78964546Y-135938317D01*
X78975523Y-135847556D01*
X78993817Y-135763149D01*
X78998354Y-135747030D01*
X79028359Y-135664998D01*
X79067293Y-135594809D01*
X79110437Y-135541280D01*
X79168275Y-135491553D01*
X79229863Y-135459755D01*
X79273005Y-135448517D01*
X79340843Y-135440634D01*
X79413643Y-135436430D01*
X79479053Y-135434503D01*
X79553727Y-135433627D01*
X79580678Y-135433569D01*
X79824530Y-135433569D01*
X79888452Y-135433923D01*
G37*
G36*
X78981208Y-134083883D02*
G01*
X80424000Y-134083883D01*
X80424000Y-134540226D01*
X79768012Y-134811043D01*
X80424000Y-134811043D01*
X80424000Y-135246284D01*
X78981208Y-135246284D01*
X78981208Y-134811043D01*
X79630845Y-134519124D01*
X78981208Y-134519124D01*
X78981208Y-134083883D01*
G37*
G36*
X78981208Y-133881650D02*
G01*
X78981208Y-132999738D01*
X79265702Y-132999738D01*
X79265702Y-133361120D01*
X79529875Y-133361120D01*
X79529875Y-133039305D01*
X79814369Y-133039305D01*
X79814369Y-133361120D01*
X80424000Y-133361120D01*
X80424000Y-133881650D01*
X78981208Y-133881650D01*
G37*
G36*
X78981208Y-132358747D02*
G01*
X80424000Y-132358747D01*
X80424000Y-132879277D01*
X78981208Y-132879277D01*
X78981208Y-132358747D01*
G37*
G36*
X79509554Y-130960261D02*
G01*
X79509554Y-131480792D01*
X79383818Y-131480792D01*
X79318113Y-131482251D01*
X79252230Y-131489915D01*
X79234903Y-131495739D01*
X79204739Y-131566081D01*
X79231093Y-131631587D01*
X79295886Y-131646322D01*
X79365720Y-131648733D01*
X80044886Y-131648733D01*
X80111538Y-131645903D01*
X80170304Y-131631587D01*
X80200468Y-131562124D01*
X80167447Y-131485188D01*
X80101339Y-131467431D01*
X80038218Y-131464525D01*
X79875332Y-131464525D01*
X79875332Y-131569598D01*
X79651801Y-131569598D01*
X79651801Y-130960261D01*
X80424000Y-130960261D01*
X80424000Y-131287791D01*
X80320489Y-131336151D01*
X80374856Y-131392108D01*
X80414238Y-131465211D01*
X80416062Y-131470240D01*
X80437256Y-131558387D01*
X80444210Y-131647417D01*
X80444321Y-131661043D01*
X80438993Y-131749191D01*
X80421028Y-131840969D01*
X80399233Y-131906800D01*
X80362188Y-131984801D01*
X80315304Y-132051861D01*
X80287150Y-132080457D01*
X80227313Y-132123890D01*
X80165046Y-132150325D01*
X80146808Y-132154755D01*
X80081291Y-132163596D01*
X80011003Y-132167846D01*
X79944504Y-132169207D01*
X79926452Y-132169263D01*
X79503521Y-132169263D01*
X79430901Y-132168181D01*
X79366161Y-132164936D01*
X79300592Y-132158414D01*
X79232051Y-132145701D01*
X79207279Y-132138489D01*
X79145595Y-132103418D01*
X79092709Y-132047914D01*
X79047709Y-131978725D01*
X79038043Y-131960875D01*
X79004288Y-131882290D01*
X78980176Y-131792934D01*
X78966990Y-131705912D01*
X78961189Y-131610642D01*
X78960887Y-131581908D01*
X78964063Y-131485614D01*
X78973589Y-131396768D01*
X78992253Y-131304348D01*
X79019212Y-131221655D01*
X79027248Y-131202501D01*
X79066381Y-131125990D01*
X79114517Y-131060474D01*
X79173125Y-131012109D01*
X79184418Y-131005983D01*
X79249236Y-130981872D01*
X79312700Y-130969013D01*
X79376695Y-130962449D01*
X79448591Y-130960261D01*
X79509554Y-130960261D01*
G37*
G36*
X78981208Y-129581999D02*
G01*
X79938836Y-129581999D01*
X80005464Y-129582714D01*
X80070262Y-129585283D01*
X80134236Y-129591122D01*
X80167764Y-129596946D01*
X80230447Y-129623711D01*
X80286014Y-129667536D01*
X80303344Y-129684874D01*
X80350569Y-129745894D01*
X80388418Y-129820145D01*
X80408441Y-129876995D01*
X80428869Y-129963996D01*
X80440081Y-130051924D01*
X80444285Y-130148266D01*
X80444321Y-130158363D01*
X80440955Y-130255921D01*
X80430858Y-130346803D01*
X80411745Y-130439951D01*
X80401773Y-130474902D01*
X80372701Y-130553891D01*
X80334991Y-130625207D01*
X80291278Y-130680212D01*
X80234607Y-130726364D01*
X80170880Y-130755456D01*
X80147443Y-130760666D01*
X80083767Y-130767157D01*
X80019858Y-130770271D01*
X79952406Y-130772002D01*
X79887259Y-130772783D01*
X79829293Y-130772976D01*
X78981208Y-130772976D01*
X78981208Y-130252445D01*
X80054729Y-130252445D01*
X80119672Y-130250124D01*
X80174432Y-130238377D01*
X80200468Y-130180785D01*
X80171892Y-130117037D01*
X80105263Y-130104569D01*
X80035995Y-130102529D01*
X78981208Y-130102529D01*
X78981208Y-129581999D01*
G37*
G36*
X80424000Y-128709759D02*
G01*
X79944868Y-128709759D01*
X79881055Y-128712249D01*
X79817660Y-128725322D01*
X79801351Y-128735258D01*
X79775454Y-128819338D01*
X79773727Y-128868028D01*
X80424000Y-128868028D01*
X80424000Y-129388558D01*
X78981208Y-129388558D01*
X78981208Y-129020143D01*
X78981531Y-128931755D01*
X78982366Y-128868028D01*
X79225060Y-128868028D01*
X79550196Y-128868028D01*
X79543375Y-128778727D01*
X79532733Y-128744930D01*
X79471065Y-128713193D01*
X79418427Y-128709759D01*
X79338096Y-128709759D01*
X79275038Y-128720609D01*
X79246969Y-128744050D01*
X79226109Y-128831291D01*
X79225060Y-128868028D01*
X78982366Y-128868028D01*
X78982841Y-128831722D01*
X78985158Y-128743303D01*
X78989270Y-128652530D01*
X78997010Y-128557514D01*
X79001847Y-128521154D01*
X79023396Y-128437100D01*
X79060103Y-128364475D01*
X79106627Y-128308370D01*
X79169045Y-128265016D01*
X79233133Y-128241894D01*
X79299532Y-128230092D01*
X79364111Y-128226238D01*
X79375563Y-128226158D01*
X79444038Y-128228935D01*
X79509347Y-128238909D01*
X79571560Y-128261578D01*
X79602269Y-128284190D01*
X79644021Y-128356510D01*
X79664462Y-128443558D01*
X79671805Y-128512801D01*
X79690899Y-128426231D01*
X79721192Y-128343214D01*
X79745786Y-128305293D01*
X79800483Y-128254597D01*
X79830563Y-128239347D01*
X79896739Y-128229880D01*
X79965110Y-128226982D01*
X80033151Y-128226171D01*
X80043933Y-128226158D01*
X80424000Y-128226158D01*
X80424000Y-128709759D01*
G37*
G36*
X80424000Y-127368426D02*
G01*
X80159826Y-127394364D01*
X80159826Y-127581210D01*
X80424000Y-127611985D01*
X80424000Y-128151420D01*
X78981208Y-127886758D01*
X78981208Y-127488447D01*
X79283483Y-127488447D01*
X79362688Y-127502763D01*
X79437773Y-127516036D01*
X79508740Y-127528265D01*
X79575588Y-127539452D01*
X79658310Y-127552744D01*
X79733710Y-127564181D01*
X79801788Y-127573764D01*
X79876587Y-127583134D01*
X79915974Y-127587365D01*
X79915974Y-127409312D01*
X79850457Y-127419204D01*
X79781070Y-127429096D01*
X79707813Y-127438988D01*
X79630687Y-127448879D01*
X79549690Y-127458771D01*
X79486404Y-127466190D01*
X79420940Y-127473609D01*
X79353300Y-127481028D01*
X79283483Y-127488447D01*
X78981208Y-127488447D01*
X78981208Y-127133660D01*
X80424000Y-126835586D01*
X80424000Y-127368426D01*
G37*
G36*
X78981208Y-125774302D02*
G01*
X79265702Y-125774302D01*
X79265702Y-126083367D01*
X80424000Y-126083367D01*
X80424000Y-126603897D01*
X79265702Y-126603897D01*
X79265702Y-126911643D01*
X78981208Y-126911643D01*
X78981208Y-125774302D01*
G37*
G36*
X79888452Y-124541474D02*
G01*
X79957095Y-124542834D01*
X80026061Y-124545710D01*
X80090219Y-124550697D01*
X80128075Y-124555628D01*
X80192848Y-124574711D01*
X80253335Y-124610857D01*
X80291278Y-124644434D01*
X80341942Y-124707907D01*
X80379911Y-124779125D01*
X80404949Y-124846667D01*
X80425711Y-124930198D01*
X80438784Y-125021973D01*
X80443974Y-125111617D01*
X80444321Y-125142983D01*
X80441382Y-125230885D01*
X80431224Y-125322436D01*
X80413810Y-125407547D01*
X80407171Y-125431824D01*
X80377023Y-125513909D01*
X80338095Y-125584253D01*
X80295088Y-125638014D01*
X80237057Y-125687535D01*
X80175365Y-125719375D01*
X80132203Y-125730778D01*
X80064365Y-125738428D01*
X79991564Y-125742509D01*
X79926155Y-125744379D01*
X79851480Y-125745229D01*
X79824530Y-125745286D01*
X79580678Y-125745286D01*
X79516756Y-125744942D01*
X79448113Y-125743623D01*
X79379147Y-125740834D01*
X79314989Y-125735998D01*
X79277133Y-125731217D01*
X79212360Y-125711866D01*
X79151873Y-125675576D01*
X79113930Y-125641971D01*
X79063311Y-125578560D01*
X79025461Y-125507508D01*
X79000577Y-125440177D01*
X78979647Y-125356372D01*
X78966468Y-125264323D01*
X78961236Y-125174431D01*
X78960887Y-125142983D01*
X78960970Y-125140785D01*
X79204739Y-125140785D01*
X79226965Y-125203213D01*
X79293741Y-125222210D01*
X79358734Y-125224755D01*
X80019484Y-125224755D01*
X80087273Y-125223381D01*
X80151234Y-125216842D01*
X80171575Y-125210687D01*
X80200468Y-125144302D01*
X80167447Y-125076598D01*
X80100906Y-125064511D01*
X80031656Y-125061781D01*
X80009006Y-125061650D01*
X79358734Y-125061650D01*
X79294527Y-125063814D01*
X79232363Y-125077037D01*
X79204739Y-125140785D01*
X78960970Y-125140785D01*
X78964546Y-125045868D01*
X78975523Y-124955107D01*
X78993817Y-124870700D01*
X78998354Y-124854581D01*
X79028359Y-124772548D01*
X79067293Y-124702360D01*
X79110437Y-124648831D01*
X79168275Y-124599104D01*
X79229863Y-124567305D01*
X79273005Y-124556067D01*
X79340843Y-124548185D01*
X79413643Y-124543981D01*
X79479053Y-124542054D01*
X79553727Y-124541178D01*
X79580678Y-124541120D01*
X79824530Y-124541120D01*
X79888452Y-124541474D01*
G37*
G36*
X80424000Y-123675034D02*
G01*
X79944868Y-123675034D01*
X79881055Y-123677525D01*
X79817660Y-123690598D01*
X79801351Y-123700533D01*
X79775454Y-123784614D01*
X79773727Y-123833304D01*
X80424000Y-123833304D01*
X80424000Y-124353834D01*
X78981208Y-124353834D01*
X78981208Y-123985418D01*
X78981531Y-123897031D01*
X78982366Y-123833304D01*
X79225060Y-123833304D01*
X79550196Y-123833304D01*
X79543375Y-123744002D01*
X79532733Y-123710205D01*
X79471065Y-123678469D01*
X79418427Y-123675034D01*
X79338096Y-123675034D01*
X79275038Y-123685884D01*
X79246969Y-123709326D01*
X79226109Y-123796567D01*
X79225060Y-123833304D01*
X78982366Y-123833304D01*
X78982841Y-123796998D01*
X78985158Y-123708579D01*
X78989270Y-123617806D01*
X78997010Y-123522789D01*
X79001847Y-123486430D01*
X79023396Y-123402376D01*
X79060103Y-123329751D01*
X79106627Y-123273646D01*
X79169045Y-123230292D01*
X79233133Y-123207169D01*
X79299532Y-123195368D01*
X79364111Y-123191514D01*
X79375563Y-123191434D01*
X79444038Y-123194210D01*
X79509347Y-123204185D01*
X79571560Y-123226854D01*
X79602269Y-123249466D01*
X79644021Y-123321786D01*
X79664462Y-123408834D01*
X79671805Y-123478077D01*
X79690899Y-123391506D01*
X79721192Y-123308490D01*
X79745786Y-123270568D01*
X79800483Y-123219873D01*
X79830563Y-123204623D01*
X79896739Y-123195156D01*
X79965110Y-123192258D01*
X80033151Y-123191446D01*
X80043933Y-123191434D01*
X80424000Y-123191434D01*
X80424000Y-123675034D01*
G37*
D11*
X84437216Y-123989133D02*
X84437216Y-123289133D01*
X84437216Y-123289133D02*
X84603883Y-123289133D01*
X84603883Y-123289133D02*
X84703883Y-123322466D01*
X84703883Y-123322466D02*
X84770550Y-123389133D01*
X84770550Y-123389133D02*
X84803883Y-123455800D01*
X84803883Y-123455800D02*
X84837216Y-123589133D01*
X84837216Y-123589133D02*
X84837216Y-123689133D01*
X84837216Y-123689133D02*
X84803883Y-123822466D01*
X84803883Y-123822466D02*
X84770550Y-123889133D01*
X84770550Y-123889133D02*
X84703883Y-123955800D01*
X84703883Y-123955800D02*
X84603883Y-123989133D01*
X84603883Y-123989133D02*
X84437216Y-123989133D01*
X85137216Y-123989133D02*
X85137216Y-123289133D01*
X85137216Y-123289133D02*
X85370550Y-123789133D01*
X85370550Y-123789133D02*
X85603883Y-123289133D01*
X85603883Y-123289133D02*
X85603883Y-123989133D01*
X85903883Y-123789133D02*
X86237216Y-123789133D01*
X85837216Y-123989133D02*
X86070550Y-123289133D01*
X86070550Y-123289133D02*
X86303883Y-123989133D01*
X84340550Y-123094800D02*
X86300550Y-123094800D01*
X82327216Y-121325800D02*
X82427216Y-121359133D01*
X82427216Y-121359133D02*
X82593883Y-121359133D01*
X82593883Y-121359133D02*
X82660549Y-121325800D01*
X82660549Y-121325800D02*
X82693883Y-121292466D01*
X82693883Y-121292466D02*
X82727216Y-121225800D01*
X82727216Y-121225800D02*
X82727216Y-121159133D01*
X82727216Y-121159133D02*
X82693883Y-121092466D01*
X82693883Y-121092466D02*
X82660549Y-121059133D01*
X82660549Y-121059133D02*
X82593883Y-121025800D01*
X82593883Y-121025800D02*
X82460549Y-120992466D01*
X82460549Y-120992466D02*
X82393883Y-120959133D01*
X82393883Y-120959133D02*
X82360549Y-120925800D01*
X82360549Y-120925800D02*
X82327216Y-120859133D01*
X82327216Y-120859133D02*
X82327216Y-120792466D01*
X82327216Y-120792466D02*
X82360549Y-120725800D01*
X82360549Y-120725800D02*
X82393883Y-120692466D01*
X82393883Y-120692466D02*
X82460549Y-120659133D01*
X82460549Y-120659133D02*
X82627216Y-120659133D01*
X82627216Y-120659133D02*
X82727216Y-120692466D01*
X83027216Y-121359133D02*
X83027216Y-120659133D01*
X83027216Y-120659133D02*
X83427216Y-121359133D01*
X83427216Y-121359133D02*
X83427216Y-120659133D01*
X83760549Y-121359133D02*
X83760549Y-120659133D01*
X83760549Y-120659133D02*
X83927216Y-120659133D01*
X83927216Y-120659133D02*
X84027216Y-120692466D01*
X84027216Y-120692466D02*
X84093883Y-120759133D01*
X84093883Y-120759133D02*
X84127216Y-120825800D01*
X84127216Y-120825800D02*
X84160549Y-120959133D01*
X84160549Y-120959133D02*
X84160549Y-121059133D01*
X84160549Y-121059133D02*
X84127216Y-121192466D01*
X84127216Y-121192466D02*
X84093883Y-121259133D01*
X84093883Y-121259133D02*
X84027216Y-121325800D01*
X84027216Y-121325800D02*
X83927216Y-121359133D01*
X83927216Y-121359133D02*
X83760549Y-121359133D01*
X84460549Y-121359133D02*
X84460549Y-120659133D01*
X84460549Y-120659133D02*
X84727216Y-120659133D01*
X84727216Y-120659133D02*
X84793883Y-120692466D01*
X84793883Y-120692466D02*
X84827216Y-120725800D01*
X84827216Y-120725800D02*
X84860549Y-120792466D01*
X84860549Y-120792466D02*
X84860549Y-120892466D01*
X84860549Y-120892466D02*
X84827216Y-120959133D01*
X84827216Y-120959133D02*
X84793883Y-120992466D01*
X84793883Y-120992466D02*
X84727216Y-121025800D01*
X84727216Y-121025800D02*
X84460549Y-121025800D01*
X85527216Y-120692466D02*
X85460549Y-120659133D01*
X85460549Y-120659133D02*
X85360549Y-120659133D01*
X85360549Y-120659133D02*
X85260549Y-120692466D01*
X85260549Y-120692466D02*
X85193883Y-120759133D01*
X85193883Y-120759133D02*
X85160549Y-120825800D01*
X85160549Y-120825800D02*
X85127216Y-120959133D01*
X85127216Y-120959133D02*
X85127216Y-121059133D01*
X85127216Y-121059133D02*
X85160549Y-121192466D01*
X85160549Y-121192466D02*
X85193883Y-121259133D01*
X85193883Y-121259133D02*
X85260549Y-121325800D01*
X85260549Y-121325800D02*
X85360549Y-121359133D01*
X85360549Y-121359133D02*
X85427216Y-121359133D01*
X85427216Y-121359133D02*
X85527216Y-121325800D01*
X85527216Y-121325800D02*
X85560549Y-121292466D01*
X85560549Y-121292466D02*
X85560549Y-121059133D01*
X85560549Y-121059133D02*
X85427216Y-121059133D01*
X85827216Y-120725800D02*
X85860549Y-120692466D01*
X85860549Y-120692466D02*
X85927216Y-120659133D01*
X85927216Y-120659133D02*
X86093883Y-120659133D01*
X86093883Y-120659133D02*
X86160549Y-120692466D01*
X86160549Y-120692466D02*
X86193883Y-120725800D01*
X86193883Y-120725800D02*
X86227216Y-120792466D01*
X86227216Y-120792466D02*
X86227216Y-120859133D01*
X86227216Y-120859133D02*
X86193883Y-120959133D01*
X86193883Y-120959133D02*
X85793883Y-121359133D01*
X85793883Y-121359133D02*
X86227216Y-121359133D01*
X82263883Y-120464800D02*
X86290550Y-120464800D01*
X84570549Y-138809133D02*
X84903882Y-138809133D01*
X84503882Y-139009133D02*
X84737216Y-138309133D01*
X84737216Y-138309133D02*
X84970549Y-139009133D01*
X85170549Y-138375800D02*
X85203882Y-138342466D01*
X85203882Y-138342466D02*
X85270549Y-138309133D01*
X85270549Y-138309133D02*
X85437216Y-138309133D01*
X85437216Y-138309133D02*
X85503882Y-138342466D01*
X85503882Y-138342466D02*
X85537216Y-138375800D01*
X85537216Y-138375800D02*
X85570549Y-138442466D01*
X85570549Y-138442466D02*
X85570549Y-138509133D01*
X85570549Y-138509133D02*
X85537216Y-138609133D01*
X85537216Y-138609133D02*
X85137216Y-139009133D01*
X85137216Y-139009133D02*
X85570549Y-139009133D01*
X86003883Y-138309133D02*
X86070549Y-138309133D01*
X86070549Y-138309133D02*
X86137216Y-138342466D01*
X86137216Y-138342466D02*
X86170549Y-138375800D01*
X86170549Y-138375800D02*
X86203883Y-138442466D01*
X86203883Y-138442466D02*
X86237216Y-138575800D01*
X86237216Y-138575800D02*
X86237216Y-138742466D01*
X86237216Y-138742466D02*
X86203883Y-138875800D01*
X86203883Y-138875800D02*
X86170549Y-138942466D01*
X86170549Y-138942466D02*
X86137216Y-138975800D01*
X86137216Y-138975800D02*
X86070549Y-139009133D01*
X86070549Y-139009133D02*
X86003883Y-139009133D01*
X86003883Y-139009133D02*
X85937216Y-138975800D01*
X85937216Y-138975800D02*
X85903883Y-138942466D01*
X85903883Y-138942466D02*
X85870549Y-138875800D01*
X85870549Y-138875800D02*
X85837216Y-138742466D01*
X85837216Y-138742466D02*
X85837216Y-138575800D01*
X85837216Y-138575800D02*
X85870549Y-138442466D01*
X85870549Y-138442466D02*
X85903883Y-138375800D01*
X85903883Y-138375800D02*
X85937216Y-138342466D01*
X85937216Y-138342466D02*
X86003883Y-138309133D01*
X89899122Y-91025800D02*
X89932455Y-90992466D01*
X89932455Y-90992466D02*
X89999122Y-90959133D01*
X89999122Y-90959133D02*
X90165789Y-90959133D01*
X90165789Y-90959133D02*
X90232455Y-90992466D01*
X90232455Y-90992466D02*
X90265789Y-91025800D01*
X90265789Y-91025800D02*
X90299122Y-91092466D01*
X90299122Y-91092466D02*
X90299122Y-91159133D01*
X90299122Y-91159133D02*
X90265789Y-91259133D01*
X90265789Y-91259133D02*
X89865789Y-91659133D01*
X89865789Y-91659133D02*
X90299122Y-91659133D01*
X89878633Y-132206666D02*
X89545300Y-132439999D01*
X89878633Y-132606666D02*
X89178633Y-132606666D01*
X89178633Y-132606666D02*
X89178633Y-132339999D01*
X89178633Y-132339999D02*
X89211966Y-132273333D01*
X89211966Y-132273333D02*
X89245300Y-132239999D01*
X89245300Y-132239999D02*
X89311966Y-132206666D01*
X89311966Y-132206666D02*
X89411966Y-132206666D01*
X89411966Y-132206666D02*
X89478633Y-132239999D01*
X89478633Y-132239999D02*
X89511966Y-132273333D01*
X89511966Y-132273333D02*
X89545300Y-132339999D01*
X89545300Y-132339999D02*
X89545300Y-132606666D01*
X89478633Y-131806666D02*
X89445300Y-131873333D01*
X89445300Y-131873333D02*
X89411966Y-131906666D01*
X89411966Y-131906666D02*
X89345300Y-131939999D01*
X89345300Y-131939999D02*
X89311966Y-131939999D01*
X89311966Y-131939999D02*
X89245300Y-131906666D01*
X89245300Y-131906666D02*
X89211966Y-131873333D01*
X89211966Y-131873333D02*
X89178633Y-131806666D01*
X89178633Y-131806666D02*
X89178633Y-131673333D01*
X89178633Y-131673333D02*
X89211966Y-131606666D01*
X89211966Y-131606666D02*
X89245300Y-131573333D01*
X89245300Y-131573333D02*
X89311966Y-131539999D01*
X89311966Y-131539999D02*
X89345300Y-131539999D01*
X89345300Y-131539999D02*
X89411966Y-131573333D01*
X89411966Y-131573333D02*
X89445300Y-131606666D01*
X89445300Y-131606666D02*
X89478633Y-131673333D01*
X89478633Y-131673333D02*
X89478633Y-131806666D01*
X89478633Y-131806666D02*
X89511966Y-131873333D01*
X89511966Y-131873333D02*
X89545300Y-131906666D01*
X89545300Y-131906666D02*
X89611966Y-131939999D01*
X89611966Y-131939999D02*
X89745300Y-131939999D01*
X89745300Y-131939999D02*
X89811966Y-131906666D01*
X89811966Y-131906666D02*
X89845300Y-131873333D01*
X89845300Y-131873333D02*
X89878633Y-131806666D01*
X89878633Y-131806666D02*
X89878633Y-131673333D01*
X89878633Y-131673333D02*
X89845300Y-131606666D01*
X89845300Y-131606666D02*
X89811966Y-131573333D01*
X89811966Y-131573333D02*
X89745300Y-131539999D01*
X89745300Y-131539999D02*
X89611966Y-131539999D01*
X89611966Y-131539999D02*
X89545300Y-131573333D01*
X89545300Y-131573333D02*
X89511966Y-131606666D01*
X89511966Y-131606666D02*
X89478633Y-131673333D01*
X90418633Y-142570000D02*
X90085300Y-142803333D01*
X90418633Y-142970000D02*
X89718633Y-142970000D01*
X89718633Y-142970000D02*
X89718633Y-142703333D01*
X89718633Y-142703333D02*
X89751966Y-142636667D01*
X89751966Y-142636667D02*
X89785300Y-142603333D01*
X89785300Y-142603333D02*
X89851966Y-142570000D01*
X89851966Y-142570000D02*
X89951966Y-142570000D01*
X89951966Y-142570000D02*
X90018633Y-142603333D01*
X90018633Y-142603333D02*
X90051966Y-142636667D01*
X90051966Y-142636667D02*
X90085300Y-142703333D01*
X90085300Y-142703333D02*
X90085300Y-142970000D01*
X90418633Y-141903333D02*
X90418633Y-142303333D01*
X90418633Y-142103333D02*
X89718633Y-142103333D01*
X89718633Y-142103333D02*
X89818633Y-142170000D01*
X89818633Y-142170000D02*
X89885300Y-142236667D01*
X89885300Y-142236667D02*
X89918633Y-142303333D01*
X89718633Y-141670000D02*
X89718633Y-141236666D01*
X89718633Y-141236666D02*
X89985300Y-141470000D01*
X89985300Y-141470000D02*
X89985300Y-141370000D01*
X89985300Y-141370000D02*
X90018633Y-141303333D01*
X90018633Y-141303333D02*
X90051966Y-141270000D01*
X90051966Y-141270000D02*
X90118633Y-141236666D01*
X90118633Y-141236666D02*
X90285300Y-141236666D01*
X90285300Y-141236666D02*
X90351966Y-141270000D01*
X90351966Y-141270000D02*
X90385300Y-141303333D01*
X90385300Y-141303333D02*
X90418633Y-141370000D01*
X90418633Y-141370000D02*
X90418633Y-141570000D01*
X90418633Y-141570000D02*
X90385300Y-141636666D01*
X90385300Y-141636666D02*
X90351966Y-141670000D01*
X104183333Y-101611966D02*
X104150000Y-101645300D01*
X104150000Y-101645300D02*
X104050000Y-101678633D01*
X104050000Y-101678633D02*
X103983333Y-101678633D01*
X103983333Y-101678633D02*
X103883333Y-101645300D01*
X103883333Y-101645300D02*
X103816667Y-101578633D01*
X103816667Y-101578633D02*
X103783333Y-101511966D01*
X103783333Y-101511966D02*
X103750000Y-101378633D01*
X103750000Y-101378633D02*
X103750000Y-101278633D01*
X103750000Y-101278633D02*
X103783333Y-101145300D01*
X103783333Y-101145300D02*
X103816667Y-101078633D01*
X103816667Y-101078633D02*
X103883333Y-101011966D01*
X103883333Y-101011966D02*
X103983333Y-100978633D01*
X103983333Y-100978633D02*
X104050000Y-100978633D01*
X104050000Y-100978633D02*
X104150000Y-101011966D01*
X104150000Y-101011966D02*
X104183333Y-101045300D01*
X104450000Y-101045300D02*
X104483333Y-101011966D01*
X104483333Y-101011966D02*
X104550000Y-100978633D01*
X104550000Y-100978633D02*
X104716667Y-100978633D01*
X104716667Y-100978633D02*
X104783333Y-101011966D01*
X104783333Y-101011966D02*
X104816667Y-101045300D01*
X104816667Y-101045300D02*
X104850000Y-101111966D01*
X104850000Y-101111966D02*
X104850000Y-101178633D01*
X104850000Y-101178633D02*
X104816667Y-101278633D01*
X104816667Y-101278633D02*
X104416667Y-101678633D01*
X104416667Y-101678633D02*
X104850000Y-101678633D01*
X97268633Y-91640000D02*
X96935300Y-91873333D01*
X97268633Y-92040000D02*
X96568633Y-92040000D01*
X96568633Y-92040000D02*
X96568633Y-91773333D01*
X96568633Y-91773333D02*
X96601966Y-91706667D01*
X96601966Y-91706667D02*
X96635300Y-91673333D01*
X96635300Y-91673333D02*
X96701966Y-91640000D01*
X96701966Y-91640000D02*
X96801966Y-91640000D01*
X96801966Y-91640000D02*
X96868633Y-91673333D01*
X96868633Y-91673333D02*
X96901966Y-91706667D01*
X96901966Y-91706667D02*
X96935300Y-91773333D01*
X96935300Y-91773333D02*
X96935300Y-92040000D01*
X96635300Y-91373333D02*
X96601966Y-91340000D01*
X96601966Y-91340000D02*
X96568633Y-91273333D01*
X96568633Y-91273333D02*
X96568633Y-91106667D01*
X96568633Y-91106667D02*
X96601966Y-91040000D01*
X96601966Y-91040000D02*
X96635300Y-91006667D01*
X96635300Y-91006667D02*
X96701966Y-90973333D01*
X96701966Y-90973333D02*
X96768633Y-90973333D01*
X96768633Y-90973333D02*
X96868633Y-91006667D01*
X96868633Y-91006667D02*
X97268633Y-91406667D01*
X97268633Y-91406667D02*
X97268633Y-90973333D01*
X79971666Y-88943633D02*
X79971666Y-89443633D01*
X79971666Y-89443633D02*
X79938333Y-89543633D01*
X79938333Y-89543633D02*
X79871666Y-89610300D01*
X79871666Y-89610300D02*
X79771666Y-89643633D01*
X79771666Y-89643633D02*
X79705000Y-89643633D01*
X80304999Y-89643633D02*
X80304999Y-88943633D01*
X80304999Y-88943633D02*
X80571666Y-88943633D01*
X80571666Y-88943633D02*
X80638333Y-88976966D01*
X80638333Y-88976966D02*
X80671666Y-89010300D01*
X80671666Y-89010300D02*
X80704999Y-89076966D01*
X80704999Y-89076966D02*
X80704999Y-89176966D01*
X80704999Y-89176966D02*
X80671666Y-89243633D01*
X80671666Y-89243633D02*
X80638333Y-89276966D01*
X80638333Y-89276966D02*
X80571666Y-89310300D01*
X80571666Y-89310300D02*
X80304999Y-89310300D01*
X81371666Y-89643633D02*
X80971666Y-89643633D01*
X81171666Y-89643633D02*
X81171666Y-88943633D01*
X81171666Y-88943633D02*
X81104999Y-89043633D01*
X81104999Y-89043633D02*
X81038333Y-89110300D01*
X81038333Y-89110300D02*
X80971666Y-89143633D01*
X104566666Y-88633633D02*
X104566666Y-89200300D01*
X104566666Y-89200300D02*
X104600000Y-89266966D01*
X104600000Y-89266966D02*
X104633333Y-89300300D01*
X104633333Y-89300300D02*
X104700000Y-89333633D01*
X104700000Y-89333633D02*
X104833333Y-89333633D01*
X104833333Y-89333633D02*
X104900000Y-89300300D01*
X104900000Y-89300300D02*
X104933333Y-89266966D01*
X104933333Y-89266966D02*
X104966666Y-89200300D01*
X104966666Y-89200300D02*
X104966666Y-88633633D01*
X105666666Y-89333633D02*
X105266666Y-89333633D01*
X105466666Y-89333633D02*
X105466666Y-88633633D01*
X105466666Y-88633633D02*
X105399999Y-88733633D01*
X105399999Y-88733633D02*
X105333333Y-88800300D01*
X105333333Y-88800300D02*
X105266666Y-88833633D01*
X104768633Y-97415000D02*
X104768633Y-96948333D01*
X104768633Y-96948333D02*
X105468633Y-97248333D01*
X105001966Y-96381666D02*
X105468633Y-96381666D01*
X104735300Y-96548333D02*
X105235300Y-96714999D01*
X105235300Y-96714999D02*
X105235300Y-96281666D01*
X105468633Y-96014999D02*
X104768633Y-96014999D01*
X105101966Y-96014999D02*
X105101966Y-95614999D01*
X105468633Y-95614999D02*
X104768633Y-95614999D01*
X105401966Y-94881666D02*
X105435300Y-94914999D01*
X105435300Y-94914999D02*
X105468633Y-95014999D01*
X105468633Y-95014999D02*
X105468633Y-95081666D01*
X105468633Y-95081666D02*
X105435300Y-95181666D01*
X105435300Y-95181666D02*
X105368633Y-95248333D01*
X105368633Y-95248333D02*
X105301966Y-95281666D01*
X105301966Y-95281666D02*
X105168633Y-95314999D01*
X105168633Y-95314999D02*
X105068633Y-95314999D01*
X105068633Y-95314999D02*
X104935300Y-95281666D01*
X104935300Y-95281666D02*
X104868633Y-95248333D01*
X104868633Y-95248333D02*
X104801966Y-95181666D01*
X104801966Y-95181666D02*
X104768633Y-95081666D01*
X104768633Y-95081666D02*
X104768633Y-95014999D01*
X104768633Y-95014999D02*
X104801966Y-94914999D01*
X104801966Y-94914999D02*
X104835300Y-94881666D01*
X104768633Y-94681666D02*
X104768633Y-94281666D01*
X105468633Y-94481666D02*
X104768633Y-94481666D01*
X104835300Y-94081666D02*
X104801966Y-94048333D01*
X104801966Y-94048333D02*
X104768633Y-93981666D01*
X104768633Y-93981666D02*
X104768633Y-93815000D01*
X104768633Y-93815000D02*
X104801966Y-93748333D01*
X104801966Y-93748333D02*
X104835300Y-93715000D01*
X104835300Y-93715000D02*
X104901966Y-93681666D01*
X104901966Y-93681666D02*
X104968633Y-93681666D01*
X104968633Y-93681666D02*
X105068633Y-93715000D01*
X105068633Y-93715000D02*
X105468633Y-94115000D01*
X105468633Y-94115000D02*
X105468633Y-93681666D01*
X104768633Y-93048333D02*
X104768633Y-93381666D01*
X104768633Y-93381666D02*
X105101966Y-93414999D01*
X105101966Y-93414999D02*
X105068633Y-93381666D01*
X105068633Y-93381666D02*
X105035300Y-93314999D01*
X105035300Y-93314999D02*
X105035300Y-93148333D01*
X105035300Y-93148333D02*
X105068633Y-93081666D01*
X105068633Y-93081666D02*
X105101966Y-93048333D01*
X105101966Y-93048333D02*
X105168633Y-93014999D01*
X105168633Y-93014999D02*
X105335300Y-93014999D01*
X105335300Y-93014999D02*
X105401966Y-93048333D01*
X105401966Y-93048333D02*
X105435300Y-93081666D01*
X105435300Y-93081666D02*
X105468633Y-93148333D01*
X105468633Y-93148333D02*
X105468633Y-93314999D01*
X105468633Y-93314999D02*
X105435300Y-93381666D01*
X105435300Y-93381666D02*
X105401966Y-93414999D01*
X104768633Y-92781666D02*
X104768633Y-92314999D01*
X104768633Y-92314999D02*
X105468633Y-92614999D01*
X83375833Y-94533633D02*
X83142500Y-94200300D01*
X82975833Y-94533633D02*
X82975833Y-93833633D01*
X82975833Y-93833633D02*
X83242500Y-93833633D01*
X83242500Y-93833633D02*
X83309167Y-93866966D01*
X83309167Y-93866966D02*
X83342500Y-93900300D01*
X83342500Y-93900300D02*
X83375833Y-93966966D01*
X83375833Y-93966966D02*
X83375833Y-94066966D01*
X83375833Y-94066966D02*
X83342500Y-94133633D01*
X83342500Y-94133633D02*
X83309167Y-94166966D01*
X83309167Y-94166966D02*
X83242500Y-94200300D01*
X83242500Y-94200300D02*
X82975833Y-94200300D01*
X84009167Y-93833633D02*
X83675833Y-93833633D01*
X83675833Y-93833633D02*
X83642500Y-94166966D01*
X83642500Y-94166966D02*
X83675833Y-94133633D01*
X83675833Y-94133633D02*
X83742500Y-94100300D01*
X83742500Y-94100300D02*
X83909167Y-94100300D01*
X83909167Y-94100300D02*
X83975833Y-94133633D01*
X83975833Y-94133633D02*
X84009167Y-94166966D01*
X84009167Y-94166966D02*
X84042500Y-94233633D01*
X84042500Y-94233633D02*
X84042500Y-94400300D01*
X84042500Y-94400300D02*
X84009167Y-94466966D01*
X84009167Y-94466966D02*
X83975833Y-94500300D01*
X83975833Y-94500300D02*
X83909167Y-94533633D01*
X83909167Y-94533633D02*
X83742500Y-94533633D01*
X83742500Y-94533633D02*
X83675833Y-94500300D01*
X83675833Y-94500300D02*
X83642500Y-94466966D01*
X85136666Y-89153633D02*
X85136666Y-89653633D01*
X85136666Y-89653633D02*
X85103333Y-89753633D01*
X85103333Y-89753633D02*
X85036666Y-89820300D01*
X85036666Y-89820300D02*
X84936666Y-89853633D01*
X84936666Y-89853633D02*
X84870000Y-89853633D01*
X85469999Y-89853633D02*
X85469999Y-89153633D01*
X85469999Y-89153633D02*
X85736666Y-89153633D01*
X85736666Y-89153633D02*
X85803333Y-89186966D01*
X85803333Y-89186966D02*
X85836666Y-89220300D01*
X85836666Y-89220300D02*
X85869999Y-89286966D01*
X85869999Y-89286966D02*
X85869999Y-89386966D01*
X85869999Y-89386966D02*
X85836666Y-89453633D01*
X85836666Y-89453633D02*
X85803333Y-89486966D01*
X85803333Y-89486966D02*
X85736666Y-89520300D01*
X85736666Y-89520300D02*
X85469999Y-89520300D01*
X86136666Y-89220300D02*
X86169999Y-89186966D01*
X86169999Y-89186966D02*
X86236666Y-89153633D01*
X86236666Y-89153633D02*
X86403333Y-89153633D01*
X86403333Y-89153633D02*
X86469999Y-89186966D01*
X86469999Y-89186966D02*
X86503333Y-89220300D01*
X86503333Y-89220300D02*
X86536666Y-89286966D01*
X86536666Y-89286966D02*
X86536666Y-89353633D01*
X86536666Y-89353633D02*
X86503333Y-89453633D01*
X86503333Y-89453633D02*
X86103333Y-89853633D01*
X86103333Y-89853633D02*
X86536666Y-89853633D01*
X98704999Y-129733633D02*
X98471666Y-129400300D01*
X98304999Y-129733633D02*
X98304999Y-129033633D01*
X98304999Y-129033633D02*
X98571666Y-129033633D01*
X98571666Y-129033633D02*
X98638333Y-129066966D01*
X98638333Y-129066966D02*
X98671666Y-129100300D01*
X98671666Y-129100300D02*
X98704999Y-129166966D01*
X98704999Y-129166966D02*
X98704999Y-129266966D01*
X98704999Y-129266966D02*
X98671666Y-129333633D01*
X98671666Y-129333633D02*
X98638333Y-129366966D01*
X98638333Y-129366966D02*
X98571666Y-129400300D01*
X98571666Y-129400300D02*
X98304999Y-129400300D01*
X99371666Y-129733633D02*
X98971666Y-129733633D01*
X99171666Y-129733633D02*
X99171666Y-129033633D01*
X99171666Y-129033633D02*
X99104999Y-129133633D01*
X99104999Y-129133633D02*
X99038333Y-129200300D01*
X99038333Y-129200300D02*
X98971666Y-129233633D01*
X99971666Y-129266966D02*
X99971666Y-129733633D01*
X99805000Y-129000300D02*
X99638333Y-129500300D01*
X99638333Y-129500300D02*
X100071666Y-129500300D01*
X97318633Y-95786666D02*
X96985300Y-96019999D01*
X97318633Y-96186666D02*
X96618633Y-96186666D01*
X96618633Y-96186666D02*
X96618633Y-95919999D01*
X96618633Y-95919999D02*
X96651966Y-95853333D01*
X96651966Y-95853333D02*
X96685300Y-95819999D01*
X96685300Y-95819999D02*
X96751966Y-95786666D01*
X96751966Y-95786666D02*
X96851966Y-95786666D01*
X96851966Y-95786666D02*
X96918633Y-95819999D01*
X96918633Y-95819999D02*
X96951966Y-95853333D01*
X96951966Y-95853333D02*
X96985300Y-95919999D01*
X96985300Y-95919999D02*
X96985300Y-96186666D01*
X96618633Y-95553333D02*
X96618633Y-95119999D01*
X96618633Y-95119999D02*
X96885300Y-95353333D01*
X96885300Y-95353333D02*
X96885300Y-95253333D01*
X96885300Y-95253333D02*
X96918633Y-95186666D01*
X96918633Y-95186666D02*
X96951966Y-95153333D01*
X96951966Y-95153333D02*
X97018633Y-95119999D01*
X97018633Y-95119999D02*
X97185300Y-95119999D01*
X97185300Y-95119999D02*
X97251966Y-95153333D01*
X97251966Y-95153333D02*
X97285300Y-95186666D01*
X97285300Y-95186666D02*
X97318633Y-95253333D01*
X97318633Y-95253333D02*
X97318633Y-95453333D01*
X97318633Y-95453333D02*
X97285300Y-95519999D01*
X97285300Y-95519999D02*
X97251966Y-95553333D01*
X98623633Y-124495000D02*
X98290300Y-124728333D01*
X98623633Y-124895000D02*
X97923633Y-124895000D01*
X97923633Y-124895000D02*
X97923633Y-124628333D01*
X97923633Y-124628333D02*
X97956966Y-124561667D01*
X97956966Y-124561667D02*
X97990300Y-124528333D01*
X97990300Y-124528333D02*
X98056966Y-124495000D01*
X98056966Y-124495000D02*
X98156966Y-124495000D01*
X98156966Y-124495000D02*
X98223633Y-124528333D01*
X98223633Y-124528333D02*
X98256966Y-124561667D01*
X98256966Y-124561667D02*
X98290300Y-124628333D01*
X98290300Y-124628333D02*
X98290300Y-124895000D01*
X98623633Y-123828333D02*
X98623633Y-124228333D01*
X98623633Y-124028333D02*
X97923633Y-124028333D01*
X97923633Y-124028333D02*
X98023633Y-124095000D01*
X98023633Y-124095000D02*
X98090300Y-124161667D01*
X98090300Y-124161667D02*
X98123633Y-124228333D01*
X97923633Y-123195000D02*
X97923633Y-123528333D01*
X97923633Y-123528333D02*
X98256966Y-123561666D01*
X98256966Y-123561666D02*
X98223633Y-123528333D01*
X98223633Y-123528333D02*
X98190300Y-123461666D01*
X98190300Y-123461666D02*
X98190300Y-123295000D01*
X98190300Y-123295000D02*
X98223633Y-123228333D01*
X98223633Y-123228333D02*
X98256966Y-123195000D01*
X98256966Y-123195000D02*
X98323633Y-123161666D01*
X98323633Y-123161666D02*
X98490300Y-123161666D01*
X98490300Y-123161666D02*
X98556966Y-123195000D01*
X98556966Y-123195000D02*
X98590300Y-123228333D01*
X98590300Y-123228333D02*
X98623633Y-123295000D01*
X98623633Y-123295000D02*
X98623633Y-123461666D01*
X98623633Y-123461666D02*
X98590300Y-123528333D01*
X98590300Y-123528333D02*
X98556966Y-123561666D01*
X104371666Y-116988633D02*
X104371666Y-117555300D01*
X104371666Y-117555300D02*
X104405000Y-117621966D01*
X104405000Y-117621966D02*
X104438333Y-117655300D01*
X104438333Y-117655300D02*
X104505000Y-117688633D01*
X104505000Y-117688633D02*
X104638333Y-117688633D01*
X104638333Y-117688633D02*
X104705000Y-117655300D01*
X104705000Y-117655300D02*
X104738333Y-117621966D01*
X104738333Y-117621966D02*
X104771666Y-117555300D01*
X104771666Y-117555300D02*
X104771666Y-116988633D01*
X105038333Y-116988633D02*
X105471666Y-116988633D01*
X105471666Y-116988633D02*
X105238333Y-117255300D01*
X105238333Y-117255300D02*
X105338333Y-117255300D01*
X105338333Y-117255300D02*
X105404999Y-117288633D01*
X105404999Y-117288633D02*
X105438333Y-117321966D01*
X105438333Y-117321966D02*
X105471666Y-117388633D01*
X105471666Y-117388633D02*
X105471666Y-117555300D01*
X105471666Y-117555300D02*
X105438333Y-117621966D01*
X105438333Y-117621966D02*
X105404999Y-117655300D01*
X105404999Y-117655300D02*
X105338333Y-117688633D01*
X105338333Y-117688633D02*
X105138333Y-117688633D01*
X105138333Y-117688633D02*
X105071666Y-117655300D01*
X105071666Y-117655300D02*
X105038333Y-117621966D01*
X104573633Y-125845000D02*
X104573633Y-125378333D01*
X104573633Y-125378333D02*
X105273633Y-125678333D01*
X104806966Y-124811666D02*
X105273633Y-124811666D01*
X104540300Y-124978333D02*
X105040300Y-125144999D01*
X105040300Y-125144999D02*
X105040300Y-124711666D01*
X105273633Y-124444999D02*
X104573633Y-124444999D01*
X104906966Y-124444999D02*
X104906966Y-124044999D01*
X105273633Y-124044999D02*
X104573633Y-124044999D01*
X105206966Y-123311666D02*
X105240300Y-123344999D01*
X105240300Y-123344999D02*
X105273633Y-123444999D01*
X105273633Y-123444999D02*
X105273633Y-123511666D01*
X105273633Y-123511666D02*
X105240300Y-123611666D01*
X105240300Y-123611666D02*
X105173633Y-123678333D01*
X105173633Y-123678333D02*
X105106966Y-123711666D01*
X105106966Y-123711666D02*
X104973633Y-123744999D01*
X104973633Y-123744999D02*
X104873633Y-123744999D01*
X104873633Y-123744999D02*
X104740300Y-123711666D01*
X104740300Y-123711666D02*
X104673633Y-123678333D01*
X104673633Y-123678333D02*
X104606966Y-123611666D01*
X104606966Y-123611666D02*
X104573633Y-123511666D01*
X104573633Y-123511666D02*
X104573633Y-123444999D01*
X104573633Y-123444999D02*
X104606966Y-123344999D01*
X104606966Y-123344999D02*
X104640300Y-123311666D01*
X104573633Y-123111666D02*
X104573633Y-122711666D01*
X105273633Y-122911666D02*
X104573633Y-122911666D01*
X104640300Y-122511666D02*
X104606966Y-122478333D01*
X104606966Y-122478333D02*
X104573633Y-122411666D01*
X104573633Y-122411666D02*
X104573633Y-122245000D01*
X104573633Y-122245000D02*
X104606966Y-122178333D01*
X104606966Y-122178333D02*
X104640300Y-122145000D01*
X104640300Y-122145000D02*
X104706966Y-122111666D01*
X104706966Y-122111666D02*
X104773633Y-122111666D01*
X104773633Y-122111666D02*
X104873633Y-122145000D01*
X104873633Y-122145000D02*
X105273633Y-122545000D01*
X105273633Y-122545000D02*
X105273633Y-122111666D01*
X104573633Y-121478333D02*
X104573633Y-121811666D01*
X104573633Y-121811666D02*
X104906966Y-121844999D01*
X104906966Y-121844999D02*
X104873633Y-121811666D01*
X104873633Y-121811666D02*
X104840300Y-121744999D01*
X104840300Y-121744999D02*
X104840300Y-121578333D01*
X104840300Y-121578333D02*
X104873633Y-121511666D01*
X104873633Y-121511666D02*
X104906966Y-121478333D01*
X104906966Y-121478333D02*
X104973633Y-121444999D01*
X104973633Y-121444999D02*
X105140300Y-121444999D01*
X105140300Y-121444999D02*
X105206966Y-121478333D01*
X105206966Y-121478333D02*
X105240300Y-121511666D01*
X105240300Y-121511666D02*
X105273633Y-121578333D01*
X105273633Y-121578333D02*
X105273633Y-121744999D01*
X105273633Y-121744999D02*
X105240300Y-121811666D01*
X105240300Y-121811666D02*
X105206966Y-121844999D01*
X104573633Y-121211666D02*
X104573633Y-120778332D01*
X104573633Y-120778332D02*
X104840300Y-121011666D01*
X104840300Y-121011666D02*
X104840300Y-120911666D01*
X104840300Y-120911666D02*
X104873633Y-120844999D01*
X104873633Y-120844999D02*
X104906966Y-120811666D01*
X104906966Y-120811666D02*
X104973633Y-120778332D01*
X104973633Y-120778332D02*
X105140300Y-120778332D01*
X105140300Y-120778332D02*
X105206966Y-120811666D01*
X105206966Y-120811666D02*
X105240300Y-120844999D01*
X105240300Y-120844999D02*
X105273633Y-120911666D01*
X105273633Y-120911666D02*
X105273633Y-121111666D01*
X105273633Y-121111666D02*
X105240300Y-121178332D01*
X105240300Y-121178332D02*
X105206966Y-121211666D01*
X97278633Y-100385000D02*
X96945300Y-100618333D01*
X97278633Y-100785000D02*
X96578633Y-100785000D01*
X96578633Y-100785000D02*
X96578633Y-100518333D01*
X96578633Y-100518333D02*
X96611966Y-100451667D01*
X96611966Y-100451667D02*
X96645300Y-100418333D01*
X96645300Y-100418333D02*
X96711966Y-100385000D01*
X96711966Y-100385000D02*
X96811966Y-100385000D01*
X96811966Y-100385000D02*
X96878633Y-100418333D01*
X96878633Y-100418333D02*
X96911966Y-100451667D01*
X96911966Y-100451667D02*
X96945300Y-100518333D01*
X96945300Y-100518333D02*
X96945300Y-100785000D01*
X97278633Y-99718333D02*
X97278633Y-100118333D01*
X97278633Y-99918333D02*
X96578633Y-99918333D01*
X96578633Y-99918333D02*
X96678633Y-99985000D01*
X96678633Y-99985000D02*
X96745300Y-100051667D01*
X96745300Y-100051667D02*
X96778633Y-100118333D01*
X96578633Y-99285000D02*
X96578633Y-99218333D01*
X96578633Y-99218333D02*
X96611966Y-99151666D01*
X96611966Y-99151666D02*
X96645300Y-99118333D01*
X96645300Y-99118333D02*
X96711966Y-99085000D01*
X96711966Y-99085000D02*
X96845300Y-99051666D01*
X96845300Y-99051666D02*
X97011966Y-99051666D01*
X97011966Y-99051666D02*
X97145300Y-99085000D01*
X97145300Y-99085000D02*
X97211966Y-99118333D01*
X97211966Y-99118333D02*
X97245300Y-99151666D01*
X97245300Y-99151666D02*
X97278633Y-99218333D01*
X97278633Y-99218333D02*
X97278633Y-99285000D01*
X97278633Y-99285000D02*
X97245300Y-99351666D01*
X97245300Y-99351666D02*
X97211966Y-99385000D01*
X97211966Y-99385000D02*
X97145300Y-99418333D01*
X97145300Y-99418333D02*
X97011966Y-99451666D01*
X97011966Y-99451666D02*
X96845300Y-99451666D01*
X96845300Y-99451666D02*
X96711966Y-99418333D01*
X96711966Y-99418333D02*
X96645300Y-99385000D01*
X96645300Y-99385000D02*
X96611966Y-99351666D01*
X96611966Y-99351666D02*
X96578633Y-99285000D01*
X89913633Y-120951666D02*
X89580300Y-121184999D01*
X89913633Y-121351666D02*
X89213633Y-121351666D01*
X89213633Y-121351666D02*
X89213633Y-121084999D01*
X89213633Y-121084999D02*
X89246966Y-121018333D01*
X89246966Y-121018333D02*
X89280300Y-120984999D01*
X89280300Y-120984999D02*
X89346966Y-120951666D01*
X89346966Y-120951666D02*
X89446966Y-120951666D01*
X89446966Y-120951666D02*
X89513633Y-120984999D01*
X89513633Y-120984999D02*
X89546966Y-121018333D01*
X89546966Y-121018333D02*
X89580300Y-121084999D01*
X89580300Y-121084999D02*
X89580300Y-121351666D01*
X89213633Y-120351666D02*
X89213633Y-120484999D01*
X89213633Y-120484999D02*
X89246966Y-120551666D01*
X89246966Y-120551666D02*
X89280300Y-120584999D01*
X89280300Y-120584999D02*
X89380300Y-120651666D01*
X89380300Y-120651666D02*
X89513633Y-120684999D01*
X89513633Y-120684999D02*
X89780300Y-120684999D01*
X89780300Y-120684999D02*
X89846966Y-120651666D01*
X89846966Y-120651666D02*
X89880300Y-120618333D01*
X89880300Y-120618333D02*
X89913633Y-120551666D01*
X89913633Y-120551666D02*
X89913633Y-120418333D01*
X89913633Y-120418333D02*
X89880300Y-120351666D01*
X89880300Y-120351666D02*
X89846966Y-120318333D01*
X89846966Y-120318333D02*
X89780300Y-120284999D01*
X89780300Y-120284999D02*
X89613633Y-120284999D01*
X89613633Y-120284999D02*
X89546966Y-120318333D01*
X89546966Y-120318333D02*
X89513633Y-120351666D01*
X89513633Y-120351666D02*
X89480300Y-120418333D01*
X89480300Y-120418333D02*
X89480300Y-120551666D01*
X89480300Y-120551666D02*
X89513633Y-120618333D01*
X89513633Y-120618333D02*
X89546966Y-120651666D01*
X89546966Y-120651666D02*
X89613633Y-120684999D01*
X97308633Y-108156666D02*
X96975300Y-108389999D01*
X97308633Y-108556666D02*
X96608633Y-108556666D01*
X96608633Y-108556666D02*
X96608633Y-108289999D01*
X96608633Y-108289999D02*
X96641966Y-108223333D01*
X96641966Y-108223333D02*
X96675300Y-108189999D01*
X96675300Y-108189999D02*
X96741966Y-108156666D01*
X96741966Y-108156666D02*
X96841966Y-108156666D01*
X96841966Y-108156666D02*
X96908633Y-108189999D01*
X96908633Y-108189999D02*
X96941966Y-108223333D01*
X96941966Y-108223333D02*
X96975300Y-108289999D01*
X96975300Y-108289999D02*
X96975300Y-108556666D01*
X96841966Y-107556666D02*
X97308633Y-107556666D01*
X96575300Y-107723333D02*
X97075300Y-107889999D01*
X97075300Y-107889999D02*
X97075300Y-107456666D01*
X86568333Y-117783633D02*
X86335000Y-117450300D01*
X86168333Y-117783633D02*
X86168333Y-117083633D01*
X86168333Y-117083633D02*
X86435000Y-117083633D01*
X86435000Y-117083633D02*
X86501667Y-117116966D01*
X86501667Y-117116966D02*
X86535000Y-117150300D01*
X86535000Y-117150300D02*
X86568333Y-117216966D01*
X86568333Y-117216966D02*
X86568333Y-117316966D01*
X86568333Y-117316966D02*
X86535000Y-117383633D01*
X86535000Y-117383633D02*
X86501667Y-117416966D01*
X86501667Y-117416966D02*
X86435000Y-117450300D01*
X86435000Y-117450300D02*
X86168333Y-117450300D01*
X86901667Y-117783633D02*
X87035000Y-117783633D01*
X87035000Y-117783633D02*
X87101667Y-117750300D01*
X87101667Y-117750300D02*
X87135000Y-117716966D01*
X87135000Y-117716966D02*
X87201667Y-117616966D01*
X87201667Y-117616966D02*
X87235000Y-117483633D01*
X87235000Y-117483633D02*
X87235000Y-117216966D01*
X87235000Y-117216966D02*
X87201667Y-117150300D01*
X87201667Y-117150300D02*
X87168333Y-117116966D01*
X87168333Y-117116966D02*
X87101667Y-117083633D01*
X87101667Y-117083633D02*
X86968333Y-117083633D01*
X86968333Y-117083633D02*
X86901667Y-117116966D01*
X86901667Y-117116966D02*
X86868333Y-117150300D01*
X86868333Y-117150300D02*
X86835000Y-117216966D01*
X86835000Y-117216966D02*
X86835000Y-117383633D01*
X86835000Y-117383633D02*
X86868333Y-117450300D01*
X86868333Y-117450300D02*
X86901667Y-117483633D01*
X86901667Y-117483633D02*
X86968333Y-117516966D01*
X86968333Y-117516966D02*
X87101667Y-117516966D01*
X87101667Y-117516966D02*
X87168333Y-117483633D01*
X87168333Y-117483633D02*
X87201667Y-117450300D01*
X87201667Y-117450300D02*
X87235000Y-117383633D01*
X90408633Y-138615000D02*
X90075300Y-138848333D01*
X90408633Y-139015000D02*
X89708633Y-139015000D01*
X89708633Y-139015000D02*
X89708633Y-138748333D01*
X89708633Y-138748333D02*
X89741966Y-138681667D01*
X89741966Y-138681667D02*
X89775300Y-138648333D01*
X89775300Y-138648333D02*
X89841966Y-138615000D01*
X89841966Y-138615000D02*
X89941966Y-138615000D01*
X89941966Y-138615000D02*
X90008633Y-138648333D01*
X90008633Y-138648333D02*
X90041966Y-138681667D01*
X90041966Y-138681667D02*
X90075300Y-138748333D01*
X90075300Y-138748333D02*
X90075300Y-139015000D01*
X90408633Y-137948333D02*
X90408633Y-138348333D01*
X90408633Y-138148333D02*
X89708633Y-138148333D01*
X89708633Y-138148333D02*
X89808633Y-138215000D01*
X89808633Y-138215000D02*
X89875300Y-138281667D01*
X89875300Y-138281667D02*
X89908633Y-138348333D01*
X89775300Y-137681666D02*
X89741966Y-137648333D01*
X89741966Y-137648333D02*
X89708633Y-137581666D01*
X89708633Y-137581666D02*
X89708633Y-137415000D01*
X89708633Y-137415000D02*
X89741966Y-137348333D01*
X89741966Y-137348333D02*
X89775300Y-137315000D01*
X89775300Y-137315000D02*
X89841966Y-137281666D01*
X89841966Y-137281666D02*
X89908633Y-137281666D01*
X89908633Y-137281666D02*
X90008633Y-137315000D01*
X90008633Y-137315000D02*
X90408633Y-137715000D01*
X90408633Y-137715000D02*
X90408633Y-137281666D01*
X78851666Y-115668633D02*
X78851666Y-116168633D01*
X78851666Y-116168633D02*
X78818333Y-116268633D01*
X78818333Y-116268633D02*
X78751666Y-116335300D01*
X78751666Y-116335300D02*
X78651666Y-116368633D01*
X78651666Y-116368633D02*
X78585000Y-116368633D01*
X79184999Y-116368633D02*
X79184999Y-115668633D01*
X79184999Y-115668633D02*
X79451666Y-115668633D01*
X79451666Y-115668633D02*
X79518333Y-115701966D01*
X79518333Y-115701966D02*
X79551666Y-115735300D01*
X79551666Y-115735300D02*
X79584999Y-115801966D01*
X79584999Y-115801966D02*
X79584999Y-115901966D01*
X79584999Y-115901966D02*
X79551666Y-115968633D01*
X79551666Y-115968633D02*
X79518333Y-116001966D01*
X79518333Y-116001966D02*
X79451666Y-116035300D01*
X79451666Y-116035300D02*
X79184999Y-116035300D01*
X79818333Y-115668633D02*
X80251666Y-115668633D01*
X80251666Y-115668633D02*
X80018333Y-115935300D01*
X80018333Y-115935300D02*
X80118333Y-115935300D01*
X80118333Y-115935300D02*
X80184999Y-115968633D01*
X80184999Y-115968633D02*
X80218333Y-116001966D01*
X80218333Y-116001966D02*
X80251666Y-116068633D01*
X80251666Y-116068633D02*
X80251666Y-116235300D01*
X80251666Y-116235300D02*
X80218333Y-116301966D01*
X80218333Y-116301966D02*
X80184999Y-116335300D01*
X80184999Y-116335300D02*
X80118333Y-116368633D01*
X80118333Y-116368633D02*
X79918333Y-116368633D01*
X79918333Y-116368633D02*
X79851666Y-116335300D01*
X79851666Y-116335300D02*
X79818333Y-116301966D01*
X97148633Y-120540000D02*
X96815300Y-120773333D01*
X97148633Y-120940000D02*
X96448633Y-120940000D01*
X96448633Y-120940000D02*
X96448633Y-120673333D01*
X96448633Y-120673333D02*
X96481966Y-120606667D01*
X96481966Y-120606667D02*
X96515300Y-120573333D01*
X96515300Y-120573333D02*
X96581966Y-120540000D01*
X96581966Y-120540000D02*
X96681966Y-120540000D01*
X96681966Y-120540000D02*
X96748633Y-120573333D01*
X96748633Y-120573333D02*
X96781966Y-120606667D01*
X96781966Y-120606667D02*
X96815300Y-120673333D01*
X96815300Y-120673333D02*
X96815300Y-120940000D01*
X97148633Y-119873333D02*
X97148633Y-120273333D01*
X97148633Y-120073333D02*
X96448633Y-120073333D01*
X96448633Y-120073333D02*
X96548633Y-120140000D01*
X96548633Y-120140000D02*
X96615300Y-120206667D01*
X96615300Y-120206667D02*
X96648633Y-120273333D01*
X97148633Y-119206666D02*
X97148633Y-119606666D01*
X97148633Y-119406666D02*
X96448633Y-119406666D01*
X96448633Y-119406666D02*
X96548633Y-119473333D01*
X96548633Y-119473333D02*
X96615300Y-119540000D01*
X96615300Y-119540000D02*
X96648633Y-119606666D01*
X104491666Y-102948233D02*
X104491666Y-103514900D01*
X104491666Y-103514900D02*
X104525000Y-103581566D01*
X104525000Y-103581566D02*
X104558333Y-103614900D01*
X104558333Y-103614900D02*
X104625000Y-103648233D01*
X104625000Y-103648233D02*
X104758333Y-103648233D01*
X104758333Y-103648233D02*
X104825000Y-103614900D01*
X104825000Y-103614900D02*
X104858333Y-103581566D01*
X104858333Y-103581566D02*
X104891666Y-103514900D01*
X104891666Y-103514900D02*
X104891666Y-102948233D01*
X105191666Y-103014900D02*
X105224999Y-102981566D01*
X105224999Y-102981566D02*
X105291666Y-102948233D01*
X105291666Y-102948233D02*
X105458333Y-102948233D01*
X105458333Y-102948233D02*
X105524999Y-102981566D01*
X105524999Y-102981566D02*
X105558333Y-103014900D01*
X105558333Y-103014900D02*
X105591666Y-103081566D01*
X105591666Y-103081566D02*
X105591666Y-103148233D01*
X105591666Y-103148233D02*
X105558333Y-103248233D01*
X105558333Y-103248233D02*
X105158333Y-103648233D01*
X105158333Y-103648233D02*
X105591666Y-103648233D01*
X104693633Y-111529600D02*
X104693633Y-111062933D01*
X104693633Y-111062933D02*
X105393633Y-111362933D01*
X104926966Y-110496266D02*
X105393633Y-110496266D01*
X104660300Y-110662933D02*
X105160300Y-110829599D01*
X105160300Y-110829599D02*
X105160300Y-110396266D01*
X105393633Y-110129599D02*
X104693633Y-110129599D01*
X105026966Y-110129599D02*
X105026966Y-109729599D01*
X105393633Y-109729599D02*
X104693633Y-109729599D01*
X105326966Y-108996266D02*
X105360300Y-109029599D01*
X105360300Y-109029599D02*
X105393633Y-109129599D01*
X105393633Y-109129599D02*
X105393633Y-109196266D01*
X105393633Y-109196266D02*
X105360300Y-109296266D01*
X105360300Y-109296266D02*
X105293633Y-109362933D01*
X105293633Y-109362933D02*
X105226966Y-109396266D01*
X105226966Y-109396266D02*
X105093633Y-109429599D01*
X105093633Y-109429599D02*
X104993633Y-109429599D01*
X104993633Y-109429599D02*
X104860300Y-109396266D01*
X104860300Y-109396266D02*
X104793633Y-109362933D01*
X104793633Y-109362933D02*
X104726966Y-109296266D01*
X104726966Y-109296266D02*
X104693633Y-109196266D01*
X104693633Y-109196266D02*
X104693633Y-109129599D01*
X104693633Y-109129599D02*
X104726966Y-109029599D01*
X104726966Y-109029599D02*
X104760300Y-108996266D01*
X104693633Y-108796266D02*
X104693633Y-108396266D01*
X105393633Y-108596266D02*
X104693633Y-108596266D01*
X104760300Y-108196266D02*
X104726966Y-108162933D01*
X104726966Y-108162933D02*
X104693633Y-108096266D01*
X104693633Y-108096266D02*
X104693633Y-107929600D01*
X104693633Y-107929600D02*
X104726966Y-107862933D01*
X104726966Y-107862933D02*
X104760300Y-107829600D01*
X104760300Y-107829600D02*
X104826966Y-107796266D01*
X104826966Y-107796266D02*
X104893633Y-107796266D01*
X104893633Y-107796266D02*
X104993633Y-107829600D01*
X104993633Y-107829600D02*
X105393633Y-108229600D01*
X105393633Y-108229600D02*
X105393633Y-107796266D01*
X104693633Y-107162933D02*
X104693633Y-107496266D01*
X104693633Y-107496266D02*
X105026966Y-107529599D01*
X105026966Y-107529599D02*
X104993633Y-107496266D01*
X104993633Y-107496266D02*
X104960300Y-107429599D01*
X104960300Y-107429599D02*
X104960300Y-107262933D01*
X104960300Y-107262933D02*
X104993633Y-107196266D01*
X104993633Y-107196266D02*
X105026966Y-107162933D01*
X105026966Y-107162933D02*
X105093633Y-107129599D01*
X105093633Y-107129599D02*
X105260300Y-107129599D01*
X105260300Y-107129599D02*
X105326966Y-107162933D01*
X105326966Y-107162933D02*
X105360300Y-107196266D01*
X105360300Y-107196266D02*
X105393633Y-107262933D01*
X105393633Y-107262933D02*
X105393633Y-107429599D01*
X105393633Y-107429599D02*
X105360300Y-107496266D01*
X105360300Y-107496266D02*
X105326966Y-107529599D01*
X104693633Y-106896266D02*
X104693633Y-106462932D01*
X104693633Y-106462932D02*
X104960300Y-106696266D01*
X104960300Y-106696266D02*
X104960300Y-106596266D01*
X104960300Y-106596266D02*
X104993633Y-106529599D01*
X104993633Y-106529599D02*
X105026966Y-106496266D01*
X105026966Y-106496266D02*
X105093633Y-106462932D01*
X105093633Y-106462932D02*
X105260300Y-106462932D01*
X105260300Y-106462932D02*
X105326966Y-106496266D01*
X105326966Y-106496266D02*
X105360300Y-106529599D01*
X105360300Y-106529599D02*
X105393633Y-106596266D01*
X105393633Y-106596266D02*
X105393633Y-106796266D01*
X105393633Y-106796266D02*
X105360300Y-106862932D01*
X105360300Y-106862932D02*
X105326966Y-106896266D01*
X91608333Y-93843633D02*
X91375000Y-93510300D01*
X91208333Y-93843633D02*
X91208333Y-93143633D01*
X91208333Y-93143633D02*
X91475000Y-93143633D01*
X91475000Y-93143633D02*
X91541667Y-93176966D01*
X91541667Y-93176966D02*
X91575000Y-93210300D01*
X91575000Y-93210300D02*
X91608333Y-93276966D01*
X91608333Y-93276966D02*
X91608333Y-93376966D01*
X91608333Y-93376966D02*
X91575000Y-93443633D01*
X91575000Y-93443633D02*
X91541667Y-93476966D01*
X91541667Y-93476966D02*
X91475000Y-93510300D01*
X91475000Y-93510300D02*
X91208333Y-93510300D01*
X92275000Y-93843633D02*
X91875000Y-93843633D01*
X92075000Y-93843633D02*
X92075000Y-93143633D01*
X92075000Y-93143633D02*
X92008333Y-93243633D01*
X92008333Y-93243633D02*
X91941667Y-93310300D01*
X91941667Y-93310300D02*
X91875000Y-93343633D01*
X89868633Y-127051666D02*
X89535300Y-127284999D01*
X89868633Y-127451666D02*
X89168633Y-127451666D01*
X89168633Y-127451666D02*
X89168633Y-127184999D01*
X89168633Y-127184999D02*
X89201966Y-127118333D01*
X89201966Y-127118333D02*
X89235300Y-127084999D01*
X89235300Y-127084999D02*
X89301966Y-127051666D01*
X89301966Y-127051666D02*
X89401966Y-127051666D01*
X89401966Y-127051666D02*
X89468633Y-127084999D01*
X89468633Y-127084999D02*
X89501966Y-127118333D01*
X89501966Y-127118333D02*
X89535300Y-127184999D01*
X89535300Y-127184999D02*
X89535300Y-127451666D01*
X89168633Y-126818333D02*
X89168633Y-126351666D01*
X89168633Y-126351666D02*
X89868633Y-126651666D01*
X104115603Y-115881780D02*
X104082270Y-115915114D01*
X104082270Y-115915114D02*
X103982270Y-115948447D01*
X103982270Y-115948447D02*
X103915603Y-115948447D01*
X103915603Y-115948447D02*
X103815603Y-115915114D01*
X103815603Y-115915114D02*
X103748937Y-115848447D01*
X103748937Y-115848447D02*
X103715603Y-115781780D01*
X103715603Y-115781780D02*
X103682270Y-115648447D01*
X103682270Y-115648447D02*
X103682270Y-115548447D01*
X103682270Y-115548447D02*
X103715603Y-115415114D01*
X103715603Y-115415114D02*
X103748937Y-115348447D01*
X103748937Y-115348447D02*
X103815603Y-115281780D01*
X103815603Y-115281780D02*
X103915603Y-115248447D01*
X103915603Y-115248447D02*
X103982270Y-115248447D01*
X103982270Y-115248447D02*
X104082270Y-115281780D01*
X104082270Y-115281780D02*
X104115603Y-115315114D01*
X104782270Y-115948447D02*
X104382270Y-115948447D01*
X104582270Y-115948447D02*
X104582270Y-115248447D01*
X104582270Y-115248447D02*
X104515603Y-115348447D01*
X104515603Y-115348447D02*
X104448937Y-115415114D01*
X104448937Y-115415114D02*
X104382270Y-115448447D01*
X103941666Y-135125300D02*
X104041666Y-135158633D01*
X104041666Y-135158633D02*
X104208333Y-135158633D01*
X104208333Y-135158633D02*
X104274999Y-135125300D01*
X104274999Y-135125300D02*
X104308333Y-135091966D01*
X104308333Y-135091966D02*
X104341666Y-135025300D01*
X104341666Y-135025300D02*
X104341666Y-134958633D01*
X104341666Y-134958633D02*
X104308333Y-134891966D01*
X104308333Y-134891966D02*
X104274999Y-134858633D01*
X104274999Y-134858633D02*
X104208333Y-134825300D01*
X104208333Y-134825300D02*
X104074999Y-134791966D01*
X104074999Y-134791966D02*
X104008333Y-134758633D01*
X104008333Y-134758633D02*
X103974999Y-134725300D01*
X103974999Y-134725300D02*
X103941666Y-134658633D01*
X103941666Y-134658633D02*
X103941666Y-134591966D01*
X103941666Y-134591966D02*
X103974999Y-134525300D01*
X103974999Y-134525300D02*
X104008333Y-134491966D01*
X104008333Y-134491966D02*
X104074999Y-134458633D01*
X104074999Y-134458633D02*
X104241666Y-134458633D01*
X104241666Y-134458633D02*
X104341666Y-134491966D01*
X104575000Y-134458633D02*
X104741666Y-135158633D01*
X104741666Y-135158633D02*
X104875000Y-134658633D01*
X104875000Y-134658633D02*
X105008333Y-135158633D01*
X105008333Y-135158633D02*
X105175000Y-134458633D01*
X105675000Y-134791966D02*
X105775000Y-134825300D01*
X105775000Y-134825300D02*
X105808333Y-134858633D01*
X105808333Y-134858633D02*
X105841666Y-134925300D01*
X105841666Y-134925300D02*
X105841666Y-135025300D01*
X105841666Y-135025300D02*
X105808333Y-135091966D01*
X105808333Y-135091966D02*
X105775000Y-135125300D01*
X105775000Y-135125300D02*
X105708333Y-135158633D01*
X105708333Y-135158633D02*
X105441666Y-135158633D01*
X105441666Y-135158633D02*
X105441666Y-134458633D01*
X105441666Y-134458633D02*
X105675000Y-134458633D01*
X105675000Y-134458633D02*
X105741666Y-134491966D01*
X105741666Y-134491966D02*
X105775000Y-134525300D01*
X105775000Y-134525300D02*
X105808333Y-134591966D01*
X105808333Y-134591966D02*
X105808333Y-134658633D01*
X105808333Y-134658633D02*
X105775000Y-134725300D01*
X105775000Y-134725300D02*
X105741666Y-134758633D01*
X105741666Y-134758633D02*
X105675000Y-134791966D01*
X105675000Y-134791966D02*
X105441666Y-134791966D01*
X106508333Y-135158633D02*
X106108333Y-135158633D01*
X106308333Y-135158633D02*
X106308333Y-134458633D01*
X106308333Y-134458633D02*
X106241666Y-134558633D01*
X106241666Y-134558633D02*
X106175000Y-134625300D01*
X106175000Y-134625300D02*
X106108333Y-134658633D01*
X103120833Y-145398633D02*
X103054167Y-145365300D01*
X103054167Y-145365300D02*
X103020833Y-145331966D01*
X103020833Y-145331966D02*
X102987500Y-145265300D01*
X102987500Y-145265300D02*
X102987500Y-145065300D01*
X102987500Y-145065300D02*
X103020833Y-144998633D01*
X103020833Y-144998633D02*
X103054167Y-144965300D01*
X103054167Y-144965300D02*
X103120833Y-144931966D01*
X103120833Y-144931966D02*
X103220833Y-144931966D01*
X103220833Y-144931966D02*
X103287500Y-144965300D01*
X103287500Y-144965300D02*
X103320833Y-144998633D01*
X103320833Y-144998633D02*
X103354167Y-145065300D01*
X103354167Y-145065300D02*
X103354167Y-145265300D01*
X103354167Y-145265300D02*
X103320833Y-145331966D01*
X103320833Y-145331966D02*
X103287500Y-145365300D01*
X103287500Y-145365300D02*
X103220833Y-145398633D01*
X103220833Y-145398633D02*
X103120833Y-145398633D01*
X103654166Y-144931966D02*
X103654166Y-145398633D01*
X103654166Y-144998633D02*
X103687500Y-144965300D01*
X103687500Y-144965300D02*
X103754166Y-144931966D01*
X103754166Y-144931966D02*
X103854166Y-144931966D01*
X103854166Y-144931966D02*
X103920833Y-144965300D01*
X103920833Y-144965300D02*
X103954166Y-145031966D01*
X103954166Y-145031966D02*
X103954166Y-145398633D01*
D14*
%TO.C,R8*%
X90315000Y-131782936D02*
X90315000Y-132237064D01*
X91785000Y-131782936D02*
X91785000Y-132237064D01*
%TO.C,R13*%
X90905000Y-142367064D02*
X90905000Y-141912936D01*
X92375000Y-142367064D02*
X92375000Y-141912936D01*
%TO.C,C2*%
X106648748Y-100635000D02*
X107171252Y-100635000D01*
X106648748Y-102105000D02*
X107171252Y-102105000D01*
%TO.C,R2*%
X97735000Y-91282936D02*
X97735000Y-91737064D01*
X99205000Y-91282936D02*
X99205000Y-91737064D01*
%TO.C,JP1*%
X79295000Y-90745000D02*
X79295000Y-91345000D01*
X79595000Y-91045000D02*
X79295000Y-90745000D01*
X79595000Y-91045000D02*
X79295000Y-91345000D01*
X79795000Y-93645000D02*
X79795000Y-90845000D01*
X80495000Y-90195000D02*
X81095000Y-90195000D01*
X81095000Y-94295000D02*
X80495000Y-94295000D01*
X81795000Y-90845000D02*
X81795000Y-93645000D01*
X79795000Y-90895000D02*
G75*
G02*
X80495000Y-90195000I699999J1D01*
G01*
X80495000Y-94295000D02*
G75*
G02*
X79795000Y-93595000I0J700000D01*
G01*
X81095000Y-90195000D02*
G75*
G02*
X81795000Y-90895000I1J-699999D01*
G01*
X81795000Y-93595000D02*
G75*
G02*
X81095000Y-94295000I-700000J0D01*
G01*
%TO.C,U1*%
X105100000Y-89840000D02*
X103150000Y-89840000D01*
X105100000Y-89840000D02*
X107050000Y-89840000D01*
X105100000Y-99960000D02*
X103150000Y-99960000D01*
X105100000Y-99960000D02*
X107050000Y-99960000D01*
X108040000Y-100235000D02*
X107560000Y-100235000D01*
X107800000Y-99905000D01*
X108040000Y-100235000D01*
G36*
X108040000Y-100235000D02*
G01*
X107560000Y-100235000D01*
X107800000Y-99905000D01*
X108040000Y-100235000D01*
G37*
%TO.C,R5*%
X82717500Y-91577936D02*
X82717500Y-92032064D01*
X84187500Y-91577936D02*
X84187500Y-92032064D01*
%TO.C,JP2*%
X87150000Y-92695000D02*
X87150000Y-89895000D01*
X87850000Y-89245000D02*
X88450000Y-89245000D01*
X88450000Y-93345000D02*
X87850000Y-93345000D01*
X89150000Y-89895000D02*
X89150000Y-92695000D01*
X89350000Y-92495000D02*
X89650000Y-92195000D01*
X89350000Y-92495000D02*
X89650000Y-92795000D01*
X89650000Y-92795000D02*
X89650000Y-92195000D01*
X87150000Y-89945000D02*
G75*
G02*
X87850000Y-89245000I700000J0D01*
G01*
X87850000Y-93345000D02*
G75*
G02*
X87150000Y-92645000I-1J699999D01*
G01*
X88450000Y-89245000D02*
G75*
G02*
X89150000Y-89945000I0J-700000D01*
G01*
X89150000Y-92645000D02*
G75*
G02*
X88450000Y-93345000I-699999J-1D01*
G01*
%TO.C,R14*%
X99382064Y-127030000D02*
X98927936Y-127030000D01*
X99382064Y-128500000D02*
X98927936Y-128500000D01*
%TO.C,R3*%
X97735000Y-95452936D02*
X97735000Y-95907064D01*
X99205000Y-95452936D02*
X99205000Y-95907064D01*
%TO.C,R15*%
X99070000Y-123657936D02*
X99070000Y-124112064D01*
X100540000Y-123657936D02*
X100540000Y-124112064D01*
%TO.C,U3*%
X105030000Y-118235000D02*
X103080000Y-118235000D01*
X105030000Y-118235000D02*
X106980000Y-118235000D01*
X105030000Y-128355000D02*
X103080000Y-128355000D01*
X105030000Y-128355000D02*
X106980000Y-128355000D01*
X107970000Y-128630000D02*
X107490000Y-128630000D01*
X107730000Y-128300000D01*
X107970000Y-128630000D01*
G36*
X107970000Y-128630000D02*
G01*
X107490000Y-128630000D01*
X107730000Y-128300000D01*
X107970000Y-128630000D01*
G37*
%TO.C,R10*%
X97735000Y-100097064D02*
X97735000Y-99642936D01*
X99205000Y-100097064D02*
X99205000Y-99642936D01*
%TO.C,R6*%
X90315000Y-120622936D02*
X90315000Y-121077064D01*
X91785000Y-120622936D02*
X91785000Y-121077064D01*
%TO.C,R4*%
X97735000Y-107802936D02*
X97735000Y-108257064D01*
X99205000Y-107802936D02*
X99205000Y-108257064D01*
%TO.C,R9*%
X84072064Y-116810000D02*
X83617936Y-116810000D01*
X84072064Y-118280000D02*
X83617936Y-118280000D01*
%TO.C,R12*%
X90915000Y-137747936D02*
X90915000Y-138202064D01*
X92385000Y-137747936D02*
X92385000Y-138202064D01*
%TO.C,JP3*%
X78675000Y-120280000D02*
X78675000Y-117480000D01*
X79375000Y-116830000D02*
X79975000Y-116830000D01*
X79975000Y-120930000D02*
X79375000Y-120930000D01*
X80675000Y-117480000D02*
X80675000Y-120280000D01*
X80875000Y-120080000D02*
X81175000Y-119780000D01*
X80875000Y-120080000D02*
X81175000Y-120380000D01*
X81175000Y-120380000D02*
X81175000Y-119780000D01*
X78675000Y-117530000D02*
G75*
G02*
X79375000Y-116830000I700000J0D01*
G01*
X79375000Y-120930000D02*
G75*
G02*
X78675000Y-120230000I-1J699999D01*
G01*
X79975000Y-116830000D02*
G75*
G02*
X80675000Y-117530000I0J-700000D01*
G01*
X80675000Y-120230000D02*
G75*
G02*
X79975000Y-120930000I-699999J-1D01*
G01*
%TO.C,R11*%
X97605000Y-120307064D02*
X97605000Y-119852936D01*
X99075000Y-120307064D02*
X99075000Y-119852936D01*
%TO.C,U2*%
X105025000Y-104154600D02*
X103075000Y-104154600D01*
X105025000Y-104154600D02*
X106975000Y-104154600D01*
X105025000Y-114274600D02*
X103075000Y-114274600D01*
X105025000Y-114274600D02*
X106975000Y-114274600D01*
X107965000Y-114549600D02*
X107485000Y-114549600D01*
X107725000Y-114219600D01*
X107965000Y-114549600D01*
G36*
X107965000Y-114549600D02*
G01*
X107485000Y-114549600D01*
X107725000Y-114219600D01*
X107965000Y-114549600D01*
G37*
%TO.C,J2*%
X80665000Y-95345000D02*
X80665000Y-115905000D01*
X80665000Y-115905000D02*
X90945000Y-115905000D01*
X83155000Y-95405000D02*
X83155000Y-115845000D01*
X83155000Y-115845000D02*
X84805000Y-115845000D01*
X86805000Y-115845000D02*
X88455000Y-115845000D01*
X88455000Y-95405000D02*
X83155000Y-95405000D01*
X88455000Y-115845000D02*
X88455000Y-95405000D01*
X90945000Y-95345000D02*
X80665000Y-95345000D01*
X90945000Y-115905000D02*
X90945000Y-95345000D01*
X84805000Y-115845000D02*
G75*
G02*
X86805000Y-115845000I1000000J0D01*
G01*
%TO.C,R1*%
X90960000Y-91292064D02*
X90960000Y-90837936D01*
X92430000Y-91292064D02*
X92430000Y-90837936D01*
%TO.C,R7*%
X90315000Y-126697936D02*
X90315000Y-127152064D01*
X91785000Y-126697936D02*
X91785000Y-127152064D01*
%TO.C,C1*%
X106601018Y-114894814D02*
X107123522Y-114894814D01*
X106601018Y-116364814D02*
X107123522Y-116364814D01*
%TO.C,SWB1*%
X102935000Y-136310000D02*
X102935000Y-135600000D01*
X102935000Y-144610000D02*
X102935000Y-143900000D01*
X107554000Y-135600000D02*
X102935000Y-135600000D01*
X107554000Y-136310000D02*
X107554000Y-135600000D01*
X107554000Y-144610000D02*
X102935000Y-144610000D01*
X107554000Y-144610000D02*
X107554000Y-143960000D01*
X108945000Y-143960000D02*
X107554000Y-143960000D01*
%TD*%
M02*
