%TF.GenerationSoftware,KiCad,Pcbnew,8.0.5*%
%TF.CreationDate,2024-11-12T16:02:30-04:00*%
%TF.ProjectId,RAMAUXB_V2_Github,52414d41-5558-4425-9f56-325f47697468,rev?*%
%TF.SameCoordinates,Original*%
%TF.FileFunction,Legend,Bot*%
%TF.FilePolarity,Positive*%
%FSLAX46Y46*%
G04 Gerber Fmt 4.6, Leading zero omitted, Abs format (unit mm)*
G04 Created by KiCad (PCBNEW 8.0.5) date 2024-11-12 16:02:30*
%MOMM*%
%LPD*%
G01*
G04 APERTURE LIST*
%ADD10C,0.100000*%
%ADD11C,0.120000*%
G04 APERTURE END LIST*
D10*
X82924210Y-142469133D02*
X82590877Y-142469133D01*
X82990877Y-142669133D02*
X82757544Y-141969133D01*
X82757544Y-141969133D02*
X82524210Y-142669133D01*
X81924210Y-142669133D02*
X82324210Y-142669133D01*
X82124210Y-142669133D02*
X82124210Y-141969133D01*
X82124210Y-141969133D02*
X82190877Y-142069133D01*
X82190877Y-142069133D02*
X82257544Y-142135800D01*
X82257544Y-142135800D02*
X82324210Y-142169133D01*
X81590877Y-142669133D02*
X81457543Y-142669133D01*
X81457543Y-142669133D02*
X81390877Y-142635800D01*
X81390877Y-142635800D02*
X81357543Y-142602466D01*
X81357543Y-142602466D02*
X81290877Y-142502466D01*
X81290877Y-142502466D02*
X81257543Y-142369133D01*
X81257543Y-142369133D02*
X81257543Y-142102466D01*
X81257543Y-142102466D02*
X81290877Y-142035800D01*
X81290877Y-142035800D02*
X81324210Y-142002466D01*
X81324210Y-142002466D02*
X81390877Y-141969133D01*
X81390877Y-141969133D02*
X81524210Y-141969133D01*
X81524210Y-141969133D02*
X81590877Y-142002466D01*
X81590877Y-142002466D02*
X81624210Y-142035800D01*
X81624210Y-142035800D02*
X81657543Y-142102466D01*
X81657543Y-142102466D02*
X81657543Y-142269133D01*
X81657543Y-142269133D02*
X81624210Y-142335800D01*
X81624210Y-142335800D02*
X81590877Y-142369133D01*
X81590877Y-142369133D02*
X81524210Y-142402466D01*
X81524210Y-142402466D02*
X81390877Y-142402466D01*
X81390877Y-142402466D02*
X81324210Y-142369133D01*
X81324210Y-142369133D02*
X81290877Y-142335800D01*
X81290877Y-142335800D02*
X81257543Y-142269133D01*
X82890877Y-125089133D02*
X82890877Y-124389133D01*
X82890877Y-124389133D02*
X82724210Y-124389133D01*
X82724210Y-124389133D02*
X82624210Y-124422466D01*
X82624210Y-124422466D02*
X82557544Y-124489133D01*
X82557544Y-124489133D02*
X82524210Y-124555800D01*
X82524210Y-124555800D02*
X82490877Y-124689133D01*
X82490877Y-124689133D02*
X82490877Y-124789133D01*
X82490877Y-124789133D02*
X82524210Y-124922466D01*
X82524210Y-124922466D02*
X82557544Y-124989133D01*
X82557544Y-124989133D02*
X82624210Y-125055800D01*
X82624210Y-125055800D02*
X82724210Y-125089133D01*
X82724210Y-125089133D02*
X82890877Y-125089133D01*
X82190877Y-125089133D02*
X82190877Y-124389133D01*
X82190877Y-124389133D02*
X81957544Y-124889133D01*
X81957544Y-124889133D02*
X81724210Y-124389133D01*
X81724210Y-124389133D02*
X81724210Y-125089133D01*
X81424210Y-124889133D02*
X81090877Y-124889133D01*
X81490877Y-125089133D02*
X81257544Y-124389133D01*
X81257544Y-124389133D02*
X81024210Y-125089133D01*
X82987544Y-124194800D02*
X81027544Y-124194800D01*
X108917544Y-145302466D02*
X108950877Y-145335800D01*
X108950877Y-145335800D02*
X109050877Y-145369133D01*
X109050877Y-145369133D02*
X109117544Y-145369133D01*
X109117544Y-145369133D02*
X109217544Y-145335800D01*
X109217544Y-145335800D02*
X109284211Y-145269133D01*
X109284211Y-145269133D02*
X109317544Y-145202466D01*
X109317544Y-145202466D02*
X109350877Y-145069133D01*
X109350877Y-145069133D02*
X109350877Y-144969133D01*
X109350877Y-144969133D02*
X109317544Y-144835800D01*
X109317544Y-144835800D02*
X109284211Y-144769133D01*
X109284211Y-144769133D02*
X109217544Y-144702466D01*
X109217544Y-144702466D02*
X109117544Y-144669133D01*
X109117544Y-144669133D02*
X109050877Y-144669133D01*
X109050877Y-144669133D02*
X108950877Y-144702466D01*
X108950877Y-144702466D02*
X108917544Y-144735800D01*
X108650877Y-145169133D02*
X108317544Y-145169133D01*
X108717544Y-145369133D02*
X108484211Y-144669133D01*
X108484211Y-144669133D02*
X108250877Y-145369133D01*
X108050877Y-145335800D02*
X107950877Y-145369133D01*
X107950877Y-145369133D02*
X107784211Y-145369133D01*
X107784211Y-145369133D02*
X107717544Y-145335800D01*
X107717544Y-145335800D02*
X107684211Y-145302466D01*
X107684211Y-145302466D02*
X107650877Y-145235800D01*
X107650877Y-145235800D02*
X107650877Y-145169133D01*
X107650877Y-145169133D02*
X107684211Y-145102466D01*
X107684211Y-145102466D02*
X107717544Y-145069133D01*
X107717544Y-145069133D02*
X107784211Y-145035800D01*
X107784211Y-145035800D02*
X107917544Y-145002466D01*
X107917544Y-145002466D02*
X107984211Y-144969133D01*
X107984211Y-144969133D02*
X108017544Y-144935800D01*
X108017544Y-144935800D02*
X108050877Y-144869133D01*
X108050877Y-144869133D02*
X108050877Y-144802466D01*
X108050877Y-144802466D02*
X108017544Y-144735800D01*
X108017544Y-144735800D02*
X107984211Y-144702466D01*
X107984211Y-144702466D02*
X107917544Y-144669133D01*
X107917544Y-144669133D02*
X107750877Y-144669133D01*
X107750877Y-144669133D02*
X107650877Y-144702466D01*
X106984210Y-145369133D02*
X107384210Y-145369133D01*
X107184210Y-145369133D02*
X107184210Y-144669133D01*
X107184210Y-144669133D02*
X107250877Y-144769133D01*
X107250877Y-144769133D02*
X107317544Y-144835800D01*
X107317544Y-144835800D02*
X107384210Y-144869133D01*
X109414211Y-144474800D02*
X106920877Y-144474800D01*
X109278020Y-132449133D02*
X109278020Y-131749133D01*
X109278020Y-131749133D02*
X109044687Y-132249133D01*
X109044687Y-132249133D02*
X108811353Y-131749133D01*
X108811353Y-131749133D02*
X108811353Y-132449133D01*
X108511353Y-132415800D02*
X108411353Y-132449133D01*
X108411353Y-132449133D02*
X108244687Y-132449133D01*
X108244687Y-132449133D02*
X108178020Y-132415800D01*
X108178020Y-132415800D02*
X108144687Y-132382466D01*
X108144687Y-132382466D02*
X108111353Y-132315800D01*
X108111353Y-132315800D02*
X108111353Y-132249133D01*
X108111353Y-132249133D02*
X108144687Y-132182466D01*
X108144687Y-132182466D02*
X108178020Y-132149133D01*
X108178020Y-132149133D02*
X108244687Y-132115800D01*
X108244687Y-132115800D02*
X108378020Y-132082466D01*
X108378020Y-132082466D02*
X108444687Y-132049133D01*
X108444687Y-132049133D02*
X108478020Y-132015800D01*
X108478020Y-132015800D02*
X108511353Y-131949133D01*
X108511353Y-131949133D02*
X108511353Y-131882466D01*
X108511353Y-131882466D02*
X108478020Y-131815800D01*
X108478020Y-131815800D02*
X108444687Y-131782466D01*
X108444687Y-131782466D02*
X108378020Y-131749133D01*
X108378020Y-131749133D02*
X108211353Y-131749133D01*
X108211353Y-131749133D02*
X108111353Y-131782466D01*
X107411353Y-132449133D02*
X107644686Y-132115800D01*
X107811353Y-132449133D02*
X107811353Y-131749133D01*
X107811353Y-131749133D02*
X107544686Y-131749133D01*
X107544686Y-131749133D02*
X107478020Y-131782466D01*
X107478020Y-131782466D02*
X107444686Y-131815800D01*
X107444686Y-131815800D02*
X107411353Y-131882466D01*
X107411353Y-131882466D02*
X107411353Y-131982466D01*
X107411353Y-131982466D02*
X107444686Y-132049133D01*
X107444686Y-132049133D02*
X107478020Y-132082466D01*
X107478020Y-132082466D02*
X107544686Y-132115800D01*
X107544686Y-132115800D02*
X107811353Y-132115800D01*
X107144686Y-132249133D02*
X106811353Y-132249133D01*
X107211353Y-132449133D02*
X106978020Y-131749133D01*
X106978020Y-131749133D02*
X106744686Y-132449133D01*
X106411353Y-132049133D02*
X106478020Y-132015800D01*
X106478020Y-132015800D02*
X106511353Y-131982466D01*
X106511353Y-131982466D02*
X106544686Y-131915800D01*
X106544686Y-131915800D02*
X106544686Y-131882466D01*
X106544686Y-131882466D02*
X106511353Y-131815800D01*
X106511353Y-131815800D02*
X106478020Y-131782466D01*
X106478020Y-131782466D02*
X106411353Y-131749133D01*
X106411353Y-131749133D02*
X106278020Y-131749133D01*
X106278020Y-131749133D02*
X106211353Y-131782466D01*
X106211353Y-131782466D02*
X106178020Y-131815800D01*
X106178020Y-131815800D02*
X106144686Y-131882466D01*
X106144686Y-131882466D02*
X106144686Y-131915800D01*
X106144686Y-131915800D02*
X106178020Y-131982466D01*
X106178020Y-131982466D02*
X106211353Y-132015800D01*
X106211353Y-132015800D02*
X106278020Y-132049133D01*
X106278020Y-132049133D02*
X106411353Y-132049133D01*
X106411353Y-132049133D02*
X106478020Y-132082466D01*
X106478020Y-132082466D02*
X106511353Y-132115800D01*
X106511353Y-132115800D02*
X106544686Y-132182466D01*
X106544686Y-132182466D02*
X106544686Y-132315800D01*
X106544686Y-132315800D02*
X106511353Y-132382466D01*
X106511353Y-132382466D02*
X106478020Y-132415800D01*
X106478020Y-132415800D02*
X106411353Y-132449133D01*
X106411353Y-132449133D02*
X106278020Y-132449133D01*
X106278020Y-132449133D02*
X106211353Y-132415800D01*
X106211353Y-132415800D02*
X106178020Y-132382466D01*
X106178020Y-132382466D02*
X106144686Y-132315800D01*
X106144686Y-132315800D02*
X106144686Y-132182466D01*
X106144686Y-132182466D02*
X106178020Y-132115800D01*
X106178020Y-132115800D02*
X106211353Y-132082466D01*
X106211353Y-132082466D02*
X106278020Y-132049133D01*
X105611353Y-132082466D02*
X105844686Y-132082466D01*
X105844686Y-132449133D02*
X105844686Y-131749133D01*
X105844686Y-131749133D02*
X105511353Y-131749133D01*
X83254210Y-122555800D02*
X83154210Y-122589133D01*
X83154210Y-122589133D02*
X82987544Y-122589133D01*
X82987544Y-122589133D02*
X82920877Y-122555800D01*
X82920877Y-122555800D02*
X82887544Y-122522466D01*
X82887544Y-122522466D02*
X82854210Y-122455800D01*
X82854210Y-122455800D02*
X82854210Y-122389133D01*
X82854210Y-122389133D02*
X82887544Y-122322466D01*
X82887544Y-122322466D02*
X82920877Y-122289133D01*
X82920877Y-122289133D02*
X82987544Y-122255800D01*
X82987544Y-122255800D02*
X83120877Y-122222466D01*
X83120877Y-122222466D02*
X83187544Y-122189133D01*
X83187544Y-122189133D02*
X83220877Y-122155800D01*
X83220877Y-122155800D02*
X83254210Y-122089133D01*
X83254210Y-122089133D02*
X83254210Y-122022466D01*
X83254210Y-122022466D02*
X83220877Y-121955800D01*
X83220877Y-121955800D02*
X83187544Y-121922466D01*
X83187544Y-121922466D02*
X83120877Y-121889133D01*
X83120877Y-121889133D02*
X82954210Y-121889133D01*
X82954210Y-121889133D02*
X82854210Y-121922466D01*
X82554210Y-122589133D02*
X82554210Y-121889133D01*
X82554210Y-121889133D02*
X82154210Y-122589133D01*
X82154210Y-122589133D02*
X82154210Y-121889133D01*
X81820877Y-122589133D02*
X81820877Y-121889133D01*
X81820877Y-121889133D02*
X81654210Y-121889133D01*
X81654210Y-121889133D02*
X81554210Y-121922466D01*
X81554210Y-121922466D02*
X81487544Y-121989133D01*
X81487544Y-121989133D02*
X81454210Y-122055800D01*
X81454210Y-122055800D02*
X81420877Y-122189133D01*
X81420877Y-122189133D02*
X81420877Y-122289133D01*
X81420877Y-122289133D02*
X81454210Y-122422466D01*
X81454210Y-122422466D02*
X81487544Y-122489133D01*
X81487544Y-122489133D02*
X81554210Y-122555800D01*
X81554210Y-122555800D02*
X81654210Y-122589133D01*
X81654210Y-122589133D02*
X81820877Y-122589133D01*
X81120877Y-122589133D02*
X81120877Y-121889133D01*
X81120877Y-121889133D02*
X80854210Y-121889133D01*
X80854210Y-121889133D02*
X80787544Y-121922466D01*
X80787544Y-121922466D02*
X80754210Y-121955800D01*
X80754210Y-121955800D02*
X80720877Y-122022466D01*
X80720877Y-122022466D02*
X80720877Y-122122466D01*
X80720877Y-122122466D02*
X80754210Y-122189133D01*
X80754210Y-122189133D02*
X80787544Y-122222466D01*
X80787544Y-122222466D02*
X80854210Y-122255800D01*
X80854210Y-122255800D02*
X81120877Y-122255800D01*
X80054210Y-121922466D02*
X80120877Y-121889133D01*
X80120877Y-121889133D02*
X80220877Y-121889133D01*
X80220877Y-121889133D02*
X80320877Y-121922466D01*
X80320877Y-121922466D02*
X80387544Y-121989133D01*
X80387544Y-121989133D02*
X80420877Y-122055800D01*
X80420877Y-122055800D02*
X80454210Y-122189133D01*
X80454210Y-122189133D02*
X80454210Y-122289133D01*
X80454210Y-122289133D02*
X80420877Y-122422466D01*
X80420877Y-122422466D02*
X80387544Y-122489133D01*
X80387544Y-122489133D02*
X80320877Y-122555800D01*
X80320877Y-122555800D02*
X80220877Y-122589133D01*
X80220877Y-122589133D02*
X80154210Y-122589133D01*
X80154210Y-122589133D02*
X80054210Y-122555800D01*
X80054210Y-122555800D02*
X80020877Y-122522466D01*
X80020877Y-122522466D02*
X80020877Y-122289133D01*
X80020877Y-122289133D02*
X80154210Y-122289133D01*
X79754210Y-121955800D02*
X79720877Y-121922466D01*
X79720877Y-121922466D02*
X79654210Y-121889133D01*
X79654210Y-121889133D02*
X79487544Y-121889133D01*
X79487544Y-121889133D02*
X79420877Y-121922466D01*
X79420877Y-121922466D02*
X79387544Y-121955800D01*
X79387544Y-121955800D02*
X79354210Y-122022466D01*
X79354210Y-122022466D02*
X79354210Y-122089133D01*
X79354210Y-122089133D02*
X79387544Y-122189133D01*
X79387544Y-122189133D02*
X79787544Y-122589133D01*
X79787544Y-122589133D02*
X79354210Y-122589133D01*
X83317544Y-121694800D02*
X79290877Y-121694800D01*
X82924210Y-139909133D02*
X82590877Y-139909133D01*
X82990877Y-140109133D02*
X82757544Y-139409133D01*
X82757544Y-139409133D02*
X82524210Y-140109133D01*
X82324210Y-139475800D02*
X82290877Y-139442466D01*
X82290877Y-139442466D02*
X82224210Y-139409133D01*
X82224210Y-139409133D02*
X82057544Y-139409133D01*
X82057544Y-139409133D02*
X81990877Y-139442466D01*
X81990877Y-139442466D02*
X81957544Y-139475800D01*
X81957544Y-139475800D02*
X81924210Y-139542466D01*
X81924210Y-139542466D02*
X81924210Y-139609133D01*
X81924210Y-139609133D02*
X81957544Y-139709133D01*
X81957544Y-139709133D02*
X82357544Y-140109133D01*
X82357544Y-140109133D02*
X81924210Y-140109133D01*
X81490877Y-139409133D02*
X81424210Y-139409133D01*
X81424210Y-139409133D02*
X81357543Y-139442466D01*
X81357543Y-139442466D02*
X81324210Y-139475800D01*
X81324210Y-139475800D02*
X81290877Y-139542466D01*
X81290877Y-139542466D02*
X81257543Y-139675800D01*
X81257543Y-139675800D02*
X81257543Y-139842466D01*
X81257543Y-139842466D02*
X81290877Y-139975800D01*
X81290877Y-139975800D02*
X81324210Y-140042466D01*
X81324210Y-140042466D02*
X81357543Y-140075800D01*
X81357543Y-140075800D02*
X81424210Y-140109133D01*
X81424210Y-140109133D02*
X81490877Y-140109133D01*
X81490877Y-140109133D02*
X81557543Y-140075800D01*
X81557543Y-140075800D02*
X81590877Y-140042466D01*
X81590877Y-140042466D02*
X81624210Y-139975800D01*
X81624210Y-139975800D02*
X81657543Y-139842466D01*
X81657543Y-139842466D02*
X81657543Y-139675800D01*
X81657543Y-139675800D02*
X81624210Y-139542466D01*
X81624210Y-139542466D02*
X81590877Y-139475800D01*
X81590877Y-139475800D02*
X81557543Y-139442466D01*
X81557543Y-139442466D02*
X81490877Y-139409133D01*
X82924210Y-137369133D02*
X82590877Y-137369133D01*
X82990877Y-137569133D02*
X82757544Y-136869133D01*
X82757544Y-136869133D02*
X82524210Y-137569133D01*
X81924210Y-137569133D02*
X82324210Y-137569133D01*
X82124210Y-137569133D02*
X82124210Y-136869133D01*
X82124210Y-136869133D02*
X82190877Y-136969133D01*
X82190877Y-136969133D02*
X82257544Y-137035800D01*
X82257544Y-137035800D02*
X82324210Y-137069133D01*
X81690877Y-136869133D02*
X81224210Y-136869133D01*
X81224210Y-136869133D02*
X81524210Y-137569133D01*
X108848020Y-137483576D02*
X108881353Y-137516910D01*
X108881353Y-137516910D02*
X108981353Y-137550243D01*
X108981353Y-137550243D02*
X109048020Y-137550243D01*
X109048020Y-137550243D02*
X109148020Y-137516910D01*
X109148020Y-137516910D02*
X109214687Y-137450243D01*
X109214687Y-137450243D02*
X109248020Y-137383576D01*
X109248020Y-137383576D02*
X109281353Y-137250243D01*
X109281353Y-137250243D02*
X109281353Y-137150243D01*
X109281353Y-137150243D02*
X109248020Y-137016910D01*
X109248020Y-137016910D02*
X109214687Y-136950243D01*
X109214687Y-136950243D02*
X109148020Y-136883576D01*
X109148020Y-136883576D02*
X109048020Y-136850243D01*
X109048020Y-136850243D02*
X108981353Y-136850243D01*
X108981353Y-136850243D02*
X108881353Y-136883576D01*
X108881353Y-136883576D02*
X108848020Y-136916910D01*
X108581353Y-136916910D02*
X108548020Y-136883576D01*
X108548020Y-136883576D02*
X108481353Y-136850243D01*
X108481353Y-136850243D02*
X108314687Y-136850243D01*
X108314687Y-136850243D02*
X108248020Y-136883576D01*
X108248020Y-136883576D02*
X108214687Y-136916910D01*
X108214687Y-136916910D02*
X108181353Y-136983576D01*
X108181353Y-136983576D02*
X108181353Y-137050243D01*
X108181353Y-137050243D02*
X108214687Y-137150243D01*
X108214687Y-137150243D02*
X108614687Y-137550243D01*
X108614687Y-137550243D02*
X108181353Y-137550243D01*
X107881353Y-137550243D02*
X107881353Y-136850243D01*
X107881353Y-136850243D02*
X107648020Y-137350243D01*
X107648020Y-137350243D02*
X107414686Y-136850243D01*
X107414686Y-136850243D02*
X107414686Y-137550243D01*
X108937544Y-142792466D02*
X108970877Y-142825800D01*
X108970877Y-142825800D02*
X109070877Y-142859133D01*
X109070877Y-142859133D02*
X109137544Y-142859133D01*
X109137544Y-142859133D02*
X109237544Y-142825800D01*
X109237544Y-142825800D02*
X109304211Y-142759133D01*
X109304211Y-142759133D02*
X109337544Y-142692466D01*
X109337544Y-142692466D02*
X109370877Y-142559133D01*
X109370877Y-142559133D02*
X109370877Y-142459133D01*
X109370877Y-142459133D02*
X109337544Y-142325800D01*
X109337544Y-142325800D02*
X109304211Y-142259133D01*
X109304211Y-142259133D02*
X109237544Y-142192466D01*
X109237544Y-142192466D02*
X109137544Y-142159133D01*
X109137544Y-142159133D02*
X109070877Y-142159133D01*
X109070877Y-142159133D02*
X108970877Y-142192466D01*
X108970877Y-142192466D02*
X108937544Y-142225800D01*
X108670877Y-142659133D02*
X108337544Y-142659133D01*
X108737544Y-142859133D02*
X108504211Y-142159133D01*
X108504211Y-142159133D02*
X108270877Y-142859133D01*
X108070877Y-142825800D02*
X107970877Y-142859133D01*
X107970877Y-142859133D02*
X107804211Y-142859133D01*
X107804211Y-142859133D02*
X107737544Y-142825800D01*
X107737544Y-142825800D02*
X107704211Y-142792466D01*
X107704211Y-142792466D02*
X107670877Y-142725800D01*
X107670877Y-142725800D02*
X107670877Y-142659133D01*
X107670877Y-142659133D02*
X107704211Y-142592466D01*
X107704211Y-142592466D02*
X107737544Y-142559133D01*
X107737544Y-142559133D02*
X107804211Y-142525800D01*
X107804211Y-142525800D02*
X107937544Y-142492466D01*
X107937544Y-142492466D02*
X108004211Y-142459133D01*
X108004211Y-142459133D02*
X108037544Y-142425800D01*
X108037544Y-142425800D02*
X108070877Y-142359133D01*
X108070877Y-142359133D02*
X108070877Y-142292466D01*
X108070877Y-142292466D02*
X108037544Y-142225800D01*
X108037544Y-142225800D02*
X108004211Y-142192466D01*
X108004211Y-142192466D02*
X107937544Y-142159133D01*
X107937544Y-142159133D02*
X107770877Y-142159133D01*
X107770877Y-142159133D02*
X107670877Y-142192466D01*
X107237544Y-142159133D02*
X107170877Y-142159133D01*
X107170877Y-142159133D02*
X107104210Y-142192466D01*
X107104210Y-142192466D02*
X107070877Y-142225800D01*
X107070877Y-142225800D02*
X107037544Y-142292466D01*
X107037544Y-142292466D02*
X107004210Y-142425800D01*
X107004210Y-142425800D02*
X107004210Y-142592466D01*
X107004210Y-142592466D02*
X107037544Y-142725800D01*
X107037544Y-142725800D02*
X107070877Y-142792466D01*
X107070877Y-142792466D02*
X107104210Y-142825800D01*
X107104210Y-142825800D02*
X107170877Y-142859133D01*
X107170877Y-142859133D02*
X107237544Y-142859133D01*
X107237544Y-142859133D02*
X107304210Y-142825800D01*
X107304210Y-142825800D02*
X107337544Y-142792466D01*
X107337544Y-142792466D02*
X107370877Y-142725800D01*
X107370877Y-142725800D02*
X107404210Y-142592466D01*
X107404210Y-142592466D02*
X107404210Y-142425800D01*
X107404210Y-142425800D02*
X107370877Y-142292466D01*
X107370877Y-142292466D02*
X107337544Y-142225800D01*
X107337544Y-142225800D02*
X107304210Y-142192466D01*
X107304210Y-142192466D02*
X107237544Y-142159133D01*
X109434211Y-141964800D02*
X106940877Y-141964800D01*
X109268020Y-135029688D02*
X109268020Y-134329688D01*
X109268020Y-134329688D02*
X109034687Y-134829688D01*
X109034687Y-134829688D02*
X108801353Y-134329688D01*
X108801353Y-134329688D02*
X108801353Y-135029688D01*
X108068020Y-135029688D02*
X108301353Y-134696355D01*
X108468020Y-135029688D02*
X108468020Y-134329688D01*
X108468020Y-134329688D02*
X108201353Y-134329688D01*
X108201353Y-134329688D02*
X108134687Y-134363021D01*
X108134687Y-134363021D02*
X108101353Y-134396355D01*
X108101353Y-134396355D02*
X108068020Y-134463021D01*
X108068020Y-134463021D02*
X108068020Y-134563021D01*
X108068020Y-134563021D02*
X108101353Y-134629688D01*
X108101353Y-134629688D02*
X108134687Y-134663021D01*
X108134687Y-134663021D02*
X108201353Y-134696355D01*
X108201353Y-134696355D02*
X108468020Y-134696355D01*
X107801353Y-134829688D02*
X107468020Y-134829688D01*
X107868020Y-135029688D02*
X107634687Y-134329688D01*
X107634687Y-134329688D02*
X107401353Y-135029688D01*
X107134687Y-135029688D02*
X107001353Y-135029688D01*
X107001353Y-135029688D02*
X106934687Y-134996355D01*
X106934687Y-134996355D02*
X106901353Y-134963021D01*
X106901353Y-134963021D02*
X106834687Y-134863021D01*
X106834687Y-134863021D02*
X106801353Y-134729688D01*
X106801353Y-134729688D02*
X106801353Y-134463021D01*
X106801353Y-134463021D02*
X106834687Y-134396355D01*
X106834687Y-134396355D02*
X106868020Y-134363021D01*
X106868020Y-134363021D02*
X106934687Y-134329688D01*
X106934687Y-134329688D02*
X107068020Y-134329688D01*
X107068020Y-134329688D02*
X107134687Y-134363021D01*
X107134687Y-134363021D02*
X107168020Y-134396355D01*
X107168020Y-134396355D02*
X107201353Y-134463021D01*
X107201353Y-134463021D02*
X107201353Y-134629688D01*
X107201353Y-134629688D02*
X107168020Y-134696355D01*
X107168020Y-134696355D02*
X107134687Y-134729688D01*
X107134687Y-134729688D02*
X107068020Y-134763021D01*
X107068020Y-134763021D02*
X106934687Y-134763021D01*
X106934687Y-134763021D02*
X106868020Y-134729688D01*
X106868020Y-134729688D02*
X106834687Y-134696355D01*
X106834687Y-134696355D02*
X106801353Y-134629688D01*
X106268020Y-134663021D02*
X106501353Y-134663021D01*
X106501353Y-135029688D02*
X106501353Y-134329688D01*
X106501353Y-134329688D02*
X106168020Y-134329688D01*
X82990877Y-134389133D02*
X82757544Y-135089133D01*
X82757544Y-135089133D02*
X82524210Y-134389133D01*
X82324210Y-134889133D02*
X81990877Y-134889133D01*
X82390877Y-135089133D02*
X82157544Y-134389133D01*
X82157544Y-134389133D02*
X81924210Y-135089133D01*
X81357544Y-134389133D02*
X81690877Y-134389133D01*
X81690877Y-134389133D02*
X81724210Y-134722466D01*
X81724210Y-134722466D02*
X81690877Y-134689133D01*
X81690877Y-134689133D02*
X81624210Y-134655800D01*
X81624210Y-134655800D02*
X81457544Y-134655800D01*
X81457544Y-134655800D02*
X81390877Y-134689133D01*
X81390877Y-134689133D02*
X81357544Y-134722466D01*
X81357544Y-134722466D02*
X81324210Y-134789133D01*
X81324210Y-134789133D02*
X81324210Y-134955800D01*
X81324210Y-134955800D02*
X81357544Y-135022466D01*
X81357544Y-135022466D02*
X81390877Y-135055800D01*
X81390877Y-135055800D02*
X81457544Y-135089133D01*
X81457544Y-135089133D02*
X81624210Y-135089133D01*
X81624210Y-135089133D02*
X81690877Y-135055800D01*
X81690877Y-135055800D02*
X81724210Y-135022466D01*
X109358020Y-139609133D02*
X109124687Y-140309133D01*
X109124687Y-140309133D02*
X108891353Y-139609133D01*
X108658020Y-140309133D02*
X108658020Y-139609133D01*
X108324687Y-140309133D02*
X108324687Y-139609133D01*
X108324687Y-139609133D02*
X108158020Y-139609133D01*
X108158020Y-139609133D02*
X108058020Y-139642466D01*
X108058020Y-139642466D02*
X107991354Y-139709133D01*
X107991354Y-139709133D02*
X107958020Y-139775800D01*
X107958020Y-139775800D02*
X107924687Y-139909133D01*
X107924687Y-139909133D02*
X107924687Y-140009133D01*
X107924687Y-140009133D02*
X107958020Y-140142466D01*
X107958020Y-140142466D02*
X107991354Y-140209133D01*
X107991354Y-140209133D02*
X108058020Y-140275800D01*
X108058020Y-140275800D02*
X108158020Y-140309133D01*
X108158020Y-140309133D02*
X108324687Y-140309133D01*
X107858020Y-139542466D02*
X107258020Y-140442466D01*
X106858020Y-139842466D02*
X106858020Y-140309133D01*
X107158020Y-139842466D02*
X107158020Y-140209133D01*
X107158020Y-140209133D02*
X107124687Y-140275800D01*
X107124687Y-140275800D02*
X107058020Y-140309133D01*
X107058020Y-140309133D02*
X106958020Y-140309133D01*
X106958020Y-140309133D02*
X106891353Y-140275800D01*
X106891353Y-140275800D02*
X106858020Y-140242466D01*
X107254687Y-139414800D02*
X106761354Y-139414800D01*
X82467544Y-145129133D02*
X82700877Y-144795800D01*
X82867544Y-145129133D02*
X82867544Y-144429133D01*
X82867544Y-144429133D02*
X82600877Y-144429133D01*
X82600877Y-144429133D02*
X82534211Y-144462466D01*
X82534211Y-144462466D02*
X82500877Y-144495800D01*
X82500877Y-144495800D02*
X82467544Y-144562466D01*
X82467544Y-144562466D02*
X82467544Y-144662466D01*
X82467544Y-144662466D02*
X82500877Y-144729133D01*
X82500877Y-144729133D02*
X82534211Y-144762466D01*
X82534211Y-144762466D02*
X82600877Y-144795800D01*
X82600877Y-144795800D02*
X82867544Y-144795800D01*
X82200877Y-144929133D02*
X81867544Y-144929133D01*
X82267544Y-145129133D02*
X82034211Y-144429133D01*
X82034211Y-144429133D02*
X81800877Y-145129133D01*
X81467544Y-144729133D02*
X81534211Y-144695800D01*
X81534211Y-144695800D02*
X81567544Y-144662466D01*
X81567544Y-144662466D02*
X81600877Y-144595800D01*
X81600877Y-144595800D02*
X81600877Y-144562466D01*
X81600877Y-144562466D02*
X81567544Y-144495800D01*
X81567544Y-144495800D02*
X81534211Y-144462466D01*
X81534211Y-144462466D02*
X81467544Y-144429133D01*
X81467544Y-144429133D02*
X81334211Y-144429133D01*
X81334211Y-144429133D02*
X81267544Y-144462466D01*
X81267544Y-144462466D02*
X81234211Y-144495800D01*
X81234211Y-144495800D02*
X81200877Y-144562466D01*
X81200877Y-144562466D02*
X81200877Y-144595800D01*
X81200877Y-144595800D02*
X81234211Y-144662466D01*
X81234211Y-144662466D02*
X81267544Y-144695800D01*
X81267544Y-144695800D02*
X81334211Y-144729133D01*
X81334211Y-144729133D02*
X81467544Y-144729133D01*
X81467544Y-144729133D02*
X81534211Y-144762466D01*
X81534211Y-144762466D02*
X81567544Y-144795800D01*
X81567544Y-144795800D02*
X81600877Y-144862466D01*
X81600877Y-144862466D02*
X81600877Y-144995800D01*
X81600877Y-144995800D02*
X81567544Y-145062466D01*
X81567544Y-145062466D02*
X81534211Y-145095800D01*
X81534211Y-145095800D02*
X81467544Y-145129133D01*
X81467544Y-145129133D02*
X81334211Y-145129133D01*
X81334211Y-145129133D02*
X81267544Y-145095800D01*
X81267544Y-145095800D02*
X81234211Y-145062466D01*
X81234211Y-145062466D02*
X81200877Y-144995800D01*
X81200877Y-144995800D02*
X81200877Y-144862466D01*
X81200877Y-144862466D02*
X81234211Y-144795800D01*
X81234211Y-144795800D02*
X81267544Y-144762466D01*
X81267544Y-144762466D02*
X81334211Y-144729133D01*
X82990877Y-126699133D02*
X82757544Y-127399133D01*
X82757544Y-127399133D02*
X82524210Y-126699133D01*
X82324210Y-127199133D02*
X81990877Y-127199133D01*
X82390877Y-127399133D02*
X82157544Y-126699133D01*
X82157544Y-126699133D02*
X81924210Y-127399133D01*
X81390877Y-126699133D02*
X81524210Y-126699133D01*
X81524210Y-126699133D02*
X81590877Y-126732466D01*
X81590877Y-126732466D02*
X81624210Y-126765800D01*
X81624210Y-126765800D02*
X81690877Y-126865800D01*
X81690877Y-126865800D02*
X81724210Y-126999133D01*
X81724210Y-126999133D02*
X81724210Y-127265800D01*
X81724210Y-127265800D02*
X81690877Y-127332466D01*
X81690877Y-127332466D02*
X81657544Y-127365800D01*
X81657544Y-127365800D02*
X81590877Y-127399133D01*
X81590877Y-127399133D02*
X81457544Y-127399133D01*
X81457544Y-127399133D02*
X81390877Y-127365800D01*
X81390877Y-127365800D02*
X81357544Y-127332466D01*
X81357544Y-127332466D02*
X81324210Y-127265800D01*
X81324210Y-127265800D02*
X81324210Y-127099133D01*
X81324210Y-127099133D02*
X81357544Y-127032466D01*
X81357544Y-127032466D02*
X81390877Y-126999133D01*
X81390877Y-126999133D02*
X81457544Y-126965800D01*
X81457544Y-126965800D02*
X81590877Y-126965800D01*
X81590877Y-126965800D02*
X81657544Y-126999133D01*
X81657544Y-126999133D02*
X81690877Y-127032466D01*
X81690877Y-127032466D02*
X81724210Y-127099133D01*
X82990877Y-129289133D02*
X82757544Y-129989133D01*
X82757544Y-129989133D02*
X82524210Y-129289133D01*
X82324210Y-129789133D02*
X81990877Y-129789133D01*
X82390877Y-129989133D02*
X82157544Y-129289133D01*
X82157544Y-129289133D02*
X81924210Y-129989133D01*
X81324210Y-129989133D02*
X81724210Y-129989133D01*
X81524210Y-129989133D02*
X81524210Y-129289133D01*
X81524210Y-129289133D02*
X81590877Y-129389133D01*
X81590877Y-129389133D02*
X81657544Y-129455800D01*
X81657544Y-129455800D02*
X81724210Y-129489133D01*
X81090877Y-129289133D02*
X80657543Y-129289133D01*
X80657543Y-129289133D02*
X80890877Y-129555800D01*
X80890877Y-129555800D02*
X80790877Y-129555800D01*
X80790877Y-129555800D02*
X80724210Y-129589133D01*
X80724210Y-129589133D02*
X80690877Y-129622466D01*
X80690877Y-129622466D02*
X80657543Y-129689133D01*
X80657543Y-129689133D02*
X80657543Y-129855800D01*
X80657543Y-129855800D02*
X80690877Y-129922466D01*
X80690877Y-129922466D02*
X80724210Y-129955800D01*
X80724210Y-129955800D02*
X80790877Y-129989133D01*
X80790877Y-129989133D02*
X80990877Y-129989133D01*
X80990877Y-129989133D02*
X81057543Y-129955800D01*
X81057543Y-129955800D02*
X81090877Y-129922466D01*
X82924210Y-132289133D02*
X82590877Y-132289133D01*
X82990877Y-132489133D02*
X82757544Y-131789133D01*
X82757544Y-131789133D02*
X82524210Y-132489133D01*
X81924210Y-132489133D02*
X82324210Y-132489133D01*
X82124210Y-132489133D02*
X82124210Y-131789133D01*
X82124210Y-131789133D02*
X82190877Y-131889133D01*
X82190877Y-131889133D02*
X82257544Y-131955800D01*
X82257544Y-131955800D02*
X82324210Y-131989133D01*
X81524210Y-132089133D02*
X81590877Y-132055800D01*
X81590877Y-132055800D02*
X81624210Y-132022466D01*
X81624210Y-132022466D02*
X81657543Y-131955800D01*
X81657543Y-131955800D02*
X81657543Y-131922466D01*
X81657543Y-131922466D02*
X81624210Y-131855800D01*
X81624210Y-131855800D02*
X81590877Y-131822466D01*
X81590877Y-131822466D02*
X81524210Y-131789133D01*
X81524210Y-131789133D02*
X81390877Y-131789133D01*
X81390877Y-131789133D02*
X81324210Y-131822466D01*
X81324210Y-131822466D02*
X81290877Y-131855800D01*
X81290877Y-131855800D02*
X81257543Y-131922466D01*
X81257543Y-131922466D02*
X81257543Y-131955800D01*
X81257543Y-131955800D02*
X81290877Y-132022466D01*
X81290877Y-132022466D02*
X81324210Y-132055800D01*
X81324210Y-132055800D02*
X81390877Y-132089133D01*
X81390877Y-132089133D02*
X81524210Y-132089133D01*
X81524210Y-132089133D02*
X81590877Y-132122466D01*
X81590877Y-132122466D02*
X81624210Y-132155800D01*
X81624210Y-132155800D02*
X81657543Y-132222466D01*
X81657543Y-132222466D02*
X81657543Y-132355800D01*
X81657543Y-132355800D02*
X81624210Y-132422466D01*
X81624210Y-132422466D02*
X81590877Y-132455800D01*
X81590877Y-132455800D02*
X81524210Y-132489133D01*
X81524210Y-132489133D02*
X81390877Y-132489133D01*
X81390877Y-132489133D02*
X81324210Y-132455800D01*
X81324210Y-132455800D02*
X81290877Y-132422466D01*
X81290877Y-132422466D02*
X81257543Y-132355800D01*
X81257543Y-132355800D02*
X81257543Y-132222466D01*
X81257543Y-132222466D02*
X81290877Y-132155800D01*
X81290877Y-132155800D02*
X81324210Y-132122466D01*
X81324210Y-132122466D02*
X81390877Y-132089133D01*
D11*
X102323333Y-128682593D02*
X102323333Y-129182593D01*
X102323333Y-129182593D02*
X102356666Y-129282593D01*
X102356666Y-129282593D02*
X102423333Y-129349260D01*
X102423333Y-129349260D02*
X102523333Y-129382593D01*
X102523333Y-129382593D02*
X102590000Y-129382593D01*
X101690000Y-128915926D02*
X101690000Y-129382593D01*
X101856667Y-128649260D02*
X102023333Y-129149260D01*
X102023333Y-129149260D02*
X101590000Y-129149260D01*
D10*
X109326666Y-128311966D02*
X109359999Y-128345300D01*
X109359999Y-128345300D02*
X109459999Y-128378633D01*
X109459999Y-128378633D02*
X109526666Y-128378633D01*
X109526666Y-128378633D02*
X109626666Y-128345300D01*
X109626666Y-128345300D02*
X109693333Y-128278633D01*
X109693333Y-128278633D02*
X109726666Y-128211966D01*
X109726666Y-128211966D02*
X109759999Y-128078633D01*
X109759999Y-128078633D02*
X109759999Y-127978633D01*
X109759999Y-127978633D02*
X109726666Y-127845300D01*
X109726666Y-127845300D02*
X109693333Y-127778633D01*
X109693333Y-127778633D02*
X109626666Y-127711966D01*
X109626666Y-127711966D02*
X109526666Y-127678633D01*
X109526666Y-127678633D02*
X109459999Y-127678633D01*
X109459999Y-127678633D02*
X109359999Y-127711966D01*
X109359999Y-127711966D02*
X109326666Y-127745300D01*
X109093333Y-127678633D02*
X108659999Y-127678633D01*
X108659999Y-127678633D02*
X108893333Y-127945300D01*
X108893333Y-127945300D02*
X108793333Y-127945300D01*
X108793333Y-127945300D02*
X108726666Y-127978633D01*
X108726666Y-127978633D02*
X108693333Y-128011966D01*
X108693333Y-128011966D02*
X108659999Y-128078633D01*
X108659999Y-128078633D02*
X108659999Y-128245300D01*
X108659999Y-128245300D02*
X108693333Y-128311966D01*
X108693333Y-128311966D02*
X108726666Y-128345300D01*
X108726666Y-128345300D02*
X108793333Y-128378633D01*
X108793333Y-128378633D02*
X108993333Y-128378633D01*
X108993333Y-128378633D02*
X109059999Y-128345300D01*
X109059999Y-128345300D02*
X109093333Y-128311966D01*
D11*
X94813333Y-118247593D02*
X94813333Y-118747593D01*
X94813333Y-118747593D02*
X94846666Y-118847593D01*
X94846666Y-118847593D02*
X94913333Y-118914260D01*
X94913333Y-118914260D02*
X95013333Y-118947593D01*
X95013333Y-118947593D02*
X95080000Y-118947593D01*
X94180000Y-118247593D02*
X94313333Y-118247593D01*
X94313333Y-118247593D02*
X94380000Y-118280926D01*
X94380000Y-118280926D02*
X94413333Y-118314260D01*
X94413333Y-118314260D02*
X94480000Y-118414260D01*
X94480000Y-118414260D02*
X94513333Y-118547593D01*
X94513333Y-118547593D02*
X94513333Y-118814260D01*
X94513333Y-118814260D02*
X94480000Y-118880926D01*
X94480000Y-118880926D02*
X94446667Y-118914260D01*
X94446667Y-118914260D02*
X94380000Y-118947593D01*
X94380000Y-118947593D02*
X94246667Y-118947593D01*
X94246667Y-118947593D02*
X94180000Y-118914260D01*
X94180000Y-118914260D02*
X94146667Y-118880926D01*
X94146667Y-118880926D02*
X94113333Y-118814260D01*
X94113333Y-118814260D02*
X94113333Y-118647593D01*
X94113333Y-118647593D02*
X94146667Y-118580926D01*
X94146667Y-118580926D02*
X94180000Y-118547593D01*
X94180000Y-118547593D02*
X94246667Y-118514260D01*
X94246667Y-118514260D02*
X94380000Y-118514260D01*
X94380000Y-118514260D02*
X94446667Y-118547593D01*
X94446667Y-118547593D02*
X94480000Y-118580926D01*
X94480000Y-118580926D02*
X94513333Y-118647593D01*
D10*
X85238333Y-118333633D02*
X85238333Y-118833633D01*
X85238333Y-118833633D02*
X85271666Y-118933633D01*
X85271666Y-118933633D02*
X85338333Y-119000300D01*
X85338333Y-119000300D02*
X85438333Y-119033633D01*
X85438333Y-119033633D02*
X85505000Y-119033633D01*
X84971667Y-118333633D02*
X84538333Y-118333633D01*
X84538333Y-118333633D02*
X84771667Y-118600300D01*
X84771667Y-118600300D02*
X84671667Y-118600300D01*
X84671667Y-118600300D02*
X84605000Y-118633633D01*
X84605000Y-118633633D02*
X84571667Y-118666966D01*
X84571667Y-118666966D02*
X84538333Y-118733633D01*
X84538333Y-118733633D02*
X84538333Y-118900300D01*
X84538333Y-118900300D02*
X84571667Y-118966966D01*
X84571667Y-118966966D02*
X84605000Y-119000300D01*
X84605000Y-119000300D02*
X84671667Y-119033633D01*
X84671667Y-119033633D02*
X84871667Y-119033633D01*
X84871667Y-119033633D02*
X84938333Y-119000300D01*
X84938333Y-119000300D02*
X84971667Y-118966966D01*
D11*
X94763333Y-88847593D02*
X94763333Y-89347593D01*
X94763333Y-89347593D02*
X94796666Y-89447593D01*
X94796666Y-89447593D02*
X94863333Y-89514260D01*
X94863333Y-89514260D02*
X94963333Y-89547593D01*
X94963333Y-89547593D02*
X95030000Y-89547593D01*
X94096667Y-88847593D02*
X94430000Y-88847593D01*
X94430000Y-88847593D02*
X94463333Y-89180926D01*
X94463333Y-89180926D02*
X94430000Y-89147593D01*
X94430000Y-89147593D02*
X94363333Y-89114260D01*
X94363333Y-89114260D02*
X94196667Y-89114260D01*
X94196667Y-89114260D02*
X94130000Y-89147593D01*
X94130000Y-89147593D02*
X94096667Y-89180926D01*
X94096667Y-89180926D02*
X94063333Y-89247593D01*
X94063333Y-89247593D02*
X94063333Y-89414260D01*
X94063333Y-89414260D02*
X94096667Y-89480926D01*
X94096667Y-89480926D02*
X94130000Y-89514260D01*
X94130000Y-89514260D02*
X94196667Y-89547593D01*
X94196667Y-89547593D02*
X94363333Y-89547593D01*
X94363333Y-89547593D02*
X94430000Y-89514260D01*
X94430000Y-89514260D02*
X94463333Y-89480926D01*
%TO.C,J4*%
X98055000Y-144995000D02*
X98055000Y-143725000D01*
X99325000Y-144995000D02*
X98055000Y-144995000D01*
X100765000Y-129695000D02*
X100765000Y-145055000D01*
X100765000Y-130645000D02*
X100367929Y-130645000D01*
X100765000Y-131405000D02*
X100367929Y-131405000D01*
X100765000Y-133185000D02*
X100367929Y-133185000D01*
X100765000Y-133945000D02*
X100367929Y-133945000D01*
X100765000Y-135725000D02*
X100367929Y-135725000D01*
X100765000Y-136485000D02*
X100367929Y-136485000D01*
X100765000Y-138265000D02*
X100367929Y-138265000D01*
X100765000Y-139025000D02*
X100367929Y-139025000D01*
X100765000Y-140805000D02*
X100367929Y-140805000D01*
X100765000Y-141565000D02*
X100367929Y-141565000D01*
X100765000Y-143345000D02*
X100435000Y-143345000D01*
X100765000Y-144105000D02*
X100435000Y-144105000D01*
X100765000Y-145055000D02*
X103425000Y-145055000D01*
X103425000Y-129695000D02*
X100765000Y-129695000D01*
X103425000Y-130645000D02*
X109425000Y-130645000D01*
X103425000Y-132295000D02*
X100765000Y-132295000D01*
X103425000Y-133185000D02*
X109425000Y-133185000D01*
X103425000Y-134835000D02*
X100765000Y-134835000D01*
X103425000Y-135725000D02*
X109425000Y-135725000D01*
X103425000Y-137375000D02*
X100765000Y-137375000D01*
X103425000Y-138265000D02*
X109425000Y-138265000D01*
X103425000Y-139915000D02*
X100765000Y-139915000D01*
X103425000Y-140805000D02*
X109425000Y-140805000D01*
X103425000Y-142455000D02*
X100765000Y-142455000D01*
X103425000Y-143345000D02*
X109425000Y-143345000D01*
X103425000Y-145055000D02*
X103425000Y-129695000D01*
X109425000Y-130645000D02*
X109425000Y-131405000D01*
X109425000Y-131405000D02*
X103425000Y-131405000D01*
X109425000Y-133185000D02*
X109425000Y-133945000D01*
X109425000Y-133945000D02*
X103425000Y-133945000D01*
X109425000Y-135725000D02*
X109425000Y-136485000D01*
X109425000Y-136485000D02*
X103425000Y-136485000D01*
X109425000Y-138265000D02*
X109425000Y-139025000D01*
X109425000Y-139025000D02*
X103425000Y-139025000D01*
X109425000Y-140805000D02*
X109425000Y-141565000D01*
X109425000Y-141565000D02*
X103425000Y-141565000D01*
X109425000Y-143345000D02*
X109425000Y-144105000D01*
X109425000Y-143445000D02*
X103425000Y-143445000D01*
X109425000Y-143565000D02*
X103425000Y-143565000D01*
X109425000Y-143685000D02*
X103425000Y-143685000D01*
X109425000Y-143805000D02*
X103425000Y-143805000D01*
X109425000Y-143925000D02*
X103425000Y-143925000D01*
X109425000Y-144045000D02*
X103425000Y-144045000D01*
X109425000Y-144105000D02*
X103425000Y-144105000D01*
%TO.C,C3*%
X106701252Y-127375000D02*
X106178748Y-127375000D01*
X106701252Y-128845000D02*
X106178748Y-128845000D01*
%TO.C,J6*%
X93220000Y-122120000D02*
X95880000Y-122120000D01*
X93220000Y-145040000D02*
X93220000Y-122120000D01*
X93220000Y-145040000D02*
X95880000Y-145040000D01*
X94550000Y-119520000D02*
X95880000Y-119520000D01*
X95880000Y-119520000D02*
X95880000Y-120850000D01*
X95880000Y-145040000D02*
X95880000Y-122120000D01*
%TO.C,J3*%
X77600000Y-120475000D02*
X83600000Y-120475000D01*
X77600000Y-120535000D02*
X83600000Y-120535000D01*
X77600000Y-120655000D02*
X83600000Y-120655000D01*
X77600000Y-120775000D02*
X83600000Y-120775000D01*
X77600000Y-120895000D02*
X83600000Y-120895000D01*
X77600000Y-121015000D02*
X83600000Y-121015000D01*
X77600000Y-121135000D02*
X83600000Y-121135000D01*
X77600000Y-121235000D02*
X77600000Y-120475000D01*
X77600000Y-123015000D02*
X83600000Y-123015000D01*
X77600000Y-123775000D02*
X77600000Y-123015000D01*
X77600000Y-125555000D02*
X83600000Y-125555000D01*
X77600000Y-126315000D02*
X77600000Y-125555000D01*
X77600000Y-128095000D02*
X83600000Y-128095000D01*
X77600000Y-128855000D02*
X77600000Y-128095000D01*
X77600000Y-130635000D02*
X83600000Y-130635000D01*
X77600000Y-131395000D02*
X77600000Y-130635000D01*
X77600000Y-133175000D02*
X83600000Y-133175000D01*
X77600000Y-133935000D02*
X77600000Y-133175000D01*
X77600000Y-135715000D02*
X83600000Y-135715000D01*
X77600000Y-136475000D02*
X77600000Y-135715000D01*
X77600000Y-138255000D02*
X83600000Y-138255000D01*
X77600000Y-139015000D02*
X77600000Y-138255000D01*
X77600000Y-140795000D02*
X83600000Y-140795000D01*
X77600000Y-141555000D02*
X77600000Y-140795000D01*
X77600000Y-143335000D02*
X83600000Y-143335000D01*
X77600000Y-144095000D02*
X77600000Y-143335000D01*
X83600000Y-119525000D02*
X83600000Y-145045000D01*
X83600000Y-121235000D02*
X77600000Y-121235000D01*
X83600000Y-122125000D02*
X86260000Y-122125000D01*
X83600000Y-123775000D02*
X77600000Y-123775000D01*
X83600000Y-124665000D02*
X86260000Y-124665000D01*
X83600000Y-126315000D02*
X77600000Y-126315000D01*
X83600000Y-127205000D02*
X86260000Y-127205000D01*
X83600000Y-128855000D02*
X77600000Y-128855000D01*
X83600000Y-129745000D02*
X86260000Y-129745000D01*
X83600000Y-131395000D02*
X77600000Y-131395000D01*
X83600000Y-132285000D02*
X86260000Y-132285000D01*
X83600000Y-133935000D02*
X77600000Y-133935000D01*
X83600000Y-134825000D02*
X86260000Y-134825000D01*
X83600000Y-136475000D02*
X77600000Y-136475000D01*
X83600000Y-137365000D02*
X86260000Y-137365000D01*
X83600000Y-139015000D02*
X77600000Y-139015000D01*
X83600000Y-139905000D02*
X86260000Y-139905000D01*
X83600000Y-141555000D02*
X77600000Y-141555000D01*
X83600000Y-142445000D02*
X86260000Y-142445000D01*
X83600000Y-144095000D02*
X77600000Y-144095000D01*
X83600000Y-145045000D02*
X86260000Y-145045000D01*
X86260000Y-119525000D02*
X83600000Y-119525000D01*
X86260000Y-120475000D02*
X86590000Y-120475000D01*
X86260000Y-121235000D02*
X86590000Y-121235000D01*
X86260000Y-123015000D02*
X86657071Y-123015000D01*
X86260000Y-123775000D02*
X86657071Y-123775000D01*
X86260000Y-125555000D02*
X86657071Y-125555000D01*
X86260000Y-126315000D02*
X86657071Y-126315000D01*
X86260000Y-128095000D02*
X86657071Y-128095000D01*
X86260000Y-128855000D02*
X86657071Y-128855000D01*
X86260000Y-130635000D02*
X86657071Y-130635000D01*
X86260000Y-131395000D02*
X86657071Y-131395000D01*
X86260000Y-133175000D02*
X86657071Y-133175000D01*
X86260000Y-133935000D02*
X86657071Y-133935000D01*
X86260000Y-135715000D02*
X86657071Y-135715000D01*
X86260000Y-136475000D02*
X86657071Y-136475000D01*
X86260000Y-138255000D02*
X86657071Y-138255000D01*
X86260000Y-139015000D02*
X86657071Y-139015000D01*
X86260000Y-140795000D02*
X86657071Y-140795000D01*
X86260000Y-141555000D02*
X86657071Y-141555000D01*
X86260000Y-143335000D02*
X86657071Y-143335000D01*
X86260000Y-144095000D02*
X86657071Y-144095000D01*
X86260000Y-145045000D02*
X86260000Y-119525000D01*
X87700000Y-119585000D02*
X88970000Y-119585000D01*
X88970000Y-119585000D02*
X88970000Y-120855000D01*
%TO.C,J5*%
X93220000Y-92820000D02*
X95880000Y-92820000D01*
X93220000Y-115740000D02*
X93220000Y-92820000D01*
X93220000Y-115740000D02*
X95880000Y-115740000D01*
X94550000Y-90220000D02*
X95880000Y-90220000D01*
X95880000Y-90220000D02*
X95880000Y-91550000D01*
X95880000Y-115740000D02*
X95880000Y-92820000D01*
%TD*%
M02*
