%TF.GenerationSoftware,KiCad,Pcbnew,8.0.5*%
%TF.CreationDate,2024-11-12T15:17:28-04:00*%
%TF.ProjectId,RAMEXB_V2_Github,52414d45-5842-45f5-9632-5f4769746875,rev?*%
%TF.SameCoordinates,Original*%
%TF.FileFunction,Legend,Bot*%
%TF.FilePolarity,Positive*%
%FSLAX46Y46*%
G04 Gerber Fmt 4.6, Leading zero omitted, Abs format (unit mm)*
G04 Created by KiCad (PCBNEW 8.0.5) date 2024-11-12 15:17:28*
%MOMM*%
%LPD*%
G01*
G04 APERTURE LIST*
%ADD10C,0.150000*%
%ADD11C,0.120000*%
G04 APERTURE END LIST*
D10*
X155321316Y-135954867D02*
X155554649Y-135621534D01*
X155721316Y-135954867D02*
X155721316Y-135254867D01*
X155721316Y-135254867D02*
X155454649Y-135254867D01*
X155454649Y-135254867D02*
X155387983Y-135288200D01*
X155387983Y-135288200D02*
X155354649Y-135321534D01*
X155354649Y-135321534D02*
X155321316Y-135388200D01*
X155321316Y-135388200D02*
X155321316Y-135488200D01*
X155321316Y-135488200D02*
X155354649Y-135554867D01*
X155354649Y-135554867D02*
X155387983Y-135588200D01*
X155387983Y-135588200D02*
X155454649Y-135621534D01*
X155454649Y-135621534D02*
X155721316Y-135621534D01*
X155054649Y-135754867D02*
X154721316Y-135754867D01*
X155121316Y-135954867D02*
X154887983Y-135254867D01*
X154887983Y-135254867D02*
X154654649Y-135954867D01*
X154454649Y-135921534D02*
X154354649Y-135954867D01*
X154354649Y-135954867D02*
X154187983Y-135954867D01*
X154187983Y-135954867D02*
X154121316Y-135921534D01*
X154121316Y-135921534D02*
X154087983Y-135888200D01*
X154087983Y-135888200D02*
X154054649Y-135821534D01*
X154054649Y-135821534D02*
X154054649Y-135754867D01*
X154054649Y-135754867D02*
X154087983Y-135688200D01*
X154087983Y-135688200D02*
X154121316Y-135654867D01*
X154121316Y-135654867D02*
X154187983Y-135621534D01*
X154187983Y-135621534D02*
X154321316Y-135588200D01*
X154321316Y-135588200D02*
X154387983Y-135554867D01*
X154387983Y-135554867D02*
X154421316Y-135521534D01*
X154421316Y-135521534D02*
X154454649Y-135454867D01*
X154454649Y-135454867D02*
X154454649Y-135388200D01*
X154454649Y-135388200D02*
X154421316Y-135321534D01*
X154421316Y-135321534D02*
X154387983Y-135288200D01*
X154387983Y-135288200D02*
X154321316Y-135254867D01*
X154321316Y-135254867D02*
X154154649Y-135254867D01*
X154154649Y-135254867D02*
X154054649Y-135288200D01*
X155817983Y-135060534D02*
X153991316Y-135060534D01*
X155987983Y-138504033D02*
X156021316Y-138537367D01*
X156021316Y-138537367D02*
X156121316Y-138570700D01*
X156121316Y-138570700D02*
X156187983Y-138570700D01*
X156187983Y-138570700D02*
X156287983Y-138537367D01*
X156287983Y-138537367D02*
X156354650Y-138470700D01*
X156354650Y-138470700D02*
X156387983Y-138404033D01*
X156387983Y-138404033D02*
X156421316Y-138270700D01*
X156421316Y-138270700D02*
X156421316Y-138170700D01*
X156421316Y-138170700D02*
X156387983Y-138037367D01*
X156387983Y-138037367D02*
X156354650Y-137970700D01*
X156354650Y-137970700D02*
X156287983Y-137904033D01*
X156287983Y-137904033D02*
X156187983Y-137870700D01*
X156187983Y-137870700D02*
X156121316Y-137870700D01*
X156121316Y-137870700D02*
X156021316Y-137904033D01*
X156021316Y-137904033D02*
X155987983Y-137937367D01*
X155721316Y-138370700D02*
X155387983Y-138370700D01*
X155787983Y-138570700D02*
X155554650Y-137870700D01*
X155554650Y-137870700D02*
X155321316Y-138570700D01*
X155121316Y-138537367D02*
X155021316Y-138570700D01*
X155021316Y-138570700D02*
X154854650Y-138570700D01*
X154854650Y-138570700D02*
X154787983Y-138537367D01*
X154787983Y-138537367D02*
X154754650Y-138504033D01*
X154754650Y-138504033D02*
X154721316Y-138437367D01*
X154721316Y-138437367D02*
X154721316Y-138370700D01*
X154721316Y-138370700D02*
X154754650Y-138304033D01*
X154754650Y-138304033D02*
X154787983Y-138270700D01*
X154787983Y-138270700D02*
X154854650Y-138237367D01*
X154854650Y-138237367D02*
X154987983Y-138204033D01*
X154987983Y-138204033D02*
X155054650Y-138170700D01*
X155054650Y-138170700D02*
X155087983Y-138137367D01*
X155087983Y-138137367D02*
X155121316Y-138070700D01*
X155121316Y-138070700D02*
X155121316Y-138004033D01*
X155121316Y-138004033D02*
X155087983Y-137937367D01*
X155087983Y-137937367D02*
X155054650Y-137904033D01*
X155054650Y-137904033D02*
X154987983Y-137870700D01*
X154987983Y-137870700D02*
X154821316Y-137870700D01*
X154821316Y-137870700D02*
X154721316Y-137904033D01*
X154287983Y-137870700D02*
X154221316Y-137870700D01*
X154221316Y-137870700D02*
X154154649Y-137904033D01*
X154154649Y-137904033D02*
X154121316Y-137937367D01*
X154121316Y-137937367D02*
X154087983Y-138004033D01*
X154087983Y-138004033D02*
X154054649Y-138137367D01*
X154054649Y-138137367D02*
X154054649Y-138304033D01*
X154054649Y-138304033D02*
X154087983Y-138437367D01*
X154087983Y-138437367D02*
X154121316Y-138504033D01*
X154121316Y-138504033D02*
X154154649Y-138537367D01*
X154154649Y-138537367D02*
X154221316Y-138570700D01*
X154221316Y-138570700D02*
X154287983Y-138570700D01*
X154287983Y-138570700D02*
X154354649Y-138537367D01*
X154354649Y-138537367D02*
X154387983Y-138504033D01*
X154387983Y-138504033D02*
X154421316Y-138437367D01*
X154421316Y-138437367D02*
X154454649Y-138304033D01*
X154454649Y-138304033D02*
X154454649Y-138137367D01*
X154454649Y-138137367D02*
X154421316Y-138004033D01*
X154421316Y-138004033D02*
X154387983Y-137937367D01*
X154387983Y-137937367D02*
X154354649Y-137904033D01*
X154354649Y-137904033D02*
X154287983Y-137870700D01*
X156484650Y-137676367D02*
X153991316Y-137676367D01*
X155987983Y-141119866D02*
X156021316Y-141153200D01*
X156021316Y-141153200D02*
X156121316Y-141186533D01*
X156121316Y-141186533D02*
X156187983Y-141186533D01*
X156187983Y-141186533D02*
X156287983Y-141153200D01*
X156287983Y-141153200D02*
X156354650Y-141086533D01*
X156354650Y-141086533D02*
X156387983Y-141019866D01*
X156387983Y-141019866D02*
X156421316Y-140886533D01*
X156421316Y-140886533D02*
X156421316Y-140786533D01*
X156421316Y-140786533D02*
X156387983Y-140653200D01*
X156387983Y-140653200D02*
X156354650Y-140586533D01*
X156354650Y-140586533D02*
X156287983Y-140519866D01*
X156287983Y-140519866D02*
X156187983Y-140486533D01*
X156187983Y-140486533D02*
X156121316Y-140486533D01*
X156121316Y-140486533D02*
X156021316Y-140519866D01*
X156021316Y-140519866D02*
X155987983Y-140553200D01*
X155721316Y-140986533D02*
X155387983Y-140986533D01*
X155787983Y-141186533D02*
X155554650Y-140486533D01*
X155554650Y-140486533D02*
X155321316Y-141186533D01*
X155121316Y-141153200D02*
X155021316Y-141186533D01*
X155021316Y-141186533D02*
X154854650Y-141186533D01*
X154854650Y-141186533D02*
X154787983Y-141153200D01*
X154787983Y-141153200D02*
X154754650Y-141119866D01*
X154754650Y-141119866D02*
X154721316Y-141053200D01*
X154721316Y-141053200D02*
X154721316Y-140986533D01*
X154721316Y-140986533D02*
X154754650Y-140919866D01*
X154754650Y-140919866D02*
X154787983Y-140886533D01*
X154787983Y-140886533D02*
X154854650Y-140853200D01*
X154854650Y-140853200D02*
X154987983Y-140819866D01*
X154987983Y-140819866D02*
X155054650Y-140786533D01*
X155054650Y-140786533D02*
X155087983Y-140753200D01*
X155087983Y-140753200D02*
X155121316Y-140686533D01*
X155121316Y-140686533D02*
X155121316Y-140619866D01*
X155121316Y-140619866D02*
X155087983Y-140553200D01*
X155087983Y-140553200D02*
X155054650Y-140519866D01*
X155054650Y-140519866D02*
X154987983Y-140486533D01*
X154987983Y-140486533D02*
X154821316Y-140486533D01*
X154821316Y-140486533D02*
X154721316Y-140519866D01*
X154054649Y-141186533D02*
X154454649Y-141186533D01*
X154254649Y-141186533D02*
X154254649Y-140486533D01*
X154254649Y-140486533D02*
X154321316Y-140586533D01*
X154321316Y-140586533D02*
X154387983Y-140653200D01*
X154387983Y-140653200D02*
X154454649Y-140686533D01*
X156484650Y-140292200D02*
X153991316Y-140292200D01*
X155721316Y-123250700D02*
X155387983Y-123250700D01*
X155787983Y-123450700D02*
X155554650Y-122750700D01*
X155554650Y-122750700D02*
X155321316Y-123450700D01*
X154721316Y-123450700D02*
X155121316Y-123450700D01*
X154921316Y-123450700D02*
X154921316Y-122750700D01*
X154921316Y-122750700D02*
X154987983Y-122850700D01*
X154987983Y-122850700D02*
X155054650Y-122917367D01*
X155054650Y-122917367D02*
X155121316Y-122950700D01*
X154387983Y-123450700D02*
X154254649Y-123450700D01*
X154254649Y-123450700D02*
X154187983Y-123417367D01*
X154187983Y-123417367D02*
X154154649Y-123384033D01*
X154154649Y-123384033D02*
X154087983Y-123284033D01*
X154087983Y-123284033D02*
X154054649Y-123150700D01*
X154054649Y-123150700D02*
X154054649Y-122884033D01*
X154054649Y-122884033D02*
X154087983Y-122817367D01*
X154087983Y-122817367D02*
X154121316Y-122784033D01*
X154121316Y-122784033D02*
X154187983Y-122750700D01*
X154187983Y-122750700D02*
X154321316Y-122750700D01*
X154321316Y-122750700D02*
X154387983Y-122784033D01*
X154387983Y-122784033D02*
X154421316Y-122817367D01*
X154421316Y-122817367D02*
X154454649Y-122884033D01*
X154454649Y-122884033D02*
X154454649Y-123050700D01*
X154454649Y-123050700D02*
X154421316Y-123117367D01*
X154421316Y-123117367D02*
X154387983Y-123150700D01*
X154387983Y-123150700D02*
X154321316Y-123184033D01*
X154321316Y-123184033D02*
X154187983Y-123184033D01*
X154187983Y-123184033D02*
X154121316Y-123150700D01*
X154121316Y-123150700D02*
X154087983Y-123117367D01*
X154087983Y-123117367D02*
X154054649Y-123050700D01*
X155721316Y-125674867D02*
X155387983Y-125674867D01*
X155787983Y-125874867D02*
X155554650Y-125174867D01*
X155554650Y-125174867D02*
X155321316Y-125874867D01*
X155121316Y-125241534D02*
X155087983Y-125208200D01*
X155087983Y-125208200D02*
X155021316Y-125174867D01*
X155021316Y-125174867D02*
X154854650Y-125174867D01*
X154854650Y-125174867D02*
X154787983Y-125208200D01*
X154787983Y-125208200D02*
X154754650Y-125241534D01*
X154754650Y-125241534D02*
X154721316Y-125308200D01*
X154721316Y-125308200D02*
X154721316Y-125374867D01*
X154721316Y-125374867D02*
X154754650Y-125474867D01*
X154754650Y-125474867D02*
X155154650Y-125874867D01*
X155154650Y-125874867D02*
X154721316Y-125874867D01*
X154287983Y-125174867D02*
X154221316Y-125174867D01*
X154221316Y-125174867D02*
X154154649Y-125208200D01*
X154154649Y-125208200D02*
X154121316Y-125241534D01*
X154121316Y-125241534D02*
X154087983Y-125308200D01*
X154087983Y-125308200D02*
X154054649Y-125441534D01*
X154054649Y-125441534D02*
X154054649Y-125608200D01*
X154054649Y-125608200D02*
X154087983Y-125741534D01*
X154087983Y-125741534D02*
X154121316Y-125808200D01*
X154121316Y-125808200D02*
X154154649Y-125841534D01*
X154154649Y-125841534D02*
X154221316Y-125874867D01*
X154221316Y-125874867D02*
X154287983Y-125874867D01*
X154287983Y-125874867D02*
X154354649Y-125841534D01*
X154354649Y-125841534D02*
X154387983Y-125808200D01*
X154387983Y-125808200D02*
X154421316Y-125741534D01*
X154421316Y-125741534D02*
X154454649Y-125608200D01*
X154454649Y-125608200D02*
X154454649Y-125441534D01*
X154454649Y-125441534D02*
X154421316Y-125308200D01*
X154421316Y-125308200D02*
X154387983Y-125241534D01*
X154387983Y-125241534D02*
X154354649Y-125208200D01*
X154354649Y-125208200D02*
X154287983Y-125174867D01*
X156587982Y-130214867D02*
X156354649Y-130914867D01*
X156354649Y-130914867D02*
X156121315Y-130214867D01*
X155887982Y-130914867D02*
X155887982Y-130214867D01*
X155554649Y-130914867D02*
X155554649Y-130214867D01*
X155554649Y-130214867D02*
X155387982Y-130214867D01*
X155387982Y-130214867D02*
X155287982Y-130248200D01*
X155287982Y-130248200D02*
X155221316Y-130314867D01*
X155221316Y-130314867D02*
X155187982Y-130381534D01*
X155187982Y-130381534D02*
X155154649Y-130514867D01*
X155154649Y-130514867D02*
X155154649Y-130614867D01*
X155154649Y-130614867D02*
X155187982Y-130748200D01*
X155187982Y-130748200D02*
X155221316Y-130814867D01*
X155221316Y-130814867D02*
X155287982Y-130881534D01*
X155287982Y-130881534D02*
X155387982Y-130914867D01*
X155387982Y-130914867D02*
X155554649Y-130914867D01*
X155087982Y-130148200D02*
X154487982Y-131048200D01*
X154087982Y-130448200D02*
X154087982Y-130914867D01*
X154387982Y-130448200D02*
X154387982Y-130814867D01*
X154387982Y-130814867D02*
X154354649Y-130881534D01*
X154354649Y-130881534D02*
X154287982Y-130914867D01*
X154287982Y-130914867D02*
X154187982Y-130914867D01*
X154187982Y-130914867D02*
X154121315Y-130881534D01*
X154121315Y-130881534D02*
X154087982Y-130848200D01*
X154484649Y-130020534D02*
X153991316Y-130020534D01*
X157787983Y-121026533D02*
X157787983Y-120326533D01*
X157787983Y-120326533D02*
X157554650Y-120826533D01*
X157554650Y-120826533D02*
X157321316Y-120326533D01*
X157321316Y-120326533D02*
X157321316Y-121026533D01*
X157021316Y-120993200D02*
X156921316Y-121026533D01*
X156921316Y-121026533D02*
X156754650Y-121026533D01*
X156754650Y-121026533D02*
X156687983Y-120993200D01*
X156687983Y-120993200D02*
X156654650Y-120959866D01*
X156654650Y-120959866D02*
X156621316Y-120893200D01*
X156621316Y-120893200D02*
X156621316Y-120826533D01*
X156621316Y-120826533D02*
X156654650Y-120759866D01*
X156654650Y-120759866D02*
X156687983Y-120726533D01*
X156687983Y-120726533D02*
X156754650Y-120693200D01*
X156754650Y-120693200D02*
X156887983Y-120659866D01*
X156887983Y-120659866D02*
X156954650Y-120626533D01*
X156954650Y-120626533D02*
X156987983Y-120593200D01*
X156987983Y-120593200D02*
X157021316Y-120526533D01*
X157021316Y-120526533D02*
X157021316Y-120459866D01*
X157021316Y-120459866D02*
X156987983Y-120393200D01*
X156987983Y-120393200D02*
X156954650Y-120359866D01*
X156954650Y-120359866D02*
X156887983Y-120326533D01*
X156887983Y-120326533D02*
X156721316Y-120326533D01*
X156721316Y-120326533D02*
X156621316Y-120359866D01*
X155921316Y-121026533D02*
X156154649Y-120693200D01*
X156321316Y-121026533D02*
X156321316Y-120326533D01*
X156321316Y-120326533D02*
X156054649Y-120326533D01*
X156054649Y-120326533D02*
X155987983Y-120359866D01*
X155987983Y-120359866D02*
X155954649Y-120393200D01*
X155954649Y-120393200D02*
X155921316Y-120459866D01*
X155921316Y-120459866D02*
X155921316Y-120559866D01*
X155921316Y-120559866D02*
X155954649Y-120626533D01*
X155954649Y-120626533D02*
X155987983Y-120659866D01*
X155987983Y-120659866D02*
X156054649Y-120693200D01*
X156054649Y-120693200D02*
X156321316Y-120693200D01*
X155654649Y-120826533D02*
X155321316Y-120826533D01*
X155721316Y-121026533D02*
X155487983Y-120326533D01*
X155487983Y-120326533D02*
X155254649Y-121026533D01*
X154921316Y-120626533D02*
X154987983Y-120593200D01*
X154987983Y-120593200D02*
X155021316Y-120559866D01*
X155021316Y-120559866D02*
X155054649Y-120493200D01*
X155054649Y-120493200D02*
X155054649Y-120459866D01*
X155054649Y-120459866D02*
X155021316Y-120393200D01*
X155021316Y-120393200D02*
X154987983Y-120359866D01*
X154987983Y-120359866D02*
X154921316Y-120326533D01*
X154921316Y-120326533D02*
X154787983Y-120326533D01*
X154787983Y-120326533D02*
X154721316Y-120359866D01*
X154721316Y-120359866D02*
X154687983Y-120393200D01*
X154687983Y-120393200D02*
X154654649Y-120459866D01*
X154654649Y-120459866D02*
X154654649Y-120493200D01*
X154654649Y-120493200D02*
X154687983Y-120559866D01*
X154687983Y-120559866D02*
X154721316Y-120593200D01*
X154721316Y-120593200D02*
X154787983Y-120626533D01*
X154787983Y-120626533D02*
X154921316Y-120626533D01*
X154921316Y-120626533D02*
X154987983Y-120659866D01*
X154987983Y-120659866D02*
X155021316Y-120693200D01*
X155021316Y-120693200D02*
X155054649Y-120759866D01*
X155054649Y-120759866D02*
X155054649Y-120893200D01*
X155054649Y-120893200D02*
X155021316Y-120959866D01*
X155021316Y-120959866D02*
X154987983Y-120993200D01*
X154987983Y-120993200D02*
X154921316Y-121026533D01*
X154921316Y-121026533D02*
X154787983Y-121026533D01*
X154787983Y-121026533D02*
X154721316Y-120993200D01*
X154721316Y-120993200D02*
X154687983Y-120959866D01*
X154687983Y-120959866D02*
X154654649Y-120893200D01*
X154654649Y-120893200D02*
X154654649Y-120759866D01*
X154654649Y-120759866D02*
X154687983Y-120693200D01*
X154687983Y-120693200D02*
X154721316Y-120659866D01*
X154721316Y-120659866D02*
X154787983Y-120626533D01*
X154121316Y-120659866D02*
X154354649Y-120659866D01*
X154354649Y-121026533D02*
X154354649Y-120326533D01*
X154354649Y-120326533D02*
X154021316Y-120326533D01*
X155721316Y-128099034D02*
X155387983Y-128099034D01*
X155787983Y-128299034D02*
X155554650Y-127599034D01*
X155554650Y-127599034D02*
X155321316Y-128299034D01*
X155121316Y-127665701D02*
X155087983Y-127632367D01*
X155087983Y-127632367D02*
X155021316Y-127599034D01*
X155021316Y-127599034D02*
X154854650Y-127599034D01*
X154854650Y-127599034D02*
X154787983Y-127632367D01*
X154787983Y-127632367D02*
X154754650Y-127665701D01*
X154754650Y-127665701D02*
X154721316Y-127732367D01*
X154721316Y-127732367D02*
X154721316Y-127799034D01*
X154721316Y-127799034D02*
X154754650Y-127899034D01*
X154754650Y-127899034D02*
X155154650Y-128299034D01*
X155154650Y-128299034D02*
X154721316Y-128299034D01*
X154054649Y-128299034D02*
X154454649Y-128299034D01*
X154254649Y-128299034D02*
X154254649Y-127599034D01*
X154254649Y-127599034D02*
X154321316Y-127699034D01*
X154321316Y-127699034D02*
X154387983Y-127765701D01*
X154387983Y-127765701D02*
X154454649Y-127799034D01*
X156641316Y-133379034D02*
X156641316Y-132679034D01*
X156641316Y-132679034D02*
X156407983Y-133179034D01*
X156407983Y-133179034D02*
X156174649Y-132679034D01*
X156174649Y-132679034D02*
X156174649Y-133379034D01*
X155441316Y-133312367D02*
X155474649Y-133345701D01*
X155474649Y-133345701D02*
X155574649Y-133379034D01*
X155574649Y-133379034D02*
X155641316Y-133379034D01*
X155641316Y-133379034D02*
X155741316Y-133345701D01*
X155741316Y-133345701D02*
X155807983Y-133279034D01*
X155807983Y-133279034D02*
X155841316Y-133212367D01*
X155841316Y-133212367D02*
X155874649Y-133079034D01*
X155874649Y-133079034D02*
X155874649Y-132979034D01*
X155874649Y-132979034D02*
X155841316Y-132845701D01*
X155841316Y-132845701D02*
X155807983Y-132779034D01*
X155807983Y-132779034D02*
X155741316Y-132712367D01*
X155741316Y-132712367D02*
X155641316Y-132679034D01*
X155641316Y-132679034D02*
X155574649Y-132679034D01*
X155574649Y-132679034D02*
X155474649Y-132712367D01*
X155474649Y-132712367D02*
X155441316Y-132745701D01*
X155174649Y-132745701D02*
X155141316Y-132712367D01*
X155141316Y-132712367D02*
X155074649Y-132679034D01*
X155074649Y-132679034D02*
X154907983Y-132679034D01*
X154907983Y-132679034D02*
X154841316Y-132712367D01*
X154841316Y-132712367D02*
X154807983Y-132745701D01*
X154807983Y-132745701D02*
X154774649Y-132812367D01*
X154774649Y-132812367D02*
X154774649Y-132879034D01*
X154774649Y-132879034D02*
X154807983Y-132979034D01*
X154807983Y-132979034D02*
X155207983Y-133379034D01*
X155207983Y-133379034D02*
X154774649Y-133379034D01*
X154474649Y-133379034D02*
X154474649Y-132679034D01*
X154474649Y-132679034D02*
X154241316Y-133179034D01*
X154241316Y-133179034D02*
X154007982Y-132679034D01*
X154007982Y-132679034D02*
X154007982Y-133379034D01*
X221864580Y-115663552D02*
X221912200Y-115615933D01*
X221912200Y-115615933D02*
X221959819Y-115473076D01*
X221959819Y-115473076D02*
X221959819Y-115377838D01*
X221959819Y-115377838D02*
X221912200Y-115234981D01*
X221912200Y-115234981D02*
X221816961Y-115139743D01*
X221816961Y-115139743D02*
X221721723Y-115092124D01*
X221721723Y-115092124D02*
X221531247Y-115044505D01*
X221531247Y-115044505D02*
X221388390Y-115044505D01*
X221388390Y-115044505D02*
X221197914Y-115092124D01*
X221197914Y-115092124D02*
X221102676Y-115139743D01*
X221102676Y-115139743D02*
X221007438Y-115234981D01*
X221007438Y-115234981D02*
X220959819Y-115377838D01*
X220959819Y-115377838D02*
X220959819Y-115473076D01*
X220959819Y-115473076D02*
X221007438Y-115615933D01*
X221007438Y-115615933D02*
X221055057Y-115663552D01*
X221055057Y-116044505D02*
X221007438Y-116092124D01*
X221007438Y-116092124D02*
X220959819Y-116187362D01*
X220959819Y-116187362D02*
X220959819Y-116425457D01*
X220959819Y-116425457D02*
X221007438Y-116520695D01*
X221007438Y-116520695D02*
X221055057Y-116568314D01*
X221055057Y-116568314D02*
X221150295Y-116615933D01*
X221150295Y-116615933D02*
X221245533Y-116615933D01*
X221245533Y-116615933D02*
X221388390Y-116568314D01*
X221388390Y-116568314D02*
X221959819Y-115996886D01*
X221959819Y-115996886D02*
X221959819Y-116615933D01*
X221055057Y-116996886D02*
X221007438Y-117044505D01*
X221007438Y-117044505D02*
X220959819Y-117139743D01*
X220959819Y-117139743D02*
X220959819Y-117377838D01*
X220959819Y-117377838D02*
X221007438Y-117473076D01*
X221007438Y-117473076D02*
X221055057Y-117520695D01*
X221055057Y-117520695D02*
X221150295Y-117568314D01*
X221150295Y-117568314D02*
X221245533Y-117568314D01*
X221245533Y-117568314D02*
X221388390Y-117520695D01*
X221388390Y-117520695D02*
X221959819Y-116949267D01*
X221959819Y-116949267D02*
X221959819Y-117568314D01*
X242199580Y-69686984D02*
X242247200Y-69639365D01*
X242247200Y-69639365D02*
X242294819Y-69496508D01*
X242294819Y-69496508D02*
X242294819Y-69401270D01*
X242294819Y-69401270D02*
X242247200Y-69258413D01*
X242247200Y-69258413D02*
X242151961Y-69163175D01*
X242151961Y-69163175D02*
X242056723Y-69115556D01*
X242056723Y-69115556D02*
X241866247Y-69067937D01*
X241866247Y-69067937D02*
X241723390Y-69067937D01*
X241723390Y-69067937D02*
X241532914Y-69115556D01*
X241532914Y-69115556D02*
X241437676Y-69163175D01*
X241437676Y-69163175D02*
X241342438Y-69258413D01*
X241342438Y-69258413D02*
X241294819Y-69401270D01*
X241294819Y-69401270D02*
X241294819Y-69496508D01*
X241294819Y-69496508D02*
X241342438Y-69639365D01*
X241342438Y-69639365D02*
X241390057Y-69686984D01*
X241294819Y-70544127D02*
X241294819Y-70353651D01*
X241294819Y-70353651D02*
X241342438Y-70258413D01*
X241342438Y-70258413D02*
X241390057Y-70210794D01*
X241390057Y-70210794D02*
X241532914Y-70115556D01*
X241532914Y-70115556D02*
X241723390Y-70067937D01*
X241723390Y-70067937D02*
X242104342Y-70067937D01*
X242104342Y-70067937D02*
X242199580Y-70115556D01*
X242199580Y-70115556D02*
X242247200Y-70163175D01*
X242247200Y-70163175D02*
X242294819Y-70258413D01*
X242294819Y-70258413D02*
X242294819Y-70448889D01*
X242294819Y-70448889D02*
X242247200Y-70544127D01*
X242247200Y-70544127D02*
X242199580Y-70591746D01*
X242199580Y-70591746D02*
X242104342Y-70639365D01*
X242104342Y-70639365D02*
X241866247Y-70639365D01*
X241866247Y-70639365D02*
X241771009Y-70591746D01*
X241771009Y-70591746D02*
X241723390Y-70544127D01*
X241723390Y-70544127D02*
X241675771Y-70448889D01*
X241675771Y-70448889D02*
X241675771Y-70258413D01*
X241675771Y-70258413D02*
X241723390Y-70163175D01*
X241723390Y-70163175D02*
X241771009Y-70115556D01*
X241771009Y-70115556D02*
X241866247Y-70067937D01*
X228339580Y-37857142D02*
X228387200Y-37809523D01*
X228387200Y-37809523D02*
X228434819Y-37666666D01*
X228434819Y-37666666D02*
X228434819Y-37571428D01*
X228434819Y-37571428D02*
X228387200Y-37428571D01*
X228387200Y-37428571D02*
X228291961Y-37333333D01*
X228291961Y-37333333D02*
X228196723Y-37285714D01*
X228196723Y-37285714D02*
X228006247Y-37238095D01*
X228006247Y-37238095D02*
X227863390Y-37238095D01*
X227863390Y-37238095D02*
X227672914Y-37285714D01*
X227672914Y-37285714D02*
X227577676Y-37333333D01*
X227577676Y-37333333D02*
X227482438Y-37428571D01*
X227482438Y-37428571D02*
X227434819Y-37571428D01*
X227434819Y-37571428D02*
X227434819Y-37666666D01*
X227434819Y-37666666D02*
X227482438Y-37809523D01*
X227482438Y-37809523D02*
X227530057Y-37857142D01*
X227530057Y-38238095D02*
X227482438Y-38285714D01*
X227482438Y-38285714D02*
X227434819Y-38380952D01*
X227434819Y-38380952D02*
X227434819Y-38619047D01*
X227434819Y-38619047D02*
X227482438Y-38714285D01*
X227482438Y-38714285D02*
X227530057Y-38761904D01*
X227530057Y-38761904D02*
X227625295Y-38809523D01*
X227625295Y-38809523D02*
X227720533Y-38809523D01*
X227720533Y-38809523D02*
X227863390Y-38761904D01*
X227863390Y-38761904D02*
X228434819Y-38190476D01*
X228434819Y-38190476D02*
X228434819Y-38809523D01*
X227434819Y-39666666D02*
X227434819Y-39476190D01*
X227434819Y-39476190D02*
X227482438Y-39380952D01*
X227482438Y-39380952D02*
X227530057Y-39333333D01*
X227530057Y-39333333D02*
X227672914Y-39238095D01*
X227672914Y-39238095D02*
X227863390Y-39190476D01*
X227863390Y-39190476D02*
X228244342Y-39190476D01*
X228244342Y-39190476D02*
X228339580Y-39238095D01*
X228339580Y-39238095D02*
X228387200Y-39285714D01*
X228387200Y-39285714D02*
X228434819Y-39380952D01*
X228434819Y-39380952D02*
X228434819Y-39571428D01*
X228434819Y-39571428D02*
X228387200Y-39666666D01*
X228387200Y-39666666D02*
X228339580Y-39714285D01*
X228339580Y-39714285D02*
X228244342Y-39761904D01*
X228244342Y-39761904D02*
X228006247Y-39761904D01*
X228006247Y-39761904D02*
X227911009Y-39714285D01*
X227911009Y-39714285D02*
X227863390Y-39666666D01*
X227863390Y-39666666D02*
X227815771Y-39571428D01*
X227815771Y-39571428D02*
X227815771Y-39380952D01*
X227815771Y-39380952D02*
X227863390Y-39285714D01*
X227863390Y-39285714D02*
X227911009Y-39238095D01*
X227911009Y-39238095D02*
X228006247Y-39190476D01*
X242239580Y-131412142D02*
X242287200Y-131364523D01*
X242287200Y-131364523D02*
X242334819Y-131221666D01*
X242334819Y-131221666D02*
X242334819Y-131126428D01*
X242334819Y-131126428D02*
X242287200Y-130983571D01*
X242287200Y-130983571D02*
X242191961Y-130888333D01*
X242191961Y-130888333D02*
X242096723Y-130840714D01*
X242096723Y-130840714D02*
X241906247Y-130793095D01*
X241906247Y-130793095D02*
X241763390Y-130793095D01*
X241763390Y-130793095D02*
X241572914Y-130840714D01*
X241572914Y-130840714D02*
X241477676Y-130888333D01*
X241477676Y-130888333D02*
X241382438Y-130983571D01*
X241382438Y-130983571D02*
X241334819Y-131126428D01*
X241334819Y-131126428D02*
X241334819Y-131221666D01*
X241334819Y-131221666D02*
X241382438Y-131364523D01*
X241382438Y-131364523D02*
X241430057Y-131412142D01*
X242334819Y-132364523D02*
X242334819Y-131793095D01*
X242334819Y-132078809D02*
X241334819Y-132078809D01*
X241334819Y-132078809D02*
X241477676Y-131983571D01*
X241477676Y-131983571D02*
X241572914Y-131888333D01*
X241572914Y-131888333D02*
X241620533Y-131793095D01*
X241334819Y-132697857D02*
X241334819Y-133364523D01*
X241334819Y-133364523D02*
X242334819Y-132935952D01*
X228339580Y-69696984D02*
X228387200Y-69649365D01*
X228387200Y-69649365D02*
X228434819Y-69506508D01*
X228434819Y-69506508D02*
X228434819Y-69411270D01*
X228434819Y-69411270D02*
X228387200Y-69268413D01*
X228387200Y-69268413D02*
X228291961Y-69173175D01*
X228291961Y-69173175D02*
X228196723Y-69125556D01*
X228196723Y-69125556D02*
X228006247Y-69077937D01*
X228006247Y-69077937D02*
X227863390Y-69077937D01*
X227863390Y-69077937D02*
X227672914Y-69125556D01*
X227672914Y-69125556D02*
X227577676Y-69173175D01*
X227577676Y-69173175D02*
X227482438Y-69268413D01*
X227482438Y-69268413D02*
X227434819Y-69411270D01*
X227434819Y-69411270D02*
X227434819Y-69506508D01*
X227434819Y-69506508D02*
X227482438Y-69649365D01*
X227482438Y-69649365D02*
X227530057Y-69696984D01*
X227434819Y-70030318D02*
X227434819Y-70696984D01*
X227434819Y-70696984D02*
X228434819Y-70268413D01*
X208037857Y-47476819D02*
X208371190Y-47000628D01*
X208609285Y-47476819D02*
X208609285Y-46476819D01*
X208609285Y-46476819D02*
X208228333Y-46476819D01*
X208228333Y-46476819D02*
X208133095Y-46524438D01*
X208133095Y-46524438D02*
X208085476Y-46572057D01*
X208085476Y-46572057D02*
X208037857Y-46667295D01*
X208037857Y-46667295D02*
X208037857Y-46810152D01*
X208037857Y-46810152D02*
X208085476Y-46905390D01*
X208085476Y-46905390D02*
X208133095Y-46953009D01*
X208133095Y-46953009D02*
X208228333Y-47000628D01*
X208228333Y-47000628D02*
X208609285Y-47000628D01*
X207656904Y-46572057D02*
X207609285Y-46524438D01*
X207609285Y-46524438D02*
X207514047Y-46476819D01*
X207514047Y-46476819D02*
X207275952Y-46476819D01*
X207275952Y-46476819D02*
X207180714Y-46524438D01*
X207180714Y-46524438D02*
X207133095Y-46572057D01*
X207133095Y-46572057D02*
X207085476Y-46667295D01*
X207085476Y-46667295D02*
X207085476Y-46762533D01*
X207085476Y-46762533D02*
X207133095Y-46905390D01*
X207133095Y-46905390D02*
X207704523Y-47476819D01*
X207704523Y-47476819D02*
X207085476Y-47476819D01*
X206133095Y-47476819D02*
X206704523Y-47476819D01*
X206418809Y-47476819D02*
X206418809Y-46476819D01*
X206418809Y-46476819D02*
X206514047Y-46619676D01*
X206514047Y-46619676D02*
X206609285Y-46714914D01*
X206609285Y-46714914D02*
X206704523Y-46762533D01*
X228289580Y-131312136D02*
X228337200Y-131264517D01*
X228337200Y-131264517D02*
X228384819Y-131121660D01*
X228384819Y-131121660D02*
X228384819Y-131026422D01*
X228384819Y-131026422D02*
X228337200Y-130883565D01*
X228337200Y-130883565D02*
X228241961Y-130788327D01*
X228241961Y-130788327D02*
X228146723Y-130740708D01*
X228146723Y-130740708D02*
X227956247Y-130693089D01*
X227956247Y-130693089D02*
X227813390Y-130693089D01*
X227813390Y-130693089D02*
X227622914Y-130740708D01*
X227622914Y-130740708D02*
X227527676Y-130788327D01*
X227527676Y-130788327D02*
X227432438Y-130883565D01*
X227432438Y-130883565D02*
X227384819Y-131026422D01*
X227384819Y-131026422D02*
X227384819Y-131121660D01*
X227384819Y-131121660D02*
X227432438Y-131264517D01*
X227432438Y-131264517D02*
X227480057Y-131312136D01*
X227480057Y-131693089D02*
X227432438Y-131740708D01*
X227432438Y-131740708D02*
X227384819Y-131835946D01*
X227384819Y-131835946D02*
X227384819Y-132074041D01*
X227384819Y-132074041D02*
X227432438Y-132169279D01*
X227432438Y-132169279D02*
X227480057Y-132216898D01*
X227480057Y-132216898D02*
X227575295Y-132264517D01*
X227575295Y-132264517D02*
X227670533Y-132264517D01*
X227670533Y-132264517D02*
X227813390Y-132216898D01*
X227813390Y-132216898D02*
X228384819Y-131645470D01*
X228384819Y-131645470D02*
X228384819Y-132264517D01*
X227384819Y-132597851D02*
X227384819Y-133216898D01*
X227384819Y-133216898D02*
X227765771Y-132883565D01*
X227765771Y-132883565D02*
X227765771Y-133026422D01*
X227765771Y-133026422D02*
X227813390Y-133121660D01*
X227813390Y-133121660D02*
X227861009Y-133169279D01*
X227861009Y-133169279D02*
X227956247Y-133216898D01*
X227956247Y-133216898D02*
X228194342Y-133216898D01*
X228194342Y-133216898D02*
X228289580Y-133169279D01*
X228289580Y-133169279D02*
X228337200Y-133121660D01*
X228337200Y-133121660D02*
X228384819Y-133026422D01*
X228384819Y-133026422D02*
X228384819Y-132740708D01*
X228384819Y-132740708D02*
X228337200Y-132645470D01*
X228337200Y-132645470D02*
X228289580Y-132597851D01*
X221999580Y-22383390D02*
X222047200Y-22335771D01*
X222047200Y-22335771D02*
X222094819Y-22192914D01*
X222094819Y-22192914D02*
X222094819Y-22097676D01*
X222094819Y-22097676D02*
X222047200Y-21954819D01*
X222047200Y-21954819D02*
X221951961Y-21859581D01*
X221951961Y-21859581D02*
X221856723Y-21811962D01*
X221856723Y-21811962D02*
X221666247Y-21764343D01*
X221666247Y-21764343D02*
X221523390Y-21764343D01*
X221523390Y-21764343D02*
X221332914Y-21811962D01*
X221332914Y-21811962D02*
X221237676Y-21859581D01*
X221237676Y-21859581D02*
X221142438Y-21954819D01*
X221142438Y-21954819D02*
X221094819Y-22097676D01*
X221094819Y-22097676D02*
X221094819Y-22192914D01*
X221094819Y-22192914D02*
X221142438Y-22335771D01*
X221142438Y-22335771D02*
X221190057Y-22383390D01*
X221094819Y-22716724D02*
X221094819Y-23335771D01*
X221094819Y-23335771D02*
X221475771Y-23002438D01*
X221475771Y-23002438D02*
X221475771Y-23145295D01*
X221475771Y-23145295D02*
X221523390Y-23240533D01*
X221523390Y-23240533D02*
X221571009Y-23288152D01*
X221571009Y-23288152D02*
X221666247Y-23335771D01*
X221666247Y-23335771D02*
X221904342Y-23335771D01*
X221904342Y-23335771D02*
X221999580Y-23288152D01*
X221999580Y-23288152D02*
X222047200Y-23240533D01*
X222047200Y-23240533D02*
X222094819Y-23145295D01*
X222094819Y-23145295D02*
X222094819Y-22859581D01*
X222094819Y-22859581D02*
X222047200Y-22764343D01*
X222047200Y-22764343D02*
X221999580Y-22716724D01*
X221094819Y-23954819D02*
X221094819Y-24050057D01*
X221094819Y-24050057D02*
X221142438Y-24145295D01*
X221142438Y-24145295D02*
X221190057Y-24192914D01*
X221190057Y-24192914D02*
X221285295Y-24240533D01*
X221285295Y-24240533D02*
X221475771Y-24288152D01*
X221475771Y-24288152D02*
X221713866Y-24288152D01*
X221713866Y-24288152D02*
X221904342Y-24240533D01*
X221904342Y-24240533D02*
X221999580Y-24192914D01*
X221999580Y-24192914D02*
X222047200Y-24145295D01*
X222047200Y-24145295D02*
X222094819Y-24050057D01*
X222094819Y-24050057D02*
X222094819Y-23954819D01*
X222094819Y-23954819D02*
X222047200Y-23859581D01*
X222047200Y-23859581D02*
X221999580Y-23811962D01*
X221999580Y-23811962D02*
X221904342Y-23764343D01*
X221904342Y-23764343D02*
X221713866Y-23716724D01*
X221713866Y-23716724D02*
X221475771Y-23716724D01*
X221475771Y-23716724D02*
X221285295Y-23764343D01*
X221285295Y-23764343D02*
X221190057Y-23811962D01*
X221190057Y-23811962D02*
X221142438Y-23859581D01*
X221142438Y-23859581D02*
X221094819Y-23954819D01*
X242259580Y-84836718D02*
X242307200Y-84789099D01*
X242307200Y-84789099D02*
X242354819Y-84646242D01*
X242354819Y-84646242D02*
X242354819Y-84551004D01*
X242354819Y-84551004D02*
X242307200Y-84408147D01*
X242307200Y-84408147D02*
X242211961Y-84312909D01*
X242211961Y-84312909D02*
X242116723Y-84265290D01*
X242116723Y-84265290D02*
X241926247Y-84217671D01*
X241926247Y-84217671D02*
X241783390Y-84217671D01*
X241783390Y-84217671D02*
X241592914Y-84265290D01*
X241592914Y-84265290D02*
X241497676Y-84312909D01*
X241497676Y-84312909D02*
X241402438Y-84408147D01*
X241402438Y-84408147D02*
X241354819Y-84551004D01*
X241354819Y-84551004D02*
X241354819Y-84646242D01*
X241354819Y-84646242D02*
X241402438Y-84789099D01*
X241402438Y-84789099D02*
X241450057Y-84836718D01*
X242354819Y-85312909D02*
X242354819Y-85503385D01*
X242354819Y-85503385D02*
X242307200Y-85598623D01*
X242307200Y-85598623D02*
X242259580Y-85646242D01*
X242259580Y-85646242D02*
X242116723Y-85741480D01*
X242116723Y-85741480D02*
X241926247Y-85789099D01*
X241926247Y-85789099D02*
X241545295Y-85789099D01*
X241545295Y-85789099D02*
X241450057Y-85741480D01*
X241450057Y-85741480D02*
X241402438Y-85693861D01*
X241402438Y-85693861D02*
X241354819Y-85598623D01*
X241354819Y-85598623D02*
X241354819Y-85408147D01*
X241354819Y-85408147D02*
X241402438Y-85312909D01*
X241402438Y-85312909D02*
X241450057Y-85265290D01*
X241450057Y-85265290D02*
X241545295Y-85217671D01*
X241545295Y-85217671D02*
X241783390Y-85217671D01*
X241783390Y-85217671D02*
X241878628Y-85265290D01*
X241878628Y-85265290D02*
X241926247Y-85312909D01*
X241926247Y-85312909D02*
X241973866Y-85408147D01*
X241973866Y-85408147D02*
X241973866Y-85598623D01*
X241973866Y-85598623D02*
X241926247Y-85693861D01*
X241926247Y-85693861D02*
X241878628Y-85741480D01*
X241878628Y-85741480D02*
X241783390Y-85789099D01*
X221945480Y-84368727D02*
X221993100Y-84321108D01*
X221993100Y-84321108D02*
X222040719Y-84178251D01*
X222040719Y-84178251D02*
X222040719Y-84083013D01*
X222040719Y-84083013D02*
X221993100Y-83940156D01*
X221993100Y-83940156D02*
X221897861Y-83844918D01*
X221897861Y-83844918D02*
X221802623Y-83797299D01*
X221802623Y-83797299D02*
X221612147Y-83749680D01*
X221612147Y-83749680D02*
X221469290Y-83749680D01*
X221469290Y-83749680D02*
X221278814Y-83797299D01*
X221278814Y-83797299D02*
X221183576Y-83844918D01*
X221183576Y-83844918D02*
X221088338Y-83940156D01*
X221088338Y-83940156D02*
X221040719Y-84083013D01*
X221040719Y-84083013D02*
X221040719Y-84178251D01*
X221040719Y-84178251D02*
X221088338Y-84321108D01*
X221088338Y-84321108D02*
X221135957Y-84368727D01*
X222040719Y-85321108D02*
X222040719Y-84749680D01*
X222040719Y-85035394D02*
X221040719Y-85035394D01*
X221040719Y-85035394D02*
X221183576Y-84940156D01*
X221183576Y-84940156D02*
X221278814Y-84844918D01*
X221278814Y-84844918D02*
X221326433Y-84749680D01*
X222040719Y-86273489D02*
X222040719Y-85702061D01*
X222040719Y-85987775D02*
X221040719Y-85987775D01*
X221040719Y-85987775D02*
X221183576Y-85892537D01*
X221183576Y-85892537D02*
X221278814Y-85797299D01*
X221278814Y-85797299D02*
X221326433Y-85702061D01*
X221864580Y-131357136D02*
X221912200Y-131309517D01*
X221912200Y-131309517D02*
X221959819Y-131166660D01*
X221959819Y-131166660D02*
X221959819Y-131071422D01*
X221959819Y-131071422D02*
X221912200Y-130928565D01*
X221912200Y-130928565D02*
X221816961Y-130833327D01*
X221816961Y-130833327D02*
X221721723Y-130785708D01*
X221721723Y-130785708D02*
X221531247Y-130738089D01*
X221531247Y-130738089D02*
X221388390Y-130738089D01*
X221388390Y-130738089D02*
X221197914Y-130785708D01*
X221197914Y-130785708D02*
X221102676Y-130833327D01*
X221102676Y-130833327D02*
X221007438Y-130928565D01*
X221007438Y-130928565D02*
X220959819Y-131071422D01*
X220959819Y-131071422D02*
X220959819Y-131166660D01*
X220959819Y-131166660D02*
X221007438Y-131309517D01*
X221007438Y-131309517D02*
X221055057Y-131357136D01*
X221959819Y-132309517D02*
X221959819Y-131738089D01*
X221959819Y-132023803D02*
X220959819Y-132023803D01*
X220959819Y-132023803D02*
X221102676Y-131928565D01*
X221102676Y-131928565D02*
X221197914Y-131833327D01*
X221197914Y-131833327D02*
X221245533Y-131738089D01*
X221959819Y-132785708D02*
X221959819Y-132976184D01*
X221959819Y-132976184D02*
X221912200Y-133071422D01*
X221912200Y-133071422D02*
X221864580Y-133119041D01*
X221864580Y-133119041D02*
X221721723Y-133214279D01*
X221721723Y-133214279D02*
X221531247Y-133261898D01*
X221531247Y-133261898D02*
X221150295Y-133261898D01*
X221150295Y-133261898D02*
X221055057Y-133214279D01*
X221055057Y-133214279D02*
X221007438Y-133166660D01*
X221007438Y-133166660D02*
X220959819Y-133071422D01*
X220959819Y-133071422D02*
X220959819Y-132880946D01*
X220959819Y-132880946D02*
X221007438Y-132785708D01*
X221007438Y-132785708D02*
X221055057Y-132738089D01*
X221055057Y-132738089D02*
X221150295Y-132690470D01*
X221150295Y-132690470D02*
X221388390Y-132690470D01*
X221388390Y-132690470D02*
X221483628Y-132738089D01*
X221483628Y-132738089D02*
X221531247Y-132785708D01*
X221531247Y-132785708D02*
X221578866Y-132880946D01*
X221578866Y-132880946D02*
X221578866Y-133071422D01*
X221578866Y-133071422D02*
X221531247Y-133166660D01*
X221531247Y-133166660D02*
X221483628Y-133214279D01*
X221483628Y-133214279D02*
X221388390Y-133261898D01*
X245929580Y-22153390D02*
X245977200Y-22105771D01*
X245977200Y-22105771D02*
X246024819Y-21962914D01*
X246024819Y-21962914D02*
X246024819Y-21867676D01*
X246024819Y-21867676D02*
X245977200Y-21724819D01*
X245977200Y-21724819D02*
X245881961Y-21629581D01*
X245881961Y-21629581D02*
X245786723Y-21581962D01*
X245786723Y-21581962D02*
X245596247Y-21534343D01*
X245596247Y-21534343D02*
X245453390Y-21534343D01*
X245453390Y-21534343D02*
X245262914Y-21581962D01*
X245262914Y-21581962D02*
X245167676Y-21629581D01*
X245167676Y-21629581D02*
X245072438Y-21724819D01*
X245072438Y-21724819D02*
X245024819Y-21867676D01*
X245024819Y-21867676D02*
X245024819Y-21962914D01*
X245024819Y-21962914D02*
X245072438Y-22105771D01*
X245072438Y-22105771D02*
X245120057Y-22153390D01*
X245024819Y-22486724D02*
X245024819Y-23105771D01*
X245024819Y-23105771D02*
X245405771Y-22772438D01*
X245405771Y-22772438D02*
X245405771Y-22915295D01*
X245405771Y-22915295D02*
X245453390Y-23010533D01*
X245453390Y-23010533D02*
X245501009Y-23058152D01*
X245501009Y-23058152D02*
X245596247Y-23105771D01*
X245596247Y-23105771D02*
X245834342Y-23105771D01*
X245834342Y-23105771D02*
X245929580Y-23058152D01*
X245929580Y-23058152D02*
X245977200Y-23010533D01*
X245977200Y-23010533D02*
X246024819Y-22915295D01*
X246024819Y-22915295D02*
X246024819Y-22629581D01*
X246024819Y-22629581D02*
X245977200Y-22534343D01*
X245977200Y-22534343D02*
X245929580Y-22486724D01*
X245120057Y-23486724D02*
X245072438Y-23534343D01*
X245072438Y-23534343D02*
X245024819Y-23629581D01*
X245024819Y-23629581D02*
X245024819Y-23867676D01*
X245024819Y-23867676D02*
X245072438Y-23962914D01*
X245072438Y-23962914D02*
X245120057Y-24010533D01*
X245120057Y-24010533D02*
X245215295Y-24058152D01*
X245215295Y-24058152D02*
X245310533Y-24058152D01*
X245310533Y-24058152D02*
X245453390Y-24010533D01*
X245453390Y-24010533D02*
X246024819Y-23439105D01*
X246024819Y-23439105D02*
X246024819Y-24058152D01*
X207937857Y-54227819D02*
X208271190Y-53751628D01*
X208509285Y-54227819D02*
X208509285Y-53227819D01*
X208509285Y-53227819D02*
X208128333Y-53227819D01*
X208128333Y-53227819D02*
X208033095Y-53275438D01*
X208033095Y-53275438D02*
X207985476Y-53323057D01*
X207985476Y-53323057D02*
X207937857Y-53418295D01*
X207937857Y-53418295D02*
X207937857Y-53561152D01*
X207937857Y-53561152D02*
X207985476Y-53656390D01*
X207985476Y-53656390D02*
X208033095Y-53704009D01*
X208033095Y-53704009D02*
X208128333Y-53751628D01*
X208128333Y-53751628D02*
X208509285Y-53751628D01*
X206985476Y-54227819D02*
X207556904Y-54227819D01*
X207271190Y-54227819D02*
X207271190Y-53227819D01*
X207271190Y-53227819D02*
X207366428Y-53370676D01*
X207366428Y-53370676D02*
X207461666Y-53465914D01*
X207461666Y-53465914D02*
X207556904Y-53513533D01*
X206414047Y-53656390D02*
X206509285Y-53608771D01*
X206509285Y-53608771D02*
X206556904Y-53561152D01*
X206556904Y-53561152D02*
X206604523Y-53465914D01*
X206604523Y-53465914D02*
X206604523Y-53418295D01*
X206604523Y-53418295D02*
X206556904Y-53323057D01*
X206556904Y-53323057D02*
X206509285Y-53275438D01*
X206509285Y-53275438D02*
X206414047Y-53227819D01*
X206414047Y-53227819D02*
X206223571Y-53227819D01*
X206223571Y-53227819D02*
X206128333Y-53275438D01*
X206128333Y-53275438D02*
X206080714Y-53323057D01*
X206080714Y-53323057D02*
X206033095Y-53418295D01*
X206033095Y-53418295D02*
X206033095Y-53465914D01*
X206033095Y-53465914D02*
X206080714Y-53561152D01*
X206080714Y-53561152D02*
X206128333Y-53608771D01*
X206128333Y-53608771D02*
X206223571Y-53656390D01*
X206223571Y-53656390D02*
X206414047Y-53656390D01*
X206414047Y-53656390D02*
X206509285Y-53704009D01*
X206509285Y-53704009D02*
X206556904Y-53751628D01*
X206556904Y-53751628D02*
X206604523Y-53846866D01*
X206604523Y-53846866D02*
X206604523Y-54037342D01*
X206604523Y-54037342D02*
X206556904Y-54132580D01*
X206556904Y-54132580D02*
X206509285Y-54180200D01*
X206509285Y-54180200D02*
X206414047Y-54227819D01*
X206414047Y-54227819D02*
X206223571Y-54227819D01*
X206223571Y-54227819D02*
X206128333Y-54180200D01*
X206128333Y-54180200D02*
X206080714Y-54132580D01*
X206080714Y-54132580D02*
X206033095Y-54037342D01*
X206033095Y-54037342D02*
X206033095Y-53846866D01*
X206033095Y-53846866D02*
X206080714Y-53751628D01*
X206080714Y-53751628D02*
X206128333Y-53704009D01*
X206128333Y-53704009D02*
X206223571Y-53656390D01*
X228325580Y-53892504D02*
X228373200Y-53844885D01*
X228373200Y-53844885D02*
X228420819Y-53702028D01*
X228420819Y-53702028D02*
X228420819Y-53606790D01*
X228420819Y-53606790D02*
X228373200Y-53463933D01*
X228373200Y-53463933D02*
X228277961Y-53368695D01*
X228277961Y-53368695D02*
X228182723Y-53321076D01*
X228182723Y-53321076D02*
X227992247Y-53273457D01*
X227992247Y-53273457D02*
X227849390Y-53273457D01*
X227849390Y-53273457D02*
X227658914Y-53321076D01*
X227658914Y-53321076D02*
X227563676Y-53368695D01*
X227563676Y-53368695D02*
X227468438Y-53463933D01*
X227468438Y-53463933D02*
X227420819Y-53606790D01*
X227420819Y-53606790D02*
X227420819Y-53702028D01*
X227420819Y-53702028D02*
X227468438Y-53844885D01*
X227468438Y-53844885D02*
X227516057Y-53892504D01*
X227420819Y-54797266D02*
X227420819Y-54321076D01*
X227420819Y-54321076D02*
X227897009Y-54273457D01*
X227897009Y-54273457D02*
X227849390Y-54321076D01*
X227849390Y-54321076D02*
X227801771Y-54416314D01*
X227801771Y-54416314D02*
X227801771Y-54654409D01*
X227801771Y-54654409D02*
X227849390Y-54749647D01*
X227849390Y-54749647D02*
X227897009Y-54797266D01*
X227897009Y-54797266D02*
X227992247Y-54844885D01*
X227992247Y-54844885D02*
X228230342Y-54844885D01*
X228230342Y-54844885D02*
X228325580Y-54797266D01*
X228325580Y-54797266D02*
X228373200Y-54749647D01*
X228373200Y-54749647D02*
X228420819Y-54654409D01*
X228420819Y-54654409D02*
X228420819Y-54416314D01*
X228420819Y-54416314D02*
X228373200Y-54321076D01*
X228373200Y-54321076D02*
X228325580Y-54273457D01*
X228239580Y-100261946D02*
X228287200Y-100214327D01*
X228287200Y-100214327D02*
X228334819Y-100071470D01*
X228334819Y-100071470D02*
X228334819Y-99976232D01*
X228334819Y-99976232D02*
X228287200Y-99833375D01*
X228287200Y-99833375D02*
X228191961Y-99738137D01*
X228191961Y-99738137D02*
X228096723Y-99690518D01*
X228096723Y-99690518D02*
X227906247Y-99642899D01*
X227906247Y-99642899D02*
X227763390Y-99642899D01*
X227763390Y-99642899D02*
X227572914Y-99690518D01*
X227572914Y-99690518D02*
X227477676Y-99738137D01*
X227477676Y-99738137D02*
X227382438Y-99833375D01*
X227382438Y-99833375D02*
X227334819Y-99976232D01*
X227334819Y-99976232D02*
X227334819Y-100071470D01*
X227334819Y-100071470D02*
X227382438Y-100214327D01*
X227382438Y-100214327D02*
X227430057Y-100261946D01*
X228334819Y-101214327D02*
X228334819Y-100642899D01*
X228334819Y-100928613D02*
X227334819Y-100928613D01*
X227334819Y-100928613D02*
X227477676Y-100833375D01*
X227477676Y-100833375D02*
X227572914Y-100738137D01*
X227572914Y-100738137D02*
X227620533Y-100642899D01*
X227334819Y-102119089D02*
X227334819Y-101642899D01*
X227334819Y-101642899D02*
X227811009Y-101595280D01*
X227811009Y-101595280D02*
X227763390Y-101642899D01*
X227763390Y-101642899D02*
X227715771Y-101738137D01*
X227715771Y-101738137D02*
X227715771Y-101976232D01*
X227715771Y-101976232D02*
X227763390Y-102071470D01*
X227763390Y-102071470D02*
X227811009Y-102119089D01*
X227811009Y-102119089D02*
X227906247Y-102166708D01*
X227906247Y-102166708D02*
X228144342Y-102166708D01*
X228144342Y-102166708D02*
X228239580Y-102119089D01*
X228239580Y-102119089D02*
X228287200Y-102071470D01*
X228287200Y-102071470D02*
X228334819Y-101976232D01*
X228334819Y-101976232D02*
X228334819Y-101738137D01*
X228334819Y-101738137D02*
X228287200Y-101642899D01*
X228287200Y-101642899D02*
X228239580Y-101595280D01*
X212757857Y-61054580D02*
X212805476Y-61102200D01*
X212805476Y-61102200D02*
X212948333Y-61149819D01*
X212948333Y-61149819D02*
X213043571Y-61149819D01*
X213043571Y-61149819D02*
X213186428Y-61102200D01*
X213186428Y-61102200D02*
X213281666Y-61006961D01*
X213281666Y-61006961D02*
X213329285Y-60911723D01*
X213329285Y-60911723D02*
X213376904Y-60721247D01*
X213376904Y-60721247D02*
X213376904Y-60578390D01*
X213376904Y-60578390D02*
X213329285Y-60387914D01*
X213329285Y-60387914D02*
X213281666Y-60292676D01*
X213281666Y-60292676D02*
X213186428Y-60197438D01*
X213186428Y-60197438D02*
X213043571Y-60149819D01*
X213043571Y-60149819D02*
X212948333Y-60149819D01*
X212948333Y-60149819D02*
X212805476Y-60197438D01*
X212805476Y-60197438D02*
X212757857Y-60245057D01*
X212424523Y-60149819D02*
X211805476Y-60149819D01*
X211805476Y-60149819D02*
X212138809Y-60530771D01*
X212138809Y-60530771D02*
X211995952Y-60530771D01*
X211995952Y-60530771D02*
X211900714Y-60578390D01*
X211900714Y-60578390D02*
X211853095Y-60626009D01*
X211853095Y-60626009D02*
X211805476Y-60721247D01*
X211805476Y-60721247D02*
X211805476Y-60959342D01*
X211805476Y-60959342D02*
X211853095Y-61054580D01*
X211853095Y-61054580D02*
X211900714Y-61102200D01*
X211900714Y-61102200D02*
X211995952Y-61149819D01*
X211995952Y-61149819D02*
X212281666Y-61149819D01*
X212281666Y-61149819D02*
X212376904Y-61102200D01*
X212376904Y-61102200D02*
X212424523Y-61054580D01*
X211186428Y-60149819D02*
X211091190Y-60149819D01*
X211091190Y-60149819D02*
X210995952Y-60197438D01*
X210995952Y-60197438D02*
X210948333Y-60245057D01*
X210948333Y-60245057D02*
X210900714Y-60340295D01*
X210900714Y-60340295D02*
X210853095Y-60530771D01*
X210853095Y-60530771D02*
X210853095Y-60768866D01*
X210853095Y-60768866D02*
X210900714Y-60959342D01*
X210900714Y-60959342D02*
X210948333Y-61054580D01*
X210948333Y-61054580D02*
X210995952Y-61102200D01*
X210995952Y-61102200D02*
X211091190Y-61149819D01*
X211091190Y-61149819D02*
X211186428Y-61149819D01*
X211186428Y-61149819D02*
X211281666Y-61102200D01*
X211281666Y-61102200D02*
X211329285Y-61054580D01*
X211329285Y-61054580D02*
X211376904Y-60959342D01*
X211376904Y-60959342D02*
X211424523Y-60768866D01*
X211424523Y-60768866D02*
X211424523Y-60530771D01*
X211424523Y-60530771D02*
X211376904Y-60340295D01*
X211376904Y-60340295D02*
X211329285Y-60245057D01*
X211329285Y-60245057D02*
X211281666Y-60197438D01*
X211281666Y-60197438D02*
X211186428Y-60149819D01*
X222039580Y-53854004D02*
X222087200Y-53806385D01*
X222087200Y-53806385D02*
X222134819Y-53663528D01*
X222134819Y-53663528D02*
X222134819Y-53568290D01*
X222134819Y-53568290D02*
X222087200Y-53425433D01*
X222087200Y-53425433D02*
X221991961Y-53330195D01*
X221991961Y-53330195D02*
X221896723Y-53282576D01*
X221896723Y-53282576D02*
X221706247Y-53234957D01*
X221706247Y-53234957D02*
X221563390Y-53234957D01*
X221563390Y-53234957D02*
X221372914Y-53282576D01*
X221372914Y-53282576D02*
X221277676Y-53330195D01*
X221277676Y-53330195D02*
X221182438Y-53425433D01*
X221182438Y-53425433D02*
X221134819Y-53568290D01*
X221134819Y-53568290D02*
X221134819Y-53663528D01*
X221134819Y-53663528D02*
X221182438Y-53806385D01*
X221182438Y-53806385D02*
X221230057Y-53854004D01*
X221230057Y-54234957D02*
X221182438Y-54282576D01*
X221182438Y-54282576D02*
X221134819Y-54377814D01*
X221134819Y-54377814D02*
X221134819Y-54615909D01*
X221134819Y-54615909D02*
X221182438Y-54711147D01*
X221182438Y-54711147D02*
X221230057Y-54758766D01*
X221230057Y-54758766D02*
X221325295Y-54806385D01*
X221325295Y-54806385D02*
X221420533Y-54806385D01*
X221420533Y-54806385D02*
X221563390Y-54758766D01*
X221563390Y-54758766D02*
X222134819Y-54187338D01*
X222134819Y-54187338D02*
X222134819Y-54806385D01*
X242059580Y-100166146D02*
X242107200Y-100118527D01*
X242107200Y-100118527D02*
X242154819Y-99975670D01*
X242154819Y-99975670D02*
X242154819Y-99880432D01*
X242154819Y-99880432D02*
X242107200Y-99737575D01*
X242107200Y-99737575D02*
X242011961Y-99642337D01*
X242011961Y-99642337D02*
X241916723Y-99594718D01*
X241916723Y-99594718D02*
X241726247Y-99547099D01*
X241726247Y-99547099D02*
X241583390Y-99547099D01*
X241583390Y-99547099D02*
X241392914Y-99594718D01*
X241392914Y-99594718D02*
X241297676Y-99642337D01*
X241297676Y-99642337D02*
X241202438Y-99737575D01*
X241202438Y-99737575D02*
X241154819Y-99880432D01*
X241154819Y-99880432D02*
X241154819Y-99975670D01*
X241154819Y-99975670D02*
X241202438Y-100118527D01*
X241202438Y-100118527D02*
X241250057Y-100166146D01*
X242154819Y-101118527D02*
X242154819Y-100547099D01*
X242154819Y-100832813D02*
X241154819Y-100832813D01*
X241154819Y-100832813D02*
X241297676Y-100737575D01*
X241297676Y-100737575D02*
X241392914Y-100642337D01*
X241392914Y-100642337D02*
X241440533Y-100547099D01*
X241488152Y-101975670D02*
X242154819Y-101975670D01*
X241107200Y-101737575D02*
X241821485Y-101499480D01*
X241821485Y-101499480D02*
X241821485Y-102118527D01*
X242269580Y-37597142D02*
X242317200Y-37549523D01*
X242317200Y-37549523D02*
X242364819Y-37406666D01*
X242364819Y-37406666D02*
X242364819Y-37311428D01*
X242364819Y-37311428D02*
X242317200Y-37168571D01*
X242317200Y-37168571D02*
X242221961Y-37073333D01*
X242221961Y-37073333D02*
X242126723Y-37025714D01*
X242126723Y-37025714D02*
X241936247Y-36978095D01*
X241936247Y-36978095D02*
X241793390Y-36978095D01*
X241793390Y-36978095D02*
X241602914Y-37025714D01*
X241602914Y-37025714D02*
X241507676Y-37073333D01*
X241507676Y-37073333D02*
X241412438Y-37168571D01*
X241412438Y-37168571D02*
X241364819Y-37311428D01*
X241364819Y-37311428D02*
X241364819Y-37406666D01*
X241364819Y-37406666D02*
X241412438Y-37549523D01*
X241412438Y-37549523D02*
X241460057Y-37597142D01*
X241460057Y-37978095D02*
X241412438Y-38025714D01*
X241412438Y-38025714D02*
X241364819Y-38120952D01*
X241364819Y-38120952D02*
X241364819Y-38359047D01*
X241364819Y-38359047D02*
X241412438Y-38454285D01*
X241412438Y-38454285D02*
X241460057Y-38501904D01*
X241460057Y-38501904D02*
X241555295Y-38549523D01*
X241555295Y-38549523D02*
X241650533Y-38549523D01*
X241650533Y-38549523D02*
X241793390Y-38501904D01*
X241793390Y-38501904D02*
X242364819Y-37930476D01*
X242364819Y-37930476D02*
X242364819Y-38549523D01*
X241364819Y-38882857D02*
X241364819Y-39549523D01*
X241364819Y-39549523D02*
X242364819Y-39120952D01*
X187712857Y-32439580D02*
X187760476Y-32487200D01*
X187760476Y-32487200D02*
X187903333Y-32534819D01*
X187903333Y-32534819D02*
X187998571Y-32534819D01*
X187998571Y-32534819D02*
X188141428Y-32487200D01*
X188141428Y-32487200D02*
X188236666Y-32391961D01*
X188236666Y-32391961D02*
X188284285Y-32296723D01*
X188284285Y-32296723D02*
X188331904Y-32106247D01*
X188331904Y-32106247D02*
X188331904Y-31963390D01*
X188331904Y-31963390D02*
X188284285Y-31772914D01*
X188284285Y-31772914D02*
X188236666Y-31677676D01*
X188236666Y-31677676D02*
X188141428Y-31582438D01*
X188141428Y-31582438D02*
X187998571Y-31534819D01*
X187998571Y-31534819D02*
X187903333Y-31534819D01*
X187903333Y-31534819D02*
X187760476Y-31582438D01*
X187760476Y-31582438D02*
X187712857Y-31630057D01*
X186760476Y-32534819D02*
X187331904Y-32534819D01*
X187046190Y-32534819D02*
X187046190Y-31534819D01*
X187046190Y-31534819D02*
X187141428Y-31677676D01*
X187141428Y-31677676D02*
X187236666Y-31772914D01*
X187236666Y-31772914D02*
X187331904Y-31820533D01*
X186427142Y-31534819D02*
X185808095Y-31534819D01*
X185808095Y-31534819D02*
X186141428Y-31915771D01*
X186141428Y-31915771D02*
X185998571Y-31915771D01*
X185998571Y-31915771D02*
X185903333Y-31963390D01*
X185903333Y-31963390D02*
X185855714Y-32011009D01*
X185855714Y-32011009D02*
X185808095Y-32106247D01*
X185808095Y-32106247D02*
X185808095Y-32344342D01*
X185808095Y-32344342D02*
X185855714Y-32439580D01*
X185855714Y-32439580D02*
X185903333Y-32487200D01*
X185903333Y-32487200D02*
X185998571Y-32534819D01*
X185998571Y-32534819D02*
X186284285Y-32534819D01*
X186284285Y-32534819D02*
X186379523Y-32487200D01*
X186379523Y-32487200D02*
X186427142Y-32439580D01*
X228384580Y-84373427D02*
X228432200Y-84325808D01*
X228432200Y-84325808D02*
X228479819Y-84182951D01*
X228479819Y-84182951D02*
X228479819Y-84087713D01*
X228479819Y-84087713D02*
X228432200Y-83944856D01*
X228432200Y-83944856D02*
X228336961Y-83849618D01*
X228336961Y-83849618D02*
X228241723Y-83801999D01*
X228241723Y-83801999D02*
X228051247Y-83754380D01*
X228051247Y-83754380D02*
X227908390Y-83754380D01*
X227908390Y-83754380D02*
X227717914Y-83801999D01*
X227717914Y-83801999D02*
X227622676Y-83849618D01*
X227622676Y-83849618D02*
X227527438Y-83944856D01*
X227527438Y-83944856D02*
X227479819Y-84087713D01*
X227479819Y-84087713D02*
X227479819Y-84182951D01*
X227479819Y-84182951D02*
X227527438Y-84325808D01*
X227527438Y-84325808D02*
X227575057Y-84373427D01*
X228479819Y-85325808D02*
X228479819Y-84754380D01*
X228479819Y-85040094D02*
X227479819Y-85040094D01*
X227479819Y-85040094D02*
X227622676Y-84944856D01*
X227622676Y-84944856D02*
X227717914Y-84849618D01*
X227717914Y-84849618D02*
X227765533Y-84754380D01*
X227479819Y-85944856D02*
X227479819Y-86040094D01*
X227479819Y-86040094D02*
X227527438Y-86135332D01*
X227527438Y-86135332D02*
X227575057Y-86182951D01*
X227575057Y-86182951D02*
X227670295Y-86230570D01*
X227670295Y-86230570D02*
X227860771Y-86278189D01*
X227860771Y-86278189D02*
X228098866Y-86278189D01*
X228098866Y-86278189D02*
X228289342Y-86230570D01*
X228289342Y-86230570D02*
X228384580Y-86182951D01*
X228384580Y-86182951D02*
X228432200Y-86135332D01*
X228432200Y-86135332D02*
X228479819Y-86040094D01*
X228479819Y-86040094D02*
X228479819Y-85944856D01*
X228479819Y-85944856D02*
X228432200Y-85849618D01*
X228432200Y-85849618D02*
X228384580Y-85801999D01*
X228384580Y-85801999D02*
X228289342Y-85754380D01*
X228289342Y-85754380D02*
X228098866Y-85706761D01*
X228098866Y-85706761D02*
X227860771Y-85706761D01*
X227860771Y-85706761D02*
X227670295Y-85754380D01*
X227670295Y-85754380D02*
X227575057Y-85801999D01*
X227575057Y-85801999D02*
X227527438Y-85849618D01*
X227527438Y-85849618D02*
X227479819Y-85944856D01*
X200062857Y-135209580D02*
X200110476Y-135257200D01*
X200110476Y-135257200D02*
X200253333Y-135304819D01*
X200253333Y-135304819D02*
X200348571Y-135304819D01*
X200348571Y-135304819D02*
X200491428Y-135257200D01*
X200491428Y-135257200D02*
X200586666Y-135161961D01*
X200586666Y-135161961D02*
X200634285Y-135066723D01*
X200634285Y-135066723D02*
X200681904Y-134876247D01*
X200681904Y-134876247D02*
X200681904Y-134733390D01*
X200681904Y-134733390D02*
X200634285Y-134542914D01*
X200634285Y-134542914D02*
X200586666Y-134447676D01*
X200586666Y-134447676D02*
X200491428Y-134352438D01*
X200491428Y-134352438D02*
X200348571Y-134304819D01*
X200348571Y-134304819D02*
X200253333Y-134304819D01*
X200253333Y-134304819D02*
X200110476Y-134352438D01*
X200110476Y-134352438D02*
X200062857Y-134400057D01*
X199681904Y-134400057D02*
X199634285Y-134352438D01*
X199634285Y-134352438D02*
X199539047Y-134304819D01*
X199539047Y-134304819D02*
X199300952Y-134304819D01*
X199300952Y-134304819D02*
X199205714Y-134352438D01*
X199205714Y-134352438D02*
X199158095Y-134400057D01*
X199158095Y-134400057D02*
X199110476Y-134495295D01*
X199110476Y-134495295D02*
X199110476Y-134590533D01*
X199110476Y-134590533D02*
X199158095Y-134733390D01*
X199158095Y-134733390D02*
X199729523Y-135304819D01*
X199729523Y-135304819D02*
X199110476Y-135304819D01*
X198634285Y-135304819D02*
X198443809Y-135304819D01*
X198443809Y-135304819D02*
X198348571Y-135257200D01*
X198348571Y-135257200D02*
X198300952Y-135209580D01*
X198300952Y-135209580D02*
X198205714Y-135066723D01*
X198205714Y-135066723D02*
X198158095Y-134876247D01*
X198158095Y-134876247D02*
X198158095Y-134495295D01*
X198158095Y-134495295D02*
X198205714Y-134400057D01*
X198205714Y-134400057D02*
X198253333Y-134352438D01*
X198253333Y-134352438D02*
X198348571Y-134304819D01*
X198348571Y-134304819D02*
X198539047Y-134304819D01*
X198539047Y-134304819D02*
X198634285Y-134352438D01*
X198634285Y-134352438D02*
X198681904Y-134400057D01*
X198681904Y-134400057D02*
X198729523Y-134495295D01*
X198729523Y-134495295D02*
X198729523Y-134733390D01*
X198729523Y-134733390D02*
X198681904Y-134828628D01*
X198681904Y-134828628D02*
X198634285Y-134876247D01*
X198634285Y-134876247D02*
X198539047Y-134923866D01*
X198539047Y-134923866D02*
X198348571Y-134923866D01*
X198348571Y-134923866D02*
X198253333Y-134876247D01*
X198253333Y-134876247D02*
X198205714Y-134828628D01*
X198205714Y-134828628D02*
X198158095Y-134733390D01*
X208137857Y-49793819D02*
X208471190Y-49317628D01*
X208709285Y-49793819D02*
X208709285Y-48793819D01*
X208709285Y-48793819D02*
X208328333Y-48793819D01*
X208328333Y-48793819D02*
X208233095Y-48841438D01*
X208233095Y-48841438D02*
X208185476Y-48889057D01*
X208185476Y-48889057D02*
X208137857Y-48984295D01*
X208137857Y-48984295D02*
X208137857Y-49127152D01*
X208137857Y-49127152D02*
X208185476Y-49222390D01*
X208185476Y-49222390D02*
X208233095Y-49270009D01*
X208233095Y-49270009D02*
X208328333Y-49317628D01*
X208328333Y-49317628D02*
X208709285Y-49317628D01*
X207756904Y-48889057D02*
X207709285Y-48841438D01*
X207709285Y-48841438D02*
X207614047Y-48793819D01*
X207614047Y-48793819D02*
X207375952Y-48793819D01*
X207375952Y-48793819D02*
X207280714Y-48841438D01*
X207280714Y-48841438D02*
X207233095Y-48889057D01*
X207233095Y-48889057D02*
X207185476Y-48984295D01*
X207185476Y-48984295D02*
X207185476Y-49079533D01*
X207185476Y-49079533D02*
X207233095Y-49222390D01*
X207233095Y-49222390D02*
X207804523Y-49793819D01*
X207804523Y-49793819D02*
X207185476Y-49793819D01*
X206566428Y-48793819D02*
X206471190Y-48793819D01*
X206471190Y-48793819D02*
X206375952Y-48841438D01*
X206375952Y-48841438D02*
X206328333Y-48889057D01*
X206328333Y-48889057D02*
X206280714Y-48984295D01*
X206280714Y-48984295D02*
X206233095Y-49174771D01*
X206233095Y-49174771D02*
X206233095Y-49412866D01*
X206233095Y-49412866D02*
X206280714Y-49603342D01*
X206280714Y-49603342D02*
X206328333Y-49698580D01*
X206328333Y-49698580D02*
X206375952Y-49746200D01*
X206375952Y-49746200D02*
X206471190Y-49793819D01*
X206471190Y-49793819D02*
X206566428Y-49793819D01*
X206566428Y-49793819D02*
X206661666Y-49746200D01*
X206661666Y-49746200D02*
X206709285Y-49698580D01*
X206709285Y-49698580D02*
X206756904Y-49603342D01*
X206756904Y-49603342D02*
X206804523Y-49412866D01*
X206804523Y-49412866D02*
X206804523Y-49174771D01*
X206804523Y-49174771D02*
X206756904Y-48984295D01*
X206756904Y-48984295D02*
X206709285Y-48889057D01*
X206709285Y-48889057D02*
X206661666Y-48841438D01*
X206661666Y-48841438D02*
X206566428Y-48793819D01*
X221889880Y-100261946D02*
X221937500Y-100214327D01*
X221937500Y-100214327D02*
X221985119Y-100071470D01*
X221985119Y-100071470D02*
X221985119Y-99976232D01*
X221985119Y-99976232D02*
X221937500Y-99833375D01*
X221937500Y-99833375D02*
X221842261Y-99738137D01*
X221842261Y-99738137D02*
X221747023Y-99690518D01*
X221747023Y-99690518D02*
X221556547Y-99642899D01*
X221556547Y-99642899D02*
X221413690Y-99642899D01*
X221413690Y-99642899D02*
X221223214Y-99690518D01*
X221223214Y-99690518D02*
X221127976Y-99738137D01*
X221127976Y-99738137D02*
X221032738Y-99833375D01*
X221032738Y-99833375D02*
X220985119Y-99976232D01*
X220985119Y-99976232D02*
X220985119Y-100071470D01*
X220985119Y-100071470D02*
X221032738Y-100214327D01*
X221032738Y-100214327D02*
X221080357Y-100261946D01*
X221985119Y-101214327D02*
X221985119Y-100642899D01*
X221985119Y-100928613D02*
X220985119Y-100928613D01*
X220985119Y-100928613D02*
X221127976Y-100833375D01*
X221127976Y-100833375D02*
X221223214Y-100738137D01*
X221223214Y-100738137D02*
X221270833Y-100642899D01*
X221080357Y-101595280D02*
X221032738Y-101642899D01*
X221032738Y-101642899D02*
X220985119Y-101738137D01*
X220985119Y-101738137D02*
X220985119Y-101976232D01*
X220985119Y-101976232D02*
X221032738Y-102071470D01*
X221032738Y-102071470D02*
X221080357Y-102119089D01*
X221080357Y-102119089D02*
X221175595Y-102166708D01*
X221175595Y-102166708D02*
X221270833Y-102166708D01*
X221270833Y-102166708D02*
X221413690Y-102119089D01*
X221413690Y-102119089D02*
X221985119Y-101547661D01*
X221985119Y-101547661D02*
X221985119Y-102166708D01*
X242104580Y-115670652D02*
X242152200Y-115623033D01*
X242152200Y-115623033D02*
X242199819Y-115480176D01*
X242199819Y-115480176D02*
X242199819Y-115384938D01*
X242199819Y-115384938D02*
X242152200Y-115242081D01*
X242152200Y-115242081D02*
X242056961Y-115146843D01*
X242056961Y-115146843D02*
X241961723Y-115099224D01*
X241961723Y-115099224D02*
X241771247Y-115051605D01*
X241771247Y-115051605D02*
X241628390Y-115051605D01*
X241628390Y-115051605D02*
X241437914Y-115099224D01*
X241437914Y-115099224D02*
X241342676Y-115146843D01*
X241342676Y-115146843D02*
X241247438Y-115242081D01*
X241247438Y-115242081D02*
X241199819Y-115384938D01*
X241199819Y-115384938D02*
X241199819Y-115480176D01*
X241199819Y-115480176D02*
X241247438Y-115623033D01*
X241247438Y-115623033D02*
X241295057Y-115670652D01*
X241295057Y-116051605D02*
X241247438Y-116099224D01*
X241247438Y-116099224D02*
X241199819Y-116194462D01*
X241199819Y-116194462D02*
X241199819Y-116432557D01*
X241199819Y-116432557D02*
X241247438Y-116527795D01*
X241247438Y-116527795D02*
X241295057Y-116575414D01*
X241295057Y-116575414D02*
X241390295Y-116623033D01*
X241390295Y-116623033D02*
X241485533Y-116623033D01*
X241485533Y-116623033D02*
X241628390Y-116575414D01*
X241628390Y-116575414D02*
X242199819Y-116003986D01*
X242199819Y-116003986D02*
X242199819Y-116623033D01*
X241199819Y-117242081D02*
X241199819Y-117337319D01*
X241199819Y-117337319D02*
X241247438Y-117432557D01*
X241247438Y-117432557D02*
X241295057Y-117480176D01*
X241295057Y-117480176D02*
X241390295Y-117527795D01*
X241390295Y-117527795D02*
X241580771Y-117575414D01*
X241580771Y-117575414D02*
X241818866Y-117575414D01*
X241818866Y-117575414D02*
X242009342Y-117527795D01*
X242009342Y-117527795D02*
X242104580Y-117480176D01*
X242104580Y-117480176D02*
X242152200Y-117432557D01*
X242152200Y-117432557D02*
X242199819Y-117337319D01*
X242199819Y-117337319D02*
X242199819Y-117242081D01*
X242199819Y-117242081D02*
X242152200Y-117146843D01*
X242152200Y-117146843D02*
X242104580Y-117099224D01*
X242104580Y-117099224D02*
X242009342Y-117051605D01*
X242009342Y-117051605D02*
X241818866Y-117003986D01*
X241818866Y-117003986D02*
X241580771Y-117003986D01*
X241580771Y-117003986D02*
X241390295Y-117051605D01*
X241390295Y-117051605D02*
X241295057Y-117099224D01*
X241295057Y-117099224D02*
X241247438Y-117146843D01*
X241247438Y-117146843D02*
X241199819Y-117242081D01*
X164423333Y-118459819D02*
X164423333Y-119174104D01*
X164423333Y-119174104D02*
X164470952Y-119316961D01*
X164470952Y-119316961D02*
X164566190Y-119412200D01*
X164566190Y-119412200D02*
X164709047Y-119459819D01*
X164709047Y-119459819D02*
X164804285Y-119459819D01*
X163470952Y-118459819D02*
X163947142Y-118459819D01*
X163947142Y-118459819D02*
X163994761Y-118936009D01*
X163994761Y-118936009D02*
X163947142Y-118888390D01*
X163947142Y-118888390D02*
X163851904Y-118840771D01*
X163851904Y-118840771D02*
X163613809Y-118840771D01*
X163613809Y-118840771D02*
X163518571Y-118888390D01*
X163518571Y-118888390D02*
X163470952Y-118936009D01*
X163470952Y-118936009D02*
X163423333Y-119031247D01*
X163423333Y-119031247D02*
X163423333Y-119269342D01*
X163423333Y-119269342D02*
X163470952Y-119364580D01*
X163470952Y-119364580D02*
X163518571Y-119412200D01*
X163518571Y-119412200D02*
X163613809Y-119459819D01*
X163613809Y-119459819D02*
X163851904Y-119459819D01*
X163851904Y-119459819D02*
X163947142Y-119412200D01*
X163947142Y-119412200D02*
X163994761Y-119364580D01*
X242219580Y-53844004D02*
X242267200Y-53796385D01*
X242267200Y-53796385D02*
X242314819Y-53653528D01*
X242314819Y-53653528D02*
X242314819Y-53558290D01*
X242314819Y-53558290D02*
X242267200Y-53415433D01*
X242267200Y-53415433D02*
X242171961Y-53320195D01*
X242171961Y-53320195D02*
X242076723Y-53272576D01*
X242076723Y-53272576D02*
X241886247Y-53224957D01*
X241886247Y-53224957D02*
X241743390Y-53224957D01*
X241743390Y-53224957D02*
X241552914Y-53272576D01*
X241552914Y-53272576D02*
X241457676Y-53320195D01*
X241457676Y-53320195D02*
X241362438Y-53415433D01*
X241362438Y-53415433D02*
X241314819Y-53558290D01*
X241314819Y-53558290D02*
X241314819Y-53653528D01*
X241314819Y-53653528D02*
X241362438Y-53796385D01*
X241362438Y-53796385D02*
X241410057Y-53844004D01*
X241648152Y-54701147D02*
X242314819Y-54701147D01*
X241267200Y-54463052D02*
X241981485Y-54224957D01*
X241981485Y-54224957D02*
X241981485Y-54844004D01*
X189343036Y-135681724D02*
X189390655Y-135729344D01*
X189390655Y-135729344D02*
X189533512Y-135776963D01*
X189533512Y-135776963D02*
X189628750Y-135776963D01*
X189628750Y-135776963D02*
X189771607Y-135729344D01*
X189771607Y-135729344D02*
X189866845Y-135634105D01*
X189866845Y-135634105D02*
X189914464Y-135538867D01*
X189914464Y-135538867D02*
X189962083Y-135348391D01*
X189962083Y-135348391D02*
X189962083Y-135205534D01*
X189962083Y-135205534D02*
X189914464Y-135015058D01*
X189914464Y-135015058D02*
X189866845Y-134919820D01*
X189866845Y-134919820D02*
X189771607Y-134824582D01*
X189771607Y-134824582D02*
X189628750Y-134776963D01*
X189628750Y-134776963D02*
X189533512Y-134776963D01*
X189533512Y-134776963D02*
X189390655Y-134824582D01*
X189390655Y-134824582D02*
X189343036Y-134872201D01*
X188390655Y-135776963D02*
X188962083Y-135776963D01*
X188676369Y-135776963D02*
X188676369Y-134776963D01*
X188676369Y-134776963D02*
X188771607Y-134919820D01*
X188771607Y-134919820D02*
X188866845Y-135015058D01*
X188866845Y-135015058D02*
X188962083Y-135062677D01*
X187533512Y-134776963D02*
X187723988Y-134776963D01*
X187723988Y-134776963D02*
X187819226Y-134824582D01*
X187819226Y-134824582D02*
X187866845Y-134872201D01*
X187866845Y-134872201D02*
X187962083Y-135015058D01*
X187962083Y-135015058D02*
X188009702Y-135205534D01*
X188009702Y-135205534D02*
X188009702Y-135586486D01*
X188009702Y-135586486D02*
X187962083Y-135681724D01*
X187962083Y-135681724D02*
X187914464Y-135729344D01*
X187914464Y-135729344D02*
X187819226Y-135776963D01*
X187819226Y-135776963D02*
X187628750Y-135776963D01*
X187628750Y-135776963D02*
X187533512Y-135729344D01*
X187533512Y-135729344D02*
X187485893Y-135681724D01*
X187485893Y-135681724D02*
X187438274Y-135586486D01*
X187438274Y-135586486D02*
X187438274Y-135348391D01*
X187438274Y-135348391D02*
X187485893Y-135253153D01*
X187485893Y-135253153D02*
X187533512Y-135205534D01*
X187533512Y-135205534D02*
X187628750Y-135157915D01*
X187628750Y-135157915D02*
X187819226Y-135157915D01*
X187819226Y-135157915D02*
X187914464Y-135205534D01*
X187914464Y-135205534D02*
X187962083Y-135253153D01*
X187962083Y-135253153D02*
X188009702Y-135348391D01*
X177942857Y-43159580D02*
X177990476Y-43207200D01*
X177990476Y-43207200D02*
X178133333Y-43254819D01*
X178133333Y-43254819D02*
X178228571Y-43254819D01*
X178228571Y-43254819D02*
X178371428Y-43207200D01*
X178371428Y-43207200D02*
X178466666Y-43111961D01*
X178466666Y-43111961D02*
X178514285Y-43016723D01*
X178514285Y-43016723D02*
X178561904Y-42826247D01*
X178561904Y-42826247D02*
X178561904Y-42683390D01*
X178561904Y-42683390D02*
X178514285Y-42492914D01*
X178514285Y-42492914D02*
X178466666Y-42397676D01*
X178466666Y-42397676D02*
X178371428Y-42302438D01*
X178371428Y-42302438D02*
X178228571Y-42254819D01*
X178228571Y-42254819D02*
X178133333Y-42254819D01*
X178133333Y-42254819D02*
X177990476Y-42302438D01*
X177990476Y-42302438D02*
X177942857Y-42350057D01*
X176990476Y-43254819D02*
X177561904Y-43254819D01*
X177276190Y-43254819D02*
X177276190Y-42254819D01*
X177276190Y-42254819D02*
X177371428Y-42397676D01*
X177371428Y-42397676D02*
X177466666Y-42492914D01*
X177466666Y-42492914D02*
X177561904Y-42540533D01*
X176419047Y-42683390D02*
X176514285Y-42635771D01*
X176514285Y-42635771D02*
X176561904Y-42588152D01*
X176561904Y-42588152D02*
X176609523Y-42492914D01*
X176609523Y-42492914D02*
X176609523Y-42445295D01*
X176609523Y-42445295D02*
X176561904Y-42350057D01*
X176561904Y-42350057D02*
X176514285Y-42302438D01*
X176514285Y-42302438D02*
X176419047Y-42254819D01*
X176419047Y-42254819D02*
X176228571Y-42254819D01*
X176228571Y-42254819D02*
X176133333Y-42302438D01*
X176133333Y-42302438D02*
X176085714Y-42350057D01*
X176085714Y-42350057D02*
X176038095Y-42445295D01*
X176038095Y-42445295D02*
X176038095Y-42492914D01*
X176038095Y-42492914D02*
X176085714Y-42588152D01*
X176085714Y-42588152D02*
X176133333Y-42635771D01*
X176133333Y-42635771D02*
X176228571Y-42683390D01*
X176228571Y-42683390D02*
X176419047Y-42683390D01*
X176419047Y-42683390D02*
X176514285Y-42731009D01*
X176514285Y-42731009D02*
X176561904Y-42778628D01*
X176561904Y-42778628D02*
X176609523Y-42873866D01*
X176609523Y-42873866D02*
X176609523Y-43064342D01*
X176609523Y-43064342D02*
X176561904Y-43159580D01*
X176561904Y-43159580D02*
X176514285Y-43207200D01*
X176514285Y-43207200D02*
X176419047Y-43254819D01*
X176419047Y-43254819D02*
X176228571Y-43254819D01*
X176228571Y-43254819D02*
X176133333Y-43207200D01*
X176133333Y-43207200D02*
X176085714Y-43159580D01*
X176085714Y-43159580D02*
X176038095Y-43064342D01*
X176038095Y-43064342D02*
X176038095Y-42873866D01*
X176038095Y-42873866D02*
X176085714Y-42778628D01*
X176085714Y-42778628D02*
X176133333Y-42731009D01*
X176133333Y-42731009D02*
X176228571Y-42683390D01*
X228329580Y-22443390D02*
X228377200Y-22395771D01*
X228377200Y-22395771D02*
X228424819Y-22252914D01*
X228424819Y-22252914D02*
X228424819Y-22157676D01*
X228424819Y-22157676D02*
X228377200Y-22014819D01*
X228377200Y-22014819D02*
X228281961Y-21919581D01*
X228281961Y-21919581D02*
X228186723Y-21871962D01*
X228186723Y-21871962D02*
X227996247Y-21824343D01*
X227996247Y-21824343D02*
X227853390Y-21824343D01*
X227853390Y-21824343D02*
X227662914Y-21871962D01*
X227662914Y-21871962D02*
X227567676Y-21919581D01*
X227567676Y-21919581D02*
X227472438Y-22014819D01*
X227472438Y-22014819D02*
X227424819Y-22157676D01*
X227424819Y-22157676D02*
X227424819Y-22252914D01*
X227424819Y-22252914D02*
X227472438Y-22395771D01*
X227472438Y-22395771D02*
X227520057Y-22443390D01*
X227424819Y-22776724D02*
X227424819Y-23395771D01*
X227424819Y-23395771D02*
X227805771Y-23062438D01*
X227805771Y-23062438D02*
X227805771Y-23205295D01*
X227805771Y-23205295D02*
X227853390Y-23300533D01*
X227853390Y-23300533D02*
X227901009Y-23348152D01*
X227901009Y-23348152D02*
X227996247Y-23395771D01*
X227996247Y-23395771D02*
X228234342Y-23395771D01*
X228234342Y-23395771D02*
X228329580Y-23348152D01*
X228329580Y-23348152D02*
X228377200Y-23300533D01*
X228377200Y-23300533D02*
X228424819Y-23205295D01*
X228424819Y-23205295D02*
X228424819Y-22919581D01*
X228424819Y-22919581D02*
X228377200Y-22824343D01*
X228377200Y-22824343D02*
X228329580Y-22776724D01*
X228424819Y-24348152D02*
X228424819Y-23776724D01*
X228424819Y-24062438D02*
X227424819Y-24062438D01*
X227424819Y-24062438D02*
X227567676Y-23967200D01*
X227567676Y-23967200D02*
X227662914Y-23871962D01*
X227662914Y-23871962D02*
X227710533Y-23776724D01*
X200342857Y-119879580D02*
X200390476Y-119927200D01*
X200390476Y-119927200D02*
X200533333Y-119974819D01*
X200533333Y-119974819D02*
X200628571Y-119974819D01*
X200628571Y-119974819D02*
X200771428Y-119927200D01*
X200771428Y-119927200D02*
X200866666Y-119831961D01*
X200866666Y-119831961D02*
X200914285Y-119736723D01*
X200914285Y-119736723D02*
X200961904Y-119546247D01*
X200961904Y-119546247D02*
X200961904Y-119403390D01*
X200961904Y-119403390D02*
X200914285Y-119212914D01*
X200914285Y-119212914D02*
X200866666Y-119117676D01*
X200866666Y-119117676D02*
X200771428Y-119022438D01*
X200771428Y-119022438D02*
X200628571Y-118974819D01*
X200628571Y-118974819D02*
X200533333Y-118974819D01*
X200533333Y-118974819D02*
X200390476Y-119022438D01*
X200390476Y-119022438D02*
X200342857Y-119070057D01*
X199961904Y-119070057D02*
X199914285Y-119022438D01*
X199914285Y-119022438D02*
X199819047Y-118974819D01*
X199819047Y-118974819D02*
X199580952Y-118974819D01*
X199580952Y-118974819D02*
X199485714Y-119022438D01*
X199485714Y-119022438D02*
X199438095Y-119070057D01*
X199438095Y-119070057D02*
X199390476Y-119165295D01*
X199390476Y-119165295D02*
X199390476Y-119260533D01*
X199390476Y-119260533D02*
X199438095Y-119403390D01*
X199438095Y-119403390D02*
X200009523Y-119974819D01*
X200009523Y-119974819D02*
X199390476Y-119974819D01*
X198819047Y-119403390D02*
X198914285Y-119355771D01*
X198914285Y-119355771D02*
X198961904Y-119308152D01*
X198961904Y-119308152D02*
X199009523Y-119212914D01*
X199009523Y-119212914D02*
X199009523Y-119165295D01*
X199009523Y-119165295D02*
X198961904Y-119070057D01*
X198961904Y-119070057D02*
X198914285Y-119022438D01*
X198914285Y-119022438D02*
X198819047Y-118974819D01*
X198819047Y-118974819D02*
X198628571Y-118974819D01*
X198628571Y-118974819D02*
X198533333Y-119022438D01*
X198533333Y-119022438D02*
X198485714Y-119070057D01*
X198485714Y-119070057D02*
X198438095Y-119165295D01*
X198438095Y-119165295D02*
X198438095Y-119212914D01*
X198438095Y-119212914D02*
X198485714Y-119308152D01*
X198485714Y-119308152D02*
X198533333Y-119355771D01*
X198533333Y-119355771D02*
X198628571Y-119403390D01*
X198628571Y-119403390D02*
X198819047Y-119403390D01*
X198819047Y-119403390D02*
X198914285Y-119451009D01*
X198914285Y-119451009D02*
X198961904Y-119498628D01*
X198961904Y-119498628D02*
X199009523Y-119593866D01*
X199009523Y-119593866D02*
X199009523Y-119784342D01*
X199009523Y-119784342D02*
X198961904Y-119879580D01*
X198961904Y-119879580D02*
X198914285Y-119927200D01*
X198914285Y-119927200D02*
X198819047Y-119974819D01*
X198819047Y-119974819D02*
X198628571Y-119974819D01*
X198628571Y-119974819D02*
X198533333Y-119927200D01*
X198533333Y-119927200D02*
X198485714Y-119879580D01*
X198485714Y-119879580D02*
X198438095Y-119784342D01*
X198438095Y-119784342D02*
X198438095Y-119593866D01*
X198438095Y-119593866D02*
X198485714Y-119498628D01*
X198485714Y-119498628D02*
X198533333Y-119451009D01*
X198533333Y-119451009D02*
X198628571Y-119403390D01*
X207937857Y-45259819D02*
X208271190Y-44783628D01*
X208509285Y-45259819D02*
X208509285Y-44259819D01*
X208509285Y-44259819D02*
X208128333Y-44259819D01*
X208128333Y-44259819D02*
X208033095Y-44307438D01*
X208033095Y-44307438D02*
X207985476Y-44355057D01*
X207985476Y-44355057D02*
X207937857Y-44450295D01*
X207937857Y-44450295D02*
X207937857Y-44593152D01*
X207937857Y-44593152D02*
X207985476Y-44688390D01*
X207985476Y-44688390D02*
X208033095Y-44736009D01*
X208033095Y-44736009D02*
X208128333Y-44783628D01*
X208128333Y-44783628D02*
X208509285Y-44783628D01*
X206985476Y-45259819D02*
X207556904Y-45259819D01*
X207271190Y-45259819D02*
X207271190Y-44259819D01*
X207271190Y-44259819D02*
X207366428Y-44402676D01*
X207366428Y-44402676D02*
X207461666Y-44497914D01*
X207461666Y-44497914D02*
X207556904Y-44545533D01*
X206033095Y-45259819D02*
X206604523Y-45259819D01*
X206318809Y-45259819D02*
X206318809Y-44259819D01*
X206318809Y-44259819D02*
X206414047Y-44402676D01*
X206414047Y-44402676D02*
X206509285Y-44497914D01*
X206509285Y-44497914D02*
X206604523Y-44545533D01*
X221999580Y-69689484D02*
X222047200Y-69641865D01*
X222047200Y-69641865D02*
X222094819Y-69499008D01*
X222094819Y-69499008D02*
X222094819Y-69403770D01*
X222094819Y-69403770D02*
X222047200Y-69260913D01*
X222047200Y-69260913D02*
X221951961Y-69165675D01*
X221951961Y-69165675D02*
X221856723Y-69118056D01*
X221856723Y-69118056D02*
X221666247Y-69070437D01*
X221666247Y-69070437D02*
X221523390Y-69070437D01*
X221523390Y-69070437D02*
X221332914Y-69118056D01*
X221332914Y-69118056D02*
X221237676Y-69165675D01*
X221237676Y-69165675D02*
X221142438Y-69260913D01*
X221142438Y-69260913D02*
X221094819Y-69403770D01*
X221094819Y-69403770D02*
X221094819Y-69499008D01*
X221094819Y-69499008D02*
X221142438Y-69641865D01*
X221142438Y-69641865D02*
X221190057Y-69689484D01*
X221094819Y-70022818D02*
X221094819Y-70641865D01*
X221094819Y-70641865D02*
X221475771Y-70308532D01*
X221475771Y-70308532D02*
X221475771Y-70451389D01*
X221475771Y-70451389D02*
X221523390Y-70546627D01*
X221523390Y-70546627D02*
X221571009Y-70594246D01*
X221571009Y-70594246D02*
X221666247Y-70641865D01*
X221666247Y-70641865D02*
X221904342Y-70641865D01*
X221904342Y-70641865D02*
X221999580Y-70594246D01*
X221999580Y-70594246D02*
X222047200Y-70546627D01*
X222047200Y-70546627D02*
X222094819Y-70451389D01*
X222094819Y-70451389D02*
X222094819Y-70165675D01*
X222094819Y-70165675D02*
X222047200Y-70070437D01*
X222047200Y-70070437D02*
X221999580Y-70022818D01*
X228264580Y-115663552D02*
X228312200Y-115615933D01*
X228312200Y-115615933D02*
X228359819Y-115473076D01*
X228359819Y-115473076D02*
X228359819Y-115377838D01*
X228359819Y-115377838D02*
X228312200Y-115234981D01*
X228312200Y-115234981D02*
X228216961Y-115139743D01*
X228216961Y-115139743D02*
X228121723Y-115092124D01*
X228121723Y-115092124D02*
X227931247Y-115044505D01*
X227931247Y-115044505D02*
X227788390Y-115044505D01*
X227788390Y-115044505D02*
X227597914Y-115092124D01*
X227597914Y-115092124D02*
X227502676Y-115139743D01*
X227502676Y-115139743D02*
X227407438Y-115234981D01*
X227407438Y-115234981D02*
X227359819Y-115377838D01*
X227359819Y-115377838D02*
X227359819Y-115473076D01*
X227359819Y-115473076D02*
X227407438Y-115615933D01*
X227407438Y-115615933D02*
X227455057Y-115663552D01*
X227455057Y-116044505D02*
X227407438Y-116092124D01*
X227407438Y-116092124D02*
X227359819Y-116187362D01*
X227359819Y-116187362D02*
X227359819Y-116425457D01*
X227359819Y-116425457D02*
X227407438Y-116520695D01*
X227407438Y-116520695D02*
X227455057Y-116568314D01*
X227455057Y-116568314D02*
X227550295Y-116615933D01*
X227550295Y-116615933D02*
X227645533Y-116615933D01*
X227645533Y-116615933D02*
X227788390Y-116568314D01*
X227788390Y-116568314D02*
X228359819Y-115996886D01*
X228359819Y-115996886D02*
X228359819Y-116615933D01*
X228359819Y-117568314D02*
X228359819Y-116996886D01*
X228359819Y-117282600D02*
X227359819Y-117282600D01*
X227359819Y-117282600D02*
X227502676Y-117187362D01*
X227502676Y-117187362D02*
X227597914Y-117092124D01*
X227597914Y-117092124D02*
X227645533Y-116996886D01*
X222009580Y-37859642D02*
X222057200Y-37812023D01*
X222057200Y-37812023D02*
X222104819Y-37669166D01*
X222104819Y-37669166D02*
X222104819Y-37573928D01*
X222104819Y-37573928D02*
X222057200Y-37431071D01*
X222057200Y-37431071D02*
X221961961Y-37335833D01*
X221961961Y-37335833D02*
X221866723Y-37288214D01*
X221866723Y-37288214D02*
X221676247Y-37240595D01*
X221676247Y-37240595D02*
X221533390Y-37240595D01*
X221533390Y-37240595D02*
X221342914Y-37288214D01*
X221342914Y-37288214D02*
X221247676Y-37335833D01*
X221247676Y-37335833D02*
X221152438Y-37431071D01*
X221152438Y-37431071D02*
X221104819Y-37573928D01*
X221104819Y-37573928D02*
X221104819Y-37669166D01*
X221104819Y-37669166D02*
X221152438Y-37812023D01*
X221152438Y-37812023D02*
X221200057Y-37859642D01*
X221200057Y-38240595D02*
X221152438Y-38288214D01*
X221152438Y-38288214D02*
X221104819Y-38383452D01*
X221104819Y-38383452D02*
X221104819Y-38621547D01*
X221104819Y-38621547D02*
X221152438Y-38716785D01*
X221152438Y-38716785D02*
X221200057Y-38764404D01*
X221200057Y-38764404D02*
X221295295Y-38812023D01*
X221295295Y-38812023D02*
X221390533Y-38812023D01*
X221390533Y-38812023D02*
X221533390Y-38764404D01*
X221533390Y-38764404D02*
X222104819Y-38192976D01*
X222104819Y-38192976D02*
X222104819Y-38812023D01*
X221104819Y-39716785D02*
X221104819Y-39240595D01*
X221104819Y-39240595D02*
X221581009Y-39192976D01*
X221581009Y-39192976D02*
X221533390Y-39240595D01*
X221533390Y-39240595D02*
X221485771Y-39335833D01*
X221485771Y-39335833D02*
X221485771Y-39573928D01*
X221485771Y-39573928D02*
X221533390Y-39669166D01*
X221533390Y-39669166D02*
X221581009Y-39716785D01*
X221581009Y-39716785D02*
X221676247Y-39764404D01*
X221676247Y-39764404D02*
X221914342Y-39764404D01*
X221914342Y-39764404D02*
X222009580Y-39716785D01*
X222009580Y-39716785D02*
X222057200Y-39669166D01*
X222057200Y-39669166D02*
X222104819Y-39573928D01*
X222104819Y-39573928D02*
X222104819Y-39335833D01*
X222104819Y-39335833D02*
X222057200Y-39240595D01*
X222057200Y-39240595D02*
X222009580Y-39192976D01*
X171716666Y-60929580D02*
X171764285Y-60977200D01*
X171764285Y-60977200D02*
X171907142Y-61024819D01*
X171907142Y-61024819D02*
X172002380Y-61024819D01*
X172002380Y-61024819D02*
X172145237Y-60977200D01*
X172145237Y-60977200D02*
X172240475Y-60881961D01*
X172240475Y-60881961D02*
X172288094Y-60786723D01*
X172288094Y-60786723D02*
X172335713Y-60596247D01*
X172335713Y-60596247D02*
X172335713Y-60453390D01*
X172335713Y-60453390D02*
X172288094Y-60262914D01*
X172288094Y-60262914D02*
X172240475Y-60167676D01*
X172240475Y-60167676D02*
X172145237Y-60072438D01*
X172145237Y-60072438D02*
X172002380Y-60024819D01*
X172002380Y-60024819D02*
X171907142Y-60024819D01*
X171907142Y-60024819D02*
X171764285Y-60072438D01*
X171764285Y-60072438D02*
X171716666Y-60120057D01*
X170764285Y-61024819D02*
X171335713Y-61024819D01*
X171049999Y-61024819D02*
X171049999Y-60024819D01*
X171049999Y-60024819D02*
X171145237Y-60167676D01*
X171145237Y-60167676D02*
X171240475Y-60262914D01*
X171240475Y-60262914D02*
X171335713Y-60310533D01*
D11*
%TO.C,C22*%
X219090000Y-116045158D02*
X219090000Y-116567662D01*
X220560000Y-116045158D02*
X220560000Y-116567662D01*
%TO.C,C6*%
X242925000Y-69592399D02*
X242925000Y-70114903D01*
X244395000Y-69592399D02*
X244395000Y-70114903D01*
%TO.C,C26*%
X225565000Y-38238748D02*
X225565000Y-38761252D01*
X227035000Y-38238748D02*
X227035000Y-38761252D01*
%TO.C,C17*%
X242895000Y-131698748D02*
X242895000Y-132221252D01*
X244365000Y-131698748D02*
X244365000Y-132221252D01*
%TO.C,C7*%
X225565000Y-69602399D02*
X225565000Y-70124903D01*
X227035000Y-69602399D02*
X227035000Y-70124903D01*
%TO.C,R21*%
X204122064Y-46387000D02*
X203667936Y-46387000D01*
X204122064Y-47857000D02*
X203667936Y-47857000D01*
%TO.C,C23*%
X225515000Y-131693742D02*
X225515000Y-132216246D01*
X226985000Y-131693742D02*
X226985000Y-132216246D01*
%TO.C,C30*%
X219225000Y-22764996D02*
X219225000Y-23287500D01*
X220695000Y-22764996D02*
X220695000Y-23287500D01*
%TO.C,C9*%
X242915000Y-84845033D02*
X242915000Y-85367537D01*
X244385000Y-84845033D02*
X244385000Y-85367537D01*
%TO.C,C11*%
X219170900Y-84750333D02*
X219170900Y-85272837D01*
X220640900Y-84750333D02*
X220640900Y-85272837D01*
%TO.C,C19*%
X219090000Y-131738742D02*
X219090000Y-132261246D01*
X220560000Y-131738742D02*
X220560000Y-132261246D01*
%TO.C,C32*%
X243155000Y-22534996D02*
X243155000Y-23057500D01*
X244625000Y-22534996D02*
X244625000Y-23057500D01*
%TO.C,R18*%
X204122064Y-53038000D02*
X203667936Y-53038000D01*
X204122064Y-54508000D02*
X203667936Y-54508000D01*
%TO.C,C5*%
X225551000Y-53797919D02*
X225551000Y-54320423D01*
X227021000Y-53797919D02*
X227021000Y-54320423D01*
%TO.C,C15*%
X225465000Y-100643552D02*
X225465000Y-101166056D01*
X226935000Y-100643552D02*
X226935000Y-101166056D01*
%TO.C,C30*%
X211853748Y-61640000D02*
X212376252Y-61640000D01*
X211853748Y-63110000D02*
X212376252Y-63110000D01*
%TO.C,C2*%
X219265000Y-53759419D02*
X219265000Y-54281923D01*
X220735000Y-53759419D02*
X220735000Y-54281923D01*
%TO.C,C14*%
X242915000Y-100595652D02*
X242915000Y-101118156D01*
X244385000Y-100595652D02*
X244385000Y-101118156D01*
%TO.C,C27*%
X242975000Y-38128748D02*
X242975000Y-38651252D01*
X244445000Y-38128748D02*
X244445000Y-38651252D01*
%TO.C,C13*%
X183941252Y-31335000D02*
X183418748Y-31335000D01*
X183941252Y-32805000D02*
X183418748Y-32805000D01*
%TO.C,C10*%
X225610000Y-84755033D02*
X225610000Y-85277537D01*
X227080000Y-84755033D02*
X227080000Y-85277537D01*
%TO.C,C29*%
X199118748Y-135885000D02*
X199641252Y-135885000D01*
X199118748Y-137355000D02*
X199641252Y-137355000D01*
%TO.C,R20*%
X204122064Y-48604000D02*
X203667936Y-48604000D01*
X204122064Y-50074000D02*
X203667936Y-50074000D01*
%TO.C,C12*%
X219115300Y-100643552D02*
X219115300Y-101166056D01*
X220585300Y-100643552D02*
X220585300Y-101166056D01*
%TO.C,C20*%
X242935000Y-116052258D02*
X242935000Y-116574762D01*
X244405000Y-116052258D02*
X244405000Y-116574762D01*
%TO.C,J5*%
X153925000Y-121215000D02*
X159925000Y-121215000D01*
X153925000Y-121275000D02*
X159925000Y-121275000D01*
X153925000Y-121395000D02*
X159925000Y-121395000D01*
X153925000Y-121515000D02*
X159925000Y-121515000D01*
X153925000Y-121635000D02*
X159925000Y-121635000D01*
X153925000Y-121755000D02*
X159925000Y-121755000D01*
X153925000Y-121875000D02*
X159925000Y-121875000D01*
X153925000Y-121975000D02*
X153925000Y-121215000D01*
X153925000Y-123755000D02*
X159925000Y-123755000D01*
X153925000Y-124515000D02*
X153925000Y-123755000D01*
X153925000Y-126295000D02*
X159925000Y-126295000D01*
X153925000Y-127055000D02*
X153925000Y-126295000D01*
X153925000Y-128835000D02*
X159925000Y-128835000D01*
X153925000Y-129595000D02*
X153925000Y-128835000D01*
X153925000Y-131375000D02*
X159925000Y-131375000D01*
X153925000Y-132135000D02*
X153925000Y-131375000D01*
X153925000Y-133915000D02*
X159925000Y-133915000D01*
X153925000Y-134675000D02*
X153925000Y-133915000D01*
X153925000Y-136455000D02*
X159925000Y-136455000D01*
X153925000Y-137215000D02*
X153925000Y-136455000D01*
X153925000Y-138995000D02*
X159925000Y-138995000D01*
X153925000Y-139755000D02*
X153925000Y-138995000D01*
X153925000Y-141535000D02*
X159925000Y-141535000D01*
X153925000Y-142295000D02*
X153925000Y-141535000D01*
X159925000Y-120265000D02*
X159925000Y-143245000D01*
X159925000Y-121975000D02*
X153925000Y-121975000D01*
X159925000Y-122865000D02*
X162585000Y-122865000D01*
X159925000Y-124515000D02*
X153925000Y-124515000D01*
X159925000Y-125405000D02*
X162585000Y-125405000D01*
X159925000Y-127055000D02*
X153925000Y-127055000D01*
X159925000Y-127945000D02*
X162585000Y-127945000D01*
X159925000Y-129595000D02*
X153925000Y-129595000D01*
X159925000Y-130485000D02*
X162585000Y-130485000D01*
X159925000Y-132135000D02*
X153925000Y-132135000D01*
X159925000Y-133025000D02*
X162585000Y-133025000D01*
X159925000Y-134675000D02*
X153925000Y-134675000D01*
X159925000Y-135565000D02*
X162585000Y-135565000D01*
X159925000Y-137215000D02*
X153925000Y-137215000D01*
X159925000Y-138105000D02*
X162585000Y-138105000D01*
X159925000Y-139755000D02*
X153925000Y-139755000D01*
X159925000Y-140645000D02*
X162585000Y-140645000D01*
X159925000Y-142295000D02*
X153925000Y-142295000D01*
X159925000Y-143245000D02*
X162585000Y-143245000D01*
X162585000Y-120265000D02*
X159925000Y-120265000D01*
X162585000Y-121215000D02*
X162915000Y-121215000D01*
X162585000Y-121975000D02*
X162915000Y-121975000D01*
X162585000Y-123755000D02*
X162982071Y-123755000D01*
X162585000Y-124515000D02*
X162982071Y-124515000D01*
X162585000Y-126295000D02*
X162982071Y-126295000D01*
X162585000Y-127055000D02*
X162982071Y-127055000D01*
X162585000Y-128835000D02*
X162982071Y-128835000D01*
X162585000Y-129595000D02*
X162982071Y-129595000D01*
X162585000Y-131375000D02*
X162982071Y-131375000D01*
X162585000Y-132135000D02*
X162982071Y-132135000D01*
X162585000Y-133915000D02*
X162982071Y-133915000D01*
X162585000Y-134675000D02*
X162982071Y-134675000D01*
X162585000Y-136455000D02*
X162982071Y-136455000D01*
X162585000Y-137215000D02*
X162982071Y-137215000D01*
X162585000Y-138995000D02*
X162982071Y-138995000D01*
X162585000Y-139755000D02*
X162982071Y-139755000D01*
X162585000Y-141535000D02*
X162982071Y-141535000D01*
X162585000Y-142295000D02*
X162982071Y-142295000D01*
X162585000Y-143245000D02*
X162585000Y-120265000D01*
X164025000Y-120325000D02*
X165295000Y-120325000D01*
X165295000Y-120325000D02*
X165295000Y-121595000D01*
%TO.C,C4*%
X242911000Y-53787919D02*
X242911000Y-54310423D01*
X244381000Y-53787919D02*
X244381000Y-54310423D01*
%TO.C,C16*%
X188438927Y-136267144D02*
X188961431Y-136267144D01*
X188438927Y-137737144D02*
X188961431Y-137737144D01*
%TO.C,C18*%
X177038748Y-43965000D02*
X177561252Y-43965000D01*
X177038748Y-45435000D02*
X177561252Y-45435000D01*
%TO.C,C31*%
X225555000Y-22824996D02*
X225555000Y-23347500D01*
X227025000Y-22824996D02*
X227025000Y-23347500D01*
%TO.C,C28*%
X199428748Y-120435000D02*
X199951252Y-120435000D01*
X199428748Y-121905000D02*
X199951252Y-121905000D01*
%TO.C,R11*%
X204122064Y-44170000D02*
X203667936Y-44170000D01*
X204122064Y-45640000D02*
X203667936Y-45640000D01*
%TO.C,C3*%
X219225000Y-69594899D02*
X219225000Y-70117403D01*
X220695000Y-69594899D02*
X220695000Y-70117403D01*
%TO.C,C21*%
X225490000Y-116045158D02*
X225490000Y-116567662D01*
X226960000Y-116045158D02*
X226960000Y-116567662D01*
%TO.C,C25*%
X219235000Y-38241248D02*
X219235000Y-38763752D01*
X220705000Y-38241248D02*
X220705000Y-38763752D01*
%TO.C,C1*%
X171288748Y-61515000D02*
X171811252Y-61515000D01*
X171288748Y-62985000D02*
X171811252Y-62985000D01*
%TD*%
M02*
