%TF.GenerationSoftware,KiCad,Pcbnew,8.0.5*%
%TF.CreationDate,2024-11-12T15:17:23-04:00*%
%TF.ProjectId,RAMEXB_V2_Github,52414d45-5842-45f5-9632-5f4769746875,rev?*%
%TF.SameCoordinates,Original*%
%TF.FileFunction,Drillmap*%
%TF.FilePolarity,Positive*%
%FSLAX45Y45*%
G04 Gerber Fmt 4.5, Leading zero omitted, Abs format (unit mm)*
G04 Created by KiCad (PCBNEW 8.0.5) date 2024-11-12 15:17:23*
%MOMM*%
%LPD*%
G01*
G04 APERTURE LIST*
%ADD10C,0.150000*%
%ADD11C,0.200000*%
%ADD12C,0.100000*%
G04 APERTURE END LIST*
D10*
X15850000Y-1498000D02*
X15750000Y-1598000D01*
X21439289Y-15270711D02*
G75*
G02*
X21368579Y-15299999I-70709J70711D01*
G01*
X24620711Y-15129289D02*
X24479289Y-15270711D01*
X24650000Y-15058579D02*
X24650000Y-1598000D01*
X24479289Y-15270711D02*
G75*
G02*
X24408579Y-15299999I-70709J70711D01*
G01*
X15750000Y-14630000D02*
X15750000Y-15158579D01*
X21368579Y-15300000D02*
X15891421Y-15300000D01*
X24650000Y-1598000D02*
X24550000Y-1498000D01*
X23831421Y-15300000D02*
G75*
G02*
X23760710Y-15270711I-1J100000D01*
G01*
X15750000Y-14630000D02*
X15450000Y-14630000D01*
X15891421Y-15300000D02*
G75*
G02*
X15820712Y-15270709I-1J99990D01*
G01*
X15750000Y-11729000D02*
X15450000Y-11729000D01*
X15779289Y-15229289D02*
X15820711Y-15270711D01*
X23639289Y-15149289D02*
G75*
G02*
X23610004Y-15078579I70721J70709D01*
G01*
X23510000Y-13880000D02*
G75*
G02*
X23610000Y-13980000I0J-100000D01*
G01*
X21540000Y-13980000D02*
X21540000Y-15128579D01*
X15450000Y-11729000D02*
X15350000Y-11829000D01*
X15450000Y-14630000D02*
X15350000Y-14530000D01*
X15350000Y-14530000D02*
X15350000Y-11829000D01*
X24650000Y-15058579D02*
G75*
G02*
X24620711Y-15129290I-100000J-1D01*
G01*
X21540000Y-13980000D02*
G75*
G02*
X21640000Y-13880000I100000J0D01*
G01*
X21540000Y-15128579D02*
G75*
G02*
X21510711Y-15199290I-100000J-1D01*
G01*
X15850000Y-1498000D02*
X24550000Y-1498000D01*
X15779289Y-15229289D02*
G75*
G02*
X15750001Y-15158579I70711J70709D01*
G01*
X23510000Y-13880000D02*
X21640000Y-13880000D01*
X21510711Y-15199289D02*
X21439289Y-15270711D01*
X24408579Y-15300000D02*
X23831421Y-15300000D01*
X15750000Y-11729000D02*
X15750000Y-9550000D01*
X23760711Y-15270711D02*
X23639289Y-15149289D01*
X15750000Y-9550000D02*
X15750000Y-1598000D01*
X23610000Y-15078579D02*
X23610000Y-13980000D01*
D11*
D12*
X15428000Y-11852000D02*
X15448000Y-11872000D01*
X15448000Y-11852000D02*
X15428000Y-11872000D01*
X15428000Y-12734000D02*
X15448000Y-12754000D01*
X15448000Y-12734000D02*
X15428000Y-12754000D01*
X15428000Y-13616000D02*
X15448000Y-13636000D01*
X15448000Y-13616000D02*
X15428000Y-13636000D01*
X15428000Y-14498000D02*
X15448000Y-14518000D01*
X15448000Y-14498000D02*
X15428000Y-14518000D01*
X15877000Y-4658000D02*
X15897000Y-4678000D01*
X15897000Y-4658000D02*
X15877000Y-4678000D01*
X16036000Y-1819000D02*
X16056000Y-1839000D01*
X16056000Y-1819000D02*
X16036000Y-1839000D01*
X16038000Y-2200000D02*
X16058000Y-2220000D01*
X16058000Y-2200000D02*
X16038000Y-2220000D01*
X16060000Y-15065000D02*
X16080000Y-15085000D01*
X16080000Y-15065000D02*
X16060000Y-15085000D01*
X16083000Y-11190000D02*
X16103000Y-11210000D01*
X16103000Y-11190000D02*
X16083000Y-11210000D01*
X16090000Y-11412000D02*
X16110000Y-11432000D01*
X16110000Y-11412000D02*
X16090000Y-11432000D01*
X16100000Y-14054000D02*
X16120000Y-14074000D01*
X16120000Y-14054000D02*
X16100000Y-14074000D01*
X16121000Y-8791000D02*
X16141000Y-8811000D01*
X16141000Y-8791000D02*
X16121000Y-8811000D01*
X16130000Y-9214000D02*
X16150000Y-9234000D01*
X16150000Y-9214000D02*
X16130000Y-9234000D01*
X16146000Y-11511000D02*
X16166000Y-11531000D01*
X16166000Y-11511000D02*
X16146000Y-11531000D01*
X16181000Y-13247000D02*
X16201000Y-13267000D01*
X16201000Y-13247000D02*
X16181000Y-13267000D01*
X16183000Y-3521000D02*
X16203000Y-3541000D01*
X16203000Y-3521000D02*
X16183000Y-3541000D01*
X16238000Y-9879000D02*
X16258000Y-9899000D01*
X16258000Y-9879000D02*
X16238000Y-9899000D01*
X16242000Y-10674000D02*
X16262000Y-10694000D01*
X16262000Y-10674000D02*
X16242000Y-10694000D01*
X16244000Y-10876000D02*
X16264000Y-10896000D01*
X16264000Y-10876000D02*
X16244000Y-10896000D01*
X16261000Y-2099000D02*
X16281000Y-2119000D01*
X16281000Y-2099000D02*
X16261000Y-2119000D01*
X16261000Y-2707000D02*
X16281000Y-2727000D01*
X16281000Y-2707000D02*
X16261000Y-2727000D01*
X16265000Y-1920000D02*
X16285000Y-1940000D01*
X16285000Y-1920000D02*
X16265000Y-1940000D01*
X16272588Y-12977412D02*
X16292588Y-12997412D01*
X16292588Y-12977412D02*
X16272588Y-12997412D01*
X16294000Y-7721000D02*
X16314000Y-7741000D01*
X16314000Y-7721000D02*
X16294000Y-7741000D01*
X16300500Y-11282500D02*
X16320500Y-11302500D01*
X16320500Y-11282500D02*
X16300500Y-11302500D01*
X16373000Y-10371000D02*
X16393000Y-10391000D01*
X16393000Y-10371000D02*
X16373000Y-10391000D01*
X16424000Y-8573000D02*
X16444000Y-8593000D01*
X16444000Y-8573000D02*
X16424000Y-8593000D01*
X16498000Y-9217000D02*
X16518000Y-9237000D01*
X16518000Y-9217000D02*
X16498000Y-9237000D01*
X16501000Y-6681000D02*
X16521000Y-6701000D01*
X16521000Y-6681000D02*
X16501000Y-6701000D01*
X16515000Y-7565000D02*
X16535000Y-7585000D01*
X16535000Y-7565000D02*
X16515000Y-7585000D01*
X16536000Y-11820000D02*
X16556000Y-11840000D01*
X16556000Y-11820000D02*
X16536000Y-11840000D01*
X16566000Y-10816000D02*
X16586000Y-10836000D01*
X16586000Y-10816000D02*
X16566000Y-10836000D01*
X16594000Y-6792000D02*
X16614000Y-6812000D01*
X16614000Y-6792000D02*
X16594000Y-6812000D01*
X16617000Y-14235000D02*
X16637000Y-14255000D01*
X16637000Y-14235000D02*
X16617000Y-14255000D01*
X16619000Y-3519000D02*
X16639000Y-3539000D01*
X16639000Y-3519000D02*
X16619000Y-3539000D01*
X16628000Y-9795000D02*
X16648000Y-9815000D01*
X16648000Y-9795000D02*
X16628000Y-9815000D01*
X16638000Y-10429000D02*
X16658000Y-10449000D01*
X16658000Y-10429000D02*
X16638000Y-10449000D01*
X16640000Y-12990000D02*
X16660000Y-13010000D01*
X16660000Y-12990000D02*
X16640000Y-13010000D01*
X16653000Y-11446000D02*
X16673000Y-11466000D01*
X16673000Y-11446000D02*
X16653000Y-11466000D01*
X16713000Y-5024978D02*
X16733000Y-5044978D01*
X16733000Y-5024978D02*
X16713000Y-5044978D01*
X16736000Y-6559000D02*
X16756000Y-6579000D01*
X16756000Y-6559000D02*
X16736000Y-6579000D01*
X16753000Y-8896000D02*
X16773000Y-8916000D01*
X16773000Y-8896000D02*
X16753000Y-8916000D01*
X16793000Y-14790000D02*
X16813000Y-14810000D01*
X16813000Y-14790000D02*
X16793000Y-14810000D01*
X16859000Y-11652000D02*
X16879000Y-11672000D01*
X16879000Y-11652000D02*
X16859000Y-11672000D01*
X16865000Y-6217000D02*
X16885000Y-6237000D01*
X16885000Y-6217000D02*
X16865000Y-6237000D01*
X16911790Y-7595320D02*
X16931790Y-7615320D01*
X16931790Y-7595320D02*
X16911790Y-7615320D01*
X17009000Y-4792000D02*
X17029000Y-4812000D01*
X17029000Y-4792000D02*
X17009000Y-4812000D01*
X17036000Y-7593000D02*
X17056000Y-7613000D01*
X17056000Y-7593000D02*
X17036000Y-7613000D01*
X17055000Y-10314000D02*
X17075000Y-10334000D01*
X17075000Y-10314000D02*
X17055000Y-10334000D01*
X17060000Y-11453000D02*
X17080000Y-11473000D01*
X17080000Y-11453000D02*
X17060000Y-11473000D01*
X17063474Y-4212000D02*
X17083474Y-4232000D01*
X17083474Y-4212000D02*
X17063474Y-4232000D01*
X17071000Y-6418000D02*
X17091000Y-6438000D01*
X17091000Y-6418000D02*
X17071000Y-6438000D01*
X17088000Y-9245000D02*
X17108000Y-9265000D01*
X17108000Y-9245000D02*
X17088000Y-9265000D01*
X17095000Y-14242000D02*
X17115000Y-14262000D01*
X17115000Y-14242000D02*
X17095000Y-14262000D01*
X17114000Y-12424000D02*
X17134000Y-12444000D01*
X17134000Y-12424000D02*
X17114000Y-12444000D01*
X17115000Y-12965000D02*
X17135000Y-12985000D01*
X17135000Y-12965000D02*
X17115000Y-12985000D01*
X17115000Y-13215000D02*
X17135000Y-13235000D01*
X17135000Y-13215000D02*
X17115000Y-13235000D01*
X17115573Y-8266063D02*
X17135573Y-8286063D01*
X17135573Y-8266063D02*
X17115573Y-8286063D01*
X17164000Y-4327000D02*
X17184000Y-4347000D01*
X17184000Y-4327000D02*
X17164000Y-4347000D01*
X17165000Y-10690000D02*
X17185000Y-10710000D01*
X17185000Y-10690000D02*
X17165000Y-10710000D01*
X17165474Y-3487000D02*
X17185474Y-3507000D01*
X17185474Y-3487000D02*
X17165474Y-3507000D01*
X17169000Y-4623000D02*
X17189000Y-4643000D01*
X17189000Y-4623000D02*
X17169000Y-4643000D01*
X17179000Y-4974000D02*
X17199000Y-4994000D01*
X17199000Y-4974000D02*
X17179000Y-4994000D01*
X17212500Y-11323500D02*
X17232500Y-11343500D01*
X17232500Y-11323500D02*
X17212500Y-11343500D01*
X17252000Y-9691000D02*
X17272000Y-9711000D01*
X17272000Y-9691000D02*
X17252000Y-9711000D01*
X17265000Y-9940000D02*
X17285000Y-9960000D01*
X17285000Y-9940000D02*
X17265000Y-9960000D01*
X17265474Y-4213500D02*
X17285474Y-4233500D01*
X17285474Y-4213500D02*
X17265474Y-4233500D01*
X17285500Y-10987500D02*
X17305500Y-11007500D01*
X17305500Y-10987500D02*
X17285500Y-11007500D01*
X17312974Y-3648000D02*
X17332974Y-3668000D01*
X17332974Y-3648000D02*
X17312974Y-3668000D01*
X17368000Y-6420000D02*
X17388000Y-6440000D01*
X17388000Y-6420000D02*
X17368000Y-6440000D01*
X17370000Y-10170000D02*
X17390000Y-10190000D01*
X17390000Y-10170000D02*
X17370000Y-10190000D01*
X17375000Y-7671000D02*
X17395000Y-7691000D01*
X17395000Y-7671000D02*
X17375000Y-7691000D01*
X17383210Y-6714820D02*
X17403210Y-6734820D01*
X17403210Y-6714820D02*
X17383210Y-6734820D01*
X17408000Y-4544000D02*
X17428000Y-4564000D01*
X17428000Y-4544000D02*
X17408000Y-4564000D01*
X17438000Y-13425000D02*
X17458000Y-13445000D01*
X17458000Y-13425000D02*
X17438000Y-13445000D01*
X17440000Y-7940000D02*
X17460000Y-7960000D01*
X17460000Y-7940000D02*
X17440000Y-7960000D01*
X17449000Y-5270000D02*
X17469000Y-5290000D01*
X17469000Y-5270000D02*
X17449000Y-5290000D01*
X17456000Y-3652000D02*
X17476000Y-3672000D01*
X17476000Y-3652000D02*
X17456000Y-3672000D01*
X17458330Y-6980860D02*
X17478330Y-7000860D01*
X17478330Y-6980860D02*
X17458330Y-7000860D01*
X17459000Y-3809000D02*
X17479000Y-3829000D01*
X17479000Y-3809000D02*
X17459000Y-3829000D01*
X17460000Y-6220000D02*
X17480000Y-6240000D01*
X17480000Y-6220000D02*
X17460000Y-6240000D01*
X17462000Y-6815000D02*
X17482000Y-6835000D01*
X17482000Y-6815000D02*
X17462000Y-6835000D01*
X17470000Y-4762500D02*
X17490000Y-4782500D01*
X17490000Y-4762500D02*
X17470000Y-4782500D01*
X17476000Y-9403000D02*
X17496000Y-9423000D01*
X17496000Y-9403000D02*
X17476000Y-9423000D01*
X17482000Y-2798000D02*
X17502000Y-2818000D01*
X17502000Y-2798000D02*
X17482000Y-2818000D01*
X17482000Y-4287000D02*
X17502000Y-4307000D01*
X17502000Y-4287000D02*
X17482000Y-4307000D01*
X17482000Y-8592000D02*
X17502000Y-8612000D01*
X17502000Y-8592000D02*
X17482000Y-8612000D01*
X17497500Y-5016500D02*
X17517500Y-5036500D01*
X17517500Y-5016500D02*
X17497500Y-5036500D01*
X17507000Y-11302000D02*
X17527000Y-11322000D01*
X17527000Y-11302000D02*
X17507000Y-11322000D01*
X17524000Y-12868500D02*
X17544000Y-12888500D01*
X17544000Y-12868500D02*
X17524000Y-12888500D01*
X17541840Y-7094110D02*
X17561840Y-7114110D01*
X17561840Y-7094110D02*
X17541840Y-7114110D01*
X17542253Y-7185360D02*
X17562253Y-7205360D01*
X17562253Y-7185360D02*
X17542253Y-7205360D01*
X17751000Y-4639525D02*
X17771000Y-4659525D01*
X17771000Y-4639525D02*
X17751000Y-4659525D01*
X17781000Y-4160000D02*
X17801000Y-4180000D01*
X17801000Y-4160000D02*
X17781000Y-4180000D01*
X17787000Y-4047000D02*
X17807000Y-4067000D01*
X17807000Y-4047000D02*
X17787000Y-4067000D01*
X17793000Y-5704000D02*
X17813000Y-5724000D01*
X17813000Y-5704000D02*
X17793000Y-5724000D01*
X17840000Y-13840000D02*
X17860000Y-13860000D01*
X17860000Y-13840000D02*
X17840000Y-13860000D01*
X17841000Y-4905000D02*
X17861000Y-4925000D01*
X17861000Y-4905000D02*
X17841000Y-4925000D01*
X17852000Y-14350000D02*
X17872000Y-14370000D01*
X17872000Y-14350000D02*
X17852000Y-14370000D01*
X17859000Y-7315000D02*
X17879000Y-7335000D01*
X17879000Y-7315000D02*
X17859000Y-7335000D01*
X17866000Y-9003000D02*
X17886000Y-9023000D01*
X17886000Y-9003000D02*
X17866000Y-9023000D01*
X17888000Y-9708000D02*
X17908000Y-9728000D01*
X17908000Y-9708000D02*
X17888000Y-9728000D01*
X17905000Y-4587000D02*
X17925000Y-4607000D01*
X17925000Y-4587000D02*
X17905000Y-4607000D01*
X17919000Y-3202000D02*
X17939000Y-3222000D01*
X17939000Y-3202000D02*
X17919000Y-3222000D01*
X17922500Y-6761145D02*
X17942500Y-6781145D01*
X17942500Y-6761145D02*
X17922500Y-6781145D01*
X17941000Y-3109000D02*
X17961000Y-3129000D01*
X17961000Y-3109000D02*
X17941000Y-3129000D01*
X17948000Y-11065000D02*
X17968000Y-11085000D01*
X17968000Y-11065000D02*
X17948000Y-11085000D01*
X17990000Y-3902000D02*
X18010000Y-3922000D01*
X18010000Y-3902000D02*
X17990000Y-3922000D01*
X18015000Y-15165000D02*
X18035000Y-15185000D01*
X18035000Y-15165000D02*
X18015000Y-15185000D01*
X18026000Y-9789000D02*
X18046000Y-9809000D01*
X18046000Y-9789000D02*
X18026000Y-9809000D01*
X18027000Y-9983000D02*
X18047000Y-10003000D01*
X18047000Y-9983000D02*
X18027000Y-10003000D01*
X18040000Y-7510000D02*
X18060000Y-7530000D01*
X18060000Y-7510000D02*
X18040000Y-7530000D01*
X18043595Y-7128595D02*
X18063595Y-7148595D01*
X18063595Y-7128595D02*
X18043595Y-7148595D01*
X18065000Y-8165000D02*
X18085000Y-8185000D01*
X18085000Y-8165000D02*
X18065000Y-8185000D01*
X18150000Y-5730000D02*
X18170000Y-5750000D01*
X18170000Y-5730000D02*
X18150000Y-5750000D01*
X18150000Y-5970000D02*
X18170000Y-5990000D01*
X18170000Y-5970000D02*
X18150000Y-5990000D01*
X18151088Y-7313912D02*
X18171088Y-7333912D01*
X18171088Y-7313912D02*
X18151088Y-7333912D01*
X18166250Y-3319000D02*
X18186250Y-3339000D01*
X18186250Y-3319000D02*
X18166250Y-3339000D01*
X18167000Y-14171000D02*
X18187000Y-14191000D01*
X18187000Y-14171000D02*
X18167000Y-14191000D01*
X18177000Y-14779000D02*
X18197000Y-14799000D01*
X18197000Y-14779000D02*
X18177000Y-14799000D01*
X18200000Y-7730000D02*
X18220000Y-7750000D01*
X18220000Y-7730000D02*
X18200000Y-7750000D01*
X18278880Y-4635559D02*
X18298880Y-4655559D01*
X18298880Y-4635559D02*
X18278880Y-4655559D01*
X18289000Y-14350500D02*
X18309000Y-14370500D01*
X18309000Y-14350500D02*
X18289000Y-14370500D01*
X18289500Y-14477500D02*
X18309500Y-14497500D01*
X18309500Y-14477500D02*
X18289500Y-14497500D01*
X18290000Y-3397000D02*
X18310000Y-3417000D01*
X18310000Y-3397000D02*
X18290000Y-3417000D01*
X18297000Y-3659000D02*
X18317000Y-3679000D01*
X18317000Y-3659000D02*
X18297000Y-3679000D01*
X18307000Y-4911000D02*
X18327000Y-4931000D01*
X18327000Y-4911000D02*
X18307000Y-4931000D01*
X18309000Y-5016500D02*
X18329000Y-5036500D01*
X18329000Y-5016500D02*
X18309000Y-5036500D01*
X18448000Y-12065000D02*
X18468000Y-12085000D01*
X18468000Y-12065000D02*
X18448000Y-12085000D01*
X18476000Y-5722000D02*
X18496000Y-5742000D01*
X18496000Y-5722000D02*
X18476000Y-5742000D01*
X18524000Y-12388000D02*
X18544000Y-12408000D01*
X18544000Y-12388000D02*
X18524000Y-12408000D01*
X18524000Y-12975000D02*
X18544000Y-12995000D01*
X18544000Y-12975000D02*
X18524000Y-12995000D01*
X18524000Y-13216000D02*
X18544000Y-13236000D01*
X18544000Y-13216000D02*
X18524000Y-13236000D01*
X18524000Y-13573000D02*
X18544000Y-13593000D01*
X18544000Y-13573000D02*
X18524000Y-13593000D01*
X18552500Y-4846500D02*
X18572500Y-4866500D01*
X18572500Y-4846500D02*
X18552500Y-4866500D01*
X18586000Y-10131000D02*
X18606000Y-10151000D01*
X18606000Y-10131000D02*
X18586000Y-10151000D01*
X18664000Y-14504000D02*
X18684000Y-14524000D01*
X18684000Y-14504000D02*
X18664000Y-14524000D01*
X18667000Y-6510000D02*
X18687000Y-6530000D01*
X18687000Y-6510000D02*
X18667000Y-6530000D01*
X18698000Y-5983000D02*
X18718000Y-6003000D01*
X18718000Y-5983000D02*
X18698000Y-6003000D01*
X18730000Y-7965000D02*
X18750000Y-7985000D01*
X18750000Y-7965000D02*
X18730000Y-7985000D01*
X18771000Y-8670000D02*
X18791000Y-8690000D01*
X18791000Y-8670000D02*
X18771000Y-8690000D01*
X18780000Y-2256000D02*
X18800000Y-2276000D01*
X18800000Y-2256000D02*
X18780000Y-2276000D01*
X18793000Y-14604500D02*
X18813000Y-14624500D01*
X18813000Y-14604500D02*
X18793000Y-14624500D01*
X18821000Y-14730000D02*
X18841000Y-14750000D01*
X18841000Y-14730000D02*
X18821000Y-14750000D01*
X18843000Y-7617000D02*
X18863000Y-7637000D01*
X18863000Y-7617000D02*
X18843000Y-7637000D01*
X18948000Y-11065000D02*
X18968000Y-11085000D01*
X18968000Y-11065000D02*
X18948000Y-11085000D01*
X18964000Y-6443000D02*
X18984000Y-6463000D01*
X18984000Y-6443000D02*
X18964000Y-6463000D01*
X19018000Y-8692000D02*
X19038000Y-8712000D01*
X19038000Y-8692000D02*
X19018000Y-8712000D01*
X19065000Y-2513000D02*
X19085000Y-2533000D01*
X19085000Y-2513000D02*
X19065000Y-2533000D01*
X19078000Y-5508000D02*
X19098000Y-5528000D01*
X19098000Y-5508000D02*
X19078000Y-5528000D01*
X19098000Y-13971000D02*
X19118000Y-13991000D01*
X19118000Y-13971000D02*
X19098000Y-13991000D01*
X19114000Y-1938000D02*
X19134000Y-1958000D01*
X19134000Y-1938000D02*
X19114000Y-1958000D01*
X19276000Y-13283000D02*
X19296000Y-13303000D01*
X19296000Y-13283000D02*
X19276000Y-13303000D01*
X19367000Y-2210000D02*
X19387000Y-2230000D01*
X19387000Y-2210000D02*
X19367000Y-2230000D01*
X19369000Y-12826000D02*
X19389000Y-12846000D01*
X19389000Y-12826000D02*
X19369000Y-12846000D01*
X19380000Y-12700000D02*
X19400000Y-12720000D01*
X19400000Y-12700000D02*
X19380000Y-12720000D01*
X19383355Y-13971000D02*
X19403355Y-13991000D01*
X19403355Y-13971000D02*
X19383355Y-13991000D01*
X19393000Y-1653000D02*
X19413000Y-1673000D01*
X19413000Y-1653000D02*
X19393000Y-1673000D01*
X19448000Y-12065000D02*
X19468000Y-12085000D01*
X19468000Y-12065000D02*
X19448000Y-12085000D01*
X19491000Y-13564000D02*
X19511000Y-13584000D01*
X19511000Y-13564000D02*
X19491000Y-13584000D01*
X19585000Y-6238000D02*
X19605000Y-6258000D01*
X19605000Y-6238000D02*
X19585000Y-6258000D01*
X19600000Y-10120000D02*
X19620000Y-10140000D01*
X19620000Y-10120000D02*
X19600000Y-10140000D01*
X19683000Y-1909000D02*
X19703000Y-1929000D01*
X19703000Y-1909000D02*
X19683000Y-1929000D01*
X19701000Y-4592000D02*
X19721000Y-4612000D01*
X19721000Y-4592000D02*
X19701000Y-4612000D01*
X19701000Y-4815000D02*
X19721000Y-4835000D01*
X19721000Y-4815000D02*
X19701000Y-4835000D01*
X19714000Y-7732000D02*
X19734000Y-7752000D01*
X19734000Y-7732000D02*
X19714000Y-7752000D01*
X19752000Y-5145000D02*
X19772000Y-5165000D01*
X19772000Y-5145000D02*
X19752000Y-5165000D01*
X19754000Y-5589000D02*
X19774000Y-5609000D01*
X19774000Y-5589000D02*
X19754000Y-5609000D01*
X19765000Y-14311000D02*
X19785000Y-14331000D01*
X19785000Y-14311000D02*
X19765000Y-14331000D01*
X19765000Y-14426500D02*
X19785000Y-14446500D01*
X19785000Y-14426500D02*
X19765000Y-14446500D01*
X19765000Y-14542000D02*
X19785000Y-14562000D01*
X19785000Y-14542000D02*
X19765000Y-14562000D01*
X19765000Y-15165000D02*
X19785000Y-15185000D01*
X19785000Y-15165000D02*
X19765000Y-15185000D01*
X19840030Y-8310132D02*
X19860030Y-8330132D01*
X19860030Y-8310132D02*
X19840030Y-8330132D01*
X19859000Y-13038000D02*
X19879000Y-13058000D01*
X19879000Y-13038000D02*
X19859000Y-13058000D01*
X19879000Y-13358000D02*
X19899000Y-13378000D01*
X19899000Y-13358000D02*
X19879000Y-13378000D01*
X19892000Y-12825000D02*
X19912000Y-12845000D01*
X19912000Y-12825000D02*
X19892000Y-12845000D01*
X19893000Y-12572000D02*
X19913000Y-12592000D01*
X19913000Y-12572000D02*
X19893000Y-12592000D01*
X19900976Y-12317302D02*
X19920976Y-12337302D01*
X19920976Y-12317302D02*
X19900976Y-12337302D01*
X19909000Y-13843000D02*
X19929000Y-13863000D01*
X19929000Y-13843000D02*
X19909000Y-13863000D01*
X19948000Y-11065000D02*
X19968000Y-11085000D01*
X19968000Y-11065000D02*
X19948000Y-11085000D01*
X20154000Y-13843000D02*
X20174000Y-13863000D01*
X20174000Y-13843000D02*
X20154000Y-13863000D01*
X20164082Y-12318000D02*
X20184082Y-12338000D01*
X20184082Y-12318000D02*
X20164082Y-12338000D01*
X20229000Y-14046000D02*
X20249000Y-14066000D01*
X20249000Y-14046000D02*
X20229000Y-14066000D01*
X20235000Y-14759000D02*
X20255000Y-14779000D01*
X20255000Y-14759000D02*
X20235000Y-14779000D01*
X20270000Y-12469000D02*
X20290000Y-12489000D01*
X20290000Y-12469000D02*
X20270000Y-12489000D01*
X20279588Y-6243412D02*
X20299588Y-6263412D01*
X20299588Y-6243412D02*
X20279588Y-6263412D01*
X20364000Y-6786000D02*
X20384000Y-6806000D01*
X20384000Y-6786000D02*
X20364000Y-6806000D01*
X20372000Y-6551000D02*
X20392000Y-6571000D01*
X20392000Y-6551000D02*
X20372000Y-6571000D01*
X20380000Y-5235000D02*
X20400000Y-5255000D01*
X20400000Y-5235000D02*
X20380000Y-5255000D01*
X20381000Y-5052000D02*
X20401000Y-5072000D01*
X20401000Y-5052000D02*
X20381000Y-5072000D01*
X20390000Y-7570000D02*
X20410000Y-7590000D01*
X20410000Y-7570000D02*
X20390000Y-7590000D01*
X20440000Y-8340000D02*
X20460000Y-8360000D01*
X20460000Y-8340000D02*
X20440000Y-8360000D01*
X20448000Y-12065000D02*
X20468000Y-12085000D01*
X20468000Y-12065000D02*
X20448000Y-12085000D01*
X20530000Y-8611885D02*
X20550000Y-8631885D01*
X20550000Y-8611885D02*
X20530000Y-8631885D01*
X20609275Y-12699889D02*
X20629275Y-12719889D01*
X20629275Y-12699889D02*
X20609275Y-12719889D01*
X20647522Y-8419000D02*
X20667522Y-8439000D01*
X20667522Y-8419000D02*
X20647522Y-8439000D01*
X20657000Y-10091000D02*
X20677000Y-10111000D01*
X20677000Y-10091000D02*
X20657000Y-10111000D01*
X20669000Y-9301000D02*
X20689000Y-9321000D01*
X20689000Y-9301000D02*
X20669000Y-9321000D01*
X20671000Y-9150000D02*
X20691000Y-9170000D01*
X20691000Y-9150000D02*
X20671000Y-9170000D01*
X20720500Y-7190500D02*
X20740500Y-7210500D01*
X20740500Y-7190500D02*
X20720500Y-7210500D01*
X20736000Y-7584000D02*
X20756000Y-7604000D01*
X20756000Y-7584000D02*
X20736000Y-7604000D01*
X20745000Y-6895000D02*
X20765000Y-6915000D01*
X20765000Y-6895000D02*
X20745000Y-6915000D01*
X20838000Y-9640000D02*
X20858000Y-9660000D01*
X20858000Y-9640000D02*
X20838000Y-9660000D01*
X20948000Y-11065000D02*
X20968000Y-11085000D01*
X20968000Y-11065000D02*
X20948000Y-11085000D01*
X20948000Y-13065000D02*
X20968000Y-13085000D01*
X20968000Y-13065000D02*
X20948000Y-13085000D01*
X20986000Y-13342000D02*
X21006000Y-13362000D01*
X21006000Y-13342000D02*
X20986000Y-13362000D01*
X21020000Y-8660000D02*
X21040000Y-8680000D01*
X21040000Y-8660000D02*
X21020000Y-8680000D01*
X21027000Y-7754500D02*
X21047000Y-7774500D01*
X21047000Y-7754500D02*
X21027000Y-7774500D01*
X21039000Y-14695000D02*
X21059000Y-14715000D01*
X21059000Y-14695000D02*
X21039000Y-14715000D01*
X21135000Y-9614000D02*
X21155000Y-9634000D01*
X21155000Y-9614000D02*
X21135000Y-9634000D01*
X21140000Y-6700000D02*
X21160000Y-6720000D01*
X21160000Y-6700000D02*
X21140000Y-6720000D01*
X21141000Y-10300000D02*
X21161000Y-10320000D01*
X21161000Y-10300000D02*
X21141000Y-10320000D01*
X21161000Y-7434000D02*
X21181000Y-7454000D01*
X21181000Y-7434000D02*
X21161000Y-7454000D01*
X21250000Y-7270000D02*
X21270000Y-7290000D01*
X21270000Y-7270000D02*
X21250000Y-7290000D01*
X21283605Y-7444605D02*
X21303605Y-7464605D01*
X21303605Y-7444605D02*
X21283605Y-7464605D01*
X21300000Y-7160000D02*
X21320000Y-7180000D01*
X21320000Y-7160000D02*
X21300000Y-7180000D01*
X21310000Y-7060000D02*
X21330000Y-7080000D01*
X21330000Y-7060000D02*
X21310000Y-7080000D01*
X21390000Y-15145000D02*
X21410000Y-15165000D01*
X21410000Y-15145000D02*
X21390000Y-15165000D01*
X21405000Y-14705000D02*
X21425000Y-14725000D01*
X21425000Y-14705000D02*
X21405000Y-14725000D01*
X21421000Y-9957000D02*
X21441000Y-9977000D01*
X21441000Y-9957000D02*
X21421000Y-9977000D01*
X21448000Y-12065000D02*
X21468000Y-12085000D01*
X21468000Y-12065000D02*
X21448000Y-12085000D01*
X21448000Y-14065000D02*
X21468000Y-14085000D01*
X21468000Y-14065000D02*
X21448000Y-14085000D01*
X21470500Y-6233500D02*
X21490500Y-6253500D01*
X21490500Y-6233500D02*
X21470500Y-6253500D01*
X21562000Y-8279000D02*
X21582000Y-8299000D01*
X21582000Y-8279000D02*
X21562000Y-8299000D01*
X21570000Y-8650000D02*
X21590000Y-8670000D01*
X21590000Y-8650000D02*
X21570000Y-8670000D01*
X21571000Y-12464000D02*
X21591000Y-12484000D01*
X21591000Y-12464000D02*
X21571000Y-12484000D01*
X21630000Y-6940000D02*
X21650000Y-6960000D01*
X21650000Y-6940000D02*
X21630000Y-6960000D01*
X21640000Y-6700000D02*
X21660000Y-6720000D01*
X21660000Y-6700000D02*
X21640000Y-6720000D01*
X21659325Y-6557500D02*
X21679325Y-6577500D01*
X21679325Y-6557500D02*
X21659325Y-6577500D01*
X21751000Y-9704000D02*
X21771000Y-9724000D01*
X21771000Y-9704000D02*
X21751000Y-9724000D01*
X21800000Y-7060000D02*
X21820000Y-7080000D01*
X21820000Y-7060000D02*
X21800000Y-7080000D01*
X21800000Y-7330000D02*
X21820000Y-7350000D01*
X21820000Y-7330000D02*
X21800000Y-7350000D01*
X21948000Y-13065000D02*
X21968000Y-13085000D01*
X21968000Y-13065000D02*
X21948000Y-13085000D01*
X21972000Y-10281690D02*
X21992000Y-10301690D01*
X21992000Y-10281690D02*
X21972000Y-10301690D01*
X21974000Y-11823351D02*
X21994000Y-11843351D01*
X21994000Y-11823351D02*
X21974000Y-11843351D01*
X21974000Y-12208351D02*
X21994000Y-12228351D01*
X21994000Y-12208351D02*
X21974000Y-12228351D01*
X21979000Y-2911750D02*
X21999000Y-2931750D01*
X21999000Y-2911750D02*
X21979000Y-2931750D01*
X21980000Y-12450000D02*
X22000000Y-12470000D01*
X22000000Y-12450000D02*
X21980000Y-12470000D01*
X21980597Y-2496750D02*
X22000597Y-2516750D01*
X22000597Y-2496750D02*
X21980597Y-2516750D01*
X21981000Y-5631067D02*
X22001000Y-5651067D01*
X22001000Y-5631067D02*
X21981000Y-5651067D01*
X21982000Y-1661750D02*
X22002000Y-1681750D01*
X22002000Y-1661750D02*
X21982000Y-1681750D01*
X21982000Y-5130067D02*
X22002000Y-5150067D01*
X22002000Y-5130067D02*
X21982000Y-5150067D01*
X21982093Y-2031750D02*
X22002093Y-2051750D01*
X22002093Y-2031750D02*
X21982093Y-2051750D01*
X21982100Y-4770000D02*
X22002100Y-4790000D01*
X22002100Y-4770000D02*
X21982100Y-4790000D01*
X21982772Y-8227325D02*
X22002772Y-8247325D01*
X22002772Y-8227325D02*
X21982772Y-8247325D01*
X21982982Y-7577018D02*
X22002982Y-7597018D01*
X22002982Y-7577018D02*
X21982982Y-7597018D01*
X21983657Y-8717429D02*
X22003657Y-8737429D01*
X22003657Y-8717429D02*
X21983657Y-8737429D01*
X21984114Y-6737000D02*
X22004114Y-6757000D01*
X22004114Y-6737000D02*
X21984114Y-6757000D01*
X21985000Y-9821000D02*
X22005000Y-9841000D01*
X22005000Y-9821000D02*
X21985000Y-9841000D01*
X21985000Y-12880000D02*
X22005000Y-12900000D01*
X22005000Y-12880000D02*
X21985000Y-12900000D01*
X21985589Y-11322015D02*
X22005589Y-11342015D01*
X22005589Y-11322015D02*
X21985589Y-11342015D01*
X21986000Y-7210000D02*
X22006000Y-7230000D01*
X22006000Y-7210000D02*
X21986000Y-7230000D01*
X21987000Y-4470000D02*
X22007000Y-4490000D01*
X22007000Y-4470000D02*
X21987000Y-4490000D01*
X21988597Y-4055000D02*
X22008597Y-4075000D01*
X22008597Y-4055000D02*
X21988597Y-4075000D01*
X21990000Y-3220000D02*
X22010000Y-3240000D01*
X22010000Y-3220000D02*
X21990000Y-3240000D01*
X21990000Y-13370000D02*
X22010000Y-13390000D01*
X22010000Y-13370000D02*
X21990000Y-13390000D01*
X21990093Y-3590000D02*
X22010093Y-3610000D01*
X22010093Y-3590000D02*
X21990093Y-3610000D01*
X22046000Y-6046000D02*
X22066000Y-6066000D01*
X22066000Y-6046000D02*
X22046000Y-6066000D01*
X22110000Y-8490000D02*
X22130000Y-8510000D01*
X22130000Y-8490000D02*
X22110000Y-8510000D01*
X22214000Y-6227500D02*
X22234000Y-6247500D01*
X22234000Y-6227500D02*
X22214000Y-6247500D01*
X22300000Y-7837500D02*
X22320000Y-7857500D01*
X22320000Y-7837500D02*
X22300000Y-7857500D01*
X22318838Y-7731162D02*
X22338838Y-7751162D01*
X22338838Y-7731162D02*
X22318838Y-7751162D01*
X22425000Y-7632723D02*
X22445000Y-7652723D01*
X22445000Y-7632723D02*
X22425000Y-7652723D01*
X22426912Y-7784088D02*
X22446912Y-7804088D01*
X22446912Y-7784088D02*
X22426912Y-7804088D01*
X22555000Y-6257500D02*
X22575000Y-6277500D01*
X22575000Y-6257500D02*
X22555000Y-6277500D01*
X22611000Y-12206351D02*
X22631000Y-12226351D01*
X22631000Y-12206351D02*
X22611000Y-12226351D01*
X22612000Y-2496750D02*
X22632000Y-2516750D01*
X22632000Y-2496750D02*
X22612000Y-2516750D01*
X22612000Y-2912750D02*
X22632000Y-2932750D01*
X22632000Y-2912750D02*
X22612000Y-2932750D01*
X22612000Y-11823351D02*
X22632000Y-11843351D01*
X22632000Y-11823351D02*
X22612000Y-11843351D01*
X22612000Y-13375999D02*
X22632000Y-13395999D01*
X22632000Y-13375999D02*
X22612000Y-13395999D01*
X22614800Y-1671750D02*
X22634800Y-1691750D01*
X22634800Y-1671750D02*
X22614800Y-1691750D01*
X22615000Y-2023750D02*
X22635000Y-2043750D01*
X22635000Y-2023750D02*
X22615000Y-2043750D01*
X22615000Y-11380000D02*
X22635000Y-11400000D01*
X22635000Y-11380000D02*
X22615000Y-11400000D01*
X22617460Y-12870847D02*
X22637460Y-12890847D01*
X22637460Y-12870847D02*
X22617460Y-12890847D01*
X22618000Y-5127067D02*
X22638000Y-5147067D01*
X22638000Y-5127067D02*
X22618000Y-5147067D01*
X22618000Y-5630067D02*
X22638000Y-5650067D01*
X22638000Y-5630067D02*
X22618000Y-5650067D01*
X22618000Y-6015067D02*
X22638000Y-6035067D01*
X22638000Y-6015067D02*
X22618000Y-6035067D01*
X22618600Y-4764917D02*
X22638600Y-4784917D01*
X22638600Y-4764917D02*
X22618600Y-4784917D01*
X22618728Y-9779172D02*
X22638728Y-9799172D01*
X22638728Y-9779172D02*
X22618728Y-9799172D01*
X22619066Y-12455000D02*
X22639066Y-12475000D01*
X22639066Y-12455000D02*
X22619066Y-12475000D01*
X22619763Y-8216078D02*
X22639763Y-8236078D01*
X22639763Y-8216078D02*
X22619763Y-8236078D01*
X22620000Y-4055000D02*
X22640000Y-4075000D01*
X22640000Y-4055000D02*
X22620000Y-4075000D01*
X22620000Y-4471000D02*
X22640000Y-4491000D01*
X22640000Y-4471000D02*
X22620000Y-4491000D01*
X22620000Y-7206365D02*
X22640000Y-7226365D01*
X22640000Y-7206365D02*
X22620000Y-7226365D01*
X22620000Y-10291690D02*
X22640000Y-10311690D01*
X22640000Y-10291690D02*
X22620000Y-10311690D01*
X22620005Y-7586961D02*
X22640005Y-7606961D01*
X22640005Y-7586961D02*
X22620005Y-7606961D01*
X22621705Y-6703411D02*
X22641705Y-6723411D01*
X22641705Y-6703411D02*
X22621705Y-6723411D01*
X22622800Y-3230000D02*
X22642800Y-3250000D01*
X22642800Y-3230000D02*
X22622800Y-3250000D01*
X22623000Y-3582000D02*
X22643000Y-3602000D01*
X22643000Y-3582000D02*
X22623000Y-3602000D01*
X22678322Y-7640000D02*
X22698322Y-7660000D01*
X22698322Y-7640000D02*
X22678322Y-7660000D01*
X22683000Y-9147000D02*
X22703000Y-9167000D01*
X22703000Y-9147000D02*
X22683000Y-9167000D01*
X22745500Y-7628000D02*
X22765500Y-7648000D01*
X22765500Y-7628000D02*
X22745500Y-7648000D01*
X22797102Y-6228723D02*
X22817102Y-6248723D01*
X22817102Y-6228723D02*
X22797102Y-6248723D01*
X22812000Y-9108000D02*
X22832000Y-9128000D01*
X22832000Y-9108000D02*
X22812000Y-9128000D01*
X22869537Y-8280463D02*
X22889537Y-8300463D01*
X22889537Y-8280463D02*
X22869537Y-8300463D01*
X22872764Y-7767500D02*
X22892764Y-7787500D01*
X22892764Y-7767500D02*
X22872764Y-7787500D01*
X22888618Y-6271443D02*
X22908618Y-6291443D01*
X22908618Y-6271443D02*
X22888618Y-6291443D01*
X22930000Y-6790000D02*
X22950000Y-6810000D01*
X22950000Y-6790000D02*
X22930000Y-6810000D01*
X22936118Y-6111412D02*
X22956118Y-6131412D01*
X22956118Y-6111412D02*
X22936118Y-6131412D01*
X22999500Y-6248000D02*
X23019500Y-6268000D01*
X23019500Y-6248000D02*
X22999500Y-6268000D01*
X23055000Y-6109000D02*
X23075000Y-6129000D01*
X23075000Y-6109000D02*
X23055000Y-6129000D01*
X23124000Y-6043000D02*
X23144000Y-6063000D01*
X23144000Y-6043000D02*
X23124000Y-6063000D01*
X23180000Y-6253000D02*
X23200000Y-6273000D01*
X23200000Y-6253000D02*
X23180000Y-6273000D01*
X23275000Y-10745351D02*
X23295000Y-10765351D01*
X23295000Y-10745351D02*
X23275000Y-10765351D01*
X23290000Y-13235000D02*
X23310000Y-13255000D01*
X23310000Y-13235000D02*
X23290000Y-13255000D01*
X23307000Y-7677000D02*
X23327000Y-7697000D01*
X23327000Y-7677000D02*
X23307000Y-7697000D01*
X23313000Y-6040000D02*
X23333000Y-6060000D01*
X23333000Y-6040000D02*
X23313000Y-6060000D01*
X23316000Y-4748000D02*
X23336000Y-4768000D01*
X23336000Y-4748000D02*
X23316000Y-4768000D01*
X23317000Y-4479000D02*
X23337000Y-4499000D01*
X23337000Y-4479000D02*
X23317000Y-4499000D01*
X23326000Y-9807000D02*
X23346000Y-9827000D01*
X23346000Y-9807000D02*
X23326000Y-9827000D01*
X23327000Y-9306000D02*
X23347000Y-9326000D01*
X23347000Y-9306000D02*
X23327000Y-9326000D01*
X23367000Y-9194500D02*
X23387000Y-9214500D01*
X23387000Y-9194500D02*
X23367000Y-9214500D01*
X23379000Y-10735000D02*
X23399000Y-10755000D01*
X23399000Y-10735000D02*
X23379000Y-10755000D01*
X23381088Y-4669912D02*
X23401088Y-4689912D01*
X23401088Y-4669912D02*
X23381088Y-4689912D01*
X23434000Y-12308000D02*
X23454000Y-12328000D01*
X23454000Y-12308000D02*
X23434000Y-12328000D01*
X23439000Y-4478000D02*
X23459000Y-4498000D01*
X23459000Y-4478000D02*
X23439000Y-4498000D01*
X23439000Y-12474000D02*
X23459000Y-12494000D01*
X23459000Y-12474000D02*
X23439000Y-12494000D01*
X23440000Y-4591000D02*
X23460000Y-4611000D01*
X23460000Y-4591000D02*
X23440000Y-4611000D01*
X23441000Y-11324000D02*
X23461000Y-11344000D01*
X23461000Y-11324000D02*
X23441000Y-11344000D01*
X23444800Y-6255000D02*
X23464800Y-6275000D01*
X23464800Y-6255000D02*
X23444800Y-6275000D01*
X23490000Y-7750000D02*
X23510000Y-7770000D01*
X23510000Y-7750000D02*
X23490000Y-7770000D01*
X23510000Y-12390000D02*
X23530000Y-12410000D01*
X23530000Y-12390000D02*
X23510000Y-12410000D01*
X23570000Y-10681412D02*
X23590000Y-10701412D01*
X23590000Y-10681412D02*
X23570000Y-10701412D01*
X23570000Y-10949000D02*
X23590000Y-10969000D01*
X23590000Y-10949000D02*
X23570000Y-10969000D01*
X23571000Y-5276000D02*
X23591000Y-5296000D01*
X23591000Y-5276000D02*
X23571000Y-5296000D01*
X23630000Y-11325000D02*
X23650000Y-11345000D01*
X23650000Y-11325000D02*
X23630000Y-11345000D01*
X23631000Y-1638750D02*
X23651000Y-1658750D01*
X23651000Y-1638750D02*
X23631000Y-1658750D01*
X23631000Y-12882000D02*
X23651000Y-12902000D01*
X23651000Y-12882000D02*
X23631000Y-12902000D01*
X23632000Y-2022750D02*
X23652000Y-2042750D01*
X23652000Y-2022750D02*
X23632000Y-2042750D01*
X23632000Y-5124067D02*
X23652000Y-5144067D01*
X23652000Y-5124067D02*
X23632000Y-5144067D01*
X23634000Y-12461000D02*
X23654000Y-12481000D01*
X23654000Y-12461000D02*
X23634000Y-12481000D01*
X23635000Y-6315000D02*
X23655000Y-6335000D01*
X23655000Y-6315000D02*
X23635000Y-6335000D01*
X23635000Y-9385000D02*
X23655000Y-9405000D01*
X23655000Y-9385000D02*
X23635000Y-9405000D01*
X23635318Y-6699666D02*
X23655318Y-6719666D01*
X23655318Y-6699666D02*
X23635318Y-6719666D01*
X23635999Y-7824001D02*
X23655999Y-7844001D01*
X23655999Y-7824001D02*
X23635999Y-7844001D01*
X23637000Y-8213338D02*
X23657000Y-8233338D01*
X23657000Y-8213338D02*
X23637000Y-8233338D01*
X23639000Y-3197000D02*
X23659000Y-3217000D01*
X23659000Y-3197000D02*
X23639000Y-3217000D01*
X23640000Y-3581000D02*
X23660000Y-3601000D01*
X23660000Y-3581000D02*
X23640000Y-3601000D01*
X23690000Y-13920000D02*
X23710000Y-13940000D01*
X23710000Y-13920000D02*
X23690000Y-13940000D01*
X23735000Y-14495000D02*
X23755000Y-14515000D01*
X23755000Y-14495000D02*
X23735000Y-14515000D01*
X23740000Y-15000000D02*
X23760000Y-15020000D01*
X23760000Y-15000000D02*
X23740000Y-15020000D01*
X23758000Y-13246000D02*
X23778000Y-13266000D01*
X23778000Y-13246000D02*
X23758000Y-13266000D01*
X23761000Y-9201000D02*
X23781000Y-9221000D01*
X23781000Y-9201000D02*
X23761000Y-9221000D01*
X23761500Y-9847500D02*
X23781500Y-9867500D01*
X23781500Y-9847500D02*
X23761500Y-9867500D01*
X23822824Y-12440000D02*
X23842824Y-12460000D01*
X23842824Y-12440000D02*
X23822824Y-12460000D01*
X23844463Y-10877463D02*
X23864463Y-10897463D01*
X23864463Y-10877463D02*
X23844463Y-10897463D01*
X23888500Y-9800000D02*
X23908500Y-9820000D01*
X23908500Y-9800000D02*
X23888500Y-9820000D01*
X23888500Y-12300000D02*
X23908500Y-12320000D01*
X23908500Y-12300000D02*
X23888500Y-12320000D01*
X23890000Y-9140000D02*
X23910000Y-9160000D01*
X23910000Y-9140000D02*
X23890000Y-9160000D01*
X23890000Y-11380000D02*
X23910000Y-11400000D01*
X23910000Y-11380000D02*
X23890000Y-11400000D01*
X23948000Y-15065000D02*
X23968000Y-15085000D01*
X23968000Y-15065000D02*
X23948000Y-15085000D01*
X23950961Y-9898000D02*
X23970961Y-9918000D01*
X23970961Y-9898000D02*
X23950961Y-9918000D01*
X23954919Y-9183000D02*
X23974919Y-9203000D01*
X23974919Y-9183000D02*
X23954919Y-9203000D01*
X24010000Y-9287000D02*
X24030000Y-9307000D01*
X24030000Y-9287000D02*
X24010000Y-9307000D01*
X24079000Y-10813912D02*
X24099000Y-10833912D01*
X24099000Y-10813912D02*
X24079000Y-10833912D01*
X24095000Y-8680000D02*
X24115000Y-8700000D01*
X24115000Y-8680000D02*
X24095000Y-8700000D01*
X24140000Y-10705000D02*
X24160000Y-10725000D01*
X24160000Y-10705000D02*
X24140000Y-10725000D01*
X24140000Y-14175000D02*
X24160000Y-14195000D01*
X24160000Y-14175000D02*
X24140000Y-14195000D01*
X24143000Y-9761000D02*
X24163000Y-9781000D01*
X24163000Y-9761000D02*
X24143000Y-9781000D01*
X24204585Y-8680000D02*
X24224585Y-8700000D01*
X24224585Y-8680000D02*
X24204585Y-8700000D01*
X24265000Y-8270000D02*
X24285000Y-8290000D01*
X24285000Y-8270000D02*
X24265000Y-8290000D01*
X24269500Y-9760000D02*
X24289500Y-9780000D01*
X24289500Y-9760000D02*
X24269500Y-9780000D01*
X24269500Y-10760000D02*
X24289500Y-10780000D01*
X24289500Y-10760000D02*
X24269500Y-10780000D01*
X24270000Y-7620000D02*
X24290000Y-7640000D01*
X24290000Y-7620000D02*
X24270000Y-7640000D01*
X24390000Y-12444000D02*
X24410000Y-12464000D01*
X24410000Y-12444000D02*
X24390000Y-12464000D01*
X24390000Y-12927000D02*
X24410000Y-12947000D01*
X24410000Y-12927000D02*
X24390000Y-12947000D01*
X24392000Y-1671750D02*
X24412000Y-1691750D01*
X24412000Y-1671750D02*
X24392000Y-1691750D01*
X24392000Y-2526750D02*
X24412000Y-2546750D01*
X24412000Y-2526750D02*
X24392000Y-2546750D01*
X24392000Y-2907750D02*
X24412000Y-2927750D01*
X24412000Y-2907750D02*
X24392000Y-2927750D01*
X24393000Y-2032750D02*
X24413000Y-2052750D01*
X24413000Y-2032750D02*
X24393000Y-2052750D01*
X24394000Y-5125067D02*
X24414000Y-5145067D01*
X24414000Y-5125067D02*
X24394000Y-5145067D01*
X24394781Y-7818727D02*
X24414781Y-7838727D01*
X24414781Y-7818727D02*
X24394781Y-7838727D01*
X24395000Y-6015067D02*
X24415000Y-6035067D01*
X24415000Y-6015067D02*
X24395000Y-6035067D01*
X24395000Y-6705000D02*
X24415000Y-6725000D01*
X24415000Y-6705000D02*
X24395000Y-6725000D01*
X24395075Y-12209812D02*
X24415075Y-12229812D01*
X24415075Y-12209812D02*
X24395075Y-12229812D01*
X24396000Y-5631067D02*
X24416000Y-5651067D01*
X24416000Y-5631067D02*
X24396000Y-5651067D01*
X24396500Y-13750477D02*
X24416500Y-13770477D01*
X24416500Y-13750477D02*
X24396500Y-13770477D01*
X24396587Y-4730000D02*
X24416587Y-4750000D01*
X24416587Y-4730000D02*
X24396587Y-4750000D01*
X24396910Y-10655608D02*
X24416910Y-10675608D01*
X24416910Y-10655608D02*
X24396910Y-10675608D01*
X24397000Y-8240338D02*
X24417000Y-8260338D01*
X24417000Y-8240338D02*
X24397000Y-8260338D01*
X24397000Y-8711339D02*
X24417000Y-8731339D01*
X24417000Y-8711339D02*
X24397000Y-8731339D01*
X24397169Y-13386602D02*
X24417169Y-13406602D01*
X24417169Y-13386602D02*
X24397169Y-13406602D01*
X24397416Y-6313349D02*
X24417416Y-6333349D01*
X24417416Y-6313349D02*
X24397416Y-6333349D01*
X24397834Y-10293562D02*
X24417834Y-10313562D01*
X24417834Y-10293562D02*
X24397834Y-10313562D01*
X24399097Y-7593682D02*
X24419097Y-7613682D01*
X24419097Y-7593682D02*
X24399097Y-7613682D01*
X24400000Y-4085000D02*
X24420000Y-4105000D01*
X24420000Y-4085000D02*
X24400000Y-4105000D01*
X24400000Y-4466000D02*
X24420000Y-4486000D01*
X24420000Y-4466000D02*
X24400000Y-4486000D01*
X24400000Y-7210000D02*
X24420000Y-7230000D01*
X24420000Y-7210000D02*
X24400000Y-7230000D01*
X24400000Y-11820351D02*
X24420000Y-11840351D01*
X24420000Y-11820351D02*
X24400000Y-11840351D01*
X24401000Y-3591000D02*
X24421000Y-3611000D01*
X24421000Y-3591000D02*
X24401000Y-3611000D01*
X24480000Y-15005000D02*
X24500000Y-15025000D01*
X24500000Y-15005000D02*
X24480000Y-15025000D01*
X24525000Y-14505000D02*
X24545000Y-14525000D01*
X24545000Y-14505000D02*
X24525000Y-14525000D01*
X24545000Y-13915000D02*
X24565000Y-13935000D01*
X24565000Y-13915000D02*
X24545000Y-13935000D01*
X22643790Y-8716199D02*
G75*
G02*
X22613790Y-8716199I-15000J0D01*
G01*
X22613790Y-8716199D02*
G75*
G02*
X22643790Y-8716199I15000J0D01*
G01*
X16402500Y-12109500D02*
X16402500Y-12209500D01*
X16352500Y-12159500D02*
X16452500Y-12159500D01*
X16402500Y-12363500D02*
X16402500Y-12463500D01*
X16352500Y-12413500D02*
X16452500Y-12413500D01*
X16402500Y-12617500D02*
X16402500Y-12717500D01*
X16352500Y-12667500D02*
X16452500Y-12667500D01*
X16402500Y-12871500D02*
X16402500Y-12971500D01*
X16352500Y-12921500D02*
X16452500Y-12921500D01*
X16402500Y-13125500D02*
X16402500Y-13225500D01*
X16352500Y-13175500D02*
X16452500Y-13175500D01*
X16402500Y-13379500D02*
X16402500Y-13479500D01*
X16352500Y-13429500D02*
X16452500Y-13429500D01*
X16402500Y-13633500D02*
X16402500Y-13733500D01*
X16352500Y-13683500D02*
X16452500Y-13683500D01*
X16402500Y-13887500D02*
X16402500Y-13987500D01*
X16352500Y-13937500D02*
X16452500Y-13937500D01*
X16402500Y-14141500D02*
X16402500Y-14241500D01*
X16352500Y-14191500D02*
X16452500Y-14191500D01*
X16866000Y-9630000D02*
X16866000Y-9730000D01*
X16816000Y-9680000D02*
X16916000Y-9680000D01*
X16866000Y-9884000D02*
X16866000Y-9984000D01*
X16816000Y-9934000D02*
X16916000Y-9934000D01*
X16866000Y-10138000D02*
X16866000Y-10238000D01*
X16816000Y-10188000D02*
X16916000Y-10188000D01*
X16866000Y-10392000D02*
X16866000Y-10492000D01*
X16816000Y-10442000D02*
X16916000Y-10442000D01*
X16866000Y-10646000D02*
X16866000Y-10746000D01*
X16816000Y-10696000D02*
X16916000Y-10696000D01*
X16866000Y-10900000D02*
X16866000Y-11000000D01*
X16816000Y-10950000D02*
X16916000Y-10950000D01*
X16866000Y-11154000D02*
X16866000Y-11254000D01*
X16816000Y-11204000D02*
X16916000Y-11204000D01*
X16866000Y-11408000D02*
X16866000Y-11508000D01*
X16816000Y-11458000D02*
X16916000Y-11458000D01*
X16866000Y-12416000D02*
X16866000Y-12516000D01*
X16816000Y-12466000D02*
X16916000Y-12466000D01*
X16866000Y-12670000D02*
X16866000Y-12770000D01*
X16816000Y-12720000D02*
X16916000Y-12720000D01*
X16866000Y-12924000D02*
X16866000Y-13024000D01*
X16816000Y-12974000D02*
X16916000Y-12974000D01*
X16866000Y-13178000D02*
X16866000Y-13278000D01*
X16816000Y-13228000D02*
X16916000Y-13228000D01*
X16866000Y-13432000D02*
X16866000Y-13532000D01*
X16816000Y-13482000D02*
X16916000Y-13482000D01*
X16866000Y-13686000D02*
X16866000Y-13786000D01*
X16816000Y-13736000D02*
X16916000Y-13736000D01*
X16866000Y-13940000D02*
X16866000Y-14040000D01*
X16816000Y-13990000D02*
X16916000Y-13990000D01*
X16866000Y-14194000D02*
X16866000Y-14294000D01*
X16816000Y-14244000D02*
X16916000Y-14244000D01*
X17628000Y-9630000D02*
X17628000Y-9730000D01*
X17578000Y-9680000D02*
X17678000Y-9680000D01*
X17628000Y-9884000D02*
X17628000Y-9984000D01*
X17578000Y-9934000D02*
X17678000Y-9934000D01*
X17628000Y-10138000D02*
X17628000Y-10238000D01*
X17578000Y-10188000D02*
X17678000Y-10188000D01*
X17628000Y-10392000D02*
X17628000Y-10492000D01*
X17578000Y-10442000D02*
X17678000Y-10442000D01*
X17628000Y-10646000D02*
X17628000Y-10746000D01*
X17578000Y-10696000D02*
X17678000Y-10696000D01*
X17628000Y-10900000D02*
X17628000Y-11000000D01*
X17578000Y-10950000D02*
X17678000Y-10950000D01*
X17628000Y-11154000D02*
X17628000Y-11254000D01*
X17578000Y-11204000D02*
X17678000Y-11204000D01*
X17628000Y-11408000D02*
X17628000Y-11508000D01*
X17578000Y-11458000D02*
X17678000Y-11458000D01*
X17628000Y-12416000D02*
X17628000Y-12516000D01*
X17578000Y-12466000D02*
X17678000Y-12466000D01*
X17628000Y-12670000D02*
X17628000Y-12770000D01*
X17578000Y-12720000D02*
X17678000Y-12720000D01*
X17628000Y-12924000D02*
X17628000Y-13024000D01*
X17578000Y-12974000D02*
X17678000Y-12974000D01*
X17628000Y-13178000D02*
X17628000Y-13278000D01*
X17578000Y-13228000D02*
X17678000Y-13228000D01*
X17628000Y-13432000D02*
X17628000Y-13532000D01*
X17578000Y-13482000D02*
X17678000Y-13482000D01*
X17628000Y-13686000D02*
X17628000Y-13786000D01*
X17578000Y-13736000D02*
X17678000Y-13736000D01*
X17628000Y-13940000D02*
X17628000Y-14040000D01*
X17578000Y-13990000D02*
X17678000Y-13990000D01*
X17628000Y-14194000D02*
X17628000Y-14294000D01*
X17578000Y-14244000D02*
X17678000Y-14244000D01*
X17728000Y-5945140D02*
X17728000Y-6045140D01*
X17678000Y-5995140D02*
X17778000Y-5995140D01*
X17728000Y-6199140D02*
X17728000Y-6299140D01*
X17678000Y-6249140D02*
X17778000Y-6249140D01*
X17728000Y-6453140D02*
X17728000Y-6553140D01*
X17678000Y-6503140D02*
X17778000Y-6503140D01*
X17728000Y-6707140D02*
X17728000Y-6807140D01*
X17678000Y-6757140D02*
X17778000Y-6757140D01*
X17728000Y-6961140D02*
X17728000Y-7061140D01*
X17678000Y-7011140D02*
X17778000Y-7011140D01*
X17728000Y-7215140D02*
X17728000Y-7315140D01*
X17678000Y-7265140D02*
X17778000Y-7265140D01*
X17728000Y-7469140D02*
X17728000Y-7569140D01*
X17678000Y-7519140D02*
X17778000Y-7519140D01*
X17728000Y-7723140D02*
X17728000Y-7823140D01*
X17678000Y-7773140D02*
X17778000Y-7773140D01*
X17728000Y-7977140D02*
X17728000Y-8077140D01*
X17678000Y-8027140D02*
X17778000Y-8027140D01*
X17728000Y-8231140D02*
X17728000Y-8331140D01*
X17678000Y-8281140D02*
X17778000Y-8281140D01*
X18490000Y-5945140D02*
X18490000Y-6045140D01*
X18440000Y-5995140D02*
X18540000Y-5995140D01*
X18490000Y-6199140D02*
X18490000Y-6299140D01*
X18440000Y-6249140D02*
X18540000Y-6249140D01*
X18490000Y-6453140D02*
X18490000Y-6553140D01*
X18440000Y-6503140D02*
X18540000Y-6503140D01*
X18490000Y-6707140D02*
X18490000Y-6807140D01*
X18440000Y-6757140D02*
X18540000Y-6757140D01*
X18490000Y-6961140D02*
X18490000Y-7061140D01*
X18440000Y-7011140D02*
X18540000Y-7011140D01*
X18490000Y-7215140D02*
X18490000Y-7315140D01*
X18440000Y-7265140D02*
X18540000Y-7265140D01*
X18490000Y-7469140D02*
X18490000Y-7569140D01*
X18440000Y-7519140D02*
X18540000Y-7519140D01*
X18490000Y-7723140D02*
X18490000Y-7823140D01*
X18440000Y-7773140D02*
X18540000Y-7773140D01*
X18490000Y-7977140D02*
X18490000Y-8077140D01*
X18440000Y-8027140D02*
X18540000Y-8027140D01*
X18490000Y-8231140D02*
X18490000Y-8331140D01*
X18440000Y-8281140D02*
X18540000Y-8281140D01*
X19238000Y-5945140D02*
X19238000Y-6045140D01*
X19188000Y-5995140D02*
X19288000Y-5995140D01*
X19238000Y-6199140D02*
X19238000Y-6299140D01*
X19188000Y-6249140D02*
X19288000Y-6249140D01*
X19238000Y-6453140D02*
X19238000Y-6553140D01*
X19188000Y-6503140D02*
X19288000Y-6503140D01*
X19238000Y-6707140D02*
X19238000Y-6807140D01*
X19188000Y-6757140D02*
X19288000Y-6757140D01*
X19238000Y-6961140D02*
X19238000Y-7061140D01*
X19188000Y-7011140D02*
X19288000Y-7011140D01*
X19238000Y-7215140D02*
X19238000Y-7315140D01*
X19188000Y-7265140D02*
X19288000Y-7265140D01*
X19238000Y-7469140D02*
X19238000Y-7569140D01*
X19188000Y-7519140D02*
X19288000Y-7519140D01*
X19238000Y-7723140D02*
X19238000Y-7823140D01*
X19188000Y-7773140D02*
X19288000Y-7773140D01*
X19238000Y-7977140D02*
X19238000Y-8077140D01*
X19188000Y-8027140D02*
X19288000Y-8027140D01*
X19238000Y-8231140D02*
X19238000Y-8331140D01*
X19188000Y-8281140D02*
X19288000Y-8281140D01*
X20000000Y-5945140D02*
X20000000Y-6045140D01*
X19950000Y-5995140D02*
X20050000Y-5995140D01*
X20000000Y-6199140D02*
X20000000Y-6299140D01*
X19950000Y-6249140D02*
X20050000Y-6249140D01*
X20000000Y-6453140D02*
X20000000Y-6553140D01*
X19950000Y-6503140D02*
X20050000Y-6503140D01*
X20000000Y-6707140D02*
X20000000Y-6807140D01*
X19950000Y-6757140D02*
X20050000Y-6757140D01*
X20000000Y-6961140D02*
X20000000Y-7061140D01*
X19950000Y-7011140D02*
X20050000Y-7011140D01*
X20000000Y-7215140D02*
X20000000Y-7315140D01*
X19950000Y-7265140D02*
X20050000Y-7265140D01*
X20000000Y-7469140D02*
X20000000Y-7569140D01*
X19950000Y-7519140D02*
X20050000Y-7519140D01*
X20000000Y-7723140D02*
X20000000Y-7823140D01*
X19950000Y-7773140D02*
X20050000Y-7773140D01*
X20000000Y-7977140D02*
X20000000Y-8077140D01*
X19950000Y-8027140D02*
X20050000Y-8027140D01*
X20000000Y-8231140D02*
X20000000Y-8331140D01*
X19950000Y-8281140D02*
X20050000Y-8281140D01*
D11*
X15603277Y-15618984D02*
X15603277Y-15418984D01*
X15603277Y-15418984D02*
X15650896Y-15418984D01*
X15650896Y-15418984D02*
X15679467Y-15428508D01*
X15679467Y-15428508D02*
X15698515Y-15447555D01*
X15698515Y-15447555D02*
X15708039Y-15466603D01*
X15708039Y-15466603D02*
X15717562Y-15504698D01*
X15717562Y-15504698D02*
X15717562Y-15533269D01*
X15717562Y-15533269D02*
X15708039Y-15571365D01*
X15708039Y-15571365D02*
X15698515Y-15590412D01*
X15698515Y-15590412D02*
X15679467Y-15609460D01*
X15679467Y-15609460D02*
X15650896Y-15618984D01*
X15650896Y-15618984D02*
X15603277Y-15618984D01*
X15803277Y-15618984D02*
X15803277Y-15485650D01*
X15803277Y-15523746D02*
X15812801Y-15504698D01*
X15812801Y-15504698D02*
X15822324Y-15495174D01*
X15822324Y-15495174D02*
X15841372Y-15485650D01*
X15841372Y-15485650D02*
X15860420Y-15485650D01*
X15927086Y-15618984D02*
X15927086Y-15485650D01*
X15927086Y-15418984D02*
X15917562Y-15428508D01*
X15917562Y-15428508D02*
X15927086Y-15438031D01*
X15927086Y-15438031D02*
X15936610Y-15428508D01*
X15936610Y-15428508D02*
X15927086Y-15418984D01*
X15927086Y-15418984D02*
X15927086Y-15438031D01*
X16050896Y-15618984D02*
X16031848Y-15609460D01*
X16031848Y-15609460D02*
X16022324Y-15590412D01*
X16022324Y-15590412D02*
X16022324Y-15418984D01*
X16155658Y-15618984D02*
X16136610Y-15609460D01*
X16136610Y-15609460D02*
X16127086Y-15590412D01*
X16127086Y-15590412D02*
X16127086Y-15418984D01*
X16384229Y-15618984D02*
X16384229Y-15418984D01*
X16384229Y-15418984D02*
X16450896Y-15561841D01*
X16450896Y-15561841D02*
X16517562Y-15418984D01*
X16517562Y-15418984D02*
X16517562Y-15618984D01*
X16698515Y-15618984D02*
X16698515Y-15514222D01*
X16698515Y-15514222D02*
X16688991Y-15495174D01*
X16688991Y-15495174D02*
X16669943Y-15485650D01*
X16669943Y-15485650D02*
X16631848Y-15485650D01*
X16631848Y-15485650D02*
X16612801Y-15495174D01*
X16698515Y-15609460D02*
X16679467Y-15618984D01*
X16679467Y-15618984D02*
X16631848Y-15618984D01*
X16631848Y-15618984D02*
X16612801Y-15609460D01*
X16612801Y-15609460D02*
X16603277Y-15590412D01*
X16603277Y-15590412D02*
X16603277Y-15571365D01*
X16603277Y-15571365D02*
X16612801Y-15552317D01*
X16612801Y-15552317D02*
X16631848Y-15542793D01*
X16631848Y-15542793D02*
X16679467Y-15542793D01*
X16679467Y-15542793D02*
X16698515Y-15533269D01*
X16793753Y-15485650D02*
X16793753Y-15685650D01*
X16793753Y-15495174D02*
X16812801Y-15485650D01*
X16812801Y-15485650D02*
X16850896Y-15485650D01*
X16850896Y-15485650D02*
X16869944Y-15495174D01*
X16869944Y-15495174D02*
X16879467Y-15504698D01*
X16879467Y-15504698D02*
X16888991Y-15523746D01*
X16888991Y-15523746D02*
X16888991Y-15580888D01*
X16888991Y-15580888D02*
X16879467Y-15599936D01*
X16879467Y-15599936D02*
X16869944Y-15609460D01*
X16869944Y-15609460D02*
X16850896Y-15618984D01*
X16850896Y-15618984D02*
X16812801Y-15618984D01*
X16812801Y-15618984D02*
X16793753Y-15609460D01*
X16974705Y-15599936D02*
X16984229Y-15609460D01*
X16984229Y-15609460D02*
X16974705Y-15618984D01*
X16974705Y-15618984D02*
X16965182Y-15609460D01*
X16965182Y-15609460D02*
X16974705Y-15599936D01*
X16974705Y-15599936D02*
X16974705Y-15618984D01*
X16974705Y-15495174D02*
X16984229Y-15504698D01*
X16984229Y-15504698D02*
X16974705Y-15514222D01*
X16974705Y-15514222D02*
X16965182Y-15504698D01*
X16965182Y-15504698D02*
X16974705Y-15495174D01*
X16974705Y-15495174D02*
X16974705Y-15514222D01*
D12*
X15322500Y-15937500D02*
X15342500Y-15957500D01*
X15342500Y-15937500D02*
X15322500Y-15957500D01*
D11*
X15641372Y-15838984D02*
X15660420Y-15838984D01*
X15660420Y-15838984D02*
X15679467Y-15848508D01*
X15679467Y-15848508D02*
X15688991Y-15858031D01*
X15688991Y-15858031D02*
X15698515Y-15877079D01*
X15698515Y-15877079D02*
X15708039Y-15915174D01*
X15708039Y-15915174D02*
X15708039Y-15962793D01*
X15708039Y-15962793D02*
X15698515Y-16000888D01*
X15698515Y-16000888D02*
X15688991Y-16019936D01*
X15688991Y-16019936D02*
X15679467Y-16029460D01*
X15679467Y-16029460D02*
X15660420Y-16038984D01*
X15660420Y-16038984D02*
X15641372Y-16038984D01*
X15641372Y-16038984D02*
X15622324Y-16029460D01*
X15622324Y-16029460D02*
X15612801Y-16019936D01*
X15612801Y-16019936D02*
X15603277Y-16000888D01*
X15603277Y-16000888D02*
X15593753Y-15962793D01*
X15593753Y-15962793D02*
X15593753Y-15915174D01*
X15593753Y-15915174D02*
X15603277Y-15877079D01*
X15603277Y-15877079D02*
X15612801Y-15858031D01*
X15612801Y-15858031D02*
X15622324Y-15848508D01*
X15622324Y-15848508D02*
X15641372Y-15838984D01*
X15793753Y-16019936D02*
X15803277Y-16029460D01*
X15803277Y-16029460D02*
X15793753Y-16038984D01*
X15793753Y-16038984D02*
X15784229Y-16029460D01*
X15784229Y-16029460D02*
X15793753Y-16019936D01*
X15793753Y-16019936D02*
X15793753Y-16038984D01*
X15879467Y-15858031D02*
X15888991Y-15848508D01*
X15888991Y-15848508D02*
X15908039Y-15838984D01*
X15908039Y-15838984D02*
X15955658Y-15838984D01*
X15955658Y-15838984D02*
X15974705Y-15848508D01*
X15974705Y-15848508D02*
X15984229Y-15858031D01*
X15984229Y-15858031D02*
X15993753Y-15877079D01*
X15993753Y-15877079D02*
X15993753Y-15896127D01*
X15993753Y-15896127D02*
X15984229Y-15924698D01*
X15984229Y-15924698D02*
X15869943Y-16038984D01*
X15869943Y-16038984D02*
X15993753Y-16038984D01*
X16117562Y-15838984D02*
X16136610Y-15838984D01*
X16136610Y-15838984D02*
X16155658Y-15848508D01*
X16155658Y-15848508D02*
X16165182Y-15858031D01*
X16165182Y-15858031D02*
X16174705Y-15877079D01*
X16174705Y-15877079D02*
X16184229Y-15915174D01*
X16184229Y-15915174D02*
X16184229Y-15962793D01*
X16184229Y-15962793D02*
X16174705Y-16000888D01*
X16174705Y-16000888D02*
X16165182Y-16019936D01*
X16165182Y-16019936D02*
X16155658Y-16029460D01*
X16155658Y-16029460D02*
X16136610Y-16038984D01*
X16136610Y-16038984D02*
X16117562Y-16038984D01*
X16117562Y-16038984D02*
X16098515Y-16029460D01*
X16098515Y-16029460D02*
X16088991Y-16019936D01*
X16088991Y-16019936D02*
X16079467Y-16000888D01*
X16079467Y-16000888D02*
X16069943Y-15962793D01*
X16069943Y-15962793D02*
X16069943Y-15915174D01*
X16069943Y-15915174D02*
X16079467Y-15877079D01*
X16079467Y-15877079D02*
X16088991Y-15858031D01*
X16088991Y-15858031D02*
X16098515Y-15848508D01*
X16098515Y-15848508D02*
X16117562Y-15838984D01*
X16308039Y-15838984D02*
X16327086Y-15838984D01*
X16327086Y-15838984D02*
X16346134Y-15848508D01*
X16346134Y-15848508D02*
X16355658Y-15858031D01*
X16355658Y-15858031D02*
X16365182Y-15877079D01*
X16365182Y-15877079D02*
X16374705Y-15915174D01*
X16374705Y-15915174D02*
X16374705Y-15962793D01*
X16374705Y-15962793D02*
X16365182Y-16000888D01*
X16365182Y-16000888D02*
X16355658Y-16019936D01*
X16355658Y-16019936D02*
X16346134Y-16029460D01*
X16346134Y-16029460D02*
X16327086Y-16038984D01*
X16327086Y-16038984D02*
X16308039Y-16038984D01*
X16308039Y-16038984D02*
X16288991Y-16029460D01*
X16288991Y-16029460D02*
X16279467Y-16019936D01*
X16279467Y-16019936D02*
X16269943Y-16000888D01*
X16269943Y-16000888D02*
X16260420Y-15962793D01*
X16260420Y-15962793D02*
X16260420Y-15915174D01*
X16260420Y-15915174D02*
X16269943Y-15877079D01*
X16269943Y-15877079D02*
X16279467Y-15858031D01*
X16279467Y-15858031D02*
X16288991Y-15848508D01*
X16288991Y-15848508D02*
X16308039Y-15838984D01*
X16460420Y-16038984D02*
X16460420Y-15905650D01*
X16460420Y-15924698D02*
X16469943Y-15915174D01*
X16469943Y-15915174D02*
X16488991Y-15905650D01*
X16488991Y-15905650D02*
X16517563Y-15905650D01*
X16517563Y-15905650D02*
X16536610Y-15915174D01*
X16536610Y-15915174D02*
X16546134Y-15934222D01*
X16546134Y-15934222D02*
X16546134Y-16038984D01*
X16546134Y-15934222D02*
X16555658Y-15915174D01*
X16555658Y-15915174D02*
X16574705Y-15905650D01*
X16574705Y-15905650D02*
X16603277Y-15905650D01*
X16603277Y-15905650D02*
X16622324Y-15915174D01*
X16622324Y-15915174D02*
X16631848Y-15934222D01*
X16631848Y-15934222D02*
X16631848Y-16038984D01*
X16727086Y-16038984D02*
X16727086Y-15905650D01*
X16727086Y-15924698D02*
X16736610Y-15915174D01*
X16736610Y-15915174D02*
X16755658Y-15905650D01*
X16755658Y-15905650D02*
X16784229Y-15905650D01*
X16784229Y-15905650D02*
X16803277Y-15915174D01*
X16803277Y-15915174D02*
X16812801Y-15934222D01*
X16812801Y-15934222D02*
X16812801Y-16038984D01*
X16812801Y-15934222D02*
X16822325Y-15915174D01*
X16822325Y-15915174D02*
X16841372Y-15905650D01*
X16841372Y-15905650D02*
X16869944Y-15905650D01*
X16869944Y-15905650D02*
X16888991Y-15915174D01*
X16888991Y-15915174D02*
X16898515Y-15934222D01*
X16898515Y-15934222D02*
X16898515Y-16038984D01*
X17288991Y-15829460D02*
X17117563Y-16086603D01*
X17546134Y-15838984D02*
X17565182Y-15838984D01*
X17565182Y-15838984D02*
X17584229Y-15848508D01*
X17584229Y-15848508D02*
X17593753Y-15858031D01*
X17593753Y-15858031D02*
X17603277Y-15877079D01*
X17603277Y-15877079D02*
X17612801Y-15915174D01*
X17612801Y-15915174D02*
X17612801Y-15962793D01*
X17612801Y-15962793D02*
X17603277Y-16000888D01*
X17603277Y-16000888D02*
X17593753Y-16019936D01*
X17593753Y-16019936D02*
X17584229Y-16029460D01*
X17584229Y-16029460D02*
X17565182Y-16038984D01*
X17565182Y-16038984D02*
X17546134Y-16038984D01*
X17546134Y-16038984D02*
X17527087Y-16029460D01*
X17527087Y-16029460D02*
X17517563Y-16019936D01*
X17517563Y-16019936D02*
X17508039Y-16000888D01*
X17508039Y-16000888D02*
X17498515Y-15962793D01*
X17498515Y-15962793D02*
X17498515Y-15915174D01*
X17498515Y-15915174D02*
X17508039Y-15877079D01*
X17508039Y-15877079D02*
X17517563Y-15858031D01*
X17517563Y-15858031D02*
X17527087Y-15848508D01*
X17527087Y-15848508D02*
X17546134Y-15838984D01*
X17698515Y-16019936D02*
X17708039Y-16029460D01*
X17708039Y-16029460D02*
X17698515Y-16038984D01*
X17698515Y-16038984D02*
X17688991Y-16029460D01*
X17688991Y-16029460D02*
X17698515Y-16019936D01*
X17698515Y-16019936D02*
X17698515Y-16038984D01*
X17831848Y-15838984D02*
X17850896Y-15838984D01*
X17850896Y-15838984D02*
X17869944Y-15848508D01*
X17869944Y-15848508D02*
X17879468Y-15858031D01*
X17879468Y-15858031D02*
X17888991Y-15877079D01*
X17888991Y-15877079D02*
X17898515Y-15915174D01*
X17898515Y-15915174D02*
X17898515Y-15962793D01*
X17898515Y-15962793D02*
X17888991Y-16000888D01*
X17888991Y-16000888D02*
X17879468Y-16019936D01*
X17879468Y-16019936D02*
X17869944Y-16029460D01*
X17869944Y-16029460D02*
X17850896Y-16038984D01*
X17850896Y-16038984D02*
X17831848Y-16038984D01*
X17831848Y-16038984D02*
X17812801Y-16029460D01*
X17812801Y-16029460D02*
X17803277Y-16019936D01*
X17803277Y-16019936D02*
X17793753Y-16000888D01*
X17793753Y-16000888D02*
X17784229Y-15962793D01*
X17784229Y-15962793D02*
X17784229Y-15915174D01*
X17784229Y-15915174D02*
X17793753Y-15877079D01*
X17793753Y-15877079D02*
X17803277Y-15858031D01*
X17803277Y-15858031D02*
X17812801Y-15848508D01*
X17812801Y-15848508D02*
X17831848Y-15838984D01*
X18022325Y-15838984D02*
X18041372Y-15838984D01*
X18041372Y-15838984D02*
X18060420Y-15848508D01*
X18060420Y-15848508D02*
X18069944Y-15858031D01*
X18069944Y-15858031D02*
X18079468Y-15877079D01*
X18079468Y-15877079D02*
X18088991Y-15915174D01*
X18088991Y-15915174D02*
X18088991Y-15962793D01*
X18088991Y-15962793D02*
X18079468Y-16000888D01*
X18079468Y-16000888D02*
X18069944Y-16019936D01*
X18069944Y-16019936D02*
X18060420Y-16029460D01*
X18060420Y-16029460D02*
X18041372Y-16038984D01*
X18041372Y-16038984D02*
X18022325Y-16038984D01*
X18022325Y-16038984D02*
X18003277Y-16029460D01*
X18003277Y-16029460D02*
X17993753Y-16019936D01*
X17993753Y-16019936D02*
X17984229Y-16000888D01*
X17984229Y-16000888D02*
X17974706Y-15962793D01*
X17974706Y-15962793D02*
X17974706Y-15915174D01*
X17974706Y-15915174D02*
X17984229Y-15877079D01*
X17984229Y-15877079D02*
X17993753Y-15858031D01*
X17993753Y-15858031D02*
X18003277Y-15848508D01*
X18003277Y-15848508D02*
X18022325Y-15838984D01*
X18155658Y-15838984D02*
X18288991Y-15838984D01*
X18288991Y-15838984D02*
X18203277Y-16038984D01*
X18374706Y-16038984D02*
X18412801Y-16038984D01*
X18412801Y-16038984D02*
X18431849Y-16029460D01*
X18431849Y-16029460D02*
X18441372Y-16019936D01*
X18441372Y-16019936D02*
X18460420Y-15991365D01*
X18460420Y-15991365D02*
X18469944Y-15953269D01*
X18469944Y-15953269D02*
X18469944Y-15877079D01*
X18469944Y-15877079D02*
X18460420Y-15858031D01*
X18460420Y-15858031D02*
X18450896Y-15848508D01*
X18450896Y-15848508D02*
X18431849Y-15838984D01*
X18431849Y-15838984D02*
X18393753Y-15838984D01*
X18393753Y-15838984D02*
X18374706Y-15848508D01*
X18374706Y-15848508D02*
X18365182Y-15858031D01*
X18365182Y-15858031D02*
X18355658Y-15877079D01*
X18355658Y-15877079D02*
X18355658Y-15924698D01*
X18355658Y-15924698D02*
X18365182Y-15943746D01*
X18365182Y-15943746D02*
X18374706Y-15953269D01*
X18374706Y-15953269D02*
X18393753Y-15962793D01*
X18393753Y-15962793D02*
X18431849Y-15962793D01*
X18431849Y-15962793D02*
X18450896Y-15953269D01*
X18450896Y-15953269D02*
X18460420Y-15943746D01*
X18460420Y-15943746D02*
X18469944Y-15924698D01*
X18546134Y-15838984D02*
X18546134Y-15877079D01*
X18622325Y-15838984D02*
X18622325Y-15877079D01*
X18917563Y-16115174D02*
X18908039Y-16105650D01*
X18908039Y-16105650D02*
X18888991Y-16077079D01*
X18888991Y-16077079D02*
X18879468Y-16058031D01*
X18879468Y-16058031D02*
X18869944Y-16029460D01*
X18869944Y-16029460D02*
X18860420Y-15981841D01*
X18860420Y-15981841D02*
X18860420Y-15943746D01*
X18860420Y-15943746D02*
X18869944Y-15896127D01*
X18869944Y-15896127D02*
X18879468Y-15867555D01*
X18879468Y-15867555D02*
X18888991Y-15848508D01*
X18888991Y-15848508D02*
X18908039Y-15819936D01*
X18908039Y-15819936D02*
X18917563Y-15810412D01*
X18974706Y-15838984D02*
X19098515Y-15838984D01*
X19098515Y-15838984D02*
X19031849Y-15915174D01*
X19031849Y-15915174D02*
X19060420Y-15915174D01*
X19060420Y-15915174D02*
X19079468Y-15924698D01*
X19079468Y-15924698D02*
X19088991Y-15934222D01*
X19088991Y-15934222D02*
X19098515Y-15953269D01*
X19098515Y-15953269D02*
X19098515Y-16000888D01*
X19098515Y-16000888D02*
X19088991Y-16019936D01*
X19088991Y-16019936D02*
X19079468Y-16029460D01*
X19079468Y-16029460D02*
X19060420Y-16038984D01*
X19060420Y-16038984D02*
X19003277Y-16038984D01*
X19003277Y-16038984D02*
X18984230Y-16029460D01*
X18984230Y-16029460D02*
X18974706Y-16019936D01*
X19193753Y-16038984D02*
X19231849Y-16038984D01*
X19231849Y-16038984D02*
X19250896Y-16029460D01*
X19250896Y-16029460D02*
X19260420Y-16019936D01*
X19260420Y-16019936D02*
X19279468Y-15991365D01*
X19279468Y-15991365D02*
X19288991Y-15953269D01*
X19288991Y-15953269D02*
X19288991Y-15877079D01*
X19288991Y-15877079D02*
X19279468Y-15858031D01*
X19279468Y-15858031D02*
X19269944Y-15848508D01*
X19269944Y-15848508D02*
X19250896Y-15838984D01*
X19250896Y-15838984D02*
X19212801Y-15838984D01*
X19212801Y-15838984D02*
X19193753Y-15848508D01*
X19193753Y-15848508D02*
X19184230Y-15858031D01*
X19184230Y-15858031D02*
X19174706Y-15877079D01*
X19174706Y-15877079D02*
X19174706Y-15924698D01*
X19174706Y-15924698D02*
X19184230Y-15943746D01*
X19184230Y-15943746D02*
X19193753Y-15953269D01*
X19193753Y-15953269D02*
X19212801Y-15962793D01*
X19212801Y-15962793D02*
X19250896Y-15962793D01*
X19250896Y-15962793D02*
X19269944Y-15953269D01*
X19269944Y-15953269D02*
X19279468Y-15943746D01*
X19279468Y-15943746D02*
X19288991Y-15924698D01*
X19355658Y-15838984D02*
X19479468Y-15838984D01*
X19479468Y-15838984D02*
X19412801Y-15915174D01*
X19412801Y-15915174D02*
X19441372Y-15915174D01*
X19441372Y-15915174D02*
X19460420Y-15924698D01*
X19460420Y-15924698D02*
X19469944Y-15934222D01*
X19469944Y-15934222D02*
X19479468Y-15953269D01*
X19479468Y-15953269D02*
X19479468Y-16000888D01*
X19479468Y-16000888D02*
X19469944Y-16019936D01*
X19469944Y-16019936D02*
X19460420Y-16029460D01*
X19460420Y-16029460D02*
X19441372Y-16038984D01*
X19441372Y-16038984D02*
X19384230Y-16038984D01*
X19384230Y-16038984D02*
X19365182Y-16029460D01*
X19365182Y-16029460D02*
X19355658Y-16019936D01*
X19717563Y-16038984D02*
X19717563Y-15838984D01*
X19803277Y-16038984D02*
X19803277Y-15934222D01*
X19803277Y-15934222D02*
X19793753Y-15915174D01*
X19793753Y-15915174D02*
X19774706Y-15905650D01*
X19774706Y-15905650D02*
X19746134Y-15905650D01*
X19746134Y-15905650D02*
X19727087Y-15915174D01*
X19727087Y-15915174D02*
X19717563Y-15924698D01*
X19927087Y-16038984D02*
X19908039Y-16029460D01*
X19908039Y-16029460D02*
X19898515Y-16019936D01*
X19898515Y-16019936D02*
X19888992Y-16000888D01*
X19888992Y-16000888D02*
X19888992Y-15943746D01*
X19888992Y-15943746D02*
X19898515Y-15924698D01*
X19898515Y-15924698D02*
X19908039Y-15915174D01*
X19908039Y-15915174D02*
X19927087Y-15905650D01*
X19927087Y-15905650D02*
X19955658Y-15905650D01*
X19955658Y-15905650D02*
X19974706Y-15915174D01*
X19974706Y-15915174D02*
X19984230Y-15924698D01*
X19984230Y-15924698D02*
X19993753Y-15943746D01*
X19993753Y-15943746D02*
X19993753Y-16000888D01*
X19993753Y-16000888D02*
X19984230Y-16019936D01*
X19984230Y-16019936D02*
X19974706Y-16029460D01*
X19974706Y-16029460D02*
X19955658Y-16038984D01*
X19955658Y-16038984D02*
X19927087Y-16038984D01*
X20108039Y-16038984D02*
X20088992Y-16029460D01*
X20088992Y-16029460D02*
X20079468Y-16010412D01*
X20079468Y-16010412D02*
X20079468Y-15838984D01*
X20260420Y-16029460D02*
X20241373Y-16038984D01*
X20241373Y-16038984D02*
X20203277Y-16038984D01*
X20203277Y-16038984D02*
X20184230Y-16029460D01*
X20184230Y-16029460D02*
X20174706Y-16010412D01*
X20174706Y-16010412D02*
X20174706Y-15934222D01*
X20174706Y-15934222D02*
X20184230Y-15915174D01*
X20184230Y-15915174D02*
X20203277Y-15905650D01*
X20203277Y-15905650D02*
X20241373Y-15905650D01*
X20241373Y-15905650D02*
X20260420Y-15915174D01*
X20260420Y-15915174D02*
X20269944Y-15934222D01*
X20269944Y-15934222D02*
X20269944Y-15953269D01*
X20269944Y-15953269D02*
X20174706Y-15972317D01*
X20346134Y-16029460D02*
X20365182Y-16038984D01*
X20365182Y-16038984D02*
X20403277Y-16038984D01*
X20403277Y-16038984D02*
X20422325Y-16029460D01*
X20422325Y-16029460D02*
X20431849Y-16010412D01*
X20431849Y-16010412D02*
X20431849Y-16000888D01*
X20431849Y-16000888D02*
X20422325Y-15981841D01*
X20422325Y-15981841D02*
X20403277Y-15972317D01*
X20403277Y-15972317D02*
X20374706Y-15972317D01*
X20374706Y-15972317D02*
X20355658Y-15962793D01*
X20355658Y-15962793D02*
X20346134Y-15943746D01*
X20346134Y-15943746D02*
X20346134Y-15934222D01*
X20346134Y-15934222D02*
X20355658Y-15915174D01*
X20355658Y-15915174D02*
X20374706Y-15905650D01*
X20374706Y-15905650D02*
X20403277Y-15905650D01*
X20403277Y-15905650D02*
X20422325Y-15915174D01*
X20498515Y-16115174D02*
X20508039Y-16105650D01*
X20508039Y-16105650D02*
X20527087Y-16077079D01*
X20527087Y-16077079D02*
X20536611Y-16058031D01*
X20536611Y-16058031D02*
X20546134Y-16029460D01*
X20546134Y-16029460D02*
X20555658Y-15981841D01*
X20555658Y-15981841D02*
X20555658Y-15943746D01*
X20555658Y-15943746D02*
X20546134Y-15896127D01*
X20546134Y-15896127D02*
X20536611Y-15867555D01*
X20536611Y-15867555D02*
X20527087Y-15848508D01*
X20527087Y-15848508D02*
X20508039Y-15819936D01*
X20508039Y-15819936D02*
X20498515Y-15810412D01*
D12*
X15342500Y-16211500D02*
G75*
G02*
X15312500Y-16211500I-15000J0D01*
G01*
X15312500Y-16211500D02*
G75*
G02*
X15342500Y-16211500I15000J0D01*
G01*
D11*
X15641372Y-16102984D02*
X15660420Y-16102984D01*
X15660420Y-16102984D02*
X15679467Y-16112508D01*
X15679467Y-16112508D02*
X15688991Y-16122031D01*
X15688991Y-16122031D02*
X15698515Y-16141079D01*
X15698515Y-16141079D02*
X15708039Y-16179174D01*
X15708039Y-16179174D02*
X15708039Y-16226793D01*
X15708039Y-16226793D02*
X15698515Y-16264888D01*
X15698515Y-16264888D02*
X15688991Y-16283936D01*
X15688991Y-16283936D02*
X15679467Y-16293460D01*
X15679467Y-16293460D02*
X15660420Y-16302984D01*
X15660420Y-16302984D02*
X15641372Y-16302984D01*
X15641372Y-16302984D02*
X15622324Y-16293460D01*
X15622324Y-16293460D02*
X15612801Y-16283936D01*
X15612801Y-16283936D02*
X15603277Y-16264888D01*
X15603277Y-16264888D02*
X15593753Y-16226793D01*
X15593753Y-16226793D02*
X15593753Y-16179174D01*
X15593753Y-16179174D02*
X15603277Y-16141079D01*
X15603277Y-16141079D02*
X15612801Y-16122031D01*
X15612801Y-16122031D02*
X15622324Y-16112508D01*
X15622324Y-16112508D02*
X15641372Y-16102984D01*
X15793753Y-16283936D02*
X15803277Y-16293460D01*
X15803277Y-16293460D02*
X15793753Y-16302984D01*
X15793753Y-16302984D02*
X15784229Y-16293460D01*
X15784229Y-16293460D02*
X15793753Y-16283936D01*
X15793753Y-16283936D02*
X15793753Y-16302984D01*
X15869943Y-16102984D02*
X15993753Y-16102984D01*
X15993753Y-16102984D02*
X15927086Y-16179174D01*
X15927086Y-16179174D02*
X15955658Y-16179174D01*
X15955658Y-16179174D02*
X15974705Y-16188698D01*
X15974705Y-16188698D02*
X15984229Y-16198222D01*
X15984229Y-16198222D02*
X15993753Y-16217269D01*
X15993753Y-16217269D02*
X15993753Y-16264888D01*
X15993753Y-16264888D02*
X15984229Y-16283936D01*
X15984229Y-16283936D02*
X15974705Y-16293460D01*
X15974705Y-16293460D02*
X15955658Y-16302984D01*
X15955658Y-16302984D02*
X15898515Y-16302984D01*
X15898515Y-16302984D02*
X15879467Y-16293460D01*
X15879467Y-16293460D02*
X15869943Y-16283936D01*
X16117562Y-16102984D02*
X16136610Y-16102984D01*
X16136610Y-16102984D02*
X16155658Y-16112508D01*
X16155658Y-16112508D02*
X16165182Y-16122031D01*
X16165182Y-16122031D02*
X16174705Y-16141079D01*
X16174705Y-16141079D02*
X16184229Y-16179174D01*
X16184229Y-16179174D02*
X16184229Y-16226793D01*
X16184229Y-16226793D02*
X16174705Y-16264888D01*
X16174705Y-16264888D02*
X16165182Y-16283936D01*
X16165182Y-16283936D02*
X16155658Y-16293460D01*
X16155658Y-16293460D02*
X16136610Y-16302984D01*
X16136610Y-16302984D02*
X16117562Y-16302984D01*
X16117562Y-16302984D02*
X16098515Y-16293460D01*
X16098515Y-16293460D02*
X16088991Y-16283936D01*
X16088991Y-16283936D02*
X16079467Y-16264888D01*
X16079467Y-16264888D02*
X16069943Y-16226793D01*
X16069943Y-16226793D02*
X16069943Y-16179174D01*
X16069943Y-16179174D02*
X16079467Y-16141079D01*
X16079467Y-16141079D02*
X16088991Y-16122031D01*
X16088991Y-16122031D02*
X16098515Y-16112508D01*
X16098515Y-16112508D02*
X16117562Y-16102984D01*
X16308039Y-16102984D02*
X16327086Y-16102984D01*
X16327086Y-16102984D02*
X16346134Y-16112508D01*
X16346134Y-16112508D02*
X16355658Y-16122031D01*
X16355658Y-16122031D02*
X16365182Y-16141079D01*
X16365182Y-16141079D02*
X16374705Y-16179174D01*
X16374705Y-16179174D02*
X16374705Y-16226793D01*
X16374705Y-16226793D02*
X16365182Y-16264888D01*
X16365182Y-16264888D02*
X16355658Y-16283936D01*
X16355658Y-16283936D02*
X16346134Y-16293460D01*
X16346134Y-16293460D02*
X16327086Y-16302984D01*
X16327086Y-16302984D02*
X16308039Y-16302984D01*
X16308039Y-16302984D02*
X16288991Y-16293460D01*
X16288991Y-16293460D02*
X16279467Y-16283936D01*
X16279467Y-16283936D02*
X16269943Y-16264888D01*
X16269943Y-16264888D02*
X16260420Y-16226793D01*
X16260420Y-16226793D02*
X16260420Y-16179174D01*
X16260420Y-16179174D02*
X16269943Y-16141079D01*
X16269943Y-16141079D02*
X16279467Y-16122031D01*
X16279467Y-16122031D02*
X16288991Y-16112508D01*
X16288991Y-16112508D02*
X16308039Y-16102984D01*
X16460420Y-16302984D02*
X16460420Y-16169650D01*
X16460420Y-16188698D02*
X16469943Y-16179174D01*
X16469943Y-16179174D02*
X16488991Y-16169650D01*
X16488991Y-16169650D02*
X16517563Y-16169650D01*
X16517563Y-16169650D02*
X16536610Y-16179174D01*
X16536610Y-16179174D02*
X16546134Y-16198222D01*
X16546134Y-16198222D02*
X16546134Y-16302984D01*
X16546134Y-16198222D02*
X16555658Y-16179174D01*
X16555658Y-16179174D02*
X16574705Y-16169650D01*
X16574705Y-16169650D02*
X16603277Y-16169650D01*
X16603277Y-16169650D02*
X16622324Y-16179174D01*
X16622324Y-16179174D02*
X16631848Y-16198222D01*
X16631848Y-16198222D02*
X16631848Y-16302984D01*
X16727086Y-16302984D02*
X16727086Y-16169650D01*
X16727086Y-16188698D02*
X16736610Y-16179174D01*
X16736610Y-16179174D02*
X16755658Y-16169650D01*
X16755658Y-16169650D02*
X16784229Y-16169650D01*
X16784229Y-16169650D02*
X16803277Y-16179174D01*
X16803277Y-16179174D02*
X16812801Y-16198222D01*
X16812801Y-16198222D02*
X16812801Y-16302984D01*
X16812801Y-16198222D02*
X16822325Y-16179174D01*
X16822325Y-16179174D02*
X16841372Y-16169650D01*
X16841372Y-16169650D02*
X16869944Y-16169650D01*
X16869944Y-16169650D02*
X16888991Y-16179174D01*
X16888991Y-16179174D02*
X16898515Y-16198222D01*
X16898515Y-16198222D02*
X16898515Y-16302984D01*
X17288991Y-16093460D02*
X17117563Y-16350603D01*
X17546134Y-16102984D02*
X17565182Y-16102984D01*
X17565182Y-16102984D02*
X17584229Y-16112508D01*
X17584229Y-16112508D02*
X17593753Y-16122031D01*
X17593753Y-16122031D02*
X17603277Y-16141079D01*
X17603277Y-16141079D02*
X17612801Y-16179174D01*
X17612801Y-16179174D02*
X17612801Y-16226793D01*
X17612801Y-16226793D02*
X17603277Y-16264888D01*
X17603277Y-16264888D02*
X17593753Y-16283936D01*
X17593753Y-16283936D02*
X17584229Y-16293460D01*
X17584229Y-16293460D02*
X17565182Y-16302984D01*
X17565182Y-16302984D02*
X17546134Y-16302984D01*
X17546134Y-16302984D02*
X17527087Y-16293460D01*
X17527087Y-16293460D02*
X17517563Y-16283936D01*
X17517563Y-16283936D02*
X17508039Y-16264888D01*
X17508039Y-16264888D02*
X17498515Y-16226793D01*
X17498515Y-16226793D02*
X17498515Y-16179174D01*
X17498515Y-16179174D02*
X17508039Y-16141079D01*
X17508039Y-16141079D02*
X17517563Y-16122031D01*
X17517563Y-16122031D02*
X17527087Y-16112508D01*
X17527087Y-16112508D02*
X17546134Y-16102984D01*
X17698515Y-16283936D02*
X17708039Y-16293460D01*
X17708039Y-16293460D02*
X17698515Y-16302984D01*
X17698515Y-16302984D02*
X17688991Y-16293460D01*
X17688991Y-16293460D02*
X17698515Y-16283936D01*
X17698515Y-16283936D02*
X17698515Y-16302984D01*
X17831848Y-16102984D02*
X17850896Y-16102984D01*
X17850896Y-16102984D02*
X17869944Y-16112508D01*
X17869944Y-16112508D02*
X17879468Y-16122031D01*
X17879468Y-16122031D02*
X17888991Y-16141079D01*
X17888991Y-16141079D02*
X17898515Y-16179174D01*
X17898515Y-16179174D02*
X17898515Y-16226793D01*
X17898515Y-16226793D02*
X17888991Y-16264888D01*
X17888991Y-16264888D02*
X17879468Y-16283936D01*
X17879468Y-16283936D02*
X17869944Y-16293460D01*
X17869944Y-16293460D02*
X17850896Y-16302984D01*
X17850896Y-16302984D02*
X17831848Y-16302984D01*
X17831848Y-16302984D02*
X17812801Y-16293460D01*
X17812801Y-16293460D02*
X17803277Y-16283936D01*
X17803277Y-16283936D02*
X17793753Y-16264888D01*
X17793753Y-16264888D02*
X17784229Y-16226793D01*
X17784229Y-16226793D02*
X17784229Y-16179174D01*
X17784229Y-16179174D02*
X17793753Y-16141079D01*
X17793753Y-16141079D02*
X17803277Y-16122031D01*
X17803277Y-16122031D02*
X17812801Y-16112508D01*
X17812801Y-16112508D02*
X17831848Y-16102984D01*
X18088991Y-16302984D02*
X17974706Y-16302984D01*
X18031848Y-16302984D02*
X18031848Y-16102984D01*
X18031848Y-16102984D02*
X18012801Y-16131555D01*
X18012801Y-16131555D02*
X17993753Y-16150603D01*
X17993753Y-16150603D02*
X17974706Y-16160127D01*
X18279468Y-16302984D02*
X18165182Y-16302984D01*
X18222325Y-16302984D02*
X18222325Y-16102984D01*
X18222325Y-16102984D02*
X18203277Y-16131555D01*
X18203277Y-16131555D02*
X18184229Y-16150603D01*
X18184229Y-16150603D02*
X18165182Y-16160127D01*
X18393753Y-16188698D02*
X18374706Y-16179174D01*
X18374706Y-16179174D02*
X18365182Y-16169650D01*
X18365182Y-16169650D02*
X18355658Y-16150603D01*
X18355658Y-16150603D02*
X18355658Y-16141079D01*
X18355658Y-16141079D02*
X18365182Y-16122031D01*
X18365182Y-16122031D02*
X18374706Y-16112508D01*
X18374706Y-16112508D02*
X18393753Y-16102984D01*
X18393753Y-16102984D02*
X18431849Y-16102984D01*
X18431849Y-16102984D02*
X18450896Y-16112508D01*
X18450896Y-16112508D02*
X18460420Y-16122031D01*
X18460420Y-16122031D02*
X18469944Y-16141079D01*
X18469944Y-16141079D02*
X18469944Y-16150603D01*
X18469944Y-16150603D02*
X18460420Y-16169650D01*
X18460420Y-16169650D02*
X18450896Y-16179174D01*
X18450896Y-16179174D02*
X18431849Y-16188698D01*
X18431849Y-16188698D02*
X18393753Y-16188698D01*
X18393753Y-16188698D02*
X18374706Y-16198222D01*
X18374706Y-16198222D02*
X18365182Y-16207746D01*
X18365182Y-16207746D02*
X18355658Y-16226793D01*
X18355658Y-16226793D02*
X18355658Y-16264888D01*
X18355658Y-16264888D02*
X18365182Y-16283936D01*
X18365182Y-16283936D02*
X18374706Y-16293460D01*
X18374706Y-16293460D02*
X18393753Y-16302984D01*
X18393753Y-16302984D02*
X18431849Y-16302984D01*
X18431849Y-16302984D02*
X18450896Y-16293460D01*
X18450896Y-16293460D02*
X18460420Y-16283936D01*
X18460420Y-16283936D02*
X18469944Y-16264888D01*
X18469944Y-16264888D02*
X18469944Y-16226793D01*
X18469944Y-16226793D02*
X18460420Y-16207746D01*
X18460420Y-16207746D02*
X18450896Y-16198222D01*
X18450896Y-16198222D02*
X18431849Y-16188698D01*
X18546134Y-16102984D02*
X18546134Y-16141079D01*
X18622325Y-16102984D02*
X18622325Y-16141079D01*
X18917563Y-16379174D02*
X18908039Y-16369650D01*
X18908039Y-16369650D02*
X18888991Y-16341079D01*
X18888991Y-16341079D02*
X18879468Y-16322031D01*
X18879468Y-16322031D02*
X18869944Y-16293460D01*
X18869944Y-16293460D02*
X18860420Y-16245841D01*
X18860420Y-16245841D02*
X18860420Y-16207746D01*
X18860420Y-16207746D02*
X18869944Y-16160127D01*
X18869944Y-16160127D02*
X18879468Y-16131555D01*
X18879468Y-16131555D02*
X18888991Y-16112508D01*
X18888991Y-16112508D02*
X18908039Y-16083936D01*
X18908039Y-16083936D02*
X18917563Y-16074412D01*
X19098515Y-16302984D02*
X18984230Y-16302984D01*
X19041372Y-16302984D02*
X19041372Y-16102984D01*
X19041372Y-16102984D02*
X19022325Y-16131555D01*
X19022325Y-16131555D02*
X19003277Y-16150603D01*
X19003277Y-16150603D02*
X18984230Y-16160127D01*
X19336611Y-16302984D02*
X19336611Y-16102984D01*
X19422325Y-16302984D02*
X19422325Y-16198222D01*
X19422325Y-16198222D02*
X19412801Y-16179174D01*
X19412801Y-16179174D02*
X19393753Y-16169650D01*
X19393753Y-16169650D02*
X19365182Y-16169650D01*
X19365182Y-16169650D02*
X19346134Y-16179174D01*
X19346134Y-16179174D02*
X19336611Y-16188698D01*
X19546134Y-16302984D02*
X19527087Y-16293460D01*
X19527087Y-16293460D02*
X19517563Y-16283936D01*
X19517563Y-16283936D02*
X19508039Y-16264888D01*
X19508039Y-16264888D02*
X19508039Y-16207746D01*
X19508039Y-16207746D02*
X19517563Y-16188698D01*
X19517563Y-16188698D02*
X19527087Y-16179174D01*
X19527087Y-16179174D02*
X19546134Y-16169650D01*
X19546134Y-16169650D02*
X19574706Y-16169650D01*
X19574706Y-16169650D02*
X19593753Y-16179174D01*
X19593753Y-16179174D02*
X19603277Y-16188698D01*
X19603277Y-16188698D02*
X19612801Y-16207746D01*
X19612801Y-16207746D02*
X19612801Y-16264888D01*
X19612801Y-16264888D02*
X19603277Y-16283936D01*
X19603277Y-16283936D02*
X19593753Y-16293460D01*
X19593753Y-16293460D02*
X19574706Y-16302984D01*
X19574706Y-16302984D02*
X19546134Y-16302984D01*
X19727087Y-16302984D02*
X19708039Y-16293460D01*
X19708039Y-16293460D02*
X19698515Y-16274412D01*
X19698515Y-16274412D02*
X19698515Y-16102984D01*
X19879468Y-16293460D02*
X19860420Y-16302984D01*
X19860420Y-16302984D02*
X19822325Y-16302984D01*
X19822325Y-16302984D02*
X19803277Y-16293460D01*
X19803277Y-16293460D02*
X19793753Y-16274412D01*
X19793753Y-16274412D02*
X19793753Y-16198222D01*
X19793753Y-16198222D02*
X19803277Y-16179174D01*
X19803277Y-16179174D02*
X19822325Y-16169650D01*
X19822325Y-16169650D02*
X19860420Y-16169650D01*
X19860420Y-16169650D02*
X19879468Y-16179174D01*
X19879468Y-16179174D02*
X19888992Y-16198222D01*
X19888992Y-16198222D02*
X19888992Y-16217269D01*
X19888992Y-16217269D02*
X19793753Y-16236317D01*
X19955658Y-16379174D02*
X19965182Y-16369650D01*
X19965182Y-16369650D02*
X19984230Y-16341079D01*
X19984230Y-16341079D02*
X19993753Y-16322031D01*
X19993753Y-16322031D02*
X20003277Y-16293460D01*
X20003277Y-16293460D02*
X20012801Y-16245841D01*
X20012801Y-16245841D02*
X20012801Y-16207746D01*
X20012801Y-16207746D02*
X20003277Y-16160127D01*
X20003277Y-16160127D02*
X19993753Y-16131555D01*
X19993753Y-16131555D02*
X19984230Y-16112508D01*
X19984230Y-16112508D02*
X19965182Y-16083936D01*
X19965182Y-16083936D02*
X19955658Y-16074412D01*
D12*
X15292500Y-16425500D02*
X15292500Y-16525500D01*
X15242500Y-16475500D02*
X15342500Y-16475500D01*
D11*
X15708039Y-16566984D02*
X15593753Y-16566984D01*
X15650896Y-16566984D02*
X15650896Y-16366984D01*
X15650896Y-16366984D02*
X15631848Y-16395555D01*
X15631848Y-16395555D02*
X15612801Y-16414603D01*
X15612801Y-16414603D02*
X15593753Y-16424127D01*
X15793753Y-16547936D02*
X15803277Y-16557460D01*
X15803277Y-16557460D02*
X15793753Y-16566984D01*
X15793753Y-16566984D02*
X15784229Y-16557460D01*
X15784229Y-16557460D02*
X15793753Y-16547936D01*
X15793753Y-16547936D02*
X15793753Y-16566984D01*
X15927086Y-16366984D02*
X15946134Y-16366984D01*
X15946134Y-16366984D02*
X15965182Y-16376508D01*
X15965182Y-16376508D02*
X15974705Y-16386031D01*
X15974705Y-16386031D02*
X15984229Y-16405079D01*
X15984229Y-16405079D02*
X15993753Y-16443174D01*
X15993753Y-16443174D02*
X15993753Y-16490793D01*
X15993753Y-16490793D02*
X15984229Y-16528888D01*
X15984229Y-16528888D02*
X15974705Y-16547936D01*
X15974705Y-16547936D02*
X15965182Y-16557460D01*
X15965182Y-16557460D02*
X15946134Y-16566984D01*
X15946134Y-16566984D02*
X15927086Y-16566984D01*
X15927086Y-16566984D02*
X15908039Y-16557460D01*
X15908039Y-16557460D02*
X15898515Y-16547936D01*
X15898515Y-16547936D02*
X15888991Y-16528888D01*
X15888991Y-16528888D02*
X15879467Y-16490793D01*
X15879467Y-16490793D02*
X15879467Y-16443174D01*
X15879467Y-16443174D02*
X15888991Y-16405079D01*
X15888991Y-16405079D02*
X15898515Y-16386031D01*
X15898515Y-16386031D02*
X15908039Y-16376508D01*
X15908039Y-16376508D02*
X15927086Y-16366984D01*
X16117562Y-16366984D02*
X16136610Y-16366984D01*
X16136610Y-16366984D02*
X16155658Y-16376508D01*
X16155658Y-16376508D02*
X16165182Y-16386031D01*
X16165182Y-16386031D02*
X16174705Y-16405079D01*
X16174705Y-16405079D02*
X16184229Y-16443174D01*
X16184229Y-16443174D02*
X16184229Y-16490793D01*
X16184229Y-16490793D02*
X16174705Y-16528888D01*
X16174705Y-16528888D02*
X16165182Y-16547936D01*
X16165182Y-16547936D02*
X16155658Y-16557460D01*
X16155658Y-16557460D02*
X16136610Y-16566984D01*
X16136610Y-16566984D02*
X16117562Y-16566984D01*
X16117562Y-16566984D02*
X16098515Y-16557460D01*
X16098515Y-16557460D02*
X16088991Y-16547936D01*
X16088991Y-16547936D02*
X16079467Y-16528888D01*
X16079467Y-16528888D02*
X16069943Y-16490793D01*
X16069943Y-16490793D02*
X16069943Y-16443174D01*
X16069943Y-16443174D02*
X16079467Y-16405079D01*
X16079467Y-16405079D02*
X16088991Y-16386031D01*
X16088991Y-16386031D02*
X16098515Y-16376508D01*
X16098515Y-16376508D02*
X16117562Y-16366984D01*
X16308039Y-16366984D02*
X16327086Y-16366984D01*
X16327086Y-16366984D02*
X16346134Y-16376508D01*
X16346134Y-16376508D02*
X16355658Y-16386031D01*
X16355658Y-16386031D02*
X16365182Y-16405079D01*
X16365182Y-16405079D02*
X16374705Y-16443174D01*
X16374705Y-16443174D02*
X16374705Y-16490793D01*
X16374705Y-16490793D02*
X16365182Y-16528888D01*
X16365182Y-16528888D02*
X16355658Y-16547936D01*
X16355658Y-16547936D02*
X16346134Y-16557460D01*
X16346134Y-16557460D02*
X16327086Y-16566984D01*
X16327086Y-16566984D02*
X16308039Y-16566984D01*
X16308039Y-16566984D02*
X16288991Y-16557460D01*
X16288991Y-16557460D02*
X16279467Y-16547936D01*
X16279467Y-16547936D02*
X16269943Y-16528888D01*
X16269943Y-16528888D02*
X16260420Y-16490793D01*
X16260420Y-16490793D02*
X16260420Y-16443174D01*
X16260420Y-16443174D02*
X16269943Y-16405079D01*
X16269943Y-16405079D02*
X16279467Y-16386031D01*
X16279467Y-16386031D02*
X16288991Y-16376508D01*
X16288991Y-16376508D02*
X16308039Y-16366984D01*
X16460420Y-16566984D02*
X16460420Y-16433650D01*
X16460420Y-16452698D02*
X16469943Y-16443174D01*
X16469943Y-16443174D02*
X16488991Y-16433650D01*
X16488991Y-16433650D02*
X16517563Y-16433650D01*
X16517563Y-16433650D02*
X16536610Y-16443174D01*
X16536610Y-16443174D02*
X16546134Y-16462222D01*
X16546134Y-16462222D02*
X16546134Y-16566984D01*
X16546134Y-16462222D02*
X16555658Y-16443174D01*
X16555658Y-16443174D02*
X16574705Y-16433650D01*
X16574705Y-16433650D02*
X16603277Y-16433650D01*
X16603277Y-16433650D02*
X16622324Y-16443174D01*
X16622324Y-16443174D02*
X16631848Y-16462222D01*
X16631848Y-16462222D02*
X16631848Y-16566984D01*
X16727086Y-16566984D02*
X16727086Y-16433650D01*
X16727086Y-16452698D02*
X16736610Y-16443174D01*
X16736610Y-16443174D02*
X16755658Y-16433650D01*
X16755658Y-16433650D02*
X16784229Y-16433650D01*
X16784229Y-16433650D02*
X16803277Y-16443174D01*
X16803277Y-16443174D02*
X16812801Y-16462222D01*
X16812801Y-16462222D02*
X16812801Y-16566984D01*
X16812801Y-16462222D02*
X16822325Y-16443174D01*
X16822325Y-16443174D02*
X16841372Y-16433650D01*
X16841372Y-16433650D02*
X16869944Y-16433650D01*
X16869944Y-16433650D02*
X16888991Y-16443174D01*
X16888991Y-16443174D02*
X16898515Y-16462222D01*
X16898515Y-16462222D02*
X16898515Y-16566984D01*
X17288991Y-16357460D02*
X17117563Y-16614603D01*
X17546134Y-16366984D02*
X17565182Y-16366984D01*
X17565182Y-16366984D02*
X17584229Y-16376508D01*
X17584229Y-16376508D02*
X17593753Y-16386031D01*
X17593753Y-16386031D02*
X17603277Y-16405079D01*
X17603277Y-16405079D02*
X17612801Y-16443174D01*
X17612801Y-16443174D02*
X17612801Y-16490793D01*
X17612801Y-16490793D02*
X17603277Y-16528888D01*
X17603277Y-16528888D02*
X17593753Y-16547936D01*
X17593753Y-16547936D02*
X17584229Y-16557460D01*
X17584229Y-16557460D02*
X17565182Y-16566984D01*
X17565182Y-16566984D02*
X17546134Y-16566984D01*
X17546134Y-16566984D02*
X17527087Y-16557460D01*
X17527087Y-16557460D02*
X17517563Y-16547936D01*
X17517563Y-16547936D02*
X17508039Y-16528888D01*
X17508039Y-16528888D02*
X17498515Y-16490793D01*
X17498515Y-16490793D02*
X17498515Y-16443174D01*
X17498515Y-16443174D02*
X17508039Y-16405079D01*
X17508039Y-16405079D02*
X17517563Y-16386031D01*
X17517563Y-16386031D02*
X17527087Y-16376508D01*
X17527087Y-16376508D02*
X17546134Y-16366984D01*
X17698515Y-16547936D02*
X17708039Y-16557460D01*
X17708039Y-16557460D02*
X17698515Y-16566984D01*
X17698515Y-16566984D02*
X17688991Y-16557460D01*
X17688991Y-16557460D02*
X17698515Y-16547936D01*
X17698515Y-16547936D02*
X17698515Y-16566984D01*
X17831848Y-16366984D02*
X17850896Y-16366984D01*
X17850896Y-16366984D02*
X17869944Y-16376508D01*
X17869944Y-16376508D02*
X17879468Y-16386031D01*
X17879468Y-16386031D02*
X17888991Y-16405079D01*
X17888991Y-16405079D02*
X17898515Y-16443174D01*
X17898515Y-16443174D02*
X17898515Y-16490793D01*
X17898515Y-16490793D02*
X17888991Y-16528888D01*
X17888991Y-16528888D02*
X17879468Y-16547936D01*
X17879468Y-16547936D02*
X17869944Y-16557460D01*
X17869944Y-16557460D02*
X17850896Y-16566984D01*
X17850896Y-16566984D02*
X17831848Y-16566984D01*
X17831848Y-16566984D02*
X17812801Y-16557460D01*
X17812801Y-16557460D02*
X17803277Y-16547936D01*
X17803277Y-16547936D02*
X17793753Y-16528888D01*
X17793753Y-16528888D02*
X17784229Y-16490793D01*
X17784229Y-16490793D02*
X17784229Y-16443174D01*
X17784229Y-16443174D02*
X17793753Y-16405079D01*
X17793753Y-16405079D02*
X17803277Y-16386031D01*
X17803277Y-16386031D02*
X17812801Y-16376508D01*
X17812801Y-16376508D02*
X17831848Y-16366984D01*
X17965182Y-16366984D02*
X18088991Y-16366984D01*
X18088991Y-16366984D02*
X18022325Y-16443174D01*
X18022325Y-16443174D02*
X18050896Y-16443174D01*
X18050896Y-16443174D02*
X18069944Y-16452698D01*
X18069944Y-16452698D02*
X18079468Y-16462222D01*
X18079468Y-16462222D02*
X18088991Y-16481269D01*
X18088991Y-16481269D02*
X18088991Y-16528888D01*
X18088991Y-16528888D02*
X18079468Y-16547936D01*
X18079468Y-16547936D02*
X18069944Y-16557460D01*
X18069944Y-16557460D02*
X18050896Y-16566984D01*
X18050896Y-16566984D02*
X17993753Y-16566984D01*
X17993753Y-16566984D02*
X17974706Y-16557460D01*
X17974706Y-16557460D02*
X17965182Y-16547936D01*
X18184229Y-16566984D02*
X18222325Y-16566984D01*
X18222325Y-16566984D02*
X18241372Y-16557460D01*
X18241372Y-16557460D02*
X18250896Y-16547936D01*
X18250896Y-16547936D02*
X18269944Y-16519365D01*
X18269944Y-16519365D02*
X18279468Y-16481269D01*
X18279468Y-16481269D02*
X18279468Y-16405079D01*
X18279468Y-16405079D02*
X18269944Y-16386031D01*
X18269944Y-16386031D02*
X18260420Y-16376508D01*
X18260420Y-16376508D02*
X18241372Y-16366984D01*
X18241372Y-16366984D02*
X18203277Y-16366984D01*
X18203277Y-16366984D02*
X18184229Y-16376508D01*
X18184229Y-16376508D02*
X18174706Y-16386031D01*
X18174706Y-16386031D02*
X18165182Y-16405079D01*
X18165182Y-16405079D02*
X18165182Y-16452698D01*
X18165182Y-16452698D02*
X18174706Y-16471746D01*
X18174706Y-16471746D02*
X18184229Y-16481269D01*
X18184229Y-16481269D02*
X18203277Y-16490793D01*
X18203277Y-16490793D02*
X18241372Y-16490793D01*
X18241372Y-16490793D02*
X18260420Y-16481269D01*
X18260420Y-16481269D02*
X18269944Y-16471746D01*
X18269944Y-16471746D02*
X18279468Y-16452698D01*
X18450896Y-16433650D02*
X18450896Y-16566984D01*
X18403277Y-16357460D02*
X18355658Y-16500317D01*
X18355658Y-16500317D02*
X18479468Y-16500317D01*
X18546134Y-16366984D02*
X18546134Y-16405079D01*
X18622325Y-16366984D02*
X18622325Y-16405079D01*
X18917563Y-16643174D02*
X18908039Y-16633650D01*
X18908039Y-16633650D02*
X18888991Y-16605079D01*
X18888991Y-16605079D02*
X18879468Y-16586031D01*
X18879468Y-16586031D02*
X18869944Y-16557460D01*
X18869944Y-16557460D02*
X18860420Y-16509841D01*
X18860420Y-16509841D02*
X18860420Y-16471746D01*
X18860420Y-16471746D02*
X18869944Y-16424127D01*
X18869944Y-16424127D02*
X18879468Y-16395555D01*
X18879468Y-16395555D02*
X18888991Y-16376508D01*
X18888991Y-16376508D02*
X18908039Y-16347936D01*
X18908039Y-16347936D02*
X18917563Y-16338412D01*
X19022325Y-16452698D02*
X19003277Y-16443174D01*
X19003277Y-16443174D02*
X18993753Y-16433650D01*
X18993753Y-16433650D02*
X18984230Y-16414603D01*
X18984230Y-16414603D02*
X18984230Y-16405079D01*
X18984230Y-16405079D02*
X18993753Y-16386031D01*
X18993753Y-16386031D02*
X19003277Y-16376508D01*
X19003277Y-16376508D02*
X19022325Y-16366984D01*
X19022325Y-16366984D02*
X19060420Y-16366984D01*
X19060420Y-16366984D02*
X19079468Y-16376508D01*
X19079468Y-16376508D02*
X19088991Y-16386031D01*
X19088991Y-16386031D02*
X19098515Y-16405079D01*
X19098515Y-16405079D02*
X19098515Y-16414603D01*
X19098515Y-16414603D02*
X19088991Y-16433650D01*
X19088991Y-16433650D02*
X19079468Y-16443174D01*
X19079468Y-16443174D02*
X19060420Y-16452698D01*
X19060420Y-16452698D02*
X19022325Y-16452698D01*
X19022325Y-16452698D02*
X19003277Y-16462222D01*
X19003277Y-16462222D02*
X18993753Y-16471746D01*
X18993753Y-16471746D02*
X18984230Y-16490793D01*
X18984230Y-16490793D02*
X18984230Y-16528888D01*
X18984230Y-16528888D02*
X18993753Y-16547936D01*
X18993753Y-16547936D02*
X19003277Y-16557460D01*
X19003277Y-16557460D02*
X19022325Y-16566984D01*
X19022325Y-16566984D02*
X19060420Y-16566984D01*
X19060420Y-16566984D02*
X19079468Y-16557460D01*
X19079468Y-16557460D02*
X19088991Y-16547936D01*
X19088991Y-16547936D02*
X19098515Y-16528888D01*
X19098515Y-16528888D02*
X19098515Y-16490793D01*
X19098515Y-16490793D02*
X19088991Y-16471746D01*
X19088991Y-16471746D02*
X19079468Y-16462222D01*
X19079468Y-16462222D02*
X19060420Y-16452698D01*
X19288991Y-16566984D02*
X19174706Y-16566984D01*
X19231849Y-16566984D02*
X19231849Y-16366984D01*
X19231849Y-16366984D02*
X19212801Y-16395555D01*
X19212801Y-16395555D02*
X19193753Y-16414603D01*
X19193753Y-16414603D02*
X19174706Y-16424127D01*
X19527087Y-16566984D02*
X19527087Y-16366984D01*
X19612801Y-16566984D02*
X19612801Y-16462222D01*
X19612801Y-16462222D02*
X19603277Y-16443174D01*
X19603277Y-16443174D02*
X19584230Y-16433650D01*
X19584230Y-16433650D02*
X19555658Y-16433650D01*
X19555658Y-16433650D02*
X19536611Y-16443174D01*
X19536611Y-16443174D02*
X19527087Y-16452698D01*
X19736611Y-16566984D02*
X19717563Y-16557460D01*
X19717563Y-16557460D02*
X19708039Y-16547936D01*
X19708039Y-16547936D02*
X19698515Y-16528888D01*
X19698515Y-16528888D02*
X19698515Y-16471746D01*
X19698515Y-16471746D02*
X19708039Y-16452698D01*
X19708039Y-16452698D02*
X19717563Y-16443174D01*
X19717563Y-16443174D02*
X19736611Y-16433650D01*
X19736611Y-16433650D02*
X19765182Y-16433650D01*
X19765182Y-16433650D02*
X19784230Y-16443174D01*
X19784230Y-16443174D02*
X19793753Y-16452698D01*
X19793753Y-16452698D02*
X19803277Y-16471746D01*
X19803277Y-16471746D02*
X19803277Y-16528888D01*
X19803277Y-16528888D02*
X19793753Y-16547936D01*
X19793753Y-16547936D02*
X19784230Y-16557460D01*
X19784230Y-16557460D02*
X19765182Y-16566984D01*
X19765182Y-16566984D02*
X19736611Y-16566984D01*
X19917563Y-16566984D02*
X19898515Y-16557460D01*
X19898515Y-16557460D02*
X19888992Y-16538412D01*
X19888992Y-16538412D02*
X19888992Y-16366984D01*
X20069944Y-16557460D02*
X20050896Y-16566984D01*
X20050896Y-16566984D02*
X20012801Y-16566984D01*
X20012801Y-16566984D02*
X19993753Y-16557460D01*
X19993753Y-16557460D02*
X19984230Y-16538412D01*
X19984230Y-16538412D02*
X19984230Y-16462222D01*
X19984230Y-16462222D02*
X19993753Y-16443174D01*
X19993753Y-16443174D02*
X20012801Y-16433650D01*
X20012801Y-16433650D02*
X20050896Y-16433650D01*
X20050896Y-16433650D02*
X20069944Y-16443174D01*
X20069944Y-16443174D02*
X20079468Y-16462222D01*
X20079468Y-16462222D02*
X20079468Y-16481269D01*
X20079468Y-16481269D02*
X19984230Y-16500317D01*
X20155658Y-16557460D02*
X20174706Y-16566984D01*
X20174706Y-16566984D02*
X20212801Y-16566984D01*
X20212801Y-16566984D02*
X20231849Y-16557460D01*
X20231849Y-16557460D02*
X20241373Y-16538412D01*
X20241373Y-16538412D02*
X20241373Y-16528888D01*
X20241373Y-16528888D02*
X20231849Y-16509841D01*
X20231849Y-16509841D02*
X20212801Y-16500317D01*
X20212801Y-16500317D02*
X20184230Y-16500317D01*
X20184230Y-16500317D02*
X20165182Y-16490793D01*
X20165182Y-16490793D02*
X20155658Y-16471746D01*
X20155658Y-16471746D02*
X20155658Y-16462222D01*
X20155658Y-16462222D02*
X20165182Y-16443174D01*
X20165182Y-16443174D02*
X20184230Y-16433650D01*
X20184230Y-16433650D02*
X20212801Y-16433650D01*
X20212801Y-16433650D02*
X20231849Y-16443174D01*
X20308039Y-16643174D02*
X20317563Y-16633650D01*
X20317563Y-16633650D02*
X20336611Y-16605079D01*
X20336611Y-16605079D02*
X20346134Y-16586031D01*
X20346134Y-16586031D02*
X20355658Y-16557460D01*
X20355658Y-16557460D02*
X20365182Y-16509841D01*
X20365182Y-16509841D02*
X20365182Y-16471746D01*
X20365182Y-16471746D02*
X20355658Y-16424127D01*
X20355658Y-16424127D02*
X20346134Y-16395555D01*
X20346134Y-16395555D02*
X20336611Y-16376508D01*
X20336611Y-16376508D02*
X20317563Y-16347936D01*
X20317563Y-16347936D02*
X20308039Y-16338412D01*
M02*
