G04 #@! TF.GenerationSoftware,KiCad,Pcbnew,8.0.5*
G04 #@! TF.CreationDate,2025-01-09T14:19:17-04:00*
G04 #@! TF.ProjectId,RAMEXB_V22_Github,52414d45-5842-45f5-9632-325f47697468,rev?*
G04 #@! TF.SameCoordinates,Original*
G04 #@! TF.FileFunction,Paste,Top*
G04 #@! TF.FilePolarity,Positive*
%FSLAX46Y46*%
G04 Gerber Fmt 4.6, Leading zero omitted, Abs format (unit mm)*
G04 Created by KiCad (PCBNEW 8.0.5) date 2025-01-09 14:19:17*
%MOMM*%
%LPD*%
G01*
G04 APERTURE LIST*
G04 Aperture macros list*
%AMRoundRect*
0 Rectangle with rounded corners*
0 $1 Rounding radius*
0 $2 $3 $4 $5 $6 $7 $8 $9 X,Y pos of 4 corners*
0 Add a 4 corners polygon primitive as box body*
4,1,4,$2,$3,$4,$5,$6,$7,$8,$9,$2,$3,0*
0 Add four circle primitives for the rounded corners*
1,1,$1+$1,$2,$3*
1,1,$1+$1,$4,$5*
1,1,$1+$1,$6,$7*
1,1,$1+$1,$8,$9*
0 Add four rect primitives between the rounded corners*
20,1,$1+$1,$2,$3,$4,$5,0*
20,1,$1+$1,$4,$5,$6,$7,0*
20,1,$1+$1,$6,$7,$8,$9,0*
20,1,$1+$1,$8,$9,$2,$3,0*%
G04 Aperture macros list end*
%ADD10RoundRect,0.250000X0.350000X0.450000X-0.350000X0.450000X-0.350000X-0.450000X0.350000X-0.450000X0*%
%ADD11RoundRect,0.137500X0.137500X-1.361500X0.137500X1.361500X-0.137500X1.361500X-0.137500X-1.361500X0*%
%ADD12RoundRect,0.250000X0.450000X-0.350000X0.450000X0.350000X-0.450000X0.350000X-0.450000X-0.350000X0*%
%ADD13RoundRect,0.250000X-0.350000X-0.450000X0.350000X-0.450000X0.350000X0.450000X-0.350000X0.450000X0*%
%ADD14RoundRect,0.312500X0.312500X0.312500X-0.312500X0.312500X-0.312500X-0.312500X0.312500X-0.312500X0*%
%ADD15R,1.250000X0.760000*%
%ADD16RoundRect,0.150000X-0.875000X-0.150000X0.875000X-0.150000X0.875000X0.150000X-0.875000X0.150000X0*%
%ADD17RoundRect,0.150000X-0.725000X-0.150000X0.725000X-0.150000X0.725000X0.150000X-0.725000X0.150000X0*%
%ADD18RoundRect,0.250000X-0.450000X0.350000X-0.450000X-0.350000X0.450000X-0.350000X0.450000X0.350000X0*%
%ADD19RoundRect,0.250000X0.875000X0.925000X-0.875000X0.925000X-0.875000X-0.925000X0.875000X-0.925000X0*%
%ADD20RoundRect,0.150000X-0.825000X-0.150000X0.825000X-0.150000X0.825000X0.150000X-0.825000X0.150000X0*%
G04 APERTURE END LIST*
D10*
G04 #@! TO.C,R25*
X204900000Y-127100000D03*
X202900000Y-127100000D03*
G04 #@! TD*
D11*
G04 #@! TO.C,U17*
X219935000Y-27430300D03*
X221205000Y-27430300D03*
X222475000Y-27430300D03*
X223745000Y-27430300D03*
X225015000Y-27430300D03*
X226285000Y-27430300D03*
X227555000Y-27430300D03*
X228825000Y-27430300D03*
X230095000Y-27430300D03*
X231365000Y-27430300D03*
X232635000Y-27430300D03*
X233905000Y-27430300D03*
X235175000Y-27430300D03*
X236445000Y-27430300D03*
X237715000Y-27430300D03*
X238985000Y-27430300D03*
X240255000Y-27430300D03*
X241525000Y-27430300D03*
X242795000Y-27430300D03*
X244065000Y-27430300D03*
X244065000Y-18540300D03*
X242795000Y-18540300D03*
X241525000Y-18540300D03*
X240255000Y-18540300D03*
X238985000Y-18540300D03*
X237715000Y-18540300D03*
X236445000Y-18540300D03*
X235175000Y-18540300D03*
X233905000Y-18540300D03*
X232635000Y-18540300D03*
X231365000Y-18540300D03*
X230095000Y-18540300D03*
X228825000Y-18540300D03*
X227555000Y-18540300D03*
X226285000Y-18540300D03*
X225015000Y-18540300D03*
X223745000Y-18540300D03*
X222475000Y-18540300D03*
X221205000Y-18540300D03*
X219935000Y-18540300D03*
G04 #@! TD*
D12*
G04 #@! TO.C,R3*
X164550000Y-110296400D03*
X164550000Y-108296400D03*
G04 #@! TD*
D13*
G04 #@! TO.C,R21*
X202885000Y-47122000D03*
X204885000Y-47122000D03*
G04 #@! TD*
G04 #@! TO.C,R1*
X211255000Y-133525000D03*
X213255000Y-133525000D03*
G04 #@! TD*
G04 #@! TO.C,R8*
X202885000Y-55990000D03*
X204885000Y-55990000D03*
G04 #@! TD*
D11*
G04 #@! TO.C,U12*
X219935000Y-74108700D03*
X221205000Y-74108700D03*
X222475000Y-74108700D03*
X223745000Y-74108700D03*
X225015000Y-74108700D03*
X226285000Y-74108700D03*
X227555000Y-74108700D03*
X228825000Y-74108700D03*
X230095000Y-74108700D03*
X231365000Y-74108700D03*
X232635000Y-74108700D03*
X233905000Y-74108700D03*
X235175000Y-74108700D03*
X236445000Y-74108700D03*
X237715000Y-74108700D03*
X238985000Y-74108700D03*
X240255000Y-74108700D03*
X241525000Y-74108700D03*
X242795000Y-74108700D03*
X244065000Y-74108700D03*
X244065000Y-65218700D03*
X242795000Y-65218700D03*
X241525000Y-65218700D03*
X240255000Y-65218700D03*
X238985000Y-65218700D03*
X237715000Y-65218700D03*
X236445000Y-65218700D03*
X235175000Y-65218700D03*
X233905000Y-65218700D03*
X232635000Y-65218700D03*
X231365000Y-65218700D03*
X230095000Y-65218700D03*
X228825000Y-65218700D03*
X227555000Y-65218700D03*
X226285000Y-65218700D03*
X225015000Y-65218700D03*
X223745000Y-65218700D03*
X222475000Y-65218700D03*
X221205000Y-65218700D03*
X219935000Y-65218700D03*
G04 #@! TD*
D14*
G04 #@! TO.C,D1*
X158390000Y-139290000D03*
X155290000Y-139290000D03*
G04 #@! TD*
D15*
G04 #@! TO.C,SWA1*
X208560000Y-22880000D03*
X208560000Y-24150000D03*
X208560000Y-25420000D03*
X208560000Y-26690000D03*
X208560000Y-27960000D03*
X208560000Y-29230000D03*
X208560000Y-30500000D03*
X208560000Y-31770000D03*
X214710000Y-31770000D03*
X214710000Y-30500000D03*
X214710000Y-29230000D03*
X214710000Y-27960000D03*
X214710000Y-26690000D03*
X214710000Y-25420000D03*
X214710000Y-24150000D03*
X214710000Y-22880000D03*
G04 #@! TD*
D12*
G04 #@! TO.C,R4*
X181720000Y-139800000D03*
X181720000Y-137800000D03*
G04 #@! TD*
D11*
G04 #@! TO.C,U16*
X219935000Y-135800000D03*
X221205000Y-135800000D03*
X222475000Y-135800000D03*
X223745000Y-135800000D03*
X225015000Y-135800000D03*
X226285000Y-135800000D03*
X227555000Y-135800000D03*
X228825000Y-135800000D03*
X230095000Y-135800000D03*
X231365000Y-135800000D03*
X232635000Y-135800000D03*
X233905000Y-135800000D03*
X235175000Y-135800000D03*
X236445000Y-135800000D03*
X237715000Y-135800000D03*
X238985000Y-135800000D03*
X240255000Y-135800000D03*
X241525000Y-135800000D03*
X242795000Y-135800000D03*
X244065000Y-135800000D03*
X244065000Y-126910000D03*
X242795000Y-126910000D03*
X241525000Y-126910000D03*
X240255000Y-126910000D03*
X238985000Y-126910000D03*
X237715000Y-126910000D03*
X236445000Y-126910000D03*
X235175000Y-126910000D03*
X233905000Y-126910000D03*
X232635000Y-126910000D03*
X231365000Y-126910000D03*
X230095000Y-126910000D03*
X228825000Y-126910000D03*
X227555000Y-126910000D03*
X226285000Y-126910000D03*
X225015000Y-126910000D03*
X223745000Y-126910000D03*
X222475000Y-126910000D03*
X221205000Y-126910000D03*
X219935000Y-126910000D03*
G04 #@! TD*
G04 #@! TO.C,U10*
X219935000Y-58349200D03*
X221205000Y-58349200D03*
X222475000Y-58349200D03*
X223745000Y-58349200D03*
X225015000Y-58349200D03*
X226285000Y-58349200D03*
X227555000Y-58349200D03*
X228825000Y-58349200D03*
X230095000Y-58349200D03*
X231365000Y-58349200D03*
X232635000Y-58349200D03*
X233905000Y-58349200D03*
X235175000Y-58349200D03*
X236445000Y-58349200D03*
X237715000Y-58349200D03*
X238985000Y-58349200D03*
X240255000Y-58349200D03*
X241525000Y-58349200D03*
X242795000Y-58349200D03*
X244065000Y-58349200D03*
X244065000Y-49459200D03*
X242795000Y-49459200D03*
X241525000Y-49459200D03*
X240255000Y-49459200D03*
X238985000Y-49459200D03*
X237715000Y-49459200D03*
X236445000Y-49459200D03*
X235175000Y-49459200D03*
X233905000Y-49459200D03*
X232635000Y-49459200D03*
X231365000Y-49459200D03*
X230095000Y-49459200D03*
X228825000Y-49459200D03*
X227555000Y-49459200D03*
X226285000Y-49459200D03*
X225015000Y-49459200D03*
X223745000Y-49459200D03*
X222475000Y-49459200D03*
X221205000Y-49459200D03*
X219935000Y-49459200D03*
G04 #@! TD*
D13*
G04 #@! TO.C,R18*
X202885000Y-53773000D03*
X204885000Y-53773000D03*
G04 #@! TD*
D16*
G04 #@! TO.C,U5*
X163050000Y-64333600D03*
X163050000Y-65603600D03*
X163050000Y-66873600D03*
X163050000Y-68143600D03*
X163050000Y-69413600D03*
X163050000Y-70683600D03*
X163050000Y-71953600D03*
X163050000Y-73223600D03*
X163050000Y-74493600D03*
X163050000Y-75763600D03*
X172350000Y-75763600D03*
X172350000Y-74493600D03*
X172350000Y-73223600D03*
X172350000Y-71953600D03*
X172350000Y-70683600D03*
X172350000Y-69413600D03*
X172350000Y-68143600D03*
X172350000Y-66873600D03*
X172350000Y-65603600D03*
X172350000Y-64333600D03*
G04 #@! TD*
D11*
G04 #@! TO.C,U13*
X219935000Y-120251400D03*
X221205000Y-120251400D03*
X222475000Y-120251400D03*
X223745000Y-120251400D03*
X225015000Y-120251400D03*
X226285000Y-120251400D03*
X227555000Y-120251400D03*
X228825000Y-120251400D03*
X230095000Y-120251400D03*
X231365000Y-120251400D03*
X232635000Y-120251400D03*
X233905000Y-120251400D03*
X235175000Y-120251400D03*
X236445000Y-120251400D03*
X237715000Y-120251400D03*
X238985000Y-120251400D03*
X240255000Y-120251400D03*
X241525000Y-120251400D03*
X242795000Y-120251400D03*
X244065000Y-120251400D03*
X244065000Y-111361400D03*
X242795000Y-111361400D03*
X241525000Y-111361400D03*
X240255000Y-111361400D03*
X238985000Y-111361400D03*
X237715000Y-111361400D03*
X236445000Y-111361400D03*
X235175000Y-111361400D03*
X233905000Y-111361400D03*
X232635000Y-111361400D03*
X231365000Y-111361400D03*
X230095000Y-111361400D03*
X228825000Y-111361400D03*
X227555000Y-111361400D03*
X226285000Y-111361400D03*
X225015000Y-111361400D03*
X223745000Y-111361400D03*
X222475000Y-111361400D03*
X221205000Y-111361400D03*
X219935000Y-111361400D03*
G04 #@! TD*
D13*
G04 #@! TO.C,R14*
X203400000Y-103100000D03*
X205400000Y-103100000D03*
G04 #@! TD*
G04 #@! TO.C,R12*
X203400000Y-96500000D03*
X205400000Y-96500000D03*
G04 #@! TD*
D14*
G04 #@! TO.C,D2*
X158390000Y-141900000D03*
X155290000Y-141900000D03*
G04 #@! TD*
D13*
G04 #@! TO.C,R16*
X203400000Y-91600000D03*
X205400000Y-91600000D03*
G04 #@! TD*
D17*
G04 #@! TO.C,U9*
X190945000Y-41245000D03*
X190945000Y-42515000D03*
X190945000Y-43785000D03*
X190945000Y-45055000D03*
X190945000Y-46325000D03*
X190945000Y-47595000D03*
X190945000Y-48865000D03*
X190945000Y-50135000D03*
X196095000Y-50135000D03*
X196095000Y-48865000D03*
X196095000Y-47595000D03*
X196095000Y-46325000D03*
X196095000Y-45055000D03*
X196095000Y-43785000D03*
X196095000Y-42515000D03*
X196095000Y-41245000D03*
G04 #@! TD*
G04 #@! TO.C,U8*
X190880000Y-24160000D03*
X190880000Y-25430000D03*
X190880000Y-26700000D03*
X190880000Y-27970000D03*
X190880000Y-29240000D03*
X190880000Y-30510000D03*
X190880000Y-31780000D03*
X190880000Y-33050000D03*
X196030000Y-33050000D03*
X196030000Y-31780000D03*
X196030000Y-30510000D03*
X196030000Y-29240000D03*
X196030000Y-27970000D03*
X196030000Y-26700000D03*
X196030000Y-25430000D03*
X196030000Y-24160000D03*
G04 #@! TD*
D13*
G04 #@! TO.C,R6*
X202885000Y-51556000D03*
X204885000Y-51556000D03*
G04 #@! TD*
G04 #@! TO.C,R15*
X203400000Y-101000000D03*
X205400000Y-101000000D03*
G04 #@! TD*
D10*
G04 #@! TO.C,R5*
X204900000Y-132130000D03*
X202900000Y-132130000D03*
G04 #@! TD*
D13*
G04 #@! TO.C,R20*
X202885000Y-49339000D03*
X204885000Y-49339000D03*
G04 #@! TD*
G04 #@! TO.C,R19*
X203930000Y-24156800D03*
X205930000Y-24156800D03*
G04 #@! TD*
G04 #@! TO.C,R13*
X203400000Y-98700000D03*
X205400000Y-98700000D03*
G04 #@! TD*
D16*
G04 #@! TO.C,U6*
X205505000Y-64385000D03*
X205505000Y-65655000D03*
X205505000Y-66925000D03*
X205505000Y-68195000D03*
X205505000Y-69465000D03*
X205505000Y-70735000D03*
X205505000Y-72005000D03*
X205505000Y-73275000D03*
X205505000Y-74545000D03*
X205505000Y-75815000D03*
X214805000Y-75815000D03*
X214805000Y-74545000D03*
X214805000Y-73275000D03*
X214805000Y-72005000D03*
X214805000Y-70735000D03*
X214805000Y-69465000D03*
X214805000Y-68195000D03*
X214805000Y-66925000D03*
X214805000Y-65655000D03*
X214805000Y-64385000D03*
G04 #@! TD*
D18*
G04 #@! TO.C,R27*
X204280000Y-139640000D03*
X204280000Y-141640000D03*
G04 #@! TD*
D13*
G04 #@! TO.C,R17*
X203400000Y-87400000D03*
X205400000Y-87400000D03*
G04 #@! TD*
D17*
G04 #@! TO.C,U1*
X195250000Y-123280000D03*
X195250000Y-124550000D03*
X195250000Y-125820000D03*
X195250000Y-127090000D03*
X195250000Y-128360000D03*
X195250000Y-129630000D03*
X195250000Y-130900000D03*
X195250000Y-132170000D03*
X200400000Y-132170000D03*
X200400000Y-130900000D03*
X200400000Y-129630000D03*
X200400000Y-128360000D03*
X200400000Y-127090000D03*
X200400000Y-125820000D03*
X200400000Y-124550000D03*
X200400000Y-123280000D03*
G04 #@! TD*
D13*
G04 #@! TO.C,R22*
X203865000Y-20495000D03*
X205865000Y-20495000D03*
G04 #@! TD*
G04 #@! TO.C,R10*
X203400000Y-93700000D03*
X205400000Y-93700000D03*
G04 #@! TD*
D19*
G04 #@! TO.C,C2*
X169495000Y-82775000D03*
X164395000Y-82775000D03*
G04 #@! TD*
D18*
G04 #@! TO.C,R11*
X190685000Y-36165000D03*
X190685000Y-38165000D03*
G04 #@! TD*
D13*
G04 #@! TO.C,R9*
X203400000Y-89500000D03*
X205400000Y-89500000D03*
G04 #@! TD*
G04 #@! TO.C,R7*
X198510000Y-26710000D03*
X200510000Y-26710000D03*
G04 #@! TD*
D11*
G04 #@! TO.C,U14*
X219935000Y-104849800D03*
X221205000Y-104849800D03*
X222475000Y-104849800D03*
X223745000Y-104849800D03*
X225015000Y-104849800D03*
X226285000Y-104849800D03*
X227555000Y-104849800D03*
X228825000Y-104849800D03*
X230095000Y-104849800D03*
X231365000Y-104849800D03*
X232635000Y-104849800D03*
X233905000Y-104849800D03*
X235175000Y-104849800D03*
X236445000Y-104849800D03*
X237715000Y-104849800D03*
X238985000Y-104849800D03*
X240255000Y-104849800D03*
X241525000Y-104849800D03*
X242795000Y-104849800D03*
X244065000Y-104849800D03*
X244065000Y-95959800D03*
X242795000Y-95959800D03*
X241525000Y-95959800D03*
X240255000Y-95959800D03*
X238985000Y-95959800D03*
X237715000Y-95959800D03*
X236445000Y-95959800D03*
X235175000Y-95959800D03*
X233905000Y-95959800D03*
X232635000Y-95959800D03*
X231365000Y-95959800D03*
X230095000Y-95959800D03*
X228825000Y-95959800D03*
X227555000Y-95959800D03*
X226285000Y-95959800D03*
X225015000Y-95959800D03*
X223745000Y-95959800D03*
X222475000Y-95959800D03*
X221205000Y-95959800D03*
X219935000Y-95959800D03*
G04 #@! TD*
D17*
G04 #@! TO.C,U2*
X195200000Y-138540000D03*
X195200000Y-139810000D03*
X195200000Y-141080000D03*
X195200000Y-142350000D03*
X195200000Y-143620000D03*
X195200000Y-144890000D03*
X195200000Y-146160000D03*
X195200000Y-147430000D03*
X200350000Y-147430000D03*
X200350000Y-146160000D03*
X200350000Y-144890000D03*
X200350000Y-143620000D03*
X200350000Y-142350000D03*
X200350000Y-141080000D03*
X200350000Y-139810000D03*
X200350000Y-138540000D03*
G04 #@! TD*
D18*
G04 #@! TO.C,R2*
X206480000Y-139610000D03*
X206480000Y-141610000D03*
G04 #@! TD*
D11*
G04 #@! TO.C,U15*
X219935000Y-42890000D03*
X221205000Y-42890000D03*
X222475000Y-42890000D03*
X223745000Y-42890000D03*
X225015000Y-42890000D03*
X226285000Y-42890000D03*
X227555000Y-42890000D03*
X228825000Y-42890000D03*
X230095000Y-42890000D03*
X231365000Y-42890000D03*
X232635000Y-42890000D03*
X233905000Y-42890000D03*
X235175000Y-42890000D03*
X236445000Y-42890000D03*
X237715000Y-42890000D03*
X238985000Y-42890000D03*
X240255000Y-42890000D03*
X241525000Y-42890000D03*
X242795000Y-42890000D03*
X244065000Y-42890000D03*
X244065000Y-34000000D03*
X242795000Y-34000000D03*
X241525000Y-34000000D03*
X240255000Y-34000000D03*
X238985000Y-34000000D03*
X237715000Y-34000000D03*
X236445000Y-34000000D03*
X235175000Y-34000000D03*
X233905000Y-34000000D03*
X232635000Y-34000000D03*
X231365000Y-34000000D03*
X230095000Y-34000000D03*
X228825000Y-34000000D03*
X227555000Y-34000000D03*
X226285000Y-34000000D03*
X225015000Y-34000000D03*
X223745000Y-34000000D03*
X222475000Y-34000000D03*
X221205000Y-34000000D03*
X219935000Y-34000000D03*
G04 #@! TD*
D13*
G04 #@! TO.C,R23*
X203940000Y-27970000D03*
X205940000Y-27970000D03*
G04 #@! TD*
D20*
G04 #@! TO.C,U7*
X184750000Y-139795000D03*
X184750000Y-141065000D03*
X184750000Y-142335000D03*
X184750000Y-143605000D03*
X184750000Y-144875000D03*
X184750000Y-146145000D03*
X184750000Y-147415000D03*
X189700000Y-147415000D03*
X189700000Y-146145000D03*
X189700000Y-144875000D03*
X189700000Y-143605000D03*
X189700000Y-142335000D03*
X189700000Y-141065000D03*
X189700000Y-139795000D03*
G04 #@! TD*
D11*
G04 #@! TO.C,U11*
X219935000Y-89206300D03*
X221205000Y-89206300D03*
X222475000Y-89206300D03*
X223745000Y-89206300D03*
X225015000Y-89206300D03*
X226285000Y-89206300D03*
X227555000Y-89206300D03*
X228825000Y-89206300D03*
X230095000Y-89206300D03*
X231365000Y-89206300D03*
X232635000Y-89206300D03*
X233905000Y-89206300D03*
X235175000Y-89206300D03*
X236445000Y-89206300D03*
X237715000Y-89206300D03*
X238985000Y-89206300D03*
X240255000Y-89206300D03*
X241525000Y-89206300D03*
X242795000Y-89206300D03*
X244065000Y-89206300D03*
X244065000Y-80316300D03*
X242795000Y-80316300D03*
X241525000Y-80316300D03*
X240255000Y-80316300D03*
X238985000Y-80316300D03*
X237715000Y-80316300D03*
X236445000Y-80316300D03*
X235175000Y-80316300D03*
X233905000Y-80316300D03*
X232635000Y-80316300D03*
X231365000Y-80316300D03*
X230095000Y-80316300D03*
X228825000Y-80316300D03*
X227555000Y-80316300D03*
X226285000Y-80316300D03*
X225015000Y-80316300D03*
X223745000Y-80316300D03*
X222475000Y-80316300D03*
X221205000Y-80316300D03*
X219935000Y-80316300D03*
G04 #@! TD*
D10*
G04 #@! TO.C,R26*
X193820000Y-22000000D03*
X191820000Y-22000000D03*
G04 #@! TD*
M02*
