G04 #@! TF.GenerationSoftware,KiCad,Pcbnew,8.0.5*
G04 #@! TF.CreationDate,2025-01-10T10:03:17-04:00*
G04 #@! TF.ProjectId,RAMEXB_V2_2,52414d45-5842-45f5-9632-5f322e6b6963,rev?*
G04 #@! TF.SameCoordinates,Original*
G04 #@! TF.FileFunction,Legend,Bot*
G04 #@! TF.FilePolarity,Positive*
%FSLAX46Y46*%
G04 Gerber Fmt 4.6, Leading zero omitted, Abs format (unit mm)*
G04 Created by KiCad (PCBNEW 8.0.5) date 2025-01-10 10:03:17*
%MOMM*%
%LPD*%
G01*
G04 APERTURE LIST*
G04 Aperture macros list*
%AMRoundRect*
0 Rectangle with rounded corners*
0 $1 Rounding radius*
0 $2 $3 $4 $5 $6 $7 $8 $9 X,Y pos of 4 corners*
0 Add a 4 corners polygon primitive as box body*
4,1,4,$2,$3,$4,$5,$6,$7,$8,$9,$2,$3,0*
0 Add four circle primitives for the rounded corners*
1,1,$1+$1,$2,$3*
1,1,$1+$1,$4,$5*
1,1,$1+$1,$6,$7*
1,1,$1+$1,$8,$9*
0 Add four rect primitives between the rounded corners*
20,1,$1+$1,$2,$3,$4,$5,0*
20,1,$1+$1,$4,$5,$6,$7,0*
20,1,$1+$1,$6,$7,$8,$9,0*
20,1,$1+$1,$8,$9,$2,$3,0*%
G04 Aperture macros list end*
%ADD10C,0.150000*%
%ADD11C,0.120000*%
%ADD12C,3.200000*%
%ADD13RoundRect,0.250000X0.475000X-0.337500X0.475000X0.337500X-0.475000X0.337500X-0.475000X-0.337500X0*%
%ADD14R,1.700000X1.700000*%
%ADD15O,1.700000X1.700000*%
%ADD16RoundRect,0.250000X0.337500X0.475000X-0.337500X0.475000X-0.337500X-0.475000X0.337500X-0.475000X0*%
G04 APERTURE END LIST*
D10*
X155321316Y-135954867D02*
X155554649Y-135621534D01*
X155721316Y-135954867D02*
X155721316Y-135254867D01*
X155721316Y-135254867D02*
X155454649Y-135254867D01*
X155454649Y-135254867D02*
X155387983Y-135288200D01*
X155387983Y-135288200D02*
X155354649Y-135321534D01*
X155354649Y-135321534D02*
X155321316Y-135388200D01*
X155321316Y-135388200D02*
X155321316Y-135488200D01*
X155321316Y-135488200D02*
X155354649Y-135554867D01*
X155354649Y-135554867D02*
X155387983Y-135588200D01*
X155387983Y-135588200D02*
X155454649Y-135621534D01*
X155454649Y-135621534D02*
X155721316Y-135621534D01*
X155054649Y-135754867D02*
X154721316Y-135754867D01*
X155121316Y-135954867D02*
X154887983Y-135254867D01*
X154887983Y-135254867D02*
X154654649Y-135954867D01*
X154454649Y-135921534D02*
X154354649Y-135954867D01*
X154354649Y-135954867D02*
X154187983Y-135954867D01*
X154187983Y-135954867D02*
X154121316Y-135921534D01*
X154121316Y-135921534D02*
X154087983Y-135888200D01*
X154087983Y-135888200D02*
X154054649Y-135821534D01*
X154054649Y-135821534D02*
X154054649Y-135754867D01*
X154054649Y-135754867D02*
X154087983Y-135688200D01*
X154087983Y-135688200D02*
X154121316Y-135654867D01*
X154121316Y-135654867D02*
X154187983Y-135621534D01*
X154187983Y-135621534D02*
X154321316Y-135588200D01*
X154321316Y-135588200D02*
X154387983Y-135554867D01*
X154387983Y-135554867D02*
X154421316Y-135521534D01*
X154421316Y-135521534D02*
X154454649Y-135454867D01*
X154454649Y-135454867D02*
X154454649Y-135388200D01*
X154454649Y-135388200D02*
X154421316Y-135321534D01*
X154421316Y-135321534D02*
X154387983Y-135288200D01*
X154387983Y-135288200D02*
X154321316Y-135254867D01*
X154321316Y-135254867D02*
X154154649Y-135254867D01*
X154154649Y-135254867D02*
X154054649Y-135288200D01*
X155817983Y-135060534D02*
X153991316Y-135060534D01*
X155987983Y-138504033D02*
X156021316Y-138537367D01*
X156021316Y-138537367D02*
X156121316Y-138570700D01*
X156121316Y-138570700D02*
X156187983Y-138570700D01*
X156187983Y-138570700D02*
X156287983Y-138537367D01*
X156287983Y-138537367D02*
X156354650Y-138470700D01*
X156354650Y-138470700D02*
X156387983Y-138404033D01*
X156387983Y-138404033D02*
X156421316Y-138270700D01*
X156421316Y-138270700D02*
X156421316Y-138170700D01*
X156421316Y-138170700D02*
X156387983Y-138037367D01*
X156387983Y-138037367D02*
X156354650Y-137970700D01*
X156354650Y-137970700D02*
X156287983Y-137904033D01*
X156287983Y-137904033D02*
X156187983Y-137870700D01*
X156187983Y-137870700D02*
X156121316Y-137870700D01*
X156121316Y-137870700D02*
X156021316Y-137904033D01*
X156021316Y-137904033D02*
X155987983Y-137937367D01*
X155721316Y-138370700D02*
X155387983Y-138370700D01*
X155787983Y-138570700D02*
X155554650Y-137870700D01*
X155554650Y-137870700D02*
X155321316Y-138570700D01*
X155121316Y-138537367D02*
X155021316Y-138570700D01*
X155021316Y-138570700D02*
X154854650Y-138570700D01*
X154854650Y-138570700D02*
X154787983Y-138537367D01*
X154787983Y-138537367D02*
X154754650Y-138504033D01*
X154754650Y-138504033D02*
X154721316Y-138437367D01*
X154721316Y-138437367D02*
X154721316Y-138370700D01*
X154721316Y-138370700D02*
X154754650Y-138304033D01*
X154754650Y-138304033D02*
X154787983Y-138270700D01*
X154787983Y-138270700D02*
X154854650Y-138237367D01*
X154854650Y-138237367D02*
X154987983Y-138204033D01*
X154987983Y-138204033D02*
X155054650Y-138170700D01*
X155054650Y-138170700D02*
X155087983Y-138137367D01*
X155087983Y-138137367D02*
X155121316Y-138070700D01*
X155121316Y-138070700D02*
X155121316Y-138004033D01*
X155121316Y-138004033D02*
X155087983Y-137937367D01*
X155087983Y-137937367D02*
X155054650Y-137904033D01*
X155054650Y-137904033D02*
X154987983Y-137870700D01*
X154987983Y-137870700D02*
X154821316Y-137870700D01*
X154821316Y-137870700D02*
X154721316Y-137904033D01*
X154287983Y-137870700D02*
X154221316Y-137870700D01*
X154221316Y-137870700D02*
X154154649Y-137904033D01*
X154154649Y-137904033D02*
X154121316Y-137937367D01*
X154121316Y-137937367D02*
X154087983Y-138004033D01*
X154087983Y-138004033D02*
X154054649Y-138137367D01*
X154054649Y-138137367D02*
X154054649Y-138304033D01*
X154054649Y-138304033D02*
X154087983Y-138437367D01*
X154087983Y-138437367D02*
X154121316Y-138504033D01*
X154121316Y-138504033D02*
X154154649Y-138537367D01*
X154154649Y-138537367D02*
X154221316Y-138570700D01*
X154221316Y-138570700D02*
X154287983Y-138570700D01*
X154287983Y-138570700D02*
X154354649Y-138537367D01*
X154354649Y-138537367D02*
X154387983Y-138504033D01*
X154387983Y-138504033D02*
X154421316Y-138437367D01*
X154421316Y-138437367D02*
X154454649Y-138304033D01*
X154454649Y-138304033D02*
X154454649Y-138137367D01*
X154454649Y-138137367D02*
X154421316Y-138004033D01*
X154421316Y-138004033D02*
X154387983Y-137937367D01*
X154387983Y-137937367D02*
X154354649Y-137904033D01*
X154354649Y-137904033D02*
X154287983Y-137870700D01*
X156484650Y-137676367D02*
X153991316Y-137676367D01*
X155987983Y-141119866D02*
X156021316Y-141153200D01*
X156021316Y-141153200D02*
X156121316Y-141186533D01*
X156121316Y-141186533D02*
X156187983Y-141186533D01*
X156187983Y-141186533D02*
X156287983Y-141153200D01*
X156287983Y-141153200D02*
X156354650Y-141086533D01*
X156354650Y-141086533D02*
X156387983Y-141019866D01*
X156387983Y-141019866D02*
X156421316Y-140886533D01*
X156421316Y-140886533D02*
X156421316Y-140786533D01*
X156421316Y-140786533D02*
X156387983Y-140653200D01*
X156387983Y-140653200D02*
X156354650Y-140586533D01*
X156354650Y-140586533D02*
X156287983Y-140519866D01*
X156287983Y-140519866D02*
X156187983Y-140486533D01*
X156187983Y-140486533D02*
X156121316Y-140486533D01*
X156121316Y-140486533D02*
X156021316Y-140519866D01*
X156021316Y-140519866D02*
X155987983Y-140553200D01*
X155721316Y-140986533D02*
X155387983Y-140986533D01*
X155787983Y-141186533D02*
X155554650Y-140486533D01*
X155554650Y-140486533D02*
X155321316Y-141186533D01*
X155121316Y-141153200D02*
X155021316Y-141186533D01*
X155021316Y-141186533D02*
X154854650Y-141186533D01*
X154854650Y-141186533D02*
X154787983Y-141153200D01*
X154787983Y-141153200D02*
X154754650Y-141119866D01*
X154754650Y-141119866D02*
X154721316Y-141053200D01*
X154721316Y-141053200D02*
X154721316Y-140986533D01*
X154721316Y-140986533D02*
X154754650Y-140919866D01*
X154754650Y-140919866D02*
X154787983Y-140886533D01*
X154787983Y-140886533D02*
X154854650Y-140853200D01*
X154854650Y-140853200D02*
X154987983Y-140819866D01*
X154987983Y-140819866D02*
X155054650Y-140786533D01*
X155054650Y-140786533D02*
X155087983Y-140753200D01*
X155087983Y-140753200D02*
X155121316Y-140686533D01*
X155121316Y-140686533D02*
X155121316Y-140619866D01*
X155121316Y-140619866D02*
X155087983Y-140553200D01*
X155087983Y-140553200D02*
X155054650Y-140519866D01*
X155054650Y-140519866D02*
X154987983Y-140486533D01*
X154987983Y-140486533D02*
X154821316Y-140486533D01*
X154821316Y-140486533D02*
X154721316Y-140519866D01*
X154054649Y-141186533D02*
X154454649Y-141186533D01*
X154254649Y-141186533D02*
X154254649Y-140486533D01*
X154254649Y-140486533D02*
X154321316Y-140586533D01*
X154321316Y-140586533D02*
X154387983Y-140653200D01*
X154387983Y-140653200D02*
X154454649Y-140686533D01*
X156484650Y-140292200D02*
X153991316Y-140292200D01*
X155721316Y-123250700D02*
X155387983Y-123250700D01*
X155787983Y-123450700D02*
X155554650Y-122750700D01*
X155554650Y-122750700D02*
X155321316Y-123450700D01*
X154721316Y-123450700D02*
X155121316Y-123450700D01*
X154921316Y-123450700D02*
X154921316Y-122750700D01*
X154921316Y-122750700D02*
X154987983Y-122850700D01*
X154987983Y-122850700D02*
X155054650Y-122917367D01*
X155054650Y-122917367D02*
X155121316Y-122950700D01*
X154387983Y-123450700D02*
X154254649Y-123450700D01*
X154254649Y-123450700D02*
X154187983Y-123417367D01*
X154187983Y-123417367D02*
X154154649Y-123384033D01*
X154154649Y-123384033D02*
X154087983Y-123284033D01*
X154087983Y-123284033D02*
X154054649Y-123150700D01*
X154054649Y-123150700D02*
X154054649Y-122884033D01*
X154054649Y-122884033D02*
X154087983Y-122817367D01*
X154087983Y-122817367D02*
X154121316Y-122784033D01*
X154121316Y-122784033D02*
X154187983Y-122750700D01*
X154187983Y-122750700D02*
X154321316Y-122750700D01*
X154321316Y-122750700D02*
X154387983Y-122784033D01*
X154387983Y-122784033D02*
X154421316Y-122817367D01*
X154421316Y-122817367D02*
X154454649Y-122884033D01*
X154454649Y-122884033D02*
X154454649Y-123050700D01*
X154454649Y-123050700D02*
X154421316Y-123117367D01*
X154421316Y-123117367D02*
X154387983Y-123150700D01*
X154387983Y-123150700D02*
X154321316Y-123184033D01*
X154321316Y-123184033D02*
X154187983Y-123184033D01*
X154187983Y-123184033D02*
X154121316Y-123150700D01*
X154121316Y-123150700D02*
X154087983Y-123117367D01*
X154087983Y-123117367D02*
X154054649Y-123050700D01*
X155721316Y-125674867D02*
X155387983Y-125674867D01*
X155787983Y-125874867D02*
X155554650Y-125174867D01*
X155554650Y-125174867D02*
X155321316Y-125874867D01*
X155121316Y-125241534D02*
X155087983Y-125208200D01*
X155087983Y-125208200D02*
X155021316Y-125174867D01*
X155021316Y-125174867D02*
X154854650Y-125174867D01*
X154854650Y-125174867D02*
X154787983Y-125208200D01*
X154787983Y-125208200D02*
X154754650Y-125241534D01*
X154754650Y-125241534D02*
X154721316Y-125308200D01*
X154721316Y-125308200D02*
X154721316Y-125374867D01*
X154721316Y-125374867D02*
X154754650Y-125474867D01*
X154754650Y-125474867D02*
X155154650Y-125874867D01*
X155154650Y-125874867D02*
X154721316Y-125874867D01*
X154287983Y-125174867D02*
X154221316Y-125174867D01*
X154221316Y-125174867D02*
X154154649Y-125208200D01*
X154154649Y-125208200D02*
X154121316Y-125241534D01*
X154121316Y-125241534D02*
X154087983Y-125308200D01*
X154087983Y-125308200D02*
X154054649Y-125441534D01*
X154054649Y-125441534D02*
X154054649Y-125608200D01*
X154054649Y-125608200D02*
X154087983Y-125741534D01*
X154087983Y-125741534D02*
X154121316Y-125808200D01*
X154121316Y-125808200D02*
X154154649Y-125841534D01*
X154154649Y-125841534D02*
X154221316Y-125874867D01*
X154221316Y-125874867D02*
X154287983Y-125874867D01*
X154287983Y-125874867D02*
X154354649Y-125841534D01*
X154354649Y-125841534D02*
X154387983Y-125808200D01*
X154387983Y-125808200D02*
X154421316Y-125741534D01*
X154421316Y-125741534D02*
X154454649Y-125608200D01*
X154454649Y-125608200D02*
X154454649Y-125441534D01*
X154454649Y-125441534D02*
X154421316Y-125308200D01*
X154421316Y-125308200D02*
X154387983Y-125241534D01*
X154387983Y-125241534D02*
X154354649Y-125208200D01*
X154354649Y-125208200D02*
X154287983Y-125174867D01*
X159493208Y-68205350D02*
X160159875Y-68205350D01*
X159112256Y-67967255D02*
X159826541Y-67729160D01*
X159826541Y-67729160D02*
X159826541Y-68348207D01*
X160159875Y-68729160D02*
X159159875Y-68729160D01*
X159159875Y-68729160D02*
X159874160Y-69062493D01*
X159874160Y-69062493D02*
X159159875Y-69395826D01*
X159159875Y-69395826D02*
X160159875Y-69395826D01*
X159636065Y-70205350D02*
X159683684Y-70348207D01*
X159683684Y-70348207D02*
X159731303Y-70395826D01*
X159731303Y-70395826D02*
X159826541Y-70443445D01*
X159826541Y-70443445D02*
X159969398Y-70443445D01*
X159969398Y-70443445D02*
X160064636Y-70395826D01*
X160064636Y-70395826D02*
X160112256Y-70348207D01*
X160112256Y-70348207D02*
X160159875Y-70252969D01*
X160159875Y-70252969D02*
X160159875Y-69872017D01*
X160159875Y-69872017D02*
X159159875Y-69872017D01*
X159159875Y-69872017D02*
X159159875Y-70205350D01*
X159159875Y-70205350D02*
X159207494Y-70300588D01*
X159207494Y-70300588D02*
X159255113Y-70348207D01*
X159255113Y-70348207D02*
X159350351Y-70395826D01*
X159350351Y-70395826D02*
X159445589Y-70395826D01*
X159445589Y-70395826D02*
X159540827Y-70348207D01*
X159540827Y-70348207D02*
X159588446Y-70300588D01*
X159588446Y-70300588D02*
X159636065Y-70205350D01*
X159636065Y-70205350D02*
X159636065Y-69872017D01*
X160159875Y-72205350D02*
X159683684Y-71872017D01*
X160159875Y-71633922D02*
X159159875Y-71633922D01*
X159159875Y-71633922D02*
X159159875Y-72014874D01*
X159159875Y-72014874D02*
X159207494Y-72110112D01*
X159207494Y-72110112D02*
X159255113Y-72157731D01*
X159255113Y-72157731D02*
X159350351Y-72205350D01*
X159350351Y-72205350D02*
X159493208Y-72205350D01*
X159493208Y-72205350D02*
X159588446Y-72157731D01*
X159588446Y-72157731D02*
X159636065Y-72110112D01*
X159636065Y-72110112D02*
X159683684Y-72014874D01*
X159683684Y-72014874D02*
X159683684Y-71633922D01*
X159874160Y-72586303D02*
X159874160Y-73062493D01*
X160159875Y-72491065D02*
X159159875Y-72824398D01*
X159159875Y-72824398D02*
X160159875Y-73157731D01*
X160159875Y-73491065D02*
X159159875Y-73491065D01*
X159159875Y-73491065D02*
X159874160Y-73824398D01*
X159874160Y-73824398D02*
X159159875Y-74157731D01*
X159159875Y-74157731D02*
X160159875Y-74157731D01*
X159636065Y-75395827D02*
X159636065Y-75729160D01*
X160159875Y-75872017D02*
X160159875Y-75395827D01*
X160159875Y-75395827D02*
X159159875Y-75395827D01*
X159159875Y-75395827D02*
X159159875Y-75872017D01*
X160159875Y-76205351D02*
X159493208Y-76729160D01*
X159493208Y-76205351D02*
X160159875Y-76729160D01*
X159493208Y-77110113D02*
X160493208Y-77110113D01*
X159540827Y-77110113D02*
X159493208Y-77205351D01*
X159493208Y-77205351D02*
X159493208Y-77395827D01*
X159493208Y-77395827D02*
X159540827Y-77491065D01*
X159540827Y-77491065D02*
X159588446Y-77538684D01*
X159588446Y-77538684D02*
X159683684Y-77586303D01*
X159683684Y-77586303D02*
X159969398Y-77586303D01*
X159969398Y-77586303D02*
X160064636Y-77538684D01*
X160064636Y-77538684D02*
X160112256Y-77491065D01*
X160112256Y-77491065D02*
X160159875Y-77395827D01*
X160159875Y-77395827D02*
X160159875Y-77205351D01*
X160159875Y-77205351D02*
X160112256Y-77110113D01*
X160159875Y-78443446D02*
X159636065Y-78443446D01*
X159636065Y-78443446D02*
X159540827Y-78395827D01*
X159540827Y-78395827D02*
X159493208Y-78300589D01*
X159493208Y-78300589D02*
X159493208Y-78110113D01*
X159493208Y-78110113D02*
X159540827Y-78014875D01*
X160112256Y-78443446D02*
X160159875Y-78348208D01*
X160159875Y-78348208D02*
X160159875Y-78110113D01*
X160159875Y-78110113D02*
X160112256Y-78014875D01*
X160112256Y-78014875D02*
X160017017Y-77967256D01*
X160017017Y-77967256D02*
X159921779Y-77967256D01*
X159921779Y-77967256D02*
X159826541Y-78014875D01*
X159826541Y-78014875D02*
X159778922Y-78110113D01*
X159778922Y-78110113D02*
X159778922Y-78348208D01*
X159778922Y-78348208D02*
X159731303Y-78443446D01*
X159493208Y-78919637D02*
X160159875Y-78919637D01*
X159588446Y-78919637D02*
X159540827Y-78967256D01*
X159540827Y-78967256D02*
X159493208Y-79062494D01*
X159493208Y-79062494D02*
X159493208Y-79205351D01*
X159493208Y-79205351D02*
X159540827Y-79300589D01*
X159540827Y-79300589D02*
X159636065Y-79348208D01*
X159636065Y-79348208D02*
X160159875Y-79348208D01*
X160112256Y-79776780D02*
X160159875Y-79872018D01*
X160159875Y-79872018D02*
X160159875Y-80062494D01*
X160159875Y-80062494D02*
X160112256Y-80157732D01*
X160112256Y-80157732D02*
X160017017Y-80205351D01*
X160017017Y-80205351D02*
X159969398Y-80205351D01*
X159969398Y-80205351D02*
X159874160Y-80157732D01*
X159874160Y-80157732D02*
X159826541Y-80062494D01*
X159826541Y-80062494D02*
X159826541Y-79919637D01*
X159826541Y-79919637D02*
X159778922Y-79824399D01*
X159778922Y-79824399D02*
X159683684Y-79776780D01*
X159683684Y-79776780D02*
X159636065Y-79776780D01*
X159636065Y-79776780D02*
X159540827Y-79824399D01*
X159540827Y-79824399D02*
X159493208Y-79919637D01*
X159493208Y-79919637D02*
X159493208Y-80062494D01*
X159493208Y-80062494D02*
X159540827Y-80157732D01*
X160159875Y-80633923D02*
X159493208Y-80633923D01*
X159159875Y-80633923D02*
X159207494Y-80586304D01*
X159207494Y-80586304D02*
X159255113Y-80633923D01*
X159255113Y-80633923D02*
X159207494Y-80681542D01*
X159207494Y-80681542D02*
X159159875Y-80633923D01*
X159159875Y-80633923D02*
X159255113Y-80633923D01*
X160159875Y-81252970D02*
X160112256Y-81157732D01*
X160112256Y-81157732D02*
X160064636Y-81110113D01*
X160064636Y-81110113D02*
X159969398Y-81062494D01*
X159969398Y-81062494D02*
X159683684Y-81062494D01*
X159683684Y-81062494D02*
X159588446Y-81110113D01*
X159588446Y-81110113D02*
X159540827Y-81157732D01*
X159540827Y-81157732D02*
X159493208Y-81252970D01*
X159493208Y-81252970D02*
X159493208Y-81395827D01*
X159493208Y-81395827D02*
X159540827Y-81491065D01*
X159540827Y-81491065D02*
X159588446Y-81538684D01*
X159588446Y-81538684D02*
X159683684Y-81586303D01*
X159683684Y-81586303D02*
X159969398Y-81586303D01*
X159969398Y-81586303D02*
X160064636Y-81538684D01*
X160064636Y-81538684D02*
X160112256Y-81491065D01*
X160112256Y-81491065D02*
X160159875Y-81395827D01*
X160159875Y-81395827D02*
X160159875Y-81252970D01*
X159493208Y-82014875D02*
X160159875Y-82014875D01*
X159588446Y-82014875D02*
X159540827Y-82062494D01*
X159540827Y-82062494D02*
X159493208Y-82157732D01*
X159493208Y-82157732D02*
X159493208Y-82300589D01*
X159493208Y-82300589D02*
X159540827Y-82395827D01*
X159540827Y-82395827D02*
X159636065Y-82443446D01*
X159636065Y-82443446D02*
X160159875Y-82443446D01*
X159397970Y-84491066D02*
X159350351Y-84395827D01*
X159350351Y-84395827D02*
X159350351Y-84205351D01*
X159350351Y-84205351D02*
X159397970Y-84110113D01*
X159397970Y-84110113D02*
X159493208Y-84014875D01*
X159493208Y-84014875D02*
X159588446Y-83967256D01*
X159588446Y-83967256D02*
X159778922Y-83967256D01*
X159778922Y-83967256D02*
X159874160Y-84014875D01*
X159874160Y-84014875D02*
X159969398Y-84110113D01*
X159969398Y-84110113D02*
X160017017Y-84205351D01*
X160017017Y-84205351D02*
X160017017Y-84395827D01*
X160017017Y-84395827D02*
X159969398Y-84491066D01*
X159017017Y-84300589D02*
X159064636Y-84062494D01*
X159064636Y-84062494D02*
X159207494Y-83824399D01*
X159207494Y-83824399D02*
X159445589Y-83681542D01*
X159445589Y-83681542D02*
X159683684Y-83633923D01*
X159683684Y-83633923D02*
X159921779Y-83681542D01*
X159921779Y-83681542D02*
X160159875Y-83824399D01*
X160159875Y-83824399D02*
X160302732Y-84062494D01*
X160302732Y-84062494D02*
X160350351Y-84300589D01*
X160350351Y-84300589D02*
X160302732Y-84538685D01*
X160302732Y-84538685D02*
X160159875Y-84776780D01*
X160159875Y-84776780D02*
X159921779Y-84919637D01*
X159921779Y-84919637D02*
X159683684Y-84967256D01*
X159683684Y-84967256D02*
X159445589Y-84919637D01*
X159445589Y-84919637D02*
X159207494Y-84776780D01*
X159207494Y-84776780D02*
X159064636Y-84538685D01*
X159064636Y-84538685D02*
X159017017Y-84300589D01*
X159255113Y-86110114D02*
X159207494Y-86157733D01*
X159207494Y-86157733D02*
X159159875Y-86252971D01*
X159159875Y-86252971D02*
X159159875Y-86491066D01*
X159159875Y-86491066D02*
X159207494Y-86586304D01*
X159207494Y-86586304D02*
X159255113Y-86633923D01*
X159255113Y-86633923D02*
X159350351Y-86681542D01*
X159350351Y-86681542D02*
X159445589Y-86681542D01*
X159445589Y-86681542D02*
X159588446Y-86633923D01*
X159588446Y-86633923D02*
X160159875Y-86062495D01*
X160159875Y-86062495D02*
X160159875Y-86681542D01*
X159159875Y-87300590D02*
X159159875Y-87395828D01*
X159159875Y-87395828D02*
X159207494Y-87491066D01*
X159207494Y-87491066D02*
X159255113Y-87538685D01*
X159255113Y-87538685D02*
X159350351Y-87586304D01*
X159350351Y-87586304D02*
X159540827Y-87633923D01*
X159540827Y-87633923D02*
X159778922Y-87633923D01*
X159778922Y-87633923D02*
X159969398Y-87586304D01*
X159969398Y-87586304D02*
X160064636Y-87538685D01*
X160064636Y-87538685D02*
X160112256Y-87491066D01*
X160112256Y-87491066D02*
X160159875Y-87395828D01*
X160159875Y-87395828D02*
X160159875Y-87300590D01*
X160159875Y-87300590D02*
X160112256Y-87205352D01*
X160112256Y-87205352D02*
X160064636Y-87157733D01*
X160064636Y-87157733D02*
X159969398Y-87110114D01*
X159969398Y-87110114D02*
X159778922Y-87062495D01*
X159778922Y-87062495D02*
X159540827Y-87062495D01*
X159540827Y-87062495D02*
X159350351Y-87110114D01*
X159350351Y-87110114D02*
X159255113Y-87157733D01*
X159255113Y-87157733D02*
X159207494Y-87205352D01*
X159207494Y-87205352D02*
X159159875Y-87300590D01*
X159255113Y-88014876D02*
X159207494Y-88062495D01*
X159207494Y-88062495D02*
X159159875Y-88157733D01*
X159159875Y-88157733D02*
X159159875Y-88395828D01*
X159159875Y-88395828D02*
X159207494Y-88491066D01*
X159207494Y-88491066D02*
X159255113Y-88538685D01*
X159255113Y-88538685D02*
X159350351Y-88586304D01*
X159350351Y-88586304D02*
X159445589Y-88586304D01*
X159445589Y-88586304D02*
X159588446Y-88538685D01*
X159588446Y-88538685D02*
X160159875Y-87967257D01*
X160159875Y-87967257D02*
X160159875Y-88586304D01*
X159159875Y-89491066D02*
X159159875Y-89014876D01*
X159159875Y-89014876D02*
X159636065Y-88967257D01*
X159636065Y-88967257D02*
X159588446Y-89014876D01*
X159588446Y-89014876D02*
X159540827Y-89110114D01*
X159540827Y-89110114D02*
X159540827Y-89348209D01*
X159540827Y-89348209D02*
X159588446Y-89443447D01*
X159588446Y-89443447D02*
X159636065Y-89491066D01*
X159636065Y-89491066D02*
X159731303Y-89538685D01*
X159731303Y-89538685D02*
X159969398Y-89538685D01*
X159969398Y-89538685D02*
X160064636Y-89491066D01*
X160064636Y-89491066D02*
X160112256Y-89443447D01*
X160112256Y-89443447D02*
X160159875Y-89348209D01*
X160159875Y-89348209D02*
X160159875Y-89110114D01*
X160159875Y-89110114D02*
X160112256Y-89014876D01*
X160112256Y-89014876D02*
X160064636Y-88967257D01*
X161769819Y-67776779D02*
X160769819Y-67776779D01*
X161769819Y-68205350D02*
X161246009Y-68205350D01*
X161246009Y-68205350D02*
X161150771Y-68157731D01*
X161150771Y-68157731D02*
X161103152Y-68062493D01*
X161103152Y-68062493D02*
X161103152Y-67919636D01*
X161103152Y-67919636D02*
X161150771Y-67824398D01*
X161150771Y-67824398D02*
X161198390Y-67776779D01*
X161103152Y-68538684D02*
X161103152Y-68919636D01*
X160769819Y-68681541D02*
X161626961Y-68681541D01*
X161626961Y-68681541D02*
X161722200Y-68729160D01*
X161722200Y-68729160D02*
X161769819Y-68824398D01*
X161769819Y-68824398D02*
X161769819Y-68919636D01*
X161103152Y-69110113D02*
X161103152Y-69491065D01*
X160769819Y-69252970D02*
X161626961Y-69252970D01*
X161626961Y-69252970D02*
X161722200Y-69300589D01*
X161722200Y-69300589D02*
X161769819Y-69395827D01*
X161769819Y-69395827D02*
X161769819Y-69491065D01*
X161103152Y-69824399D02*
X162103152Y-69824399D01*
X161150771Y-69824399D02*
X161103152Y-69919637D01*
X161103152Y-69919637D02*
X161103152Y-70110113D01*
X161103152Y-70110113D02*
X161150771Y-70205351D01*
X161150771Y-70205351D02*
X161198390Y-70252970D01*
X161198390Y-70252970D02*
X161293628Y-70300589D01*
X161293628Y-70300589D02*
X161579342Y-70300589D01*
X161579342Y-70300589D02*
X161674580Y-70252970D01*
X161674580Y-70252970D02*
X161722200Y-70205351D01*
X161722200Y-70205351D02*
X161769819Y-70110113D01*
X161769819Y-70110113D02*
X161769819Y-69919637D01*
X161769819Y-69919637D02*
X161722200Y-69824399D01*
X161722200Y-70681542D02*
X161769819Y-70776780D01*
X161769819Y-70776780D02*
X161769819Y-70967256D01*
X161769819Y-70967256D02*
X161722200Y-71062494D01*
X161722200Y-71062494D02*
X161626961Y-71110113D01*
X161626961Y-71110113D02*
X161579342Y-71110113D01*
X161579342Y-71110113D02*
X161484104Y-71062494D01*
X161484104Y-71062494D02*
X161436485Y-70967256D01*
X161436485Y-70967256D02*
X161436485Y-70824399D01*
X161436485Y-70824399D02*
X161388866Y-70729161D01*
X161388866Y-70729161D02*
X161293628Y-70681542D01*
X161293628Y-70681542D02*
X161246009Y-70681542D01*
X161246009Y-70681542D02*
X161150771Y-70729161D01*
X161150771Y-70729161D02*
X161103152Y-70824399D01*
X161103152Y-70824399D02*
X161103152Y-70967256D01*
X161103152Y-70967256D02*
X161150771Y-71062494D01*
X161674580Y-71538685D02*
X161722200Y-71586304D01*
X161722200Y-71586304D02*
X161769819Y-71538685D01*
X161769819Y-71538685D02*
X161722200Y-71491066D01*
X161722200Y-71491066D02*
X161674580Y-71538685D01*
X161674580Y-71538685D02*
X161769819Y-71538685D01*
X161150771Y-71538685D02*
X161198390Y-71586304D01*
X161198390Y-71586304D02*
X161246009Y-71538685D01*
X161246009Y-71538685D02*
X161198390Y-71491066D01*
X161198390Y-71491066D02*
X161150771Y-71538685D01*
X161150771Y-71538685D02*
X161246009Y-71538685D01*
X160722200Y-72729160D02*
X162007914Y-71872018D01*
X160722200Y-73776779D02*
X162007914Y-72919637D01*
X161103152Y-74538684D02*
X161912676Y-74538684D01*
X161912676Y-74538684D02*
X162007914Y-74491065D01*
X162007914Y-74491065D02*
X162055533Y-74443446D01*
X162055533Y-74443446D02*
X162103152Y-74348208D01*
X162103152Y-74348208D02*
X162103152Y-74205351D01*
X162103152Y-74205351D02*
X162055533Y-74110113D01*
X161722200Y-74538684D02*
X161769819Y-74443446D01*
X161769819Y-74443446D02*
X161769819Y-74252970D01*
X161769819Y-74252970D02*
X161722200Y-74157732D01*
X161722200Y-74157732D02*
X161674580Y-74110113D01*
X161674580Y-74110113D02*
X161579342Y-74062494D01*
X161579342Y-74062494D02*
X161293628Y-74062494D01*
X161293628Y-74062494D02*
X161198390Y-74110113D01*
X161198390Y-74110113D02*
X161150771Y-74157732D01*
X161150771Y-74157732D02*
X161103152Y-74252970D01*
X161103152Y-74252970D02*
X161103152Y-74443446D01*
X161103152Y-74443446D02*
X161150771Y-74538684D01*
X161769819Y-75014875D02*
X161103152Y-75014875D01*
X160769819Y-75014875D02*
X160817438Y-74967256D01*
X160817438Y-74967256D02*
X160865057Y-75014875D01*
X160865057Y-75014875D02*
X160817438Y-75062494D01*
X160817438Y-75062494D02*
X160769819Y-75014875D01*
X160769819Y-75014875D02*
X160865057Y-75014875D01*
X161103152Y-75348208D02*
X161103152Y-75729160D01*
X160769819Y-75491065D02*
X161626961Y-75491065D01*
X161626961Y-75491065D02*
X161722200Y-75538684D01*
X161722200Y-75538684D02*
X161769819Y-75633922D01*
X161769819Y-75633922D02*
X161769819Y-75729160D01*
X161769819Y-76062494D02*
X160769819Y-76062494D01*
X161769819Y-76491065D02*
X161246009Y-76491065D01*
X161246009Y-76491065D02*
X161150771Y-76443446D01*
X161150771Y-76443446D02*
X161103152Y-76348208D01*
X161103152Y-76348208D02*
X161103152Y-76205351D01*
X161103152Y-76205351D02*
X161150771Y-76110113D01*
X161150771Y-76110113D02*
X161198390Y-76062494D01*
X161103152Y-77395827D02*
X161769819Y-77395827D01*
X161103152Y-76967256D02*
X161626961Y-76967256D01*
X161626961Y-76967256D02*
X161722200Y-77014875D01*
X161722200Y-77014875D02*
X161769819Y-77110113D01*
X161769819Y-77110113D02*
X161769819Y-77252970D01*
X161769819Y-77252970D02*
X161722200Y-77348208D01*
X161722200Y-77348208D02*
X161674580Y-77395827D01*
X161769819Y-77872018D02*
X160769819Y-77872018D01*
X161150771Y-77872018D02*
X161103152Y-77967256D01*
X161103152Y-77967256D02*
X161103152Y-78157732D01*
X161103152Y-78157732D02*
X161150771Y-78252970D01*
X161150771Y-78252970D02*
X161198390Y-78300589D01*
X161198390Y-78300589D02*
X161293628Y-78348208D01*
X161293628Y-78348208D02*
X161579342Y-78348208D01*
X161579342Y-78348208D02*
X161674580Y-78300589D01*
X161674580Y-78300589D02*
X161722200Y-78252970D01*
X161722200Y-78252970D02*
X161769819Y-78157732D01*
X161769819Y-78157732D02*
X161769819Y-77967256D01*
X161769819Y-77967256D02*
X161722200Y-77872018D01*
X161674580Y-78776780D02*
X161722200Y-78824399D01*
X161722200Y-78824399D02*
X161769819Y-78776780D01*
X161769819Y-78776780D02*
X161722200Y-78729161D01*
X161722200Y-78729161D02*
X161674580Y-78776780D01*
X161674580Y-78776780D02*
X161769819Y-78776780D01*
X161722200Y-79681541D02*
X161769819Y-79586303D01*
X161769819Y-79586303D02*
X161769819Y-79395827D01*
X161769819Y-79395827D02*
X161722200Y-79300589D01*
X161722200Y-79300589D02*
X161674580Y-79252970D01*
X161674580Y-79252970D02*
X161579342Y-79205351D01*
X161579342Y-79205351D02*
X161293628Y-79205351D01*
X161293628Y-79205351D02*
X161198390Y-79252970D01*
X161198390Y-79252970D02*
X161150771Y-79300589D01*
X161150771Y-79300589D02*
X161103152Y-79395827D01*
X161103152Y-79395827D02*
X161103152Y-79586303D01*
X161103152Y-79586303D02*
X161150771Y-79681541D01*
X161769819Y-80252970D02*
X161722200Y-80157732D01*
X161722200Y-80157732D02*
X161674580Y-80110113D01*
X161674580Y-80110113D02*
X161579342Y-80062494D01*
X161579342Y-80062494D02*
X161293628Y-80062494D01*
X161293628Y-80062494D02*
X161198390Y-80110113D01*
X161198390Y-80110113D02*
X161150771Y-80157732D01*
X161150771Y-80157732D02*
X161103152Y-80252970D01*
X161103152Y-80252970D02*
X161103152Y-80395827D01*
X161103152Y-80395827D02*
X161150771Y-80491065D01*
X161150771Y-80491065D02*
X161198390Y-80538684D01*
X161198390Y-80538684D02*
X161293628Y-80586303D01*
X161293628Y-80586303D02*
X161579342Y-80586303D01*
X161579342Y-80586303D02*
X161674580Y-80538684D01*
X161674580Y-80538684D02*
X161722200Y-80491065D01*
X161722200Y-80491065D02*
X161769819Y-80395827D01*
X161769819Y-80395827D02*
X161769819Y-80252970D01*
X161769819Y-81014875D02*
X161103152Y-81014875D01*
X161198390Y-81014875D02*
X161150771Y-81062494D01*
X161150771Y-81062494D02*
X161103152Y-81157732D01*
X161103152Y-81157732D02*
X161103152Y-81300589D01*
X161103152Y-81300589D02*
X161150771Y-81395827D01*
X161150771Y-81395827D02*
X161246009Y-81443446D01*
X161246009Y-81443446D02*
X161769819Y-81443446D01*
X161246009Y-81443446D02*
X161150771Y-81491065D01*
X161150771Y-81491065D02*
X161103152Y-81586303D01*
X161103152Y-81586303D02*
X161103152Y-81729160D01*
X161103152Y-81729160D02*
X161150771Y-81824399D01*
X161150771Y-81824399D02*
X161246009Y-81872018D01*
X161246009Y-81872018D02*
X161769819Y-81872018D01*
X160722200Y-83062493D02*
X162007914Y-82205351D01*
X161246009Y-83729160D02*
X161293628Y-83872017D01*
X161293628Y-83872017D02*
X161341247Y-83919636D01*
X161341247Y-83919636D02*
X161436485Y-83967255D01*
X161436485Y-83967255D02*
X161579342Y-83967255D01*
X161579342Y-83967255D02*
X161674580Y-83919636D01*
X161674580Y-83919636D02*
X161722200Y-83872017D01*
X161722200Y-83872017D02*
X161769819Y-83776779D01*
X161769819Y-83776779D02*
X161769819Y-83395827D01*
X161769819Y-83395827D02*
X160769819Y-83395827D01*
X160769819Y-83395827D02*
X160769819Y-83729160D01*
X160769819Y-83729160D02*
X160817438Y-83824398D01*
X160817438Y-83824398D02*
X160865057Y-83872017D01*
X160865057Y-83872017D02*
X160960295Y-83919636D01*
X160960295Y-83919636D02*
X161055533Y-83919636D01*
X161055533Y-83919636D02*
X161150771Y-83872017D01*
X161150771Y-83872017D02*
X161198390Y-83824398D01*
X161198390Y-83824398D02*
X161246009Y-83729160D01*
X161246009Y-83729160D02*
X161246009Y-83395827D01*
X161103152Y-84824398D02*
X161769819Y-84824398D01*
X161103152Y-84395827D02*
X161626961Y-84395827D01*
X161626961Y-84395827D02*
X161722200Y-84443446D01*
X161722200Y-84443446D02*
X161769819Y-84538684D01*
X161769819Y-84538684D02*
X161769819Y-84681541D01*
X161769819Y-84681541D02*
X161722200Y-84776779D01*
X161722200Y-84776779D02*
X161674580Y-84824398D01*
X161769819Y-85300589D02*
X161103152Y-85300589D01*
X160769819Y-85300589D02*
X160817438Y-85252970D01*
X160817438Y-85252970D02*
X160865057Y-85300589D01*
X160865057Y-85300589D02*
X160817438Y-85348208D01*
X160817438Y-85348208D02*
X160769819Y-85300589D01*
X160769819Y-85300589D02*
X160865057Y-85300589D01*
X161769819Y-85919636D02*
X161722200Y-85824398D01*
X161722200Y-85824398D02*
X161626961Y-85776779D01*
X161626961Y-85776779D02*
X160769819Y-85776779D01*
X161769819Y-86729160D02*
X160769819Y-86729160D01*
X161722200Y-86729160D02*
X161769819Y-86633922D01*
X161769819Y-86633922D02*
X161769819Y-86443446D01*
X161769819Y-86443446D02*
X161722200Y-86348208D01*
X161722200Y-86348208D02*
X161674580Y-86300589D01*
X161674580Y-86300589D02*
X161579342Y-86252970D01*
X161579342Y-86252970D02*
X161293628Y-86252970D01*
X161293628Y-86252970D02*
X161198390Y-86300589D01*
X161198390Y-86300589D02*
X161150771Y-86348208D01*
X161150771Y-86348208D02*
X161103152Y-86443446D01*
X161103152Y-86443446D02*
X161103152Y-86633922D01*
X161103152Y-86633922D02*
X161150771Y-86729160D01*
X161722200Y-87586303D02*
X161769819Y-87491065D01*
X161769819Y-87491065D02*
X161769819Y-87300589D01*
X161769819Y-87300589D02*
X161722200Y-87205351D01*
X161722200Y-87205351D02*
X161626961Y-87157732D01*
X161626961Y-87157732D02*
X161246009Y-87157732D01*
X161246009Y-87157732D02*
X161150771Y-87205351D01*
X161150771Y-87205351D02*
X161103152Y-87300589D01*
X161103152Y-87300589D02*
X161103152Y-87491065D01*
X161103152Y-87491065D02*
X161150771Y-87586303D01*
X161150771Y-87586303D02*
X161246009Y-87633922D01*
X161246009Y-87633922D02*
X161341247Y-87633922D01*
X161341247Y-87633922D02*
X161436485Y-87157732D01*
X161769819Y-88062494D02*
X161103152Y-88062494D01*
X161293628Y-88062494D02*
X161198390Y-88110113D01*
X161198390Y-88110113D02*
X161150771Y-88157732D01*
X161150771Y-88157732D02*
X161103152Y-88252970D01*
X161103152Y-88252970D02*
X161103152Y-88348208D01*
X160769819Y-89110113D02*
X160769819Y-88919637D01*
X160769819Y-88919637D02*
X160817438Y-88824399D01*
X160817438Y-88824399D02*
X160865057Y-88776780D01*
X160865057Y-88776780D02*
X161007914Y-88681542D01*
X161007914Y-88681542D02*
X161198390Y-88633923D01*
X161198390Y-88633923D02*
X161579342Y-88633923D01*
X161579342Y-88633923D02*
X161674580Y-88681542D01*
X161674580Y-88681542D02*
X161722200Y-88729161D01*
X161722200Y-88729161D02*
X161769819Y-88824399D01*
X161769819Y-88824399D02*
X161769819Y-89014875D01*
X161769819Y-89014875D02*
X161722200Y-89110113D01*
X161722200Y-89110113D02*
X161674580Y-89157732D01*
X161674580Y-89157732D02*
X161579342Y-89205351D01*
X161579342Y-89205351D02*
X161341247Y-89205351D01*
X161341247Y-89205351D02*
X161246009Y-89157732D01*
X161246009Y-89157732D02*
X161198390Y-89110113D01*
X161198390Y-89110113D02*
X161150771Y-89014875D01*
X161150771Y-89014875D02*
X161150771Y-88824399D01*
X161150771Y-88824399D02*
X161198390Y-88729161D01*
X161198390Y-88729161D02*
X161246009Y-88681542D01*
X161246009Y-88681542D02*
X161341247Y-88633923D01*
X161198390Y-89776780D02*
X161150771Y-89681542D01*
X161150771Y-89681542D02*
X161103152Y-89633923D01*
X161103152Y-89633923D02*
X161007914Y-89586304D01*
X161007914Y-89586304D02*
X160960295Y-89586304D01*
X160960295Y-89586304D02*
X160865057Y-89633923D01*
X160865057Y-89633923D02*
X160817438Y-89681542D01*
X160817438Y-89681542D02*
X160769819Y-89776780D01*
X160769819Y-89776780D02*
X160769819Y-89967256D01*
X160769819Y-89967256D02*
X160817438Y-90062494D01*
X160817438Y-90062494D02*
X160865057Y-90110113D01*
X160865057Y-90110113D02*
X160960295Y-90157732D01*
X160960295Y-90157732D02*
X161007914Y-90157732D01*
X161007914Y-90157732D02*
X161103152Y-90110113D01*
X161103152Y-90110113D02*
X161150771Y-90062494D01*
X161150771Y-90062494D02*
X161198390Y-89967256D01*
X161198390Y-89967256D02*
X161198390Y-89776780D01*
X161198390Y-89776780D02*
X161246009Y-89681542D01*
X161246009Y-89681542D02*
X161293628Y-89633923D01*
X161293628Y-89633923D02*
X161388866Y-89586304D01*
X161388866Y-89586304D02*
X161579342Y-89586304D01*
X161579342Y-89586304D02*
X161674580Y-89633923D01*
X161674580Y-89633923D02*
X161722200Y-89681542D01*
X161722200Y-89681542D02*
X161769819Y-89776780D01*
X161769819Y-89776780D02*
X161769819Y-89967256D01*
X161769819Y-89967256D02*
X161722200Y-90062494D01*
X161722200Y-90062494D02*
X161674580Y-90110113D01*
X161674580Y-90110113D02*
X161579342Y-90157732D01*
X161579342Y-90157732D02*
X161388866Y-90157732D01*
X161388866Y-90157732D02*
X161293628Y-90110113D01*
X161293628Y-90110113D02*
X161246009Y-90062494D01*
X161246009Y-90062494D02*
X161198390Y-89967256D01*
X160722200Y-91300589D02*
X162007914Y-90443447D01*
X160769819Y-91824399D02*
X160769819Y-92014875D01*
X160769819Y-92014875D02*
X160817438Y-92110113D01*
X160817438Y-92110113D02*
X160912676Y-92205351D01*
X160912676Y-92205351D02*
X161103152Y-92252970D01*
X161103152Y-92252970D02*
X161436485Y-92252970D01*
X161436485Y-92252970D02*
X161626961Y-92205351D01*
X161626961Y-92205351D02*
X161722200Y-92110113D01*
X161722200Y-92110113D02*
X161769819Y-92014875D01*
X161769819Y-92014875D02*
X161769819Y-91824399D01*
X161769819Y-91824399D02*
X161722200Y-91729161D01*
X161722200Y-91729161D02*
X161626961Y-91633923D01*
X161626961Y-91633923D02*
X161436485Y-91586304D01*
X161436485Y-91586304D02*
X161103152Y-91586304D01*
X161103152Y-91586304D02*
X160912676Y-91633923D01*
X160912676Y-91633923D02*
X160817438Y-91729161D01*
X160817438Y-91729161D02*
X160769819Y-91824399D01*
X161103152Y-92681542D02*
X162103152Y-92681542D01*
X161150771Y-92681542D02*
X161103152Y-92776780D01*
X161103152Y-92776780D02*
X161103152Y-92967256D01*
X161103152Y-92967256D02*
X161150771Y-93062494D01*
X161150771Y-93062494D02*
X161198390Y-93110113D01*
X161198390Y-93110113D02*
X161293628Y-93157732D01*
X161293628Y-93157732D02*
X161579342Y-93157732D01*
X161579342Y-93157732D02*
X161674580Y-93110113D01*
X161674580Y-93110113D02*
X161722200Y-93062494D01*
X161722200Y-93062494D02*
X161769819Y-92967256D01*
X161769819Y-92967256D02*
X161769819Y-92776780D01*
X161769819Y-92776780D02*
X161722200Y-92681542D01*
X161722200Y-93967256D02*
X161769819Y-93872018D01*
X161769819Y-93872018D02*
X161769819Y-93681542D01*
X161769819Y-93681542D02*
X161722200Y-93586304D01*
X161722200Y-93586304D02*
X161626961Y-93538685D01*
X161626961Y-93538685D02*
X161246009Y-93538685D01*
X161246009Y-93538685D02*
X161150771Y-93586304D01*
X161150771Y-93586304D02*
X161103152Y-93681542D01*
X161103152Y-93681542D02*
X161103152Y-93872018D01*
X161103152Y-93872018D02*
X161150771Y-93967256D01*
X161150771Y-93967256D02*
X161246009Y-94014875D01*
X161246009Y-94014875D02*
X161341247Y-94014875D01*
X161341247Y-94014875D02*
X161436485Y-93538685D01*
X161103152Y-94443447D02*
X161769819Y-94443447D01*
X161198390Y-94443447D02*
X161150771Y-94491066D01*
X161150771Y-94491066D02*
X161103152Y-94586304D01*
X161103152Y-94586304D02*
X161103152Y-94729161D01*
X161103152Y-94729161D02*
X161150771Y-94824399D01*
X161150771Y-94824399D02*
X161246009Y-94872018D01*
X161246009Y-94872018D02*
X161769819Y-94872018D01*
X161246009Y-95348209D02*
X161246009Y-95681542D01*
X161769819Y-95824399D02*
X161769819Y-95348209D01*
X161769819Y-95348209D02*
X160769819Y-95348209D01*
X160769819Y-95348209D02*
X160769819Y-95824399D01*
X161769819Y-96681542D02*
X161246009Y-96681542D01*
X161246009Y-96681542D02*
X161150771Y-96633923D01*
X161150771Y-96633923D02*
X161103152Y-96538685D01*
X161103152Y-96538685D02*
X161103152Y-96348209D01*
X161103152Y-96348209D02*
X161150771Y-96252971D01*
X161722200Y-96681542D02*
X161769819Y-96586304D01*
X161769819Y-96586304D02*
X161769819Y-96348209D01*
X161769819Y-96348209D02*
X161722200Y-96252971D01*
X161722200Y-96252971D02*
X161626961Y-96205352D01*
X161626961Y-96205352D02*
X161531723Y-96205352D01*
X161531723Y-96205352D02*
X161436485Y-96252971D01*
X161436485Y-96252971D02*
X161388866Y-96348209D01*
X161388866Y-96348209D02*
X161388866Y-96586304D01*
X161388866Y-96586304D02*
X161341247Y-96681542D01*
X161769819Y-97157733D02*
X161103152Y-97157733D01*
X161293628Y-97157733D02*
X161198390Y-97205352D01*
X161198390Y-97205352D02*
X161150771Y-97252971D01*
X161150771Y-97252971D02*
X161103152Y-97348209D01*
X161103152Y-97348209D02*
X161103152Y-97443447D01*
X161769819Y-97919638D02*
X161722200Y-97824400D01*
X161722200Y-97824400D02*
X161626961Y-97776781D01*
X161626961Y-97776781D02*
X160769819Y-97776781D01*
X161103152Y-98205353D02*
X161769819Y-98443448D01*
X161103152Y-98681543D02*
X161769819Y-98443448D01*
X161769819Y-98443448D02*
X162007914Y-98348210D01*
X162007914Y-98348210D02*
X162055533Y-98300591D01*
X162055533Y-98300591D02*
X162103152Y-98205353D01*
X161769819Y-99062496D02*
X160769819Y-99062496D01*
X160769819Y-99062496D02*
X161484104Y-99395829D01*
X161484104Y-99395829D02*
X160769819Y-99729162D01*
X160769819Y-99729162D02*
X161769819Y-99729162D01*
X161769819Y-100633924D02*
X161246009Y-100633924D01*
X161246009Y-100633924D02*
X161150771Y-100586305D01*
X161150771Y-100586305D02*
X161103152Y-100491067D01*
X161103152Y-100491067D02*
X161103152Y-100300591D01*
X161103152Y-100300591D02*
X161150771Y-100205353D01*
X161722200Y-100633924D02*
X161769819Y-100538686D01*
X161769819Y-100538686D02*
X161769819Y-100300591D01*
X161769819Y-100300591D02*
X161722200Y-100205353D01*
X161722200Y-100205353D02*
X161626961Y-100157734D01*
X161626961Y-100157734D02*
X161531723Y-100157734D01*
X161531723Y-100157734D02*
X161436485Y-100205353D01*
X161436485Y-100205353D02*
X161388866Y-100300591D01*
X161388866Y-100300591D02*
X161388866Y-100538686D01*
X161388866Y-100538686D02*
X161341247Y-100633924D01*
X161722200Y-101538686D02*
X161769819Y-101443448D01*
X161769819Y-101443448D02*
X161769819Y-101252972D01*
X161769819Y-101252972D02*
X161722200Y-101157734D01*
X161722200Y-101157734D02*
X161674580Y-101110115D01*
X161674580Y-101110115D02*
X161579342Y-101062496D01*
X161579342Y-101062496D02*
X161293628Y-101062496D01*
X161293628Y-101062496D02*
X161198390Y-101110115D01*
X161198390Y-101110115D02*
X161150771Y-101157734D01*
X161150771Y-101157734D02*
X161103152Y-101252972D01*
X161103152Y-101252972D02*
X161103152Y-101443448D01*
X161103152Y-101443448D02*
X161150771Y-101538686D01*
X161722200Y-101919639D02*
X161769819Y-102014877D01*
X161769819Y-102014877D02*
X161769819Y-102205353D01*
X161769819Y-102205353D02*
X161722200Y-102300591D01*
X161722200Y-102300591D02*
X161626961Y-102348210D01*
X161626961Y-102348210D02*
X161579342Y-102348210D01*
X161579342Y-102348210D02*
X161484104Y-102300591D01*
X161484104Y-102300591D02*
X161436485Y-102205353D01*
X161436485Y-102205353D02*
X161436485Y-102062496D01*
X161436485Y-102062496D02*
X161388866Y-101967258D01*
X161388866Y-101967258D02*
X161293628Y-101919639D01*
X161293628Y-101919639D02*
X161246009Y-101919639D01*
X161246009Y-101919639D02*
X161150771Y-101967258D01*
X161150771Y-101967258D02*
X161103152Y-102062496D01*
X161103152Y-102062496D02*
X161103152Y-102205353D01*
X161103152Y-102205353D02*
X161150771Y-102300591D01*
X161769819Y-103348210D02*
X161293628Y-103014877D01*
X161769819Y-102776782D02*
X160769819Y-102776782D01*
X160769819Y-102776782D02*
X160769819Y-103157734D01*
X160769819Y-103157734D02*
X160817438Y-103252972D01*
X160817438Y-103252972D02*
X160865057Y-103300591D01*
X160865057Y-103300591D02*
X160960295Y-103348210D01*
X160960295Y-103348210D02*
X161103152Y-103348210D01*
X161103152Y-103348210D02*
X161198390Y-103300591D01*
X161198390Y-103300591D02*
X161246009Y-103252972D01*
X161246009Y-103252972D02*
X161293628Y-103157734D01*
X161293628Y-103157734D02*
X161293628Y-102776782D01*
X161484104Y-103729163D02*
X161484104Y-104205353D01*
X161769819Y-103633925D02*
X160769819Y-103967258D01*
X160769819Y-103967258D02*
X161769819Y-104300591D01*
X161769819Y-104633925D02*
X160769819Y-104633925D01*
X160769819Y-104633925D02*
X161484104Y-104967258D01*
X161484104Y-104967258D02*
X160769819Y-105300591D01*
X160769819Y-105300591D02*
X161769819Y-105300591D01*
X161722200Y-106157734D02*
X161769819Y-106062496D01*
X161769819Y-106062496D02*
X161769819Y-105872020D01*
X161769819Y-105872020D02*
X161722200Y-105776782D01*
X161722200Y-105776782D02*
X161626961Y-105729163D01*
X161626961Y-105729163D02*
X161246009Y-105729163D01*
X161246009Y-105729163D02*
X161150771Y-105776782D01*
X161150771Y-105776782D02*
X161103152Y-105872020D01*
X161103152Y-105872020D02*
X161103152Y-106062496D01*
X161103152Y-106062496D02*
X161150771Y-106157734D01*
X161150771Y-106157734D02*
X161246009Y-106205353D01*
X161246009Y-106205353D02*
X161341247Y-106205353D01*
X161341247Y-106205353D02*
X161436485Y-105729163D01*
X161769819Y-106538687D02*
X161103152Y-107062496D01*
X161103152Y-106538687D02*
X161769819Y-107062496D01*
X161103152Y-107443449D02*
X162103152Y-107443449D01*
X161150771Y-107443449D02*
X161103152Y-107538687D01*
X161103152Y-107538687D02*
X161103152Y-107729163D01*
X161103152Y-107729163D02*
X161150771Y-107824401D01*
X161150771Y-107824401D02*
X161198390Y-107872020D01*
X161198390Y-107872020D02*
X161293628Y-107919639D01*
X161293628Y-107919639D02*
X161579342Y-107919639D01*
X161579342Y-107919639D02*
X161674580Y-107872020D01*
X161674580Y-107872020D02*
X161722200Y-107824401D01*
X161722200Y-107824401D02*
X161769819Y-107729163D01*
X161769819Y-107729163D02*
X161769819Y-107538687D01*
X161769819Y-107538687D02*
X161722200Y-107443449D01*
X161769819Y-108776782D02*
X161246009Y-108776782D01*
X161246009Y-108776782D02*
X161150771Y-108729163D01*
X161150771Y-108729163D02*
X161103152Y-108633925D01*
X161103152Y-108633925D02*
X161103152Y-108443449D01*
X161103152Y-108443449D02*
X161150771Y-108348211D01*
X161722200Y-108776782D02*
X161769819Y-108681544D01*
X161769819Y-108681544D02*
X161769819Y-108443449D01*
X161769819Y-108443449D02*
X161722200Y-108348211D01*
X161722200Y-108348211D02*
X161626961Y-108300592D01*
X161626961Y-108300592D02*
X161531723Y-108300592D01*
X161531723Y-108300592D02*
X161436485Y-108348211D01*
X161436485Y-108348211D02*
X161388866Y-108443449D01*
X161388866Y-108443449D02*
X161388866Y-108681544D01*
X161388866Y-108681544D02*
X161341247Y-108776782D01*
X161103152Y-109252973D02*
X161769819Y-109252973D01*
X161198390Y-109252973D02*
X161150771Y-109300592D01*
X161150771Y-109300592D02*
X161103152Y-109395830D01*
X161103152Y-109395830D02*
X161103152Y-109538687D01*
X161103152Y-109538687D02*
X161150771Y-109633925D01*
X161150771Y-109633925D02*
X161246009Y-109681544D01*
X161246009Y-109681544D02*
X161769819Y-109681544D01*
X161722200Y-110110116D02*
X161769819Y-110205354D01*
X161769819Y-110205354D02*
X161769819Y-110395830D01*
X161769819Y-110395830D02*
X161722200Y-110491068D01*
X161722200Y-110491068D02*
X161626961Y-110538687D01*
X161626961Y-110538687D02*
X161579342Y-110538687D01*
X161579342Y-110538687D02*
X161484104Y-110491068D01*
X161484104Y-110491068D02*
X161436485Y-110395830D01*
X161436485Y-110395830D02*
X161436485Y-110252973D01*
X161436485Y-110252973D02*
X161388866Y-110157735D01*
X161388866Y-110157735D02*
X161293628Y-110110116D01*
X161293628Y-110110116D02*
X161246009Y-110110116D01*
X161246009Y-110110116D02*
X161150771Y-110157735D01*
X161150771Y-110157735D02*
X161103152Y-110252973D01*
X161103152Y-110252973D02*
X161103152Y-110395830D01*
X161103152Y-110395830D02*
X161150771Y-110491068D01*
X161769819Y-110967259D02*
X161103152Y-110967259D01*
X160769819Y-110967259D02*
X160817438Y-110919640D01*
X160817438Y-110919640D02*
X160865057Y-110967259D01*
X160865057Y-110967259D02*
X160817438Y-111014878D01*
X160817438Y-111014878D02*
X160769819Y-110967259D01*
X160769819Y-110967259D02*
X160865057Y-110967259D01*
X161769819Y-111586306D02*
X161722200Y-111491068D01*
X161722200Y-111491068D02*
X161674580Y-111443449D01*
X161674580Y-111443449D02*
X161579342Y-111395830D01*
X161579342Y-111395830D02*
X161293628Y-111395830D01*
X161293628Y-111395830D02*
X161198390Y-111443449D01*
X161198390Y-111443449D02*
X161150771Y-111491068D01*
X161150771Y-111491068D02*
X161103152Y-111586306D01*
X161103152Y-111586306D02*
X161103152Y-111729163D01*
X161103152Y-111729163D02*
X161150771Y-111824401D01*
X161150771Y-111824401D02*
X161198390Y-111872020D01*
X161198390Y-111872020D02*
X161293628Y-111919639D01*
X161293628Y-111919639D02*
X161579342Y-111919639D01*
X161579342Y-111919639D02*
X161674580Y-111872020D01*
X161674580Y-111872020D02*
X161722200Y-111824401D01*
X161722200Y-111824401D02*
X161769819Y-111729163D01*
X161769819Y-111729163D02*
X161769819Y-111586306D01*
X161103152Y-112348211D02*
X161769819Y-112348211D01*
X161198390Y-112348211D02*
X161150771Y-112395830D01*
X161150771Y-112395830D02*
X161103152Y-112491068D01*
X161103152Y-112491068D02*
X161103152Y-112633925D01*
X161103152Y-112633925D02*
X161150771Y-112729163D01*
X161150771Y-112729163D02*
X161246009Y-112776782D01*
X161246009Y-112776782D02*
X161769819Y-112776782D01*
X160722200Y-113967258D02*
X162007914Y-113110116D01*
X156587982Y-130214867D02*
X156354649Y-130914867D01*
X156354649Y-130914867D02*
X156121315Y-130214867D01*
X155887982Y-130914867D02*
X155887982Y-130214867D01*
X155554649Y-130914867D02*
X155554649Y-130214867D01*
X155554649Y-130214867D02*
X155387982Y-130214867D01*
X155387982Y-130214867D02*
X155287982Y-130248200D01*
X155287982Y-130248200D02*
X155221316Y-130314867D01*
X155221316Y-130314867D02*
X155187982Y-130381534D01*
X155187982Y-130381534D02*
X155154649Y-130514867D01*
X155154649Y-130514867D02*
X155154649Y-130614867D01*
X155154649Y-130614867D02*
X155187982Y-130748200D01*
X155187982Y-130748200D02*
X155221316Y-130814867D01*
X155221316Y-130814867D02*
X155287982Y-130881534D01*
X155287982Y-130881534D02*
X155387982Y-130914867D01*
X155387982Y-130914867D02*
X155554649Y-130914867D01*
X155087982Y-130148200D02*
X154487982Y-131048200D01*
X154087982Y-130448200D02*
X154087982Y-130914867D01*
X154387982Y-130448200D02*
X154387982Y-130814867D01*
X154387982Y-130814867D02*
X154354649Y-130881534D01*
X154354649Y-130881534D02*
X154287982Y-130914867D01*
X154287982Y-130914867D02*
X154187982Y-130914867D01*
X154187982Y-130914867D02*
X154121315Y-130881534D01*
X154121315Y-130881534D02*
X154087982Y-130848200D01*
X154484649Y-130020534D02*
X153991316Y-130020534D01*
X157787983Y-121026533D02*
X157787983Y-120326533D01*
X157787983Y-120326533D02*
X157554650Y-120826533D01*
X157554650Y-120826533D02*
X157321316Y-120326533D01*
X157321316Y-120326533D02*
X157321316Y-121026533D01*
X157021316Y-120993200D02*
X156921316Y-121026533D01*
X156921316Y-121026533D02*
X156754650Y-121026533D01*
X156754650Y-121026533D02*
X156687983Y-120993200D01*
X156687983Y-120993200D02*
X156654650Y-120959866D01*
X156654650Y-120959866D02*
X156621316Y-120893200D01*
X156621316Y-120893200D02*
X156621316Y-120826533D01*
X156621316Y-120826533D02*
X156654650Y-120759866D01*
X156654650Y-120759866D02*
X156687983Y-120726533D01*
X156687983Y-120726533D02*
X156754650Y-120693200D01*
X156754650Y-120693200D02*
X156887983Y-120659866D01*
X156887983Y-120659866D02*
X156954650Y-120626533D01*
X156954650Y-120626533D02*
X156987983Y-120593200D01*
X156987983Y-120593200D02*
X157021316Y-120526533D01*
X157021316Y-120526533D02*
X157021316Y-120459866D01*
X157021316Y-120459866D02*
X156987983Y-120393200D01*
X156987983Y-120393200D02*
X156954650Y-120359866D01*
X156954650Y-120359866D02*
X156887983Y-120326533D01*
X156887983Y-120326533D02*
X156721316Y-120326533D01*
X156721316Y-120326533D02*
X156621316Y-120359866D01*
X155921316Y-121026533D02*
X156154649Y-120693200D01*
X156321316Y-121026533D02*
X156321316Y-120326533D01*
X156321316Y-120326533D02*
X156054649Y-120326533D01*
X156054649Y-120326533D02*
X155987983Y-120359866D01*
X155987983Y-120359866D02*
X155954649Y-120393200D01*
X155954649Y-120393200D02*
X155921316Y-120459866D01*
X155921316Y-120459866D02*
X155921316Y-120559866D01*
X155921316Y-120559866D02*
X155954649Y-120626533D01*
X155954649Y-120626533D02*
X155987983Y-120659866D01*
X155987983Y-120659866D02*
X156054649Y-120693200D01*
X156054649Y-120693200D02*
X156321316Y-120693200D01*
X155654649Y-120826533D02*
X155321316Y-120826533D01*
X155721316Y-121026533D02*
X155487983Y-120326533D01*
X155487983Y-120326533D02*
X155254649Y-121026533D01*
X154921316Y-120626533D02*
X154987983Y-120593200D01*
X154987983Y-120593200D02*
X155021316Y-120559866D01*
X155021316Y-120559866D02*
X155054649Y-120493200D01*
X155054649Y-120493200D02*
X155054649Y-120459866D01*
X155054649Y-120459866D02*
X155021316Y-120393200D01*
X155021316Y-120393200D02*
X154987983Y-120359866D01*
X154987983Y-120359866D02*
X154921316Y-120326533D01*
X154921316Y-120326533D02*
X154787983Y-120326533D01*
X154787983Y-120326533D02*
X154721316Y-120359866D01*
X154721316Y-120359866D02*
X154687983Y-120393200D01*
X154687983Y-120393200D02*
X154654649Y-120459866D01*
X154654649Y-120459866D02*
X154654649Y-120493200D01*
X154654649Y-120493200D02*
X154687983Y-120559866D01*
X154687983Y-120559866D02*
X154721316Y-120593200D01*
X154721316Y-120593200D02*
X154787983Y-120626533D01*
X154787983Y-120626533D02*
X154921316Y-120626533D01*
X154921316Y-120626533D02*
X154987983Y-120659866D01*
X154987983Y-120659866D02*
X155021316Y-120693200D01*
X155021316Y-120693200D02*
X155054649Y-120759866D01*
X155054649Y-120759866D02*
X155054649Y-120893200D01*
X155054649Y-120893200D02*
X155021316Y-120959866D01*
X155021316Y-120959866D02*
X154987983Y-120993200D01*
X154987983Y-120993200D02*
X154921316Y-121026533D01*
X154921316Y-121026533D02*
X154787983Y-121026533D01*
X154787983Y-121026533D02*
X154721316Y-120993200D01*
X154721316Y-120993200D02*
X154687983Y-120959866D01*
X154687983Y-120959866D02*
X154654649Y-120893200D01*
X154654649Y-120893200D02*
X154654649Y-120759866D01*
X154654649Y-120759866D02*
X154687983Y-120693200D01*
X154687983Y-120693200D02*
X154721316Y-120659866D01*
X154721316Y-120659866D02*
X154787983Y-120626533D01*
X154121316Y-120659866D02*
X154354649Y-120659866D01*
X154354649Y-121026533D02*
X154354649Y-120326533D01*
X154354649Y-120326533D02*
X154021316Y-120326533D01*
X155721316Y-128099034D02*
X155387983Y-128099034D01*
X155787983Y-128299034D02*
X155554650Y-127599034D01*
X155554650Y-127599034D02*
X155321316Y-128299034D01*
X155121316Y-127665701D02*
X155087983Y-127632367D01*
X155087983Y-127632367D02*
X155021316Y-127599034D01*
X155021316Y-127599034D02*
X154854650Y-127599034D01*
X154854650Y-127599034D02*
X154787983Y-127632367D01*
X154787983Y-127632367D02*
X154754650Y-127665701D01*
X154754650Y-127665701D02*
X154721316Y-127732367D01*
X154721316Y-127732367D02*
X154721316Y-127799034D01*
X154721316Y-127799034D02*
X154754650Y-127899034D01*
X154754650Y-127899034D02*
X155154650Y-128299034D01*
X155154650Y-128299034D02*
X154721316Y-128299034D01*
X154054649Y-128299034D02*
X154454649Y-128299034D01*
X154254649Y-128299034D02*
X154254649Y-127599034D01*
X154254649Y-127599034D02*
X154321316Y-127699034D01*
X154321316Y-127699034D02*
X154387983Y-127765701D01*
X154387983Y-127765701D02*
X154454649Y-127799034D01*
X156641316Y-133379034D02*
X156641316Y-132679034D01*
X156641316Y-132679034D02*
X156407983Y-133179034D01*
X156407983Y-133179034D02*
X156174649Y-132679034D01*
X156174649Y-132679034D02*
X156174649Y-133379034D01*
X155441316Y-133312367D02*
X155474649Y-133345701D01*
X155474649Y-133345701D02*
X155574649Y-133379034D01*
X155574649Y-133379034D02*
X155641316Y-133379034D01*
X155641316Y-133379034D02*
X155741316Y-133345701D01*
X155741316Y-133345701D02*
X155807983Y-133279034D01*
X155807983Y-133279034D02*
X155841316Y-133212367D01*
X155841316Y-133212367D02*
X155874649Y-133079034D01*
X155874649Y-133079034D02*
X155874649Y-132979034D01*
X155874649Y-132979034D02*
X155841316Y-132845701D01*
X155841316Y-132845701D02*
X155807983Y-132779034D01*
X155807983Y-132779034D02*
X155741316Y-132712367D01*
X155741316Y-132712367D02*
X155641316Y-132679034D01*
X155641316Y-132679034D02*
X155574649Y-132679034D01*
X155574649Y-132679034D02*
X155474649Y-132712367D01*
X155474649Y-132712367D02*
X155441316Y-132745701D01*
X155174649Y-132745701D02*
X155141316Y-132712367D01*
X155141316Y-132712367D02*
X155074649Y-132679034D01*
X155074649Y-132679034D02*
X154907983Y-132679034D01*
X154907983Y-132679034D02*
X154841316Y-132712367D01*
X154841316Y-132712367D02*
X154807983Y-132745701D01*
X154807983Y-132745701D02*
X154774649Y-132812367D01*
X154774649Y-132812367D02*
X154774649Y-132879034D01*
X154774649Y-132879034D02*
X154807983Y-132979034D01*
X154807983Y-132979034D02*
X155207983Y-133379034D01*
X155207983Y-133379034D02*
X154774649Y-133379034D01*
X154474649Y-133379034D02*
X154474649Y-132679034D01*
X154474649Y-132679034D02*
X154241316Y-133179034D01*
X154241316Y-133179034D02*
X154007982Y-132679034D01*
X154007982Y-132679034D02*
X154007982Y-133379034D01*
X221864580Y-115663542D02*
X221912200Y-115615923D01*
X221912200Y-115615923D02*
X221959819Y-115473066D01*
X221959819Y-115473066D02*
X221959819Y-115377828D01*
X221959819Y-115377828D02*
X221912200Y-115234971D01*
X221912200Y-115234971D02*
X221816961Y-115139733D01*
X221816961Y-115139733D02*
X221721723Y-115092114D01*
X221721723Y-115092114D02*
X221531247Y-115044495D01*
X221531247Y-115044495D02*
X221388390Y-115044495D01*
X221388390Y-115044495D02*
X221197914Y-115092114D01*
X221197914Y-115092114D02*
X221102676Y-115139733D01*
X221102676Y-115139733D02*
X221007438Y-115234971D01*
X221007438Y-115234971D02*
X220959819Y-115377828D01*
X220959819Y-115377828D02*
X220959819Y-115473066D01*
X220959819Y-115473066D02*
X221007438Y-115615923D01*
X221007438Y-115615923D02*
X221055057Y-115663542D01*
X221055057Y-116044495D02*
X221007438Y-116092114D01*
X221007438Y-116092114D02*
X220959819Y-116187352D01*
X220959819Y-116187352D02*
X220959819Y-116425447D01*
X220959819Y-116425447D02*
X221007438Y-116520685D01*
X221007438Y-116520685D02*
X221055057Y-116568304D01*
X221055057Y-116568304D02*
X221150295Y-116615923D01*
X221150295Y-116615923D02*
X221245533Y-116615923D01*
X221245533Y-116615923D02*
X221388390Y-116568304D01*
X221388390Y-116568304D02*
X221959819Y-115996876D01*
X221959819Y-115996876D02*
X221959819Y-116615923D01*
X221055057Y-116996876D02*
X221007438Y-117044495D01*
X221007438Y-117044495D02*
X220959819Y-117139733D01*
X220959819Y-117139733D02*
X220959819Y-117377828D01*
X220959819Y-117377828D02*
X221007438Y-117473066D01*
X221007438Y-117473066D02*
X221055057Y-117520685D01*
X221055057Y-117520685D02*
X221150295Y-117568304D01*
X221150295Y-117568304D02*
X221245533Y-117568304D01*
X221245533Y-117568304D02*
X221388390Y-117520685D01*
X221388390Y-117520685D02*
X221959819Y-116949257D01*
X221959819Y-116949257D02*
X221959819Y-117568304D01*
X242199580Y-69687033D02*
X242247200Y-69639414D01*
X242247200Y-69639414D02*
X242294819Y-69496557D01*
X242294819Y-69496557D02*
X242294819Y-69401319D01*
X242294819Y-69401319D02*
X242247200Y-69258462D01*
X242247200Y-69258462D02*
X242151961Y-69163224D01*
X242151961Y-69163224D02*
X242056723Y-69115605D01*
X242056723Y-69115605D02*
X241866247Y-69067986D01*
X241866247Y-69067986D02*
X241723390Y-69067986D01*
X241723390Y-69067986D02*
X241532914Y-69115605D01*
X241532914Y-69115605D02*
X241437676Y-69163224D01*
X241437676Y-69163224D02*
X241342438Y-69258462D01*
X241342438Y-69258462D02*
X241294819Y-69401319D01*
X241294819Y-69401319D02*
X241294819Y-69496557D01*
X241294819Y-69496557D02*
X241342438Y-69639414D01*
X241342438Y-69639414D02*
X241390057Y-69687033D01*
X241294819Y-70544176D02*
X241294819Y-70353700D01*
X241294819Y-70353700D02*
X241342438Y-70258462D01*
X241342438Y-70258462D02*
X241390057Y-70210843D01*
X241390057Y-70210843D02*
X241532914Y-70115605D01*
X241532914Y-70115605D02*
X241723390Y-70067986D01*
X241723390Y-70067986D02*
X242104342Y-70067986D01*
X242104342Y-70067986D02*
X242199580Y-70115605D01*
X242199580Y-70115605D02*
X242247200Y-70163224D01*
X242247200Y-70163224D02*
X242294819Y-70258462D01*
X242294819Y-70258462D02*
X242294819Y-70448938D01*
X242294819Y-70448938D02*
X242247200Y-70544176D01*
X242247200Y-70544176D02*
X242199580Y-70591795D01*
X242199580Y-70591795D02*
X242104342Y-70639414D01*
X242104342Y-70639414D02*
X241866247Y-70639414D01*
X241866247Y-70639414D02*
X241771009Y-70591795D01*
X241771009Y-70591795D02*
X241723390Y-70544176D01*
X241723390Y-70544176D02*
X241675771Y-70448938D01*
X241675771Y-70448938D02*
X241675771Y-70258462D01*
X241675771Y-70258462D02*
X241723390Y-70163224D01*
X241723390Y-70163224D02*
X241771009Y-70115605D01*
X241771009Y-70115605D02*
X241866247Y-70067986D01*
X221914580Y-22919533D02*
X221962200Y-22871914D01*
X221962200Y-22871914D02*
X222009819Y-22729057D01*
X222009819Y-22729057D02*
X222009819Y-22633819D01*
X222009819Y-22633819D02*
X221962200Y-22490962D01*
X221962200Y-22490962D02*
X221866961Y-22395724D01*
X221866961Y-22395724D02*
X221771723Y-22348105D01*
X221771723Y-22348105D02*
X221581247Y-22300486D01*
X221581247Y-22300486D02*
X221438390Y-22300486D01*
X221438390Y-22300486D02*
X221247914Y-22348105D01*
X221247914Y-22348105D02*
X221152676Y-22395724D01*
X221152676Y-22395724D02*
X221057438Y-22490962D01*
X221057438Y-22490962D02*
X221009819Y-22633819D01*
X221009819Y-22633819D02*
X221009819Y-22729057D01*
X221009819Y-22729057D02*
X221057438Y-22871914D01*
X221057438Y-22871914D02*
X221105057Y-22919533D01*
X221438390Y-23490962D02*
X221390771Y-23395724D01*
X221390771Y-23395724D02*
X221343152Y-23348105D01*
X221343152Y-23348105D02*
X221247914Y-23300486D01*
X221247914Y-23300486D02*
X221200295Y-23300486D01*
X221200295Y-23300486D02*
X221105057Y-23348105D01*
X221105057Y-23348105D02*
X221057438Y-23395724D01*
X221057438Y-23395724D02*
X221009819Y-23490962D01*
X221009819Y-23490962D02*
X221009819Y-23681438D01*
X221009819Y-23681438D02*
X221057438Y-23776676D01*
X221057438Y-23776676D02*
X221105057Y-23824295D01*
X221105057Y-23824295D02*
X221200295Y-23871914D01*
X221200295Y-23871914D02*
X221247914Y-23871914D01*
X221247914Y-23871914D02*
X221343152Y-23824295D01*
X221343152Y-23824295D02*
X221390771Y-23776676D01*
X221390771Y-23776676D02*
X221438390Y-23681438D01*
X221438390Y-23681438D02*
X221438390Y-23490962D01*
X221438390Y-23490962D02*
X221486009Y-23395724D01*
X221486009Y-23395724D02*
X221533628Y-23348105D01*
X221533628Y-23348105D02*
X221628866Y-23300486D01*
X221628866Y-23300486D02*
X221819342Y-23300486D01*
X221819342Y-23300486D02*
X221914580Y-23348105D01*
X221914580Y-23348105D02*
X221962200Y-23395724D01*
X221962200Y-23395724D02*
X222009819Y-23490962D01*
X222009819Y-23490962D02*
X222009819Y-23681438D01*
X222009819Y-23681438D02*
X221962200Y-23776676D01*
X221962200Y-23776676D02*
X221914580Y-23824295D01*
X221914580Y-23824295D02*
X221819342Y-23871914D01*
X221819342Y-23871914D02*
X221628866Y-23871914D01*
X221628866Y-23871914D02*
X221533628Y-23824295D01*
X221533628Y-23824295D02*
X221486009Y-23776676D01*
X221486009Y-23776676D02*
X221438390Y-23681438D01*
X228339580Y-37857142D02*
X228387200Y-37809523D01*
X228387200Y-37809523D02*
X228434819Y-37666666D01*
X228434819Y-37666666D02*
X228434819Y-37571428D01*
X228434819Y-37571428D02*
X228387200Y-37428571D01*
X228387200Y-37428571D02*
X228291961Y-37333333D01*
X228291961Y-37333333D02*
X228196723Y-37285714D01*
X228196723Y-37285714D02*
X228006247Y-37238095D01*
X228006247Y-37238095D02*
X227863390Y-37238095D01*
X227863390Y-37238095D02*
X227672914Y-37285714D01*
X227672914Y-37285714D02*
X227577676Y-37333333D01*
X227577676Y-37333333D02*
X227482438Y-37428571D01*
X227482438Y-37428571D02*
X227434819Y-37571428D01*
X227434819Y-37571428D02*
X227434819Y-37666666D01*
X227434819Y-37666666D02*
X227482438Y-37809523D01*
X227482438Y-37809523D02*
X227530057Y-37857142D01*
X227530057Y-38238095D02*
X227482438Y-38285714D01*
X227482438Y-38285714D02*
X227434819Y-38380952D01*
X227434819Y-38380952D02*
X227434819Y-38619047D01*
X227434819Y-38619047D02*
X227482438Y-38714285D01*
X227482438Y-38714285D02*
X227530057Y-38761904D01*
X227530057Y-38761904D02*
X227625295Y-38809523D01*
X227625295Y-38809523D02*
X227720533Y-38809523D01*
X227720533Y-38809523D02*
X227863390Y-38761904D01*
X227863390Y-38761904D02*
X228434819Y-38190476D01*
X228434819Y-38190476D02*
X228434819Y-38809523D01*
X227434819Y-39666666D02*
X227434819Y-39476190D01*
X227434819Y-39476190D02*
X227482438Y-39380952D01*
X227482438Y-39380952D02*
X227530057Y-39333333D01*
X227530057Y-39333333D02*
X227672914Y-39238095D01*
X227672914Y-39238095D02*
X227863390Y-39190476D01*
X227863390Y-39190476D02*
X228244342Y-39190476D01*
X228244342Y-39190476D02*
X228339580Y-39238095D01*
X228339580Y-39238095D02*
X228387200Y-39285714D01*
X228387200Y-39285714D02*
X228434819Y-39380952D01*
X228434819Y-39380952D02*
X228434819Y-39571428D01*
X228434819Y-39571428D02*
X228387200Y-39666666D01*
X228387200Y-39666666D02*
X228339580Y-39714285D01*
X228339580Y-39714285D02*
X228244342Y-39761904D01*
X228244342Y-39761904D02*
X228006247Y-39761904D01*
X228006247Y-39761904D02*
X227911009Y-39714285D01*
X227911009Y-39714285D02*
X227863390Y-39666666D01*
X227863390Y-39666666D02*
X227815771Y-39571428D01*
X227815771Y-39571428D02*
X227815771Y-39380952D01*
X227815771Y-39380952D02*
X227863390Y-39285714D01*
X227863390Y-39285714D02*
X227911009Y-39238095D01*
X227911009Y-39238095D02*
X228006247Y-39190476D01*
X242239580Y-131412142D02*
X242287200Y-131364523D01*
X242287200Y-131364523D02*
X242334819Y-131221666D01*
X242334819Y-131221666D02*
X242334819Y-131126428D01*
X242334819Y-131126428D02*
X242287200Y-130983571D01*
X242287200Y-130983571D02*
X242191961Y-130888333D01*
X242191961Y-130888333D02*
X242096723Y-130840714D01*
X242096723Y-130840714D02*
X241906247Y-130793095D01*
X241906247Y-130793095D02*
X241763390Y-130793095D01*
X241763390Y-130793095D02*
X241572914Y-130840714D01*
X241572914Y-130840714D02*
X241477676Y-130888333D01*
X241477676Y-130888333D02*
X241382438Y-130983571D01*
X241382438Y-130983571D02*
X241334819Y-131126428D01*
X241334819Y-131126428D02*
X241334819Y-131221666D01*
X241334819Y-131221666D02*
X241382438Y-131364523D01*
X241382438Y-131364523D02*
X241430057Y-131412142D01*
X242334819Y-132364523D02*
X242334819Y-131793095D01*
X242334819Y-132078809D02*
X241334819Y-132078809D01*
X241334819Y-132078809D02*
X241477676Y-131983571D01*
X241477676Y-131983571D02*
X241572914Y-131888333D01*
X241572914Y-131888333D02*
X241620533Y-131793095D01*
X241334819Y-132697857D02*
X241334819Y-133364523D01*
X241334819Y-133364523D02*
X242334819Y-132935952D01*
X228339580Y-69697033D02*
X228387200Y-69649414D01*
X228387200Y-69649414D02*
X228434819Y-69506557D01*
X228434819Y-69506557D02*
X228434819Y-69411319D01*
X228434819Y-69411319D02*
X228387200Y-69268462D01*
X228387200Y-69268462D02*
X228291961Y-69173224D01*
X228291961Y-69173224D02*
X228196723Y-69125605D01*
X228196723Y-69125605D02*
X228006247Y-69077986D01*
X228006247Y-69077986D02*
X227863390Y-69077986D01*
X227863390Y-69077986D02*
X227672914Y-69125605D01*
X227672914Y-69125605D02*
X227577676Y-69173224D01*
X227577676Y-69173224D02*
X227482438Y-69268462D01*
X227482438Y-69268462D02*
X227434819Y-69411319D01*
X227434819Y-69411319D02*
X227434819Y-69506557D01*
X227434819Y-69506557D02*
X227482438Y-69649414D01*
X227482438Y-69649414D02*
X227530057Y-69697033D01*
X227434819Y-70030367D02*
X227434819Y-70697033D01*
X227434819Y-70697033D02*
X228434819Y-70268462D01*
X228289580Y-131312142D02*
X228337200Y-131264523D01*
X228337200Y-131264523D02*
X228384819Y-131121666D01*
X228384819Y-131121666D02*
X228384819Y-131026428D01*
X228384819Y-131026428D02*
X228337200Y-130883571D01*
X228337200Y-130883571D02*
X228241961Y-130788333D01*
X228241961Y-130788333D02*
X228146723Y-130740714D01*
X228146723Y-130740714D02*
X227956247Y-130693095D01*
X227956247Y-130693095D02*
X227813390Y-130693095D01*
X227813390Y-130693095D02*
X227622914Y-130740714D01*
X227622914Y-130740714D02*
X227527676Y-130788333D01*
X227527676Y-130788333D02*
X227432438Y-130883571D01*
X227432438Y-130883571D02*
X227384819Y-131026428D01*
X227384819Y-131026428D02*
X227384819Y-131121666D01*
X227384819Y-131121666D02*
X227432438Y-131264523D01*
X227432438Y-131264523D02*
X227480057Y-131312142D01*
X227480057Y-131693095D02*
X227432438Y-131740714D01*
X227432438Y-131740714D02*
X227384819Y-131835952D01*
X227384819Y-131835952D02*
X227384819Y-132074047D01*
X227384819Y-132074047D02*
X227432438Y-132169285D01*
X227432438Y-132169285D02*
X227480057Y-132216904D01*
X227480057Y-132216904D02*
X227575295Y-132264523D01*
X227575295Y-132264523D02*
X227670533Y-132264523D01*
X227670533Y-132264523D02*
X227813390Y-132216904D01*
X227813390Y-132216904D02*
X228384819Y-131645476D01*
X228384819Y-131645476D02*
X228384819Y-132264523D01*
X227384819Y-132597857D02*
X227384819Y-133216904D01*
X227384819Y-133216904D02*
X227765771Y-132883571D01*
X227765771Y-132883571D02*
X227765771Y-133026428D01*
X227765771Y-133026428D02*
X227813390Y-133121666D01*
X227813390Y-133121666D02*
X227861009Y-133169285D01*
X227861009Y-133169285D02*
X227956247Y-133216904D01*
X227956247Y-133216904D02*
X228194342Y-133216904D01*
X228194342Y-133216904D02*
X228289580Y-133169285D01*
X228289580Y-133169285D02*
X228337200Y-133121666D01*
X228337200Y-133121666D02*
X228384819Y-133026428D01*
X228384819Y-133026428D02*
X228384819Y-132740714D01*
X228384819Y-132740714D02*
X228337200Y-132645476D01*
X228337200Y-132645476D02*
X228289580Y-132597857D01*
X242259580Y-84836733D02*
X242307200Y-84789114D01*
X242307200Y-84789114D02*
X242354819Y-84646257D01*
X242354819Y-84646257D02*
X242354819Y-84551019D01*
X242354819Y-84551019D02*
X242307200Y-84408162D01*
X242307200Y-84408162D02*
X242211961Y-84312924D01*
X242211961Y-84312924D02*
X242116723Y-84265305D01*
X242116723Y-84265305D02*
X241926247Y-84217686D01*
X241926247Y-84217686D02*
X241783390Y-84217686D01*
X241783390Y-84217686D02*
X241592914Y-84265305D01*
X241592914Y-84265305D02*
X241497676Y-84312924D01*
X241497676Y-84312924D02*
X241402438Y-84408162D01*
X241402438Y-84408162D02*
X241354819Y-84551019D01*
X241354819Y-84551019D02*
X241354819Y-84646257D01*
X241354819Y-84646257D02*
X241402438Y-84789114D01*
X241402438Y-84789114D02*
X241450057Y-84836733D01*
X242354819Y-85312924D02*
X242354819Y-85503400D01*
X242354819Y-85503400D02*
X242307200Y-85598638D01*
X242307200Y-85598638D02*
X242259580Y-85646257D01*
X242259580Y-85646257D02*
X242116723Y-85741495D01*
X242116723Y-85741495D02*
X241926247Y-85789114D01*
X241926247Y-85789114D02*
X241545295Y-85789114D01*
X241545295Y-85789114D02*
X241450057Y-85741495D01*
X241450057Y-85741495D02*
X241402438Y-85693876D01*
X241402438Y-85693876D02*
X241354819Y-85598638D01*
X241354819Y-85598638D02*
X241354819Y-85408162D01*
X241354819Y-85408162D02*
X241402438Y-85312924D01*
X241402438Y-85312924D02*
X241450057Y-85265305D01*
X241450057Y-85265305D02*
X241545295Y-85217686D01*
X241545295Y-85217686D02*
X241783390Y-85217686D01*
X241783390Y-85217686D02*
X241878628Y-85265305D01*
X241878628Y-85265305D02*
X241926247Y-85312924D01*
X241926247Y-85312924D02*
X241973866Y-85408162D01*
X241973866Y-85408162D02*
X241973866Y-85598638D01*
X241973866Y-85598638D02*
X241926247Y-85693876D01*
X241926247Y-85693876D02*
X241878628Y-85741495D01*
X241878628Y-85741495D02*
X241783390Y-85789114D01*
X221945480Y-84368742D02*
X221993100Y-84321123D01*
X221993100Y-84321123D02*
X222040719Y-84178266D01*
X222040719Y-84178266D02*
X222040719Y-84083028D01*
X222040719Y-84083028D02*
X221993100Y-83940171D01*
X221993100Y-83940171D02*
X221897861Y-83844933D01*
X221897861Y-83844933D02*
X221802623Y-83797314D01*
X221802623Y-83797314D02*
X221612147Y-83749695D01*
X221612147Y-83749695D02*
X221469290Y-83749695D01*
X221469290Y-83749695D02*
X221278814Y-83797314D01*
X221278814Y-83797314D02*
X221183576Y-83844933D01*
X221183576Y-83844933D02*
X221088338Y-83940171D01*
X221088338Y-83940171D02*
X221040719Y-84083028D01*
X221040719Y-84083028D02*
X221040719Y-84178266D01*
X221040719Y-84178266D02*
X221088338Y-84321123D01*
X221088338Y-84321123D02*
X221135957Y-84368742D01*
X222040719Y-85321123D02*
X222040719Y-84749695D01*
X222040719Y-85035409D02*
X221040719Y-85035409D01*
X221040719Y-85035409D02*
X221183576Y-84940171D01*
X221183576Y-84940171D02*
X221278814Y-84844933D01*
X221278814Y-84844933D02*
X221326433Y-84749695D01*
X222040719Y-86273504D02*
X222040719Y-85702076D01*
X222040719Y-85987790D02*
X221040719Y-85987790D01*
X221040719Y-85987790D02*
X221183576Y-85892552D01*
X221183576Y-85892552D02*
X221278814Y-85797314D01*
X221278814Y-85797314D02*
X221326433Y-85702076D01*
X221864580Y-131357142D02*
X221912200Y-131309523D01*
X221912200Y-131309523D02*
X221959819Y-131166666D01*
X221959819Y-131166666D02*
X221959819Y-131071428D01*
X221959819Y-131071428D02*
X221912200Y-130928571D01*
X221912200Y-130928571D02*
X221816961Y-130833333D01*
X221816961Y-130833333D02*
X221721723Y-130785714D01*
X221721723Y-130785714D02*
X221531247Y-130738095D01*
X221531247Y-130738095D02*
X221388390Y-130738095D01*
X221388390Y-130738095D02*
X221197914Y-130785714D01*
X221197914Y-130785714D02*
X221102676Y-130833333D01*
X221102676Y-130833333D02*
X221007438Y-130928571D01*
X221007438Y-130928571D02*
X220959819Y-131071428D01*
X220959819Y-131071428D02*
X220959819Y-131166666D01*
X220959819Y-131166666D02*
X221007438Y-131309523D01*
X221007438Y-131309523D02*
X221055057Y-131357142D01*
X221959819Y-132309523D02*
X221959819Y-131738095D01*
X221959819Y-132023809D02*
X220959819Y-132023809D01*
X220959819Y-132023809D02*
X221102676Y-131928571D01*
X221102676Y-131928571D02*
X221197914Y-131833333D01*
X221197914Y-131833333D02*
X221245533Y-131738095D01*
X221959819Y-132785714D02*
X221959819Y-132976190D01*
X221959819Y-132976190D02*
X221912200Y-133071428D01*
X221912200Y-133071428D02*
X221864580Y-133119047D01*
X221864580Y-133119047D02*
X221721723Y-133214285D01*
X221721723Y-133214285D02*
X221531247Y-133261904D01*
X221531247Y-133261904D02*
X221150295Y-133261904D01*
X221150295Y-133261904D02*
X221055057Y-133214285D01*
X221055057Y-133214285D02*
X221007438Y-133166666D01*
X221007438Y-133166666D02*
X220959819Y-133071428D01*
X220959819Y-133071428D02*
X220959819Y-132880952D01*
X220959819Y-132880952D02*
X221007438Y-132785714D01*
X221007438Y-132785714D02*
X221055057Y-132738095D01*
X221055057Y-132738095D02*
X221150295Y-132690476D01*
X221150295Y-132690476D02*
X221388390Y-132690476D01*
X221388390Y-132690476D02*
X221483628Y-132738095D01*
X221483628Y-132738095D02*
X221531247Y-132785714D01*
X221531247Y-132785714D02*
X221578866Y-132880952D01*
X221578866Y-132880952D02*
X221578866Y-133071428D01*
X221578866Y-133071428D02*
X221531247Y-133166666D01*
X221531247Y-133166666D02*
X221483628Y-133214285D01*
X221483628Y-133214285D02*
X221388390Y-133261904D01*
X245929580Y-22153342D02*
X245977200Y-22105723D01*
X245977200Y-22105723D02*
X246024819Y-21962866D01*
X246024819Y-21962866D02*
X246024819Y-21867628D01*
X246024819Y-21867628D02*
X245977200Y-21724771D01*
X245977200Y-21724771D02*
X245881961Y-21629533D01*
X245881961Y-21629533D02*
X245786723Y-21581914D01*
X245786723Y-21581914D02*
X245596247Y-21534295D01*
X245596247Y-21534295D02*
X245453390Y-21534295D01*
X245453390Y-21534295D02*
X245262914Y-21581914D01*
X245262914Y-21581914D02*
X245167676Y-21629533D01*
X245167676Y-21629533D02*
X245072438Y-21724771D01*
X245072438Y-21724771D02*
X245024819Y-21867628D01*
X245024819Y-21867628D02*
X245024819Y-21962866D01*
X245024819Y-21962866D02*
X245072438Y-22105723D01*
X245072438Y-22105723D02*
X245120057Y-22153342D01*
X245024819Y-22486676D02*
X245024819Y-23105723D01*
X245024819Y-23105723D02*
X245405771Y-22772390D01*
X245405771Y-22772390D02*
X245405771Y-22915247D01*
X245405771Y-22915247D02*
X245453390Y-23010485D01*
X245453390Y-23010485D02*
X245501009Y-23058104D01*
X245501009Y-23058104D02*
X245596247Y-23105723D01*
X245596247Y-23105723D02*
X245834342Y-23105723D01*
X245834342Y-23105723D02*
X245929580Y-23058104D01*
X245929580Y-23058104D02*
X245977200Y-23010485D01*
X245977200Y-23010485D02*
X246024819Y-22915247D01*
X246024819Y-22915247D02*
X246024819Y-22629533D01*
X246024819Y-22629533D02*
X245977200Y-22534295D01*
X245977200Y-22534295D02*
X245929580Y-22486676D01*
X245120057Y-23486676D02*
X245072438Y-23534295D01*
X245072438Y-23534295D02*
X245024819Y-23629533D01*
X245024819Y-23629533D02*
X245024819Y-23867628D01*
X245024819Y-23867628D02*
X245072438Y-23962866D01*
X245072438Y-23962866D02*
X245120057Y-24010485D01*
X245120057Y-24010485D02*
X245215295Y-24058104D01*
X245215295Y-24058104D02*
X245310533Y-24058104D01*
X245310533Y-24058104D02*
X245453390Y-24010485D01*
X245453390Y-24010485D02*
X246024819Y-23439057D01*
X246024819Y-23439057D02*
X246024819Y-24058104D01*
X228325580Y-53892533D02*
X228373200Y-53844914D01*
X228373200Y-53844914D02*
X228420819Y-53702057D01*
X228420819Y-53702057D02*
X228420819Y-53606819D01*
X228420819Y-53606819D02*
X228373200Y-53463962D01*
X228373200Y-53463962D02*
X228277961Y-53368724D01*
X228277961Y-53368724D02*
X228182723Y-53321105D01*
X228182723Y-53321105D02*
X227992247Y-53273486D01*
X227992247Y-53273486D02*
X227849390Y-53273486D01*
X227849390Y-53273486D02*
X227658914Y-53321105D01*
X227658914Y-53321105D02*
X227563676Y-53368724D01*
X227563676Y-53368724D02*
X227468438Y-53463962D01*
X227468438Y-53463962D02*
X227420819Y-53606819D01*
X227420819Y-53606819D02*
X227420819Y-53702057D01*
X227420819Y-53702057D02*
X227468438Y-53844914D01*
X227468438Y-53844914D02*
X227516057Y-53892533D01*
X227420819Y-54797295D02*
X227420819Y-54321105D01*
X227420819Y-54321105D02*
X227897009Y-54273486D01*
X227897009Y-54273486D02*
X227849390Y-54321105D01*
X227849390Y-54321105D02*
X227801771Y-54416343D01*
X227801771Y-54416343D02*
X227801771Y-54654438D01*
X227801771Y-54654438D02*
X227849390Y-54749676D01*
X227849390Y-54749676D02*
X227897009Y-54797295D01*
X227897009Y-54797295D02*
X227992247Y-54844914D01*
X227992247Y-54844914D02*
X228230342Y-54844914D01*
X228230342Y-54844914D02*
X228325580Y-54797295D01*
X228325580Y-54797295D02*
X228373200Y-54749676D01*
X228373200Y-54749676D02*
X228420819Y-54654438D01*
X228420819Y-54654438D02*
X228420819Y-54416343D01*
X228420819Y-54416343D02*
X228373200Y-54321105D01*
X228373200Y-54321105D02*
X228325580Y-54273486D01*
X228239580Y-100261942D02*
X228287200Y-100214323D01*
X228287200Y-100214323D02*
X228334819Y-100071466D01*
X228334819Y-100071466D02*
X228334819Y-99976228D01*
X228334819Y-99976228D02*
X228287200Y-99833371D01*
X228287200Y-99833371D02*
X228191961Y-99738133D01*
X228191961Y-99738133D02*
X228096723Y-99690514D01*
X228096723Y-99690514D02*
X227906247Y-99642895D01*
X227906247Y-99642895D02*
X227763390Y-99642895D01*
X227763390Y-99642895D02*
X227572914Y-99690514D01*
X227572914Y-99690514D02*
X227477676Y-99738133D01*
X227477676Y-99738133D02*
X227382438Y-99833371D01*
X227382438Y-99833371D02*
X227334819Y-99976228D01*
X227334819Y-99976228D02*
X227334819Y-100071466D01*
X227334819Y-100071466D02*
X227382438Y-100214323D01*
X227382438Y-100214323D02*
X227430057Y-100261942D01*
X228334819Y-101214323D02*
X228334819Y-100642895D01*
X228334819Y-100928609D02*
X227334819Y-100928609D01*
X227334819Y-100928609D02*
X227477676Y-100833371D01*
X227477676Y-100833371D02*
X227572914Y-100738133D01*
X227572914Y-100738133D02*
X227620533Y-100642895D01*
X227334819Y-102119085D02*
X227334819Y-101642895D01*
X227334819Y-101642895D02*
X227811009Y-101595276D01*
X227811009Y-101595276D02*
X227763390Y-101642895D01*
X227763390Y-101642895D02*
X227715771Y-101738133D01*
X227715771Y-101738133D02*
X227715771Y-101976228D01*
X227715771Y-101976228D02*
X227763390Y-102071466D01*
X227763390Y-102071466D02*
X227811009Y-102119085D01*
X227811009Y-102119085D02*
X227906247Y-102166704D01*
X227906247Y-102166704D02*
X228144342Y-102166704D01*
X228144342Y-102166704D02*
X228239580Y-102119085D01*
X228239580Y-102119085D02*
X228287200Y-102071466D01*
X228287200Y-102071466D02*
X228334819Y-101976228D01*
X228334819Y-101976228D02*
X228334819Y-101738133D01*
X228334819Y-101738133D02*
X228287200Y-101642895D01*
X228287200Y-101642895D02*
X228239580Y-101595276D01*
X212757857Y-61054580D02*
X212805476Y-61102200D01*
X212805476Y-61102200D02*
X212948333Y-61149819D01*
X212948333Y-61149819D02*
X213043571Y-61149819D01*
X213043571Y-61149819D02*
X213186428Y-61102200D01*
X213186428Y-61102200D02*
X213281666Y-61006961D01*
X213281666Y-61006961D02*
X213329285Y-60911723D01*
X213329285Y-60911723D02*
X213376904Y-60721247D01*
X213376904Y-60721247D02*
X213376904Y-60578390D01*
X213376904Y-60578390D02*
X213329285Y-60387914D01*
X213329285Y-60387914D02*
X213281666Y-60292676D01*
X213281666Y-60292676D02*
X213186428Y-60197438D01*
X213186428Y-60197438D02*
X213043571Y-60149819D01*
X213043571Y-60149819D02*
X212948333Y-60149819D01*
X212948333Y-60149819D02*
X212805476Y-60197438D01*
X212805476Y-60197438D02*
X212757857Y-60245057D01*
X212424523Y-60149819D02*
X211805476Y-60149819D01*
X211805476Y-60149819D02*
X212138809Y-60530771D01*
X212138809Y-60530771D02*
X211995952Y-60530771D01*
X211995952Y-60530771D02*
X211900714Y-60578390D01*
X211900714Y-60578390D02*
X211853095Y-60626009D01*
X211853095Y-60626009D02*
X211805476Y-60721247D01*
X211805476Y-60721247D02*
X211805476Y-60959342D01*
X211805476Y-60959342D02*
X211853095Y-61054580D01*
X211853095Y-61054580D02*
X211900714Y-61102200D01*
X211900714Y-61102200D02*
X211995952Y-61149819D01*
X211995952Y-61149819D02*
X212281666Y-61149819D01*
X212281666Y-61149819D02*
X212376904Y-61102200D01*
X212376904Y-61102200D02*
X212424523Y-61054580D01*
X211186428Y-60149819D02*
X211091190Y-60149819D01*
X211091190Y-60149819D02*
X210995952Y-60197438D01*
X210995952Y-60197438D02*
X210948333Y-60245057D01*
X210948333Y-60245057D02*
X210900714Y-60340295D01*
X210900714Y-60340295D02*
X210853095Y-60530771D01*
X210853095Y-60530771D02*
X210853095Y-60768866D01*
X210853095Y-60768866D02*
X210900714Y-60959342D01*
X210900714Y-60959342D02*
X210948333Y-61054580D01*
X210948333Y-61054580D02*
X210995952Y-61102200D01*
X210995952Y-61102200D02*
X211091190Y-61149819D01*
X211091190Y-61149819D02*
X211186428Y-61149819D01*
X211186428Y-61149819D02*
X211281666Y-61102200D01*
X211281666Y-61102200D02*
X211329285Y-61054580D01*
X211329285Y-61054580D02*
X211376904Y-60959342D01*
X211376904Y-60959342D02*
X211424523Y-60768866D01*
X211424523Y-60768866D02*
X211424523Y-60530771D01*
X211424523Y-60530771D02*
X211376904Y-60340295D01*
X211376904Y-60340295D02*
X211329285Y-60245057D01*
X211329285Y-60245057D02*
X211281666Y-60197438D01*
X211281666Y-60197438D02*
X211186428Y-60149819D01*
X242059580Y-100166142D02*
X242107200Y-100118523D01*
X242107200Y-100118523D02*
X242154819Y-99975666D01*
X242154819Y-99975666D02*
X242154819Y-99880428D01*
X242154819Y-99880428D02*
X242107200Y-99737571D01*
X242107200Y-99737571D02*
X242011961Y-99642333D01*
X242011961Y-99642333D02*
X241916723Y-99594714D01*
X241916723Y-99594714D02*
X241726247Y-99547095D01*
X241726247Y-99547095D02*
X241583390Y-99547095D01*
X241583390Y-99547095D02*
X241392914Y-99594714D01*
X241392914Y-99594714D02*
X241297676Y-99642333D01*
X241297676Y-99642333D02*
X241202438Y-99737571D01*
X241202438Y-99737571D02*
X241154819Y-99880428D01*
X241154819Y-99880428D02*
X241154819Y-99975666D01*
X241154819Y-99975666D02*
X241202438Y-100118523D01*
X241202438Y-100118523D02*
X241250057Y-100166142D01*
X242154819Y-101118523D02*
X242154819Y-100547095D01*
X242154819Y-100832809D02*
X241154819Y-100832809D01*
X241154819Y-100832809D02*
X241297676Y-100737571D01*
X241297676Y-100737571D02*
X241392914Y-100642333D01*
X241392914Y-100642333D02*
X241440533Y-100547095D01*
X241488152Y-101975666D02*
X242154819Y-101975666D01*
X241107200Y-101737571D02*
X241821485Y-101499476D01*
X241821485Y-101499476D02*
X241821485Y-102118523D01*
X242269580Y-37597142D02*
X242317200Y-37549523D01*
X242317200Y-37549523D02*
X242364819Y-37406666D01*
X242364819Y-37406666D02*
X242364819Y-37311428D01*
X242364819Y-37311428D02*
X242317200Y-37168571D01*
X242317200Y-37168571D02*
X242221961Y-37073333D01*
X242221961Y-37073333D02*
X242126723Y-37025714D01*
X242126723Y-37025714D02*
X241936247Y-36978095D01*
X241936247Y-36978095D02*
X241793390Y-36978095D01*
X241793390Y-36978095D02*
X241602914Y-37025714D01*
X241602914Y-37025714D02*
X241507676Y-37073333D01*
X241507676Y-37073333D02*
X241412438Y-37168571D01*
X241412438Y-37168571D02*
X241364819Y-37311428D01*
X241364819Y-37311428D02*
X241364819Y-37406666D01*
X241364819Y-37406666D02*
X241412438Y-37549523D01*
X241412438Y-37549523D02*
X241460057Y-37597142D01*
X241460057Y-37978095D02*
X241412438Y-38025714D01*
X241412438Y-38025714D02*
X241364819Y-38120952D01*
X241364819Y-38120952D02*
X241364819Y-38359047D01*
X241364819Y-38359047D02*
X241412438Y-38454285D01*
X241412438Y-38454285D02*
X241460057Y-38501904D01*
X241460057Y-38501904D02*
X241555295Y-38549523D01*
X241555295Y-38549523D02*
X241650533Y-38549523D01*
X241650533Y-38549523D02*
X241793390Y-38501904D01*
X241793390Y-38501904D02*
X242364819Y-37930476D01*
X242364819Y-37930476D02*
X242364819Y-38549523D01*
X241364819Y-38882857D02*
X241364819Y-39549523D01*
X241364819Y-39549523D02*
X242364819Y-39120952D01*
X196549580Y-17057142D02*
X196597200Y-17009523D01*
X196597200Y-17009523D02*
X196644819Y-16866666D01*
X196644819Y-16866666D02*
X196644819Y-16771428D01*
X196644819Y-16771428D02*
X196597200Y-16628571D01*
X196597200Y-16628571D02*
X196501961Y-16533333D01*
X196501961Y-16533333D02*
X196406723Y-16485714D01*
X196406723Y-16485714D02*
X196216247Y-16438095D01*
X196216247Y-16438095D02*
X196073390Y-16438095D01*
X196073390Y-16438095D02*
X195882914Y-16485714D01*
X195882914Y-16485714D02*
X195787676Y-16533333D01*
X195787676Y-16533333D02*
X195692438Y-16628571D01*
X195692438Y-16628571D02*
X195644819Y-16771428D01*
X195644819Y-16771428D02*
X195644819Y-16866666D01*
X195644819Y-16866666D02*
X195692438Y-17009523D01*
X195692438Y-17009523D02*
X195740057Y-17057142D01*
X196644819Y-18009523D02*
X196644819Y-17438095D01*
X196644819Y-17723809D02*
X195644819Y-17723809D01*
X195644819Y-17723809D02*
X195787676Y-17628571D01*
X195787676Y-17628571D02*
X195882914Y-17533333D01*
X195882914Y-17533333D02*
X195930533Y-17438095D01*
X195644819Y-18342857D02*
X195644819Y-18961904D01*
X195644819Y-18961904D02*
X196025771Y-18628571D01*
X196025771Y-18628571D02*
X196025771Y-18771428D01*
X196025771Y-18771428D02*
X196073390Y-18866666D01*
X196073390Y-18866666D02*
X196121009Y-18914285D01*
X196121009Y-18914285D02*
X196216247Y-18961904D01*
X196216247Y-18961904D02*
X196454342Y-18961904D01*
X196454342Y-18961904D02*
X196549580Y-18914285D01*
X196549580Y-18914285D02*
X196597200Y-18866666D01*
X196597200Y-18866666D02*
X196644819Y-18771428D01*
X196644819Y-18771428D02*
X196644819Y-18485714D01*
X196644819Y-18485714D02*
X196597200Y-18390476D01*
X196597200Y-18390476D02*
X196549580Y-18342857D01*
X228384580Y-84373442D02*
X228432200Y-84325823D01*
X228432200Y-84325823D02*
X228479819Y-84182966D01*
X228479819Y-84182966D02*
X228479819Y-84087728D01*
X228479819Y-84087728D02*
X228432200Y-83944871D01*
X228432200Y-83944871D02*
X228336961Y-83849633D01*
X228336961Y-83849633D02*
X228241723Y-83802014D01*
X228241723Y-83802014D02*
X228051247Y-83754395D01*
X228051247Y-83754395D02*
X227908390Y-83754395D01*
X227908390Y-83754395D02*
X227717914Y-83802014D01*
X227717914Y-83802014D02*
X227622676Y-83849633D01*
X227622676Y-83849633D02*
X227527438Y-83944871D01*
X227527438Y-83944871D02*
X227479819Y-84087728D01*
X227479819Y-84087728D02*
X227479819Y-84182966D01*
X227479819Y-84182966D02*
X227527438Y-84325823D01*
X227527438Y-84325823D02*
X227575057Y-84373442D01*
X228479819Y-85325823D02*
X228479819Y-84754395D01*
X228479819Y-85040109D02*
X227479819Y-85040109D01*
X227479819Y-85040109D02*
X227622676Y-84944871D01*
X227622676Y-84944871D02*
X227717914Y-84849633D01*
X227717914Y-84849633D02*
X227765533Y-84754395D01*
X227479819Y-85944871D02*
X227479819Y-86040109D01*
X227479819Y-86040109D02*
X227527438Y-86135347D01*
X227527438Y-86135347D02*
X227575057Y-86182966D01*
X227575057Y-86182966D02*
X227670295Y-86230585D01*
X227670295Y-86230585D02*
X227860771Y-86278204D01*
X227860771Y-86278204D02*
X228098866Y-86278204D01*
X228098866Y-86278204D02*
X228289342Y-86230585D01*
X228289342Y-86230585D02*
X228384580Y-86182966D01*
X228384580Y-86182966D02*
X228432200Y-86135347D01*
X228432200Y-86135347D02*
X228479819Y-86040109D01*
X228479819Y-86040109D02*
X228479819Y-85944871D01*
X228479819Y-85944871D02*
X228432200Y-85849633D01*
X228432200Y-85849633D02*
X228384580Y-85802014D01*
X228384580Y-85802014D02*
X228289342Y-85754395D01*
X228289342Y-85754395D02*
X228098866Y-85706776D01*
X228098866Y-85706776D02*
X227860771Y-85706776D01*
X227860771Y-85706776D02*
X227670295Y-85754395D01*
X227670295Y-85754395D02*
X227575057Y-85802014D01*
X227575057Y-85802014D02*
X227527438Y-85849633D01*
X227527438Y-85849633D02*
X227479819Y-85944871D01*
X200062857Y-135209580D02*
X200110476Y-135257200D01*
X200110476Y-135257200D02*
X200253333Y-135304819D01*
X200253333Y-135304819D02*
X200348571Y-135304819D01*
X200348571Y-135304819D02*
X200491428Y-135257200D01*
X200491428Y-135257200D02*
X200586666Y-135161961D01*
X200586666Y-135161961D02*
X200634285Y-135066723D01*
X200634285Y-135066723D02*
X200681904Y-134876247D01*
X200681904Y-134876247D02*
X200681904Y-134733390D01*
X200681904Y-134733390D02*
X200634285Y-134542914D01*
X200634285Y-134542914D02*
X200586666Y-134447676D01*
X200586666Y-134447676D02*
X200491428Y-134352438D01*
X200491428Y-134352438D02*
X200348571Y-134304819D01*
X200348571Y-134304819D02*
X200253333Y-134304819D01*
X200253333Y-134304819D02*
X200110476Y-134352438D01*
X200110476Y-134352438D02*
X200062857Y-134400057D01*
X199681904Y-134400057D02*
X199634285Y-134352438D01*
X199634285Y-134352438D02*
X199539047Y-134304819D01*
X199539047Y-134304819D02*
X199300952Y-134304819D01*
X199300952Y-134304819D02*
X199205714Y-134352438D01*
X199205714Y-134352438D02*
X199158095Y-134400057D01*
X199158095Y-134400057D02*
X199110476Y-134495295D01*
X199110476Y-134495295D02*
X199110476Y-134590533D01*
X199110476Y-134590533D02*
X199158095Y-134733390D01*
X199158095Y-134733390D02*
X199729523Y-135304819D01*
X199729523Y-135304819D02*
X199110476Y-135304819D01*
X198634285Y-135304819D02*
X198443809Y-135304819D01*
X198443809Y-135304819D02*
X198348571Y-135257200D01*
X198348571Y-135257200D02*
X198300952Y-135209580D01*
X198300952Y-135209580D02*
X198205714Y-135066723D01*
X198205714Y-135066723D02*
X198158095Y-134876247D01*
X198158095Y-134876247D02*
X198158095Y-134495295D01*
X198158095Y-134495295D02*
X198205714Y-134400057D01*
X198205714Y-134400057D02*
X198253333Y-134352438D01*
X198253333Y-134352438D02*
X198348571Y-134304819D01*
X198348571Y-134304819D02*
X198539047Y-134304819D01*
X198539047Y-134304819D02*
X198634285Y-134352438D01*
X198634285Y-134352438D02*
X198681904Y-134400057D01*
X198681904Y-134400057D02*
X198729523Y-134495295D01*
X198729523Y-134495295D02*
X198729523Y-134733390D01*
X198729523Y-134733390D02*
X198681904Y-134828628D01*
X198681904Y-134828628D02*
X198634285Y-134876247D01*
X198634285Y-134876247D02*
X198539047Y-134923866D01*
X198539047Y-134923866D02*
X198348571Y-134923866D01*
X198348571Y-134923866D02*
X198253333Y-134876247D01*
X198253333Y-134876247D02*
X198205714Y-134828628D01*
X198205714Y-134828628D02*
X198158095Y-134733390D01*
X221889880Y-100261942D02*
X221937500Y-100214323D01*
X221937500Y-100214323D02*
X221985119Y-100071466D01*
X221985119Y-100071466D02*
X221985119Y-99976228D01*
X221985119Y-99976228D02*
X221937500Y-99833371D01*
X221937500Y-99833371D02*
X221842261Y-99738133D01*
X221842261Y-99738133D02*
X221747023Y-99690514D01*
X221747023Y-99690514D02*
X221556547Y-99642895D01*
X221556547Y-99642895D02*
X221413690Y-99642895D01*
X221413690Y-99642895D02*
X221223214Y-99690514D01*
X221223214Y-99690514D02*
X221127976Y-99738133D01*
X221127976Y-99738133D02*
X221032738Y-99833371D01*
X221032738Y-99833371D02*
X220985119Y-99976228D01*
X220985119Y-99976228D02*
X220985119Y-100071466D01*
X220985119Y-100071466D02*
X221032738Y-100214323D01*
X221032738Y-100214323D02*
X221080357Y-100261942D01*
X221985119Y-101214323D02*
X221985119Y-100642895D01*
X221985119Y-100928609D02*
X220985119Y-100928609D01*
X220985119Y-100928609D02*
X221127976Y-100833371D01*
X221127976Y-100833371D02*
X221223214Y-100738133D01*
X221223214Y-100738133D02*
X221270833Y-100642895D01*
X221080357Y-101595276D02*
X221032738Y-101642895D01*
X221032738Y-101642895D02*
X220985119Y-101738133D01*
X220985119Y-101738133D02*
X220985119Y-101976228D01*
X220985119Y-101976228D02*
X221032738Y-102071466D01*
X221032738Y-102071466D02*
X221080357Y-102119085D01*
X221080357Y-102119085D02*
X221175595Y-102166704D01*
X221175595Y-102166704D02*
X221270833Y-102166704D01*
X221270833Y-102166704D02*
X221413690Y-102119085D01*
X221413690Y-102119085D02*
X221985119Y-101547657D01*
X221985119Y-101547657D02*
X221985119Y-102166704D01*
X242104580Y-115670642D02*
X242152200Y-115623023D01*
X242152200Y-115623023D02*
X242199819Y-115480166D01*
X242199819Y-115480166D02*
X242199819Y-115384928D01*
X242199819Y-115384928D02*
X242152200Y-115242071D01*
X242152200Y-115242071D02*
X242056961Y-115146833D01*
X242056961Y-115146833D02*
X241961723Y-115099214D01*
X241961723Y-115099214D02*
X241771247Y-115051595D01*
X241771247Y-115051595D02*
X241628390Y-115051595D01*
X241628390Y-115051595D02*
X241437914Y-115099214D01*
X241437914Y-115099214D02*
X241342676Y-115146833D01*
X241342676Y-115146833D02*
X241247438Y-115242071D01*
X241247438Y-115242071D02*
X241199819Y-115384928D01*
X241199819Y-115384928D02*
X241199819Y-115480166D01*
X241199819Y-115480166D02*
X241247438Y-115623023D01*
X241247438Y-115623023D02*
X241295057Y-115670642D01*
X241295057Y-116051595D02*
X241247438Y-116099214D01*
X241247438Y-116099214D02*
X241199819Y-116194452D01*
X241199819Y-116194452D02*
X241199819Y-116432547D01*
X241199819Y-116432547D02*
X241247438Y-116527785D01*
X241247438Y-116527785D02*
X241295057Y-116575404D01*
X241295057Y-116575404D02*
X241390295Y-116623023D01*
X241390295Y-116623023D02*
X241485533Y-116623023D01*
X241485533Y-116623023D02*
X241628390Y-116575404D01*
X241628390Y-116575404D02*
X242199819Y-116003976D01*
X242199819Y-116003976D02*
X242199819Y-116623023D01*
X241199819Y-117242071D02*
X241199819Y-117337309D01*
X241199819Y-117337309D02*
X241247438Y-117432547D01*
X241247438Y-117432547D02*
X241295057Y-117480166D01*
X241295057Y-117480166D02*
X241390295Y-117527785D01*
X241390295Y-117527785D02*
X241580771Y-117575404D01*
X241580771Y-117575404D02*
X241818866Y-117575404D01*
X241818866Y-117575404D02*
X242009342Y-117527785D01*
X242009342Y-117527785D02*
X242104580Y-117480166D01*
X242104580Y-117480166D02*
X242152200Y-117432547D01*
X242152200Y-117432547D02*
X242199819Y-117337309D01*
X242199819Y-117337309D02*
X242199819Y-117242071D01*
X242199819Y-117242071D02*
X242152200Y-117146833D01*
X242152200Y-117146833D02*
X242104580Y-117099214D01*
X242104580Y-117099214D02*
X242009342Y-117051595D01*
X242009342Y-117051595D02*
X241818866Y-117003976D01*
X241818866Y-117003976D02*
X241580771Y-117003976D01*
X241580771Y-117003976D02*
X241390295Y-117051595D01*
X241390295Y-117051595D02*
X241295057Y-117099214D01*
X241295057Y-117099214D02*
X241247438Y-117146833D01*
X241247438Y-117146833D02*
X241199819Y-117242071D01*
X164423333Y-118459819D02*
X164423333Y-119174104D01*
X164423333Y-119174104D02*
X164470952Y-119316961D01*
X164470952Y-119316961D02*
X164566190Y-119412200D01*
X164566190Y-119412200D02*
X164709047Y-119459819D01*
X164709047Y-119459819D02*
X164804285Y-119459819D01*
X163470952Y-118459819D02*
X163947142Y-118459819D01*
X163947142Y-118459819D02*
X163994761Y-118936009D01*
X163994761Y-118936009D02*
X163947142Y-118888390D01*
X163947142Y-118888390D02*
X163851904Y-118840771D01*
X163851904Y-118840771D02*
X163613809Y-118840771D01*
X163613809Y-118840771D02*
X163518571Y-118888390D01*
X163518571Y-118888390D02*
X163470952Y-118936009D01*
X163470952Y-118936009D02*
X163423333Y-119031247D01*
X163423333Y-119031247D02*
X163423333Y-119269342D01*
X163423333Y-119269342D02*
X163470952Y-119364580D01*
X163470952Y-119364580D02*
X163518571Y-119412200D01*
X163518571Y-119412200D02*
X163613809Y-119459819D01*
X163613809Y-119459819D02*
X163851904Y-119459819D01*
X163851904Y-119459819D02*
X163947142Y-119412200D01*
X163947142Y-119412200D02*
X163994761Y-119364580D01*
X242219580Y-53844033D02*
X242267200Y-53796414D01*
X242267200Y-53796414D02*
X242314819Y-53653557D01*
X242314819Y-53653557D02*
X242314819Y-53558319D01*
X242314819Y-53558319D02*
X242267200Y-53415462D01*
X242267200Y-53415462D02*
X242171961Y-53320224D01*
X242171961Y-53320224D02*
X242076723Y-53272605D01*
X242076723Y-53272605D02*
X241886247Y-53224986D01*
X241886247Y-53224986D02*
X241743390Y-53224986D01*
X241743390Y-53224986D02*
X241552914Y-53272605D01*
X241552914Y-53272605D02*
X241457676Y-53320224D01*
X241457676Y-53320224D02*
X241362438Y-53415462D01*
X241362438Y-53415462D02*
X241314819Y-53558319D01*
X241314819Y-53558319D02*
X241314819Y-53653557D01*
X241314819Y-53653557D02*
X241362438Y-53796414D01*
X241362438Y-53796414D02*
X241410057Y-53844033D01*
X241648152Y-54701176D02*
X242314819Y-54701176D01*
X241267200Y-54463081D02*
X241981485Y-54224986D01*
X241981485Y-54224986D02*
X241981485Y-54844033D01*
X189343057Y-135681680D02*
X189390676Y-135729300D01*
X189390676Y-135729300D02*
X189533533Y-135776919D01*
X189533533Y-135776919D02*
X189628771Y-135776919D01*
X189628771Y-135776919D02*
X189771628Y-135729300D01*
X189771628Y-135729300D02*
X189866866Y-135634061D01*
X189866866Y-135634061D02*
X189914485Y-135538823D01*
X189914485Y-135538823D02*
X189962104Y-135348347D01*
X189962104Y-135348347D02*
X189962104Y-135205490D01*
X189962104Y-135205490D02*
X189914485Y-135015014D01*
X189914485Y-135015014D02*
X189866866Y-134919776D01*
X189866866Y-134919776D02*
X189771628Y-134824538D01*
X189771628Y-134824538D02*
X189628771Y-134776919D01*
X189628771Y-134776919D02*
X189533533Y-134776919D01*
X189533533Y-134776919D02*
X189390676Y-134824538D01*
X189390676Y-134824538D02*
X189343057Y-134872157D01*
X188390676Y-135776919D02*
X188962104Y-135776919D01*
X188676390Y-135776919D02*
X188676390Y-134776919D01*
X188676390Y-134776919D02*
X188771628Y-134919776D01*
X188771628Y-134919776D02*
X188866866Y-135015014D01*
X188866866Y-135015014D02*
X188962104Y-135062633D01*
X187533533Y-134776919D02*
X187724009Y-134776919D01*
X187724009Y-134776919D02*
X187819247Y-134824538D01*
X187819247Y-134824538D02*
X187866866Y-134872157D01*
X187866866Y-134872157D02*
X187962104Y-135015014D01*
X187962104Y-135015014D02*
X188009723Y-135205490D01*
X188009723Y-135205490D02*
X188009723Y-135586442D01*
X188009723Y-135586442D02*
X187962104Y-135681680D01*
X187962104Y-135681680D02*
X187914485Y-135729300D01*
X187914485Y-135729300D02*
X187819247Y-135776919D01*
X187819247Y-135776919D02*
X187628771Y-135776919D01*
X187628771Y-135776919D02*
X187533533Y-135729300D01*
X187533533Y-135729300D02*
X187485914Y-135681680D01*
X187485914Y-135681680D02*
X187438295Y-135586442D01*
X187438295Y-135586442D02*
X187438295Y-135348347D01*
X187438295Y-135348347D02*
X187485914Y-135253109D01*
X187485914Y-135253109D02*
X187533533Y-135205490D01*
X187533533Y-135205490D02*
X187628771Y-135157871D01*
X187628771Y-135157871D02*
X187819247Y-135157871D01*
X187819247Y-135157871D02*
X187914485Y-135205490D01*
X187914485Y-135205490D02*
X187962104Y-135253109D01*
X187962104Y-135253109D02*
X188009723Y-135348347D01*
X199449580Y-37637142D02*
X199497200Y-37589523D01*
X199497200Y-37589523D02*
X199544819Y-37446666D01*
X199544819Y-37446666D02*
X199544819Y-37351428D01*
X199544819Y-37351428D02*
X199497200Y-37208571D01*
X199497200Y-37208571D02*
X199401961Y-37113333D01*
X199401961Y-37113333D02*
X199306723Y-37065714D01*
X199306723Y-37065714D02*
X199116247Y-37018095D01*
X199116247Y-37018095D02*
X198973390Y-37018095D01*
X198973390Y-37018095D02*
X198782914Y-37065714D01*
X198782914Y-37065714D02*
X198687676Y-37113333D01*
X198687676Y-37113333D02*
X198592438Y-37208571D01*
X198592438Y-37208571D02*
X198544819Y-37351428D01*
X198544819Y-37351428D02*
X198544819Y-37446666D01*
X198544819Y-37446666D02*
X198592438Y-37589523D01*
X198592438Y-37589523D02*
X198640057Y-37637142D01*
X199544819Y-38589523D02*
X199544819Y-38018095D01*
X199544819Y-38303809D02*
X198544819Y-38303809D01*
X198544819Y-38303809D02*
X198687676Y-38208571D01*
X198687676Y-38208571D02*
X198782914Y-38113333D01*
X198782914Y-38113333D02*
X198830533Y-38018095D01*
X198973390Y-39160952D02*
X198925771Y-39065714D01*
X198925771Y-39065714D02*
X198878152Y-39018095D01*
X198878152Y-39018095D02*
X198782914Y-38970476D01*
X198782914Y-38970476D02*
X198735295Y-38970476D01*
X198735295Y-38970476D02*
X198640057Y-39018095D01*
X198640057Y-39018095D02*
X198592438Y-39065714D01*
X198592438Y-39065714D02*
X198544819Y-39160952D01*
X198544819Y-39160952D02*
X198544819Y-39351428D01*
X198544819Y-39351428D02*
X198592438Y-39446666D01*
X198592438Y-39446666D02*
X198640057Y-39494285D01*
X198640057Y-39494285D02*
X198735295Y-39541904D01*
X198735295Y-39541904D02*
X198782914Y-39541904D01*
X198782914Y-39541904D02*
X198878152Y-39494285D01*
X198878152Y-39494285D02*
X198925771Y-39446666D01*
X198925771Y-39446666D02*
X198973390Y-39351428D01*
X198973390Y-39351428D02*
X198973390Y-39160952D01*
X198973390Y-39160952D02*
X199021009Y-39065714D01*
X199021009Y-39065714D02*
X199068628Y-39018095D01*
X199068628Y-39018095D02*
X199163866Y-38970476D01*
X199163866Y-38970476D02*
X199354342Y-38970476D01*
X199354342Y-38970476D02*
X199449580Y-39018095D01*
X199449580Y-39018095D02*
X199497200Y-39065714D01*
X199497200Y-39065714D02*
X199544819Y-39160952D01*
X199544819Y-39160952D02*
X199544819Y-39351428D01*
X199544819Y-39351428D02*
X199497200Y-39446666D01*
X199497200Y-39446666D02*
X199449580Y-39494285D01*
X199449580Y-39494285D02*
X199354342Y-39541904D01*
X199354342Y-39541904D02*
X199163866Y-39541904D01*
X199163866Y-39541904D02*
X199068628Y-39494285D01*
X199068628Y-39494285D02*
X199021009Y-39446666D01*
X199021009Y-39446666D02*
X198973390Y-39351428D01*
X228329580Y-22443342D02*
X228377200Y-22395723D01*
X228377200Y-22395723D02*
X228424819Y-22252866D01*
X228424819Y-22252866D02*
X228424819Y-22157628D01*
X228424819Y-22157628D02*
X228377200Y-22014771D01*
X228377200Y-22014771D02*
X228281961Y-21919533D01*
X228281961Y-21919533D02*
X228186723Y-21871914D01*
X228186723Y-21871914D02*
X227996247Y-21824295D01*
X227996247Y-21824295D02*
X227853390Y-21824295D01*
X227853390Y-21824295D02*
X227662914Y-21871914D01*
X227662914Y-21871914D02*
X227567676Y-21919533D01*
X227567676Y-21919533D02*
X227472438Y-22014771D01*
X227472438Y-22014771D02*
X227424819Y-22157628D01*
X227424819Y-22157628D02*
X227424819Y-22252866D01*
X227424819Y-22252866D02*
X227472438Y-22395723D01*
X227472438Y-22395723D02*
X227520057Y-22443342D01*
X227424819Y-22776676D02*
X227424819Y-23395723D01*
X227424819Y-23395723D02*
X227805771Y-23062390D01*
X227805771Y-23062390D02*
X227805771Y-23205247D01*
X227805771Y-23205247D02*
X227853390Y-23300485D01*
X227853390Y-23300485D02*
X227901009Y-23348104D01*
X227901009Y-23348104D02*
X227996247Y-23395723D01*
X227996247Y-23395723D02*
X228234342Y-23395723D01*
X228234342Y-23395723D02*
X228329580Y-23348104D01*
X228329580Y-23348104D02*
X228377200Y-23300485D01*
X228377200Y-23300485D02*
X228424819Y-23205247D01*
X228424819Y-23205247D02*
X228424819Y-22919533D01*
X228424819Y-22919533D02*
X228377200Y-22824295D01*
X228377200Y-22824295D02*
X228329580Y-22776676D01*
X228424819Y-24348104D02*
X228424819Y-23776676D01*
X228424819Y-24062390D02*
X227424819Y-24062390D01*
X227424819Y-24062390D02*
X227567676Y-23967152D01*
X227567676Y-23967152D02*
X227662914Y-23871914D01*
X227662914Y-23871914D02*
X227710533Y-23776676D01*
X200342857Y-119879580D02*
X200390476Y-119927200D01*
X200390476Y-119927200D02*
X200533333Y-119974819D01*
X200533333Y-119974819D02*
X200628571Y-119974819D01*
X200628571Y-119974819D02*
X200771428Y-119927200D01*
X200771428Y-119927200D02*
X200866666Y-119831961D01*
X200866666Y-119831961D02*
X200914285Y-119736723D01*
X200914285Y-119736723D02*
X200961904Y-119546247D01*
X200961904Y-119546247D02*
X200961904Y-119403390D01*
X200961904Y-119403390D02*
X200914285Y-119212914D01*
X200914285Y-119212914D02*
X200866666Y-119117676D01*
X200866666Y-119117676D02*
X200771428Y-119022438D01*
X200771428Y-119022438D02*
X200628571Y-118974819D01*
X200628571Y-118974819D02*
X200533333Y-118974819D01*
X200533333Y-118974819D02*
X200390476Y-119022438D01*
X200390476Y-119022438D02*
X200342857Y-119070057D01*
X199961904Y-119070057D02*
X199914285Y-119022438D01*
X199914285Y-119022438D02*
X199819047Y-118974819D01*
X199819047Y-118974819D02*
X199580952Y-118974819D01*
X199580952Y-118974819D02*
X199485714Y-119022438D01*
X199485714Y-119022438D02*
X199438095Y-119070057D01*
X199438095Y-119070057D02*
X199390476Y-119165295D01*
X199390476Y-119165295D02*
X199390476Y-119260533D01*
X199390476Y-119260533D02*
X199438095Y-119403390D01*
X199438095Y-119403390D02*
X200009523Y-119974819D01*
X200009523Y-119974819D02*
X199390476Y-119974819D01*
X198819047Y-119403390D02*
X198914285Y-119355771D01*
X198914285Y-119355771D02*
X198961904Y-119308152D01*
X198961904Y-119308152D02*
X199009523Y-119212914D01*
X199009523Y-119212914D02*
X199009523Y-119165295D01*
X199009523Y-119165295D02*
X198961904Y-119070057D01*
X198961904Y-119070057D02*
X198914285Y-119022438D01*
X198914285Y-119022438D02*
X198819047Y-118974819D01*
X198819047Y-118974819D02*
X198628571Y-118974819D01*
X198628571Y-118974819D02*
X198533333Y-119022438D01*
X198533333Y-119022438D02*
X198485714Y-119070057D01*
X198485714Y-119070057D02*
X198438095Y-119165295D01*
X198438095Y-119165295D02*
X198438095Y-119212914D01*
X198438095Y-119212914D02*
X198485714Y-119308152D01*
X198485714Y-119308152D02*
X198533333Y-119355771D01*
X198533333Y-119355771D02*
X198628571Y-119403390D01*
X198628571Y-119403390D02*
X198819047Y-119403390D01*
X198819047Y-119403390D02*
X198914285Y-119451009D01*
X198914285Y-119451009D02*
X198961904Y-119498628D01*
X198961904Y-119498628D02*
X199009523Y-119593866D01*
X199009523Y-119593866D02*
X199009523Y-119784342D01*
X199009523Y-119784342D02*
X198961904Y-119879580D01*
X198961904Y-119879580D02*
X198914285Y-119927200D01*
X198914285Y-119927200D02*
X198819047Y-119974819D01*
X198819047Y-119974819D02*
X198628571Y-119974819D01*
X198628571Y-119974819D02*
X198533333Y-119927200D01*
X198533333Y-119927200D02*
X198485714Y-119879580D01*
X198485714Y-119879580D02*
X198438095Y-119784342D01*
X198438095Y-119784342D02*
X198438095Y-119593866D01*
X198438095Y-119593866D02*
X198485714Y-119498628D01*
X198485714Y-119498628D02*
X198533333Y-119451009D01*
X198533333Y-119451009D02*
X198628571Y-119403390D01*
X221999580Y-69689533D02*
X222047200Y-69641914D01*
X222047200Y-69641914D02*
X222094819Y-69499057D01*
X222094819Y-69499057D02*
X222094819Y-69403819D01*
X222094819Y-69403819D02*
X222047200Y-69260962D01*
X222047200Y-69260962D02*
X221951961Y-69165724D01*
X221951961Y-69165724D02*
X221856723Y-69118105D01*
X221856723Y-69118105D02*
X221666247Y-69070486D01*
X221666247Y-69070486D02*
X221523390Y-69070486D01*
X221523390Y-69070486D02*
X221332914Y-69118105D01*
X221332914Y-69118105D02*
X221237676Y-69165724D01*
X221237676Y-69165724D02*
X221142438Y-69260962D01*
X221142438Y-69260962D02*
X221094819Y-69403819D01*
X221094819Y-69403819D02*
X221094819Y-69499057D01*
X221094819Y-69499057D02*
X221142438Y-69641914D01*
X221142438Y-69641914D02*
X221190057Y-69689533D01*
X221094819Y-70022867D02*
X221094819Y-70641914D01*
X221094819Y-70641914D02*
X221475771Y-70308581D01*
X221475771Y-70308581D02*
X221475771Y-70451438D01*
X221475771Y-70451438D02*
X221523390Y-70546676D01*
X221523390Y-70546676D02*
X221571009Y-70594295D01*
X221571009Y-70594295D02*
X221666247Y-70641914D01*
X221666247Y-70641914D02*
X221904342Y-70641914D01*
X221904342Y-70641914D02*
X221999580Y-70594295D01*
X221999580Y-70594295D02*
X222047200Y-70546676D01*
X222047200Y-70546676D02*
X222094819Y-70451438D01*
X222094819Y-70451438D02*
X222094819Y-70165724D01*
X222094819Y-70165724D02*
X222047200Y-70070486D01*
X222047200Y-70070486D02*
X221999580Y-70022867D01*
X228264580Y-115663542D02*
X228312200Y-115615923D01*
X228312200Y-115615923D02*
X228359819Y-115473066D01*
X228359819Y-115473066D02*
X228359819Y-115377828D01*
X228359819Y-115377828D02*
X228312200Y-115234971D01*
X228312200Y-115234971D02*
X228216961Y-115139733D01*
X228216961Y-115139733D02*
X228121723Y-115092114D01*
X228121723Y-115092114D02*
X227931247Y-115044495D01*
X227931247Y-115044495D02*
X227788390Y-115044495D01*
X227788390Y-115044495D02*
X227597914Y-115092114D01*
X227597914Y-115092114D02*
X227502676Y-115139733D01*
X227502676Y-115139733D02*
X227407438Y-115234971D01*
X227407438Y-115234971D02*
X227359819Y-115377828D01*
X227359819Y-115377828D02*
X227359819Y-115473066D01*
X227359819Y-115473066D02*
X227407438Y-115615923D01*
X227407438Y-115615923D02*
X227455057Y-115663542D01*
X227455057Y-116044495D02*
X227407438Y-116092114D01*
X227407438Y-116092114D02*
X227359819Y-116187352D01*
X227359819Y-116187352D02*
X227359819Y-116425447D01*
X227359819Y-116425447D02*
X227407438Y-116520685D01*
X227407438Y-116520685D02*
X227455057Y-116568304D01*
X227455057Y-116568304D02*
X227550295Y-116615923D01*
X227550295Y-116615923D02*
X227645533Y-116615923D01*
X227645533Y-116615923D02*
X227788390Y-116568304D01*
X227788390Y-116568304D02*
X228359819Y-115996876D01*
X228359819Y-115996876D02*
X228359819Y-116615923D01*
X228359819Y-117568304D02*
X228359819Y-116996876D01*
X228359819Y-117282590D02*
X227359819Y-117282590D01*
X227359819Y-117282590D02*
X227502676Y-117187352D01*
X227502676Y-117187352D02*
X227597914Y-117092114D01*
X227597914Y-117092114D02*
X227645533Y-116996876D01*
X221924580Y-53416342D02*
X221972200Y-53368723D01*
X221972200Y-53368723D02*
X222019819Y-53225866D01*
X222019819Y-53225866D02*
X222019819Y-53130628D01*
X222019819Y-53130628D02*
X221972200Y-52987771D01*
X221972200Y-52987771D02*
X221876961Y-52892533D01*
X221876961Y-52892533D02*
X221781723Y-52844914D01*
X221781723Y-52844914D02*
X221591247Y-52797295D01*
X221591247Y-52797295D02*
X221448390Y-52797295D01*
X221448390Y-52797295D02*
X221257914Y-52844914D01*
X221257914Y-52844914D02*
X221162676Y-52892533D01*
X221162676Y-52892533D02*
X221067438Y-52987771D01*
X221067438Y-52987771D02*
X221019819Y-53130628D01*
X221019819Y-53130628D02*
X221019819Y-53225866D01*
X221019819Y-53225866D02*
X221067438Y-53368723D01*
X221067438Y-53368723D02*
X221115057Y-53416342D01*
X221115057Y-53797295D02*
X221067438Y-53844914D01*
X221067438Y-53844914D02*
X221019819Y-53940152D01*
X221019819Y-53940152D02*
X221019819Y-54178247D01*
X221019819Y-54178247D02*
X221067438Y-54273485D01*
X221067438Y-54273485D02*
X221115057Y-54321104D01*
X221115057Y-54321104D02*
X221210295Y-54368723D01*
X221210295Y-54368723D02*
X221305533Y-54368723D01*
X221305533Y-54368723D02*
X221448390Y-54321104D01*
X221448390Y-54321104D02*
X222019819Y-53749676D01*
X222019819Y-53749676D02*
X222019819Y-54368723D01*
X221353152Y-55225866D02*
X222019819Y-55225866D01*
X220972200Y-54987771D02*
X221686485Y-54749676D01*
X221686485Y-54749676D02*
X221686485Y-55368723D01*
X222009580Y-37859642D02*
X222057200Y-37812023D01*
X222057200Y-37812023D02*
X222104819Y-37669166D01*
X222104819Y-37669166D02*
X222104819Y-37573928D01*
X222104819Y-37573928D02*
X222057200Y-37431071D01*
X222057200Y-37431071D02*
X221961961Y-37335833D01*
X221961961Y-37335833D02*
X221866723Y-37288214D01*
X221866723Y-37288214D02*
X221676247Y-37240595D01*
X221676247Y-37240595D02*
X221533390Y-37240595D01*
X221533390Y-37240595D02*
X221342914Y-37288214D01*
X221342914Y-37288214D02*
X221247676Y-37335833D01*
X221247676Y-37335833D02*
X221152438Y-37431071D01*
X221152438Y-37431071D02*
X221104819Y-37573928D01*
X221104819Y-37573928D02*
X221104819Y-37669166D01*
X221104819Y-37669166D02*
X221152438Y-37812023D01*
X221152438Y-37812023D02*
X221200057Y-37859642D01*
X221200057Y-38240595D02*
X221152438Y-38288214D01*
X221152438Y-38288214D02*
X221104819Y-38383452D01*
X221104819Y-38383452D02*
X221104819Y-38621547D01*
X221104819Y-38621547D02*
X221152438Y-38716785D01*
X221152438Y-38716785D02*
X221200057Y-38764404D01*
X221200057Y-38764404D02*
X221295295Y-38812023D01*
X221295295Y-38812023D02*
X221390533Y-38812023D01*
X221390533Y-38812023D02*
X221533390Y-38764404D01*
X221533390Y-38764404D02*
X222104819Y-38192976D01*
X222104819Y-38192976D02*
X222104819Y-38812023D01*
X221104819Y-39716785D02*
X221104819Y-39240595D01*
X221104819Y-39240595D02*
X221581009Y-39192976D01*
X221581009Y-39192976D02*
X221533390Y-39240595D01*
X221533390Y-39240595D02*
X221485771Y-39335833D01*
X221485771Y-39335833D02*
X221485771Y-39573928D01*
X221485771Y-39573928D02*
X221533390Y-39669166D01*
X221533390Y-39669166D02*
X221581009Y-39716785D01*
X221581009Y-39716785D02*
X221676247Y-39764404D01*
X221676247Y-39764404D02*
X221914342Y-39764404D01*
X221914342Y-39764404D02*
X222009580Y-39716785D01*
X222009580Y-39716785D02*
X222057200Y-39669166D01*
X222057200Y-39669166D02*
X222104819Y-39573928D01*
X222104819Y-39573928D02*
X222104819Y-39335833D01*
X222104819Y-39335833D02*
X222057200Y-39240595D01*
X222057200Y-39240595D02*
X222009580Y-39192976D01*
X171716666Y-60929580D02*
X171764285Y-60977200D01*
X171764285Y-60977200D02*
X171907142Y-61024819D01*
X171907142Y-61024819D02*
X172002380Y-61024819D01*
X172002380Y-61024819D02*
X172145237Y-60977200D01*
X172145237Y-60977200D02*
X172240475Y-60881961D01*
X172240475Y-60881961D02*
X172288094Y-60786723D01*
X172288094Y-60786723D02*
X172335713Y-60596247D01*
X172335713Y-60596247D02*
X172335713Y-60453390D01*
X172335713Y-60453390D02*
X172288094Y-60262914D01*
X172288094Y-60262914D02*
X172240475Y-60167676D01*
X172240475Y-60167676D02*
X172145237Y-60072438D01*
X172145237Y-60072438D02*
X172002380Y-60024819D01*
X172002380Y-60024819D02*
X171907142Y-60024819D01*
X171907142Y-60024819D02*
X171764285Y-60072438D01*
X171764285Y-60072438D02*
X171716666Y-60120057D01*
X170764285Y-61024819D02*
X171335713Y-61024819D01*
X171049999Y-61024819D02*
X171049999Y-60024819D01*
X171049999Y-60024819D02*
X171145237Y-60167676D01*
X171145237Y-60167676D02*
X171240475Y-60262914D01*
X171240475Y-60262914D02*
X171335713Y-60310533D01*
D11*
G04 #@! TO.C,C22*
X219090000Y-116045148D02*
X219090000Y-116567652D01*
X220560000Y-116045148D02*
X220560000Y-116567652D01*
G04 #@! TO.C,C6*
X242925000Y-69592448D02*
X242925000Y-70114952D01*
X244395000Y-69592448D02*
X244395000Y-70114952D01*
G04 #@! TO.C,C8*
X219140000Y-22824948D02*
X219140000Y-23347452D01*
X220610000Y-22824948D02*
X220610000Y-23347452D01*
G04 #@! TO.C,C26*
X225565000Y-38238748D02*
X225565000Y-38761252D01*
X227035000Y-38238748D02*
X227035000Y-38761252D01*
G04 #@! TO.C,C17*
X242895000Y-131698748D02*
X242895000Y-132221252D01*
X244365000Y-131698748D02*
X244365000Y-132221252D01*
G04 #@! TO.C,C7*
X225565000Y-69602448D02*
X225565000Y-70124952D01*
X227035000Y-69602448D02*
X227035000Y-70124952D01*
G04 #@! TO.C,C23*
X225515000Y-131693748D02*
X225515000Y-132216252D01*
X226985000Y-131693748D02*
X226985000Y-132216252D01*
G04 #@! TO.C,C9*
X242915000Y-84845048D02*
X242915000Y-85367552D01*
X244385000Y-84845048D02*
X244385000Y-85367552D01*
G04 #@! TO.C,C11*
X219170900Y-84750348D02*
X219170900Y-85272852D01*
X220640900Y-84750348D02*
X220640900Y-85272852D01*
G04 #@! TO.C,C19*
X219090000Y-131738748D02*
X219090000Y-132261252D01*
X220560000Y-131738748D02*
X220560000Y-132261252D01*
G04 #@! TO.C,C32*
X243155000Y-22534948D02*
X243155000Y-23057452D01*
X244625000Y-22534948D02*
X244625000Y-23057452D01*
G04 #@! TO.C,C5*
X225551000Y-53797948D02*
X225551000Y-54320452D01*
X227021000Y-53797948D02*
X227021000Y-54320452D01*
G04 #@! TO.C,C15*
X225465000Y-100643548D02*
X225465000Y-101166052D01*
X226935000Y-100643548D02*
X226935000Y-101166052D01*
G04 #@! TO.C,C30*
X211853748Y-61640000D02*
X212376252Y-61640000D01*
X211853748Y-63110000D02*
X212376252Y-63110000D01*
G04 #@! TO.C,C14*
X242915000Y-100595648D02*
X242915000Y-101118152D01*
X244385000Y-100595648D02*
X244385000Y-101118152D01*
G04 #@! TO.C,C27*
X242975000Y-38128748D02*
X242975000Y-38651252D01*
X244445000Y-38128748D02*
X244445000Y-38651252D01*
G04 #@! TO.C,C13*
X195445000Y-20828748D02*
X195445000Y-21351252D01*
X196915000Y-20828748D02*
X196915000Y-21351252D01*
G04 #@! TO.C,C10*
X225610000Y-84755048D02*
X225610000Y-85277552D01*
X227080000Y-84755048D02*
X227080000Y-85277552D01*
G04 #@! TO.C,C29*
X199118748Y-135885000D02*
X199641252Y-135885000D01*
X199118748Y-137355000D02*
X199641252Y-137355000D01*
G04 #@! TO.C,C12*
X219115300Y-100643548D02*
X219115300Y-101166052D01*
X220585300Y-100643548D02*
X220585300Y-101166052D01*
G04 #@! TO.C,C20*
X242935000Y-116052248D02*
X242935000Y-116574752D01*
X244405000Y-116052248D02*
X244405000Y-116574752D01*
G04 #@! TO.C,J5*
X153925000Y-121215000D02*
X159925000Y-121215000D01*
X153925000Y-121275000D02*
X159925000Y-121275000D01*
X153925000Y-121395000D02*
X159925000Y-121395000D01*
X153925000Y-121515000D02*
X159925000Y-121515000D01*
X153925000Y-121635000D02*
X159925000Y-121635000D01*
X153925000Y-121755000D02*
X159925000Y-121755000D01*
X153925000Y-121875000D02*
X159925000Y-121875000D01*
X153925000Y-121975000D02*
X153925000Y-121215000D01*
X153925000Y-123755000D02*
X159925000Y-123755000D01*
X153925000Y-124515000D02*
X153925000Y-123755000D01*
X153925000Y-126295000D02*
X159925000Y-126295000D01*
X153925000Y-127055000D02*
X153925000Y-126295000D01*
X153925000Y-128835000D02*
X159925000Y-128835000D01*
X153925000Y-129595000D02*
X153925000Y-128835000D01*
X153925000Y-131375000D02*
X159925000Y-131375000D01*
X153925000Y-132135000D02*
X153925000Y-131375000D01*
X153925000Y-133915000D02*
X159925000Y-133915000D01*
X153925000Y-134675000D02*
X153925000Y-133915000D01*
X153925000Y-136455000D02*
X159925000Y-136455000D01*
X153925000Y-137215000D02*
X153925000Y-136455000D01*
X153925000Y-138995000D02*
X159925000Y-138995000D01*
X153925000Y-139755000D02*
X153925000Y-138995000D01*
X153925000Y-141535000D02*
X159925000Y-141535000D01*
X153925000Y-142295000D02*
X153925000Y-141535000D01*
X159925000Y-120265000D02*
X159925000Y-143245000D01*
X159925000Y-121975000D02*
X153925000Y-121975000D01*
X159925000Y-122865000D02*
X162585000Y-122865000D01*
X159925000Y-124515000D02*
X153925000Y-124515000D01*
X159925000Y-125405000D02*
X162585000Y-125405000D01*
X159925000Y-127055000D02*
X153925000Y-127055000D01*
X159925000Y-127945000D02*
X162585000Y-127945000D01*
X159925000Y-129595000D02*
X153925000Y-129595000D01*
X159925000Y-130485000D02*
X162585000Y-130485000D01*
X159925000Y-132135000D02*
X153925000Y-132135000D01*
X159925000Y-133025000D02*
X162585000Y-133025000D01*
X159925000Y-134675000D02*
X153925000Y-134675000D01*
X159925000Y-135565000D02*
X162585000Y-135565000D01*
X159925000Y-137215000D02*
X153925000Y-137215000D01*
X159925000Y-138105000D02*
X162585000Y-138105000D01*
X159925000Y-139755000D02*
X153925000Y-139755000D01*
X159925000Y-140645000D02*
X162585000Y-140645000D01*
X159925000Y-142295000D02*
X153925000Y-142295000D01*
X159925000Y-143245000D02*
X162585000Y-143245000D01*
X162585000Y-120265000D02*
X159925000Y-120265000D01*
X162585000Y-121215000D02*
X162915000Y-121215000D01*
X162585000Y-121975000D02*
X162915000Y-121975000D01*
X162585000Y-123755000D02*
X162982071Y-123755000D01*
X162585000Y-124515000D02*
X162982071Y-124515000D01*
X162585000Y-126295000D02*
X162982071Y-126295000D01*
X162585000Y-127055000D02*
X162982071Y-127055000D01*
X162585000Y-128835000D02*
X162982071Y-128835000D01*
X162585000Y-129595000D02*
X162982071Y-129595000D01*
X162585000Y-131375000D02*
X162982071Y-131375000D01*
X162585000Y-132135000D02*
X162982071Y-132135000D01*
X162585000Y-133915000D02*
X162982071Y-133915000D01*
X162585000Y-134675000D02*
X162982071Y-134675000D01*
X162585000Y-136455000D02*
X162982071Y-136455000D01*
X162585000Y-137215000D02*
X162982071Y-137215000D01*
X162585000Y-138995000D02*
X162982071Y-138995000D01*
X162585000Y-139755000D02*
X162982071Y-139755000D01*
X162585000Y-141535000D02*
X162982071Y-141535000D01*
X162585000Y-142295000D02*
X162982071Y-142295000D01*
X162585000Y-143245000D02*
X162585000Y-120265000D01*
X164025000Y-120325000D02*
X165295000Y-120325000D01*
X165295000Y-120325000D02*
X165295000Y-121595000D01*
G04 #@! TO.C,C4*
X242911000Y-53787948D02*
X242911000Y-54310452D01*
X244381000Y-53787948D02*
X244381000Y-54310452D01*
G04 #@! TO.C,C16*
X188438948Y-136267100D02*
X188961452Y-136267100D01*
X188438948Y-137737100D02*
X188961452Y-137737100D01*
G04 #@! TO.C,C18*
X196455000Y-38018748D02*
X196455000Y-38541252D01*
X197925000Y-38018748D02*
X197925000Y-38541252D01*
G04 #@! TO.C,C31*
X225555000Y-22824948D02*
X225555000Y-23347452D01*
X227025000Y-22824948D02*
X227025000Y-23347452D01*
G04 #@! TO.C,C28*
X199428748Y-120435000D02*
X199951252Y-120435000D01*
X199428748Y-121905000D02*
X199951252Y-121905000D01*
G04 #@! TO.C,C3*
X219225000Y-69594948D02*
X219225000Y-70117452D01*
X220695000Y-69594948D02*
X220695000Y-70117452D01*
G04 #@! TO.C,C21*
X225490000Y-116045148D02*
X225490000Y-116567652D01*
X226960000Y-116045148D02*
X226960000Y-116567652D01*
G04 #@! TO.C,C24*
X219150000Y-53797948D02*
X219150000Y-54320452D01*
X220620000Y-53797948D02*
X220620000Y-54320452D01*
G04 #@! TO.C,C25*
X219235000Y-38241248D02*
X219235000Y-38763752D01*
X220705000Y-38241248D02*
X220705000Y-38763752D01*
G04 #@! TO.C,C1*
X171288748Y-61515000D02*
X171811252Y-61515000D01*
X171288748Y-62985000D02*
X171811252Y-62985000D01*
G04 #@! TD*
%LPC*%
D12*
G04 #@! TO.C,REF\u002A\u002A*
X242850000Y-145550000D03*
G04 #@! TD*
D13*
G04 #@! TO.C,C22*
X219825000Y-117343900D03*
X219825000Y-115268900D03*
G04 #@! TD*
G04 #@! TO.C,C6*
X243660000Y-70891200D03*
X243660000Y-68816200D03*
G04 #@! TD*
D14*
G04 #@! TO.C,J3*
X176280000Y-114580000D03*
D15*
X176280000Y-112040000D03*
X176280000Y-109500000D03*
X176280000Y-106960000D03*
X176280000Y-104420000D03*
X176280000Y-101880000D03*
X176280000Y-99340000D03*
X176280000Y-96800000D03*
X168660000Y-96800000D03*
X168660000Y-99340000D03*
X168660000Y-101880000D03*
X168660000Y-104420000D03*
X168660000Y-106960000D03*
X168660000Y-109500000D03*
X168660000Y-112040000D03*
X168660000Y-114580000D03*
G04 #@! TD*
D14*
G04 #@! TO.C,J4*
X176280000Y-142440000D03*
D15*
X176280000Y-139900000D03*
X176280000Y-137360000D03*
X176280000Y-134820000D03*
X176280000Y-132280000D03*
X176280000Y-129740000D03*
X176280000Y-127200000D03*
X176280000Y-124660000D03*
X168660000Y-124660000D03*
X168660000Y-127200000D03*
X168660000Y-129740000D03*
X168660000Y-132280000D03*
X168660000Y-134820000D03*
X168660000Y-137360000D03*
X168660000Y-139900000D03*
X168660000Y-142440000D03*
G04 #@! TD*
D13*
G04 #@! TO.C,C8*
X219875000Y-24123700D03*
X219875000Y-22048700D03*
G04 #@! TD*
G04 #@! TO.C,C26*
X226300000Y-39537500D03*
X226300000Y-37462500D03*
G04 #@! TD*
G04 #@! TO.C,C17*
X243630000Y-132997500D03*
X243630000Y-130922500D03*
G04 #@! TD*
G04 #@! TO.C,C7*
X226300000Y-70901200D03*
X226300000Y-68826200D03*
G04 #@! TD*
G04 #@! TO.C,C23*
X226250000Y-132992500D03*
X226250000Y-130917500D03*
G04 #@! TD*
G04 #@! TO.C,C9*
X243650000Y-86143800D03*
X243650000Y-84068800D03*
G04 #@! TD*
G04 #@! TO.C,C11*
X219905900Y-86049100D03*
X219905900Y-83974100D03*
G04 #@! TD*
G04 #@! TO.C,C19*
X219825000Y-133037500D03*
X219825000Y-130962500D03*
G04 #@! TD*
G04 #@! TO.C,C32*
X243890000Y-23833700D03*
X243890000Y-21758700D03*
G04 #@! TD*
D14*
G04 #@! TO.C,U21*
X200000000Y-82811400D03*
D15*
X200000000Y-80271400D03*
X200000000Y-77731400D03*
X200000000Y-75191400D03*
X200000000Y-72651400D03*
X200000000Y-70111400D03*
X200000000Y-67571400D03*
X200000000Y-65031400D03*
X200000000Y-62491400D03*
X200000000Y-59951400D03*
X192380000Y-59951400D03*
X192380000Y-62491400D03*
X192380000Y-65031400D03*
X192380000Y-67571400D03*
X192380000Y-70111400D03*
X192380000Y-72651400D03*
X192380000Y-75191400D03*
X192380000Y-77731400D03*
X192380000Y-80271400D03*
X192380000Y-82811400D03*
G04 #@! TD*
D13*
G04 #@! TO.C,C5*
X226286000Y-55096700D03*
X226286000Y-53021700D03*
G04 #@! TD*
G04 #@! TO.C,C15*
X226200000Y-101942300D03*
X226200000Y-99867300D03*
G04 #@! TD*
D16*
G04 #@! TO.C,C30*
X213152500Y-62375000D03*
X211077500Y-62375000D03*
G04 #@! TD*
D13*
G04 #@! TO.C,C14*
X243650000Y-101894400D03*
X243650000Y-99819400D03*
G04 #@! TD*
G04 #@! TO.C,C27*
X243710000Y-39427500D03*
X243710000Y-37352500D03*
G04 #@! TD*
G04 #@! TO.C,C13*
X196180000Y-22127500D03*
X196180000Y-20052500D03*
G04 #@! TD*
G04 #@! TO.C,C10*
X226345000Y-86053800D03*
X226345000Y-83978800D03*
G04 #@! TD*
D16*
G04 #@! TO.C,C29*
X200417500Y-136620000D03*
X198342500Y-136620000D03*
G04 #@! TD*
D13*
G04 #@! TO.C,C12*
X219850300Y-101942300D03*
X219850300Y-99867300D03*
G04 #@! TD*
G04 #@! TO.C,C20*
X243670000Y-117351000D03*
X243670000Y-115276000D03*
G04 #@! TD*
D14*
G04 #@! TO.C,J5*
X164025000Y-121595000D03*
D15*
X164025000Y-124135000D03*
X164025000Y-126675000D03*
X164025000Y-129215000D03*
X164025000Y-131755000D03*
X164025000Y-134295000D03*
X164025000Y-136835000D03*
X164025000Y-139375000D03*
X164025000Y-141915000D03*
G04 #@! TD*
D13*
G04 #@! TO.C,C4*
X243646000Y-55086700D03*
X243646000Y-53011700D03*
G04 #@! TD*
D16*
G04 #@! TO.C,C16*
X189737700Y-137002100D03*
X187662700Y-137002100D03*
G04 #@! TD*
D13*
G04 #@! TO.C,C18*
X197190000Y-39317500D03*
X197190000Y-37242500D03*
G04 #@! TD*
G04 #@! TO.C,C31*
X226290000Y-24123700D03*
X226290000Y-22048700D03*
G04 #@! TD*
D16*
G04 #@! TO.C,C28*
X200727500Y-121170000D03*
X198652500Y-121170000D03*
G04 #@! TD*
D13*
G04 #@! TO.C,C3*
X219960000Y-70893700D03*
X219960000Y-68818700D03*
G04 #@! TD*
G04 #@! TO.C,C21*
X226225000Y-117343900D03*
X226225000Y-115268900D03*
G04 #@! TD*
G04 #@! TO.C,C24*
X219885000Y-55096700D03*
X219885000Y-53021700D03*
G04 #@! TD*
G04 #@! TO.C,C25*
X219970000Y-39540000D03*
X219970000Y-37465000D03*
G04 #@! TD*
D14*
G04 #@! TO.C,U20*
X184900000Y-82811400D03*
D15*
X184900000Y-80271400D03*
X184900000Y-77731400D03*
X184900000Y-75191400D03*
X184900000Y-72651400D03*
X184900000Y-70111400D03*
X184900000Y-67571400D03*
X184900000Y-65031400D03*
X184900000Y-62491400D03*
X184900000Y-59951400D03*
X177280000Y-59951400D03*
X177280000Y-62491400D03*
X177280000Y-65031400D03*
X177280000Y-67571400D03*
X177280000Y-70111400D03*
X177280000Y-72651400D03*
X177280000Y-75191400D03*
X177280000Y-77731400D03*
X177280000Y-80271400D03*
X177280000Y-82811400D03*
G04 #@! TD*
D16*
G04 #@! TO.C,C1*
X172587500Y-62250000D03*
X170512500Y-62250000D03*
G04 #@! TD*
%LPD*%
M02*
