%TF.GenerationSoftware,KiCad,Pcbnew,8.0.5*%
%TF.CreationDate,2024-11-12T15:17:28-04:00*%
%TF.ProjectId,RAMEXB_V2_Github,52414d45-5842-45f5-9632-5f4769746875,rev?*%
%TF.SameCoordinates,Original*%
%TF.FileFunction,Paste,Bot*%
%TF.FilePolarity,Positive*%
%FSLAX46Y46*%
G04 Gerber Fmt 4.6, Leading zero omitted, Abs format (unit mm)*
G04 Created by KiCad (PCBNEW 8.0.5) date 2024-11-12 15:17:28*
%MOMM*%
%LPD*%
G01*
G04 APERTURE LIST*
G04 Aperture macros list*
%AMRoundRect*
0 Rectangle with rounded corners*
0 $1 Rounding radius*
0 $2 $3 $4 $5 $6 $7 $8 $9 X,Y pos of 4 corners*
0 Add a 4 corners polygon primitive as box body*
4,1,4,$2,$3,$4,$5,$6,$7,$8,$9,$2,$3,0*
0 Add four circle primitives for the rounded corners*
1,1,$1+$1,$2,$3*
1,1,$1+$1,$4,$5*
1,1,$1+$1,$6,$7*
1,1,$1+$1,$8,$9*
0 Add four rect primitives between the rounded corners*
20,1,$1+$1,$2,$3,$4,$5,0*
20,1,$1+$1,$4,$5,$6,$7,0*
20,1,$1+$1,$6,$7,$8,$9,0*
20,1,$1+$1,$8,$9,$2,$3,0*%
G04 Aperture macros list end*
%ADD10RoundRect,0.250000X0.475000X-0.337500X0.475000X0.337500X-0.475000X0.337500X-0.475000X-0.337500X0*%
%ADD11RoundRect,0.250000X-0.350000X-0.450000X0.350000X-0.450000X0.350000X0.450000X-0.350000X0.450000X0*%
%ADD12RoundRect,0.250000X0.337500X0.475000X-0.337500X0.475000X-0.337500X-0.475000X0.337500X-0.475000X0*%
%ADD13RoundRect,0.250000X-0.337500X-0.475000X0.337500X-0.475000X0.337500X0.475000X-0.337500X0.475000X0*%
G04 APERTURE END LIST*
D10*
%TO.C,C22*%
X219825000Y-117343910D03*
X219825000Y-115268910D03*
%TD*%
%TO.C,C6*%
X243660000Y-70891151D03*
X243660000Y-68816151D03*
%TD*%
%TO.C,C26*%
X226300000Y-39537500D03*
X226300000Y-37462500D03*
%TD*%
%TO.C,C17*%
X243630000Y-132997500D03*
X243630000Y-130922500D03*
%TD*%
%TO.C,C7*%
X226300000Y-70901151D03*
X226300000Y-68826151D03*
%TD*%
D11*
%TO.C,R21*%
X202895000Y-47122000D03*
X204895000Y-47122000D03*
%TD*%
D10*
%TO.C,C23*%
X226250000Y-132992494D03*
X226250000Y-130917494D03*
%TD*%
%TO.C,C30*%
X219960000Y-24063748D03*
X219960000Y-21988748D03*
%TD*%
%TO.C,C9*%
X243650000Y-86143785D03*
X243650000Y-84068785D03*
%TD*%
%TO.C,C11*%
X219905900Y-86049085D03*
X219905900Y-83974085D03*
%TD*%
%TO.C,C19*%
X219825000Y-133037494D03*
X219825000Y-130962494D03*
%TD*%
%TO.C,C32*%
X243890000Y-23833748D03*
X243890000Y-21758748D03*
%TD*%
D11*
%TO.C,R18*%
X202895000Y-53773000D03*
X204895000Y-53773000D03*
%TD*%
D10*
%TO.C,C5*%
X226286000Y-55096671D03*
X226286000Y-53021671D03*
%TD*%
%TO.C,C15*%
X226200000Y-101942304D03*
X226200000Y-99867304D03*
%TD*%
D12*
%TO.C,C30*%
X213152500Y-62375000D03*
X211077500Y-62375000D03*
%TD*%
D10*
%TO.C,C2*%
X220000000Y-55058171D03*
X220000000Y-52983171D03*
%TD*%
%TO.C,C14*%
X243650000Y-101894404D03*
X243650000Y-99819404D03*
%TD*%
%TO.C,C27*%
X243710000Y-39427500D03*
X243710000Y-37352500D03*
%TD*%
D13*
%TO.C,C13*%
X182642500Y-32070000D03*
X184717500Y-32070000D03*
%TD*%
D10*
%TO.C,C10*%
X226345000Y-86053785D03*
X226345000Y-83978785D03*
%TD*%
D12*
%TO.C,C29*%
X200417500Y-136620000D03*
X198342500Y-136620000D03*
%TD*%
D11*
%TO.C,R20*%
X202895000Y-49339000D03*
X204895000Y-49339000D03*
%TD*%
D10*
%TO.C,C12*%
X219850300Y-101942304D03*
X219850300Y-99867304D03*
%TD*%
%TO.C,C20*%
X243670000Y-117351010D03*
X243670000Y-115276010D03*
%TD*%
%TO.C,C4*%
X243646000Y-55086671D03*
X243646000Y-53011671D03*
%TD*%
D12*
%TO.C,C16*%
X189737679Y-137002144D03*
X187662679Y-137002144D03*
%TD*%
%TO.C,C18*%
X178337500Y-44700000D03*
X176262500Y-44700000D03*
%TD*%
D10*
%TO.C,C31*%
X226290000Y-24123748D03*
X226290000Y-22048748D03*
%TD*%
D12*
%TO.C,C28*%
X200727500Y-121170000D03*
X198652500Y-121170000D03*
%TD*%
D11*
%TO.C,R11*%
X202895000Y-44905000D03*
X204895000Y-44905000D03*
%TD*%
D10*
%TO.C,C3*%
X219960000Y-70893651D03*
X219960000Y-68818651D03*
%TD*%
%TO.C,C21*%
X226225000Y-117343910D03*
X226225000Y-115268910D03*
%TD*%
%TO.C,C25*%
X219970000Y-39540000D03*
X219970000Y-37465000D03*
%TD*%
D12*
%TO.C,C1*%
X172587500Y-62250000D03*
X170512500Y-62250000D03*
%TD*%
M02*
