%TF.GenerationSoftware,KiCad,Pcbnew,8.0.5*%
%TF.CreationDate,2024-11-12T15:17:23-04:00*%
%TF.ProjectId,RAMEXB_V2_Github,52414d45-5842-45f5-9632-5f4769746875,rev?*%
%TF.SameCoordinates,Original*%
%TF.FileFunction,Drillmap*%
%TF.FilePolarity,Positive*%
%FSLAX45Y45*%
G04 Gerber Fmt 4.5, Leading zero omitted, Abs format (unit mm)*
G04 Created by KiCad (PCBNEW 8.0.5) date 2024-11-12 15:17:23*
%MOMM*%
%LPD*%
G01*
G04 APERTURE LIST*
%ADD10C,0.150000*%
%ADD11C,0.200000*%
%ADD12C,0.320000*%
G04 APERTURE END LIST*
D10*
X15850000Y-1498000D02*
X15750000Y-1598000D01*
X21439289Y-15270711D02*
G75*
G02*
X21368579Y-15299999I-70709J70711D01*
G01*
X24620711Y-15129289D02*
X24479289Y-15270711D01*
X24650000Y-15058579D02*
X24650000Y-1598000D01*
X24479289Y-15270711D02*
G75*
G02*
X24408579Y-15299999I-70709J70711D01*
G01*
X15750000Y-14630000D02*
X15750000Y-15158579D01*
X21368579Y-15300000D02*
X15891421Y-15300000D01*
X24650000Y-1598000D02*
X24550000Y-1498000D01*
X23831421Y-15300000D02*
G75*
G02*
X23760710Y-15270711I-1J100000D01*
G01*
X15750000Y-14630000D02*
X15450000Y-14630000D01*
X15891421Y-15300000D02*
G75*
G02*
X15820712Y-15270709I-1J99990D01*
G01*
X15750000Y-11729000D02*
X15450000Y-11729000D01*
X15779289Y-15229289D02*
X15820711Y-15270711D01*
X23639289Y-15149289D02*
G75*
G02*
X23610004Y-15078579I70721J70709D01*
G01*
X23510000Y-13880000D02*
G75*
G02*
X23610000Y-13980000I0J-100000D01*
G01*
X21540000Y-13980000D02*
X21540000Y-15128579D01*
X15450000Y-11729000D02*
X15350000Y-11829000D01*
X15450000Y-14630000D02*
X15350000Y-14530000D01*
X15350000Y-14530000D02*
X15350000Y-11829000D01*
X24650000Y-15058579D02*
G75*
G02*
X24620711Y-15129290I-100000J-1D01*
G01*
X21540000Y-13980000D02*
G75*
G02*
X21640000Y-13880000I100000J0D01*
G01*
X21540000Y-15128579D02*
G75*
G02*
X21510711Y-15199290I-100000J-1D01*
G01*
X15850000Y-1498000D02*
X24550000Y-1498000D01*
X15779289Y-15229289D02*
G75*
G02*
X15750001Y-15158579I70711J70709D01*
G01*
X23510000Y-13880000D02*
X21640000Y-13880000D01*
X21510711Y-15199289D02*
X21439289Y-15270711D01*
X24408579Y-15300000D02*
X23831421Y-15300000D01*
X15750000Y-11729000D02*
X15750000Y-9550000D01*
X23760711Y-15270711D02*
X23639289Y-15149289D01*
X15750000Y-9550000D02*
X15750000Y-1598000D01*
X23610000Y-15078579D02*
X23610000Y-13980000D01*
D11*
D12*
X24125000Y-14395000D02*
X24445000Y-14715000D01*
X24445000Y-14395000D02*
X24125000Y-14715000D01*
D11*
X15603277Y-15618984D02*
X15603277Y-15418984D01*
X15603277Y-15418984D02*
X15650896Y-15418984D01*
X15650896Y-15418984D02*
X15679467Y-15428508D01*
X15679467Y-15428508D02*
X15698515Y-15447555D01*
X15698515Y-15447555D02*
X15708039Y-15466603D01*
X15708039Y-15466603D02*
X15717562Y-15504698D01*
X15717562Y-15504698D02*
X15717562Y-15533269D01*
X15717562Y-15533269D02*
X15708039Y-15571365D01*
X15708039Y-15571365D02*
X15698515Y-15590412D01*
X15698515Y-15590412D02*
X15679467Y-15609460D01*
X15679467Y-15609460D02*
X15650896Y-15618984D01*
X15650896Y-15618984D02*
X15603277Y-15618984D01*
X15803277Y-15618984D02*
X15803277Y-15485650D01*
X15803277Y-15523746D02*
X15812801Y-15504698D01*
X15812801Y-15504698D02*
X15822324Y-15495174D01*
X15822324Y-15495174D02*
X15841372Y-15485650D01*
X15841372Y-15485650D02*
X15860420Y-15485650D01*
X15927086Y-15618984D02*
X15927086Y-15485650D01*
X15927086Y-15418984D02*
X15917562Y-15428508D01*
X15917562Y-15428508D02*
X15927086Y-15438031D01*
X15927086Y-15438031D02*
X15936610Y-15428508D01*
X15936610Y-15428508D02*
X15927086Y-15418984D01*
X15927086Y-15418984D02*
X15927086Y-15438031D01*
X16050896Y-15618984D02*
X16031848Y-15609460D01*
X16031848Y-15609460D02*
X16022324Y-15590412D01*
X16022324Y-15590412D02*
X16022324Y-15418984D01*
X16155658Y-15618984D02*
X16136610Y-15609460D01*
X16136610Y-15609460D02*
X16127086Y-15590412D01*
X16127086Y-15590412D02*
X16127086Y-15418984D01*
X16384229Y-15618984D02*
X16384229Y-15418984D01*
X16384229Y-15418984D02*
X16450896Y-15561841D01*
X16450896Y-15561841D02*
X16517562Y-15418984D01*
X16517562Y-15418984D02*
X16517562Y-15618984D01*
X16698515Y-15618984D02*
X16698515Y-15514222D01*
X16698515Y-15514222D02*
X16688991Y-15495174D01*
X16688991Y-15495174D02*
X16669943Y-15485650D01*
X16669943Y-15485650D02*
X16631848Y-15485650D01*
X16631848Y-15485650D02*
X16612801Y-15495174D01*
X16698515Y-15609460D02*
X16679467Y-15618984D01*
X16679467Y-15618984D02*
X16631848Y-15618984D01*
X16631848Y-15618984D02*
X16612801Y-15609460D01*
X16612801Y-15609460D02*
X16603277Y-15590412D01*
X16603277Y-15590412D02*
X16603277Y-15571365D01*
X16603277Y-15571365D02*
X16612801Y-15552317D01*
X16612801Y-15552317D02*
X16631848Y-15542793D01*
X16631848Y-15542793D02*
X16679467Y-15542793D01*
X16679467Y-15542793D02*
X16698515Y-15533269D01*
X16793753Y-15485650D02*
X16793753Y-15685650D01*
X16793753Y-15495174D02*
X16812801Y-15485650D01*
X16812801Y-15485650D02*
X16850896Y-15485650D01*
X16850896Y-15485650D02*
X16869944Y-15495174D01*
X16869944Y-15495174D02*
X16879467Y-15504698D01*
X16879467Y-15504698D02*
X16888991Y-15523746D01*
X16888991Y-15523746D02*
X16888991Y-15580888D01*
X16888991Y-15580888D02*
X16879467Y-15599936D01*
X16879467Y-15599936D02*
X16869944Y-15609460D01*
X16869944Y-15609460D02*
X16850896Y-15618984D01*
X16850896Y-15618984D02*
X16812801Y-15618984D01*
X16812801Y-15618984D02*
X16793753Y-15609460D01*
X16974705Y-15599936D02*
X16984229Y-15609460D01*
X16984229Y-15609460D02*
X16974705Y-15618984D01*
X16974705Y-15618984D02*
X16965182Y-15609460D01*
X16965182Y-15609460D02*
X16974705Y-15599936D01*
X16974705Y-15599936D02*
X16974705Y-15618984D01*
X16974705Y-15495174D02*
X16984229Y-15504698D01*
X16984229Y-15504698D02*
X16974705Y-15514222D01*
X16974705Y-15514222D02*
X16965182Y-15504698D01*
X16965182Y-15504698D02*
X16974705Y-15495174D01*
X16974705Y-15495174D02*
X16974705Y-15514222D01*
X15142500Y-15847500D02*
X15342500Y-16047500D01*
X15342500Y-15847500D02*
X15142500Y-16047500D01*
X15584229Y-15838984D02*
X15708039Y-15838984D01*
X15708039Y-15838984D02*
X15641372Y-15915174D01*
X15641372Y-15915174D02*
X15669943Y-15915174D01*
X15669943Y-15915174D02*
X15688991Y-15924698D01*
X15688991Y-15924698D02*
X15698515Y-15934222D01*
X15698515Y-15934222D02*
X15708039Y-15953269D01*
X15708039Y-15953269D02*
X15708039Y-16000888D01*
X15708039Y-16000888D02*
X15698515Y-16019936D01*
X15698515Y-16019936D02*
X15688991Y-16029460D01*
X15688991Y-16029460D02*
X15669943Y-16038984D01*
X15669943Y-16038984D02*
X15612801Y-16038984D01*
X15612801Y-16038984D02*
X15593753Y-16029460D01*
X15593753Y-16029460D02*
X15584229Y-16019936D01*
X15793753Y-16019936D02*
X15803277Y-16029460D01*
X15803277Y-16029460D02*
X15793753Y-16038984D01*
X15793753Y-16038984D02*
X15784229Y-16029460D01*
X15784229Y-16029460D02*
X15793753Y-16019936D01*
X15793753Y-16019936D02*
X15793753Y-16038984D01*
X15879467Y-15858031D02*
X15888991Y-15848508D01*
X15888991Y-15848508D02*
X15908039Y-15838984D01*
X15908039Y-15838984D02*
X15955658Y-15838984D01*
X15955658Y-15838984D02*
X15974705Y-15848508D01*
X15974705Y-15848508D02*
X15984229Y-15858031D01*
X15984229Y-15858031D02*
X15993753Y-15877079D01*
X15993753Y-15877079D02*
X15993753Y-15896127D01*
X15993753Y-15896127D02*
X15984229Y-15924698D01*
X15984229Y-15924698D02*
X15869943Y-16038984D01*
X15869943Y-16038984D02*
X15993753Y-16038984D01*
X16117562Y-15838984D02*
X16136610Y-15838984D01*
X16136610Y-15838984D02*
X16155658Y-15848508D01*
X16155658Y-15848508D02*
X16165182Y-15858031D01*
X16165182Y-15858031D02*
X16174705Y-15877079D01*
X16174705Y-15877079D02*
X16184229Y-15915174D01*
X16184229Y-15915174D02*
X16184229Y-15962793D01*
X16184229Y-15962793D02*
X16174705Y-16000888D01*
X16174705Y-16000888D02*
X16165182Y-16019936D01*
X16165182Y-16019936D02*
X16155658Y-16029460D01*
X16155658Y-16029460D02*
X16136610Y-16038984D01*
X16136610Y-16038984D02*
X16117562Y-16038984D01*
X16117562Y-16038984D02*
X16098515Y-16029460D01*
X16098515Y-16029460D02*
X16088991Y-16019936D01*
X16088991Y-16019936D02*
X16079467Y-16000888D01*
X16079467Y-16000888D02*
X16069943Y-15962793D01*
X16069943Y-15962793D02*
X16069943Y-15915174D01*
X16069943Y-15915174D02*
X16079467Y-15877079D01*
X16079467Y-15877079D02*
X16088991Y-15858031D01*
X16088991Y-15858031D02*
X16098515Y-15848508D01*
X16098515Y-15848508D02*
X16117562Y-15838984D01*
X16308039Y-15838984D02*
X16327086Y-15838984D01*
X16327086Y-15838984D02*
X16346134Y-15848508D01*
X16346134Y-15848508D02*
X16355658Y-15858031D01*
X16355658Y-15858031D02*
X16365182Y-15877079D01*
X16365182Y-15877079D02*
X16374705Y-15915174D01*
X16374705Y-15915174D02*
X16374705Y-15962793D01*
X16374705Y-15962793D02*
X16365182Y-16000888D01*
X16365182Y-16000888D02*
X16355658Y-16019936D01*
X16355658Y-16019936D02*
X16346134Y-16029460D01*
X16346134Y-16029460D02*
X16327086Y-16038984D01*
X16327086Y-16038984D02*
X16308039Y-16038984D01*
X16308039Y-16038984D02*
X16288991Y-16029460D01*
X16288991Y-16029460D02*
X16279467Y-16019936D01*
X16279467Y-16019936D02*
X16269943Y-16000888D01*
X16269943Y-16000888D02*
X16260420Y-15962793D01*
X16260420Y-15962793D02*
X16260420Y-15915174D01*
X16260420Y-15915174D02*
X16269943Y-15877079D01*
X16269943Y-15877079D02*
X16279467Y-15858031D01*
X16279467Y-15858031D02*
X16288991Y-15848508D01*
X16288991Y-15848508D02*
X16308039Y-15838984D01*
X16460420Y-16038984D02*
X16460420Y-15905650D01*
X16460420Y-15924698D02*
X16469943Y-15915174D01*
X16469943Y-15915174D02*
X16488991Y-15905650D01*
X16488991Y-15905650D02*
X16517563Y-15905650D01*
X16517563Y-15905650D02*
X16536610Y-15915174D01*
X16536610Y-15915174D02*
X16546134Y-15934222D01*
X16546134Y-15934222D02*
X16546134Y-16038984D01*
X16546134Y-15934222D02*
X16555658Y-15915174D01*
X16555658Y-15915174D02*
X16574705Y-15905650D01*
X16574705Y-15905650D02*
X16603277Y-15905650D01*
X16603277Y-15905650D02*
X16622324Y-15915174D01*
X16622324Y-15915174D02*
X16631848Y-15934222D01*
X16631848Y-15934222D02*
X16631848Y-16038984D01*
X16727086Y-16038984D02*
X16727086Y-15905650D01*
X16727086Y-15924698D02*
X16736610Y-15915174D01*
X16736610Y-15915174D02*
X16755658Y-15905650D01*
X16755658Y-15905650D02*
X16784229Y-15905650D01*
X16784229Y-15905650D02*
X16803277Y-15915174D01*
X16803277Y-15915174D02*
X16812801Y-15934222D01*
X16812801Y-15934222D02*
X16812801Y-16038984D01*
X16812801Y-15934222D02*
X16822325Y-15915174D01*
X16822325Y-15915174D02*
X16841372Y-15905650D01*
X16841372Y-15905650D02*
X16869944Y-15905650D01*
X16869944Y-15905650D02*
X16888991Y-15915174D01*
X16888991Y-15915174D02*
X16898515Y-15934222D01*
X16898515Y-15934222D02*
X16898515Y-16038984D01*
X17288991Y-15829460D02*
X17117563Y-16086603D01*
X17546134Y-15838984D02*
X17565182Y-15838984D01*
X17565182Y-15838984D02*
X17584229Y-15848508D01*
X17584229Y-15848508D02*
X17593753Y-15858031D01*
X17593753Y-15858031D02*
X17603277Y-15877079D01*
X17603277Y-15877079D02*
X17612801Y-15915174D01*
X17612801Y-15915174D02*
X17612801Y-15962793D01*
X17612801Y-15962793D02*
X17603277Y-16000888D01*
X17603277Y-16000888D02*
X17593753Y-16019936D01*
X17593753Y-16019936D02*
X17584229Y-16029460D01*
X17584229Y-16029460D02*
X17565182Y-16038984D01*
X17565182Y-16038984D02*
X17546134Y-16038984D01*
X17546134Y-16038984D02*
X17527087Y-16029460D01*
X17527087Y-16029460D02*
X17517563Y-16019936D01*
X17517563Y-16019936D02*
X17508039Y-16000888D01*
X17508039Y-16000888D02*
X17498515Y-15962793D01*
X17498515Y-15962793D02*
X17498515Y-15915174D01*
X17498515Y-15915174D02*
X17508039Y-15877079D01*
X17508039Y-15877079D02*
X17517563Y-15858031D01*
X17517563Y-15858031D02*
X17527087Y-15848508D01*
X17527087Y-15848508D02*
X17546134Y-15838984D01*
X17698515Y-16019936D02*
X17708039Y-16029460D01*
X17708039Y-16029460D02*
X17698515Y-16038984D01*
X17698515Y-16038984D02*
X17688991Y-16029460D01*
X17688991Y-16029460D02*
X17698515Y-16019936D01*
X17698515Y-16019936D02*
X17698515Y-16038984D01*
X17898515Y-16038984D02*
X17784229Y-16038984D01*
X17841372Y-16038984D02*
X17841372Y-15838984D01*
X17841372Y-15838984D02*
X17822325Y-15867555D01*
X17822325Y-15867555D02*
X17803277Y-15886603D01*
X17803277Y-15886603D02*
X17784229Y-15896127D01*
X17974706Y-15858031D02*
X17984229Y-15848508D01*
X17984229Y-15848508D02*
X18003277Y-15838984D01*
X18003277Y-15838984D02*
X18050896Y-15838984D01*
X18050896Y-15838984D02*
X18069944Y-15848508D01*
X18069944Y-15848508D02*
X18079468Y-15858031D01*
X18079468Y-15858031D02*
X18088991Y-15877079D01*
X18088991Y-15877079D02*
X18088991Y-15896127D01*
X18088991Y-15896127D02*
X18079468Y-15924698D01*
X18079468Y-15924698D02*
X17965182Y-16038984D01*
X17965182Y-16038984D02*
X18088991Y-16038984D01*
X18260420Y-15838984D02*
X18222325Y-15838984D01*
X18222325Y-15838984D02*
X18203277Y-15848508D01*
X18203277Y-15848508D02*
X18193753Y-15858031D01*
X18193753Y-15858031D02*
X18174706Y-15886603D01*
X18174706Y-15886603D02*
X18165182Y-15924698D01*
X18165182Y-15924698D02*
X18165182Y-16000888D01*
X18165182Y-16000888D02*
X18174706Y-16019936D01*
X18174706Y-16019936D02*
X18184229Y-16029460D01*
X18184229Y-16029460D02*
X18203277Y-16038984D01*
X18203277Y-16038984D02*
X18241372Y-16038984D01*
X18241372Y-16038984D02*
X18260420Y-16029460D01*
X18260420Y-16029460D02*
X18269944Y-16019936D01*
X18269944Y-16019936D02*
X18279468Y-16000888D01*
X18279468Y-16000888D02*
X18279468Y-15953269D01*
X18279468Y-15953269D02*
X18269944Y-15934222D01*
X18269944Y-15934222D02*
X18260420Y-15924698D01*
X18260420Y-15924698D02*
X18241372Y-15915174D01*
X18241372Y-15915174D02*
X18203277Y-15915174D01*
X18203277Y-15915174D02*
X18184229Y-15924698D01*
X18184229Y-15924698D02*
X18174706Y-15934222D01*
X18174706Y-15934222D02*
X18165182Y-15953269D01*
X18403277Y-15838984D02*
X18422325Y-15838984D01*
X18422325Y-15838984D02*
X18441372Y-15848508D01*
X18441372Y-15848508D02*
X18450896Y-15858031D01*
X18450896Y-15858031D02*
X18460420Y-15877079D01*
X18460420Y-15877079D02*
X18469944Y-15915174D01*
X18469944Y-15915174D02*
X18469944Y-15962793D01*
X18469944Y-15962793D02*
X18460420Y-16000888D01*
X18460420Y-16000888D02*
X18450896Y-16019936D01*
X18450896Y-16019936D02*
X18441372Y-16029460D01*
X18441372Y-16029460D02*
X18422325Y-16038984D01*
X18422325Y-16038984D02*
X18403277Y-16038984D01*
X18403277Y-16038984D02*
X18384229Y-16029460D01*
X18384229Y-16029460D02*
X18374706Y-16019936D01*
X18374706Y-16019936D02*
X18365182Y-16000888D01*
X18365182Y-16000888D02*
X18355658Y-15962793D01*
X18355658Y-15962793D02*
X18355658Y-15915174D01*
X18355658Y-15915174D02*
X18365182Y-15877079D01*
X18365182Y-15877079D02*
X18374706Y-15858031D01*
X18374706Y-15858031D02*
X18384229Y-15848508D01*
X18384229Y-15848508D02*
X18403277Y-15838984D01*
X18546134Y-15838984D02*
X18546134Y-15877079D01*
X18622325Y-15838984D02*
X18622325Y-15877079D01*
X18917563Y-16115174D02*
X18908039Y-16105650D01*
X18908039Y-16105650D02*
X18888991Y-16077079D01*
X18888991Y-16077079D02*
X18879468Y-16058031D01*
X18879468Y-16058031D02*
X18869944Y-16029460D01*
X18869944Y-16029460D02*
X18860420Y-15981841D01*
X18860420Y-15981841D02*
X18860420Y-15943746D01*
X18860420Y-15943746D02*
X18869944Y-15896127D01*
X18869944Y-15896127D02*
X18879468Y-15867555D01*
X18879468Y-15867555D02*
X18888991Y-15848508D01*
X18888991Y-15848508D02*
X18908039Y-15819936D01*
X18908039Y-15819936D02*
X18917563Y-15810412D01*
X19098515Y-16038984D02*
X18984230Y-16038984D01*
X19041372Y-16038984D02*
X19041372Y-15838984D01*
X19041372Y-15838984D02*
X19022325Y-15867555D01*
X19022325Y-15867555D02*
X19003277Y-15886603D01*
X19003277Y-15886603D02*
X18984230Y-15896127D01*
X19336611Y-16038984D02*
X19336611Y-15838984D01*
X19422325Y-16038984D02*
X19422325Y-15934222D01*
X19422325Y-15934222D02*
X19412801Y-15915174D01*
X19412801Y-15915174D02*
X19393753Y-15905650D01*
X19393753Y-15905650D02*
X19365182Y-15905650D01*
X19365182Y-15905650D02*
X19346134Y-15915174D01*
X19346134Y-15915174D02*
X19336611Y-15924698D01*
X19546134Y-16038984D02*
X19527087Y-16029460D01*
X19527087Y-16029460D02*
X19517563Y-16019936D01*
X19517563Y-16019936D02*
X19508039Y-16000888D01*
X19508039Y-16000888D02*
X19508039Y-15943746D01*
X19508039Y-15943746D02*
X19517563Y-15924698D01*
X19517563Y-15924698D02*
X19527087Y-15915174D01*
X19527087Y-15915174D02*
X19546134Y-15905650D01*
X19546134Y-15905650D02*
X19574706Y-15905650D01*
X19574706Y-15905650D02*
X19593753Y-15915174D01*
X19593753Y-15915174D02*
X19603277Y-15924698D01*
X19603277Y-15924698D02*
X19612801Y-15943746D01*
X19612801Y-15943746D02*
X19612801Y-16000888D01*
X19612801Y-16000888D02*
X19603277Y-16019936D01*
X19603277Y-16019936D02*
X19593753Y-16029460D01*
X19593753Y-16029460D02*
X19574706Y-16038984D01*
X19574706Y-16038984D02*
X19546134Y-16038984D01*
X19727087Y-16038984D02*
X19708039Y-16029460D01*
X19708039Y-16029460D02*
X19698515Y-16010412D01*
X19698515Y-16010412D02*
X19698515Y-15838984D01*
X19879468Y-16029460D02*
X19860420Y-16038984D01*
X19860420Y-16038984D02*
X19822325Y-16038984D01*
X19822325Y-16038984D02*
X19803277Y-16029460D01*
X19803277Y-16029460D02*
X19793753Y-16010412D01*
X19793753Y-16010412D02*
X19793753Y-15934222D01*
X19793753Y-15934222D02*
X19803277Y-15915174D01*
X19803277Y-15915174D02*
X19822325Y-15905650D01*
X19822325Y-15905650D02*
X19860420Y-15905650D01*
X19860420Y-15905650D02*
X19879468Y-15915174D01*
X19879468Y-15915174D02*
X19888992Y-15934222D01*
X19888992Y-15934222D02*
X19888992Y-15953269D01*
X19888992Y-15953269D02*
X19793753Y-15972317D01*
X19955658Y-16115174D02*
X19965182Y-16105650D01*
X19965182Y-16105650D02*
X19984230Y-16077079D01*
X19984230Y-16077079D02*
X19993753Y-16058031D01*
X19993753Y-16058031D02*
X20003277Y-16029460D01*
X20003277Y-16029460D02*
X20012801Y-15981841D01*
X20012801Y-15981841D02*
X20012801Y-15943746D01*
X20012801Y-15943746D02*
X20003277Y-15896127D01*
X20003277Y-15896127D02*
X19993753Y-15867555D01*
X19993753Y-15867555D02*
X19984230Y-15848508D01*
X19984230Y-15848508D02*
X19965182Y-15819936D01*
X19965182Y-15819936D02*
X19955658Y-15810412D01*
X20317563Y-16115174D02*
X20308039Y-16105650D01*
X20308039Y-16105650D02*
X20288992Y-16077079D01*
X20288992Y-16077079D02*
X20279468Y-16058031D01*
X20279468Y-16058031D02*
X20269944Y-16029460D01*
X20269944Y-16029460D02*
X20260420Y-15981841D01*
X20260420Y-15981841D02*
X20260420Y-15943746D01*
X20260420Y-15943746D02*
X20269944Y-15896127D01*
X20269944Y-15896127D02*
X20279468Y-15867555D01*
X20279468Y-15867555D02*
X20288992Y-15848508D01*
X20288992Y-15848508D02*
X20308039Y-15819936D01*
X20308039Y-15819936D02*
X20317563Y-15810412D01*
X20393753Y-15905650D02*
X20393753Y-16038984D01*
X20393753Y-15924698D02*
X20403277Y-15915174D01*
X20403277Y-15915174D02*
X20422325Y-15905650D01*
X20422325Y-15905650D02*
X20450896Y-15905650D01*
X20450896Y-15905650D02*
X20469944Y-15915174D01*
X20469944Y-15915174D02*
X20479468Y-15934222D01*
X20479468Y-15934222D02*
X20479468Y-16038984D01*
X20603277Y-16038984D02*
X20584230Y-16029460D01*
X20584230Y-16029460D02*
X20574706Y-16019936D01*
X20574706Y-16019936D02*
X20565182Y-16000888D01*
X20565182Y-16000888D02*
X20565182Y-15943746D01*
X20565182Y-15943746D02*
X20574706Y-15924698D01*
X20574706Y-15924698D02*
X20584230Y-15915174D01*
X20584230Y-15915174D02*
X20603277Y-15905650D01*
X20603277Y-15905650D02*
X20631849Y-15905650D01*
X20631849Y-15905650D02*
X20650896Y-15915174D01*
X20650896Y-15915174D02*
X20660420Y-15924698D01*
X20660420Y-15924698D02*
X20669944Y-15943746D01*
X20669944Y-15943746D02*
X20669944Y-16000888D01*
X20669944Y-16000888D02*
X20660420Y-16019936D01*
X20660420Y-16019936D02*
X20650896Y-16029460D01*
X20650896Y-16029460D02*
X20631849Y-16038984D01*
X20631849Y-16038984D02*
X20603277Y-16038984D01*
X20727087Y-15905650D02*
X20803277Y-15905650D01*
X20755658Y-15838984D02*
X20755658Y-16010412D01*
X20755658Y-16010412D02*
X20765182Y-16029460D01*
X20765182Y-16029460D02*
X20784230Y-16038984D01*
X20784230Y-16038984D02*
X20803277Y-16038984D01*
X21022325Y-15905650D02*
X21022325Y-16105650D01*
X21022325Y-15915174D02*
X21041373Y-15905650D01*
X21041373Y-15905650D02*
X21079468Y-15905650D01*
X21079468Y-15905650D02*
X21098515Y-15915174D01*
X21098515Y-15915174D02*
X21108039Y-15924698D01*
X21108039Y-15924698D02*
X21117563Y-15943746D01*
X21117563Y-15943746D02*
X21117563Y-16000888D01*
X21117563Y-16000888D02*
X21108039Y-16019936D01*
X21108039Y-16019936D02*
X21098515Y-16029460D01*
X21098515Y-16029460D02*
X21079468Y-16038984D01*
X21079468Y-16038984D02*
X21041373Y-16038984D01*
X21041373Y-16038984D02*
X21022325Y-16029460D01*
X21231849Y-16038984D02*
X21212801Y-16029460D01*
X21212801Y-16029460D02*
X21203277Y-16010412D01*
X21203277Y-16010412D02*
X21203277Y-15838984D01*
X21393754Y-16038984D02*
X21393754Y-15934222D01*
X21393754Y-15934222D02*
X21384230Y-15915174D01*
X21384230Y-15915174D02*
X21365182Y-15905650D01*
X21365182Y-15905650D02*
X21327087Y-15905650D01*
X21327087Y-15905650D02*
X21308039Y-15915174D01*
X21393754Y-16029460D02*
X21374706Y-16038984D01*
X21374706Y-16038984D02*
X21327087Y-16038984D01*
X21327087Y-16038984D02*
X21308039Y-16029460D01*
X21308039Y-16029460D02*
X21298515Y-16010412D01*
X21298515Y-16010412D02*
X21298515Y-15991365D01*
X21298515Y-15991365D02*
X21308039Y-15972317D01*
X21308039Y-15972317D02*
X21327087Y-15962793D01*
X21327087Y-15962793D02*
X21374706Y-15962793D01*
X21374706Y-15962793D02*
X21393754Y-15953269D01*
X21460420Y-15905650D02*
X21536611Y-15905650D01*
X21488992Y-15838984D02*
X21488992Y-16010412D01*
X21488992Y-16010412D02*
X21498515Y-16029460D01*
X21498515Y-16029460D02*
X21517563Y-16038984D01*
X21517563Y-16038984D02*
X21536611Y-16038984D01*
X21679468Y-16029460D02*
X21660420Y-16038984D01*
X21660420Y-16038984D02*
X21622325Y-16038984D01*
X21622325Y-16038984D02*
X21603277Y-16029460D01*
X21603277Y-16029460D02*
X21593754Y-16010412D01*
X21593754Y-16010412D02*
X21593754Y-15934222D01*
X21593754Y-15934222D02*
X21603277Y-15915174D01*
X21603277Y-15915174D02*
X21622325Y-15905650D01*
X21622325Y-15905650D02*
X21660420Y-15905650D01*
X21660420Y-15905650D02*
X21679468Y-15915174D01*
X21679468Y-15915174D02*
X21688992Y-15934222D01*
X21688992Y-15934222D02*
X21688992Y-15953269D01*
X21688992Y-15953269D02*
X21593754Y-15972317D01*
X21860420Y-16038984D02*
X21860420Y-15838984D01*
X21860420Y-16029460D02*
X21841373Y-16038984D01*
X21841373Y-16038984D02*
X21803277Y-16038984D01*
X21803277Y-16038984D02*
X21784230Y-16029460D01*
X21784230Y-16029460D02*
X21774706Y-16019936D01*
X21774706Y-16019936D02*
X21765182Y-16000888D01*
X21765182Y-16000888D02*
X21765182Y-15943746D01*
X21765182Y-15943746D02*
X21774706Y-15924698D01*
X21774706Y-15924698D02*
X21784230Y-15915174D01*
X21784230Y-15915174D02*
X21803277Y-15905650D01*
X21803277Y-15905650D02*
X21841373Y-15905650D01*
X21841373Y-15905650D02*
X21860420Y-15915174D01*
X21936611Y-16115174D02*
X21946135Y-16105650D01*
X21946135Y-16105650D02*
X21965182Y-16077079D01*
X21965182Y-16077079D02*
X21974706Y-16058031D01*
X21974706Y-16058031D02*
X21984230Y-16029460D01*
X21984230Y-16029460D02*
X21993754Y-15981841D01*
X21993754Y-15981841D02*
X21993754Y-15943746D01*
X21993754Y-15943746D02*
X21984230Y-15896127D01*
X21984230Y-15896127D02*
X21974706Y-15867555D01*
X21974706Y-15867555D02*
X21965182Y-15848508D01*
X21965182Y-15848508D02*
X21946135Y-15819936D01*
X21946135Y-15819936D02*
X21936611Y-15810412D01*
M02*
