M48
; DRILL file {KiCad 8.0.5} date 2024-11-12T15:17:24-0400
; FORMAT={-:-/ absolute / metric / decimal}
; #@! TF.CreationDate,2024-11-12T15:17:24-04:00
; #@! TF.GenerationSoftware,Kicad,Pcbnew,8.0.5
; #@! TF.FileFunction,Plated,1,2,PTH
FMAT,2
METRIC
; #@! TA.AperFunction,Plated,PTH,ViaDrill
T1C0.200
; #@! TA.AperFunction,Plated,PTH,ViaDrill
T2C0.300
; #@! TA.AperFunction,Plated,PTH,ComponentDrill
T3C1.000
%
G90
G05
T1
X154.38Y-118.62
X154.38Y-127.44
X154.38Y-136.26
X154.38Y-145.08
X158.87Y-46.68
X160.46Y-18.29
X160.48Y-22.1
X160.7Y-150.75
X160.93Y-112.0
X161.0Y-114.22
X161.1Y-140.64
X161.31Y-88.01
X161.4Y-92.24
X161.56Y-115.21
X161.91Y-132.57
X161.93Y-35.31
X162.48Y-98.89
X162.52Y-106.84
X162.54Y-108.86
X162.71Y-21.09
X162.71Y-27.17
X162.75Y-19.3
X162.826Y-129.874
X163.04Y-77.31
X163.105Y-112.925
X163.83Y-103.81
X164.34Y-85.83
X165.08Y-92.27
X165.11Y-66.91
X165.25Y-75.75
X165.46Y-118.3
X165.76Y-108.26
X166.04Y-68.02
X166.27Y-142.45
X166.29Y-35.29
X166.38Y-98.05
X166.48Y-104.39
X166.5Y-130.0
X166.63Y-114.56
X167.23Y-50.35
X167.46Y-65.69
X167.63Y-89.06
X168.03Y-148.0
X168.69Y-116.62
X168.75Y-62.27
X169.218Y-76.053
X170.19Y-48.02
X170.46Y-76.03
X170.65Y-103.24
X170.7Y-114.63
X170.735Y-42.22
X170.81Y-64.28
X170.98Y-92.55
X171.05Y-142.52
X171.24Y-124.34
X171.25Y-129.75
X171.25Y-132.25
X171.256Y-82.761
X171.74Y-43.37
X171.75Y-107.0
X171.755Y-34.97
X171.79Y-46.33
X171.89Y-49.84
X172.225Y-113.335
X172.62Y-97.01
X172.75Y-99.5
X172.755Y-42.235
X172.955Y-109.975
X173.23Y-36.58
X173.78Y-64.3
X173.8Y-101.8
X173.85Y-76.81
X173.932Y-67.248
X174.18Y-45.54
X174.48Y-134.35
X174.5Y-79.5
X174.59Y-52.8
X174.66Y-36.62
X174.683Y-69.909
X174.69Y-38.19
X174.7Y-62.3
X174.72Y-68.25
X174.8Y-47.725
X174.86Y-94.13
X174.92Y-28.08
X174.92Y-42.97
X174.92Y-86.02
X175.075Y-50.265
X175.17Y-113.12
X175.34Y-128.785
X175.518Y-71.041
X175.523Y-71.954
X177.61Y-46.495
X177.91Y-41.7
X177.97Y-40.57
X178.03Y-57.14
X178.5Y-138.5
X178.51Y-49.15
X178.62Y-143.6
X178.69Y-73.25
X178.76Y-90.13
X178.98Y-97.18
X179.15Y-45.97
X179.29Y-32.12
X179.325Y-67.711
X179.51Y-31.19
X179.58Y-110.75
X180.0Y-39.12
X180.25Y-151.75
X180.36Y-97.99
X180.37Y-99.93
X180.5Y-75.2
X180.536Y-71.386
X180.75Y-81.75
X181.6Y-57.4
X181.6Y-59.8
X181.611Y-73.239
X181.762Y-33.29
X181.77Y-141.81
X181.87Y-147.89
X182.1Y-77.4
X182.889Y-46.456
X182.99Y-143.605
X182.995Y-144.875
X183.0Y-34.07
X183.07Y-36.69
X183.17Y-49.21
X183.19Y-50.265
X184.58Y-120.75
X184.86Y-57.32
X185.34Y-123.98
X185.34Y-129.85
X185.34Y-132.26
X185.34Y-135.83
X185.625Y-48.565
X185.96Y-101.41
X186.74Y-145.14
X186.77Y-65.2
X187.08Y-59.93
X187.4Y-79.75
X187.81Y-86.8
X187.9Y-22.66
X188.03Y-146.145
X188.31Y-147.4
X188.53Y-76.27
X189.58Y-110.75
X189.74Y-64.53
X190.28Y-87.02
X190.75Y-25.23
X190.88Y-55.18
X191.08Y-139.81
X191.24Y-19.48
X192.86Y-132.93
X193.77Y-22.2
X193.79Y-128.36
X193.9Y-127.1
X193.934Y-139.81
X194.03Y-16.63
X194.58Y-120.75
X195.01Y-135.74
X195.95Y-62.48
X196.1Y-101.3
X196.93Y-19.19
X197.11Y-46.02
X197.11Y-48.25
X197.24Y-77.42
X197.62Y-51.55
X197.64Y-55.99
X197.75Y-143.21
X197.75Y-144.365
X197.75Y-145.52
X197.75Y-151.75
X198.5Y-83.201
X198.69Y-130.48
X198.89Y-133.68
X199.02Y-128.35
X199.03Y-125.82
X199.11Y-123.273
X199.19Y-138.53
X199.58Y-110.75
X201.64Y-138.53
X201.741Y-123.28
X202.39Y-140.56
X202.45Y-147.69
X202.8Y-124.79
X202.896Y-62.534
X203.74Y-67.96
X203.82Y-65.61
X203.9Y-52.45
X203.91Y-50.62
X204.0Y-75.8
X204.5Y-83.5
X204.58Y-120.75
X205.4Y-86.219
X206.193Y-127.099
X206.575Y-84.29
X206.67Y-101.01
X206.79Y-93.11
X206.81Y-91.6
X207.305Y-72.005
X207.46Y-75.94
X207.55Y-69.05
X208.48Y-96.5
X209.58Y-110.75
X209.58Y-130.75
X209.96Y-133.52
X210.3Y-86.7
X210.37Y-77.645
X210.49Y-147.05
X211.45Y-96.24
X211.5Y-67.1
X211.51Y-103.1
X211.71Y-74.44
X212.6Y-72.8
X212.936Y-74.546
X213.1Y-71.7
X213.2Y-70.7
X214.0Y-151.55
X214.15Y-147.15
X214.31Y-99.67
X214.58Y-120.75
X214.58Y-140.75
X214.805Y-62.435
X215.72Y-82.89
X215.8Y-86.6
X215.81Y-124.74
X216.4Y-69.5
X216.5Y-67.1
X216.693Y-65.675
X217.61Y-97.14
X218.1Y-70.7
X218.1Y-73.4
X219.58Y-130.75
X219.82Y-102.917
X219.84Y-118.334
X219.84Y-122.184
X219.89Y-29.217
X219.9Y-124.6
X219.906Y-25.067
X219.91Y-56.411
X219.92Y-16.717
X219.92Y-51.401
X219.921Y-20.418
X219.921Y-47.8
X219.928Y-82.373
X219.93Y-75.87
X219.937Y-87.274
X219.941Y-67.47
X219.95Y-98.31
X219.95Y-128.9
X219.956Y-113.32
X219.96Y-72.2
X219.97Y-44.8
X219.986Y-40.65
X220.0Y-32.3
X220.0Y-133.8
X220.001Y-36.0
X220.56Y-60.56
X221.2Y-85.0
X222.24Y-62.375
X223.1Y-78.475
X223.288Y-77.412
X224.35Y-76.427
X224.369Y-77.941
X225.65Y-62.675
X226.21Y-122.164
X226.22Y-25.067
X226.22Y-29.227
X226.22Y-118.334
X226.22Y-133.86
X226.248Y-16.817
X226.25Y-20.337
X226.25Y-113.9
X226.275Y-128.808
X226.28Y-51.371
X226.28Y-56.401
X226.28Y-60.251
X226.286Y-47.749
X226.287Y-97.892
X226.291Y-124.65
X226.298Y-82.261
X226.3Y-40.65
X226.3Y-44.81
X226.3Y-72.164
X226.3Y-103.017
X226.3Y-75.97
X226.317Y-67.134
X226.328Y-32.4
X226.33Y-35.92
X226.883Y-76.5
X226.93Y-91.57
X227.555Y-76.38
X228.071Y-62.387
X228.22Y-91.18
X228.795Y-82.905
X228.828Y-77.775
X228.986Y-62.814
X229.4Y-68.0
X229.461Y-61.214
X230.095Y-62.58
X230.65Y-61.19
X231.34Y-60.53
X231.9Y-62.63
X232.85Y-107.554
X233.0Y-132.45
X233.17Y-76.87
X233.23Y-60.5
X233.26Y-47.58
X233.27Y-44.89
X233.36Y-98.17
X233.37Y-93.16
X233.77Y-92.045
X233.89Y-107.45
X233.911Y-46.799
X234.44Y-123.18
X234.49Y-44.88
X234.49Y-124.84
X234.5Y-46.01
X234.51Y-113.34
X234.548Y-62.65
X235.0Y-77.6
X235.2Y-124.0
X235.8Y-106.914
X235.8Y-109.59
X235.81Y-52.86
X236.4Y-113.35
X236.41Y-16.488
X236.41Y-128.92
X236.42Y-20.328
X236.42Y-51.341
X236.44Y-124.71
X236.45Y-63.25
X236.45Y-93.95
X236.453Y-67.097
X236.46Y-78.34
X236.47Y-82.233
X236.49Y-32.07
X236.5Y-35.91
X237.0Y-139.3
X237.45Y-145.05
X237.5Y-150.1
X237.68Y-132.56
X237.71Y-92.11
X237.715Y-98.575
X238.328Y-124.5
X238.545Y-108.875
X238.985Y-98.1
X238.985Y-123.1
X239.0Y-91.5
X239.0Y-113.9
X239.58Y-150.75
X239.61Y-99.08
X239.649Y-91.93
X240.2Y-92.97
X240.89Y-108.239
X241.05Y-86.9
X241.5Y-107.15
X241.5Y-141.85
X241.53Y-97.71
X242.146Y-86.9
X242.75Y-82.8
X242.795Y-97.7
X242.795Y-107.7
X242.8Y-76.3
X244.0Y-124.54
X244.0Y-129.37
X244.02Y-16.817
X244.02Y-25.367
X244.02Y-29.177
X244.03Y-20.427
X244.04Y-51.351
X244.048Y-78.287
X244.05Y-60.251
X244.05Y-67.15
X244.051Y-122.198
X244.06Y-56.411
X244.065Y-137.605
X244.066Y-47.4
X244.069Y-106.656
X244.07Y-82.503
X244.07Y-87.213
X244.072Y-133.966
X244.074Y-63.233
X244.078Y-103.036
X244.091Y-76.037
X244.1Y-40.95
X244.1Y-44.76
X244.1Y-72.2
X244.1Y-118.304
X244.11Y-36.01
X244.9Y-150.15
X245.35Y-145.15
X245.55Y-139.25
T2
X226.288Y-87.162
T3
X164.025Y-121.595
X164.025Y-124.135
X164.025Y-126.675
X164.025Y-129.215
X164.025Y-131.755
X164.025Y-134.295
X164.025Y-136.835
X164.025Y-139.375
X164.025Y-141.915
X168.66Y-96.8
X168.66Y-99.34
X168.66Y-101.88
X168.66Y-104.42
X168.66Y-106.96
X168.66Y-109.5
X168.66Y-112.04
X168.66Y-114.58
X168.66Y-124.66
X168.66Y-127.2
X168.66Y-129.74
X168.66Y-132.28
X168.66Y-134.82
X168.66Y-137.36
X168.66Y-139.9
X168.66Y-142.44
X176.28Y-96.8
X176.28Y-99.34
X176.28Y-101.88
X176.28Y-104.42
X176.28Y-106.96
X176.28Y-109.5
X176.28Y-112.04
X176.28Y-114.58
X176.28Y-124.66
X176.28Y-127.2
X176.28Y-129.74
X176.28Y-132.28
X176.28Y-134.82
X176.28Y-137.36
X176.28Y-139.9
X176.28Y-142.44
X177.28Y-59.951
X177.28Y-62.491
X177.28Y-65.031
X177.28Y-67.571
X177.28Y-70.111
X177.28Y-72.651
X177.28Y-75.191
X177.28Y-77.731
X177.28Y-80.271
X177.28Y-82.811
X184.9Y-59.951
X184.9Y-62.491
X184.9Y-65.031
X184.9Y-67.571
X184.9Y-70.111
X184.9Y-72.651
X184.9Y-75.191
X184.9Y-77.731
X184.9Y-80.271
X184.9Y-82.811
X192.38Y-59.951
X192.38Y-62.491
X192.38Y-65.031
X192.38Y-67.571
X192.38Y-70.111
X192.38Y-72.651
X192.38Y-75.191
X192.38Y-77.731
X192.38Y-80.271
X192.38Y-82.811
X200.0Y-59.951
X200.0Y-62.491
X200.0Y-65.031
X200.0Y-67.571
X200.0Y-70.111
X200.0Y-72.651
X200.0Y-75.191
X200.0Y-77.731
X200.0Y-80.271
X200.0Y-82.811
M30
