M48
; DRILL file {KiCad 8.0.9} date 2025-05-07T23:17:41-0400
; FORMAT={-:-/ absolute / metric / decimal}
; #@! TF.CreationDate,2025-05-07T23:17:41-04:00
; #@! TF.GenerationSoftware,Kicad,Pcbnew,8.0.9
; #@! TF.FileFunction,Plated,1,2,PTH
FMAT,2
METRIC
; #@! TA.AperFunction,Plated,PTH,ViaDrill
T1C0.200
; #@! TA.AperFunction,Plated,PTH,ViaDrill
T2C0.300
; #@! TA.AperFunction,Plated,PTH,ComponentDrill
T3C0.750
; #@! TA.AperFunction,Plated,PTH,ComponentDrill
T4C1.000
%
G90
G05
T1
X79.96Y-137.46
X88.21Y-113.29
X88.66Y-152.3
X88.81Y-108.67
X90.15Y-111.1
X90.7Y-137.06
X90.7Y-139.76
X91.17Y-156.58
X91.17Y-160.03
X92.16Y-113.21
X92.22Y-118.43
X96.81Y-126.26
X97.645Y-162.725
X97.81Y-143.81
X97.94Y-129.79
X98.505Y-162.665
X98.539Y-127.439
X98.599Y-124.646
X98.69Y-111.68
X100.43Y-159.82
X100.89Y-145.41
X101.18Y-155.11
X101.25Y-159.32
X101.32Y-161.06
X101.48Y-134.58
X102.375Y-110.355
X102.62Y-156.64
X102.73Y-148.69
X102.81Y-135.89
X102.84Y-149.84
X102.85Y-132.01
X102.89Y-140.49
X102.97Y-157.98
X103.37Y-108.35
X103.67Y-155.54
X103.81Y-109.59
X103.81Y-111.5
X103.96Y-131.15
X104.06Y-137.56
X104.63Y-152.41
X104.85Y-154.2
X105.13Y-115.51
X105.13Y-143.73
X105.14Y-129.74
X105.22Y-155.55
X105.24Y-161.78
X105.44Y-107.73
X107.58Y-135.8
X107.78Y-131.65
X107.993Y-146.723
X108.02Y-144.71
X108.07Y-161.78
X108.114Y-160.716
X108.12Y-111.53
X108.62Y-141.06
X108.76Y-159.25
X108.8Y-139.15
X108.92Y-135.23
X109.17Y-124.67
X109.27Y-160.5
X109.285Y-156.345
X109.62Y-142.91
X110.12Y-109.17
X110.17Y-129.81
X110.21Y-161.1
X110.28Y-112.78
X110.33Y-144.74
X111.895Y-147.755
X113.33Y-155.47
X113.42Y-146.04
X113.493Y-125.317
X113.86Y-109.96
X114.0Y-151.9
X114.21Y-124.77
X114.44Y-113.65
X114.775Y-152.825
X115.07Y-156.24
X115.54Y-115.49
X115.58Y-127.85
X116.12Y-143.03
X116.21Y-128.88
X116.575Y-151.765
X116.7Y-153.96
X116.86Y-135.01
X117.48Y-130.07
X117.55Y-118.79
X117.825Y-145.475
X118.06Y-141.77
X118.23Y-121.73
X118.23Y-137.53
X118.38Y-112.15
X118.96Y-129.68
X119.53Y-140.06
X120.07Y-157.12
X120.71Y-124.5
X120.71Y-132.49
X121.56Y-162.28
X122.23Y-107.57
X123.49Y-141.35
X123.5Y-138.84
X123.5Y-140.08
X123.55Y-162.31
X124.36Y-137.57
X124.84Y-153.86
X125.39Y-153.28
X127.19Y-138.88
X127.22Y-137.57
X129.81Y-141.8
X130.06Y-140.36
X132.97Y-159.73
X133.03Y-158.73
X133.09Y-155.85
X133.16Y-139.85
X133.57Y-107.87
X133.7Y-146.62
X134.17Y-160.7
X135.73Y-135.52
X137.54Y-152.82
X138.46Y-149.14
X140.58Y-162.75
X140.91Y-134.27
X142.37Y-140.88
X142.64Y-132.73
X143.01Y-107.87
X143.97Y-128.14
X144.49Y-137.18
X144.52Y-146.06
X144.63Y-149.61
X146.505Y-158.415
X149.81Y-155.21
X150.1Y-116.77
X150.17Y-143.633
X150.17Y-146.05
X150.185Y-110.365
X150.28Y-149.6
X152.63Y-136.46
X152.64Y-114.84
X153.04Y-131.38
X155.34Y-146.15
X155.45Y-149.04
X156.07Y-160.96
X156.36Y-162.26
X159.33Y-162.25
X160.55Y-159.67
X160.99Y-146.14
X161.1Y-149.03
X161.605Y-121.785
X162.43Y-118.66
X164.21Y-141.3
X165.52Y-141.14
X169.46Y-162.29
X172.43Y-162.28
X173.45Y-115.56
X174.21Y-134.55
X175.84Y-74.42
X175.96Y-82.85
X175.96Y-92.305
X179.95Y-128.2
X180.54Y-114.87
X180.57Y-156.5
X180.97Y-107.23
X181.09Y-125.69
X181.61Y-122.49
X181.64Y-159.24
X182.32Y-120.59
X182.33Y-138.96
X182.87Y-107.9
X182.955Y-153.745
X182.99Y-128.31
X183.315Y-74.42
X183.37Y-121.87
X183.88Y-130.24
X183.96Y-128.31
X184.78Y-117.445
X185.12Y-114.96
X185.325Y-113.675
X185.645Y-122.625
X185.81Y-137.89
X185.89Y-125.02
X186.04Y-110.66
X186.17Y-151.15
X186.95Y-118.21
X187.01Y-117.45
X187.17Y-127.63
X187.53Y-114.35
X187.69Y-119.3
X188.05Y-108.029
X188.45Y-146.8
X188.56Y-150.35
X188.92Y-111.34
X190.09Y-118.03
X190.29Y-119.9
X190.52Y-115.55
X191.32Y-111.92
X191.41Y-113.14
X192.04Y-118.72
X192.07Y-116.09
X192.42Y-124.4
X192.81Y-162.12
X192.87Y-104.13
X192.91Y-74.37
X193.13Y-110.69
X193.25Y-129.28
X193.69Y-111.9
X193.71Y-109.48
X194.1Y-146.79
X194.21Y-150.34
X194.365Y-133.145
X194.97Y-135.15
X195.68Y-138.52
X195.78Y-162.11
X196.224Y-109.479
X196.6Y-120.63
X196.95Y-123.76
X196.97Y-133.1
X197.35Y-139.8
X197.42Y-155.67
X197.81Y-132.88
X199.27Y-146.89
X199.38Y-149.78
X202.225Y-74.42
X202.24Y-123.83
X202.45Y-116.3
X203.56Y-132.81
X204.92Y-146.88
X205.03Y-149.77
X205.11Y-109.9
X205.11Y-131.47
X206.205Y-141.615
X206.24Y-138.84
X206.25Y-135.95
X206.32Y-133.31
X207.049Y-101.95
X207.885Y-108.625
X208.144Y-101.95
X208.36Y-156.45
X209.24Y-101.95
X210.4Y-130.27
X210.47Y-108.625
X211.63Y-83.0
X211.63Y-92.455
X211.63Y-101.91
X211.68Y-74.43
T2
X107.93Y-116.61
X110.27Y-137.83
X110.31Y-122.77
X110.31Y-152.89
X110.318Y-107.72
X113.31Y-137.83
X113.35Y-122.77
X113.35Y-152.89
X113.358Y-107.72
X124.155Y-147.275
X132.75Y-150.465
X138.455Y-130.055
X144.781Y-119.95
X144.781Y-139.01
X144.83Y-113.6
X149.116Y-119.95
X149.116Y-139.01
X149.166Y-113.6
X153.93Y-113.61
X153.99Y-119.95
X154.0Y-139.0
X157.92Y-113.61
X157.98Y-119.95
X157.99Y-139.0
X161.375Y-154.625
X164.415Y-154.625
X164.605Y-160.975
X166.471Y-113.61
X166.531Y-119.96
X166.581Y-139.0
X170.806Y-113.61
X170.866Y-119.96
X170.916Y-139.0
X174.4Y-153.38
X175.67Y-119.94
X175.73Y-113.59
X175.73Y-139.0
X177.44Y-153.38
X177.55Y-161.005
X179.66Y-119.94
X179.72Y-113.59
X179.72Y-139.0
X187.24Y-130.08
X195.825Y-160.835
X195.86Y-157.5
X197.74Y-154.49
X198.168Y-141.71
X198.298Y-120.05
X200.78Y-154.49
X201.338Y-120.05
X201.55Y-141.71
T3
X81.915Y-152.5
X81.915Y-154.5
X81.915Y-156.5
X81.915Y-158.5
X81.915Y-160.5
X81.915Y-162.5
X81.995Y-136.455
X81.995Y-138.455
X81.995Y-140.455
X81.995Y-142.455
X81.995Y-144.455
X81.995Y-146.455
T4
X82.555Y-113.215
X82.555Y-115.755
X82.555Y-118.295
X82.555Y-120.835
X82.555Y-123.375
X82.555Y-125.915
X82.555Y-128.455
X82.555Y-130.995
X90.175Y-113.215
X90.175Y-115.755
X90.175Y-118.295
X90.175Y-120.835
X90.175Y-123.375
X90.175Y-125.915
X90.175Y-128.455
X90.175Y-130.995
X95.11Y-108.03
X95.11Y-110.57
X95.11Y-113.11
X95.11Y-115.65
X95.11Y-118.19
X95.11Y-120.73
X95.11Y-123.27
X95.11Y-125.81
X95.11Y-128.35
X95.11Y-130.89
X95.11Y-137.33
X95.11Y-139.87
X95.11Y-142.41
X95.11Y-144.95
X95.11Y-147.49
X95.11Y-150.03
X95.11Y-152.57
X95.11Y-155.11
X95.11Y-157.65
X95.11Y-160.19
X177.79Y-76.431
X177.79Y-78.971
X177.79Y-81.511
X177.79Y-84.051
X177.79Y-86.591
X177.79Y-89.131
X177.79Y-91.671
X177.79Y-94.211
X177.79Y-96.751
X177.79Y-99.291
X185.41Y-76.431
X185.41Y-78.971
X185.41Y-81.511
X185.41Y-84.051
X185.41Y-86.591
X185.41Y-89.131
X185.41Y-91.671
X185.41Y-94.211
X185.41Y-96.751
X185.41Y-99.291
X192.94Y-76.431
X192.94Y-78.971
X192.94Y-81.511
X192.94Y-84.051
X192.94Y-86.591
X192.94Y-89.131
X192.94Y-91.671
X192.94Y-94.211
X192.94Y-96.751
X192.94Y-99.291
X200.56Y-76.431
X200.56Y-78.971
X200.56Y-81.511
X200.56Y-84.051
X200.56Y-86.591
X200.56Y-89.131
X200.56Y-91.671
X200.56Y-94.211
X200.56Y-96.751
X200.56Y-99.291
M30
